<svg width="754" height="159" viewBox="0 0 754 159" fill="none" xmlns="http://www.w3.org/2000/svg">
<path d="M1.12536 4.99326C0.485855 3.46479 1.20652 1.70729 2.73495 1.06781C4.26343 0.428298 6.02093 1.14893 6.66043 2.6774L1.12536 4.99326ZM733.514 157.457C732.342 158.628 730.443 158.628 729.271 157.457L710.18 138.365C709.008 137.193 709.008 135.294 710.18 134.122C711.351 132.951 713.251 132.951 714.422 134.122L731.393 151.093L748.363 134.122C749.535 132.951 751.434 132.951 752.606 134.122C753.777 135.294 753.777 137.193 752.606 138.365L733.514 157.457ZM728.127 149.438C727.976 147.788 729.19 146.327 730.84 146.175C732.49 146.023 733.95 147.238 734.102 148.888L728.127 149.438ZM731.755 136.716C732.235 138.301 731.339 139.976 729.754 140.457C728.168 140.937 726.493 140.041 726.013 138.456L731.755 136.716ZM721.578 128.127C720.758 126.688 721.26 124.856 722.7 124.036C724.14 123.216 725.971 123.718 726.791 125.158L721.578 128.127ZM719.464 115.007C720.567 116.243 720.459 118.139 719.222 119.242C717.986 120.345 716.09 120.237 714.987 119.001L719.464 115.007ZM706.722 111.279C705.42 110.253 705.197 108.367 706.222 107.066C707.248 105.764 709.134 105.54 710.435 106.566L706.722 111.279ZM700.227 99.6465C701.656 100.484 702.136 102.322 701.299 103.751C700.462 105.181 698.624 105.661 697.194 104.824L700.227 99.6465ZM686.697 99.4375C685.187 98.757 684.514 96.9807 685.194 95.4701C685.875 93.9594 687.651 93.2865 689.162 93.967L686.697 99.4375ZM678.066 89.5094C679.626 90.0682 680.437 91.7856 679.878 93.3454C679.32 94.9052 677.602 95.7167 676.042 95.158L678.066 89.5094ZM664.817 91.5507C663.224 91.0921 662.306 89.4297 662.764 87.8376C663.223 86.2455 664.885 85.3265 666.477 85.7851L664.817 91.5507ZM654.748 82.7369C656.362 83.1145 657.363 84.7284 656.986 86.3416C656.608 87.9549 654.994 88.9566 653.381 88.579L654.748 82.7369ZM641.89 86.1428C640.262 85.831 639.196 84.2592 639.508 82.6319C639.819 81.0047 641.391 79.9382 643.019 80.2499L641.89 86.1428ZM631.047 78.1732C632.684 78.4294 633.803 79.9642 633.547 81.6011C633.29 83.238 631.756 84.3572 630.119 84.1009L631.047 78.1732ZM618.487 82.4501C616.843 82.2395 615.682 80.7366 615.892 79.0931C616.103 77.4497 617.606 76.2882 619.249 76.4988L618.487 82.4501ZM607.227 75.108C608.875 75.2793 610.072 76.754 609.901 78.402C609.73 80.05 608.255 81.2471 606.607 81.0758L607.227 75.108ZM594.847 79.9761C593.196 79.838 591.969 78.3876 592.107 76.7365C592.245 75.0854 593.696 73.8589 595.347 73.997L594.847 79.9761ZM583.362 73.1019C585.015 73.2113 586.267 74.6402 586.157 76.2934C586.048 77.9467 584.619 79.1982 582.966 79.0888L583.362 73.1019ZM571.072 78.3936C569.417 78.309 568.144 76.8991 568.229 75.2444C568.313 73.5897 569.723 72.3168 571.378 72.4014L571.072 78.3936ZM559.462 71.8714C561.118 71.9346 562.409 73.328 562.346 74.9836C562.282 76.6393 560.889 77.9302 559.233 77.8671L559.462 71.8714ZM547.21 77.4786C545.554 77.4344 544.247 76.0558 544.292 74.3996C544.336 72.7433 545.714 71.4365 547.371 71.4808L547.21 77.4786ZM535.527 71.2232C537.184 71.2513 538.504 72.6171 538.476 74.2737C538.447 75.9303 537.082 77.2505 535.425 77.2223L535.527 71.2232ZM523.43 77.0714C521.773 77.0575 520.441 75.7032 520.455 74.0464C520.469 72.3896 521.823 71.0578 523.48 71.0716L523.43 77.0714ZM511.561 71.0171C513.218 71.0187 514.56 72.3631 514.558 74.02C514.556 75.6768 513.212 77.0187 511.555 77.0172L511.561 71.0171ZM499.648 77.0452C497.992 77.0543 496.641 75.7186 496.632 74.0618C496.623 72.4049 497.959 71.0544 499.615 71.0453L499.648 77.0452ZM487.578 71.1461C489.235 71.1277 490.593 72.4559 490.611 74.1126C490.629 75.7694 489.301 77.1274 487.645 77.1457L487.578 71.1461ZM475.799 77.3059C474.143 77.3322 472.778 76.0104 472.752 74.3538C472.726 72.6972 474.048 71.3329 475.704 71.3067L475.799 77.3059ZM463.718 71.5212C465.374 71.4883 466.744 72.8045 466.777 74.4611C466.81 76.1176 465.493 77.4871 463.837 77.52L463.718 71.5212ZM451.907 77.7771C450.251 77.8155 448.877 76.5038 448.839 74.8474C448.8 73.191 450.112 71.8171 451.768 71.7788L451.907 77.7771ZM439.85 72.0714C441.506 72.0286 442.884 73.3366 442.926 74.9929C442.969 76.6492 441.661 78.0266 440.005 78.0694L439.85 72.0714ZM428.026 78.3919C426.37 78.4381 424.99 77.1329 424.944 75.4767C424.898 73.8205 426.203 72.4404 427.859 72.3942L428.026 78.3919ZM415.95 72.736C417.606 72.6873 418.988 73.9904 419.037 75.6465C419.086 77.3027 417.782 78.6847 416.126 78.7334L415.95 72.736ZM404.197 79.0902C402.54 79.1404 401.157 77.8387 401.107 76.1826C401.057 74.5265 402.359 73.1432 404.015 73.093L404.197 79.0902ZM392.055 73.4586C393.712 73.4077 395.095 74.709 395.146 76.3651C395.197 78.0211 393.896 79.4049 392.24 79.4558L392.055 73.4586ZM380.319 79.8217C378.663 79.8724 377.279 78.5709 377.229 76.9148C377.178 75.2587 378.48 73.8752 380.136 73.8245L380.319 79.8217ZM368.203 74.186C369.859 74.1365 371.242 75.4389 371.291 77.095C371.341 78.7511 370.038 80.1338 368.382 80.1834L368.203 74.186ZM356.436 80.5342C354.78 80.5817 353.399 79.2777 353.351 77.6215C353.304 75.9654 354.608 74.5842 356.264 74.5366L356.436 80.5342ZM344.33 74.8697C345.986 74.825 347.365 76.1314 347.409 77.7876C347.454 79.4439 346.148 80.8228 344.492 80.8675L344.33 74.8697ZM332.564 81.1766C330.908 81.2176 329.532 79.908 329.491 78.2517C329.45 76.5953 330.759 75.2194 332.416 75.1784L332.564 81.1766ZM320.467 75.4576C322.124 75.4213 323.496 76.7348 323.532 78.3912C323.569 80.0477 322.255 81.4199 320.599 81.4562L320.467 75.4576ZM308.647 81.6983C306.99 81.7289 305.623 80.4108 305.592 78.7543C305.561 77.0977 306.879 75.7299 308.536 75.6993L308.647 81.6983ZM296.658 75.8959C298.315 75.8719 299.677 77.1954 299.701 78.8521C299.725 80.5088 298.402 81.8713 296.745 81.8953L296.658 75.8959ZM284.73 82.0422C283.073 82.0585 281.717 80.7287 281.701 79.0719C281.684 77.4151 283.014 76.0588 284.671 76.0425L284.73 82.0422ZM272.765 76.1286C274.422 76.1212 275.771 77.4583 275.779 79.1151C275.786 80.7719 274.449 82.1211 272.792 82.1286L272.765 76.1286ZM260.851 82.147C259.194 82.1445 257.853 80.7992 257.856 79.1424C257.858 77.4855 259.203 76.1445 260.86 76.147L260.851 82.147ZM248.891 76.0881C250.547 76.1021 251.879 77.4565 251.865 79.1133C251.851 80.7701 250.497 82.1019 248.84 82.0879L248.891 76.0881ZM236.948 81.9426C235.291 81.9159 233.97 80.5513 233.997 78.8946C234.024 77.238 235.388 75.9167 237.045 75.9434L236.948 81.9426ZM225.071 75.699C226.728 75.7402 228.037 77.1163 227.996 78.7726C227.955 80.429 226.578 81.7383 224.922 81.6971L225.071 75.699ZM212.958 81.3422C211.302 81.2848 210.006 79.896 210.064 78.2401C210.121 76.5843 211.51 75.2884 213.166 75.3458L212.958 81.3422ZM201.335 74.8727C202.99 74.9481 204.271 76.351 204.195 78.0061C204.12 79.6612 202.717 80.9419 201.062 80.8665L201.335 74.8727ZM189.003 80.2437C187.349 80.1477 186.086 78.7291 186.181 77.075C186.277 75.4209 187.696 74.1578 189.35 74.2537L189.003 80.2437ZM177.584 73.492C179.237 73.6106 180.48 75.0464 180.362 76.6991C180.243 78.3517 178.807 79.5952 177.155 79.4766L177.584 73.492ZM165.104 78.5184C163.454 78.3738 162.233 76.9186 162.378 75.268C162.522 73.6175 163.978 72.3967 165.628 72.5413L165.104 78.5184ZM153.831 71.4052C155.479 71.5788 156.674 73.0554 156.5 74.7031C156.327 76.3508 154.85 77.5458 153.202 77.3721L153.831 71.4052ZM141.283 75.9974C139.639 75.7907 138.474 74.2904 138.681 72.6465C138.887 71.0026 140.388 69.8375 142.031 70.0443L141.283 75.9974ZM130.231 68.4254C131.87 68.6699 133 70.1966 132.756 71.8353C132.511 73.474 130.984 74.6042 129.346 74.3597L130.231 68.4254ZM117.566 72.4479C115.934 72.1605 114.844 70.6048 115.131 68.9731C115.419 67.3413 116.974 66.2514 118.606 66.5388L117.566 72.4479ZM106.872 64.2907C108.494 64.6281 109.535 66.2166 109.198 67.8387C108.861 69.4609 107.272 70.5024 105.65 70.165L106.872 64.2907ZM94.0168 67.5363C92.4076 67.142 91.4227 65.5177 91.817 63.9085C92.2114 62.2992 93.8356 61.3144 95.4448 61.7087L94.0168 67.5363ZM83.9195 58.632C85.5106 59.0941 86.4259 60.7585 85.9639 62.3496C85.5018 63.9408 83.8374 64.8561 82.2463 64.394L83.9195 58.632ZM70.8063 60.772C69.24 60.2319 68.408 58.5242 68.9481 56.9579C69.4883 55.3916 71.1959 54.5596 72.7623 55.0997L70.8063 60.772ZM61.7133 50.9269C63.2444 51.56 63.9725 53.3144 63.3394 54.8456C62.7064 56.3767 60.9519 57.1048 59.4208 56.4717L61.7133 50.9269ZM48.3568 51.4371C46.8754 50.6951 46.276 48.8927 47.018 47.4113C47.76 45.9299 49.5624 45.3304 51.0438 46.0724L48.3568 51.4371ZM40.9318 40.464C42.3431 41.3319 42.7837 43.1796 41.9158 44.591C41.0479 46.0023 39.2002 46.4429 37.7889 45.575L40.9318 40.464ZM27.6125 38.5619C26.3024 37.5476 26.0626 35.6633 27.0769 34.3532C28.0913 33.0431 29.9755 32.8033 31.2857 33.8176L27.6125 38.5619ZM22.6561 26.2428C23.8275 27.4146 23.8271 29.3141 22.6554 30.4855C21.4836 31.6568 19.5841 31.6565 18.4127 30.4847L22.6561 26.2428ZM10.3425 21.1572C9.35507 19.8268 9.63316 17.9477 10.9636 16.9603C12.2941 15.9729 14.1731 16.251 15.1605 17.5814L10.3425 21.1572ZM9.09821 7.89263C9.86088 9.36352 9.28677 11.1741 7.81586 11.9368C6.345 12.6995 4.53434 12.1253 3.77168 10.6544L9.09821 7.89263ZM728.393 155.335C728.393 153.314 728.303 151.349 728.127 149.438L734.102 148.888C734.295 150.988 734.393 153.137 734.393 155.335L728.393 155.335ZM726.013 138.456C724.905 134.801 723.421 131.364 721.578 128.127L726.791 125.158C728.855 128.782 730.517 132.632 731.755 136.716L726.013 138.456ZM714.987 119.001C712.55 116.27 709.792 113.698 706.722 111.279L710.435 106.566C713.757 109.183 716.775 111.992 719.464 115.007L714.987 119.001ZM697.194 104.824C693.93 102.912 690.428 101.118 686.697 99.4375L689.162 93.967C693.067 95.7262 696.76 97.6161 700.227 99.6465L697.194 104.824ZM676.042 95.158C672.459 93.8745 668.715 92.6734 664.817 91.5507L666.477 85.7851C670.486 86.9398 674.352 88.1793 678.066 89.5094L676.042 95.158ZM653.381 88.579C649.663 87.7087 645.83 86.8977 641.89 86.1428L643.019 80.2499C647.033 81.0189 650.945 81.8466 654.748 82.7369L653.381 88.579ZM630.119 84.1009C626.325 83.507 622.446 82.9576 618.487 82.4501L619.249 76.4988C623.26 77.0128 627.194 77.57 631.047 78.1732L630.119 84.1009ZM606.607 81.0758C602.752 80.6753 598.831 80.3094 594.847 79.9761L595.347 73.997C599.369 74.3334 603.33 74.703 607.227 75.108L606.607 81.0758ZM582.966 79.0888C579.053 78.83 575.088 78.5989 571.072 78.3936L571.378 72.4014C575.422 72.6081 579.418 72.841 583.362 73.1019L582.966 79.0888ZM559.233 77.8671C555.268 77.7158 551.26 77.5869 547.21 77.4786L547.371 71.4808C551.442 71.5896 555.473 71.7192 559.462 71.8714L559.233 77.8671ZM535.425 77.2223C531.461 77.1549 527.461 77.1051 523.43 77.0714L523.48 71.0716C527.528 71.1055 531.544 71.1555 535.527 71.2232L535.425 77.2223ZM511.555 77.0172C507.613 77.0134 503.643 77.0232 499.648 77.0452L499.615 71.0453C503.622 71.0233 507.605 71.0134 511.561 71.0171L511.555 77.0172ZM487.645 77.1457C483.717 77.1893 479.768 77.2432 475.799 77.3059L475.704 71.3067C479.682 71.2438 483.64 71.1898 487.578 71.1461L487.645 77.1457ZM463.837 77.52C459.877 77.5986 455.899 77.6847 451.907 77.7771L451.768 71.7788C455.766 71.6862 459.75 71.5999 463.718 71.5212L463.837 77.52ZM440.005 78.0694C436.024 78.1722 432.031 78.2801 428.026 78.3919L427.859 72.3942C431.867 72.2823 435.864 72.1743 439.85 72.0714L440.005 78.0694ZM416.126 78.7334C412.158 78.8501 408.18 78.9694 404.197 79.0902L404.015 73.093C408 72.9721 411.979 72.8527 415.95 72.736L416.126 78.7334ZM392.24 79.4558C388.27 79.5778 384.296 79.7001 380.319 79.8217L380.136 73.8245C384.112 73.7029 388.086 73.5806 392.055 73.4586L392.24 79.4558ZM368.382 80.1834C364.4 80.3025 360.418 80.4198 356.436 80.5342L356.264 74.5366C360.243 74.4223 364.223 74.3051 368.203 74.186L368.382 80.1834ZM344.492 80.8675C340.512 80.9749 336.536 81.0783 332.564 81.1766L332.416 75.1784C336.382 75.0803 340.354 74.977 344.33 74.8697L344.492 80.8675ZM320.599 81.4562C316.607 81.5436 312.623 81.6247 308.647 81.6983L308.536 75.6993C312.504 75.6259 316.482 75.5449 320.467 75.4576L320.599 81.4562ZM296.745 81.8953C292.729 81.9536 288.723 82.003 284.73 82.0422L284.671 76.0425C288.654 76.0034 292.65 75.9541 296.658 75.8959L296.745 81.8953ZM272.792 82.1286C268.796 82.1466 264.815 82.1532 260.851 82.147L260.86 76.147C264.811 76.1531 268.78 76.1466 272.765 76.1286L272.792 82.1286ZM248.84 82.0879C244.856 82.0542 240.891 82.0062 236.948 81.9426L237.045 75.9434C240.971 76.0068 244.921 76.0546 248.891 76.0881L248.84 82.0879ZM224.922 81.6971C220.908 81.5973 216.919 81.4794 212.958 81.3422L213.166 75.3458C217.106 75.4823 221.075 75.5996 225.071 75.699L224.922 81.6971ZM201.062 80.8665C197.009 80.6818 192.988 80.4748 189.003 80.2437L189.35 74.2537C193.309 74.4833 197.305 74.6891 201.335 74.8727L201.062 80.8665ZM177.155 79.4766C173.096 79.1854 169.079 78.8666 165.104 78.5184L165.628 72.5413C169.569 72.8866 173.556 73.2029 177.584 73.492L177.155 79.4766ZM153.202 77.3721C149.178 76.948 145.204 76.4904 141.283 75.9974L142.031 70.0443C145.911 70.532 149.845 70.985 153.831 71.4052L153.202 77.3721ZM129.346 74.3597C125.356 73.7645 121.428 73.1279 117.566 72.4479L118.606 66.5388C122.414 67.2093 126.29 67.8374 130.231 68.4254L129.346 74.3597ZM105.65 70.165C101.693 69.3419 97.8132 68.4666 94.0168 67.5363L95.4448 61.7087C99.1687 62.6212 102.979 63.4811 106.872 64.2907L105.65 70.165ZM82.2463 64.394C78.3289 63.2564 74.5135 62.0503 70.8063 60.772L72.7623 55.0997C76.3698 56.3437 80.0907 57.5201 83.9195 58.632L82.2463 64.394ZM59.4208 56.4717C55.5922 54.8888 51.9012 53.2124 48.3568 51.4371L51.0438 46.0724C54.4496 47.7783 58.0083 49.3952 61.7133 50.9269L59.4208 56.4717ZM37.7889 45.575C34.2026 43.3697 30.8062 41.0345 27.6125 38.5619L31.2857 33.8176C34.2972 36.1492 37.5152 38.3631 40.9318 40.464L37.7889 45.575ZM18.4127 30.4847C15.4712 27.5422 12.7758 24.4358 10.3425 21.1572L15.1605 17.5814C17.4104 20.6129 19.912 23.4978 22.6561 26.2428L18.4127 30.4847ZM3.77168 10.6544C2.81653 8.81234 1.93381 6.92556 1.12536 4.99326L6.66043 2.6774C7.40541 4.45792 8.21849 6.19596 9.09821 7.89263L3.77168 10.6544Z" fill="#0092FC"/>
</svg>
