<svg width="98" height="48" viewBox="0 0 98 48" fill="none" xmlns="http://www.w3.org/2000/svg">
<path d="M2.56585 0.999871C2.56585 0.447586 2.11813 -0.000129281 1.56585 -0.000129044C1.01356 -0.000128761 0.565849 0.447587 0.565849 0.999871L2.56585 0.999871ZM91.0254 47.8414C91.4901 48.1398 92.1087 48.0051 92.4072 47.5404L97.2709 39.9678C97.5693 39.5031 97.4346 38.8844 96.9699 38.586C96.5052 38.2875 95.8865 38.4223 95.5881 38.887L91.2648 45.6182L84.5336 41.2949C84.0689 40.9964 83.4502 41.1312 83.1518 41.5959C82.8533 42.0606 82.9881 42.6792 83.4528 42.9777L91.0254 47.8414ZM0.62628 3.16962C0.65788 3.721 1.13048 4.14237 1.68186 4.11077C2.23324 4.07917 2.6546 3.60657 2.623 3.05519L0.62628 3.16962ZM3.1119 6.96216C3.00219 6.42088 2.47446 6.07103 1.93318 6.18074C1.3919 6.29045 1.04205 6.81819 1.15176 7.35946L3.1119 6.96216ZM2.38468 11.4373C2.59808 11.9467 3.18402 12.1867 3.69341 11.9733C4.2028 11.7599 4.44274 11.1739 4.22934 10.6645L2.38468 11.4373ZM6.1259 13.9847C5.79212 13.5446 5.16484 13.4585 4.72483 13.7923C4.28481 14.1261 4.19868 14.7533 4.53246 15.1934L6.1259 13.9847ZM7.60003 18.2702C8.03815 18.6065 8.66591 18.5239 9.00217 18.0858C9.33843 17.6477 9.25587 17.0199 8.81775 16.6836L7.60003 18.2702ZM12.1349 18.657C11.6328 18.4271 11.0393 18.6477 10.8094 19.1499C10.5794 19.652 10.8001 20.2455 11.3022 20.4754L12.1349 18.657ZM15.2974 21.9039C15.8301 22.0495 16.38 21.7356 16.5257 21.2029C16.6713 20.6702 16.3574 20.1202 15.8247 19.9746L15.2974 21.9039ZM19.7283 20.7956C19.1826 20.7102 18.671 21.0833 18.5856 21.629C18.5002 22.1746 18.8733 22.6862 19.419 22.7716L19.7283 20.7956ZM23.5729 23.2522C24.1234 23.2964 24.6055 22.8859 24.6497 22.3354C24.6938 21.7849 24.2834 21.3028 23.7328 21.2587L23.5729 23.2522ZM27.7644 21.4742C27.2123 21.4575 26.7513 21.8914 26.7346 22.4435C26.7179 22.9955 27.1518 23.4565 27.7039 23.4733L27.7644 21.4742ZM31.8289 23.5269C32.3811 23.5259 32.8281 23.0775 32.8271 22.5252C32.8262 21.9729 32.3777 21.5259 31.8254 21.5269L31.8289 23.5269ZM35.9032 21.4785C35.351 21.4895 34.9123 21.9461 34.9234 22.4983C34.9344 23.0504 35.391 23.4891 35.9432 23.4781L35.9032 21.4785ZM40.0466 23.3778C40.5987 23.3629 41.0341 22.9032 41.0192 22.3511C41.0042 21.799 40.5445 21.3636 39.9924 21.3786L40.0466 23.3778ZM44.0917 21.2698C43.5396 21.2833 43.1029 21.7418 43.1164 22.2939C43.1298 22.846 43.5883 23.2827 44.1404 23.2692L44.0917 21.2698ZM48.2255 23.1916C48.7778 23.1849 49.22 22.7318 49.2133 22.1795C49.2066 21.6273 48.7535 21.185 48.2013 21.1917L48.2255 23.1916ZM52.3211 21.1836C51.7689 21.1782 51.3168 21.6215 51.3114 22.1737C51.3059 22.726 51.7492 23.1781 52.3015 23.1835L52.3211 21.1836ZM56.3651 23.2857C56.9169 23.3091 57.3832 22.8808 57.4066 22.329C57.43 21.7772 57.0017 21.3109 56.4499 21.2875L56.3651 23.2857ZM60.583 21.5512C60.0328 21.5031 59.5478 21.9101 59.4997 22.4603C59.4516 23.0104 59.8586 23.4955 60.4088 23.5436L60.583 21.5512ZM64.4177 24.009C64.9641 24.0898 65.4724 23.7123 65.5531 23.1659C65.6339 22.6196 65.2564 22.1112 64.71 22.0305L64.4177 24.009ZM68.81 22.7923C68.2715 22.6697 67.7355 23.0068 67.6129 23.5453C67.4902 24.0838 67.8274 24.6197 68.3659 24.7424L68.81 22.7923ZM72.2116 25.8116C72.7354 25.9866 73.3019 25.7037 73.4769 25.1799C73.6518 24.6561 73.369 24.0896 72.8451 23.9146L72.2116 25.8116ZM76.7558 25.4835C76.2573 25.2459 75.6605 25.4575 75.4229 25.9561C75.1854 26.4547 75.397 27.0515 75.8956 27.289L76.7558 25.4835ZM79.3286 29.234C79.7875 29.5412 80.4086 29.4182 80.7158 28.9592C81.0231 28.5003 80.9001 27.8792 80.4411 27.572L79.3286 29.234ZM83.7695 30.2063C83.3657 29.8295 82.7329 29.8515 82.3561 30.2553C81.9794 30.6591 82.0013 31.2919 82.4052 31.6687L83.7695 30.2063ZM85.0423 34.5686C85.3795 35.006 86.0074 35.0872 86.4448 34.75C86.8822 34.4128 86.9634 33.7849 86.6262 33.3475L85.0423 34.5686ZM88.9459 36.8925C88.6788 36.4091 88.0704 36.2338 87.587 36.5009C87.1036 36.768 86.9283 37.3765 87.1954 37.8598L88.9459 36.8925ZM88.8682 41.4407C89.0694 41.955 89.6495 42.2088 90.1638 42.0076C90.6781 41.8063 90.9319 41.2263 90.7307 40.7119L88.8682 41.4407ZM92.0345 44.6953C91.8909 44.1621 91.3421 43.8462 90.8088 43.9899C90.2756 44.1335 89.9597 44.6823 90.1034 45.2156L92.0345 44.6953ZM0.565849 0.999871C0.565849 1.74606 0.586133 2.46909 0.62628 3.16962L2.623 3.05519C2.58515 2.39467 2.56585 1.70986 2.56585 0.999871L0.565849 0.999871ZM1.15176 7.35946C1.45178 8.83962 1.86464 10.196 2.38468 11.4373L4.22934 10.6645C3.76436 9.55465 3.38817 8.32516 3.1119 6.96216L1.15176 7.35946ZM4.53246 15.1934C5.42716 16.3729 6.4558 17.392 7.60003 18.2702L8.81775 16.6836C7.80886 15.9093 6.90816 15.0159 6.1259 13.9847L4.53246 15.1934ZM11.3022 20.4754C12.5581 21.0505 13.8949 21.5205 15.2974 21.9039L15.8247 19.9746C14.5105 19.6154 13.2779 19.1805 12.1349 18.657L11.3022 20.4754ZM19.419 22.7716C20.7613 22.9816 22.149 23.138 23.5729 23.2522L23.7328 21.2587C22.35 21.1477 21.0129 20.9967 19.7283 20.7956L19.419 22.7716ZM27.7039 23.4733C29.0556 23.5142 30.4329 23.5293 31.8289 23.5269L31.8254 21.5269C30.4458 21.5292 29.0903 21.5143 27.7644 21.4742L27.7039 23.4733ZM35.9432 23.4781C37.3 23.4509 38.6702 23.4152 40.0466 23.3778L39.9924 21.3786C38.6167 21.4159 37.2525 21.4515 35.9032 21.4785L35.9432 23.4781ZM44.1404 23.2692C45.5018 23.2361 46.8648 23.2081 48.2255 23.1916L48.2013 21.1917C46.8296 21.2083 45.4578 21.2366 44.0917 21.2698L44.1404 23.2692ZM52.3015 23.1835C53.6659 23.1969 55.022 23.2288 56.3651 23.2857L56.4499 21.2875C55.0815 21.2295 53.7034 21.1972 52.3211 21.1836L52.3015 23.1835ZM60.4088 23.5436C61.7671 23.6623 63.1051 23.8151 64.4177 24.009L64.71 22.0305C63.3535 21.8301 61.9758 21.6729 60.583 21.5512L60.4088 23.5436ZM68.3659 24.7424C69.6851 25.0428 70.9689 25.3966 72.2116 25.8116L72.8451 23.9146C71.534 23.4767 70.1864 23.1058 68.81 22.7923L68.3659 24.7424ZM75.8956 27.289C77.0929 27.8594 78.2392 28.5048 79.3286 29.234L80.4411 27.572C79.2658 26.7852 78.0345 26.0927 76.7558 25.4835L75.8956 27.289ZM82.4052 31.6687C83.3429 32.5435 84.224 33.5071 85.0423 34.5686L86.6262 33.3475C85.741 32.1992 84.7864 31.155 83.7695 30.2063L82.4052 31.6687ZM87.1954 37.8598C87.8069 38.9665 88.3662 40.1579 88.8682 41.4407L90.7307 40.7119C90.198 39.3508 89.6018 38.0794 88.9459 36.8925L87.1954 37.8598ZM90.1034 45.2156C90.2775 45.8618 90.4394 46.5274 90.5887 47.2128L92.5429 46.7871C92.3869 46.071 92.2173 45.3739 92.0345 44.6953L90.1034 45.2156Z" fill="#0092FC"/>
</svg>
