<svg width="97" height="49" viewBox="0 0 97 49" fill="none" xmlns="http://www.w3.org/2000/svg">
<path d="M95.0001 1.66824C95.0001 1.11595 95.4478 0.668236 96.0001 0.668236C96.5524 0.668237 97.0001 1.11595 97.0001 1.66824L95.0001 1.66824ZM6.54054 48.5097C6.07585 48.8082 5.4572 48.6734 5.15873 48.2088L0.295037 40.6361C-0.00342603 40.1714 0.131334 39.5528 0.596025 39.2543C1.06072 38.9559 1.67938 39.0906 1.97784 39.5553L6.30112 46.2865L13.0323 41.9632C13.497 41.6648 14.1157 41.7995 14.4141 42.2642C14.7126 42.7289 14.5779 43.3476 14.1132 43.646L6.54054 48.5097ZM96.9396 3.83799C96.908 4.38937 96.4354 4.81073 95.8841 4.77913C95.3327 4.74753 94.9113 4.27493 94.9429 3.72355L96.9396 3.83799ZM94.454 7.63052C94.5637 7.08925 95.0915 6.73939 95.6327 6.84911C96.174 6.95882 96.5239 7.48655 96.4142 8.02783L94.454 7.63052ZM95.1812 12.1057C94.9678 12.6151 94.3819 12.855 93.8725 12.6416C93.3631 12.4282 93.1232 11.8423 93.3366 11.3329L95.1812 12.1057ZM91.44 14.653C91.7738 14.213 92.4011 14.1269 92.8411 14.4607C93.2811 14.7944 93.3672 15.4217 93.0335 15.8617L91.44 14.653ZM89.9659 18.9386C89.5278 19.2748 88.9 19.1923 88.5637 18.7541C88.2275 18.316 88.3101 17.6883 88.7482 17.352L89.9659 18.9386ZM85.431 19.3254C85.9331 19.0955 86.5266 19.3161 86.7565 19.8182C86.9865 20.3204 86.7658 20.9138 86.2637 21.1438L85.431 19.3254ZM82.2685 22.5722C81.7358 22.7178 81.1859 22.404 81.0403 21.8713C80.8946 21.3385 81.2085 20.7886 81.7412 20.643L82.2685 22.5722ZM77.8377 21.464C78.3833 21.3786 78.8949 21.7517 78.9803 22.2973C79.0657 22.843 78.6926 23.3545 78.1469 23.4399L77.8377 21.464ZM73.993 23.9206C73.4425 23.9648 72.9604 23.5543 72.9163 23.0038C72.8721 22.4533 73.2826 21.9712 73.8331 21.927L73.993 23.9206ZM69.8016 22.1425C70.3536 22.1258 70.8146 22.5598 70.8313 23.1118C70.848 23.6639 70.4141 24.1249 69.862 24.1416L69.8016 22.1425ZM65.7371 24.1953C65.1848 24.1943 64.7378 23.7458 64.7388 23.1935C64.7397 22.6413 65.1882 22.1943 65.7405 22.1953L65.7371 24.1953ZM61.6627 22.1468C62.2149 22.1579 62.6536 22.6145 62.6425 23.1666C62.6315 23.7188 62.1749 24.1575 61.6227 24.1464L61.6627 22.1468ZM57.5193 24.0462C56.9672 24.0312 56.5318 23.5715 56.5468 23.0195C56.5617 22.4674 57.0214 22.032 57.5735 22.0469L57.5193 24.0462ZM53.4742 21.9382C54.0263 21.9516 54.463 22.4101 54.4495 22.9622C54.4361 23.5144 53.9776 23.9511 53.4255 23.9376L53.4742 21.9382ZM49.3404 23.8599C48.7882 23.8533 48.3459 23.4002 48.3526 22.8479C48.3593 22.2957 48.8124 21.8534 49.3646 21.8601L49.3404 23.8599ZM45.2448 21.852C45.7971 21.8465 46.2491 22.2898 46.2546 22.8421C46.26 23.3943 45.8167 23.8464 45.2644 23.8519L45.2448 21.852ZM41.2008 23.9541C40.649 23.9775 40.1827 23.5491 40.1593 22.9974C40.1359 22.4456 40.5642 21.9793 41.116 21.9559L41.2008 23.9541ZM36.9829 22.2195C37.5331 22.1714 38.0181 22.5784 38.0662 23.1286C38.1143 23.6788 37.7073 24.1638 37.1571 24.2119L36.9829 22.2195ZM33.1482 24.6774C32.6019 24.7581 32.0935 24.3807 32.0128 23.8343C31.9321 23.2879 32.3095 22.7796 32.8559 22.6989L33.1482 24.6774ZM28.7559 23.4607C29.2944 23.338 29.8304 23.6752 29.953 24.2136C30.0757 24.7521 29.7386 25.2881 29.2001 25.4107L28.7559 23.4607ZM25.3544 26.48C24.8305 26.6549 24.264 26.3721 24.0891 25.8483C23.9141 25.3244 24.1969 24.7579 24.7208 24.583L25.3544 26.48ZM20.8101 26.1518C21.3087 25.9143 21.9054 26.1259 22.143 26.6245C22.3805 27.1231 22.1689 27.7198 21.6703 27.9574L20.8101 26.1518ZM18.2373 29.9023C17.7784 30.2095 17.1573 30.0865 16.8501 29.6276C16.5429 29.1686 16.6659 28.5475 17.1248 28.2403L18.2373 29.9023ZM13.7964 30.8746C14.2002 30.4979 14.833 30.5198 15.2098 30.9236C15.5865 31.3275 15.5646 31.9603 15.1608 32.337L13.7964 30.8746ZM12.5236 35.2369C12.1864 35.6743 11.5585 35.7556 11.1211 35.4184C10.6837 35.0812 10.6025 34.4533 10.9397 34.0159L12.5236 35.2369ZM8.62 37.5609C8.88712 37.0775 9.49553 36.9022 9.97892 37.1693C10.4623 37.4364 10.6376 38.0448 10.3705 38.5282L8.62 37.5609ZM8.69773 42.1091C8.49648 42.6234 7.9164 42.8772 7.40209 42.676C6.88778 42.4747 6.63399 41.8946 6.83524 41.3803L8.69773 42.1091ZM5.53139 45.3637C5.67504 44.8304 6.2238 44.5146 6.75708 44.6582C7.29035 44.8019 7.6062 45.3507 7.46254 45.8839L5.53139 45.3637ZM97.0001 1.66824C97.0001 2.41443 96.9798 3.13745 96.9396 3.83799L94.9429 3.72355C94.9808 3.06304 95.0001 2.37823 95.0001 1.66824L97.0001 1.66824ZM96.4142 8.02783C96.1141 9.50798 95.7013 10.8644 95.1812 12.1057L93.3366 11.3329C93.8016 10.223 94.1777 8.99352 94.454 7.63052L96.4142 8.02783ZM93.0335 15.8617C92.1388 17.0412 91.1101 18.0603 89.9659 18.9386L88.7482 17.352C89.7571 16.5776 90.6578 15.6843 91.44 14.653L93.0335 15.8617ZM86.2637 21.1438C85.0079 21.7189 83.6711 22.1889 82.2685 22.5722L81.7412 20.643C83.0554 20.2838 84.288 19.8488 85.431 19.3254L86.2637 21.1438ZM78.1469 23.4399C76.8047 23.65 75.4169 23.8064 73.993 23.9206L73.8331 21.927C75.2159 21.8161 76.553 21.665 77.8377 21.464L78.1469 23.4399ZM69.862 24.1416C68.5103 24.1825 67.133 24.1976 65.7371 24.1953L65.7405 22.1953C67.1202 22.1976 68.4756 22.1827 69.8016 22.1425L69.862 24.1416ZM61.6227 24.1464C60.2659 24.1193 58.8958 24.0835 57.5193 24.0462L57.5735 22.0469C58.9493 22.0842 60.3134 22.1198 61.6627 22.1468L61.6227 24.1464ZM53.4255 23.9376C52.0641 23.9045 50.7011 23.8764 49.3404 23.8599L49.3646 21.8601C50.7363 21.8767 52.1081 21.905 53.4742 21.9382L53.4255 23.9376ZM45.2644 23.8519C43.9 23.8653 42.544 23.8971 41.2008 23.9541L41.116 21.9559C42.4844 21.8978 43.8625 21.8655 45.2448 21.852L45.2644 23.8519ZM37.1571 24.2119C35.7988 24.3307 34.4608 24.4834 33.1482 24.6774L32.8559 22.6989C34.2124 22.4984 35.5901 22.3413 36.9829 22.2195L37.1571 24.2119ZM29.2001 25.4107C27.8808 25.7112 26.597 26.0649 25.3544 26.48L24.7208 24.583C26.032 24.1451 27.3795 23.7742 28.7559 23.4607L29.2001 25.4107ZM21.6703 27.9574C20.473 28.5278 19.3267 29.1731 18.2373 29.9023L17.1248 28.2403C18.3001 27.4536 19.5314 26.761 20.8101 26.1518L21.6703 27.9574ZM15.1608 32.337C14.223 33.2119 13.342 34.1755 12.5236 35.2369L10.9397 34.0159C11.8249 32.8676 12.7795 31.8234 13.7964 30.8746L15.1608 32.337ZM10.3705 38.5282C9.75898 39.6348 9.19971 40.8262 8.69773 42.1091L6.83524 41.3803C7.36787 40.0191 7.96412 38.7478 8.62 37.5609L10.3705 38.5282ZM7.46254 45.8839C7.28844 46.5302 7.12652 47.1958 6.97722 47.8812L5.02305 47.4555C5.17904 46.7393 5.3486 46.0422 5.53139 45.3637L7.46254 45.8839Z" fill="#0092FC"/>
</svg>
