<svg width="924" height="212" viewBox="0 0 924 212" fill="none" xmlns="http://www.w3.org/2000/svg">
<path d="M923.291 4.59912C923.898 3.05745 923.141 1.31565 921.599 0.708698C920.057 0.101712 918.316 0.85948 917.709 2.40115L923.291 4.59912ZM16.5074 210.022C17.4294 211.398 19.2928 211.767 20.6694 210.845L43.1029 195.82C44.4795 194.898 44.848 193.035 43.926 191.658C43.004 190.282 41.1406 189.913 39.764 190.835L19.8232 204.19L6.46789 184.25C5.54589 182.873 3.68252 182.504 2.30588 183.426C0.929266 184.348 0.560707 186.212 1.4827 187.588L16.5074 210.022ZM23.3082 203.138C23.7467 201.54 22.807 199.889 21.2092 199.451C19.6114 199.012 17.9607 199.952 17.5222 201.55L23.3082 203.138ZM21.7043 189.78C21.0351 191.295 21.7213 193.067 23.237 193.736C24.7527 194.405 26.5239 193.719 27.1931 192.203L21.7043 189.78ZM32.6676 181.947C33.5532 180.547 33.136 178.693 31.7357 177.808C30.3354 176.922 28.4823 177.339 27.5967 178.74L32.6676 181.947ZM35.0042 168.674C33.9333 169.938 34.0902 171.831 35.3545 172.902C36.6188 173.973 38.5118 173.816 39.5826 172.552L35.0042 168.674ZM47.7059 164.104C48.9239 162.981 49.0008 161.083 47.8776 159.865C46.7544 158.647 44.8565 158.57 43.6385 159.693L47.7059 164.104ZM53.1526 151.824C51.8237 152.813 51.5485 154.693 52.5379 156.022C53.5274 157.351 55.4069 157.626 56.7358 156.637L53.1526 151.824ZM66.6576 149.939C68.0698 149.072 68.5121 147.225 67.6455 145.813C66.779 144.4 64.9317 143.958 63.5195 144.825L66.6576 149.939ZM74.1101 138.861C72.6385 139.623 72.0627 141.433 72.824 142.904C73.5853 144.376 75.3954 144.952 76.867 144.19L74.1101 138.861ZM87.8189 138.968C89.3356 138.301 90.0242 136.531 89.3571 135.014C88.69 133.498 86.9198 132.809 85.4032 133.476L87.8189 138.968ZM96.5499 128.918C95.0011 129.507 94.2229 131.24 94.8116 132.789C95.4003 134.337 97.133 135.116 98.6817 134.527L96.5499 128.918ZM110.142 130.47C111.716 129.952 112.571 128.255 112.052 126.682C111.533 125.108 109.837 124.253 108.264 124.772L110.142 130.47ZM119.788 121.216C118.197 121.675 117.279 123.338 117.739 124.93C118.198 126.522 119.861 127.44 121.453 126.98L119.788 121.216ZM133.121 123.821C134.727 123.414 135.698 121.782 135.291 120.176C134.884 118.57 133.251 117.598 131.645 118.006L133.121 123.821ZM143.503 115.18C141.886 115.541 140.869 117.145 141.231 118.762C141.593 120.379 143.197 121.397 144.814 121.035L143.503 115.18ZM156.531 118.567C158.157 118.245 159.213 116.666 158.891 115.041C158.569 113.415 156.991 112.359 155.365 112.681L156.531 118.567ZM167.538 110.412C165.906 110.698 164.815 112.252 165.101 113.884C165.387 115.516 166.942 116.608 168.574 116.322L167.538 110.412ZM180.269 114.388C181.906 114.133 183.026 112.599 182.771 110.962C182.516 109.325 180.982 108.204 179.345 108.46L180.269 114.388ZM191.456 106.681C189.814 106.908 188.668 108.422 188.895 110.063C189.122 111.705 190.636 112.851 192.278 112.624L191.456 106.681ZM204.268 111.061C205.912 110.859 207.082 109.363 206.88 107.718C206.678 106.074 205.181 104.904 203.537 105.106L204.268 111.061ZM215.517 103.719C213.87 103.899 212.681 105.38 212.86 107.027C213.04 108.674 214.52 109.864 216.168 109.684L215.517 103.719ZM228.309 108.438C229.958 108.279 231.166 106.813 231.007 105.164C230.847 103.515 229.382 102.307 227.732 102.466L228.309 108.438ZM239.764 101.373C238.113 101.514 236.889 102.966 237.03 104.617C237.171 106.268 238.624 107.492 240.274 107.351L239.764 101.373ZM252.275 106.387C253.927 106.263 255.166 104.822 255.041 103.17C254.917 101.518 253.476 100.28 251.824 100.404L252.275 106.387ZM264.065 99.5382C262.412 99.6477 261.16 101.077 261.27 102.73C261.379 104.383 262.808 105.635 264.462 105.525L264.065 99.5382ZM276.441 104.781C278.095 104.684 279.358 103.265 279.262 101.611C279.165 99.9573 277.747 98.6944 276.093 98.7906L276.441 104.781ZM288.182 98.1326C286.527 98.2167 285.254 99.6263 285.338 101.281C285.422 102.936 286.832 104.209 288.486 104.125L288.182 98.1326ZM300.674 103.547C302.329 103.474 303.611 102.073 303.538 100.418C303.465 98.7625 302.064 97.4799 300.409 97.5529L300.674 103.547ZM312.463 97.0577C310.808 97.1208 309.517 98.5142 309.58 100.17C309.643 101.826 311.036 103.116 312.692 103.053L312.463 97.0577ZM324.754 102.626C326.41 102.572 327.708 101.185 327.654 99.5294C327.6 97.8734 326.213 96.575 324.557 96.6292L324.754 102.626ZM336.755 96.2596C335.098 96.3058 333.793 97.686 333.84 99.3421C333.886 100.998 335.266 102.303 336.922 102.257L336.755 96.2596ZM348.989 101.947C350.645 101.908 351.956 100.533 351.917 98.8767C351.878 97.2203 350.503 95.9093 348.847 95.9484L348.989 101.947ZM360.938 95.6863C359.281 95.7191 357.965 97.0886 357.998 98.7451C358.031 100.402 359.4 101.718 361.057 101.685L360.938 95.6863ZM373.201 101.466C374.857 101.438 376.178 100.073 376.151 98.4167C376.124 96.7601 374.759 95.4392 373.102 95.4664L373.201 101.466ZM385.228 95.2854C383.571 95.3078 382.246 96.6689 382.269 98.3256C382.291 99.9823 383.652 101.307 385.309 101.285L385.228 95.2854ZM397.383 101.138C399.04 101.119 400.368 99.7616 400.35 98.1049C400.332 96.4481 398.974 95.1198 397.317 95.138L397.383 101.138ZM409.453 95.0181C407.797 95.0328 406.465 96.3877 406.48 98.0445C406.495 99.7013 407.85 101.033 409.506 101.018L409.453 95.0181ZM421.638 100.922C423.294 100.91 424.628 99.5573 424.616 97.9005C424.605 96.2436 423.252 94.9101 421.595 94.9218L421.638 100.922ZM433.69 94.8447C432.033 94.8542 430.698 96.205 430.707 97.8618C430.717 99.5186 432.068 100.854 433.724 100.845L433.69 94.8447ZM445.836 100.782C447.493 100.774 448.83 99.4247 448.822 97.7678C448.814 96.111 447.465 94.7742 445.808 94.782L445.836 100.782ZM457.94 94.7293C456.283 94.736 454.946 96.0845 454.952 97.7414C454.959 99.3982 456.308 100.736 457.964 100.729L457.94 94.7293ZM470.074 100.683C471.731 100.676 473.069 99.3282 473.063 97.6713C473.057 96.0145 471.709 94.6764 470.052 94.6826L470.074 100.683ZM482.163 94.6374C480.506 94.6437 479.168 95.9919 479.175 97.6488C479.181 99.3056 480.529 100.644 482.186 100.637L482.163 94.6374ZM494.292 100.59C495.949 100.583 497.287 99.234 497.28 97.5772C497.273 95.9203 495.924 94.5828 494.267 94.5897L494.292 100.59ZM506.396 94.535C504.74 94.5431 503.403 95.8929 503.411 97.5497C503.419 99.2066 504.769 100.543 506.426 100.535L506.396 94.535ZM518.55 100.469C520.207 100.459 521.542 99.1078 521.532 97.451C521.522 95.7942 520.17 94.4591 518.514 94.4691L518.55 100.469ZM530.6 94.3878C528.943 94.4003 527.61 95.7534 527.623 97.4102C527.635 99.067 528.988 100.4 530.645 100.388L530.6 94.3878ZM542.775 100.286C544.432 100.271 545.762 98.9149 545.747 97.2581C545.732 95.6013 544.376 94.2708 542.719 94.2863L542.775 100.286ZM554.853 94.1598C553.196 94.179 551.869 95.5376 551.888 97.1943C551.907 98.8511 553.266 100.179 554.923 100.159L554.853 94.1598ZM567.017 100.004C568.674 99.9803 569.998 98.6182 569.974 96.9615C569.951 95.3048 568.588 93.9809 566.932 94.0044L567.017 100.004ZM579.016 93.8147C577.36 93.8433 576.04 95.2094 576.069 96.866C576.097 98.5226 577.463 99.8424 579.12 99.8138L579.016 93.8147ZM591.3 99.5824C592.957 99.548 594.272 98.1772 594.237 96.5207C594.203 94.8642 592.832 93.5493 591.175 93.5837L591.3 99.5824ZM603.252 93.3091C601.595 93.3501 600.286 94.7261 600.327 96.3825C600.368 98.0388 601.744 99.3483 603.4 99.3073L603.252 93.3091ZM615.462 98.9822C617.118 98.9338 618.421 97.552 618.373 95.8958C618.324 94.2397 616.942 92.9363 615.286 92.9847L615.462 98.9822ZM627.473 92.5983C625.817 92.6551 624.521 94.0435 624.577 95.6993C624.634 97.3552 626.023 98.6516 627.678 98.5948L627.473 92.5983ZM639.784 98.1464C641.44 98.0804 642.728 96.6848 642.662 95.0293C642.596 93.3737 641.201 92.0852 639.545 92.1512L639.784 98.1464ZM651.528 91.6369C649.873 91.7131 648.593 93.1167 648.669 94.7718C648.745 96.4269 650.149 97.7068 651.804 97.6305L651.528 91.6369ZM664.052 97.0241C665.707 96.9363 666.977 95.5239 666.889 93.8694C666.801 92.2148 665.389 90.9448 663.734 91.0326L664.052 97.0241ZM675.789 90.3473C674.136 90.4478 672.876 91.8699 672.977 93.5237C673.077 95.1775 674.499 96.4368 676.153 96.3363L675.789 90.3473ZM688.148 95.5578C689.801 95.4434 691.048 94.0107 690.934 92.3578C690.82 90.7049 689.387 89.4577 687.734 89.5721L688.148 95.5578ZM699.937 88.6702C698.285 88.8003 697.052 90.2448 697.182 91.8965C697.312 93.5483 698.757 94.7818 700.408 94.6516L699.937 88.6702ZM712.475 93.6386C714.126 93.4913 715.344 92.034 715.197 90.3837C715.049 88.7334 713.592 87.5151 711.942 87.6624L712.475 93.6386ZM723.881 86.5281C722.232 86.6945 721.031 88.1657 721.197 89.8142C721.364 91.4627 722.835 92.6641 724.484 92.4977L723.881 86.5281ZM736.709 91.1843C738.355 90.9963 739.537 89.5094 739.349 87.8633C739.161 86.2171 737.674 85.035 736.028 85.223L736.709 91.1843ZM747.918 83.7805C746.274 83.992 745.114 85.4957 745.325 87.139C745.537 88.7823 747.04 89.9429 748.684 89.7313L747.918 83.7805ZM760.756 88.079C762.396 87.8408 763.532 86.3185 763.294 84.6788C763.056 83.0392 761.533 81.9031 759.894 82.1414L760.756 88.079ZM771.885 80.2887C770.25 80.557 769.142 82.0999 769.411 83.7349C769.679 85.3699 771.222 86.4778 772.857 86.2095L771.885 80.2887ZM784.631 84.1573C786.26 83.856 787.337 82.291 787.036 80.6617C786.734 79.0325 785.169 77.956 783.54 78.2574L784.631 84.1573ZM795.579 75.8851C793.958 76.2253 792.919 77.8155 793.259 79.4371C793.599 81.0587 795.189 82.0975 796.811 81.7573L795.579 75.8851ZM808.62 79.1198C810.232 78.7366 811.228 77.1193 810.844 75.5073C810.461 73.8954 808.844 72.8992 807.232 73.2824L808.62 79.1198ZM818.922 70.3167C817.322 70.7496 816.377 72.397 816.81 73.9963C817.242 75.5956 818.89 76.5412 820.489 76.1083L818.922 70.3167ZM832.252 72.7026C833.835 72.2126 834.721 70.5324 834.231 68.9496C833.741 67.3669 832.061 66.481 830.478 66.971L832.252 72.7026ZM841.774 63.2218C840.213 63.7772 839.398 65.4929 839.953 67.0539C840.508 68.6148 842.224 69.43 843.785 68.8746L841.774 63.2218ZM855.329 64.4492C856.86 63.8167 857.589 62.0625 856.956 60.5311C856.324 58.9998 854.57 58.2712 853.038 58.9038L855.329 64.4492ZM863.832 54.0832C862.34 54.804 861.715 56.5977 862.436 58.0895C863.157 59.5814 864.95 60.2065 866.442 59.4857L863.832 54.0832ZM877.427 53.7031C878.864 52.8781 879.36 51.0445 878.535 49.6076C877.71 48.1708 875.877 47.6748 874.44 48.4998L877.427 53.7031ZM884.422 42.2104C883.06 43.154 882.721 45.0229 883.665 46.3849C884.608 47.7468 886.477 48.086 887.839 47.1424L884.422 42.2104ZM897.663 39.5909C898.922 38.5137 899.069 36.6199 897.992 35.3611C896.914 34.1022 895.021 33.955 893.762 35.0322L897.663 39.5909ZM902.232 26.8729C901.112 28.0943 901.195 29.992 902.416 31.1115C903.638 32.231 905.535 32.1484 906.655 30.9269L902.232 26.8729ZM914.409 21.2256C915.35 19.8621 915.008 17.9937 913.645 17.0524C912.281 16.1111 910.413 16.4534 909.471 17.8169L914.409 21.2256ZM915.358 7.75258C914.633 9.2425 915.253 11.0379 916.743 11.7627C918.233 12.4875 920.028 11.8673 920.753 10.3774L915.358 7.75258ZM21.943 208.934C22.3327 206.964 22.7882 205.032 23.3082 203.138L17.5222 201.55C16.9633 203.586 16.4746 205.659 16.0571 207.77L21.943 208.934ZM27.1931 192.203C28.7635 188.646 30.5913 185.23 32.6676 181.947L27.5967 178.74C25.3649 182.269 23.3966 185.947 21.7043 189.78L27.1931 192.203ZM39.5826 172.552C42.0651 169.621 44.7753 166.806 47.7059 164.104L43.6385 159.693C40.5367 162.553 37.6545 165.545 35.0042 168.674L39.5826 172.552ZM56.7358 156.637C59.8597 154.311 63.1691 152.079 66.6576 149.939L63.5195 144.825C59.8887 147.053 56.4299 149.384 53.1526 151.824L56.7358 156.637ZM76.867 144.19C80.3747 142.376 84.0272 140.636 87.8189 138.968L85.4032 133.476C81.5039 135.191 77.7372 136.985 74.1101 138.861L76.867 144.19ZM98.6817 134.527C102.392 133.117 106.213 131.765 110.142 130.47L108.264 124.772C104.255 126.093 100.349 127.475 96.5499 128.918L98.6817 134.527ZM121.453 126.98C125.257 125.881 129.147 124.829 133.121 123.821L131.645 118.006C127.612 119.029 123.658 120.098 119.788 121.216L121.453 126.98ZM144.814 121.035C148.652 120.176 152.559 119.354 156.531 118.567L155.365 112.681C151.347 113.477 147.392 114.309 143.503 115.18L144.814 121.035ZM168.574 116.322C172.418 115.648 176.317 115.004 180.269 114.388L179.345 108.46C175.358 109.081 171.422 109.731 167.538 110.412L168.574 116.322ZM192.278 112.624C196.228 112.078 200.225 111.557 204.268 111.061L203.537 105.106C199.465 105.606 195.438 106.13 191.456 106.681L192.278 112.624ZM216.168 109.684C220.175 109.247 224.223 108.832 228.309 108.438L227.732 102.466C223.623 102.862 219.551 103.28 215.517 103.719L216.168 109.684ZM240.274 107.351C244.243 107.012 248.243 106.691 252.275 106.387L251.824 100.404C247.773 100.71 243.753 101.032 239.764 101.373L240.274 107.351ZM264.462 105.525C268.428 105.262 272.422 105.014 276.441 104.781L276.093 98.7906C272.058 99.0253 268.048 99.2742 264.065 99.5382L264.462 105.525ZM288.486 104.125C292.526 103.92 296.589 103.727 300.674 103.547L300.409 97.5529C296.311 97.7337 292.235 97.9266 288.182 98.1326L288.486 104.125ZM312.692 103.053C316.694 102.901 320.715 102.758 324.754 102.626L324.557 96.6292C320.508 96.762 316.477 96.9045 312.463 97.0577L312.692 103.053ZM336.922 102.257C340.929 102.145 344.952 102.042 348.989 101.947L348.847 95.9484C344.802 96.044 340.771 96.1474 336.755 96.2596L336.922 102.257ZM361.057 101.685C365.093 101.605 369.141 101.532 373.201 101.466L373.102 95.4664C369.036 95.5332 364.981 95.6062 360.938 95.6863L361.057 101.685ZM385.309 101.285C389.324 101.231 393.35 101.182 397.383 101.138L397.317 95.138C393.279 95.1823 389.249 95.2312 385.228 95.2854L385.309 101.285ZM409.506 101.018C413.544 100.982 417.588 100.95 421.638 100.922L421.595 94.9218C417.542 94.9505 413.495 94.9824 409.453 95.0181L409.506 101.018ZM433.724 100.845C437.758 100.822 441.796 100.801 445.836 100.782L445.808 94.782C441.766 94.801 437.726 94.8217 433.69 94.8447L433.724 100.845ZM457.964 100.729C462 100.713 466.037 100.698 470.074 100.683L470.052 94.6826C466.014 94.6976 461.976 94.713 457.94 94.7293L457.964 100.729ZM482.186 100.637C486.223 100.622 490.259 100.606 494.292 100.59L494.267 94.5897C490.235 94.6065 486.2 94.6222 482.163 94.6374L482.186 100.637ZM506.426 100.535C510.471 100.515 514.513 100.493 518.55 100.469L518.514 94.4691C514.479 94.4934 510.44 94.5151 506.396 94.535L506.426 100.535ZM530.645 100.388C534.695 100.357 538.739 100.324 542.775 100.286L542.719 94.2863C538.687 94.3239 534.647 94.3575 530.6 94.3878L530.645 100.388ZM554.923 100.159C558.963 100.113 562.995 100.061 567.017 100.004L566.932 94.0044C562.916 94.0615 558.889 94.113 554.853 94.1598L554.923 100.159ZM579.12 99.8138C583.192 99.7434 587.253 99.6666 591.3 99.5824L591.175 93.5837C587.136 93.6677 583.082 93.7445 579.016 93.8147L579.12 99.8138ZM603.4 99.3073C607.436 99.2073 611.457 99.0992 615.462 98.9822L615.286 92.9847C611.291 93.1015 607.279 93.2094 603.252 93.3091L603.4 99.3073ZM627.678 98.5948C631.733 98.4558 635.769 98.3066 639.784 98.1464L639.545 92.1512C635.541 92.3109 631.517 92.4597 627.473 92.5983L627.678 98.5948ZM651.804 97.6305C655.91 97.4414 659.994 97.2395 664.052 97.0241L663.734 91.0326C659.69 91.2472 655.621 91.4483 651.528 91.6369L651.804 97.6305ZM676.153 96.3363C680.179 96.0917 684.178 95.8325 688.148 95.5578L687.734 89.5721C683.781 89.8456 679.799 90.1037 675.789 90.3473L676.153 96.3363ZM700.408 94.6516C704.464 94.3321 708.487 93.9948 712.475 93.6386L711.942 87.6624C707.975 88.0167 703.972 88.3522 699.937 88.6702L700.408 94.6516ZM724.484 92.4977C728.599 92.0823 732.675 91.6449 736.709 91.1843L736.028 85.223C732.021 85.6805 727.972 86.1152 723.881 86.5281L724.484 92.4977ZM748.684 89.7313C752.755 89.207 756.78 88.6567 760.756 88.079L759.894 82.1414C755.951 82.7142 751.959 83.2601 747.918 83.7805L748.684 89.7313ZM772.857 86.2095C776.837 85.5564 780.762 84.8728 784.631 84.1573L783.54 78.2574C779.713 78.9652 775.827 79.6418 771.885 80.2887L772.857 86.2095ZM796.811 81.7573C800.816 80.9172 804.754 80.0386 808.62 79.1198L807.232 73.2824C803.421 74.1883 799.535 75.0553 795.579 75.8851L796.811 81.7573ZM820.489 76.1083C824.498 75.0233 828.421 73.8889 832.252 72.7026L830.478 66.971C826.719 68.1348 822.865 69.2493 818.922 70.3167L820.489 76.1083ZM843.785 68.8746C847.747 67.4652 851.596 65.9911 855.329 64.4492L853.038 58.9038C849.404 60.4051 845.647 61.8436 841.774 63.2218L843.785 68.8746ZM866.442 59.4857C870.252 57.6453 873.916 55.7191 877.427 53.7031L874.44 48.4998C871.06 50.4402 867.523 52.3003 863.832 54.0832L866.442 59.4857ZM887.839 47.1424C891.306 44.7403 894.585 42.225 897.663 39.5909L893.762 35.0322C890.849 37.525 887.733 39.9165 884.422 42.2104L887.839 47.1424ZM906.655 30.9269C909.486 27.8373 912.076 24.6057 914.409 21.2256L909.471 17.8169C907.302 20.9601 904.886 23.977 902.232 26.8729L906.655 30.9269ZM920.753 10.3774C921.671 8.49063 922.518 6.56477 923.291 4.59912L917.709 2.40115C916.992 4.22163 916.208 6.00511 915.358 7.75258L920.753 10.3774Z" fill="#0092FC"/>
</svg>
