<svg width="460" height="412" viewBox="0 0 460 412" fill="none" xmlns="http://www.w3.org/2000/svg">
<path d="M104.794 103.062C23.9686 103.062 -51.3379 224.731 45.9445 300.825C148.369 380.941 128.414 381.959 162.517 401.741C181.333 416.797 236.907 409.956 265.404 403.368C328.257 388.839 308.24 395.23 361.73 381.959C407.422 370.623 368.057 415.297 432.622 331.166C440.321 321.135 483.613 73.2477 402.647 28.189C314.172 -21.0482 248.116 103.062 104.794 103.062Z" fill="#EDF8FF"/>
<path d="M181.576 409.584C157.149 406.909 162.641 391.183 163.346 382.005L176.772 376.072L237.718 370.909C245.901 372.2 263.961 371.759 266.032 383.59C268.807 399.441 280.154 403.073 237.718 409.584C217.59 412.672 212.179 412.936 181.576 409.584Z" fill="#315679"/>
<path fill-rule="evenodd" clip-rule="evenodd" d="M73.5082 56.358C79.9861 53.9574 83.2129 64.5861 76.7859 66.7368C70.4119 68.8699 66.3181 59.0223 73.5082 56.358ZM102.465 47.5147C109.106 45.1668 112.315 55.8116 105.57 57.9929C99.2542 60.0359 95.1772 50.0919 102.465 47.5147ZM131.148 40.3476C136.965 39.1188 138.206 48.1155 132.883 49.2185C127.013 50.434 125.167 41.6106 131.148 40.3476ZM134.087 116.445C142.182 120.073 153.318 122.816 162.424 121.691C160.763 120.161 156.166 118.81 150.781 113.426C147.799 110.445 144.068 105.644 142.348 101.684C141.679 100.606 140.33 97.8981 140.267 96.7179L148.244 90.3727C149.951 87.9596 156.947 83.3333 161.655 74.1188C162.375 72.7079 164.144 67.9336 164.784 67.2791C168.292 50.6835 165.3 39.3234 155.23 26.044C136.784 1.71871 104.667 -2.56256 81.5432 17.3567C77.5275 20.8161 71.6119 18.0469 60.0994 22.4823C47.4082 27.3718 37.0802 38.6163 36.5176 52.9416C35.9169 68.2394 43.6998 67.9277 39.4775 73.4275C30.4553 85.179 38.921 102.963 50.2258 110.064C69.0335 121.879 96.4739 115.411 116.295 109.1C120.939 107.621 121.779 109.702 125.268 111.946C127.9 113.64 131.224 115.183 134.087 116.445Z" fill="#76B1D6"/>
<path fill-rule="evenodd" clip-rule="evenodd" d="M196.374 217.44C187.619 219.189 167.358 225.134 159.72 229.579C150.738 234.805 145.635 246.518 144.054 256.676C145.187 258.109 154.648 264.564 156.74 265.888C158.541 267.028 166.443 273.227 166.786 273.61L166.145 274.308C163.4 276.143 170.996 313.886 165.434 331.124C178.347 335.212 188.493 338.814 202.427 335.612C230.71 329.112 243.85 298.867 251.072 272.982C251.789 270.415 255.205 271.761 256.582 273.794C261.465 274.064 284.212 266.578 287.642 263.521C286.355 262.137 278.801 241.429 270.421 233.34C264.531 227.654 255.265 223.924 247.37 221.435C245.688 220.906 233.736 218.436 233.482 216.987C230.641 220.605 232.1 219.534 227.118 223.199C222.22 226.8 220.281 225.927 214.26 225.679C207.196 223.484 201.373 224.775 196.374 217.44Z" fill="#456C91"/>
<path fill-rule="evenodd" clip-rule="evenodd" d="M430.023 202.99C428.04 208.693 419.828 205.735 421.696 200.03C423.509 194.49 432.009 197.276 430.023 202.99ZM398.309 196.54C397.387 190.227 405.976 189.367 406.951 194.754C408.084 201.019 399.12 202.085 398.309 196.54ZM379.897 187.484C384.665 185.414 386.981 192.849 382.644 194.506C378.193 196.206 375.149 189.545 379.897 187.484ZM349.01 195.76C348.609 205.493 350.903 210.782 356.486 218.281C358.243 220.64 361.862 223.878 364.213 225.627C366.971 227.68 371.277 229.728 373.418 231.475C373.44 234.179 369.632 240.351 367.872 242.656C365.159 246.212 362.347 247.859 358.67 250.338C364.403 250.597 370.223 249.225 375.481 247.072C381.313 244.684 383.305 242.533 388.031 239.061C389.946 236.99 394.406 238.626 397.1 239.015C398.525 239.22 406.486 239.974 406.897 240.18L407.182 240.04C415.956 241.258 429.31 240.539 437.546 237.535C445.082 234.784 451.359 229.503 453.988 221.604C455.422 217.3 455.828 212.108 453.984 207.867C451.134 201.311 446.606 204.9 450.484 199.153C461.22 183.24 448.189 163.877 432.128 159.7C427.194 158.416 422.507 158.223 417.46 158.851C408.574 159.958 413.321 160.518 404.734 157.965C395.796 155.308 385.986 155.358 377.252 158.813C362.539 164.632 350.717 179.706 349.01 195.76Z" fill="#76B1D6"/>
<path fill-rule="evenodd" clip-rule="evenodd" d="M45.0559 339.706C46.3997 339.203 77.9494 339.592 82.2238 339.593C82.3191 339.593 124.623 337.859 113.962 342.969C112.209 343.809 59.1471 342.976 48.4264 343.257C44.7623 343.353 41.1485 341.167 45.0559 339.706ZM44.6732 333.117C45.9757 332.372 66.1296 332.783 69.3005 332.778C69.7453 332.777 97.2256 331.701 89.3247 336.104C88.0826 336.796 67.7353 336.499 64.6014 336.506C64.1849 336.508 36.9624 337.527 44.6732 333.117ZM114.085 336.211C112.772 336.604 99.4374 336.695 98.2475 336.216C96.8679 335.661 96.7964 333.495 98.2087 332.952C99.2091 332.567 107.239 332.78 108.95 332.781C110.614 332.781 118.068 332.417 114.085 336.211ZM100.433 325.891C101.116 325.893 120.497 325.281 114.022 329.224C112.566 330.11 81.343 329.536 76.9372 329.538C75.9704 329.538 36.05 331.358 44.7589 326.259C45.9873 325.541 92.5991 325.873 100.433 325.891ZM45.0123 319.267C46.1184 318.861 93.0887 319.12 101.02 319.13C104.143 319.134 107.325 319.196 110.44 319.123C113.116 319.06 118.091 320.63 114.001 322.599C112.291 323.422 59.1143 322.615 48.4324 322.869C44.7366 322.957 40.9395 320.765 45.0123 319.267ZM40.4674 302.019C24.5067 303.484 28.4755 323.751 28.4264 335.215C28.3612 350.412 26.0688 363.431 45.4854 363.494C59.877 363.54 75.6775 364.016 89.9182 363.394C98.8208 363.005 99.0395 365.492 103.735 372.21C110.926 382.499 103.456 364.934 109.241 363.484C114.768 362.099 121.536 365.109 126.925 358.871C129.733 355.621 129.745 349.899 129.855 345.671C130.111 335.827 132.541 312.544 125.673 305.609C119.799 299.678 93.7615 301.92 84.8667 301.912C71.5015 301.899 53.254 300.846 40.4674 302.019Z" fill="#B7DDF4"/>
<path fill-rule="evenodd" clip-rule="evenodd" d="M116.111 204.91C118.56 209.248 123.224 214.776 117.216 218.925C117.038 223.779 118.116 225.215 113.504 227.519C113.106 229.334 113.601 230.749 111.834 232.076C109.758 233.635 111.025 233.778 109.945 236.332C108.371 240.056 104.718 239.488 101.493 238.724C97.3623 237.744 87.2012 233.622 86.7031 229.162C89.9071 230.331 107.012 239.612 105.433 230.247C105.049 229.503 93.7362 224.496 91.6145 223.621C89.0532 222.566 89.3814 220.543 91.0512 220.554C91.5981 220.557 106.722 228.326 109.58 228.827C111.884 216.147 89.495 218.106 92.9654 212.805C94.9697 212.546 101.734 215.864 103.735 216.965C105.382 217.872 107.151 218.54 108.741 219.507C109.976 220.258 111.848 222.45 112.959 222.56C114.192 220.672 113.36 217.468 112.41 215.435C110.789 211.963 111.059 212.677 107.63 211.053C101.552 208.175 95.7052 208.913 96.441 205.426C98.5288 204.661 104.889 207.745 107.148 208.753C110.723 210.347 113.294 211.749 115.838 214.65C116.266 207.162 111.891 202.237 112.462 202.368C110.986 201 99.2352 198.344 96.593 198.242C92.5705 198.086 91.9703 199.319 91.5463 203.081C91.1544 206.562 89.5434 206.879 88.7469 210.213C87.7384 214.435 87.2287 213.751 85.284 217.041C83.0453 220.829 85.1778 221.886 84.7546 225.31C83.8601 232.539 85.9017 234.327 92.2739 237.188C98.8708 240.15 97.093 236.367 99.6129 250.097C101.265 259.096 108.736 293.594 112.053 298.005C112.208 298.052 119.731 314.205 125.709 317.162C138.673 323.576 151.568 296.631 149.942 280.516C149.54 276.536 146.175 272.225 144.521 268.613C143.74 266.906 137.384 261.332 137.258 260.343L129.501 271.157C132.677 277.166 134.958 287.681 130.564 293.766C132.101 289.135 131.637 282.156 129.103 277.893C123.278 268.094 118.148 267.008 109.048 240.96L113.389 238.144L113.944 239.293C113.741 236.858 118.04 234.48 119.726 232.741C134.37 217.638 122.319 216.422 128.671 194.299C129.772 190.464 128.712 186.608 124.211 188.848C117.863 192.007 117.933 203.111 116.111 204.91Z" fill="#FDDBCC"/>
<path fill-rule="evenodd" clip-rule="evenodd" d="M320.49 269.936L323.654 274.161C317.573 279.685 313.581 284.776 308.454 287.608C299.606 292.494 296.032 294.83 295.146 307.424C293.212 297.986 296.714 295.682 300.571 289.185C297.047 284.783 293.318 270.604 292.262 269.524C280.815 281.69 278.038 293.458 282.259 309.934C290.328 341.436 309.187 318.584 311.291 317.686C315.776 313.46 332.942 277.964 333.605 277.579C338.188 276.928 345.581 278.378 348.484 273.22C349.587 271.261 349.621 268.317 350.598 265.655C351.635 262.825 350.468 260.492 349.678 257.869C348.868 255.178 349.637 253.055 348.491 249.314C347.663 246.609 349.84 243.312 347.417 241.275C344.299 238.652 334.714 239.268 330.583 238.942C327.779 240.839 322.925 245.34 324.191 249.574C331.015 248.027 328.85 247.232 340.427 245.882C343.559 245.516 344.866 247.413 342.991 248.286C341.762 248.859 333.393 247.999 330.385 249.01C327.846 249.863 324.685 254.47 325.265 257.402C325.474 257.466 348.063 251.214 345.272 256.031C344.143 257.98 326.599 254.715 326.898 264.305C329.607 264.37 345.289 262.192 345.985 262.563C347.181 263.201 346.698 264.795 344.823 264.989C343.165 265.162 341.473 265.266 339.787 265.478C337.808 265.727 331.91 266.043 330.593 267.062C328.036 275.174 343.128 272.464 347.243 271.646C346.149 274.739 322.57 282.696 324.853 267.316C322.678 264.783 322.945 265.063 323.881 261.788C323.074 260.361 321.984 260.745 321.693 258.109C321.494 256.309 322.277 254.835 322.58 253.111C320.693 250.082 318.961 250.198 321.43 245.559C323.461 241.742 324.832 242.041 327.111 239.903C325.299 238.399 327.754 226.648 322.289 222.611C319.18 220.315 316.613 222.062 316.504 225.952C316.403 229.496 317.223 232.548 316.909 236.246C316.342 242.91 312.484 248.338 313.702 254.47C314.664 259.31 320.281 268.288 320.49 269.936Z" fill="#FDDBCC"/>
<path fill-rule="evenodd" clip-rule="evenodd" d="M200.636 201.272L200.456 211.526C205.255 214.29 213.046 216.199 218.615 215.18C226.301 213.775 225.513 211.324 230.232 206.94L230.326 198.266C225.381 200.316 224.507 202.653 217.635 203.935C211.504 205.079 206.051 203.181 200.636 201.272Z" fill="#DC908D"/>
<path fill-rule="evenodd" clip-rule="evenodd" d="M220.908 163.182C218.603 158.812 227.076 155.169 230.128 159.244C230.36 159.555 230.983 160.784 231.145 161.191C231.611 162.365 231.669 162.614 231.184 163.461C229.064 162.792 230.216 159.154 226.171 158.779C221.783 158.373 222.975 162.419 220.908 163.182ZM196.844 139.858C196.98 144.975 189.784 163.384 195.91 177.017C197.921 175.592 198.282 174.678 202.771 173.041C207.362 171.367 209.211 171.874 213.448 172.163C218.043 172.475 220.188 172.806 225.092 174.599C229.277 176.13 229.771 175.594 231.95 178.905C235.685 174.305 238.166 155.392 238.975 148.311L237.481 134.406C231.344 132.209 200.842 136.008 196.844 139.858Z" fill="#FDDBCC"/>
<path fill-rule="evenodd" clip-rule="evenodd" d="M235.46 166.233C230.095 167.179 225.989 165.592 224.573 166.637C223.157 167.682 220.614 174.348 226.71 176.681C230.033 177.953 234.132 186.274 235.024 172.065C235.113 170.653 236.07 169.422 236.07 166.11C235.765 166.11 235.706 166.19 235.46 166.233Z" fill="#DC908D"/>
<path fill-rule="evenodd" clip-rule="evenodd" d="M190.634 164.201C194.872 165.464 194.937 162.499 201.764 163.901C202.901 164.134 205.48 172.316 199.384 174.649C196.061 175.921 191.962 184.243 191.07 170.033C190.981 168.622 190.024 167.391 190.024 164.079C190.329 164.079 190.395 164.13 190.634 164.201Z" fill="#DC908D"/>
<path fill-rule="evenodd" clip-rule="evenodd" d="M191.182 163.401L190.756 162.861C188.145 163.472 187.021 166.107 186.607 168.887C186.081 172.425 187.858 175.574 190.259 177.852C190.394 174.89 191.238 164.355 191.182 163.401Z" fill="#FDDBCC"/>
<path fill-rule="evenodd" clip-rule="evenodd" d="M202.161 174.949L203.05 175.311C203.738 173.706 210.796 175.801 212.894 175.928C215.166 176.067 222.492 175.676 223.924 176.585C224.751 176.992 224.833 177.107 224.511 178.063C223.922 181.278 222.514 184.257 220.169 186.302C219.086 187.246 217.592 187.359 216.384 186.589C215.152 185.804 213.819 185.079 212.008 184.922C209.923 184.742 209.066 185.54 208.3 186.152C207.596 186.716 206.79 186.942 205.902 186.823C205.014 186.704 204.293 186.275 203.754 185.544C203.176 184.76 202.712 183.869 202.328 182.934C201.66 181.309 200.438 175.822 202.161 174.949ZM193.841 133.199C192.267 133.984 189.497 144.073 188.911 151.754C188.951 154.995 188.882 158.872 190.335 164.108C191.113 170.674 189.222 178.827 189.507 186.022C191.61 193.244 195.86 196.714 201.626 203.427C203.554 203.972 206.821 205.17 210.426 205.502C213.98 205.83 217.866 205.302 220.905 204.71C227.777 203.428 225.381 200.316 230.326 198.266C230.946 197.221 234.586 195.355 235.975 193.307C237.846 190.553 239.305 188.936 239.693 185.564L239.597 162.264L239.664 160.762C239.375 157.052 240.226 142.559 238.225 140.149L237.578 143.893C237.404 145.416 236.103 150.558 236.357 153.233C237.267 162.814 234.882 175.294 231.95 178.905C229.771 175.594 229.017 174.976 224.831 173.445C219.928 171.651 218.043 172.475 213.448 172.163C209.211 171.874 206.667 170.39 202.076 172.064C197.587 173.701 197.921 175.591 195.91 177.016C189.784 163.384 196.98 144.974 196.844 139.857C196.915 138.183 194.665 132.717 193.841 133.199Z" fill="#334160"/>
<path fill-rule="evenodd" clip-rule="evenodd" d="M201.402 116.206C190.719 120.429 186.225 124.556 186.283 133.283C186.329 140.147 193.049 145.53 197.112 146.885C196.791 140.951 203.853 138.55 204.843 138.359C205.444 140.038 206.678 145.292 207.728 146.125C209.376 141.567 214.487 138.453 216.059 137.121C216.153 139.271 213.252 141.016 216.775 144.053C221.997 140.568 233.81 144.516 236.661 142.425C239.361 144.251 239.137 161.957 238.153 163.542L238.086 165.044L243.606 166.123C246.329 161.548 251.548 147.155 251.818 141.741C252.201 137.534 250.866 135.149 249.464 133.283L247.399 131.918C247.436 129.508 249.86 127.12 241.995 124.058C239.548 123.105 238.252 118.696 233.189 115.182C232.144 114.457 230.827 114.487 229.815 115.259C228.804 116.032 228.401 117.315 228.785 118.544C228.841 118.722 228.833 118.775 228.759 118.68C227.404 116.913 224.77 115.803 223.124 114.862C221.358 113.854 216.178 112.937 212.651 111.995C212.326 111.908 211.998 112.037 211.814 112.325C211.63 112.612 212.331 114.054 212.539 114.323C214.525 116.883 217.68 117.183 217.826 117.887C212.912 116.632 206.201 114.309 201.402 116.206Z" fill="#334160"/>
<path fill-rule="evenodd" clip-rule="evenodd" d="M263.245 282.861C266.602 293.382 275.185 313.896 281.215 322.828C284.584 327.819 291.233 336.42 298.074 333.149C302.26 331.148 309.065 321.888 311.291 317.686C309.187 318.585 290.328 341.436 282.259 309.934C278.038 293.458 280.815 281.69 292.262 269.524L291.54 266.837L263.245 282.861Z" fill="#DC908D"/>
<path fill-rule="evenodd" clip-rule="evenodd" d="M137.258 260.343C137.384 261.332 141.172 267.781 141.953 269.488C143.607 273.1 144.575 276.536 144.977 280.516C146.604 296.631 137.303 319.901 124.34 313.488C118.361 310.53 112.208 298.051 112.053 298.005C112.086 301.232 118.506 315.515 120.791 318.308C126.751 325.597 133.819 321.112 139.209 315.621C145.982 308.72 157.743 290.681 162.805 281.872L138.487 257.266L137.258 260.343Z" fill="#DC908D"/>
<path fill-rule="evenodd" clip-rule="evenodd" d="M116.111 204.91L112.462 202.368C111.891 202.237 116.265 207.162 115.838 214.65C113.294 211.749 110.723 210.347 107.148 208.753C104.889 207.745 98.5284 204.661 96.4406 205.427C95.7052 208.913 101.552 208.175 107.63 211.053C111.059 212.677 110.789 211.963 112.41 215.435C113.36 217.467 114.191 220.672 112.959 222.56C111.848 222.45 109.976 220.258 108.741 219.507C107.151 218.54 105.383 217.872 103.735 216.965C101.734 215.864 94.9693 212.546 92.9654 212.804C89.495 218.106 111.883 216.146 109.58 228.827C106.722 228.326 91.5981 220.557 91.0512 220.554C89.381 220.543 89.0528 222.565 91.6145 223.621C93.7362 224.496 105.049 229.503 105.433 230.246C107.012 239.612 89.9074 230.331 86.703 229.162C87.2011 233.622 97.3623 237.744 101.493 238.724C104.718 239.488 108.371 240.056 109.946 236.332C111.025 233.778 109.758 233.635 111.834 232.076C113.601 230.749 113.105 229.334 113.504 227.519C118.116 225.215 117.038 223.779 117.216 218.925C123.224 214.776 118.56 209.248 116.111 204.91Z" fill="#DC908D"/>
<path fill-rule="evenodd" clip-rule="evenodd" d="M327.111 239.903C324.833 242.041 323.462 241.742 321.43 245.559C318.961 250.198 320.693 250.082 322.58 253.111C322.277 254.835 321.494 256.309 321.693 258.109C321.984 260.745 323.074 260.361 323.881 261.788C322.946 265.063 322.678 264.784 324.853 267.316C322.57 282.696 346.149 274.739 347.243 271.646C343.128 272.464 328.037 275.174 330.593 267.062C331.91 266.043 337.808 265.727 339.787 265.478C341.473 265.266 343.165 265.162 344.823 264.99C346.698 264.795 347.181 263.201 345.985 262.563C345.289 262.192 329.607 264.37 326.898 264.305C326.599 254.715 344.143 257.98 345.272 256.031C348.063 251.214 325.474 257.466 325.265 257.402C324.685 254.47 327.847 249.863 330.385 249.01C333.393 247.999 341.762 248.859 342.991 248.287C344.866 247.413 343.559 245.517 340.427 245.882C328.85 247.232 331.015 248.027 324.191 249.574C322.925 245.34 327.779 240.839 330.583 238.942L327.111 239.903Z" fill="#DC908D"/>
<path fill-rule="evenodd" clip-rule="evenodd" d="M129.501 271.157C123.121 259.705 115.171 254.641 113.944 239.293L113.389 238.143L109.048 240.96C114.977 263.046 123.278 268.094 129.103 277.892C131.637 282.156 132.101 289.135 130.564 293.766C134.958 287.681 132.678 277.166 129.501 271.157Z" fill="#DC908D"/>
<path fill-rule="evenodd" clip-rule="evenodd" d="M138.487 257.266L161.123 282.56L162.804 283.765L167.698 275.949L168.981 274.553C168.638 274.171 158.542 267.028 156.74 265.888C154.648 264.564 145.187 258.109 144.054 256.676L139.851 253.751L138.487 257.266Z" fill="#23456D"/>
<path fill-rule="evenodd" clip-rule="evenodd" d="M233.056 217.535C233.311 218.984 246.078 221.902 247.76 222.432C255.655 224.92 264.531 227.654 270.421 233.34C278.801 241.429 286.355 262.137 287.642 263.52L290.231 262.449C288.759 260.427 284.563 249.039 282.819 245.524C280.55 240.95 276.982 234.115 273.304 230.711C263.904 222.011 244.692 219.408 233.721 215.163L233.056 217.535Z" fill="#456C91"/>
<path fill-rule="evenodd" clip-rule="evenodd" d="M139.851 253.751L144.054 256.675C145.635 246.518 150.737 234.805 159.72 229.579C167.358 225.134 187.805 219.845 196.56 218.096L196.213 215.56C184.894 217.387 167.975 221.35 157.997 227.225C147.057 233.667 144.685 242.414 139.851 253.751Z" fill="#456C91"/>
<path fill-rule="evenodd" clip-rule="evenodd" d="M300.571 289.186C296.714 295.682 293.212 297.986 295.146 307.424C296.032 294.83 298.813 294.072 307.662 289.186C312.419 286.558 320.49 279.288 323.655 274.161L320.49 269.936C317.305 274.946 316.062 277.031 311.646 280.806C309.762 282.415 302.419 288.16 300.571 289.186Z" fill="#DC908D"/>
<path fill-rule="evenodd" clip-rule="evenodd" d="M239.558 178.437C243.522 177.979 243 176.623 244.524 173.119C247.497 166.279 245.019 164.8 244.524 164.38C244.028 163.959 242.64 163.612 241.565 163.853C240.489 164.095 239.546 165.017 239.546 165.017L239.558 178.437Z" fill="#FDDBCC"/>
<path fill-rule="evenodd" clip-rule="evenodd" d="M200.567 211.344C200.543 212.368 199.463 213.238 198.383 213.761L196.006 215.732C197.796 226.273 206.236 227.591 215.211 227.939C223.128 228.247 233.232 224.582 234.612 215.563C233.096 214.865 232.823 214.921 231.523 213.146L230.232 206.94C225.513 211.323 225.926 212.931 218.24 214.336C212.671 215.355 205.367 214.108 200.567 211.344Z" fill="#FDDBCC"/>
<path fill-rule="evenodd" clip-rule="evenodd" d="M163.705 380.168L163.706 386.488L164.02 398.393C165.079 395.795 182.86 373.328 184.346 373.307L185.85 371.29L180.465 370.4C179.952 371.863 165.971 379.496 163.705 380.168Z" fill="#1F3953"/>
<path fill-rule="evenodd" clip-rule="evenodd" d="M248.58 371.27L266.195 384.008C265.638 380.649 265.769 378.122 264.524 373.93L262.15 366.477L248.58 371.27Z" fill="#1F3953"/>
<path fill-rule="evenodd" clip-rule="evenodd" d="M243.83 391.4C249.38 391.4 267.383 394.9 269.6 396.154L267.618 389.815L265.928 382.082L245.019 384.269L232.332 392.589C232.332 392.589 238.279 391.4 243.83 391.4Z" fill="#1F3953"/>
<path fill-rule="evenodd" clip-rule="evenodd" d="M163.613 381.813C163.75 379.124 163.887 376.583 164.965 371.791L166.771 365.528L180.465 370.4C179.952 371.863 165.879 381.139 163.613 381.813Z" fill="#1F3953"/>
<path fill-rule="evenodd" clip-rule="evenodd" d="M224.511 178.063C224.229 177.207 224.725 177.411 224.016 177.71C223.503 179.657 222.296 181.872 220.453 182.492C220.048 183.856 215.958 185.18 215.115 183.97C212.976 184.157 207.679 184.449 206.188 183.02C202.601 182.375 202.122 177.999 202.161 174.949C200.438 175.822 201.66 181.309 202.328 182.934C202.712 183.87 203.176 184.761 203.754 185.544C204.293 186.275 205.014 186.705 205.902 186.823C206.79 186.942 207.596 186.716 208.3 186.152C209.066 185.54 209.923 184.742 212.008 184.923C213.819 185.079 215.152 185.804 216.384 186.59C217.592 187.36 219.086 187.246 220.169 186.302C222.514 184.257 223.922 181.279 224.511 178.063Z" fill="#FDDBCC"/>
<path fill-rule="evenodd" clip-rule="evenodd" d="M203.05 175.312C203.792 179.275 209.568 179.513 212.871 179.614C216.656 179.73 220.484 177.953 223.924 176.585C222.492 175.676 215.166 176.067 212.894 175.928C210.795 175.801 203.738 173.706 203.05 175.312Z" fill="#FCFCFB"/>
<path fill-rule="evenodd" clip-rule="evenodd" d="M206.188 183.02C208.45 179.845 217.558 180.222 220.423 182.477L220.453 182.492C222.296 181.872 223.503 179.657 224.016 177.71C224.725 177.411 224.228 177.207 224.511 178.063C224.833 177.108 224.751 176.993 223.924 176.585C220.484 177.953 216.656 179.73 212.871 179.614C209.568 179.513 203.792 179.276 203.05 175.312L202.161 174.949C202.122 177.999 202.601 182.375 206.188 183.02Z" fill="#712D28"/>
<path fill-rule="evenodd" clip-rule="evenodd" d="M232.152 155.018C233.545 153.854 233.308 152.825 232.754 151.251C231.298 150.69 228.08 150.635 226.349 150.454C224.334 150.244 221.617 147.156 221.194 149.754C220.69 152.843 223.707 154.405 225.721 154.582C227.181 154.709 231.032 155.437 232.152 155.018Z" fill="#4E3951"/>
<path fill-rule="evenodd" clip-rule="evenodd" d="M199.982 151.951C200.824 152.631 209.038 152.011 209.917 151.455C210.774 150.728 211.545 148.554 210.65 147.561C209.967 146.803 206.902 148.106 205.769 148.162C202.993 148.296 198.438 147.076 199.982 151.951Z" fill="#4E3951"/>
<path fill-rule="evenodd" clip-rule="evenodd" d="M212.812 154.907C212.36 155.949 215.651 153.04 215.651 157.56C215.651 158.43 214.765 162.654 214.473 164.123C213.957 166.723 217.663 167.969 215.68 169.95C215.256 170.26 210.599 170.735 209.483 169.686C207.622 167.936 209.509 167.391 210.213 164.982C210.412 164.302 211.387 161.508 211.886 159.835C211.936 159.666 213.404 153.543 212.812 154.907Z" fill="#DC908D"/>
<path fill-rule="evenodd" clip-rule="evenodd" d="M215.869 170.008C212.687 170.005 212.437 170.389 209.388 169.228C208.382 166.428 211.466 164.586 211.937 161.597C212.522 158.977 214.059 153.884 213.155 152.53C212.368 153.282 212.815 155.621 211.837 159.187C211.367 160.9 210.725 162.355 209.986 163.872C209.26 165.361 207.906 167.184 208.012 168.867C208.151 171.091 214.564 170.968 215.869 170.008Z" fill="#B87D7B"/>
<path fill-rule="evenodd" clip-rule="evenodd" d="M206.188 183.02C207.679 184.449 212.976 184.158 215.116 183.97L220.423 182.477C217.558 180.222 208.45 179.845 206.188 183.02Z" fill="#EF6982"/>
<path fill-rule="evenodd" clip-rule="evenodd" d="M165.434 331.124L163.59 374.78C162.781 381.666 166.23 383.487 167.515 384.216L170.616 385.973L185.215 389.85C189.399 390.512 190.673 390.764 195.588 391.584C197.936 391.976 201.642 392.73 203.218 392.98C203.254 392.985 205.318 392.799 206.506 392.916C211.192 393.376 217.119 393.119 219.897 393.446L223.254 393.357L223.873 393.483C226.708 392.722 231.754 392.698 235.279 391.983C236.834 391.668 239.145 390.572 240.347 391.639C241.52 392.681 242.322 394.866 243.753 395.076L240.179 391.082L242.856 390.555L260.637 383.789L264.543 382.155C265.962 381.561 265.924 380.007 266.2 378.466C266.387 377.418 266.478 374.013 266.209 372.781C263.288 359.398 259.918 292.153 256.99 278.234L260.002 284.229L263.245 282.861L291.54 266.837L290.231 262.449L287.642 263.52C284.212 266.578 261.465 274.063 256.582 273.793L251.368 241.307C249.718 245.785 252.512 267.822 251.073 272.982C245.795 291.896 237.358 313.14 222.161 325.744C216.561 330.389 210.043 333.861 202.428 335.612C188.493 338.813 178.347 335.212 165.434 331.124Z" fill="#23456D"/>
<path fill-rule="evenodd" clip-rule="evenodd" d="M220.908 163.182C222.975 162.419 221.783 158.373 226.171 158.779C230.215 159.153 229.064 162.792 231.183 163.461C231.669 162.614 231.611 162.365 231.145 161.19C230.983 160.783 230.36 159.554 230.128 159.244C227.076 155.168 218.603 158.812 220.908 163.182Z" fill="#3A373B"/>
<path fill-rule="evenodd" clip-rule="evenodd" d="M197.817 160.833C200 161.071 198.784 159.94 200.134 158.248C201.344 156.731 204.806 155.938 206.469 158.898C207.436 160.62 206.553 161.601 208.381 161.638C208.606 152.887 197.32 154.642 197.817 160.833Z" fill="#3A373B"/>
<path fill-rule="evenodd" clip-rule="evenodd" d="M215.116 183.969C215.958 185.179 220.048 183.855 220.453 182.492L220.423 182.476L215.116 183.969Z" fill="#F4E9E7"/>
<path fill-rule="evenodd" clip-rule="evenodd" d="M349.138 368.132L344.867 386.613C346.21 387.086 347.576 389.66 349.658 390.833C351.828 392.057 354.75 392.693 357.171 393.268C360.248 393.997 370.248 397.25 371.702 393.089C371.438 392.524 371.738 391.817 371.223 391.102C370.012 389.422 365.108 389.611 365.018 388.737C365.915 388.247 373.799 391.656 375.276 388.242C377.184 383.832 368.154 383.93 367.259 383.048C367.49 382.567 368.419 383.014 368.893 383.128C371.515 383.762 378.131 385.661 379.107 382.078C380.434 377.201 369.816 377.345 369.044 376.398C369.257 375.984 369.556 376.212 370.106 376.353C372.19 376.887 375.572 377.389 377.573 376.901C380.989 376.066 379.917 373.046 377.534 371.702C372.446 368.833 360.807 367.98 360.122 367.435C361.227 367.131 363.855 368.08 365.134 367.997C365.722 366.38 366.567 361.336 366.495 359.584C366.344 355.909 364.726 354.109 364.734 353.301C364.269 352.56 362.698 352.372 361.932 352.967C360.195 354.318 361.281 359.07 358.318 362.573C357.012 364.117 351.119 368.988 349.138 368.132Z" fill="#72B7E1"/>
<path fill-rule="evenodd" clip-rule="evenodd" d="M345.27 368.648C345.825 368.248 346.443 368.488 347.105 368.654L346.962 369.481C346.295 369.603 345.277 369.482 345.27 368.648ZM343.057 368.581C343.123 368.043 343.272 368.006 343.797 368.138C344.275 368.258 344.313 368.297 344.298 368.723C343.824 369.07 343.475 368.949 343.057 368.581ZM341.084 368.003C341.407 367.55 342.051 367.714 342.557 367.959L342.398 368.403C341.893 368.584 341.366 368.444 341.084 368.003ZM344.501 386.999L348.931 367.84C348.324 366.97 341 365.337 339.574 366.326C338.266 367.233 336.941 373.459 336.44 375.256C336.019 376.767 333.607 383.542 334.475 384.532C335.705 385.934 343.905 386.068 344.053 387.35L344.501 386.999Z" fill="#71B5DE"/>
<path fill-rule="evenodd" clip-rule="evenodd" d="M308.064 168.43C309.614 167.591 314.165 161.604 315.715 162.623C317.642 163.887 314.906 165.658 313.86 166.636C312.682 167.737 311.243 168.915 310.161 170.067C308.332 172.011 307.894 171.865 306.217 169.93C305.193 168.751 303.958 167.236 302.997 165.996C301.69 164.311 302.916 162.079 304.914 164.657C305.38 165.258 307.672 168.151 308.064 168.43ZM306.844 153.997C290.321 157.24 294.934 182.75 311.966 179.435C328.568 176.205 323.502 150.727 306.844 153.997Z" fill="#74B9DE"/>
<path d="M285.717 51.899C286.446 49.8233 287.765 49.1202 289.675 49.7898L302.444 54.2661C306.969 55.8529 310.074 57.9671 311.758 60.609C313.483 63.2654 313.69 66.4618 312.378 70.1981C311.926 71.4851 311.197 72.6982 310.191 73.8374C309.199 74.9351 307.989 75.7929 306.559 76.4108C305.186 77.0017 303.686 77.222 302.06 77.0715L301.951 77.3829C305.083 79.0872 307.033 81.1697 307.801 83.6303C308.584 86.0495 308.553 88.4631 307.707 90.8709C306.716 93.6939 305.374 95.788 303.682 97.1531C301.991 98.5183 300.154 99.3664 298.172 99.6974C296.191 100.028 294.228 100.04 292.284 99.7314C290.382 99.4376 288.705 99.0359 287.251 98.5264L274.172 93.9409C272.262 93.2713 271.671 91.8986 272.4 89.8229L285.717 51.899ZM292.378 54.4441L286.736 70.5103L293.899 73.0214C295.103 73.4436 296.444 73.6105 297.92 73.522C299.439 73.4482 300.866 72.9694 302.202 72.0857C303.594 71.1751 304.662 69.6611 305.406 67.5439C306.105 65.5512 306.147 63.8404 305.529 62.4117C304.926 60.9414 303.992 59.7512 302.726 58.8411C301.474 57.8895 300.247 57.2026 299.042 56.7805L292.378 54.4441ZM285.578 73.8108L279.192 91.9943L287.538 94.9203C288.493 95.2551 289.554 95.4872 290.721 95.6166C291.945 95.719 293.171 95.6128 294.401 95.2979C295.645 94.9416 296.79 94.2706 297.836 93.285C298.923 92.314 299.794 90.8944 300.45 89.0262C301.238 86.7844 301.297 84.8235 300.627 83.1435C300 81.4781 298.992 80.0989 297.603 79.006C296.23 77.8717 294.795 77.0424 293.301 76.5184L285.578 73.8108ZM323.233 76.5215C321.448 75.8955 320.919 74.5447 321.648 72.4689L322.96 68.7326C323.223 67.9853 323.516 67.482 323.84 67.2227C324.164 66.9634 324.655 66.7623 325.311 66.6194C328.022 65.9379 330.448 65.6694 332.589 65.8139C334.745 65.9168 336.964 66.3687 339.248 67.1693C342.155 68.1883 344.298 69.5224 345.677 71.1717C347.098 72.8355 347.904 74.6568 348.095 76.6355C348.343 78.5872 348.124 80.5387 347.439 82.4899C346.783 84.3581 345.737 86.2063 344.303 88.0345C342.909 89.8774 340.959 91.7116 338.453 93.5372C336.003 95.3358 332.891 97.1589 329.118 99.0066C325.344 100.854 320.742 102.738 315.312 104.657L331.568 110.356L332.923 106.495C333.448 105.001 334.103 104.065 334.889 103.688C335.689 103.269 336.608 103.241 337.646 103.605C339.431 104.231 339.96 105.582 339.231 107.658L337.088 113.76C336.825 114.508 336.311 114.91 335.545 114.968C334.82 115.04 333.855 114.865 332.651 114.443L310.54 106.691C310.001 106.502 309.665 106.198 309.532 105.778C309.414 105.317 309.435 104.858 309.596 104.402C309.902 103.53 310.461 102.933 311.273 102.612L312.43 102.108C317.881 99.7299 322.344 97.4477 325.816 95.2614C329.33 93.0897 332.062 91.0867 334.012 89.2525C335.962 87.4183 337.372 85.7914 338.244 84.3718C339.157 82.9668 339.767 81.8284 340.073 80.9565C340.495 79.7526 340.761 78.4001 340.868 76.8991C341.017 75.4127 340.761 74.0174 340.099 72.7131C339.453 71.3674 338.133 70.3452 336.14 69.6464C335.143 69.2971 334.075 69.0857 332.935 69.0124C331.795 68.9391 330.66 68.9841 329.53 69.1475L327.955 73.6311C327.431 75.1256 326.81 76.0969 326.093 76.5449C325.39 76.9515 324.437 76.9436 323.233 76.5215Z" fill="#76B1D6"/>
<path d="M27.1656 169.842C26.8205 168.348 27.3352 167.443 28.7099 167.126L37.8991 165.008C41.1564 164.258 43.7737 164.347 45.7509 165.276C47.758 166.198 49.0721 168.004 49.6934 170.693C49.9074 171.62 49.9306 172.606 49.763 173.651C49.5885 174.667 49.1956 175.623 48.5843 176.519C47.9959 177.379 47.1949 178.067 46.1812 178.583L46.233 178.808C48.7134 178.645 50.6388 179.146 52.0092 180.309C53.3726 181.442 54.2546 182.876 54.6549 184.609C55.1243 186.64 55.1155 188.373 54.6284 189.807C54.1414 191.241 53.3761 192.425 52.3326 193.357C51.2891 194.29 50.1376 195.028 48.8779 195.57C47.6481 196.105 46.5103 196.493 45.4644 196.734L36.051 198.903C34.6764 199.22 33.8165 198.631 33.4714 197.137L27.1656 169.842ZM32.0378 168.861L34.7092 180.424L39.8641 179.237C40.7308 179.037 41.5824 178.636 42.4191 178.034C43.2856 177.425 43.9475 176.612 44.4048 175.594C44.885 174.539 44.9491 173.25 44.597 171.726C44.2657 170.292 43.6517 169.269 42.755 168.657C41.8514 168.016 40.8571 167.663 39.772 167.598C38.6801 167.503 37.7008 167.556 36.8342 167.756L32.0378 168.861ZM35.258 182.8L38.2814 195.887L44.288 194.503C44.9754 194.345 45.6868 194.086 46.4224 193.728C47.1809 193.333 47.8635 192.814 48.4703 192.17C49.0702 191.497 49.4941 190.676 49.7422 189.706C50.0202 188.729 50.0038 187.569 49.6932 186.224C49.3204 184.61 48.6236 183.434 47.6028 182.693C46.6118 181.946 45.5037 181.509 44.2784 181.382C43.0462 181.226 41.8922 181.271 40.8163 181.519L35.258 182.8ZM57.5904 165.711C57.2663 165.943 56.9249 166.1 56.5663 166.183C56.1778 166.272 55.8479 166.207 55.5766 165.986C55.3283 165.729 55.1696 165.45 55.1006 165.152C55.0592 164.972 55.0775 164.779 55.1556 164.573C55.2338 164.366 55.4533 164.158 55.8141 163.949L61.565 160.027C61.9489 159.782 62.3431 159.581 62.7477 159.424C63.1752 159.231 63.5533 159.097 63.8821 159.021C65.4061 158.67 66.3407 159.242 66.6859 160.736L72.9605 187.896L76.8155 187.008C77.5925 186.829 78.1166 186.85 78.3879 187.07C78.6592 187.291 78.8329 187.566 78.9088 187.895C78.9709 188.163 78.9549 188.435 78.8607 188.708C78.7596 188.952 78.4102 189.142 77.8125 189.28L64.4546 192.358C63.8868 192.489 63.4891 192.47 63.2615 192.303C63.0568 192.098 62.9234 191.861 62.8613 191.592C62.7854 191.264 62.8209 190.941 62.968 190.624C63.1449 190.3 63.607 190.051 64.3541 189.879L68.209 188.991L62.1311 162.682L57.5904 165.711Z" fill="#B7DDF4"/>
</svg>
