<svg width="580" height="520" viewBox="0 0 580 520" fill="none" xmlns="http://www.w3.org/2000/svg">
<path d="M132.132 130.078C30.2212 130.078 -64.7304 283.641 57.93 379.682C187.073 480.799 161.914 482.085 204.912 507.051C228.637 526.054 298.708 517.42 334.64 509.106C413.889 490.768 388.65 498.834 456.095 482.085C513.706 467.777 464.072 524.162 545.48 417.977C555.187 405.316 609.773 92.4487 507.685 35.5784C396.129 -26.5656 312.842 130.078 132.132 130.078Z" fill="#EDF8FF"/>
<path d="M228.943 516.951C198.144 513.574 205.069 493.725 205.958 482.142L222.886 474.654L299.731 468.138C310.049 469.767 332.82 469.211 335.432 484.143C338.931 504.149 353.238 508.733 299.731 516.951C274.353 520.848 267.53 521.181 228.943 516.951Z" fill="#315679"/>
<path fill-rule="evenodd" clip-rule="evenodd" d="M92.6842 71.1313C100.852 68.1015 104.921 81.5163 96.817 84.2309C88.7803 86.9231 83.6184 74.4941 92.6842 71.1313ZM129.195 59.97C137.569 57.0065 141.614 70.4418 133.11 73.1949C125.147 75.7734 120.006 63.2227 129.195 59.97ZM165.36 50.9241C172.695 49.3732 174.26 60.7282 167.548 62.1203C160.147 63.6545 157.819 52.5182 165.36 50.9241ZM169.067 146.97C179.273 151.548 193.314 155.011 204.796 153.591C202.701 151.659 196.905 149.954 190.116 143.16C186.355 139.396 181.651 133.337 179.482 128.339C178.639 126.978 176.938 123.561 176.859 122.071L186.916 114.063C189.069 111.017 197.889 105.178 203.825 93.5479C204.734 91.7672 206.964 85.7414 207.771 84.9153C212.195 63.9693 208.422 49.6314 195.725 32.871C172.467 2.16917 131.971 -3.23437 102.815 21.9065C97.752 26.2727 90.2932 22.7776 75.7775 28.3757C59.7755 34.5468 46.7533 48.7389 46.0439 66.8195C45.2865 86.1273 55.0997 85.734 49.776 92.6754C38.4001 107.507 49.0743 129.953 63.3282 138.915C87.0422 153.828 121.641 145.665 146.633 137.698C152.489 135.832 153.547 138.459 157.946 141.292C161.265 143.428 165.456 145.377 169.067 146.97Z" fill="#76B1D6"/>
<path fill-rule="evenodd" clip-rule="evenodd" d="M247.602 274.439C236.563 276.646 211.016 284.15 201.386 289.76C190.06 296.356 183.627 311.139 181.634 323.959C183.062 325.768 194.991 333.915 197.629 335.586C199.9 337.025 209.863 344.85 210.296 345.333L209.487 346.214C206.026 348.53 215.604 396.166 208.59 417.923C224.872 423.084 237.665 427.629 255.234 423.588C290.895 415.384 307.463 377.211 316.569 344.541C317.473 341.301 321.78 343 323.516 345.565C329.673 345.906 358.354 336.458 362.679 332.599C361.056 330.853 351.531 304.717 340.965 294.507C333.538 287.33 321.855 282.622 311.901 279.481C309.781 278.813 294.711 275.696 294.39 273.867C290.808 278.433 292.648 277.082 286.366 281.707C280.191 286.253 277.745 285.15 270.154 284.838C261.247 282.067 253.905 283.696 247.602 274.439Z" fill="#456C91"/>
<path fill-rule="evenodd" clip-rule="evenodd" d="M542.203 256.201C539.703 263.399 529.348 259.666 531.703 252.465C533.99 245.473 544.707 248.989 542.203 256.201ZM502.216 248.06C501.053 240.093 511.883 239.007 513.112 245.806C514.54 253.713 503.238 255.059 502.216 248.06ZM479 236.63C485.012 234.018 487.932 243.402 482.464 245.493C476.853 247.639 473.014 239.232 479 236.63ZM440.056 247.075C439.551 259.361 442.444 266.036 449.483 275.5C451.697 278.478 456.261 282.564 459.225 284.772C462.702 287.364 468.131 289.948 470.831 292.153C470.859 295.566 466.057 303.356 463.839 306.265C460.417 310.753 456.872 312.831 452.236 315.96C459.465 316.288 466.803 314.556 473.433 311.838C480.786 308.825 483.297 306.109 489.256 301.727C491.671 299.114 497.295 301.179 500.692 301.669C502.489 301.929 512.526 302.88 513.044 303.139L513.404 302.963C524.466 304.501 541.304 303.592 551.689 299.801C561.19 296.33 569.105 289.664 572.42 279.695C574.227 274.262 574.74 267.709 572.415 262.356C568.822 254.082 563.112 258.612 568.001 251.359C581.539 231.273 565.108 206.835 544.857 201.563C538.636 199.943 532.726 199.698 526.363 200.492C515.159 201.888 521.143 202.596 510.316 199.374C499.047 196.019 486.678 196.083 475.666 200.443C457.114 207.789 442.208 226.813 440.056 247.075Z" fill="#76B1D6"/>
<path fill-rule="evenodd" clip-rule="evenodd" d="M56.8095 428.755C58.5039 428.12 98.284 428.611 103.673 428.613C103.794 428.613 157.133 426.425 143.691 432.873C141.481 433.933 74.5768 432.882 61.0593 433.237C56.4394 433.358 51.8828 430.6 56.8095 428.755ZM56.3271 420.439C57.9693 419.499 83.3808 420.018 87.3788 420.011C87.9397 420.01 122.589 418.652 112.627 424.209C111.061 425.083 85.4054 424.707 81.4539 424.717C80.9287 424.718 46.6047 426.005 56.3271 420.439ZM143.847 424.343C142.191 424.84 125.378 424.955 123.877 424.35C122.138 423.649 122.048 420.916 123.828 420.231C125.09 419.745 135.214 420.013 137.372 420.015C139.47 420.015 148.869 419.556 143.847 424.343ZM126.633 411.319C127.494 411.321 151.931 410.549 143.766 415.525C141.932 416.644 102.563 415.92 97.0077 415.921C95.7887 415.921 45.4543 418.219 56.4351 411.784C57.9839 410.877 116.755 411.297 126.633 411.319ZM56.7546 402.959C58.1493 402.445 117.373 402.773 127.374 402.786C131.311 402.791 135.323 402.868 139.251 402.776C142.624 402.697 148.897 404.679 143.74 407.164C141.585 408.202 74.5355 407.184 61.0669 407.505C56.407 407.616 51.6193 404.849 56.7546 402.959ZM51.0241 381.189C30.8997 383.038 35.9039 408.618 35.8419 423.087C35.7597 442.268 32.8693 458.699 57.3512 458.778C75.497 458.837 95.4195 459.438 113.375 458.653C124.6 458.162 124.876 461.3 130.797 469.78C139.864 482.765 130.444 460.596 137.738 458.767C144.708 457.018 153.241 460.818 160.036 452.944C163.576 448.842 163.592 441.62 163.73 436.283C164.052 423.86 167.117 394.473 158.457 385.72C151.051 378.234 118.221 381.064 107.006 381.054C90.1541 381.038 67.1463 379.708 51.0241 381.189Z" fill="#B7DDF4"/>
<path fill-rule="evenodd" clip-rule="evenodd" d="M146.401 258.625C149.488 264.1 155.369 271.076 147.795 276.313C147.57 282.439 148.928 284.252 143.113 287.159C142.611 289.451 143.237 291.237 141.008 292.912C138.39 294.879 139.988 295.06 138.627 298.283C136.642 302.983 132.035 302.267 127.969 301.302C122.761 300.066 109.949 294.863 109.321 289.234C113.361 290.709 134.928 302.422 132.938 290.603C132.453 289.664 118.189 283.345 115.514 282.241C112.284 280.908 112.698 278.355 114.804 278.369C115.493 278.373 134.563 288.179 138.166 288.81C141.071 272.807 112.842 275.28 117.217 268.588C119.744 268.261 128.273 272.45 130.797 273.84C132.873 274.984 135.103 275.827 137.109 277.047C138.666 277.996 141.025 280.763 142.427 280.901C143.981 278.518 142.932 274.474 141.735 271.908C139.691 267.526 140.031 268.427 135.707 266.378C128.044 262.746 120.672 263.676 121.6 259.276C124.232 258.31 132.251 262.203 135.1 263.475C139.607 265.487 142.849 267.255 146.057 270.917C146.596 261.467 141.08 255.25 141.8 255.416C139.938 253.69 125.123 250.337 121.791 250.208C116.719 250.012 115.963 251.568 115.428 256.316C114.934 260.71 112.903 261.109 111.898 265.318C110.627 270.646 109.984 269.783 107.532 273.936C104.709 278.716 107.398 280.05 106.864 284.372C105.737 293.496 108.311 295.752 116.345 299.364C124.663 303.101 122.422 298.327 125.599 315.656C127.682 327.014 137.102 370.556 141.285 376.122C141.48 376.182 150.965 396.57 158.503 400.302C174.849 408.396 191.108 374.389 189.057 354.049C188.551 349.026 184.308 343.585 182.223 339.026C181.238 336.872 173.223 329.836 173.064 328.588L163.284 342.237C167.289 349.821 170.165 363.093 164.624 370.773C166.562 364.928 165.977 356.119 162.782 350.738C155.437 338.372 148.97 337 137.495 304.125L142.969 300.569L143.668 302.021C143.413 298.947 148.833 295.946 150.959 293.75C169.424 274.689 154.229 273.154 162.237 245.232C163.625 240.392 162.289 235.525 156.614 238.352C148.61 242.338 148.698 256.353 146.401 258.625Z" fill="#FDDBCC"/>
<path fill-rule="evenodd" clip-rule="evenodd" d="M404.096 340.696L408.086 346.029C400.419 353 395.385 359.426 388.921 363C377.764 369.167 373.258 372.116 372.14 388.011C369.703 376.099 374.118 373.191 378.981 364.991C374.537 359.435 369.835 341.539 368.504 340.176C354.071 355.531 350.57 370.383 355.891 391.179C366.066 430.938 389.844 402.097 392.497 400.963C398.152 395.629 419.796 350.828 420.633 350.342C426.41 349.521 435.733 351.35 439.393 344.84C440.784 342.368 440.827 338.653 442.058 335.292C443.366 331.721 441.895 328.777 440.898 325.466C439.877 322.07 440.847 319.39 439.402 314.669C438.358 311.254 441.103 307.093 438.048 304.521C434.116 301.212 422.031 301.989 416.822 301.577C413.286 303.972 407.166 309.653 408.763 314.997C417.366 313.044 414.637 312.04 429.235 310.336C433.183 309.875 434.831 312.269 432.467 313.371C430.918 314.094 420.365 313.009 416.573 314.285C413.372 315.362 409.386 321.175 410.116 324.877C410.38 324.957 438.862 317.066 435.343 323.146C433.919 325.606 411.799 321.484 412.176 333.589C415.591 333.67 435.364 330.922 436.242 331.39C437.75 332.196 437.141 334.208 434.777 334.453C432.687 334.67 430.553 334.802 428.427 335.069C425.932 335.383 418.496 335.783 416.835 337.068C413.611 347.307 432.639 343.887 437.829 342.854C436.448 346.757 406.718 356.8 409.598 337.389C406.854 334.193 407.192 334.545 408.372 330.412C407.355 328.611 405.98 329.095 405.613 325.768C405.362 323.497 406.349 321.636 406.732 319.461C404.352 315.637 402.169 315.784 405.282 309.929C407.843 305.111 409.571 305.488 412.444 302.79C410.16 300.892 413.255 286.06 406.364 280.965C402.444 278.067 399.208 280.272 399.07 285.182C398.943 289.655 399.977 293.508 399.581 298.175C398.866 306.585 394.001 313.437 395.537 321.176C396.75 327.284 403.833 338.616 404.096 340.696Z" fill="#FDDBCC"/>
<path fill-rule="evenodd" clip-rule="evenodd" d="M252.975 254.032L252.749 266.974C258.8 270.463 268.623 272.872 275.645 271.587C285.336 269.813 284.343 266.719 290.292 261.187L290.411 250.239C284.177 252.826 283.074 255.776 274.409 257.394C266.679 258.838 259.803 256.442 252.975 254.032Z" fill="#DC908D"/>
<path fill-rule="evenodd" clip-rule="evenodd" d="M278.536 205.958C275.63 200.442 286.313 195.844 290.161 200.987C290.454 201.38 291.24 202.931 291.444 203.445C292.031 204.926 292.104 205.242 291.492 206.31C288.82 205.466 290.272 200.874 285.172 200.401C279.64 199.888 281.142 204.994 278.536 205.958ZM248.195 176.519C248.366 182.978 239.293 206.213 247.017 223.419C249.553 221.621 250.008 220.467 255.668 218.401C261.456 216.288 263.788 216.929 269.131 217.293C274.923 217.688 277.629 218.104 283.811 220.368C289.089 222.301 289.711 221.624 292.458 225.802C297.168 219.996 300.296 196.126 301.317 187.188L299.432 169.638C291.695 166.865 253.236 171.66 248.195 176.519Z" fill="#FDDBCC"/>
<path fill-rule="evenodd" clip-rule="evenodd" d="M296.884 209.808C290.12 211.003 284.942 209 283.157 210.319C281.373 211.638 278.166 220.051 285.852 222.995C290.042 224.601 295.21 235.104 296.335 217.169C296.447 215.387 297.654 213.834 297.654 209.653C297.269 209.653 297.194 209.754 296.884 209.808Z" fill="#DC908D"/>
<path fill-rule="evenodd" clip-rule="evenodd" d="M240.365 207.244C245.708 208.837 245.79 205.095 254.398 206.865C255.832 207.16 259.084 217.486 251.397 220.431C247.207 222.036 242.039 232.539 240.914 214.605C240.802 212.824 239.595 211.27 239.595 207.089C239.98 207.089 240.064 207.154 240.365 207.244Z" fill="#DC908D"/>
<path fill-rule="evenodd" clip-rule="evenodd" d="M241.056 206.234L240.519 205.553C237.226 206.323 235.81 209.65 235.287 213.159C234.624 217.624 236.865 221.599 239.892 224.473C240.062 220.735 241.126 207.439 241.056 206.234Z" fill="#FDDBCC"/>
<path fill-rule="evenodd" clip-rule="evenodd" d="M254.899 220.809L256.02 221.267C256.887 219.241 265.786 221.884 268.432 222.045C271.297 222.22 280.534 221.726 282.339 222.874C283.382 223.388 283.485 223.534 283.079 224.739C282.337 228.798 280.561 232.557 277.605 235.138C276.239 236.33 274.355 236.473 272.832 235.501C271.279 234.51 269.597 233.595 267.314 233.397C264.686 233.169 263.604 234.177 262.64 234.949C261.752 235.661 260.735 235.946 259.616 235.796C258.496 235.646 257.586 235.104 256.907 234.181C256.178 233.193 255.594 232.068 255.109 230.888C254.267 228.837 252.726 221.911 254.899 220.809ZM244.408 168.116C242.423 169.106 238.93 181.84 238.192 191.534C238.243 195.624 238.155 200.517 239.988 207.127C240.969 215.414 238.584 225.704 238.944 234.786C241.595 243.9 246.954 248.28 254.224 256.753C256.655 257.44 260.775 258.952 265.32 259.372C269.801 259.786 274.7 259.119 278.533 258.372C287.197 256.754 284.177 252.826 290.411 250.239C291.193 248.92 295.782 246.564 297.534 243.98C299.893 240.503 301.733 238.463 302.221 234.207L302.1 204.799L302.185 202.903C301.82 198.221 302.894 179.929 300.371 176.888L299.555 181.612C299.335 183.534 297.694 190.025 298.015 193.4C299.163 205.493 296.155 221.245 292.458 225.802C289.711 221.623 288.76 220.843 283.483 218.911C277.3 216.647 274.923 217.687 269.13 217.293C263.788 216.928 260.58 215.055 254.791 217.168C249.131 219.235 249.553 221.62 247.017 223.419C239.293 206.213 248.366 182.977 248.195 176.519C248.284 174.405 245.447 167.507 244.408 168.116Z" fill="#334160"/>
<path fill-rule="evenodd" clip-rule="evenodd" d="M253.942 146.668C240.472 151.998 234.805 157.206 234.879 168.221C234.937 176.884 243.41 183.679 248.532 185.388C248.128 177.899 257.032 174.869 258.28 174.628C259.038 176.747 260.594 183.379 261.919 184.429C263.996 178.676 270.44 174.747 272.422 173.066C272.541 175.779 268.883 177.981 273.325 181.814C279.91 177.416 294.804 182.399 298.398 179.759C301.802 182.064 301.521 204.411 300.28 206.413L300.195 208.308L307.155 209.669C310.589 203.895 317.17 185.73 317.51 178.896C317.992 173.586 316.309 170.577 314.541 168.221L311.938 166.498C311.985 163.457 315.041 160.443 305.124 156.578C302.039 155.375 300.405 149.811 294.021 145.375C292.704 144.46 291.042 144.498 289.767 145.473C288.492 146.447 287.984 148.068 288.469 149.619C288.538 149.843 288.529 149.91 288.436 149.79C286.726 147.561 283.405 146.159 281.33 144.971C279.103 143.699 272.572 142.542 268.125 141.353C267.716 141.243 267.301 141.406 267.069 141.769C266.838 142.132 267.721 143.952 267.984 144.291C270.488 147.523 274.465 147.901 274.651 148.789C268.455 147.206 259.992 144.274 253.942 146.668Z" fill="#334160"/>
<path fill-rule="evenodd" clip-rule="evenodd" d="M331.917 357.01C336.15 370.289 346.973 396.179 354.576 407.453C358.823 413.753 367.206 424.608 375.832 420.48C381.11 417.954 389.69 406.267 392.497 400.963C389.844 402.097 366.066 430.939 355.891 391.179C350.57 370.384 354.071 355.532 368.504 340.177L367.594 336.785L331.917 357.01Z" fill="#DC908D"/>
<path fill-rule="evenodd" clip-rule="evenodd" d="M173.064 328.588C173.223 329.836 177.999 337.976 178.985 340.131C181.07 344.689 182.291 349.026 182.798 354.049C184.848 374.389 173.122 403.759 156.776 395.664C149.238 391.932 141.48 376.181 141.284 376.122C141.326 380.196 149.421 398.223 152.301 401.748C159.816 410.947 168.728 405.287 175.524 398.356C184.065 389.646 198.893 366.879 205.276 355.761L174.614 324.704L173.064 328.588Z" fill="#DC908D"/>
<path fill-rule="evenodd" clip-rule="evenodd" d="M146.401 258.625L141.8 255.415C141.079 255.25 146.595 261.467 146.057 270.917C142.849 267.255 139.607 265.487 135.1 263.475C132.251 262.202 124.231 258.31 121.599 259.276C120.672 263.676 128.044 262.745 135.707 266.377C140.031 268.427 139.691 267.526 141.735 271.908C142.932 274.473 143.98 278.518 142.427 280.9C141.025 280.763 138.666 277.996 137.109 277.047C135.103 275.827 132.874 274.984 130.797 273.84C128.273 272.45 119.744 268.261 117.217 268.588C112.842 275.28 141.07 272.806 138.166 288.81C134.563 288.178 115.493 278.373 114.804 278.369C112.698 278.355 112.284 280.908 115.514 282.24C118.189 283.345 132.453 289.664 132.938 290.602C134.928 302.422 113.362 290.709 109.321 289.234C109.949 294.863 122.761 300.066 127.969 301.302C132.035 302.267 136.642 302.983 138.627 298.283C139.988 295.06 138.39 294.879 141.009 292.911C143.237 291.237 142.611 289.45 143.114 287.159C148.928 284.252 147.569 282.439 147.794 276.313C155.369 271.076 149.488 264.1 146.401 258.625Z" fill="#DC908D"/>
<path fill-rule="evenodd" clip-rule="evenodd" d="M412.444 302.79C409.571 305.489 407.843 305.111 405.282 309.929C402.169 315.784 404.352 315.638 406.732 319.461C406.349 321.636 405.362 323.497 405.613 325.768C405.98 329.095 407.355 328.611 408.372 330.412C407.192 334.545 406.854 334.193 409.598 337.39C406.718 356.8 436.449 346.758 437.829 342.854C432.639 343.887 413.611 347.307 416.835 337.068C418.496 335.783 425.932 335.383 428.427 335.069C430.553 334.802 432.687 334.671 434.777 334.453C437.141 334.208 437.75 332.196 436.242 331.39C435.364 330.922 415.591 333.67 412.176 333.589C411.799 321.484 433.919 325.606 435.343 323.146C438.863 317.066 410.38 324.957 410.116 324.877C409.386 321.175 413.372 315.362 416.573 314.285C420.365 313.009 430.918 314.094 432.467 313.371C434.831 312.269 433.183 309.875 429.235 310.336C414.637 312.04 417.366 313.044 408.763 314.997C407.166 309.653 413.286 303.972 416.823 301.577L412.444 302.79Z" fill="#DC908D"/>
<path fill-rule="evenodd" clip-rule="evenodd" d="M163.284 342.237C155.24 327.783 145.216 321.392 143.668 302.021L142.969 300.569L137.495 304.124C144.971 332 155.437 338.371 162.782 350.738C165.977 356.119 166.562 364.928 164.624 370.772C170.165 363.093 167.289 349.821 163.284 342.237Z" fill="#DC908D"/>
<path fill-rule="evenodd" clip-rule="evenodd" d="M174.614 324.705L203.155 356.63L205.274 358.15L211.446 348.286L213.063 346.523C212.63 346.041 199.9 337.026 197.629 335.587C194.991 333.915 183.062 325.769 181.634 323.96L176.334 320.268L174.614 324.705Z" fill="#23456D"/>
<path fill-rule="evenodd" clip-rule="evenodd" d="M293.853 274.559C294.175 276.387 310.272 280.07 312.392 280.739C322.347 283.879 333.539 287.33 340.965 294.507C351.531 304.717 361.056 330.853 362.679 332.599L365.943 331.247C364.087 328.694 358.797 314.321 356.599 309.884C353.737 304.112 349.239 295.485 344.6 291.188C332.748 280.208 308.524 276.923 294.691 271.566L293.853 274.559Z" fill="#456C91"/>
<path fill-rule="evenodd" clip-rule="evenodd" d="M176.334 320.268L181.634 323.959C183.627 311.139 190.06 296.356 201.386 289.76C211.016 284.15 236.797 277.474 247.836 275.267L247.4 272.066C233.128 274.372 211.795 279.373 199.213 286.789C185.419 294.92 182.428 305.959 176.334 320.268Z" fill="#456C91"/>
<path fill-rule="evenodd" clip-rule="evenodd" d="M378.981 364.991C374.118 373.191 369.703 376.099 372.14 388.011C373.258 372.116 376.765 371.158 387.921 364.991C393.92 361.675 404.096 352.5 408.086 346.029L404.096 340.696C400.08 347.019 398.513 349.651 392.945 354.415C390.57 356.446 381.31 363.698 378.981 364.991Z" fill="#DC908D"/>
<path fill-rule="evenodd" clip-rule="evenodd" d="M302.051 225.212C307.05 224.634 306.391 222.923 308.312 218.5C312.062 209.866 308.937 208 308.312 207.47C307.687 206.939 305.938 206.5 304.581 206.805C303.225 207.111 302.036 208.274 302.036 208.274L302.051 225.212Z" fill="#FDDBCC"/>
<path fill-rule="evenodd" clip-rule="evenodd" d="M252.889 266.745C252.859 268.037 251.497 269.135 250.134 269.795L247.138 272.283C249.395 285.588 260.036 287.25 271.353 287.691C281.335 288.079 294.075 283.453 295.815 272.07C293.903 271.189 293.559 271.259 291.92 269.02L290.292 261.187C284.343 266.719 284.863 268.747 275.172 270.521C268.15 271.807 258.941 270.234 252.889 266.745Z" fill="#FDDBCC"/>
<path fill-rule="evenodd" clip-rule="evenodd" d="M206.41 479.824L206.411 487.8L206.808 502.826C208.143 499.547 230.562 471.191 232.436 471.165L234.332 468.618L227.543 467.495C226.896 469.342 209.268 478.975 206.41 479.824Z" fill="#1F3953"/>
<path fill-rule="evenodd" clip-rule="evenodd" d="M313.427 468.594L335.637 484.67C334.934 480.43 335.1 477.241 333.53 471.951L330.536 462.544L313.427 468.594Z" fill="#1F3953"/>
<path fill-rule="evenodd" clip-rule="evenodd" d="M307.437 494C314.436 494 337.135 498.417 339.931 500L337.431 492L335.3 482.239L308.937 485L292.94 495.5C292.94 495.5 300.439 494 307.437 494Z" fill="#1F3953"/>
<path fill-rule="evenodd" clip-rule="evenodd" d="M206.295 481.899C206.468 478.506 206.64 475.298 208 469.251L210.276 461.347L227.543 467.495C226.896 469.341 209.152 481.05 206.295 481.899Z" fill="#1F3953"/>
<path fill-rule="evenodd" clip-rule="evenodd" d="M283.079 224.74C282.723 223.659 283.349 223.917 282.455 224.295C281.809 226.751 280.287 229.547 277.962 230.329C277.452 232.051 272.294 233.722 271.232 232.195C268.534 232.432 261.856 232.799 259.976 230.996C255.453 230.182 254.85 224.659 254.899 220.809C252.726 221.912 254.267 228.837 255.109 230.888C255.594 232.068 256.178 233.193 256.907 234.182C257.586 235.104 258.496 235.647 259.616 235.797C260.735 235.946 261.752 235.661 262.64 234.949C263.604 234.177 264.686 233.169 267.314 233.397C269.597 233.595 271.279 234.51 272.832 235.501C274.355 236.473 276.239 236.33 277.605 235.138C280.561 232.558 282.337 228.798 283.079 224.74Z" fill="#FDDBCC"/>
<path fill-rule="evenodd" clip-rule="evenodd" d="M256.02 221.267C256.955 226.27 264.238 226.57 268.403 226.698C273.175 226.843 278.002 224.601 282.339 222.874C280.534 221.727 271.296 222.22 268.431 222.045C265.785 221.884 256.887 219.241 256.02 221.267Z" fill="#FCFCFB"/>
<path fill-rule="evenodd" clip-rule="evenodd" d="M259.976 230.996C262.829 226.989 274.313 227.464 277.925 230.31L277.962 230.329C280.287 229.547 281.809 226.751 282.455 224.295C283.349 223.917 282.723 223.659 283.079 224.74C283.485 223.534 283.382 223.389 282.339 222.874C278.002 224.601 273.176 226.843 268.403 226.698C264.238 226.57 256.955 226.27 256.02 221.267L254.899 220.81C254.849 224.659 255.453 230.182 259.976 230.996Z" fill="#712D28"/>
<path fill-rule="evenodd" clip-rule="evenodd" d="M292.714 195.653C294.47 194.184 294.171 192.886 293.472 190.899C291.637 190.191 287.579 190.121 285.397 189.893C282.856 189.628 279.431 185.731 278.897 189.01C278.261 192.909 282.065 194.88 284.605 195.103C286.445 195.263 291.301 196.182 292.714 195.653Z" fill="#4E3951"/>
<path fill-rule="evenodd" clip-rule="evenodd" d="M252.152 191.783C253.213 192.641 263.57 191.858 264.678 191.157C265.759 190.24 266.731 187.495 265.602 186.242C264.741 185.285 260.876 186.93 259.447 187C255.948 187.17 250.204 185.63 252.152 191.783Z" fill="#4E3951"/>
<path fill-rule="evenodd" clip-rule="evenodd" d="M268.329 195.514C267.758 196.828 271.907 193.158 271.907 198.862C271.907 199.96 270.791 205.292 270.422 207.146C269.771 210.427 274.444 212 271.945 214.5C271.409 214.891 265.538 215.491 264.131 214.167C261.784 211.958 264.164 211.27 265.051 208.23C265.302 207.371 266.531 203.845 267.16 201.733C267.224 201.521 269.075 193.792 268.329 195.514Z" fill="#DC908D"/>
<path fill-rule="evenodd" clip-rule="evenodd" d="M272.182 214.573C268.17 214.57 267.855 215.054 264.011 213.589C262.742 210.055 266.631 207.73 267.225 203.957C267.963 200.65 269.9 194.223 268.761 192.514C267.768 193.463 268.332 196.415 267.099 200.915C266.506 203.077 265.697 204.914 264.765 206.828C263.849 208.708 262.143 211.009 262.275 213.133C262.451 215.94 270.537 215.785 272.182 214.573Z" fill="#B87D7B"/>
<path fill-rule="evenodd" clip-rule="evenodd" d="M259.976 230.996C261.856 232.799 268.534 232.432 271.233 232.195L277.925 230.31C274.313 227.464 262.829 226.989 259.976 230.996Z" fill="#EF6982"/>
<path fill-rule="evenodd" clip-rule="evenodd" d="M208.591 417.923L206.265 473.023C205.245 481.714 209.594 484.013 211.215 484.932L215.124 487.151L233.531 492.044C238.808 492.879 240.413 493.197 246.611 494.233C249.571 494.727 254.244 495.679 256.231 495.994C256.277 496 258.879 495.766 260.377 495.913C266.286 496.494 273.759 496.169 277.262 496.582L281.494 496.47L282.275 496.629C285.849 495.668 292.212 495.638 296.656 494.736C298.617 494.338 301.53 492.955 303.046 494.302C304.525 495.617 305.537 498.375 307.341 498.64L302.834 493.598L306.21 492.933L328.629 484.395L333.554 482.332C335.343 481.582 335.295 479.62 335.644 477.676C335.88 476.353 335.994 472.055 335.654 470.5C331.972 453.609 327.723 368.737 324.031 351.169L327.829 358.735L331.917 357.009L367.595 336.784L365.943 331.247L362.68 332.599C358.354 336.458 329.674 345.905 323.516 345.565L316.943 304.562C314.861 310.214 318.385 338.028 316.57 344.54C309.916 368.413 299.277 395.225 280.116 411.134C273.056 416.996 264.837 421.379 255.235 423.588C237.665 427.629 224.872 423.083 208.591 417.923Z" fill="#23456D"/>
<path fill-rule="evenodd" clip-rule="evenodd" d="M278.536 205.957C281.142 204.994 279.64 199.888 285.172 200.401C290.272 200.873 288.82 205.465 291.492 206.31C292.104 205.241 292.031 204.927 291.444 203.444C291.239 202.93 290.454 201.379 290.161 200.987C286.313 195.844 275.63 200.442 278.536 205.957Z" fill="#3A373B"/>
<path fill-rule="evenodd" clip-rule="evenodd" d="M249.421 202.993C252.174 203.293 250.641 201.866 252.343 199.73C253.869 197.815 258.234 196.814 260.33 200.551C261.549 202.724 260.436 203.962 262.741 204.009C263.025 192.964 248.795 195.179 249.421 202.993Z" fill="#3A373B"/>
<path fill-rule="evenodd" clip-rule="evenodd" d="M271.233 232.194C272.294 233.721 277.452 232.05 277.962 230.329L277.925 230.31L271.233 232.194Z" fill="#F4E9E7"/>
<path fill-rule="evenodd" clip-rule="evenodd" d="M440.217 464.632L434.833 487.959C436.526 488.555 438.248 491.804 440.873 493.285C443.61 494.829 447.294 495.632 450.346 496.357C454.226 497.278 466.834 501.383 468.667 496.131C468.335 495.419 468.713 494.527 468.063 493.624C466.536 491.504 460.354 491.743 460.241 490.639C461.371 490.02 471.312 494.323 473.174 490.015C475.58 484.449 464.194 484.571 463.065 483.458C463.357 482.852 464.529 483.415 465.126 483.56C468.433 484.36 476.774 486.757 478.005 482.234C479.678 476.08 466.29 476.26 465.317 475.065C465.585 474.543 465.962 474.831 466.656 475.009C469.284 475.683 473.547 476.317 476.07 475.7C480.377 474.646 479.026 470.835 476.022 469.139C469.606 465.518 454.931 464.44 454.067 463.753C455.461 463.37 458.773 464.568 460.387 464.463C461.127 462.422 462.194 456.055 462.103 453.844C461.912 449.205 459.872 446.934 459.883 445.915C459.295 444.979 457.315 444.741 456.349 445.493C454.159 447.198 455.528 453.196 451.792 457.616C450.145 459.565 442.715 465.713 440.217 464.632Z" fill="#72B7E1"/>
<path fill-rule="evenodd" clip-rule="evenodd" d="M435.34 465.283C436.041 464.78 436.819 465.082 437.654 465.292L437.474 466.335C436.633 466.49 435.35 466.337 435.34 465.283ZM432.55 465.199C432.633 464.521 432.821 464.473 433.483 464.64C434.086 464.792 434.134 464.841 434.115 465.379C433.517 465.817 433.078 465.664 432.55 465.199ZM430.062 464.47C430.47 463.898 431.282 464.105 431.92 464.414L431.719 464.975C431.082 465.204 430.419 465.027 430.062 464.47ZM434.37 488.446L439.957 464.265C439.191 463.167 429.957 461.105 428.159 462.353C426.509 463.497 424.838 471.357 424.207 473.624C423.676 475.531 420.634 484.083 421.729 485.331C423.28 487.101 433.619 487.271 433.806 488.888L434.37 488.446Z" fill="#71B5DE"/>
<path fill-rule="evenodd" clip-rule="evenodd" d="M388.428 212.581C390.383 211.523 396.12 203.967 398.076 205.252C400.505 206.848 397.056 209.083 395.736 210.317C394.251 211.706 392.437 213.194 391.073 214.647C388.767 217.102 388.214 216.917 386.099 214.475C384.809 212.986 383.252 211.074 382.04 209.51C380.392 207.383 381.937 204.566 384.456 207.819C385.044 208.579 387.935 212.229 388.428 212.581ZM386.89 194.365C366.057 198.458 371.873 230.655 393.349 226.471C414.281 222.394 407.893 190.239 386.89 194.365Z" fill="#74B9DE"/>
<path d="M362.607 62.6479C363.158 61.0777 363.893 60.0469 364.811 59.5553C365.79 59.0849 366.974 59.0934 368.363 59.5808L386.933 66.0977C400.339 70.8025 405.157 78.5298 401.386 89.2795C400.327 92.2991 398.395 94.8091 395.591 96.8093C392.868 98.7704 389.799 99.5925 386.383 99.2755L386.224 99.7285C390.539 102.124 393.336 105.073 394.617 108.575C395.92 112.016 395.914 115.609 394.6 119.353C392.037 126.661 387.883 130.866 382.137 131.97C376.474 133.035 370.713 132.539 364.855 130.483L345.833 123.808C344.444 123.32 343.514 122.587 343.044 121.608C342.633 120.65 342.704 119.386 343.255 117.816L362.607 62.6479ZM364.096 89.7246L374.514 93.3804C376.446 94.0586 378.486 94.3336 380.633 94.2055C382.863 94.0382 384.929 93.2712 386.833 91.9045C388.758 90.4774 390.228 88.3144 391.245 85.4156C392.622 81.4901 392.249 78.205 390.124 75.5604C388.021 72.8553 385.309 70.92 381.988 69.7544L372.295 66.3529L364.096 89.7246ZM353.133 120.977L365.271 125.237C368.834 126.488 372.425 126.595 376.044 125.559C379.684 124.462 382.352 121.498 384.047 116.667C385.106 113.647 385.22 110.906 384.388 108.444C383.556 105.982 382.141 103.925 380.143 102.274C378.166 100.563 376 99.2942 373.645 98.4677L362.412 94.5258L353.133 120.977ZM417.174 98.4828C415.846 98.0166 414.976 97.3045 414.566 96.3467C414.216 95.4101 414.317 94.1567 414.868 92.5865L416.775 87.1512C417.135 86.1246 417.52 85.412 417.931 85.0137C418.403 84.6365 419.157 84.3245 420.193 84.0777C423.993 83.1052 427.46 82.6942 430.595 82.8448C433.79 83.0166 437.079 83.6959 440.461 84.8827C446.439 86.9808 450.308 90.0678 452.065 94.1439C453.905 98.1808 454.009 102.524 452.378 107.174C450.323 113.032 445.743 118.547 438.639 123.718C431.616 128.85 420.625 134.082 405.665 139.413L429.307 147.71L431.277 142.093C432.019 139.98 432.941 138.608 434.044 137.977C435.207 137.368 436.574 137.339 438.144 137.89C439.472 138.356 440.311 139.058 440.661 139.994C441.071 140.952 441.001 142.216 440.45 143.786L437.336 152.664C436.976 153.691 436.258 154.287 435.183 154.452C434.128 154.557 432.696 154.291 430.884 153.655L398.727 142.37C398.002 142.116 397.513 141.673 397.26 141.041C397.067 140.431 397.098 139.764 397.352 139.039C397.797 137.771 398.61 136.903 399.791 136.436L401.472 135.703C415.33 129.646 425.144 124.002 430.914 118.769C436.704 113.476 440.288 108.867 441.665 104.941C442.873 101.499 443.166 98.2444 442.546 95.1781C442.008 92.0727 439.806 89.8417 435.941 88.4854C433.043 87.4681 429.838 87.2254 426.329 87.7571L424.041 94.2795C423.278 96.4536 422.375 97.8664 421.333 98.518C420.312 99.1091 418.925 99.0974 417.174 98.4828Z" fill="#76B1D6"/>
<path d="M34.4683 211.743C34.2111 210.629 34.2589 209.76 34.6118 209.136C35.0075 208.503 35.6985 208.073 36.6846 207.846L49.8684 204.805C59.3865 202.609 65.0262 205.327 66.7874 212.959C67.2821 215.102 67.0826 217.271 66.1889 219.464C65.3281 221.604 63.8473 223.21 61.7465 224.281L61.8207 224.603C65.2078 224.409 67.9171 225.093 69.9487 226.657C71.9704 228.177 73.288 230.266 73.9015 232.925C75.0988 238.112 74.2314 242.083 71.2995 244.836C68.4006 247.537 64.8717 249.367 60.7129 250.326L47.2075 253.441C46.2214 253.668 45.4117 253.584 44.7785 253.188C44.1881 252.783 43.7643 252.023 43.5071 250.908L34.4683 211.743ZM45.2877 226.926L52.6835 225.22C54.0555 224.904 55.3417 224.314 56.5422 223.45C57.7757 222.533 58.6941 221.328 59.2977 219.834C59.8913 218.297 59.9506 216.5 59.4757 214.442C58.8325 211.655 57.4078 209.884 55.2014 209.129C52.9851 208.33 50.6979 208.203 48.3398 208.747L41.4585 210.334L45.2877 226.926ZM50.4082 249.113L59.0259 247.125C61.5555 246.542 63.6811 245.284 65.4026 243.351C67.1143 241.376 67.5743 238.674 66.7827 235.244C66.288 233.1 65.3464 231.466 63.9579 230.341C62.5694 229.217 60.9913 228.542 59.2236 228.318C57.4459 228.05 55.721 228.109 54.049 228.495L46.0743 230.334L50.4082 249.113ZM78.1182 205.807C77.6532 206.14 77.1634 206.366 76.6489 206.485C76.1344 206.603 75.6826 206.504 75.2934 206.188C74.9043 205.871 74.6552 205.477 74.5464 205.005C74.398 204.362 74.7393 203.787 75.5704 203.279L83.822 197.65C84.8807 196.955 85.9888 196.473 87.1464 196.206C88.304 195.939 89.1995 196.004 89.8327 196.399C90.4659 196.795 90.9111 197.551 91.1684 198.665L100.163 237.637L105.693 236.361C106.68 236.134 107.384 236.152 107.806 236.416C108.271 236.67 108.568 237.075 108.696 237.633C108.805 238.104 108.766 238.52 108.578 238.879C108.38 239.196 107.895 239.443 107.123 239.621L87.9583 244.042C87.1866 244.22 86.6424 244.21 86.3258 244.012C85.9993 243.771 85.7816 243.415 85.6728 242.943C85.5441 242.386 85.6117 241.896 85.8756 241.474C86.1823 241.042 86.8287 240.712 87.8148 240.485L93.3456 239.209L84.6334 201.459L78.1182 205.807Z" fill="#B7DDF4"/>
</svg>
