<svg width="460" height="280" viewBox="0 0 460 280" fill="none" xmlns="http://www.w3.org/2000/svg">
<g clip-path="url(#clip0_606_6781)">
<path d="M162.859 10.8958C164.777 11.4256 165.745 12.5488 166.963 14.0562C167.15 14.2418 167.338 14.4273 167.531 14.6185C167.736 18.8121 167.736 18.8121 166.395 20.8032C166.589 24.0572 167.632 26.983 168.707 30.0342C168.884 30.548 169.062 31.0619 169.245 31.5912C169.83 33.2792 170.42 34.9654 171.009 36.6516C171.42 37.8344 171.831 39.0174 172.241 40.2004C173.088 42.6448 173.938 45.0886 174.788 47.532C175.984 50.9713 177.168 54.4143 178.348 57.859C181.586 67.3111 184.845 76.7507 188.267 86.1394C190.139 91.2952 191.896 96.485 193.633 101.686C195.722 107.934 197.859 114.164 200.008 120.392C200.171 120.866 200.335 121.341 200.504 121.831C200.985 123.227 201.467 124.623 201.949 126.018C202.104 126.469 202.26 126.92 202.42 127.385C203.267 129.831 204.127 132.271 205.003 134.706C205.187 135.221 205.371 135.735 205.561 136.266C205.917 137.256 206.275 138.245 206.635 139.233C206.795 139.678 206.954 140.122 207.118 140.58C207.331 141.166 207.331 141.166 207.548 141.765C207.852 142.811 207.852 142.811 207.852 144.498C208.976 144.312 210.101 144.127 211.259 143.936C213.19 146.073 214.043 147.978 214.942 150.687C216.796 155.698 220.021 158.837 223.895 162.42C224.528 163.025 225.159 163.632 225.789 164.24C228.514 167.051 228.514 167.051 231.704 169.237C231.567 168.379 231.567 168.379 231.428 167.504C230.972 164.067 230.977 160.646 230.958 157.184C230.956 156.808 230.954 156.433 230.952 156.046C230.939 150.205 231.424 144.965 233.407 139.438C233.595 138.881 233.782 138.325 233.975 137.751C233.577 137.739 233.179 137.728 232.768 137.716C229.925 136.798 228.406 134.412 226.947 131.918C225.982 127.903 226.461 124.027 228.296 120.321C229.68 118.705 229.68 118.705 231.136 117.51C231.464 117.174 231.792 116.837 232.13 116.491C234.217 115.4 236.215 115.479 238.518 115.823C241.041 116.719 243.275 118.061 245.333 119.759C245.459 119.453 245.585 119.147 245.715 118.832C250.643 110.193 261.54 104.555 270.321 100.643C271.2 100.245 271.2 100.245 272.098 99.8388C277.875 97.4375 284.064 96.196 290.197 95.0201C291.023 94.8576 291.023 94.8576 291.866 94.6918C297.249 93.743 302.535 93.7667 307.98 93.8253C308.904 93.831 309.828 93.8361 310.752 93.8407C312.987 93.8529 315.222 93.8723 317.457 93.8956C317.439 92.9813 317.439 92.9813 317.421 92.0485C317.456 89.9719 317.835 88.5072 318.593 86.5864C320.148 88.5489 321.295 90.6103 322.464 92.8128C323.055 93.9794 323.055 93.9794 324.271 94.4579C324.436 94.0056 324.599 93.5533 324.768 93.0874C325.407 91.6466 325.407 91.6466 326.543 91.0844C326.168 92.3832 325.794 93.682 325.407 95.0201C326.157 94.4635 326.907 93.9069 327.679 93.3334C328.054 93.5189 328.429 93.7044 328.815 93.8956C328.44 94.4522 328.065 95.0089 327.679 95.5824C328.056 95.6054 328.433 95.6285 328.822 95.6522C332.775 95.9439 336.457 96.6326 340.279 97.6556C341.132 97.8814 341.132 97.8814 342.002 98.1117C364.286 104.151 379.13 116.362 390.716 136.064C392.164 135.825 393.387 135.587 394.7 134.924C396.893 133.86 399.144 133.915 401.506 134.378C404.351 136.038 406.201 137.983 407.185 141.125C407.7 145.094 407.39 148.564 404.913 151.807C402.662 154.204 400.879 155.85 397.531 156.305C397.551 156.904 397.57 157.503 397.591 158.119C397.985 175.115 390.226 192.135 378.79 204.659C375.159 208.143 375.159 208.143 373.111 209.157C373.357 209.421 373.603 209.686 373.856 209.958C374.331 210.483 374.331 210.483 374.815 211.019C375.289 211.538 375.289 211.538 375.773 212.067C376.518 213.092 376.518 213.092 376.518 214.779C374.606 213.996 373.687 213.104 372.543 211.406C370.05 211.752 368.159 212.673 365.941 213.83C357.475 218.153 357.475 218.153 353.802 218.153C362.772 236.223 372.244 254.554 384.857 270.459C385.849 271.718 386.769 272.978 387.683 274.29C390.293 278.085 390.293 278.085 394.161 280.325C396.22 280.543 398.166 280.414 400.215 280.167C401.135 280.084 401.135 280.084 402.074 280C403.775 281.684 404.507 283.85 404.913 286.185C404.726 286.556 404.539 286.927 404.346 287.309C404.231 289.409 404.165 291.507 404.104 293.608C403.719 296.125 403.358 297.33 401.506 299.117C397.772 299.884 394.03 298.823 390.432 297.851C380.11 295.249 369.502 293.961 358.913 292.932C359.051 294.016 359.051 294.016 359.191 295.122C359.501 297.897 359.573 300.638 359.577 303.428C359.579 303.937 359.582 304.446 359.584 304.97C359.59 306.615 359.59 308.26 359.588 309.905C359.587 310.75 359.587 310.75 359.587 311.612C359.504 361.57 359.504 361.57 344.911 376.562C339.752 381.483 339.752 381.483 336.765 383.454C336.52 384.631 336.52 384.631 336.579 385.984C336.582 386.483 336.585 386.981 336.588 387.495C336.605 388.278 336.605 388.278 336.623 389.076C336.626 389.598 336.629 390.12 336.632 390.658C336.569 393.329 336.569 393.329 337.333 395.823C338.553 396.125 339.787 396.374 341.025 396.596C348.114 398.027 353.453 400.737 357.704 406.655C358.892 408.461 359.021 409.661 359.055 411.812C359.07 412.357 359.085 412.901 359.1 413.462C358.913 414.94 358.913 414.94 358.19 415.968C356.509 417.097 354.605 416.854 352.667 416.627C350.963 416.064 350.963 416.064 349.827 415.502C349.64 416.059 349.452 416.615 349.259 417.189C346.821 416.974 344.853 416.49 342.586 415.572C337.968 413.844 333.115 413.332 328.247 412.691C327.832 412.634 327.417 412.578 326.99 412.52C323.014 411.983 319.068 411.561 315.057 411.433C309.672 411.25 304.342 410.683 299.003 409.98C298.132 409.867 297.26 409.76 296.387 409.659C288.491 408.735 288.491 408.735 286.251 406.229C285.405 404.994 285.002 404.008 284.518 402.57C278.583 402.586 273.378 403.4 267.707 405.13C263.614 406.361 259.502 407.296 255.307 408.123C254.404 408.304 254.404 408.304 253.482 408.489C250.734 409.019 248.148 409.48 245.333 409.317C245.36 409.657 245.386 409.996 245.413 410.345C245.578 413.963 245.578 413.963 244.481 415.818C242.029 417.215 239.544 416.847 236.886 416.275C236.487 416.206 236.089 416.136 235.679 416.064C235.304 416.435 234.929 416.806 234.543 417.189C232.243 417.019 230.285 416.343 228.157 415.492C217.421 411.282 205.677 410.848 194.279 410.062C186.194 409.503 178.262 408.56 170.257 407.293C168.702 407.073 167.158 406.936 165.592 406.816C163.365 406.61 161.785 406.121 159.829 404.995C157.152 403.569 154.538 402.525 151.665 401.586C139.286 397.439 127.758 390.946 117.555 382.892C117.046 382.495 116.536 382.099 116.012 381.69C105.518 373.376 96.4496 363.882 88.5925 353.092C88.341 352.748 88.0894 352.403 87.8302 352.048C75.3231 334.709 56.5158 388.015 56.7746 366.424C56.7818 365.233 56.7888 364.042 56.7957 362.85C56.8097 361.007 56.8255 359.163 56.8446 357.319C56.9399 347.484 56.9088 337.712 53.9506 328.226C53.6629 327.303 53.6629 327.303 53.3694 326.361C49.9877 316.306 44.893 307.722 35.7778 301.8C34.8431 301.191 33.9084 300.582 32.9738 299.973C32.547 299.703 32.1202 299.434 31.6805 299.156C30.6667 298.427 30.6667 298.427 30.0988 297.302C29.8858 295.44 29.8858 295.44 30.0988 293.367C31.8093 291.261 33.1104 290.187 35.8554 289.839C45.6845 289.452 55.1807 294.529 62.4691 300.676C62.8879 301.009 63.3066 301.343 63.738 301.686C77.2404 312.841 82.8581 331.179 84.3954 347.927C84.4846 349.02 84.5704 350.114 84.6528 351.208C86.4571 374.875 107.071 320.329 123.235 337.349C123.565 337.707 123.896 338.066 124.237 338.434C138.219 353.046 160.154 364.17 180.524 365.093C192.405 365.391 203.233 362.943 212.963 355.904C214.275 354.605 214.418 353.923 214.86 352.163C215.003 351.609 215.146 351.055 215.294 350.484C215.528 349.566 215.528 349.566 215.767 348.63C224.278 316.435 236.673 284.992 249.743 254.38C249.988 253.803 250.233 253.225 250.485 252.63C250.939 251.563 251.398 250.499 251.864 249.438C252.16 248.743 252.16 248.743 252.461 248.035C252.635 247.636 252.808 247.237 252.987 246.826C253.344 245.474 253.206 244.755 252.716 243.454C251.712 242.173 251.712 242.173 250.444 240.889C248.08 238.366 245.865 235.761 243.678 233.087C242.181 231.266 240.64 229.486 239.086 227.711C239.291 228.24 239.496 228.769 239.707 229.314C239.974 230.021 240.24 230.728 240.506 231.436C240.901 232.473 240.901 232.473 241.305 233.531C241.898 235.49 242.103 236.93 241.926 238.956C241.251 240.01 241.251 240.01 240.222 240.643C238.802 240.889 238.802 240.889 237.383 240.643C235.687 238.857 235.069 236.886 234.324 234.579C234.202 234.208 234.081 233.838 233.956 233.456C233.345 231.577 232.755 229.692 232.173 227.803C228.955 217.387 225.167 208.897 218.614 200.008C216.871 197.595 215.281 195.095 213.708 192.57C213.414 192.099 213.119 191.628 212.816 191.142C210.124 186.773 207.659 182.286 205.239 177.765C203.249 174.049 201.122 170.487 198.765 166.988C198.588 165.582 198.588 165.582 198.765 164.177C199.617 163.158 199.617 163.158 200.469 162.49C199.345 162.119 198.22 161.748 197.062 161.365C196.516 159.264 196.602 157.846 197.062 155.743C196.874 155.372 196.687 155.001 196.494 154.619C196.227 152.887 196.165 151.283 196.494 149.558C198.467 147.741 200.146 147.202 202.741 146.747C202.604 146.417 202.466 146.087 202.325 145.747C200.814 142.065 199.458 138.346 198.155 134.588C197.946 133.988 197.736 133.387 197.52 132.768C196.857 130.868 196.196 128.968 195.535 127.068C194.868 125.152 194.201 123.236 193.533 121.321C193.119 120.134 192.705 118.946 192.293 117.758C192.107 117.225 191.921 116.691 191.729 116.142C191.566 115.672 191.403 115.202 191.234 114.718C190.834 113.559 190.834 113.559 190.247 112.45C188.95 112.028 187.685 111.675 186.362 111.352C185.963 111.25 185.563 111.149 185.15 111.044C183.833 110.711 182.515 110.386 181.196 110.06C180.279 109.831 179.362 109.601 178.445 109.371C172.751 107.948 167.042 106.605 161.315 105.32C156.176 104.161 151.054 102.94 145.937 101.689C145.004 101.461 144.071 101.235 143.138 101.01C141.832 100.695 140.528 100.375 139.224 100.054C138.83 99.9598 138.436 99.8657 138.029 99.7686C135.29 99.0844 135.29 99.0844 134.025 97.8314C135.074 97.3539 136.128 96.8876 137.184 96.4257C137.77 96.1648 138.356 95.9039 138.96 95.6351C143.561 94.1294 147.792 95.6279 152.337 96.7859C153.074 96.97 153.81 97.1537 154.547 97.337C156.483 97.8201 158.419 98.3087 160.354 98.7986C162.292 99.2884 164.232 99.7732 166.172 100.258C169.118 100.996 172.064 101.735 175.009 102.478C179.328 103.566 183.65 104.639 187.975 105.703C187.6 104.033 187.226 102.363 186.839 100.643C186.279 100.526 185.719 100.409 185.142 100.289C179.04 98.9926 173.007 97.4821 166.971 95.9104C161.695 94.5441 156.399 93.3209 151.062 92.2089C151.062 91.8378 151.062 91.4667 151.062 91.0844C151.363 90.9776 151.664 90.8707 151.974 90.7607C159.224 88.1838 166.432 85.5178 173.603 82.7355C174.203 82.5045 174.802 82.2736 175.419 82.0357C175.952 81.8287 176.486 81.6218 177.035 81.4086C178.321 80.9639 178.321 80.9639 179.457 80.9639C178.895 79.1085 178.332 77.253 177.753 75.3414C174.563 75.6705 171.835 76.4988 168.846 77.6299C168.372 77.8059 167.897 77.9818 167.408 78.1631C165.85 78.7416 164.295 79.3256 162.739 79.9097C161.645 80.3169 160.552 80.7237 159.458 81.1301C157.202 81.9691 154.946 82.8103 152.692 83.6535C148.116 85.3649 143.535 87.0655 138.955 88.766C137.546 89.2893 136.138 89.8131 134.729 90.3369C126.371 93.4434 117.993 96.4937 109.605 99.5181C109.969 102.135 110.663 104.546 111.539 107.032C111.676 107.426 111.813 107.82 111.954 108.227C112.399 109.506 112.848 110.785 113.296 112.063C113.603 112.946 113.91 113.829 114.217 114.712C115.641 118.799 117.09 122.876 118.596 126.934C118.835 127.58 119.075 128.226 119.321 128.892C119.768 130.089 120.22 131.285 120.677 132.478C120.973 133.271 120.973 133.271 121.276 134.079C121.449 134.534 121.623 134.988 121.802 135.457C122.099 136.627 122.099 136.627 121.531 138.313C120.313 138.97 120.313 138.97 118.798 139.543C118.302 139.737 117.807 139.93 117.296 140.13C115.852 140.562 115.852 140.562 113.58 140.562C111.057 134.014 108.669 127.423 106.339 120.805C105.767 119.183 105.191 117.561 104.616 115.94C104.247 114.894 103.878 113.847 103.509 112.801C103.254 112.085 103.254 112.085 102.994 111.355C102.013 108.558 101.2 105.775 100.518 102.892C99.8679 103.132 99.2174 103.372 98.5472 103.619C87.5812 107.666 76.6152 111.712 65.6226 115.688C58.0721 118.423 50.5396 121.206 43.0063 123.987C38.1425 125.782 33.279 127.577 28.395 129.317C26.7989 125.542 25.3605 121.711 23.9583 117.861C23.773 117.367 23.5878 116.872 23.3969 116.362C23.2271 115.89 23.0573 115.418 22.8824 114.932C22.7273 114.508 22.5723 114.085 22.4125 113.648C22.0931 112.2 22.1185 111.564 22.716 110.201C24.0645 109.457 24.0645 109.457 25.8858 108.798C26.5695 108.545 27.2532 108.293 27.9577 108.033C28.7172 107.763 29.4767 107.493 30.2362 107.223C31.0228 106.936 31.809 106.648 32.5949 106.36C34.7059 105.588 36.8208 104.826 38.9366 104.067C41.1212 103.281 43.3022 102.484 45.4833 101.689C48.9592 100.422 52.4369 99.1597 55.916 97.9016C61.7468 95.7925 67.5651 93.6506 73.381 91.5016C74.8475 90.9602 76.3147 90.4204 77.7822 89.8813C78.6748 89.5532 79.5674 89.2251 80.46 88.8969C80.8715 88.7457 81.2829 88.5945 81.7068 88.4387C84.8866 87.2669 88.0485 86.0539 91.2038 84.8189C92.5678 84.3374 92.5678 84.3374 93.7036 84.3374C93.5412 83.903 93.3787 83.4686 93.2113 83.021C90.2545 75.1044 87.3192 67.1814 84.5107 59.2119C84.2915 58.5952 84.0723 57.9785 83.8465 57.3431C83.6477 56.7748 83.4489 56.2065 83.2441 55.6209C83.0697 55.1247 82.8953 54.6285 82.7157 54.1172C82.3456 52.8514 82.3456 52.8514 82.3456 51.1647C83.3377 50.7853 84.332 50.4116 85.3271 50.0402C85.8805 49.8314 86.434 49.6227 87.0042 49.4076C88.5925 48.9157 88.5925 48.9157 90.8641 48.9157C92.3472 52.9274 93.8283 56.9399 95.3068 60.9533C95.9934 62.8167 96.6807 64.6799 97.3695 66.5425C98.1609 68.6826 98.9493 70.8238 99.7376 72.965C99.986 73.6356 100.234 74.3062 100.49 74.9972C100.832 75.9257 100.832 75.9257 101.18 76.873C101.381 77.4199 101.583 77.9667 101.791 78.5302C102.222 79.8394 102.222 79.8394 102.222 80.9639C117.362 75.4382 132.458 69.799 147.556 64.1615C147.976 64.0045 148.397 63.8476 148.83 63.6859C150.816 62.9442 152.802 62.2024 154.788 61.4604C159.98 59.521 165.174 57.5899 170.37 55.6627C169.995 54.1783 169.621 52.694 169.234 51.1647C162.984 52.9374 156.951 55.1888 150.884 57.49C149.906 57.8592 148.927 58.2281 147.948 58.5969C145.578 59.4906 143.208 60.3871 140.839 61.2852C140.839 59.3909 141.079 59.0655 142.175 57.5954C142.467 57.1992 142.759 56.803 143.06 56.3947C143.382 55.9676 143.703 55.5405 144.034 55.1004C144.364 54.6541 144.695 54.2078 145.035 53.7479C146.436 51.8578 147.849 49.9758 149.261 48.0934C151.264 45.4229 153.261 42.7484 155.24 40.0603C155.852 39.2309 156.466 38.4035 157.083 37.5785C157.917 36.4584 158.733 35.3276 159.545 34.1918C159.912 33.7067 159.912 33.7067 160.287 33.2118C161.592 31.3423 161.983 30.08 161.712 27.8731C161.571 27.2099 161.429 26.5467 161.284 25.8635C158.947 28.0307 157.162 30.3515 155.356 32.9619C152.844 36.5416 150.279 40.0742 147.654 43.5743C145.071 47.0263 142.523 50.4995 140.023 54.0111C139.74 54.4058 139.457 54.8006 139.165 55.2074C137.982 56.863 136.838 58.5159 135.757 60.2397C133.485 63.826 131.352 65.2396 127.21 66.3454C128.138 63.383 130.029 61.1562 131.895 58.7199C134.765 54.9211 137.573 51.09 140.307 47.1938C145.324 40.0556 150.421 32.9771 155.771 26.0787C156.617 24.91 157.278 23.7959 157.876 22.49C157.349 22.2638 157.349 22.2638 156.812 22.0331C155.605 21.3655 155.605 21.3655 154.469 19.6787C154.159 17.9552 154.163 16.3427 154.469 14.6185C156.972 11.4706 158.939 10.3838 162.859 10.8958Z" fill="#9B5F3F"/>
<path d="M304.005 155.637C304.76 155.627 304.76 155.627 305.53 155.617C309.062 155.609 312.318 156.059 315.753 156.867C315.753 157.053 315.753 157.238 315.753 157.43C312.817 157.48 310.116 157.452 307.235 156.867C304.481 156.556 302.736 156.459 300.384 158.027C299.016 160.08 298.922 161.198 299.284 163.614C300.201 165.001 300.896 165.269 302.478 165.828C303.146 166.124 303.146 166.124 303.827 166.426C303.933 166.965 303.933 166.965 304.04 167.515C304.307 168.873 304.307 168.873 306.034 169.566C308.73 170.642 311.423 170.676 314.298 170.748C315.084 170.777 315.084 170.777 315.885 170.806C317.166 170.852 318.447 170.891 319.728 170.924C319.85 170.475 319.971 170.026 320.097 169.564C320.864 168.112 320.864 168.112 322.342 167.592C322.908 167.52 323.475 167.448 324.059 167.374C324.628 167.295 325.198 167.216 325.785 167.135C326.441 167.062 326.441 167.062 327.111 166.988C327.142 166.098 327.164 165.207 327.182 164.317C327.195 163.821 327.208 163.326 327.222 162.815C327.106 161.301 326.751 160.41 325.975 159.116C327.998 159.445 329.576 160.01 331.406 160.908C335.011 162.339 337.609 161.622 341.309 160.803C343.352 160.42 345.4 160.066 347.449 159.714C348.01 159.617 348.571 159.521 349.149 159.421C380.363 154.119 380.363 154.119 390.84 160.078C393.552 162.021 396.013 163.844 396.876 167.139C396.974 169.504 396.548 171.439 395.827 173.664C395.698 174.077 395.569 174.489 395.436 174.914C391.368 187.552 385.146 200.365 374.247 208.594C373.685 208.873 373.685 208.873 373.111 209.156C373.357 209.421 373.603 209.686 373.856 209.958C374.173 210.308 374.489 210.658 374.815 211.019C375.131 211.365 375.447 211.71 375.773 212.067C376.519 213.092 376.519 213.092 376.519 214.779C374.606 213.996 373.687 213.104 372.543 211.405C370.05 211.752 368.159 212.673 365.941 213.83C357.475 218.152 357.475 218.152 353.802 218.152C362.772 236.222 372.244 254.554 384.857 270.459C385.849 271.718 386.769 272.978 387.684 274.289C390.293 278.085 390.293 278.085 394.161 280.325C396.22 280.543 398.166 280.414 400.215 280.167C400.829 280.112 401.442 280.057 402.074 280C403.775 281.684 404.507 283.85 404.914 286.185C404.726 286.556 404.539 286.927 404.346 287.309C404.232 289.408 404.165 291.507 404.104 293.608C403.719 296.124 403.358 297.33 401.506 299.116C397.772 299.883 394.03 298.822 390.432 297.851C380.11 295.248 369.502 293.961 358.914 292.932C359.051 294.016 359.051 294.016 359.192 295.122C359.501 297.897 359.573 300.637 359.577 303.428C359.579 303.936 359.582 304.445 359.584 304.97C359.59 306.615 359.59 308.259 359.588 309.904C359.588 310.468 359.587 311.031 359.587 311.611C359.504 361.57 359.504 361.57 344.911 376.562C339.752 381.483 339.752 381.483 336.765 383.454C336.52 384.63 336.52 384.63 336.579 385.984C336.583 386.732 336.583 386.732 336.588 387.495C336.6 388.017 336.611 388.538 336.623 389.076C336.628 389.859 336.628 389.859 336.632 390.657C336.569 393.329 336.569 393.329 337.333 395.823C338.553 396.125 339.787 396.374 341.025 396.596C348.114 398.027 353.453 400.737 357.705 406.655C358.892 408.461 359.021 409.661 359.056 411.812C359.077 412.628 359.077 412.628 359.1 413.461C358.914 414.94 358.914 414.94 358.19 415.967C356.509 417.097 354.605 416.854 352.667 416.626C350.963 416.064 350.963 416.064 349.827 415.502C349.64 416.058 349.452 416.615 349.259 417.189C346.821 416.974 344.853 416.489 342.586 415.572C337.968 413.843 333.115 413.331 328.247 412.691C327.832 412.634 327.417 412.577 326.99 412.519C323.014 411.983 319.068 411.56 315.057 411.433C309.672 411.25 304.342 410.682 299.003 409.979C298.132 409.867 297.26 409.76 296.387 409.659C288.491 408.735 288.491 408.735 286.251 406.229C285.405 404.994 285.002 404.007 284.519 402.57C282.968 402.65 281.419 402.732 279.869 402.816C279.432 402.838 278.995 402.86 278.546 402.883C276.322 403.006 274.199 403.181 272.025 403.695C272.025 403.323 272.025 402.952 272.025 402.57C271.427 402.379 271.427 402.379 270.818 402.184C263.295 398.783 259.322 389.999 256.123 382.891C255.943 382.493 255.763 382.094 255.577 381.683C247.757 364.03 249.207 346.28 252.716 327.791C252.816 327.261 252.916 326.732 253.019 326.186C254.298 319.541 255.962 312.973 257.576 306.401C258.166 303.998 258.739 301.592 259.298 299.182C260.534 293.865 261.992 288.619 263.506 283.373C263.674 282.79 263.842 282.207 264.015 281.606C265.404 276.779 266.812 271.958 268.227 267.138C268.451 266.375 268.675 265.612 268.898 264.848C269.93 261.33 270.965 257.813 272.005 254.297C273.692 248.594 275.358 242.887 276.949 237.157C277.537 235.044 278.138 232.935 278.742 230.827C278.922 230.195 279.103 229.564 279.289 228.913C279.644 227.668 280.002 226.424 280.36 225.181C280.523 224.61 280.686 224.038 280.854 223.45C281.072 222.69 281.072 222.69 281.295 221.914C281.706 220.294 281.991 218.678 282.247 217.028C281.842 216.963 281.436 216.897 281.019 216.83C278.064 216.162 275.417 214.708 272.699 213.408C272.064 213.105 271.429 212.801 270.774 212.489C262.219 208.337 254.308 203.576 247.605 196.787C258.422 188.865 270.553 184.237 283.383 180.482C281.134 180.482 278.885 180.482 276.568 180.482C276.38 178.626 276.193 176.771 276 174.859C278.436 174.859 280.873 174.859 283.383 174.859C283.102 173.746 283.102 173.746 282.815 172.61C281.401 171.881 281.401 171.881 279.975 171.486C279.975 171.857 279.975 172.228 279.975 172.61C278.289 172.425 276.602 172.239 274.864 172.048C274.722 168.885 274.722 168.885 276 166.988C276.562 166.988 277.124 166.988 277.704 166.988C278.079 168.101 278.453 169.214 278.839 170.361C279.214 170.176 279.589 169.99 279.975 169.799C280.117 168.441 280.117 168.441 279.975 166.988C279.413 166.617 278.851 166.246 278.272 165.863C278.414 164.528 278.414 164.528 278.839 163.052C279.816 162.332 279.816 162.332 281.111 161.928C282.575 162.31 282.575 162.31 284.093 162.982C284.599 163.201 285.106 163.42 285.628 163.645C286.011 163.82 286.395 163.996 286.79 164.177C286.633 163.085 286.633 163.085 286.222 161.928C285.66 161.556 285.098 161.185 284.519 160.803C284.706 160.246 284.893 159.69 285.086 159.116C286.539 158.536 287.919 158.069 289.417 157.64C289.814 157.519 290.212 157.397 290.621 157.271C295.078 155.945 299.374 155.641 304.005 155.637Z" fill="#DBA77E"/>
<path d="M318.593 86.5864C320.148 88.5489 321.295 90.6103 322.464 92.8129C323.055 93.9795 323.055 93.9795 324.272 94.4579C324.436 94.0057 324.6 93.5534 324.769 93.0874C325.407 91.6467 325.407 91.6467 326.543 91.0844C326.168 92.3832 325.794 93.682 325.407 95.0202C326.157 94.4635 326.907 93.9069 327.679 93.3334C328.241 93.6117 328.241 93.6117 328.815 93.8957C328.44 94.4523 328.065 95.0089 327.679 95.5824C328.056 95.6055 328.433 95.6285 328.822 95.6523C332.775 95.9439 336.457 96.6327 340.279 97.6557C340.848 97.8062 341.416 97.9567 342.002 98.1117C364.286 104.151 379.13 116.362 390.716 136.064C392.164 135.825 393.387 135.587 394.7 134.924C396.893 133.86 399.144 133.916 401.506 134.378C404.351 136.038 406.201 137.983 407.185 141.125C407.701 145.094 407.39 148.564 404.914 151.807C402.539 154.335 401.018 155.615 397.531 156.305C397.531 159.46 397.531 162.614 397.531 165.864C397.156 166.049 396.781 166.235 396.395 166.426C396.154 166.127 395.913 165.829 395.665 165.521C391.093 160.068 385.847 158.238 378.79 157.43C368.194 156.79 357.852 158.487 347.449 160.276C346.899 160.37 346.349 160.464 345.782 160.561C343.575 160.944 341.395 161.345 339.215 161.858C334.688 162.884 331.747 161.807 327.679 159.679C327.492 159.864 327.304 160.05 327.111 160.241C327.299 160.612 327.486 160.983 327.679 161.366C327.944 165.502 327.944 165.502 326.98 166.817C325.447 167.936 323.884 168.007 322.033 168.268C320.755 168.568 320.755 168.568 320.223 169.825C320.06 170.187 319.897 170.55 319.728 170.924C317.93 170.99 316.132 171.029 314.333 171.064C313.83 171.083 313.326 171.102 312.807 171.121C309.176 171.174 306.954 170.512 303.827 168.675C303.827 167.933 303.827 167.19 303.827 166.426C303.405 166.379 302.984 166.333 302.549 166.285C300.604 165.76 299.884 165.242 298.716 163.615C298.364 161.219 298.436 160.104 299.781 158.062C301.511 156.35 301.511 156.35 303.153 156.231C306.435 156.242 309.654 156.49 312.914 156.868C310.092 156.134 307.289 156.223 304.395 156.235C303.591 156.232 303.591 156.232 302.77 156.228C299.906 156.232 297.218 156.411 294.386 156.868C289.679 157.271 285.81 155.009 281.646 153.106C278.712 151.813 275.718 150.665 272.727 149.51C271.693 149.111 270.662 148.708 269.63 148.305C262.306 145.46 255.77 143.297 247.853 143.198C247.404 143.188 246.955 143.178 246.492 143.168C241.956 143.173 238.048 144.178 234.543 147.134C232.3 148.996 232.3 148.996 231.704 148.996C231.327 144.991 232.695 141.513 233.975 137.751C233.544 137.696 233.113 137.641 232.669 137.584C230.206 136.949 229.157 135.244 227.728 133.253C226.065 130.408 226.216 127.174 226.877 124.029C227.721 121.179 228.78 119.444 231.136 117.51C231.464 117.174 231.792 116.838 232.13 116.491C234.217 115.4 236.215 115.479 238.519 115.823C241.041 116.719 243.275 118.061 245.333 119.759C245.522 119.3 245.522 119.3 245.715 118.832C250.643 110.193 261.54 104.555 270.321 100.643C270.907 100.377 271.494 100.112 272.098 99.8388C277.875 97.4375 284.065 96.196 290.198 95.0202C290.748 94.9118 291.299 94.8035 291.866 94.6918C297.249 93.7431 302.535 93.7667 307.98 93.8254C308.904 93.831 309.828 93.8362 310.752 93.8408C312.987 93.853 315.222 93.8723 317.457 93.8957C317.439 92.9814 317.439 92.9814 317.421 92.0486C317.457 89.972 317.835 88.5073 318.593 86.5864Z" fill="#9B5F3F"/>
<path d="M354.37 219.277C355.094 220.28 355.094 220.28 355.719 221.603C355.958 222.095 356.198 222.588 356.444 223.095C356.823 223.901 356.823 223.901 357.21 224.724C357.765 225.862 358.322 226.999 358.88 228.135C359.167 228.719 359.453 229.303 359.748 229.905C366.781 243.993 375.038 258.077 384.857 270.459C385.849 271.718 386.769 272.978 387.684 274.29C390.293 278.085 390.293 278.085 394.161 280.325C396.22 280.543 398.166 280.414 400.215 280.167C400.829 280.112 401.442 280.057 402.074 280C403.775 281.684 404.507 283.85 404.914 286.185C404.726 286.556 404.539 286.927 404.346 287.309C404.232 289.408 404.165 291.507 404.104 293.608C403.719 296.124 403.358 297.33 401.506 299.116C397.772 299.883 394.03 298.822 390.432 297.851C380.11 295.248 369.502 293.961 358.914 292.932C359.051 294.016 359.051 294.016 359.192 295.122C359.501 297.897 359.573 300.637 359.577 303.428C359.579 303.937 359.582 304.445 359.584 304.97C359.59 306.615 359.59 308.26 359.588 309.904C359.588 310.468 359.587 311.031 359.587 311.612C359.504 361.57 359.504 361.57 344.911 376.562C339.752 381.483 339.752 381.483 336.765 383.454C336.52 384.63 336.52 384.63 336.579 385.984C336.583 386.732 336.583 386.732 336.588 387.495C336.6 388.017 336.611 388.539 336.623 389.076C336.628 389.859 336.628 389.859 336.632 390.658C336.569 393.329 336.569 393.329 337.333 395.823C338.553 396.125 339.787 396.374 341.025 396.596C348.114 398.027 353.453 400.737 357.705 406.655C358.892 408.461 359.021 409.661 359.056 411.812C359.077 412.629 359.077 412.629 359.1 413.462C358.914 414.94 358.914 414.94 358.19 415.968C356.509 417.097 354.605 416.854 352.667 416.626C350.963 416.064 350.963 416.064 349.827 415.502C349.64 416.059 349.452 416.615 349.259 417.189C346.821 416.974 344.853 416.49 342.586 415.572C337.968 413.844 333.115 413.331 328.247 412.691C327.832 412.634 327.417 412.578 326.99 412.519C323.014 411.983 319.068 411.56 315.057 411.433C309.672 411.25 304.342 410.682 299.003 409.979C298.132 409.867 297.26 409.76 296.387 409.659C288.493 408.735 288.493 408.735 286.251 406.264C285.296 404.897 284.861 403.63 284.518 402.008C284.878 401.937 285.237 401.867 285.607 401.794C302.626 398.435 318.276 395.139 328.824 380.201C340.271 361.839 342.74 339.921 344.333 318.812C344.365 318.391 344.396 317.97 344.429 317.535C344.494 316.675 344.559 315.815 344.623 314.955C344.707 313.858 344.794 312.761 344.881 311.665C346.232 294.299 345.987 276.886 345.934 259.482C345.921 255.209 345.915 250.937 345.909 246.664C345.897 237.91 345.877 229.156 345.852 220.401C346.844 220.102 347.838 219.811 348.833 219.523C349.387 219.36 349.94 219.197 350.51 219.029C352.089 218.717 352.895 218.682 354.37 219.277Z" fill="#9B5F3F"/>
<path d="M90.8641 48.9158C92.3472 52.9275 93.8283 56.94 95.3068 60.9534C95.9934 62.8168 96.6807 64.68 97.3695 66.5426C98.1609 68.6827 98.9493 70.8239 99.7376 72.9651C99.986 73.6357 100.234 74.3063 100.49 74.9973C100.832 75.9258 100.832 75.9258 101.18 76.8731C101.381 77.42 101.583 77.9668 101.791 78.5303C102.222 79.8395 102.222 79.8395 102.222 80.964C115.218 76.2207 128.183 71.3955 141.144 66.5597C142.466 66.0666 143.788 65.5735 145.11 65.0805C147.234 64.288 149.359 63.4952 151.483 62.7021C152.273 62.4074 153.062 62.1127 153.852 61.8181C154.596 61.5403 155.341 61.2623 156.085 60.9842C157.14 60.5903 158.195 60.1975 159.25 59.8048C160.624 59.2855 161.994 58.7541 163.359 58.2117C164.011 57.9536 164.663 57.6956 165.335 57.4297C165.91 57.1978 166.484 56.9659 167.076 56.7269C168.658 56.2279 169.86 56.1227 171.506 56.225C172.334 58.4123 173.153 60.6029 173.964 62.7967C174.24 63.542 174.52 64.2864 174.802 65.0298C175.207 66.1008 175.604 67.1747 175.998 68.2497C176.36 69.2169 176.36 69.2169 176.728 70.2037C177.461 73.0337 177.461 73.0337 176.617 74.7792C175.178 75.5509 173.923 76.082 172.391 76.6021C171.95 76.7623 171.509 76.9225 171.054 77.0875C169.587 77.6172 168.116 78.1307 166.643 78.6447C165.611 79.0146 164.579 79.3858 163.548 79.7581C161.401 80.532 159.253 81.3006 157.103 82.0657C152.674 83.6464 148.273 85.2955 143.869 86.9428C132.473 91.2015 121.04 95.3636 109.605 99.5182C109.969 102.135 110.663 104.546 111.539 107.032C111.745 107.623 111.745 107.623 111.954 108.227C112.399 109.507 112.848 110.785 113.296 112.063C113.603 112.946 113.91 113.829 114.217 114.712C115.641 118.799 117.09 122.876 118.596 126.934C118.835 127.58 119.075 128.226 119.321 128.892C119.768 130.089 120.22 131.285 120.677 132.479C120.973 133.271 120.973 133.271 121.276 134.079C121.449 134.534 121.623 134.989 121.802 135.457C122.099 136.627 122.099 136.627 121.531 138.313C120.313 138.97 120.313 138.97 118.798 139.543C118.302 139.737 117.807 139.93 117.296 140.13C115.852 140.562 115.852 140.562 113.58 140.562C111.057 134.014 108.669 127.423 106.339 120.805C105.767 119.183 105.191 117.561 104.616 115.94C104.247 114.894 103.878 113.848 103.509 112.801C103.254 112.085 103.254 112.085 102.994 111.355C102.013 108.558 101.2 105.775 100.518 102.892C99.8679 103.132 99.2174 103.372 98.5472 103.619C87.5812 107.666 76.6152 111.712 65.6226 115.688C58.0721 118.423 50.5396 121.206 43.0063 123.987C38.1425 125.782 33.279 127.577 28.395 129.317C26.7989 125.542 25.3605 121.711 23.9583 117.862C23.773 117.367 23.5878 116.872 23.3969 116.362C23.2271 115.89 23.0573 115.418 22.8824 114.932C22.7273 114.508 22.5723 114.085 22.4125 113.648C22.0931 112.2 22.1185 111.564 22.716 110.201C24.0645 109.457 24.0645 109.457 25.8858 108.798C26.5695 108.546 27.2532 108.293 27.9577 108.033C28.7172 107.763 29.4767 107.493 30.2362 107.223C31.0228 106.936 31.809 106.648 32.5949 106.36C34.7059 105.588 36.8208 104.827 38.9365 104.067C41.1212 103.281 43.3022 102.484 45.4833 101.689C48.9592 100.422 52.4369 99.1598 55.916 97.9017C61.7468 95.7926 67.5651 93.6507 73.381 91.5017C74.8475 90.9603 76.3147 90.4205 77.7822 89.8814C78.6748 89.5533 79.5674 89.2251 80.46 88.8969C80.8715 88.7458 81.2829 88.5946 81.7068 88.4388C84.8866 87.267 88.0485 86.0539 91.2038 84.819C92.5678 84.3375 92.5678 84.3375 93.7036 84.3375C93.5412 83.903 93.3787 83.4686 93.2113 83.0211C90.2545 75.1045 87.3192 67.1815 84.5107 59.212C84.2915 58.5953 84.0723 57.9786 83.8465 57.3432C83.6477 56.7749 83.4489 56.2066 83.2441 55.621C83.0697 55.1248 82.8953 54.6285 82.7157 54.1173C82.3456 52.8515 82.3456 52.8515 82.3456 51.1648C83.3377 50.7854 84.332 50.4117 85.3271 50.0403C85.8805 49.8315 86.434 49.6228 87.0042 49.4077C88.5925 48.9158 88.5925 48.9158 90.8641 48.9158Z" fill="#E12B2A"/>
<path d="M162.859 10.8958C164.778 11.4256 165.745 12.5488 166.963 14.0562C167.244 14.3346 167.244 14.3346 167.531 14.6185C167.736 18.8121 167.736 18.8121 166.395 20.8032C166.589 24.0572 167.632 26.983 168.707 30.0342C168.884 30.548 169.062 31.0619 169.245 31.5912C169.83 33.2792 170.42 34.9654 171.009 36.6516C171.42 37.8344 171.831 39.0174 172.241 40.2004C173.088 42.6448 173.938 45.0886 174.788 47.532C175.984 50.9713 177.168 54.4143 178.348 57.859C181.586 67.3111 184.845 76.7507 188.267 86.1394C190.14 91.2968 191.898 96.488 193.635 101.691C195.538 107.387 197.488 113.066 199.451 118.741C199.968 120.239 200.484 121.737 200.999 123.235C202.456 127.47 203.919 131.702 205.434 135.917C205.765 136.855 205.765 136.855 206.103 137.812C206.497 138.924 206.898 140.033 207.309 141.139C208.119 143.455 208.513 144.65 207.958 147.092C207.736 147.535 207.513 147.977 207.284 148.434C204.168 148.091 204.168 148.091 202.987 147.201C201.931 145.883 201.504 144.623 200.964 143.027C200.742 142.379 200.52 141.732 200.292 141.065C200.057 140.366 199.823 139.666 199.582 138.946C199.335 138.221 199.088 137.497 198.84 136.773C198.321 135.256 197.805 133.738 197.29 132.22C196.116 128.761 194.914 125.311 193.712 121.862C193.339 120.79 192.967 119.717 192.596 118.645C192.371 117.996 192.145 117.346 191.913 116.678C191.714 116.104 191.515 115.531 191.31 114.94C190.852 113.593 190.852 113.593 190.247 112.45C188.95 112.028 187.685 111.675 186.363 111.352C185.763 111.199 185.763 111.199 185.15 111.044C183.833 110.711 182.515 110.386 181.196 110.06C180.279 109.831 179.362 109.601 178.445 109.371C172.751 107.948 167.042 106.605 161.315 105.32C156.176 104.161 151.054 102.94 145.937 101.689C145.004 101.461 144.071 101.235 143.138 101.01C141.832 100.695 140.528 100.375 139.225 100.054C138.83 99.9598 138.436 99.8657 138.029 99.7686C135.29 99.0844 135.29 99.0844 134.025 97.8313C135.074 97.3539 136.128 96.8875 137.184 96.4257C137.77 96.1648 138.356 95.9039 138.961 95.6351C143.561 94.1294 147.792 95.6279 152.337 96.7859C153.074 96.97 153.81 97.1537 154.547 97.337C156.483 97.8201 158.419 98.3087 160.354 98.7986C162.292 99.2884 164.232 99.7731 166.172 100.258C169.118 100.996 172.064 101.735 175.009 102.478C179.328 103.566 183.65 104.639 187.975 105.703C187.413 103.198 187.413 103.198 186.839 100.643C186.279 100.526 185.719 100.409 185.142 100.289C179.04 98.9926 173.007 97.482 166.972 95.9104C161.695 94.5441 156.399 93.3209 151.062 92.2089C151.062 91.8378 151.062 91.4667 151.062 91.0844C151.363 90.9775 151.664 90.8707 151.974 90.7607C159.224 88.1837 166.432 85.5178 173.603 82.7355C174.203 82.5045 174.802 82.2736 175.419 82.0357C175.952 81.8287 176.486 81.6218 177.035 81.4086C178.321 80.9639 178.321 80.9639 179.457 80.9639C179.201 80.049 178.94 79.1356 178.676 78.2229C178.531 77.7141 178.386 77.2053 178.237 76.6811C177.832 75.2595 177.832 75.2595 176.617 74.2169C176.409 73.0958 176.222 71.9705 176.049 70.8434C175.723 69.7557 175.372 68.6749 175 67.6017C174.797 67.0088 174.594 66.4159 174.384 65.8051C174.067 64.8897 174.067 64.8897 173.742 63.9558C173.32 62.7352 172.899 61.5141 172.48 60.2924C172.293 59.7545 172.107 59.2165 171.914 58.6622C171.506 57.3494 171.506 57.3494 171.506 56.2249C171.131 56.0394 170.757 55.8538 170.37 55.6627C169.862 54.1943 169.574 52.6787 169.235 51.1647C162.984 52.9374 156.951 55.1888 150.884 57.49C149.906 57.8592 148.927 58.2281 147.948 58.5969C145.578 59.4906 143.208 60.3871 140.839 61.2852C140.839 59.3909 141.079 59.0655 142.175 57.5954C142.613 57.0011 142.613 57.0011 143.06 56.3947C143.382 55.9676 143.703 55.5405 144.034 55.1004C144.364 54.6541 144.695 54.2078 145.035 53.7479C146.436 51.8578 147.849 49.9758 149.261 48.0934C151.264 45.4229 153.261 42.7484 155.24 40.0603C155.852 39.2309 156.466 38.4035 157.083 37.5785C157.917 36.4583 158.733 35.3276 159.545 34.1918C159.79 33.8684 160.035 33.545 160.287 33.2118C161.592 31.3423 161.983 30.08 161.712 27.8731C161.571 27.2099 161.43 26.5467 161.284 25.8635C158.947 28.0307 157.162 30.3515 155.356 32.9619C152.844 36.5416 150.279 40.0742 147.654 43.5743C145.071 47.0263 142.523 50.4995 140.023 54.0111C139.74 54.4058 139.457 54.8006 139.165 55.2073C137.982 56.863 136.838 58.5159 135.757 60.2397C133.485 63.826 131.352 65.2396 127.21 66.3454C128.138 63.3829 130.029 61.1562 131.895 58.7199C134.765 54.9211 137.573 51.09 140.307 47.1938C145.324 40.0556 150.421 32.977 155.771 26.0787C156.617 24.91 157.278 23.7959 157.877 22.49C157.525 22.3392 157.174 22.1885 156.812 22.0331C155.605 21.3655 155.605 21.3655 154.469 19.6787C154.159 17.9552 154.163 16.3427 154.469 14.6185C156.972 11.4706 158.939 10.3838 162.859 10.8958Z" fill="#D5A17E"/>
<path d="M393.112 161.809C396.214 164.61 396.214 164.61 396.876 167.14C396.974 169.505 396.548 171.439 395.827 173.665C395.698 174.077 395.569 174.489 395.436 174.914C392.453 184.182 388.472 193.147 382.198 200.723C381.635 200.271 381.073 199.818 380.494 199.352C372.107 193.172 362.288 189.346 352.525 185.858C352.139 185.72 351.754 185.581 351.357 185.437C348.94 184.601 346.677 184.138 344.148 183.855C344.148 184.783 344.148 185.711 344.148 186.667C343.305 186.945 343.305 186.945 342.444 187.229C342.632 185.93 342.819 184.631 343.012 183.293C340.763 183.015 340.763 183.015 338.469 182.731C338.469 182.174 338.469 181.618 338.469 181.044C339.451 181.124 340.433 181.207 341.415 181.29C341.962 181.336 342.509 181.382 343.072 181.429C344.578 181.592 346.07 181.875 347.556 182.169C347.556 179.942 347.556 177.716 347.556 175.422C346.244 175.422 344.932 175.422 343.58 175.422C343.58 176.906 343.58 178.39 343.58 179.92C343.205 179.92 342.831 179.92 342.444 179.92C342.444 178.435 342.444 176.951 342.444 175.422C341.32 175.422 340.196 175.422 339.037 175.422C339.037 175.051 339.037 174.68 339.037 174.297C341.488 173.869 343.435 173.645 345.852 174.297C345.477 172.813 345.102 171.329 344.716 169.799C344.013 169.985 343.31 170.17 342.586 170.361C340.885 170.811 339.718 170.924 337.901 170.924C337.714 170.182 337.526 169.439 337.333 168.675C339.037 167.55 339.037 167.55 341.309 167.55C339.681 165.258 338.225 164.162 335.63 163.052C335.817 162.681 336.004 162.31 336.198 161.928C337.588 161.613 338.943 161.368 340.35 161.155C341.236 161.012 342.122 160.868 343.008 160.722C343.474 160.645 343.94 160.569 344.42 160.49C346.314 160.161 348.192 159.77 350.073 159.377C362.882 156.715 382.024 152.958 393.112 161.809Z" fill="#DBA680"/>
<path d="M304.005 155.638C304.76 155.627 304.76 155.627 305.53 155.617C309.062 155.609 312.318 156.059 315.753 156.868C315.753 157.053 315.753 157.239 315.753 157.43C312.817 157.481 310.116 157.453 307.235 156.868C304.481 156.556 302.736 156.459 300.384 158.027C299.016 160.081 298.922 161.199 299.284 163.615C300.202 165.001 300.896 165.269 302.478 165.828C302.924 166.026 303.369 166.223 303.827 166.426C303.933 166.965 303.933 166.965 304.04 167.515C304.307 168.873 304.307 168.873 306.034 169.566C308.73 170.642 311.423 170.676 314.298 170.748C315.084 170.777 315.084 170.777 315.885 170.806C317.166 170.852 318.447 170.891 319.728 170.924C319.85 170.475 319.971 170.027 320.097 169.564C320.864 168.113 320.864 168.113 322.342 167.592C322.908 167.52 323.475 167.449 324.059 167.375C324.628 167.296 325.198 167.217 325.785 167.135C326.222 167.087 326.66 167.038 327.111 166.988C327.142 166.098 327.164 165.208 327.182 164.317C327.195 163.822 327.208 163.326 327.222 162.815C327.106 161.302 326.751 160.41 325.975 159.117C331.521 160.011 337.447 162.323 341.309 166.426C341.309 166.797 341.309 167.168 341.309 167.55C340.184 167.921 339.06 168.292 337.901 168.675C337.901 169.417 337.901 170.159 337.901 170.924C338.797 170.645 338.797 170.645 339.711 170.362C342.878 169.539 342.878 169.539 344.716 169.799C345.852 171.486 345.852 171.486 345.852 174.297C343.603 174.297 341.354 174.297 339.037 174.297C339.037 174.668 339.037 175.039 339.037 175.422C340.162 175.422 341.286 175.422 342.444 175.422C342.444 176.906 342.444 178.39 342.444 179.92C342.819 179.92 343.194 179.92 343.58 179.92C343.58 178.435 343.58 176.951 343.58 175.422C344.892 175.422 346.204 175.422 347.556 175.422C347.556 177.648 347.556 179.875 347.556 182.169C344.557 181.983 341.559 181.798 338.469 181.607C340.129 182.428 341.266 182.923 343.012 183.293C342.825 184.592 342.638 185.891 342.444 187.229C342.819 187.043 343.194 186.858 343.58 186.667C343.953 185.246 343.953 185.246 344.148 183.856C344.71 183.856 345.273 183.856 345.852 183.856C345.578 186.907 345.578 186.907 344.29 188.318C342.626 189.097 341.911 188.899 340.173 188.354C339.219 187.997 338.27 187.627 337.333 187.229C337.333 187.6 337.333 187.971 337.333 188.354C338.732 189.278 338.732 189.278 340.173 190.04C336.991 192.141 333.814 193.313 329.951 192.852C325.93 191.781 323.1 189.807 319.95 187.174C316.175 184.2 312.061 182.772 307.235 183.293C305.232 183.81 303.314 184.503 301.378 185.226C300.871 185.409 300.364 185.592 299.842 185.781C298.907 186.118 297.973 186.459 297.041 186.804C293.521 188.089 289.661 188.521 286.02 187.367C284.898 186.819 283.863 186.22 282.815 185.542C282.474 185.341 282.133 185.139 281.781 184.932C280.827 184.347 280.827 184.347 279.407 183.293C279.407 182.922 279.407 182.551 279.407 182.169C280.719 181.612 282.031 181.056 283.383 180.482C281.134 180.482 278.885 180.482 276.568 180.482C276.381 178.627 276.193 176.771 276 174.86C278.436 174.86 280.873 174.86 283.383 174.86C283.195 174.117 283.008 173.375 282.815 172.611C281.401 171.882 281.401 171.882 279.975 171.486C279.975 171.857 279.975 172.228 279.975 172.611C278.289 172.425 276.602 172.239 274.864 172.048C274.722 168.886 274.722 168.886 276 166.988C276.562 166.988 277.124 166.988 277.704 166.988C278.079 168.101 278.453 169.215 278.84 170.362C279.214 170.176 279.589 169.99 279.975 169.799C280.118 168.441 280.118 168.441 279.975 166.988C279.413 166.617 278.851 166.246 278.272 165.864C278.414 164.528 278.414 164.528 278.84 163.052C279.816 162.332 279.816 162.332 281.111 161.928C282.575 162.31 282.575 162.31 284.093 162.982C284.599 163.201 285.106 163.42 285.628 163.645C286.011 163.821 286.395 163.996 286.79 164.177C286.633 163.086 286.633 163.086 286.222 161.928C285.66 161.557 285.098 161.186 284.519 160.803C284.706 160.247 284.893 159.69 285.086 159.117C286.539 158.537 287.919 158.069 289.417 157.641C289.814 157.519 290.212 157.397 290.621 157.272C295.078 155.945 299.374 155.641 304.005 155.638Z" fill="#F6F4F5"/>
<path d="M344.716 220.964C344.903 220.964 345.091 220.964 345.284 220.964C347.111 259.143 348.53 298.285 343.012 336.225C342.884 337.14 342.884 337.14 342.753 338.074C339.896 358.286 335.105 378.52 318.089 391.771C306.745 399.733 290.332 402.838 276.568 402.57C276.568 402.385 276.568 402.199 276.568 402.008C279.313 401.187 282.006 400.591 284.838 400.11C299.273 397.508 313.099 391.914 321.891 379.757C328.221 370.245 331.153 358.523 333.358 347.47C333.564 346.437 333.564 346.437 333.775 345.383C334.992 339.039 335.776 332.642 336.543 326.231C336.702 324.938 336.867 323.646 337.038 322.354C337.786 316.656 338.323 310.957 338.789 305.231C338.896 303.922 339.003 302.614 339.113 301.305C339.18 300.502 339.246 299.698 339.31 298.895C339.493 296.695 339.796 294.544 340.173 292.369C340.272 290.881 340.355 289.397 340.421 287.907C340.611 284.033 340.913 280.18 341.273 276.319C341.912 269.249 342.355 262.172 342.764 255.085C342.838 253.818 342.913 252.551 342.988 251.284C343.397 244.262 343.779 237.241 343.983 230.21C344.077 227.098 344.33 224.054 344.716 220.964Z" fill="#E2B68E"/>
<path d="M247.711 142.636C248.19 142.639 248.669 142.642 249.162 142.645C253.026 142.719 256.423 143.294 260.099 144.498C260.807 144.711 261.516 144.924 262.246 145.144C272.397 148.271 282.265 152.445 291.901 156.868C289.677 157.985 287.428 158.829 285.086 159.679C285.086 160.05 285.086 160.421 285.086 160.803C285.93 161.36 285.93 161.36 286.79 161.928C286.79 162.67 286.79 163.412 286.79 164.177C284.408 163.84 282.241 163.291 279.975 162.49C278.867 163.588 278.358 164.476 277.704 165.863C277.516 165.678 277.329 165.492 277.136 165.301C271.549 164.578 265.867 164.604 260.241 164.598C259.603 164.597 259.603 164.597 258.953 164.596C251.082 164.599 243.784 165.201 236.291 167.803C234.916 168.164 233.688 168.164 232.272 168.112C232.272 168.669 232.272 169.226 232.272 169.799C231.897 169.614 231.522 169.428 231.136 169.237C231.136 162.372 231.136 155.507 231.136 148.434C231.885 148.063 232.635 147.692 233.407 147.309C234.65 146.473 235.872 145.612 237.092 144.744C240.49 142.819 243.899 142.609 247.711 142.636Z" fill="#DBA781"/>
<path d="M93.1358 112.45C93.8854 112.45 94.6351 112.45 95.4074 112.45C95.5258 112.782 95.6443 113.113 95.7663 113.455C97.0001 116.912 98.2347 120.369 99.4698 123.826C99.9305 125.115 100.391 126.405 100.851 127.695C101.513 129.55 102.176 131.405 102.839 133.26C103.147 134.123 103.147 134.123 103.461 135.004C103.654 135.545 103.847 136.085 104.047 136.641C104.216 137.114 104.385 137.587 104.559 138.075C104.911 139.03 105.292 139.976 105.693 140.913C106.198 142.249 106.198 142.249 106.198 143.936C95.373 148.027 84.5232 152.049 73.6579 156.033C72.6473 156.404 71.6367 156.775 70.6261 157.146C70.1734 157.312 69.7208 157.477 69.2544 157.648C68.8186 157.808 68.3827 157.968 67.9337 158.133C67.5082 158.289 67.0828 158.446 66.6445 158.606C65.6815 158.974 64.7257 159.361 63.7752 159.759C63.2697 159.97 62.7641 160.181 62.2433 160.399C61.7839 160.597 61.3246 160.794 60.8513 160.998C59.6296 161.365 59.6296 161.365 57.9259 160.803C61.3987 155.909 64.8872 151.028 68.4321 146.185C70.8212 142.92 73.1889 139.643 75.5309 136.345C78.2012 132.586 80.906 128.853 83.6297 125.131C85.0972 123.125 86.5605 121.117 88.0092 119.098C88.2704 118.734 88.5317 118.37 88.8008 117.995C89.287 117.316 89.7724 116.637 90.2566 115.957C91.1588 114.698 92.0309 113.544 93.1358 112.45Z" fill="#474E86"/>
<path d="M260.667 165.126C261.391 165.117 262.116 165.107 262.863 165.098C267.486 165.096 271.579 165.642 276 166.988C275.625 168.658 275.25 170.328 274.864 172.048C276.551 172.234 278.238 172.419 279.975 172.611C279.975 172.239 279.975 171.868 279.975 171.486C280.912 171.672 281.849 171.857 282.815 172.048C283.096 173.44 283.096 173.44 283.383 174.86C281.598 175.743 279.659 175.552 277.704 175.422C276.86 175.143 276.86 175.143 276 174.86C276.281 177.643 276.281 177.643 276.568 180.482C277.411 180.76 277.411 180.76 278.272 181.044C277.598 181.242 276.925 181.44 276.231 181.644C260.884 186.129 260.884 186.129 247.837 194.898C247.037 195.663 247.037 195.663 245.901 195.663C239.905 189.266 234.543 180.722 232.839 172.048C233.072 170.456 233.072 170.456 233.407 169.237C235.252 168.788 237.098 168.344 238.944 167.902C239.456 167.777 239.968 167.652 240.495 167.524C247.277 165.905 253.678 165.108 260.667 165.126Z" fill="#DBA77F"/>
<path d="M119.259 103.454C123.926 103.681 128.2 104.792 132.68 106.013C135.416 106.755 138.166 107.437 140.919 108.114C144.41 108.973 147.896 109.851 151.381 110.732C151.955 110.878 152.529 111.023 153.121 111.172C154.895 111.621 156.67 112.071 158.444 112.52C160.24 112.975 162.037 113.429 163.833 113.884C164.94 114.164 166.048 114.444 167.155 114.725C170.118 115.475 173.082 116.216 176.049 116.948C175.175 118.679 173.823 118.793 172.014 119.455C171.652 119.588 171.29 119.722 170.917 119.86C169.714 120.303 168.508 120.74 167.302 121.178C166.464 121.486 165.625 121.794 164.786 122.102C162.571 122.917 160.353 123.726 158.135 124.534C155.461 125.51 152.789 126.49 150.117 127.47C148.033 128.235 145.948 128.999 143.862 129.76C143.095 130.04 142.328 130.32 141.561 130.601C141.198 130.733 140.835 130.865 140.462 131.002C137.914 131.936 135.401 132.936 132.906 134C131.753 134.378 131.753 134.378 129.481 134.378C128.021 130.337 126.565 126.294 125.114 122.25C124.62 120.874 124.124 119.499 123.627 118.124C122.913 116.149 122.204 114.172 121.495 112.195C121.272 111.579 121.048 110.964 120.818 110.33C120.613 109.756 120.408 109.182 120.198 108.59C120.016 108.086 119.834 107.582 119.647 107.062C119.259 105.703 119.259 105.703 119.259 103.454Z" fill="#474D86"/>
<path d="M139.704 29.7993C140.266 29.9849 140.828 30.1704 141.407 30.3616C135.87 37.9519 130.333 45.5423 124.796 53.1327C124.491 53.5507 124.187 53.9688 123.872 54.3995C123.261 55.2373 122.649 56.0748 122.037 56.9118C120.435 59.1017 118.846 61.2993 117.274 63.5101C116.947 63.9671 116.619 64.424 116.282 64.8949C115.66 65.7649 115.04 66.6374 114.425 67.5128C112.664 69.965 110.939 71.8843 108.469 73.6547C108.094 73.6547 107.72 73.6547 107.333 73.6547C106.231 70.5554 105.13 67.4554 104.03 64.3548C103.657 63.3023 103.283 62.2499 102.908 61.1977C102.367 59.6767 101.827 58.1552 101.288 56.6335C101.123 56.1706 100.958 55.7077 100.788 55.2307C99.6554 52.0277 98.6388 48.8001 97.679 45.5423C98.1888 45.3534 98.6985 45.1644 99.2237 44.9698C104.021 43.1916 108.817 41.4129 113.614 39.6335C116.08 38.7186 118.546 37.804 121.013 36.8899C123.392 36.0082 125.77 35.1259 128.149 34.2432C129.058 33.9061 129.966 33.5691 130.875 33.2324C132.146 32.7618 133.416 32.2905 134.685 31.8189C135.253 31.609 135.253 31.609 135.832 31.3949C137.149 30.905 138.444 30.423 139.704 29.7993Z" fill="#474F87"/>
<path d="M75.5309 54.5381C76.7374 57.8381 77.94 61.1394 79.1392 64.442C79.5474 65.5646 79.9567 66.6869 80.367 67.8089C80.9576 69.4241 81.5444 71.0406 82.1305 72.6574C82.4056 73.4061 82.4056 73.4061 82.6863 74.1699C83.5649 76.6049 84.3754 78.9323 84.6173 81.526C84.0494 82.0883 84.0494 82.0883 82.2838 82.183C80.029 82.0864 78.1311 81.7074 75.9524 81.1351C75.5628 81.0344 75.1733 80.9338 74.772 80.8301C73.9385 80.6144 73.1054 80.3967 72.2729 80.1772C70.552 79.7248 68.8278 79.2861 67.1035 78.847C65.7557 78.5036 64.4083 78.1586 63.061 77.8132C54.8643 75.7142 46.6713 73.6462 38.3991 71.8561C37.8539 71.7364 37.3088 71.6167 36.7472 71.4934C36.0486 71.3439 36.0486 71.3439 35.3359 71.1914C34.0504 70.8368 32.9848 70.3234 31.8025 69.7188C32.1878 69.5784 32.5732 69.4379 32.9702 69.2933C36.6447 67.9542 40.3191 66.6148 43.9934 65.2752C46.2508 64.4522 48.5082 63.6294 50.7657 62.8067C52.2211 62.2763 53.6763 61.7456 55.1315 61.215C56.1995 60.8257 57.2677 60.4369 58.3359 60.0481C61.2859 58.973 64.2339 57.8949 67.1676 56.7766C67.5926 56.6153 68.0176 56.4539 68.4555 56.2876C69.5179 55.8821 70.5784 55.4718 71.6387 55.0611C73.2593 54.5381 73.2593 54.5381 75.5309 54.5381Z" fill="#484F87"/>
<path d="M339.037 97.8313C352.911 100.047 365.256 106.248 375.383 115.823C375.692 116.115 376.001 116.407 376.319 116.707C378.697 118.998 380.761 121.405 382.73 124.046C383.02 124.432 383.311 124.818 383.61 125.216C386.202 128.705 388.515 132.322 390.716 136.064C392.164 135.825 393.387 135.587 394.7 134.924C396.893 133.86 399.144 133.915 401.506 134.377C404.351 136.038 406.201 137.983 407.185 141.124C407.701 145.094 407.39 148.564 404.914 151.807C402.539 154.335 401.018 155.615 397.531 156.305C397.531 159.459 397.531 162.614 397.531 165.863C396.969 166.142 396.969 166.142 396.395 166.426C396.128 166.121 395.861 165.815 395.585 165.501C395.232 165.099 394.878 164.697 394.514 164.282C394.165 163.884 393.816 163.486 393.456 163.076C392.571 162.096 391.666 161.159 390.716 160.241C391.278 160.241 391.841 160.241 392.42 160.241C386.824 139.189 377.751 117.702 357.933 106.177C357.32 105.835 356.706 105.493 356.074 105.141C355.531 104.833 354.988 104.526 354.428 104.209C350.663 102.208 346.857 100.954 342.741 99.8822C341.687 99.6029 340.645 99.2827 339.605 98.9558C339.418 98.5847 339.23 98.2136 339.037 97.8313Z" fill="#B07C56"/>
<path d="M11.9259 83.7751C17.8313 84.5252 23.4908 85.8568 29.2469 87.3243C30.6047 87.6664 31.9628 88.0073 33.3209 88.3479C34.2142 88.572 35.1074 88.7965 36.0005 89.0213C39.6572 89.9407 43.3219 90.8238 46.9938 91.6818C47.7279 91.8533 47.7279 91.8533 48.4768 92.0284C49.544 92.277 50.6114 92.5243 51.679 92.7711C51.679 93.1422 51.679 93.5133 51.679 93.8956C51.0295 94.1364 50.3801 94.3772 49.7109 94.6252C47.2669 95.5313 44.823 96.4378 42.3792 97.3445C41.3279 97.7344 40.2766 98.1243 39.2253 98.514C37.7011 99.079 36.1771 99.6445 34.6531 100.21C34.1588 100.393 33.6645 100.576 33.1553 100.765C30.9768 101.573 28.8014 102.387 26.6367 103.231C25.9776 103.488 25.3185 103.745 24.6394 104.01C24.0806 104.231 23.5218 104.452 22.9461 104.68C21.5802 105.141 21.5802 105.141 19.8765 105.141C19.0167 102.912 18.1583 100.682 17.3012 98.4522C17.0102 97.6958 16.7189 96.9396 16.4271 96.1835C14.8416 92.0734 13.287 87.9649 11.9259 83.7751Z" fill="#474F86"/>
<path d="M61.3333 124.257C61.3333 126.16 61.0823 126.49 59.9779 127.967C59.6828 128.366 59.3878 128.765 59.0838 129.176C58.7602 129.605 58.4367 130.035 58.1034 130.477C57.4215 131.396 56.7397 132.316 56.0581 133.235C55.5318 133.941 55.5318 133.941 54.9949 134.661C53.3905 136.817 51.8066 138.988 50.2238 141.16C49.9225 141.572 49.6212 141.985 49.3108 142.41C46.8315 145.809 44.3841 149.23 41.9502 152.662C41.4379 153.384 40.9243 154.105 40.4092 154.824C39.8615 155.591 39.3206 156.363 38.7814 157.135C38.5399 157.418 38.2983 157.701 38.0494 157.992C37.6746 157.992 37.2997 157.992 36.9136 157.992C36.1137 155.241 35.3154 152.49 34.5184 149.739C34.2473 148.803 33.9757 147.868 33.7037 146.933C33.3122 145.587 32.9221 144.24 32.5323 142.893C32.411 142.477 32.2897 142.061 32.1648 141.632C31.5783 139.6 31.0437 137.583 30.6667 135.502C34.0299 134.262 37.3933 133.022 40.7568 131.782C41.8985 131.361 43.0402 130.94 44.1819 130.519C45.8327 129.91 47.4836 129.302 49.1345 128.694C49.6365 128.508 50.1384 128.323 50.6555 128.132C54.2085 126.824 57.769 125.535 61.3333 124.257Z" fill="#475089"/>
<path d="M276 174.86C276.281 177.643 276.281 177.643 276.568 180.482C277.13 180.668 277.692 180.853 278.272 181.044C277.598 181.242 276.925 181.44 276.231 181.644C260.884 186.129 260.884 186.129 247.837 194.898C247.037 195.663 247.037 195.663 245.901 195.663C244.815 194.406 243.789 193.146 242.778 191.832C242.494 191.471 242.211 191.11 241.919 190.738C238.518 186.382 238.518 186.382 238.518 184.418C250.411 179.153 262.758 174.581 276 174.86Z" fill="#DBA781"/>
<path d="M26.6914 74.779C27.4127 74.9474 28.1341 75.1159 28.8773 75.2894C31.5118 75.9093 34.1418 76.547 36.7716 77.1861C37.4853 77.3593 37.4853 77.3593 38.2135 77.5359C40.7227 78.1446 43.2316 78.7548 45.7402 79.3662C48.3313 79.9975 50.9237 80.6238 53.5163 81.2491C55.5134 81.7316 57.5096 82.2177 59.5056 82.7048C60.4617 82.9375 61.4181 83.1688 62.3749 83.3988C63.7065 83.7192 65.0368 84.0446 66.3668 84.3713C66.7627 84.4654 67.1586 84.5594 67.5665 84.6564C70.2901 85.3334 70.2901 85.3334 71.5555 86.5862C69.9642 87.2831 68.3684 87.9584 66.7639 88.6244C66.3192 88.8215 65.8744 89.0187 65.4162 89.2218C61.8873 90.6596 59.8081 90.4698 56.2222 89.3975C55.0281 89.1196 53.8323 88.8494 52.6351 88.5849C51.2633 88.2708 49.8916 87.9559 48.5201 87.6405C48.1553 87.5566 47.7906 87.4727 47.4148 87.3863C41.0969 85.9305 34.8015 84.3937 28.5134 82.8165C23.5466 81.5708 18.5775 80.3652 13.5492 79.3842C12.6218 79.1949 11.704 78.9601 10.7901 78.7147C10.6027 78.3437 10.4153 77.9726 10.2222 77.5902C11.8929 76.8867 13.5756 76.2171 15.2623 75.5521C15.9629 75.2564 15.9629 75.2564 16.6777 74.9547C17.1462 74.7735 17.6147 74.5923 18.0974 74.4056C18.5197 74.2349 18.942 74.0641 19.3771 73.8881C21.9474 73.5209 24.1865 74.1821 26.6914 74.779Z" fill="#E32A2A"/>
<path d="M210.372 143.901C212.915 144.945 213.753 147.084 214.809 149.488C215.773 153.464 215.626 158.292 213.444 161.879C210.71 165.284 206.885 167.829 202.741 169.237C201.215 169.132 201.215 169.132 199.901 168.675C198.677 166.857 198.499 166.284 198.765 164.177C199.617 163.158 199.617 163.158 200.469 162.49C199.345 162.119 198.22 161.748 197.062 161.365C196.516 159.264 196.602 157.846 197.062 155.743C196.874 155.372 196.687 155.001 196.494 154.619C196.227 152.887 196.172 151.284 196.494 149.558C198.273 147.797 199.398 147.363 201.889 147.098C203.842 147.306 205.458 147.728 207.284 148.434C207.249 148.005 207.214 147.576 207.177 147.134C207.284 145.623 207.284 145.623 207.958 144.568C208.988 143.936 208.988 143.936 210.372 143.901Z" fill="#6B412E"/>
<path d="M161.852 30.9236C162.227 30.9236 162.601 30.9236 162.988 30.9236C163.894 33.5329 164.794 36.1444 165.688 38.7581C165.993 39.6472 166.3 40.5356 166.608 41.4233C167.052 42.6988 167.488 43.9763 167.924 45.2543C168.063 45.6515 168.203 46.0486 168.346 46.4578C169.299 49.2857 169.299 49.2857 168.667 51.1645C167.637 51.6797 167.637 51.6797 166.273 52.1155C165.761 52.2844 165.248 52.4533 164.72 52.6273C164.16 52.8056 163.6 52.9839 163.023 53.1676C157.764 54.904 152.574 56.769 147.406 58.7549C146.753 59.0054 146.101 59.2558 145.428 59.5139C143.898 60.1025 142.368 60.6928 140.84 61.285C140.84 59.3907 141.079 59.0654 142.175 57.5953C142.613 57.0009 142.613 57.0009 143.061 56.3945C143.382 55.9674 143.703 55.5403 144.034 55.1003C144.364 54.6544 144.695 54.2085 145.035 53.749C146.094 52.3224 147.158 50.8999 148.222 49.4778C149.248 48.101 150.273 46.7237 151.298 45.3462C151.966 44.4493 152.635 43.5531 153.305 42.6576C154.859 40.5782 156.398 38.4915 157.897 36.3726C158.159 36.0024 158.421 35.6322 158.691 35.2508C159.177 34.5624 159.659 33.8718 160.137 33.1786C160.681 32.4072 161.263 31.662 161.852 30.9236Z" fill="#484E85"/>
<path d="M180.025 80.9639C180.918 83.414 181.807 85.8654 182.694 88.318C182.996 89.1522 183.299 89.9861 183.603 90.8196C184.039 92.0175 184.473 93.2167 184.905 94.4161C185.042 94.7887 185.178 95.1612 185.319 95.545C185.891 97.1401 186.272 98.3729 186.272 100.08C180.505 99.6725 175.01 98.0465 169.448 96.5751C168.548 96.3377 167.649 96.1005 166.75 95.8635C166.305 95.7461 165.86 95.6287 165.402 95.5078C160.653 94.269 155.864 93.2255 151.062 92.2088C151.062 91.8378 151.062 91.4667 151.062 91.0844C151.363 90.9775 151.664 90.8707 151.974 90.7607C159.209 88.1888 166.403 85.5302 173.553 82.7354C174.151 82.5045 174.748 82.2736 175.364 82.0357C175.894 81.8287 176.424 81.6218 176.97 81.4086C178.321 80.9639 178.321 80.9639 180.025 80.9639Z" fill="#494F88"/>
<path d="M304.466 156.2C305.083 156.188 305.083 156.188 305.713 156.176C307.235 156.305 307.235 156.305 309.3 156.859C312.63 157.729 316.013 157.649 319.437 157.699C324.319 157.841 324.319 157.841 326.543 159.679C327.667 161.348 327.846 161.735 327.857 163.614C327.866 163.997 327.876 164.38 327.885 164.774C327.612 166.217 327.16 166.681 325.975 167.55C324.664 167.899 323.376 168.078 322.033 168.268C320.755 168.568 320.755 168.568 320.223 169.824C320.06 170.187 319.897 170.55 319.728 170.924C317.93 170.99 316.132 171.029 314.333 171.064C313.578 171.092 313.578 171.092 312.807 171.121C309.176 171.174 306.954 170.512 303.827 168.675C303.827 167.932 303.827 167.19 303.827 166.426C303.406 166.379 302.984 166.333 302.549 166.285C300.604 165.76 299.884 165.242 298.716 163.614C298.364 161.218 298.436 160.104 299.781 158.062C301.395 156.464 302.249 156.219 304.466 156.2Z" fill="#452A1F"/>
<path d="M162.859 10.8958C164.778 11.4256 165.745 12.5488 166.963 14.0562C167.244 14.3346 167.244 14.3346 167.531 14.6185C167.931 18.5805 167.931 18.5805 166.324 20.7329C164.691 21.9277 164.691 21.9277 162.917 22.4197C162.378 22.6284 161.839 22.8372 161.284 23.0522C160.883 23.9682 160.486 24.8865 160.115 25.8149C159.079 28.0874 157.574 30.0795 156.137 32.1185C155.808 32.5906 155.479 33.0627 155.139 33.5491C152.838 36.8237 150.434 39.9907 147.949 43.1307C146.293 45.246 144.737 47.4294 143.182 49.6185C142.897 50.0163 142.613 50.414 142.319 50.8238C140.823 52.9225 139.367 55.0382 137.956 57.1935C132.772 64.99 132.772 64.99 128.213 66.1895C127.716 66.2666 127.716 66.2666 127.21 66.3454C128.138 63.3829 130.029 61.1562 131.895 58.7199C134.765 54.9211 137.573 51.09 140.307 47.1938C145.324 40.0556 150.421 32.977 155.771 26.0787C156.617 24.91 157.278 23.7959 157.877 22.49C157.525 22.3392 157.174 22.1885 156.812 22.0331C155.605 21.3655 155.605 21.3655 154.469 19.6787C154.159 17.9552 154.163 16.3427 154.469 14.6185C156.972 11.4706 158.939 10.3838 162.859 10.8958Z" fill="#D63934"/>
<path d="M152.337 96.7861C153.074 96.9702 153.81 97.1539 154.547 97.3372C156.483 97.8203 158.419 98.3089 160.354 98.7988C162.673 99.3848 164.994 99.9639 167.315 100.544C169.175 101.01 171.034 101.477 172.892 101.948C175.901 102.711 178.909 103.47 181.939 104.149C182.368 104.247 182.797 104.345 183.239 104.446C184.302 104.686 185.367 104.916 186.431 105.145C188.218 105.791 188.781 106.311 189.679 107.952C190.069 110.06 190.069 110.06 190.247 111.888C186.262 111.52 182.534 110.564 178.676 109.533C173.57 108.195 168.459 106.925 163.307 105.773C157.501 104.468 151.712 103.101 145.932 101.688C145.002 101.46 144.07 101.235 143.139 101.01C141.833 100.696 140.529 100.376 139.225 100.054C138.83 99.96 138.436 99.8659 138.029 99.7688C135.29 99.0846 135.29 99.0846 134.025 97.8316C135.074 97.3541 136.128 96.8878 137.184 96.4259C138.063 96.0346 138.063 96.0346 138.961 95.6353C143.561 94.1296 147.792 95.6281 152.337 96.7861Z" fill="#E12B2C"/>
<path d="M398.099 279.895C399.171 279.883 399.171 279.883 400.264 279.87C402.074 280 402.074 280 403.21 281.124C403.953 282.769 404.604 284.405 404.914 286.185C404.726 286.556 404.539 286.927 404.346 287.309C404.232 289.408 404.165 291.507 404.104 293.608C403.734 296.031 403.135 297.281 401.506 299.116C397.877 300.25 392.996 298.807 389.58 297.43C387.78 296.214 386.871 295.005 386.173 292.932C385.885 289.457 386.118 287.824 388.444 285.06C393.302 279.919 393.302 279.919 398.099 279.895Z" fill="#633E2D"/>
<path d="M317.457 184.98C323.283 188.589 323.283 188.589 324.232 190.594C324.283 192.052 323.878 192.844 323.171 194.116C322.847 194.712 322.847 194.712 322.517 195.32C322.346 195.619 322.176 195.917 322 196.225C319.84 195.936 317.846 195.438 315.771 194.802C312.28 193.849 309.025 193.781 305.424 193.87C304.83 193.878 304.235 193.886 303.622 193.893C302.176 193.913 300.73 193.941 299.284 193.976C298.38 191.236 298.028 189.024 298.148 186.104C299.565 185.532 300.984 184.972 302.407 184.418C302.803 184.257 303.198 184.096 303.605 183.93C308.638 181.992 312.694 182.498 317.457 184.98Z" fill="#B52423"/>
<path d="M351.531 137.751C353.923 139.091 355.633 140.828 356.642 143.373C357.029 146.281 357.089 149.165 355.684 151.807C354.01 153.956 352.617 155.007 349.883 155.444C344.655 155.497 344.655 155.497 342.657 153.915C340.252 151.158 339.887 149.124 339.955 145.526C340.38 142.423 341.969 140.382 344.255 138.313C346.718 137.446 348.956 137.254 351.531 137.751Z" fill="#42291E"/>
<path d="M283.951 129.88C286.647 131.151 288.313 132.844 289.63 135.502C289.856 137.154 289.856 137.154 289.843 138.876C289.847 139.444 289.851 140.012 289.856 140.597C289.463 143.463 287.865 145.553 285.581 147.336C283.415 148.428 281.184 148.268 278.839 147.872C276.036 146.638 274.758 144.998 273.555 142.291C272.625 139.544 272.94 137.412 274.119 134.834C276.276 130.912 279.468 129.167 283.951 129.88Z" fill="#42291E"/>
<path d="M401.506 134.377C404.349 136.047 406.199 137.978 407.185 141.124C407.701 145.1 407.384 148.555 404.914 151.807C402.937 153.989 401.384 155.617 398.383 155.989C397.914 155.908 397.446 155.826 396.963 155.743C395.949 153.496 395.498 151.347 395.082 148.926C394.465 145.516 393.418 142.629 391.734 139.589C391.284 138.313 391.284 138.313 391.685 137.081C393.903 134.01 398.024 133.629 401.506 134.377Z" fill="#966045"/>
<path d="M74.9629 119.197C74.9629 121.663 73.4562 123.023 71.9815 124.89C71.3495 125.706 70.7188 126.523 70.0892 127.341C69.7652 127.761 69.4411 128.182 69.1073 128.616C67.6195 130.576 66.1957 132.579 64.7762 134.588C61.524 139.182 58.2143 143.732 54.8901 148.274C53.6231 150.006 52.3576 151.738 51.0928 153.471C50.4725 154.321 49.8517 155.17 49.2305 156.019C47.7654 158.024 46.3115 160.034 44.8819 162.064C44.6203 162.433 44.3588 162.803 44.0893 163.183C43.6003 163.876 43.1144 164.57 42.6321 165.267C42.0789 166.048 41.4875 166.802 40.8889 167.55C40.514 167.55 40.1392 167.55 39.7531 167.55C38.911 165.883 38.9528 164.919 39.1852 163.052C40.0932 161.38 41.2457 159.915 42.4151 158.414C43.0978 157.509 43.7803 156.604 44.4626 155.699C44.8136 155.239 45.1645 154.779 45.5261 154.305C47.1354 152.183 48.696 150.027 50.2592 147.871C50.8742 147.028 51.4894 146.185 52.1049 145.341C52.4094 144.924 52.714 144.506 53.0277 144.076C54.412 142.179 54.412 142.179 55.7963 140.281C56.1012 139.863 56.4061 139.445 56.7202 139.014C57.3312 138.177 57.9428 137.34 58.5548 136.503C60.1618 134.305 61.7577 132.1 63.3387 129.884C63.6685 129.424 63.9983 128.965 64.3381 128.491C64.9677 127.614 65.5942 126.734 66.217 125.852C68.6565 122.462 70.806 120.345 74.9629 119.197Z" fill="#D4352F"/>
<path d="M322 196.225C320.253 199.512 318.123 200.695 314.617 201.847C310.581 202.496 307.25 202.106 303.778 199.919C302.033 198.501 300.992 197.03 299.852 195.1C299.852 194.729 299.852 194.358 299.852 193.976C307.857 192.491 314.434 193.629 322 196.225Z" fill="#E46C65"/>
<path d="M227.728 213.655C229.97 215.777 231.877 218.036 233.762 220.472C234.301 221.165 234.841 221.858 235.382 222.549C235.616 222.853 235.851 223.156 236.093 223.468C236.805 224.364 236.805 224.364 237.699 225.159C239.167 226.709 239.641 228.718 240.329 230.698C240.484 231.118 240.638 231.538 240.798 231.97C241.645 234.365 242.178 236.383 241.926 238.956C241.252 240.01 241.252 240.01 240.222 240.642C238.802 240.888 238.802 240.888 237.383 240.642C235.792 238.938 235.171 237.177 234.472 234.985C234.232 234.244 233.992 233.503 233.751 232.762C233.613 232.334 233.475 231.906 233.333 231.465C232.742 229.662 232.131 227.865 231.52 226.068C231.287 225.385 231.055 224.701 230.816 223.997C230.345 222.614 229.874 221.231 229.402 219.849C229.186 219.21 228.969 218.571 228.747 217.913C228.551 217.337 228.355 216.76 228.153 216.166C227.728 214.779 227.728 214.779 227.728 213.655Z" fill="#D29F7B"/>
<path d="M162.859 10.8958C164.778 11.4256 165.745 12.5488 166.963 14.0562C167.15 14.2418 167.338 14.4273 167.531 14.6185C167.929 18.5619 167.929 18.5619 166.395 20.6978C163.667 22.667 161.26 23.6145 157.877 23.6145C157.877 23.2434 157.877 22.8723 157.877 22.49C157.525 22.3392 157.174 22.1885 156.812 22.0331C155.605 21.3655 155.605 21.3655 154.469 19.6787C154.159 17.9552 154.163 16.3427 154.469 14.6185C156.972 11.4706 158.939 10.3838 162.859 10.8958Z" fill="#A66B4B"/>
<path d="M381.346 167.234C381.722 167.349 382.098 167.464 382.486 167.582C384.654 168.268 386.592 169.039 388.444 170.361C388.444 170.732 388.444 171.104 388.444 171.486C385.527 170.991 382.761 170.051 379.959 169.134C379.575 169.011 379.191 168.889 378.795 168.762C378.453 168.651 378.111 168.54 377.759 168.425C373.015 167.228 368.103 167.391 363.244 167.374C362.595 167.372 362.595 167.372 361.932 167.369C354.776 167.359 348.574 168.033 341.779 170.436C340.173 170.924 340.173 170.924 337.901 170.924C337.714 170.181 337.526 169.439 337.333 168.675C348.259 161.463 369.465 163.357 381.346 167.234Z" fill="#4C3430"/>
<path d="M286.79 161.928C286.79 162.67 286.79 163.412 286.79 164.177C283.896 163.876 281.682 162.854 279.159 161.506C267.56 155.569 253.775 152.58 240.79 155.181C239.465 155.202 238.14 155.206 236.815 155.181C236.815 154.81 236.815 154.439 236.815 154.056C251.84 148.682 273.714 153.297 286.79 161.928Z" fill="#573E37"/>
<path d="M208.42 151.807C209.752 153.786 209.925 154.538 209.556 156.868C208.448 157.964 207.531 158.727 206.255 159.573C205.944 159.795 205.633 160.016 205.313 160.244C203.902 161.232 202.684 161.946 201.037 162.49C199.701 162.154 198.374 161.782 197.062 161.366C196.466 159.138 196.365 157.399 197.062 155.181C198.335 154.614 198.335 154.614 199.901 154.056C201.33 153.307 202.747 152.542 204.161 151.766C205.869 151.139 206.715 151.2 208.42 151.807Z" fill="#613B28"/>
<path d="M337.333 186.667C347.092 190.84 356.289 195.187 364.593 201.847C364.901 202.093 365.209 202.338 365.527 202.59C373.817 209.214 373.817 209.214 376.519 213.092C376.519 213.649 376.519 214.206 376.519 214.779C374.352 213.936 373.374 212.643 371.975 210.843C371.413 210.565 371.413 210.565 370.839 210.281C370.839 209.91 370.839 209.539 370.839 209.157C370.349 208.946 370.349 208.946 369.848 208.731C368.393 207.937 367.441 207.011 366.261 205.853C357.934 198.364 347.376 193.698 337.333 188.916C337.333 188.174 337.333 187.431 337.333 186.667Z" fill="#563C3B"/>
<path d="M239.654 121.446C240.79 122.149 240.79 122.149 241.358 123.133C241.128 125.803 239.838 127.805 238.483 130.055C238.162 130.599 238.162 130.599 237.834 131.154C237.309 132.043 236.778 132.93 236.247 133.815C234.355 132.946 233.403 132.203 232.272 130.442C231.41 127.883 231.295 125.729 232.414 123.238C234.57 120.57 236.361 120.675 239.654 121.446Z" fill="#472B1F"/>
<path d="M283.951 179.92C282.72 181.298 281.808 181.871 280.015 182.331C279.57 182.452 279.124 182.572 278.665 182.696C278.184 182.824 277.702 182.951 277.207 183.082C265.306 186.441 254.635 191.648 244.932 199.232C243.63 200.161 243.63 200.161 242.494 200.161C242.494 198.474 242.494 198.474 243.417 197.523C253.882 189.36 270.027 179.23 283.951 179.92Z" fill="#50352C"/>
<path d="M399.802 139.438C401.304 140.264 401.952 140.708 402.436 142.361C402.511 145.998 401.673 147.785 399.135 150.404C398.099 151.245 398.099 151.245 396.395 151.807C395.824 150.145 395.258 148.481 394.691 146.817C394.529 146.344 394.366 145.871 394.199 145.383C394.045 144.93 393.891 144.477 393.733 144.01C393.59 143.592 393.448 143.174 393.3 142.743C392.988 141.687 392.988 141.687 392.988 140.562C395.061 139.193 397.388 139.003 399.802 139.438Z" fill="#48291C"/>
<path d="M372.543 177.671C372.914 177.792 373.284 177.913 373.666 178.037C378.982 179.803 383.708 181.978 388.444 184.98C388.07 185.165 387.695 185.351 387.309 185.542C386.22 185.177 386.22 185.177 384.888 184.569C384.152 184.241 384.152 184.241 383.402 183.906C382.875 183.669 382.349 183.432 381.807 183.188C376.872 181.035 372.156 179.336 366.864 178.233C366.142 178.079 365.419 177.926 364.675 177.767C357.713 176.383 350.653 175.914 343.58 175.422C343.58 176.906 343.58 178.39 343.58 179.92C343.205 179.92 342.831 179.92 342.444 179.92C342.444 178.435 342.444 176.951 342.444 175.422C341.32 175.422 340.196 175.422 339.037 175.422C339.037 175.05 339.037 174.679 339.037 174.297C347.225 170.244 364.38 174.983 372.543 177.671Z" fill="#B47046"/>
<path d="M254.852 164.102C255.257 164.101 255.662 164.101 256.079 164.1C256.929 164.1 257.78 164.101 258.631 164.103C259.908 164.106 261.185 164.103 262.462 164.1C276.454 164.091 276.454 164.091 279.301 165.723C280.543 166.988 280.543 166.988 280.863 168.464C280.543 169.799 280.543 169.799 278.84 170.924C277.704 169.799 277.704 169.799 277.633 168.323C277.656 167.883 277.68 167.442 277.704 166.988C277.067 166.937 277.067 166.937 276.417 166.885C275.858 166.837 275.298 166.79 274.722 166.742C274.169 166.696 273.615 166.651 273.045 166.603C271.457 166.426 271.457 166.426 270.436 166.143C260.002 163.811 247.506 166.204 237.383 168.675C236.97 168.768 236.558 168.862 236.133 168.958C234.043 169.473 233.519 169.634 232.272 171.486C231.704 169.799 231.704 169.799 232.272 168.112C233.515 167.62 233.515 167.62 235.149 167.229C235.741 167.085 236.334 166.941 236.945 166.792C237.569 166.648 238.194 166.504 238.838 166.355C239.752 166.132 239.752 166.132 240.685 165.905C245.443 164.769 249.954 164.106 254.852 164.102Z" fill="#AF6B40"/>
<path d="M279.975 171.486C280.912 171.671 281.849 171.857 282.815 172.048C283.096 173.44 283.096 173.44 283.383 174.859C281.556 175.764 279.565 175.426 277.562 175.386C266.567 175.306 255.551 177.696 245.446 181.967C243.172 182.923 240.873 183.681 238.518 184.418C239.762 183.059 240.914 182.3 242.594 181.538C243.06 181.327 243.526 181.115 244.006 180.897C244.503 180.679 244.999 180.461 245.511 180.236C246.278 179.898 246.278 179.898 247.061 179.553C251.154 177.785 255.17 176.411 259.531 175.422C260.231 175.261 260.931 175.101 261.652 174.936C265.77 174.058 269.798 173.506 274.006 173.291C275.43 173.261 275.43 173.261 276.568 172.61C277.703 172.588 278.84 172.586 279.975 172.61C279.975 172.239 279.975 171.868 279.975 171.486Z" fill="#B6734A"/>
<path d="M338.469 181.044C352.162 181.36 367.927 188.843 378.79 196.787C378.415 196.973 378.04 197.158 377.654 197.349C376.305 196.648 375.017 195.914 373.714 195.136C366.99 191.259 359.831 188.468 352.525 185.858C351.947 185.65 351.947 185.65 351.357 185.437C348.94 184.601 346.677 184.138 344.148 183.855C344.148 184.783 344.148 185.711 344.148 186.667C343.586 186.852 343.024 187.038 342.444 187.229C342.632 185.93 342.819 184.631 343.012 183.293C341.513 183.108 340.014 182.922 338.469 182.731C338.469 182.174 338.469 181.618 338.469 181.044Z" fill="#A86239"/>
<path d="M250.196 152.194C250.739 152.191 251.282 152.188 251.842 152.185C255.641 152.221 259.225 152.712 262.938 153.494C260.889 154.768 259.204 154.742 256.818 154.709C256.069 154.702 255.321 154.696 254.55 154.69C253.761 154.678 252.972 154.666 252.184 154.654C250.64 154.633 249.097 154.617 247.554 154.603C246.869 154.593 246.185 154.583 245.48 154.573C243.825 154.614 242.4 154.834 240.79 155.181C239.465 155.202 238.14 155.207 236.815 155.181C236.815 154.81 236.815 154.439 236.815 154.056C241.271 152.462 245.498 152.2 250.196 152.194Z" fill="#523730"/>
<path d="M358.914 198.474C362.551 199.704 365.12 202.218 368 204.658C368.469 205.053 368.938 205.447 369.422 205.853C374.814 210.478 374.814 210.478 376.519 213.092C376.519 213.649 376.519 214.205 376.519 214.779C374.352 213.936 373.374 212.643 371.975 210.843C371.6 210.658 371.226 210.472 370.84 210.281C370.84 209.91 370.84 209.539 370.84 209.156C370.521 209.021 370.203 208.885 369.875 208.746C368.298 207.885 367.148 206.825 365.835 205.607C364.135 204.054 362.471 202.624 360.546 201.355C360.007 200.961 359.469 200.567 358.914 200.16C358.914 199.604 358.914 199.047 358.914 198.474Z" fill="#523930"/>
<path d="M371.818 165.271C375.099 165.52 378.109 166.239 381.239 167.199C381.82 167.375 381.82 167.375 382.412 167.555C384.603 168.254 386.573 169.021 388.444 170.361C388.444 170.733 388.444 171.104 388.444 171.486C385.527 170.992 382.761 170.052 379.959 169.134C374.996 167.552 370.092 167.405 364.912 167.234C364.226 167.21 363.539 167.185 362.832 167.16C361.148 167.101 359.463 167.044 357.778 166.988C357.778 166.802 357.778 166.617 357.778 166.426C358.341 166.405 358.341 166.405 358.916 166.383C360.607 166.318 362.298 166.249 363.989 166.18C364.876 166.147 364.876 166.147 365.781 166.113C366.623 166.077 366.623 166.077 367.483 166.041C368.264 166.01 368.264 166.01 369.06 165.979C370.394 165.852 370.548 165.31 371.818 165.271Z" fill="#5A3D36"/>
<path d="M349.614 140.105C350.963 140.562 350.963 140.562 352.099 141.687C352.276 143.655 352.276 143.655 352.099 145.623C350.128 146.923 349.306 147.034 346.988 146.747C345.887 145.798 345.887 145.798 345.284 144.498C345.328 142.699 345.603 141.95 346.846 140.633C348.123 140 348.123 140 349.614 140.105Z" fill="#F4F3F2"/>
<path d="M283.383 132.691C284.483 133.323 284.483 133.323 285.086 134.377C284.96 136.428 284.869 137.404 283.383 138.875C281.395 139.051 281.395 139.051 279.407 138.875C278.272 137.189 278.272 137.189 278.414 135.151C278.554 134.524 278.695 133.898 278.84 133.253C280.429 132.466 281.625 132.549 283.383 132.691Z" fill="#F5F4F2"/>
<path d="M352.099 129.317C354.551 130.392 355.82 131.55 356.89 133.991C356.996 134.49 357.101 134.988 357.21 135.502C355.506 135.502 355.506 135.502 354.61 134.764C354.14 134.295 354.14 134.295 353.661 133.815C352.116 132.454 351.637 132.145 349.508 131.812C347.43 132.149 345.977 132.805 344.148 133.815C343.773 133.815 343.399 133.815 343.012 133.815C343.521 132.12 343.966 131.163 345.319 129.985C347.648 129.053 349.624 128.873 352.099 129.317Z" fill="#52322E"/>
<path d="M283.383 121.446C285.514 122.579 286.584 123.388 287.926 125.381C287.926 125.938 287.926 126.495 287.926 127.068C286.632 126.451 285.506 125.836 284.341 124.995C282.238 123.978 281.083 124.235 278.84 124.819C277.681 125.534 276.539 126.278 275.432 127.068C275.057 127.068 274.682 127.068 274.296 127.068C274.942 124.832 275.96 123.411 277.832 121.982C279.67 121.004 281.372 121.01 283.383 121.446Z" fill="#4F332C"/>
<path d="M257.259 188.354C257.634 189.096 258.009 189.838 258.395 190.603C257.837 190.88 257.837 190.88 257.268 191.163C253.508 193.103 250.204 195.332 246.882 197.938C245.438 198.962 244.166 199.595 242.494 200.161C242.494 198.474 242.494 198.474 243.417 197.523C247.807 194.099 252.483 191.217 257.259 188.354Z" fill="#5B372D"/>
<path d="M354.938 184.98C360.068 186.703 364.942 188.698 369.739 191.2C370.185 191.431 370.63 191.662 371.089 191.9C373.815 193.35 376.308 194.957 378.79 196.787C378.228 197.066 378.228 197.066 377.654 197.349C376.306 196.648 375.017 195.915 373.715 195.136C370.18 193.089 366.599 191.349 362.818 189.794C362.368 189.609 361.918 189.424 361.454 189.233C359.118 188.289 356.776 187.424 354.37 186.667C354.558 186.11 354.745 185.553 354.938 184.98Z" fill="#AD6D43"/>
<path d="M158.444 23.0522C159.194 23.2378 159.944 23.4233 160.716 23.6145C160.405 26.0226 159.566 27.4667 158.125 29.4127C157.761 29.9092 157.397 30.4056 157.022 30.9171C156.742 31.2904 156.462 31.6637 156.173 32.0482C155.985 31.4916 155.798 30.935 155.605 30.3615C154.48 30.9181 154.48 30.9181 153.333 31.486C154.035 27.7788 155.821 25.7259 158.444 23.0522Z" fill="#D73B34"/>
<path d="M279.975 171.486C281.381 171.764 281.381 171.764 282.815 172.048C283.002 172.976 283.19 173.904 283.383 174.859C282.017 175.535 281.291 175.443 279.776 175.353C279.293 175.326 278.809 175.299 278.312 175.271C277.806 175.24 277.301 175.208 276.781 175.176C276.271 175.146 275.762 175.117 275.237 175.087C273.977 175.014 272.717 174.938 271.457 174.859C273.399 172.936 275.841 172.637 278.52 172.54C279 172.563 279.481 172.586 279.975 172.61C279.975 172.239 279.975 171.868 279.975 171.486Z" fill="#977057"/>
<path d="M344.823 173.665C345.245 173.663 345.667 173.661 346.101 173.658C348.721 173.663 351.231 173.776 353.802 174.297C353.99 174.668 354.177 175.04 354.37 175.422C350.81 175.422 347.249 175.422 343.58 175.422C343.58 176.906 343.58 178.391 343.58 179.92C343.205 179.92 342.831 179.92 342.444 179.92C342.444 178.436 342.444 176.951 342.444 175.422C341.32 175.422 340.196 175.422 339.037 175.422C339.037 175.051 339.037 174.68 339.037 174.297C340.857 173.396 342.826 173.655 344.823 173.665Z" fill="#AB6641"/>
<path d="M248.741 164.739C248.553 165.295 248.366 165.852 248.173 166.426C247.181 166.806 247.181 166.806 245.897 167.043C245.196 167.179 245.196 167.179 244.481 167.318C243.744 167.45 243.744 167.45 242.991 167.585C238.136 168.451 238.136 168.451 233.407 169.799C233.033 170.356 232.658 170.912 232.272 171.486C231.704 169.799 231.704 169.799 232.272 168.112C233.542 167.611 233.542 167.611 235.209 167.21C235.809 167.063 236.409 166.916 237.028 166.765C237.977 166.545 237.977 166.545 238.944 166.32C239.88 166.09 239.88 166.09 240.834 165.856C243.526 165.21 245.958 164.642 248.741 164.739Z" fill="#B9734B"/>
<path d="M343.58 175.422C344.892 175.422 346.204 175.422 347.556 175.422C347.556 177.648 347.556 179.875 347.556 182.169C346.993 182.169 346.431 182.169 345.852 182.169C345.852 181.798 345.852 181.426 345.852 181.044C345.102 181.044 344.353 181.044 343.58 181.044C343.58 179.189 343.58 177.333 343.58 175.422Z" fill="#F9F5F4"/>
<path d="M278.84 158.554C281.521 158.886 284.018 159.815 286.222 161.365C286.79 162.912 286.79 162.912 286.79 164.177C283.778 163.886 281.852 163.074 279.407 161.365C278.875 159.819 278.875 159.819 278.84 158.554Z" fill="#4D3D3B"/>
<path d="M276 174.859C278.248 175.177 279.786 175.876 281.679 177.108C281.392 178.328 281.111 179.357 280.543 180.482C279.231 180.482 277.919 180.482 276.568 180.482C276.38 178.626 276.193 176.771 276 174.859Z" fill="#E0DFDE"/>
<path d="M149.358 36.5461C149.92 36.5461 150.482 36.5461 151.062 36.5461C151.062 36.9172 151.062 37.2883 151.062 37.6706C150.687 37.6706 150.312 37.6706 149.926 37.6706C149.996 38.2621 149.996 38.2621 150.068 38.8654C149.872 41.0945 149.141 42.1897 147.654 43.8554C145.809 44.0662 145.809 44.0662 144.247 43.8554C145.089 42.048 146.12 40.5194 147.335 38.9357C147.674 38.4863 148.013 38.037 148.362 37.574C148.691 37.2348 149.019 36.8956 149.358 36.5461Z" fill="#DD322C"/>
<path d="M274.296 164.739C276.297 164.506 277.187 164.765 279.017 165.688C280.543 166.988 280.543 166.988 280.863 168.464C280.543 169.799 280.543 169.799 278.84 170.924C278.465 170.552 278.09 170.181 277.704 169.799C277.704 168.871 277.704 167.944 277.704 166.988C275.642 166.802 273.581 166.617 271.457 166.426C271.457 166.24 271.457 166.055 271.457 165.863C272.394 165.678 273.331 165.492 274.296 165.301C274.296 165.116 274.296 164.93 274.296 164.739Z" fill="#B08162"/>
<path d="M394.123 280C395.425 279.97 396.726 279.948 398.028 279.93C399.115 279.91 399.115 279.91 400.224 279.89C402.074 280 402.074 280 403.21 281.124C403.21 281.867 403.21 282.609 403.21 283.373C399.528 283.58 399.528 283.58 398.134 282.6C397.531 281.687 397.531 281.687 397.531 280.562C396.406 280.562 395.282 280.562 394.123 280.562C394.123 280.377 394.123 280.191 394.123 280Z" fill="#6D4636"/>
<path d="M343.58 167.55C344.539 168.429 344.539 168.429 345.284 169.237C344.481 169.522 343.676 169.802 342.87 170.08C342.198 170.315 342.198 170.315 341.513 170.555C340.173 170.924 340.173 170.924 337.901 170.924C337.714 170.181 337.526 169.439 337.333 168.675C339.568 167.199 341 166.699 343.58 167.55Z" fill="#544035"/>
<path d="M248.173 152.369C253.262 152.247 257.953 152.345 262.938 153.494C260.801 154.894 259.039 154.636 256.549 154.408C255.832 154.345 255.115 154.283 254.375 154.219C253.828 154.165 253.28 154.111 252.716 154.056C252.716 153.685 252.716 153.314 252.716 152.932C251.217 152.932 249.718 152.932 248.173 152.932C248.173 152.746 248.173 152.561 248.173 152.369Z" fill="#4B302B"/>
<path d="M40.321 161.365C41.0706 161.551 41.8202 161.737 42.5926 161.928C42.7229 163.821 42.7853 164.972 41.8117 166.637C41.5072 166.938 41.2026 167.24 40.8889 167.55C40.514 167.55 40.1392 167.55 39.7531 167.55C38.9662 165.992 39.0785 164.776 39.1851 163.052C39.56 162.496 39.9348 161.939 40.321 161.365Z" fill="#DD3A35"/>
<path d="M59.6296 83.2129C63.7146 83.8664 67.6198 84.7563 71.5555 86.0241C69.8986 87.1178 68.9288 87.4032 67.0123 87.7109C67.0123 87.3398 67.0123 86.9687 67.0123 86.5864C66.4501 86.5864 65.8879 86.5864 65.3086 86.5864C65.3086 86.0298 65.3086 85.4731 65.3086 84.8996C64.9463 84.8721 64.5839 84.8446 64.2105 84.8162C63.7413 84.7741 63.272 84.7321 62.7886 84.6888C62.3208 84.6497 61.853 84.6105 61.371 84.5702C60.9838 84.4934 60.5965 84.4165 60.1975 84.3374C60.0101 83.9663 59.8227 83.5952 59.6296 83.2129Z" fill="#D22E2F"/>
<path d="M372.508 165.161C373.082 165.207 373.656 165.253 374.247 165.301C374.622 165.858 374.997 166.414 375.383 166.988C373.205 167.506 371.271 167.58 369.036 167.482C368.05 167.441 368.05 167.441 367.045 167.4C366.024 167.352 366.024 167.352 364.983 167.304C364.292 167.275 363.6 167.246 362.888 167.215C361.184 167.143 359.481 167.067 357.778 166.988C357.778 166.802 357.778 166.617 357.778 166.426C358.341 166.405 358.341 166.405 358.916 166.383C360.607 166.318 362.298 166.249 363.989 166.18C364.876 166.147 364.876 166.147 365.781 166.113C366.623 166.077 366.623 166.077 367.483 166.041C368.264 166.01 368.264 166.01 369.06 165.979C370.636 165.829 370.79 165.305 372.508 165.161Z" fill="#6A4A43"/>
<path d="M283.951 179.92C282.417 181.951 280.245 182.275 277.881 182.836C277.283 182.986 277.283 182.986 276.673 183.138C275.693 183.383 274.711 183.62 273.728 183.855C273.728 183.484 273.728 183.113 273.728 182.731C274.478 182.731 275.228 182.731 276 182.731C276 182.174 276 181.618 276 181.044C278.75 180.293 281.074 179.777 283.951 179.92Z" fill="#42342F"/>
<path d="M140.84 95.02C141.027 95.5766 141.214 96.1333 141.407 96.7068C140.47 96.7068 139.533 96.7068 138.568 96.7068C138.38 97.4489 138.193 98.1911 138 98.9558C138.937 98.9558 139.874 98.9558 140.84 98.9558C140.84 99.3268 140.84 99.6979 140.84 100.08C139.916 99.9216 138.993 99.7564 138.071 99.5883C137.557 99.497 137.043 99.4056 136.514 99.3116C135.16 98.9558 135.16 98.9558 134.025 97.8313C136.274 96.9036 138.522 95.9758 140.84 95.02Z" fill="#D3403F"/>
<path d="M276 166.988C276.562 166.988 277.124 166.988 277.704 166.988C277.704 168.658 277.704 170.328 277.704 172.048C276.767 172.048 275.83 172.048 274.864 172.048C274.722 168.886 274.722 168.886 276 166.988Z" fill="#FAF6F4"/>
<path d="M52.8148 147.309C53.0022 147.866 53.1896 148.423 53.3827 148.996C53.0079 148.996 52.6331 148.996 52.2469 148.996C52.2469 149.924 52.2469 150.851 52.2469 151.807C52.0595 151.436 51.8721 151.065 51.679 150.683C51.3042 150.683 50.9294 150.683 50.5432 150.683C50.3558 151.611 50.1684 152.538 49.9753 153.494C49.2257 153.309 48.4761 153.123 47.7037 152.932C48.4479 150.721 49.312 149.383 51.1111 147.872C51.6733 147.686 52.2356 147.5 52.8148 147.309Z" fill="#DB2E27"/>
<path d="M338.469 181.044C339.475 181.108 340.481 181.18 341.486 181.255C342.326 181.314 342.326 181.314 343.183 181.374C344.716 181.606 344.716 181.606 346.42 182.731C344.617 183.623 342.708 183.453 340.741 183.293C339.037 182.731 339.037 182.731 337.901 182.169C338.089 181.798 338.276 181.427 338.469 181.044Z" fill="#5E4134"/>
<path d="M319.16 167.55C320.935 167.445 320.935 167.445 322.568 167.55C322.205 167.898 321.842 168.246 321.468 168.604C320.274 169.701 320.274 169.701 319.728 170.924C316.542 170.924 313.357 170.924 310.074 170.924C310.074 170.738 310.074 170.553 310.074 170.362C310.505 170.327 310.936 170.293 311.381 170.258C311.945 170.211 312.51 170.164 313.091 170.116C313.651 170.07 314.211 170.024 314.788 169.977C316.374 169.845 316.374 169.845 318.025 169.237C318.399 168.68 318.774 168.124 319.16 167.55Z" fill="#33221C"/>
<path d="M279.975 171.486C280.912 171.671 281.849 171.857 282.815 172.048C283.002 172.976 283.19 173.904 283.383 174.859C281.844 175.621 280.538 175.458 278.84 175.422C279.027 174.865 279.214 174.308 279.407 173.735C279.782 173.735 280.157 173.735 280.543 173.735C280.356 172.993 280.168 172.25 279.975 171.486Z" fill="#585353"/>
<path d="M156.741 25.8635C157.303 26.0491 157.865 26.2346 158.444 26.4258C158.444 26.7969 158.444 27.1679 158.444 27.5503C158.07 27.5503 157.695 27.5503 157.309 27.5503C157.344 27.9793 157.379 28.4084 157.415 28.8505C157.309 30.3615 157.309 30.3615 156.457 31.3806C156.176 31.6009 155.895 31.8213 155.605 32.0483C155.605 31.4916 155.605 30.935 155.605 30.3615C154.48 30.9181 154.48 30.9181 153.333 31.486C153.708 30.5583 154.083 29.6306 154.469 28.6748C154.844 28.6748 155.219 28.6748 155.605 28.6748C155.98 27.7471 156.355 26.8193 156.741 25.8635Z" fill="#E02D26"/>
<path d="M343.012 173.735C343.58 174.297 343.58 174.297 343.636 175.582C343.629 176.097 343.623 176.613 343.616 177.144C343.611 177.66 343.606 178.177 343.6 178.71C343.594 179.109 343.587 179.508 343.58 179.92C343.205 179.92 342.831 179.92 342.444 179.92C342.444 178.435 342.444 176.951 342.444 175.422C341.32 175.422 340.196 175.422 339.037 175.422C339.037 175.051 339.037 174.68 339.037 174.297C340.448 173.599 341.452 173.656 343.012 173.735Z" fill="#9C745E"/>
<path d="M278.272 130.442C278.728 130.685 278.728 130.685 279.194 130.934C281.13 131.841 282.959 131.918 285.086 132.128C284.899 132.871 284.712 133.613 284.519 134.377C284.144 134.006 283.769 133.635 283.383 133.253C281.856 133.101 280.378 133.204 278.84 133.253C278.84 133.624 278.84 133.995 278.84 134.377C278.465 134.377 278.09 134.377 277.704 134.377C277.516 133.264 277.329 132.151 277.136 131.004C277.511 130.818 277.885 130.633 278.272 130.442Z" fill="#503F37"/>
<path d="M347.343 166.391C348.197 166.398 348.197 166.398 349.068 166.406C349.506 166.413 349.944 166.419 350.395 166.426C350.208 166.797 350.02 167.168 349.827 167.55C348.89 167.55 347.953 167.55 346.988 167.55C346.988 167.921 346.988 168.292 346.988 168.675C345.676 168.675 344.364 168.675 343.012 168.675C343.012 168.118 343.012 167.562 343.012 166.988C344.514 166.245 345.669 166.371 347.343 166.391Z" fill="#3E362F"/>
<path d="M144.247 100.643C152.302 100.353 152.302 100.353 154.902 102.652C155.134 102.917 155.366 103.181 155.605 103.454C151.709 103.083 148.027 102.196 144.247 101.205C144.247 101.019 144.247 100.834 144.247 100.643Z" fill="#D54443"/>
<path d="M353.235 165.863C353.235 166.42 353.235 166.977 353.235 167.55C351.173 167.921 349.112 168.292 346.988 168.675C346.988 168.304 346.988 167.932 346.988 167.55C347.925 167.365 348.862 167.179 349.827 166.988C349.078 166.617 348.328 166.246 347.556 165.863C349.587 165.167 351.154 165.442 353.235 165.863Z" fill="#563F34"/>
<path d="M17.6049 75.9037C16.4805 76.4603 15.356 77.0169 14.1975 77.5904C14.3849 78.147 14.5723 78.7037 14.7654 79.2771C13.4348 79.1334 12.1085 78.9439 10.7901 78.7149C10.6027 78.3438 10.4153 77.9727 10.2222 77.5904C11.2377 77.1987 12.2557 76.8133 13.2747 76.4308C13.8413 76.2155 14.4079 76.0002 14.9917 75.7785C16.4691 75.3414 16.4691 75.3414 17.6049 75.9037Z" fill="#D54343"/>
<path d="M233.407 139.438C233.595 139.438 233.782 139.438 233.975 139.438C234.12 146.435 234.12 146.435 232.52 148.399C232.251 148.596 231.981 148.793 231.704 148.996C231.475 145.529 232.29 142.711 233.407 139.438Z" fill="#A9775C"/>
<path d="M331.654 177.108C333.06 177.387 333.06 177.387 334.494 177.671C334.681 178.413 334.869 179.155 335.062 179.92C334.121 180.135 333.174 180.321 332.222 180.482C331.654 179.92 331.654 179.92 331.619 178.479C331.631 178.027 331.642 177.574 331.654 177.108Z" fill="#606369"/>
<path d="M325.407 172.61C326.532 172.981 327.656 173.353 328.815 173.735C328.627 174.477 328.44 175.219 328.247 175.984C327.31 175.984 326.373 175.984 325.407 175.984C325.407 174.871 325.407 173.757 325.407 172.61Z" fill="#58585D"/>
<path d="M300.42 164.739C302.017 164.598 302.017 164.598 303.827 164.739C304.892 165.723 304.892 165.723 305.531 166.988C305.531 167.73 305.531 168.472 305.531 169.237C304.969 169.051 304.406 168.866 303.827 168.675C303.827 167.933 303.827 167.19 303.827 166.426C303.37 166.356 302.914 166.287 302.443 166.215C301.963 166.099 301.482 165.983 300.988 165.863C300.8 165.492 300.613 165.121 300.42 164.739Z" fill="#291914"/>
<path d="M135.728 55.1003C136.103 55.2859 136.478 55.4714 136.864 55.6626C136.864 56.5903 136.864 57.518 136.864 58.4738C135.927 58.6594 134.99 58.8449 134.025 59.0361C133.837 58.665 133.65 58.2939 133.457 57.9116C134.025 56.2248 134.025 56.2248 135.728 55.1003Z" fill="#DA2D2C"/>
<path d="M246.469 195.663C246.844 195.848 247.219 196.034 247.605 196.225C247.605 196.596 247.605 196.967 247.605 197.349C246.775 198.074 246.775 198.074 245.688 198.825C245.332 199.076 244.977 199.327 244.61 199.585C243.63 200.161 243.63 200.161 242.494 200.161C242.494 199.604 242.494 199.047 242.494 198.474C243.363 197.694 243.363 197.694 244.481 196.963C244.85 196.717 245.219 196.471 245.6 196.218C245.886 196.035 246.173 195.852 246.469 195.663Z" fill="#4F3024"/>
<path d="M285.654 177.671C286.591 177.856 287.528 178.042 288.494 178.233C288.494 178.79 288.494 179.346 288.494 179.92C287.182 180.105 285.87 180.291 284.518 180.482C284.893 179.554 285.268 178.626 285.654 177.671Z" fill="#626264"/>
<path d="M291.901 166.988C293.073 167.234 293.073 167.234 294.173 167.55C294.173 168.478 294.173 169.406 294.173 170.362C293.236 170.362 292.299 170.362 291.333 170.362C291.309 169.425 291.31 168.487 291.333 167.55C291.521 167.365 291.708 167.179 291.901 166.988Z" fill="#4E5057"/>
<path d="M130.617 60.7229C130.617 62.4096 130.617 62.4096 130.049 63.5341C130.612 63.7197 131.174 63.9052 131.753 64.0964C130.264 65.3074 129.116 66.0084 127.21 66.3454C127.988 64.0992 129.06 62.522 130.617 60.7229Z" fill="#D23A38"/>
<path d="M238.518 227.149C240.36 228.492 241.647 229.513 242.494 231.647C241.932 231.925 241.932 231.925 241.358 232.209C240.988 233.347 240.988 233.347 240.79 234.458C240.409 233.451 240.031 232.444 239.654 231.436C239.443 230.875 239.233 230.314 239.015 229.736C238.518 228.273 238.518 228.273 238.518 227.149Z" fill="#F5E8E1"/>
<path d="M278.272 166.426C279.021 166.611 279.771 166.797 280.543 166.988C280.65 168.323 280.65 168.323 280.543 169.799C279.981 170.17 279.419 170.541 278.839 170.924C278.272 170.362 278.272 170.362 278.236 168.359C278.248 167.721 278.26 167.083 278.272 166.426Z" fill="#4E4E53"/>
<path d="M289.062 172.048C289.624 172.234 290.186 172.419 290.765 172.61C290.765 173.538 290.765 174.466 290.765 175.422C289.828 175.422 288.891 175.422 287.926 175.422C288.423 172.681 288.423 172.681 289.062 172.048Z" fill="#4C4C50"/>
<path d="M141.407 47.229C141.782 47.229 142.157 47.229 142.543 47.229C142.356 48.5278 142.168 49.8266 141.975 51.1647C141.038 51.1647 140.101 51.1647 139.136 51.1647C139.323 50.4226 139.511 49.6804 139.704 48.9158C140.079 48.9158 140.453 48.9158 140.84 48.9158C141.027 48.3591 141.214 47.8025 141.407 47.229Z" fill="#E02D27"/>
<path d="M377.654 205.221C377.654 207.239 377.277 207.531 375.951 208.981C375.634 209.331 375.318 209.681 374.992 210.042C374.746 210.306 374.5 210.571 374.247 210.843C373.685 210.287 373.122 209.73 372.543 209.157C373.018 208.809 373.018 208.809 373.502 208.454C374.907 207.401 376.282 206.315 377.654 205.221Z" fill="#F1E7E1"/>
<path d="M373.679 165.864C374.496 165.928 375.312 166 376.128 166.074C376.81 166.133 376.81 166.133 377.506 166.193C378.79 166.426 378.79 166.426 380.494 167.55C376.942 168.309 376.942 168.309 374.85 167.339C374.464 167.038 374.077 166.736 373.679 166.426C373.679 166.24 373.679 166.055 373.679 165.864Z" fill="#50302C"/>
<path d="M15.9012 79.2771C17.9627 79.2771 20.0242 79.2771 22.1481 79.2771C22.1481 79.6482 22.1481 80.0193 22.1481 80.4016C22.7104 80.5871 23.2726 80.7727 23.8519 80.9638C22.1556 81.8035 21.0398 81.1924 19.2377 80.7179C18.6154 80.5562 17.9932 80.3946 17.352 80.2281C16.8733 80.0998 16.3945 79.9715 15.9012 79.8393C15.9012 79.6538 15.9012 79.4683 15.9012 79.2771Z" fill="#D93E3F"/>
<path d="M88.0247 49.478C88.0247 49.8491 88.0247 50.2202 88.0247 50.6025C87.4976 50.8345 86.9705 51.0664 86.4275 51.3053C84.6851 52.2524 83.9412 52.8991 82.9136 54.5383C82.7262 53.425 82.5388 52.3118 82.3457 51.1648C83.0783 50.8814 83.8121 50.6008 84.5463 50.3214C85.159 50.0866 85.159 50.0866 85.7841 49.847C86.8889 49.478 86.8889 49.478 88.0247 49.478Z" fill="#D53F42"/>
<path d="M320.296 175.984C321.233 175.984 322.17 175.984 323.136 175.984C322.948 176.912 322.761 177.839 322.568 178.795C321.818 178.61 321.069 178.424 320.296 178.233C320.296 177.491 320.296 176.749 320.296 175.984Z" fill="#535256"/>
<path d="M267.836 154.865C268.533 154.95 268.533 154.95 269.243 155.038C269.777 155.109 269.777 155.109 270.321 155.181C270.134 155.552 269.946 155.923 269.753 156.305C265.991 156.446 265.991 156.446 264.074 155.181C265.506 154.472 266.263 154.664 267.836 154.865Z" fill="#4B3330"/>
<path d="M294.173 175.984C295.578 176.262 295.578 176.262 297.012 176.546C296.825 177.288 296.638 178.03 296.444 178.795C295.695 178.61 294.945 178.424 294.173 178.233C294.173 177.491 294.173 176.749 294.173 175.984Z" fill="#424245"/>
<path d="M332.222 172.048C333.628 172.326 333.628 172.326 335.062 172.61C334.874 173.353 334.687 174.095 334.494 174.859C333.744 174.674 332.995 174.488 332.222 174.297C332.222 173.555 332.222 172.813 332.222 172.048Z" fill="#555659"/>
<path d="M199.901 163.052C200.225 164.291 200.511 165.52 200.753 166.777C200.978 168.114 200.978 168.114 201.605 169.237C200.505 168.921 200.505 168.921 199.333 168.112C198.836 166.145 198.836 166.145 198.765 164.177C199.14 163.806 199.515 163.435 199.901 163.052Z" fill="#6F4A3B"/>
<path d="M279.407 129.879C282.846 129.77 282.846 129.77 283.951 129.879C284.325 130.251 284.7 130.622 285.086 131.004C283.587 131.375 282.088 131.746 280.543 132.128C280.168 131.386 279.794 130.644 279.407 129.879Z" fill="#513323"/>
<path d="M74.963 119.197C74.963 120.884 74.963 120.884 73.8272 122.113C73.4523 122.45 73.0775 122.786 72.6914 123.133C72.6914 122.576 72.6914 122.019 72.6914 121.446C71.9417 121.26 71.1921 121.075 70.4198 120.884C71.919 120.327 73.4183 119.77 74.963 119.197Z" fill="#C94642"/>
<path d="M257.259 188.354C257.634 189.096 258.009 189.838 258.395 190.603C257.458 190.974 256.521 191.345 255.556 191.727C255.181 191.17 254.806 190.614 254.42 190.04C255.357 189.484 256.294 188.927 257.259 188.354Z" fill="#5A3931"/>
<path d="M339.037 167.55C339.599 167.736 340.161 167.921 340.741 168.113C340.178 168.947 340.178 168.947 339.605 169.799C339.792 170.17 339.98 170.541 340.173 170.924C339.423 170.924 338.674 170.924 337.901 170.924C337.714 170.182 337.526 169.439 337.333 168.675C337.896 168.304 338.458 167.933 339.037 167.55Z" fill="#665750"/>
<path d="M155.037 90.522C154.85 91.2641 154.662 92.0063 154.469 92.771C152.782 92.4927 152.782 92.4927 151.062 92.2087C151.062 91.8376 151.062 91.4666 151.062 91.0842C152.765 90.522 152.765 90.522 155.037 90.522Z" fill="#60659E"/>
<path d="M319.161 167.55C320.285 167.55 321.409 167.55 322.568 167.55C321.255 168.956 321.255 168.956 319.728 170.362C319.166 170.362 318.604 170.362 318.025 170.362C318.4 169.434 318.774 168.506 319.161 167.55Z" fill="#1D1310"/>
<path d="M345.284 138.875C346.384 139.086 346.384 139.086 347.556 139.438C347.743 139.809 347.93 140.18 348.123 140.562C346.718 141.397 346.718 141.397 345.284 142.249C344.645 140.141 344.645 140.141 345.284 138.875Z" fill="#493A35"/>
<path d="M326.543 91.6465C327.949 92.2031 327.949 92.2031 329.383 92.771C328.815 93.8955 328.815 93.8955 327.076 94.528C326.525 94.6904 325.975 94.8527 325.407 95.02C325.904 92.279 325.904 92.279 326.543 91.6465Z" fill="#F0E7E5"/>
<path d="M343.012 183.293C343.949 183.293 344.886 183.293 345.852 183.293C345.29 183.479 344.727 183.664 344.148 183.855C344.148 184.783 344.148 185.711 344.148 186.667C343.586 186.852 343.024 187.038 342.444 187.229C342.632 185.93 342.819 184.631 343.012 183.293Z" fill="#B5A59F"/>
<path d="M342.444 181.606C343.756 181.792 345.068 181.978 346.42 182.169C345.284 183.293 345.284 183.293 344.179 183.403C343.033 183.366 341.887 183.33 340.741 183.293C341.303 183.108 341.865 182.922 342.444 182.731C342.444 182.36 342.444 181.989 342.444 181.606Z" fill="#7C5141"/>
<path d="M325.975 178.795C327.381 179.073 327.381 179.073 328.815 179.357C328.815 179.914 328.815 180.471 328.815 181.044C327.878 181.044 326.941 181.044 325.975 181.044C325.975 180.302 325.975 179.56 325.975 178.795Z" fill="#373B3D"/>
<path d="M284.518 161.365C285.268 161.551 286.018 161.737 286.79 161.928C286.79 162.67 286.79 163.412 286.79 164.177C286.04 164.177 285.291 164.177 284.518 164.177C284.518 163.249 284.518 162.321 284.518 161.365Z" fill="#3F393C"/>
<path d="M298.716 171.486C299.84 171.764 299.84 171.764 300.988 172.048C300.988 172.605 300.988 173.161 300.988 173.735C300.051 173.735 299.114 173.735 298.148 173.735C298.336 172.993 298.523 172.25 298.716 171.486Z" fill="#515355"/>
<path d="M285.086 168.113C285.649 168.113 286.211 168.113 286.79 168.113C286.79 169.04 286.79 169.968 286.79 170.924C286.04 170.738 285.291 170.553 284.518 170.362C284.706 169.619 284.893 168.877 285.086 168.113Z" fill="#56565A"/>
<path d="M149.358 36.5461C149.92 36.5461 150.482 36.5461 151.062 36.5461C151.062 36.9172 151.062 37.2883 151.062 37.6706C150.687 37.6706 150.312 37.6706 149.926 37.6706C149.926 38.2273 149.926 38.7839 149.926 39.3574C149.176 39.3574 148.427 39.3574 147.654 39.3574C148.719 37.1787 148.719 37.1787 149.358 36.5461Z" fill="#E12B23"/>
<path d="M283.951 179.92C283.347 180.798 283.347 180.798 282.247 181.606C280.153 181.431 280.153 181.431 278.272 181.044C280.204 179.867 281.709 179.819 283.951 179.92Z" fill="#585453"/>
<path d="M277.704 169.799C279.109 170.356 279.109 170.356 280.543 170.924C280.356 171.48 280.168 172.037 279.975 172.611C279.226 172.611 278.476 172.611 277.704 172.611C277.704 171.683 277.704 170.755 277.704 169.799Z" fill="#E8E8EA"/>
<path d="M232.272 168.113C233.583 168.298 234.895 168.484 236.247 168.675C236.247 168.86 236.247 169.046 236.247 169.237C235.802 169.295 235.357 169.353 234.898 169.413C233.22 169.673 233.22 169.673 232.272 171.486C231.704 169.799 231.704 169.799 232.272 168.113Z" fill="#C5835C"/>
<path d="M201.605 160.241C202.776 160.487 202.776 160.487 203.877 160.803C203.238 161.682 203.238 161.682 202.173 162.49C200.363 162.314 200.363 162.314 198.765 161.928C199.129 161.754 199.492 161.58 199.866 161.401C201.001 160.896 201.001 160.896 201.605 160.241Z" fill="#54301C"/>
</g>
<defs>
<clipPath id="clip0_606_6781">
<rect width="460" height="280" fill="white"/>
</clipPath>
</defs>
</svg>
