<svg width="590" height="420" viewBox="0 0 590 420" fill="none" xmlns="http://www.w3.org/2000/svg">
<g clip-path="url(#clip0_417_1473)">
<path d="M177.824 9.68831C177.326 10.0841 176.828 10.48 176.315 10.8878C175.623 11.4263 175.623 11.4263 174.916 11.9757C162.839 22.0611 155.202 39.351 153.452 54.8491C152.425 67.3529 154.082 78.3596 162.041 88.3641C163.902 90.5792 165.804 92.4061 168.07 94.2011C168.708 95.0112 168.708 95.0112 169.359 95.8376C169.711 96.2795 170.063 96.7213 170.426 97.1766C170.815 97.1766 171.203 97.1766 171.604 97.1766C171.604 97.5693 171.604 97.9621 171.604 98.3668C170.957 98.6185 170.958 98.6185 170.298 98.8753C156.781 104.498 144.081 113.562 132.737 122.766C132.154 123.235 131.571 123.705 130.971 124.188C129.386 125.483 127.821 126.799 126.259 128.122C125.372 128.852 125.372 128.852 124.467 129.598C119.933 133.38 115.733 137.461 111.574 141.66C111.051 142.188 110.528 142.716 109.989 143.26C102.14 151.259 95.1174 160.072 88.5706 169.183C88.1855 169.717 88.1855 169.717 87.7926 170.261C79.8041 181.372 72.7552 193.051 65.9925 204.954C65.0636 206.589 64.1302 208.221 63.1956 209.852C60.0873 215.295 57.0691 220.779 54.1207 226.312C48.425 236.999 42.4239 247.496 36.1597 257.852C35.8682 258.336 35.5767 258.819 35.2763 259.317C31.2022 266.048 26.8986 272.511 22.0264 278.681C21.5664 279.264 21.1063 279.847 20.6324 280.447C15.473 286.607 8.54654 290.417 0.826447 292.368C0.826447 317.897 0.826447 343.427 0.826447 369.73C4.38919 369.73 7.63873 369.63 11.1251 369.142C11.8105 369.05 11.8106 369.05 12.5099 368.957C13.9772 368.759 15.4438 368.557 16.9104 368.354C17.9337 368.215 18.9569 368.077 19.9802 367.939C24.7933 367.286 29.5981 366.603 34.393 365.825C43.3252 364.386 52.3768 363.619 61.3752 362.722C62.2563 362.631 63.1366 362.532 64.0163 362.428C68.0705 361.966 72.0874 361.898 76.1649 361.894C76.89 361.892 77.6152 361.89 78.3623 361.888C79.8961 361.885 81.4299 361.884 82.9637 361.884C85.2534 361.882 87.5428 361.872 89.8324 361.86C99.1217 361.839 108.296 362.241 117.55 363.045C119.689 363.226 121.827 363.367 123.968 363.498C137.728 364.355 151.446 365.596 165.118 367.401C168.293 367.809 171.347 368.025 174.548 367.945C174.528 368.592 174.507 369.24 174.486 369.907C174.366 375.287 174.605 380.048 176.315 385.203C176.515 385.832 176.716 386.461 176.922 387.109C181.255 399.594 190.298 408.256 201.637 414.288C208.737 417.71 215.86 419.243 223.683 419.16C224.414 419.156 224.414 419.156 225.159 419.152C226.348 419.145 227.537 419.134 228.726 419.123C233.464 409.63 236.535 400.574 237.559 389.963C238.336 389.767 239.114 389.571 239.915 389.368C238.823 399.914 236.9 408.928 232.259 418.528C243.874 418.87 243.874 418.87 248.159 416.743C249.989 414.771 250.795 412.363 251.692 409.862C251.847 409.436 252.001 409.01 252.16 408.571C254.702 401.448 256.59 394.029 256.404 386.393C257.181 386.393 257.958 386.393 258.759 386.393C258.279 394.531 257.205 401.875 254.637 409.602C254.23 410.986 253.843 412.375 253.459 413.767C260.784 410.389 263.753 401.854 266.415 394.724C266.558 394.344 266.702 393.963 266.85 393.571C268.194 389.795 268.827 386.003 269.396 382.041C269.545 381.033 269.545 381.033 269.698 380.005C270.564 374.019 271.203 368.021 271.715 361.994C271.886 362.47 272.058 362.945 272.234 363.435C275.08 371.14 278.401 377.572 283.492 384.012C283.902 384.554 283.902 384.554 284.32 385.107C292.516 395.656 306.49 402.861 319.414 404.841C319.165 404.458 318.915 404.075 318.658 403.681C316.655 400.562 314.74 397.407 312.937 394.166C312.585 393.535 312.232 392.904 311.869 392.253C311.04 390.642 311.04 390.642 311.354 389.143C311.488 388.824 311.621 388.506 311.759 388.178C312.148 388.178 312.536 388.178 312.937 388.178C313.622 389.149 313.622 389.149 314.262 390.421C314.648 391.137 314.648 391.137 315.043 391.868C315.32 392.381 315.596 392.894 315.881 393.422C321.788 403.859 321.788 403.858 325.303 406.031C328.614 406.851 331.974 406.471 335.314 406.031C335.989 405.949 336.663 405.867 337.357 405.782C341.498 405.138 341.498 405.138 342.97 403.651C342.327 403.166 342.327 403.166 341.67 402.672C337.108 398.784 333.845 393.266 330.787 388.141C330.393 387.493 330.393 387.493 329.991 386.832C329.754 386.422 329.516 386.013 329.271 385.591C329.059 385.229 328.847 384.867 328.628 384.493C328.148 383.134 328.38 382.38 328.837 381.037C331.189 381.829 331.617 383.253 332.701 385.351C336.353 392.087 340.942 397.802 346.503 403.055C352.078 401.317 356.427 398.146 360.637 394.129C359.785 392.167 358.718 390.867 357.251 389.331C354.562 386.376 352.201 383.231 349.853 379.996C349.5 379.51 349.148 379.024 348.785 378.524C347.82 377.185 346.865 375.84 345.914 374.491C345.659 374.132 345.403 373.773 345.14 373.403C343.835 371.635 343.835 371.635 343.706 369.507C343.852 369.188 343.998 368.869 344.148 368.54C346.685 369.395 347.53 371.353 348.932 373.524C351.651 377.625 354.501 381.46 357.692 385.203C358.353 385.99 358.353 385.99 359.026 386.793C361.415 389.589 361.415 389.589 362.403 390.558C362.792 390.558 363.181 390.558 363.581 390.558C370.025 378.091 370.025 378.091 370.648 370.92C370.733 370.418 370.819 369.915 370.908 369.398C371.108 367.546 371.111 366.182 370.648 364.374C369.285 362.843 367.804 361.758 366.148 360.56C363.761 358.793 361.82 356.642 359.827 354.444C359.484 354.069 359.141 353.694 358.788 353.307C357.824 352.244 356.873 351.171 355.926 350.092C355.631 349.763 355.337 349.435 355.034 349.096C353.61 347.458 353.001 346.742 352.797 344.513C352.888 343.74 352.888 343.74 352.981 342.951C355.589 345.102 357.851 347.298 360.034 349.883C361.508 351.614 363.018 353.311 364.538 355.002C364.806 355.303 365.074 355.605 365.351 355.917C366.994 357.739 368.704 359.315 370.648 360.804C370.826 357.277 370.182 354.299 369.249 350.91C369.053 350.167 369.053 350.167 368.853 349.409C368.204 346.985 367.475 344.679 366.525 342.356C367.069 342.397 367.613 342.439 368.174 342.482C374.178 342.906 380.154 343.062 386.173 343.061C387.685 343.062 389.198 343.073 390.71 343.085C398.806 343.113 407.027 342.806 414.851 340.496C415.283 340.371 415.715 340.246 416.16 340.117C425.037 337.391 432.583 333.231 437.463 325.045C442.474 315.471 442.376 304.985 439.362 294.809C436.223 285.067 430.948 276.203 424.236 268.564C423.983 268.275 423.729 267.986 423.468 267.688C418.354 261.889 413.018 256.341 407.159 251.306C406.56 250.783 405.962 250.259 405.364 249.735C405.035 249.449 404.706 249.163 404.368 248.869C403.668 248.255 402.977 247.633 402.292 247.002C400.355 245.254 398.549 243.921 396.204 242.78C393.203 241.168 390.826 239.705 389.492 236.429C388.748 230.386 390.227 223.996 391.244 218.059C392.027 213.263 392.014 208.545 391.848 203.699C392.764 203.717 392.764 203.717 393.7 203.737C404.445 203.917 413.319 201.239 421.54 193.926C432.868 182.479 440.154 166.264 440.361 150.044C440.334 133.831 434.558 118.742 423.298 106.842C414.218 98.2921 405.666 95.5979 393.566 95.8004C382.51 96.2217 373.91 102.701 366.321 110.317C365.348 111.459 365.348 111.459 365.348 112.649C363.521 112.468 362.63 112.289 361.329 110.94C360.967 110.436 360.605 109.932 360.232 109.413C354.798 102.374 347.471 93.4997 339.437 89.4403C339.825 89.0476 340.214 88.6548 340.614 88.2502C338.54 84.8562 335.375 83.1153 331.781 81.7041C329.459 81.2089 327.131 81.005 324.767 80.8231C323.867 80.6701 323.867 80.6701 322.948 80.5139C322.559 79.9248 322.17 79.3356 321.77 78.7286C323.908 78.3359 326.045 77.9431 328.248 77.5385C328.248 77.3421 328.248 77.1457 328.248 76.9434C327.132 76.911 326.015 76.888 324.899 76.869C324.277 76.8552 323.655 76.8413 323.015 76.8271C321.155 76.945 319.93 77.393 318.237 78.1335C317.654 78.1335 317.071 78.1335 316.47 78.1335C315.959 76.7953 315.959 76.7953 315.881 75.1581C316.96 73.4853 316.96 73.4853 318.237 72.1826C316.037 72.4789 314.814 72.7033 312.937 73.9679C309.416 73.8447 305.922 72.4432 302.594 71.3643C288.343 66.765 273.626 64.9212 258.686 64.9671C257.526 64.9636 257.526 64.9636 256.344 64.9601C255.609 64.9609 254.874 64.9616 254.117 64.9624C253.121 64.9634 253.121 64.9634 252.104 64.9645C250.515 65.0415 250.515 65.0415 249.337 65.6366C249.543 64.9975 249.748 64.3585 249.96 63.7002C250.231 62.8456 250.502 61.9909 250.772 61.1361C250.908 60.7169 251.043 60.2977 251.183 59.8658C254.816 48.3211 254.125 33.7664 248.817 22.8315C248.6 22.425 248.383 22.0184 248.159 21.5995C247.779 20.8792 247.779 20.8792 247.391 20.1443C242.435 11.2929 234.726 5.03154 225.084 1.95905C209.556 -2.09612 191.016 -0.0139416 177.824 9.68831Z" fill="#F9FAFC"/>
<path d="M165.664 103.745C163.514 104.54 161.733 105.513 159.846 106.82C159.307 107.192 158.768 107.564 158.213 107.947C157.647 108.342 157.081 108.738 156.498 109.146C155.622 109.756 155.622 109.756 154.727 110.378C141.822 119.397 130.132 129.554 119.007 140.717C118.415 141.311 117.822 141.904 117.228 142.497C113.266 146.454 109.633 150.579 106.176 154.995C105.586 155.722 104.995 156.448 104.402 157.172C90.0702 174.884 78.354 195.26 69.6581 216.377C69.3506 217.117 69.3506 217.117 69.0369 217.873C63.099 232.309 57.6726 247.568 54.3442 262.86C54.0996 263.977 54.0996 263.977 53.8501 265.118C51.2031 277.309 49.0222 289.12 48.8224 301.633C48.8069 302.258 48.7914 302.882 48.7754 303.526C48.7673 307.614 49.4423 310.54 51.3992 314.11C51.5864 314.47 51.7736 314.83 51.9664 315.2C52.9347 317.009 54.0068 318.739 55.1141 320.461C56.1971 322.167 57.0949 323.871 57.939 325.708C59.5634 328.835 61.3053 331.358 64.3571 333.18C70.5615 334.78 77.2726 334.18 83.6161 333.909C87.8104 333.738 92.0073 333.658 96.2043 333.595C96.8732 333.582 96.8732 333.582 97.5557 333.57C104.379 333.467 110.115 334.287 116.273 337.426C124.221 341.216 133.516 342.124 142.105 343.311C142.586 343.38 143.066 343.448 143.562 343.519C150.667 344.5 157.798 344.718 164.958 344.896C176.362 344.544 176.362 344.544 185.985 349.643C187.317 351.778 187.542 352.962 187.602 355.484C187.621 356.14 187.639 356.795 187.658 357.471C187.677 358.17 187.695 358.868 187.715 359.588C188.136 371.992 190.432 382.435 196.292 393.37C196.681 393.37 197.07 393.37 197.47 393.37C202.204 384.628 204.786 376.622 205.127 366.553C205.904 366.553 206.682 366.553 207.483 366.553C206.859 376.786 205.278 385.291 199.92 394.141C199.237 395.754 199.237 395.754 199.568 396.988C203.086 401.765 207.312 406.107 212.195 409.46C212.778 409.46 213.361 409.46 213.962 409.46C218.192 400.33 220.099 391.46 221.03 381.451C221.807 381.255 222.585 381.058 223.386 380.855C223.23 390.176 221.441 399.577 217.505 408.045C216.887 409.508 216.572 410.874 216.318 412.44C217.812 413.228 219.309 414.009 220.809 414.786C221.439 415.12 221.439 415.12 222.081 415.46C224.487 416.7 226.549 417.529 229.276 417.803C234.04 409.038 236.563 400.335 237.522 390.39C238.299 390.194 239.077 389.997 239.878 389.794C238.785 400.355 236.863 409.382 232.221 418.995C243.838 419.338 243.838 419.338 248.124 417.207C249.954 415.233 250.76 412.822 251.658 410.317C251.812 409.89 251.966 409.464 252.125 409.024C254.668 401.891 256.556 394.462 256.37 386.815C257.147 386.815 257.925 386.815 258.726 386.815C258.246 394.965 257.171 402.319 254.603 410.056C254.195 411.443 253.809 412.834 253.425 414.228C260.751 410.845 263.721 402.298 266.383 395.158C266.598 394.586 266.598 394.586 266.818 394.003C268.162 390.222 268.795 386.425 269.364 382.457C269.464 381.784 269.564 381.111 269.666 380.418C270.533 374.423 271.172 368.417 271.683 362.381C271.855 362.858 272.027 363.334 272.203 363.825C275.05 371.541 278.371 377.981 283.463 384.431C283.737 384.793 284.01 385.155 284.292 385.527C292.489 396.091 306.465 403.306 319.392 405.289C319.017 404.714 319.017 404.714 318.635 404.127C316.632 401.004 314.716 397.844 312.913 394.599C312.561 393.967 312.209 393.335 311.846 392.683C311.016 391.07 311.016 391.07 311.33 389.569C311.464 389.25 311.598 388.931 311.735 388.603C312.124 388.603 312.513 388.603 312.913 388.603C313.599 389.575 313.599 389.575 314.238 390.849C314.496 391.327 314.754 391.805 315.02 392.297C315.296 392.811 315.573 393.325 315.858 393.854C321.766 404.305 321.766 404.305 325.282 406.481C328.593 407.302 331.954 406.921 335.295 406.481C335.969 406.398 336.643 406.316 337.338 406.232C341.48 405.586 341.48 405.586 342.952 404.097C342.523 403.773 342.094 403.45 341.652 403.117C337.089 399.223 333.825 393.697 330.767 388.565C330.504 388.133 330.241 387.7 329.971 387.254C329.614 386.639 329.614 386.639 329.251 386.012C328.932 385.468 328.932 385.468 328.607 384.913C328.127 383.551 328.359 382.796 328.816 381.451C331.169 382.245 331.597 383.671 332.681 385.772C336.333 392.517 340.924 398.241 346.486 403.501C352.061 401.76 356.411 398.584 360.622 394.562C359.77 392.597 358.703 391.296 357.235 389.757C354.546 386.798 352.184 383.649 349.836 380.408C349.483 379.922 349.131 379.436 348.768 378.935C347.803 377.594 346.847 376.247 345.897 374.896C345.514 374.357 345.514 374.357 345.122 373.806C343.817 372.036 343.817 372.036 343.688 369.905C343.834 369.585 343.98 369.266 344.13 368.937C346.668 369.792 347.513 371.754 348.916 373.928C351.634 378.034 354.485 381.875 357.677 385.623C358.337 386.411 358.337 386.411 359.011 387.215C361.401 390.015 361.401 390.015 362.389 390.986C362.778 390.986 363.166 390.986 363.567 390.986C370.012 378.501 370.012 378.501 370.635 371.32C370.721 370.817 370.806 370.314 370.895 369.796C371.095 367.941 371.099 366.575 370.635 364.765C369.272 363.232 367.791 362.146 366.134 360.945C363.746 359.176 361.805 357.022 359.812 354.82C359.469 354.445 359.126 354.069 358.773 353.683C357.809 352.618 356.857 351.543 355.91 350.463C355.616 350.134 355.322 349.805 355.018 349.466C353.594 347.824 352.985 347.108 352.781 344.876C352.842 344.359 352.902 343.843 352.965 343.311C355.573 345.465 357.836 347.665 360.019 350.253C361.494 351.987 363.003 353.686 364.524 355.379C364.792 355.681 365.06 355.984 365.337 356.295C366.98 358.12 368.691 359.698 370.635 361.189C370.813 357.657 370.169 354.676 369.236 351.282C369.105 350.786 368.975 350.289 368.84 349.778C368.191 347.352 367.462 345.042 366.512 342.715C367.056 342.757 367.6 342.799 368.16 342.842C374.166 343.266 380.143 343.422 386.162 343.422C387.675 343.423 389.188 343.434 390.701 343.445C398.798 343.474 407.021 343.167 414.846 340.853C415.494 340.665 415.494 340.665 416.155 340.473C425.034 337.744 432.581 333.578 437.463 325.38C442.474 315.792 442.376 305.292 439.361 295.102C436.222 285.345 430.946 276.47 424.233 268.819C423.98 268.53 423.726 268.24 423.465 267.942C418.349 262.135 413.013 256.58 407.152 251.537C406.547 251.006 405.942 250.474 405.337 249.943C401.625 246.686 397.868 243.489 394.047 240.363C393.668 240.05 393.289 239.737 392.898 239.414C390.211 237.235 390.211 237.235 388.894 237.235C388.782 237.752 388.67 238.269 388.554 238.801C385.788 251.45 382.474 263.725 378.292 275.971C378.095 276.555 377.898 277.14 377.695 277.743C372.239 293.873 363.733 306.358 348.688 314.562C340.367 318.684 331.875 320.124 322.691 320.212C322.182 320.218 321.672 320.223 321.148 320.229C319.507 320.244 317.867 320.252 316.226 320.256C315.665 320.258 315.104 320.26 314.525 320.261C304.949 320.268 295.824 319.551 286.408 317.686C285.926 317.591 285.444 317.496 284.947 317.398C283.053 317.018 281.162 316.623 279.274 316.213C277.082 315.807 275.081 315.761 272.861 315.898C271.15 321.034 270.019 326.022 269.328 331.393C269.244 330.96 269.161 330.527 269.076 330.082C268.696 328.11 268.312 326.138 267.929 324.167C267.798 323.486 267.667 322.806 267.533 322.104C267.404 321.444 267.275 320.783 267.142 320.102C267.025 319.497 266.907 318.892 266.787 318.268C266.587 317.39 266.587 317.39 266.383 316.494C266.171 315.54 266.171 315.54 265.956 314.567C265.205 312.919 265.205 312.919 263.72 312.07C258.742 310.67 254.014 310.112 248.86 309.902C230.079 308.911 214.422 304.288 200.766 290.715C196.216 286.216 191.553 283.25 185.924 280.304C175.359 274.634 165.293 267.789 156.24 259.88C155.774 259.475 155.308 259.069 154.828 258.651C137.265 243.009 122.707 222.829 120.901 198.499C120.542 190.747 120.377 182.862 122.079 175.257C122.173 174.734 122.267 174.211 122.364 173.672C127.018 151.049 142.156 130.375 156.829 113.28C157.312 112.717 157.795 112.154 158.293 111.574C160.61 108.918 162.925 106.544 165.664 104.341C165.664 104.144 165.664 103.947 165.664 103.745Z" fill="#38393A"/>
<path d="M148.946 66.0955C146.143 66.543 146.143 66.543 144.816 67.8855C144.816 68.4762 144.816 69.0669 144.816 69.6755C144.438 69.5532 144.06 69.4309 143.671 69.3049C138.662 67.7271 134.119 67.193 128.887 67.2888C128.887 67.6826 128.887 68.0764 128.887 68.4821C131.474 70.2721 131.474 70.2721 133.017 70.2721C133.175 70.6167 133.333 70.9613 133.496 71.3163C134.207 72.6791 135.041 73.8249 135.966 75.0454C135.582 74.8439 135.197 74.6424 134.8 74.4348C134.027 74.0356 134.027 74.0356 133.238 73.6284C132.731 73.3653 132.225 73.1023 131.703 72.8313C128.608 71.3766 125.878 70.7069 122.471 70.4959C121.791 70.4513 121.111 70.4067 120.411 70.3607C119.898 70.3315 119.385 70.3022 118.857 70.2721C118.857 70.6659 118.857 71.0597 118.857 71.4655C118.522 71.4891 118.187 71.5128 117.842 71.5371C111.206 72.0282 105.058 72.626 98.7983 75.0454C98.7983 75.2423 98.7983 75.4392 98.7983 75.6421C99.5592 75.6652 99.5592 75.6652 100.335 75.6887C109.02 76.0998 109.02 76.0998 116.421 80.201C116.836 80.6656 117.25 81.1301 117.677 81.6088C117.015 81.4003 116.353 81.1919 115.67 80.9771C106.964 78.284 106.964 78.284 102.338 78.0288C103.518 79.2221 103.518 79.2221 105.583 80.0798C107.763 80.8411 107.763 80.8411 108.828 82.8021C108.207 82.5191 107.587 82.236 106.947 81.9444C101.633 79.5206 94.3304 79.5165 88.8057 81.3104C85.5788 82.695 82.6925 84.7841 80.5093 87.5754C80.5093 88.363 80.5093 89.1506 80.5093 89.9621C80.8987 89.9621 81.288 89.9621 81.6892 89.9621C81.6892 90.3559 81.6892 90.7497 81.6892 91.1554C81.3455 91.2431 81.0017 91.3308 80.6476 91.4211C77.0882 92.406 73.9368 93.7784 70.6665 95.4976C69.2884 96.2215 67.9104 96.9248 66.5136 97.6092C47.4148 106.997 29.5101 119.673 13.898 134.206C12.6254 135.392 12.6254 135.392 10.8929 136.502C10.8929 136.896 10.8929 137.29 10.8929 137.695C10.5035 137.695 10.1141 137.695 9.71292 137.695C9.71292 138.089 9.71292 138.483 9.71292 138.889C9.39256 139.035 9.07219 139.181 8.74213 139.331C5.46149 141.105 2.61971 143.282 0.863373 146.645C-0.348373 151.213 0.0432739 156.126 0.126633 160.81C0.128464 162.251 0.127426 163.692 0.123749 165.133C0.122284 168.226 0.140579 171.319 0.177231 174.412C0.230164 178.884 0.246887 183.355 0.25502 187.827C0.269196 195.084 0.312302 202.34 0.373795 209.597C0.433456 216.642 0.479355 223.687 0.506897 230.733C0.509445 231.385 0.509445 231.385 0.512054 232.051C0.520523 234.233 0.528732 236.415 0.536789 238.597C0.603973 256.675 0.718674 274.751 0.863373 292.829C10.7367 291.472 18.1482 285.351 24.162 277.606C28.3741 271.995 32.052 266.024 35.6716 260.012C35.9668 259.522 36.2619 259.033 36.5661 258.528C38.6518 255.059 40.7094 251.574 42.7512 248.079C43.0116 247.633 43.272 247.188 43.5403 246.729C49.0874 237.215 54.3046 227.511 59.5544 217.826C69.7086 199.105 80.6347 180.905 93.4886 163.949C93.7687 163.578 94.0487 163.207 94.3373 162.824C97.5353 158.599 100.822 154.534 104.412 150.64C105.566 149.374 106.684 148.092 107.795 146.788C110.148 144.059 112.638 141.484 115.17 138.926C115.639 138.453 116.107 137.979 116.59 137.491C119.947 134.131 123.393 131.087 127.117 128.149C128.212 127.206 129.306 126.261 130.399 125.315C142.245 115.351 155.41 107.46 168.989 100.178C170.007 99.6083 170.986 98.9683 171.955 98.3154C171.955 97.1221 171.955 97.1221 170.812 95.8542C169.836 94.8953 168.836 93.9964 167.793 93.1132C161.779 87.9785 157.619 81.7377 155.399 74.0759C155.216 73.6082 155.034 73.1406 154.845 72.6588C153.592 72.1367 153.592 72.1367 152.486 72.0621C152.486 72.4559 152.486 72.8497 152.486 73.2555C150.626 72.4003 150.626 72.4003 148.946 70.8688C148.619 69.1703 148.773 67.8438 148.946 66.0955Z" fill="#EDEFF5"/>
<path d="M169.624 100.398C156.269 104.468 143.768 114.309 133.031 122.994C132.447 123.464 131.863 123.933 131.261 124.416C129.672 125.709 128.104 127.025 126.539 128.346C125.946 128.833 125.354 129.32 124.743 129.821C120.199 133.601 115.989 137.678 111.821 141.874C111.297 142.402 110.773 142.929 110.233 143.473C102.366 151.466 95.3276 160.272 88.7663 169.376C88.509 169.732 88.2516 170.087 87.9865 170.454C79.9803 181.555 72.9156 193.225 66.1379 205.119C65.207 206.753 64.2714 208.383 63.3347 210.013C60.2195 215.452 57.1946 220.932 54.2397 226.461C48.5313 237.14 42.5168 247.628 36.2386 257.977C35.9465 258.46 35.6543 258.943 35.3533 259.441C31.2701 266.166 26.9569 272.624 22.0739 278.789C21.6128 279.372 21.1517 279.954 20.6767 280.554C15.5058 286.71 8.56395 290.517 0.826691 292.466C0.826691 317.975 0.826691 343.485 0.826691 369.768C4.39737 369.768 7.65416 369.668 11.1483 369.181C11.6063 369.119 12.0643 369.058 12.5362 368.995C14.0068 368.798 15.4766 368.596 16.9465 368.393C17.972 368.255 18.9976 368.117 20.0231 367.979C24.8469 367.326 29.6624 366.643 34.468 365.866C43.4201 364.428 52.4918 363.662 61.5103 362.765C62.3933 362.674 63.2757 362.576 64.1573 362.472C68.2205 362.01 72.2464 361.942 76.3329 361.938C77.0597 361.936 77.7865 361.934 78.5352 361.932C80.0725 361.929 81.6097 361.928 83.1469 361.928C85.4416 361.926 87.7362 361.916 90.0309 361.904C99.3408 361.883 108.536 362.285 117.811 363.089C119.953 363.269 122.096 363.409 124.243 363.541C138.034 364.397 151.781 365.637 165.484 367.441C168.666 367.849 171.727 368.064 174.935 367.984C174.915 368.631 174.894 369.278 174.873 369.945C174.753 375.321 174.993 380.078 176.706 385.229C176.907 385.857 177.108 386.486 177.315 387.133C181.657 399.609 190.72 408.264 202.085 414.292C209.201 417.711 216.34 419.243 224.18 419.16C224.668 419.157 225.156 419.155 225.659 419.152C226.851 419.145 228.042 419.134 229.234 419.123C229.526 418.24 229.526 418.24 229.824 417.339C228.213 416.67 226.602 416.001 224.992 415.332C224.311 415.049 224.311 415.049 223.616 414.761C221.362 413.825 219.106 412.893 216.839 411.987C217.103 411.402 217.367 410.818 217.639 410.215C221.815 400.677 224.642 390.969 223.922 380.472C222.948 380.668 221.974 380.864 220.971 381.066C220.92 381.665 220.869 382.264 220.816 382.88C219.953 391.948 218.143 400.897 213.888 409.014C206.692 403.803 206.692 403.803 200.904 397.121C200.904 394.308 201.883 392.568 203.117 390.134C206.948 382.213 208.438 374.999 207.986 366.2C207.207 366.2 206.428 366.2 205.626 366.2C205.57 366.553 205.514 366.906 205.456 367.269C204.05 375.956 202.588 384.159 197.953 391.77C197.953 392.162 197.953 392.555 197.953 392.959C197.564 392.959 197.174 392.959 196.773 392.959C196.716 392.65 196.659 392.341 196.6 392.023C196.151 390.472 195.495 389.096 194.781 387.653C190.984 379.949 189.178 372.217 188.996 363.61C188.982 362.946 188.968 362.282 188.954 361.598C188.928 360.224 188.91 358.851 188.898 357.477C188.805 353.685 188.711 351.229 186.149 348.361C180.758 343.215 172.551 344.176 165.614 344.026C148.108 343.636 128.713 342.563 112.52 335.128C107.65 332.952 103.399 332.58 98.1532 332.822C96.8087 332.879 95.4662 332.909 94.1208 332.931C90.3031 332.996 86.4879 333.077 82.6734 333.249C72.4109 334.119 72.4109 334.119 62.8996 331.226C60.2494 328.663 58.5092 325.736 56.966 322.4C56.0048 320.375 54.7873 318.592 53.5388 316.734C50.4427 311.678 49.5112 307.607 49.5919 301.682C49.5987 301.027 49.6056 300.371 49.6126 299.696C50.2029 269.059 60.9677 237.426 73.4212 209.811C73.7448 209.083 73.7448 209.083 74.075 208.34C77.6931 200.223 81.9464 192.512 86.4055 184.837C86.6872 184.349 86.9689 183.862 87.2591 183.36C96.5454 167.388 108.097 152.621 121.131 139.586C122.155 138.561 123.173 137.528 124.191 136.496C128.138 132.514 132.198 128.877 136.572 125.373C137.216 124.818 137.857 124.258 138.491 123.691C143.38 119.353 148.635 115.7 154.048 112.057C156.669 110.283 159.26 108.464 161.855 106.65C163.407 105.571 164.947 104.534 166.573 103.569C167.988 102.694 168.72 101.787 169.624 100.398Z" fill="#DCDEE4"/>
<path d="M178.375 9.67587C177.878 10.0712 177.381 10.4665 176.869 10.8738C176.178 11.4116 176.178 11.4116 175.473 11.9603C163.419 22.0328 155.797 39.3005 154.05 54.7787C153.084 66.5491 154.355 77.2943 161.587 86.9482C162.018 87.5412 162.018 87.5412 162.457 88.1461C165.455 91.9484 169.351 94.4303 173.342 97.0518C175.233 96.2345 176.707 95.0833 178.287 93.7664C183.365 89.5377 188.805 86.0952 194.501 82.7879C194.906 82.5504 195.311 82.3129 195.729 82.0682C208.675 74.5549 223.369 69.2221 238.202 67.3329C238.9 67.2428 239.598 67.1526 240.318 67.0597C241.652 66.9005 242.99 66.7645 244.329 66.6555C248.682 66.1599 248.682 66.1599 250.068 64.4058C250.7 63.0164 251.133 61.6819 251.513 60.2033C251.716 59.6095 251.919 59.0158 252.129 58.404C254.982 46.4629 254.416 32.519 248.574 21.5718C248.321 21.0922 248.068 20.6126 247.808 20.1185C242.862 11.2784 235.167 5.02508 225.544 1.95654C210.046 -2.09343 191.542 -0.0139228 178.375 9.67587Z" fill="#363738"/>
<path d="M376.334 101.708C371.931 104.787 367.554 108.538 364.577 113.087C364.672 116.011 366.36 118.004 367.994 120.274C379.666 137.107 387.203 155.664 390.442 175.97C390.632 177.094 390.632 177.094 390.826 178.241C392.077 186.774 392.01 195.506 392.206 204.117C393.609 204.125 395.012 204.131 396.415 204.136C396.809 204.138 397.203 204.141 397.608 204.143C406.819 204.166 414.941 200.475 421.847 194.282C433.154 182.763 440.428 166.444 440.634 150.121C440.608 133.805 434.841 118.619 423.601 106.644C410.183 93.9065 391.991 91.5621 376.334 101.708Z" fill="#393A3B"/>
<path d="M0.826691 343.883C0.826691 352.485 0.826691 361.087 0.826691 369.95C4.39737 369.95 7.65416 369.85 11.1483 369.365C11.8353 369.274 11.8353 369.274 12.5362 369.18C14.0068 368.984 15.4766 368.782 16.9465 368.58C17.972 368.443 18.9976 368.305 20.0231 368.167C24.8469 367.518 29.6624 366.837 34.468 366.063C43.4201 364.63 52.4918 363.867 61.5103 362.973C62.3933 362.883 63.2757 362.785 64.1573 362.681C68.2205 362.221 72.2464 362.153 76.3329 362.149C77.0597 362.147 77.7865 362.145 78.5352 362.143C80.0725 362.14 81.6097 362.139 83.1469 362.139C85.4416 362.138 87.7362 362.127 90.0309 362.116C99.3408 362.095 108.536 362.495 117.811 363.296C119.953 363.475 122.096 363.615 124.243 363.746C138.034 364.599 151.781 365.835 165.484 367.631C168.666 368.038 171.727 368.253 174.935 368.173C174.905 369.14 174.905 369.14 174.873 370.126C174.753 375.483 174.993 380.223 176.706 385.354C176.907 385.98 177.108 386.606 177.315 387.252C181.657 399.681 190.72 408.305 202.085 414.31C209.201 417.717 216.34 419.243 224.18 419.16C224.668 419.158 225.156 419.155 225.659 419.152C226.851 419.145 228.042 419.135 229.234 419.123C229.428 418.537 229.623 417.95 229.824 417.346C228.213 416.679 226.602 416.013 224.992 415.346C224.538 415.159 224.084 414.971 223.616 414.777C221.362 413.845 219.106 412.917 216.839 412.014C217.235 411.14 217.235 411.14 217.639 410.248C221.815 400.745 224.642 391.073 223.922 380.614C222.948 380.81 221.974 381.005 220.971 381.207C220.92 381.803 220.869 382.4 220.816 383.014C219.953 392.048 218.143 400.964 213.888 409.052C206.692 403.86 206.692 403.86 200.904 397.203C200.904 394.4 201.883 392.666 203.117 390.242C206.948 382.349 208.438 375.162 207.986 366.396C207.207 366.396 206.428 366.396 205.626 366.396C205.57 366.747 205.514 367.099 205.456 367.461C204.05 376.115 202.588 384.288 197.953 391.871C197.953 392.262 197.953 392.653 197.953 393.056C197.564 393.056 197.174 393.056 196.773 393.056C196.716 392.748 196.659 392.44 196.6 392.123C196.151 390.578 195.495 389.207 194.781 387.769C189.925 377.951 189.013 368.396 188.847 357.548C188.828 356.883 188.81 356.218 188.791 355.533C188.779 354.931 188.768 354.329 188.756 353.708C188.51 352.177 188.51 352.177 187.857 351.198C186.171 349.994 184.832 350.248 182.782 350.319C181.921 350.337 181.06 350.353 180.2 350.367C179.732 350.375 179.265 350.383 178.783 350.391C176.108 350.407 173.439 350.301 170.766 350.201C170.178 350.18 169.589 350.158 168.983 350.136C167.089 350.067 165.196 349.995 163.302 349.923C161.946 349.873 160.59 349.822 159.233 349.772C156.393 349.667 153.552 349.56 150.712 349.452C147.152 349.318 143.592 349.185 140.031 349.054C125.614 348.522 111.2 347.958 96.791 347.232C88.8505 346.833 80.9103 346.559 72.9624 346.356C71.4745 346.275 70.0271 346.142 68.5484 345.975C63.8989 345.493 59.2244 345.384 54.5555 345.214C53.5171 345.175 52.4787 345.136 51.4402 345.097C49.264 345.015 47.0877 344.935 44.9113 344.856C42.7132 344.776 40.5151 344.694 38.3171 344.61C25.8102 344.13 13.3446 343.779 0.826691 343.883Z" fill="#D2F1F9"/>
<path d="M389.825 172.351C389.437 172.351 389.049 172.351 388.649 172.351C388.644 173.083 388.638 173.816 388.633 174.57C388.455 194.798 387.278 213.963 382.183 233.631C382 234.35 382 234.35 381.814 235.083C377.632 251.292 370.392 267.488 359.477 280.186C358.081 281.822 358.081 281.822 358.081 283.012C357.693 283.012 357.305 283.012 356.905 283.012C356.178 283.791 356.178 283.791 355.351 284.86C345.766 296.524 329.225 303.847 314.58 305.62C312.176 305.77 309.786 305.791 307.379 305.769C306.414 305.763 306.414 305.763 305.43 305.757C300.363 305.692 295.477 305.3 290.478 304.43C290.059 304.363 289.64 304.296 289.208 304.227C283.778 303.349 278.465 302.174 273.169 300.684C272.732 300.562 272.295 300.44 271.845 300.315C269.657 299.703 267.475 299.077 265.298 298.427C260.205 296.952 255.795 296.406 250.504 297.291C250.049 297.365 249.595 297.44 249.126 297.517C247.953 297.73 246.785 297.975 245.618 298.22C236.419 299.972 227.122 299.843 218.87 294.799C213.353 290.89 209.077 286.34 205.028 280.946C204.771 280.608 204.513 280.271 204.248 279.923C203.451 278.849 203.451 278.849 202.774 277.634C200.19 273.452 196.621 272.529 192.123 271.113C190.627 270.611 189.135 270.096 187.643 269.581C186.924 269.336 186.205 269.09 185.464 268.837C162.821 260.827 139.526 243.055 128.769 221.021C127.277 217.781 125.88 214.494 124.704 211.122C124.116 209.833 124.116 209.833 122.352 208.643C124.721 221.95 131.849 234.295 140.576 244.34C140.971 244.805 141.365 245.269 141.772 245.748C147.902 252.822 154.438 259.425 161.923 265.017C162.87 265.725 163.806 266.447 164.742 267.169C172.679 273.135 181.335 278.177 190.012 282.951C193.665 284.961 196.592 286.985 199.361 290.151C200.876 291.604 202.464 292.96 204.064 294.316C204.348 294.562 204.632 294.807 204.925 295.061C218.528 306.754 233.645 309.611 251.146 310.453C255.062 310.678 258.576 311.063 262.285 312.391C263.437 312.76 263.437 312.76 265.2 312.76C265.35 313.522 265.499 314.284 265.653 315.07C266.828 321.053 268.028 327.028 269.315 332.988C269.509 332.988 269.703 332.988 269.903 332.988C269.951 332.656 269.998 332.323 270.046 331.981C270.266 330.445 270.489 328.909 270.712 327.373C270.786 326.851 270.86 326.328 270.937 325.789C271.432 322.396 272.07 319.075 272.843 315.734C273.429 315.836 274.016 315.937 274.62 316.041C282.636 317.414 290.668 318.682 298.708 319.899C299.34 320.006 299.972 320.113 300.622 320.223C303.257 320.548 305.835 320.59 308.486 320.594C309.023 320.596 309.56 320.598 310.113 320.6C311.247 320.603 312.38 320.604 313.513 320.604C315.224 320.606 316.934 320.616 318.644 320.628C324.468 320.645 330.019 320.492 335.743 319.304C336.331 319.19 336.92 319.076 337.526 318.959C351.319 316.157 362.027 306.816 370.121 295.611C374.374 288.894 376.867 281.251 379.281 273.716C379.589 272.763 379.898 271.81 380.207 270.857C382.406 264.047 384.543 257.232 386.298 250.289C386.426 249.802 386.553 249.315 386.685 248.813C390.86 232.598 391.802 215.81 391.846 199.123C391.849 198.535 391.853 197.947 391.857 197.341C391.891 188.877 391.164 180.704 389.825 172.351Z" fill="#DCDEE4"/>
<path d="M571.253 333.447C553.347 333.366 535.442 333.303 517.536 333.265C515.42 333.26 513.305 333.256 511.189 333.251C510.768 333.25 510.347 333.249 509.913 333.248C503.1 333.233 496.288 333.205 489.475 333.172C482.481 333.138 475.486 333.118 468.492 333.111C464.565 333.107 460.638 333.096 456.711 333.07C453.013 333.045 449.316 333.038 445.618 333.043C444.262 333.042 442.907 333.035 441.551 333.022C428.795 332.899 428.795 332.899 424.024 337.02C419.855 339.055 415.492 340.304 410.994 341.337C410.573 341.434 410.151 341.532 409.717 341.632C402.955 343.088 396.167 343.069 389.286 343.052C387.747 343.049 386.209 343.052 384.67 343.056C378.333 343.058 372.042 342.835 365.721 342.379C365.877 342.869 365.877 342.869 366.036 343.368C368.833 351.928 368.833 351.928 369.844 360.838C366.165 357.179 362.6 353.491 359.243 349.525C358.303 348.429 357.358 347.337 356.409 346.25C355.968 345.74 355.527 345.23 355.072 344.705C353.943 343.57 353.943 343.57 352.765 343.57C352.25 345.101 352.25 345.101 352.176 347.143C353.13 348.725 354.402 349.948 355.71 351.237C356.425 351.974 357.139 352.712 357.854 353.451C358.199 353.802 358.544 354.152 358.899 354.514C360.004 355.658 361.028 356.856 362.04 358.084C364.209 360.624 366.619 362.965 369.255 365.006C369.643 365.006 370.032 365.006 370.432 365.006C370.238 367.954 370.044 370.901 369.844 373.938C373.996 374.141 377.864 373.647 381.94 372.914C386.18 372.157 390.433 371.567 394.703 371.015C397.762 370.61 400.764 370.08 403.785 369.447C406.597 368.897 409.442 368.638 412.287 368.319C414.253 368.034 416.108 367.616 418.027 367.106C420.574 366.485 423.169 366.106 425.754 365.676C430.084 364.935 434.35 364.109 438.614 363.043C443.11 361.936 447.647 361.025 452.181 360.094C459.203 358.65 466.207 357.139 473.198 355.554C481.141 353.754 489.091 351.995 497.049 350.269C497.555 350.159 498.061 350.049 498.581 349.936C504.403 348.67 510.231 347.445 516.072 346.272C530.67 343.337 545.242 340.246 559.782 337.028C560.701 336.825 561.62 336.624 562.54 336.424C563.8 336.149 565.058 335.869 566.316 335.587C567.018 335.432 567.72 335.276 568.444 335.116C570.075 334.638 570.075 334.638 571.253 333.447Z" fill="#D2F1F9"/>
<path d="M184.05 151.549C182.608 152.687 181.217 153.867 179.834 155.076C179.409 155.417 178.984 155.757 178.546 156.108C175.551 158.557 173.479 161.208 171.545 164.552C170.996 165.486 170.996 165.486 170.435 166.439C167.767 175.485 171.076 184.953 175.227 192.984C176.856 195.718 178.499 197.809 181.166 199.565C181.584 199.848 182.003 200.13 182.433 200.421C186.154 202.46 189.469 203.364 193.71 203.304C194.174 203.298 194.638 203.292 195.116 203.286C212.125 202.782 233.187 194.074 244.959 181.725C250.643 174.676 254.858 166.384 254.615 157.135C254.042 152.532 251.389 148.58 247.92 145.601C229.402 133.357 201.224 139.359 184.05 151.549Z" fill="#353737"/>
<path d="M302.887 185.277C295.425 191.437 292.405 200.613 291.15 210.029C289.83 225.619 297.387 247.246 306.988 259.463C310.978 263.849 314.904 266.606 320.877 266.889C330.066 267.03 338.548 263.394 345.303 257.05C350.177 251.32 350.871 244.084 350.397 236.83C348.808 218.464 341.291 201.416 327.299 189.332C320.278 183.685 311.101 179.242 302.887 185.277Z" fill="#363738"/>
<path d="M178.359 9.67587C177.863 10.0712 177.366 10.4665 176.854 10.8738C176.163 11.4116 176.163 11.4116 175.459 11.9603C163.413 22.0328 155.795 39.3005 154.05 54.7787C153.084 66.5491 154.355 77.2943 161.582 86.9482C162.013 87.5412 162.013 87.5412 162.452 88.1461C165.448 91.9484 169.342 94.4303 173.33 97.0518C174.87 96.4285 175.558 96.0716 176.414 94.6002C176.559 94.2324 176.704 93.8647 176.854 93.4858C176.297 92.9832 175.739 92.4807 175.165 91.9628C167.561 84.2063 163.162 74.3392 163.202 63.3874C163.448 49.5708 171.682 37.6383 180.966 28.1094C181.394 27.6681 181.823 27.2268 182.264 26.7722C189.41 19.8911 198.124 16.0871 207.985 16.2228C219.252 17.2536 228.087 22.9776 235.244 31.5941C237.768 34.963 239.876 38.4623 241.466 42.3734C241.697 42.9273 241.928 43.4812 242.166 44.0519C244.651 51.1739 244.032 58.7001 243.816 66.1466C244.668 66.1058 245.52 66.0494 246.372 65.9864C246.846 65.9567 247.321 65.9269 247.81 65.8963C249.102 65.5523 249.102 65.5523 249.939 64.5228C250.617 63.1108 251.038 61.7165 251.452 60.2033C251.626 59.6547 251.8 59.1062 251.979 58.541C255.143 46.7369 254.298 32.4157 248.515 21.5718C248.262 21.0922 248.009 20.6126 247.748 20.1185C242.806 11.2784 235.116 5.02508 225.499 1.95654C210.011 -2.09343 191.518 -0.0139228 178.359 9.67587Z" fill="#535357"/>
<path d="M376.334 101.709C371.931 104.789 367.554 108.539 364.577 113.089C364.658 116.047 366.387 118.037 368.104 120.276C368.63 119.951 369.156 119.626 369.698 119.291C373.766 116.82 377.546 114.738 382.213 113.688C382.681 113.567 383.149 113.445 383.632 113.32C393.404 110.997 403.226 113.067 411.837 118.105C419.626 123.08 423.763 130.041 426.003 139.026C428.725 153.749 427.155 170.919 418.974 183.666C418.676 184.094 418.378 184.522 418.072 184.963C417.652 185.586 417.652 185.586 417.224 186.221C412.433 192.559 403.968 195.967 396.431 197.215C395.222 197.36 394.008 197.457 392.794 197.54C392.794 196.552 392.794 195.564 392.794 194.546C392.6 194.546 392.406 194.546 392.206 194.546C392.206 197.708 392.206 200.871 392.206 204.129C403.71 204.344 412.958 202.265 421.847 194.293C433.154 182.772 440.428 166.452 440.634 150.127C440.608 133.809 434.841 118.622 423.601 106.645C410.183 93.9064 391.991 91.5617 376.334 101.709Z" fill="#545457"/>
<path d="M95.9521 333.001C94.9096 333.002 93.8671 333.001 92.8246 333C90.0177 332.999 87.2111 333.016 84.4042 333.036C81.4623 333.054 78.5204 333.055 75.5784 333.059C70.0177 333.068 64.4573 333.091 58.8967 333.12C52.5618 333.152 46.2269 333.168 39.8919 333.182C26.87 333.212 13.8482 333.263 0.826431 333.327C0.826431 336.735 0.826431 340.143 0.826431 343.655C1.61969 343.683 2.41293 343.71 3.23024 343.738C10.7192 343.998 18.2081 344.26 25.6969 344.523C29.5466 344.659 33.3964 344.793 37.2462 344.926C40.964 345.055 44.6817 345.186 48.3994 345.317C49.8152 345.367 51.231 345.416 52.6468 345.465C54.6354 345.533 56.6239 345.603 58.6124 345.675C59.1931 345.694 59.7737 345.713 60.3719 345.733C63.5215 345.849 66.6386 346.058 69.7716 346.394C72.0553 346.618 74.3439 346.691 76.6369 346.771C77.4327 346.801 77.4327 346.801 78.2445 346.831C79.405 346.875 80.5656 346.917 81.7261 346.959C85.0061 347.078 88.2858 347.203 91.5656 347.327C92.2789 347.353 92.9922 347.38 93.7271 347.408C99.4258 347.623 105.124 347.853 110.822 348.089C111.707 348.125 112.592 348.162 113.477 348.198C114.14 348.226 114.14 348.226 114.815 348.254C115.481 348.281 115.481 348.281 116.16 348.309C116.606 348.328 117.051 348.346 117.51 348.365C132.448 348.981 147.387 349.567 162.329 350.075C163.035 350.099 163.741 350.124 164.469 350.149C171.927 350.406 179.371 350.62 186.835 350.541C186.835 349.973 186.835 349.405 186.835 348.819C181.119 343.398 173.212 344.219 165.699 344.062C148.22 343.687 128.769 342.683 112.611 335.486C106.96 333.042 102.007 332.934 95.9521 333.001Z" fill="#5C5C63"/>
<path d="M223.737 223.894C222.322 226.066 222.251 226.695 222.571 229.268C225.726 238.171 233.489 248.152 241.238 253.153C240.054 256.992 238.663 260.703 237.144 264.414C236.452 266.136 235.988 267.393 235.988 269.276C235.608 269.101 235.229 268.926 234.837 268.746C232.64 267.919 230.439 267.476 228.149 266.999C218.775 264.934 208.162 261.529 202.426 253.022C201.929 252.182 201.448 251.332 200.99 250.468C200.699 250.024 200.699 250.024 200.403 249.57C200.018 249.57 199.632 249.57 199.236 249.57C199.641 254.646 201.797 258.02 205.359 261.485C211.902 266.96 219.396 269.262 227.513 271.055C232.603 272.181 236.761 273.657 241.238 276.441C249.932 281.554 258.406 285.532 268.657 284.204C270.782 283.445 272.625 282.504 274.49 281.218C274.298 280.627 274.105 280.036 273.907 279.427C273.33 279.624 272.752 279.821 272.157 280.024C260.409 281.175 250.801 278.185 240.874 271.739C238.905 270.47 238.905 270.47 237.738 270.47C237.915 270.006 238.092 269.542 238.274 269.064C238.928 267.344 239.58 265.623 240.231 263.902C240.652 262.79 241.075 261.679 241.498 260.568C241.761 259.872 242.025 259.175 242.296 258.457C242.54 257.813 242.785 257.169 243.036 256.505C243.572 254.944 243.572 254.944 243.572 253.75C243.979 253.943 244.387 254.137 244.807 254.336C252.519 257.128 263.892 254.002 271.371 251.457C272.967 250.65 273.938 249.774 275.074 248.376C275.366 246.547 275.366 246.547 275.074 244.793C273.049 242.688 270.325 242.131 267.636 241.322C254.797 237.293 242.407 231.94 230.775 225.034C228.245 223.591 226.628 222.81 223.737 223.894Z" fill="#222525"/>
<path d="M560.506 333.431C543.618 333.35 526.731 333.29 509.843 333.252C502.001 333.235 494.16 333.21 486.319 333.171C479.484 333.137 472.648 333.114 465.813 333.107C462.195 333.102 458.576 333.092 454.958 333.067C451.55 333.043 448.142 333.036 444.734 333.041C443.485 333.04 442.236 333.034 440.988 333.02C429.256 332.902 429.256 332.902 424.337 336.876C420.182 338.838 415.834 340.043 411.351 341.039C410.931 341.132 410.511 341.226 410.078 341.323C403.339 342.727 396.573 342.709 389.716 342.693C388.182 342.69 386.649 342.693 385.115 342.696C378.8 342.698 372.53 342.484 366.23 342.044C367.102 344.602 367.102 344.602 367.991 347.211C368.185 346.832 368.378 346.453 368.578 346.063C369.659 346.073 369.659 346.073 370.763 346.083C377.498 346.124 384.223 346.02 390.955 345.812C391.712 345.789 392.47 345.767 393.25 345.743C396.545 345.635 399.824 345.497 403.108 345.208C405.867 344.967 408.623 344.817 411.39 344.708C411.824 344.691 412.259 344.674 412.707 344.656C413.162 344.638 413.617 344.62 414.086 344.602C427.606 344.068 441.101 343.217 454.601 342.331C455.554 342.268 456.507 342.206 457.46 342.143C466.497 341.551 475.533 340.944 484.564 340.269C485.158 340.225 485.751 340.181 486.362 340.136C490.582 339.815 494.79 339.411 498.999 338.982C501.493 338.729 503.982 338.518 506.486 338.383C506.917 338.36 507.348 338.336 507.792 338.311C508.51 338.272 509.229 338.233 509.969 338.192C512.183 338.053 514.366 337.791 516.566 337.506C524.26 336.572 532.009 336.185 539.743 335.692C542.062 335.543 544.381 335.393 546.7 335.241C548.132 335.148 549.565 335.055 550.997 334.965C554.193 334.757 557.344 334.513 560.506 334.005C560.506 333.816 560.506 333.626 560.506 333.431Z" fill="#5C5C63"/>
<path d="M389.965 237.609C389.674 238.493 389.674 238.493 389.378 239.394C392.756 242.367 392.756 242.367 394.078 242.367C394.465 243.152 394.853 243.937 395.253 244.746C395.64 244.746 396.028 244.746 396.428 244.746C396.428 245.139 396.428 245.531 396.428 245.936C397.27 246.774 397.27 246.774 398.447 247.757C402.914 251.617 406.795 255.8 410.462 260.441C411.514 261.756 412.597 263.011 413.723 264.261C418.778 270.077 422.759 276.615 426.391 283.404C426.632 283.828 426.873 284.253 427.121 284.691C432.609 294.811 433.025 307.048 430 317.938C428.888 321.751 427.626 325.516 426.285 329.253C425.803 330.982 425.803 330.982 426.391 332.766C427.554 330.803 428.718 328.841 429.916 326.819C429.643 327.628 429.643 327.628 429.365 328.454C428.901 329.891 428.489 331.296 428.154 332.766C427.766 332.766 427.378 332.766 426.978 332.766C426.785 333.355 426.591 333.944 426.391 334.55C426.003 334.943 425.615 335.335 425.216 335.74C425.604 335.936 425.991 336.132 426.391 336.334C433.306 332.002 437.299 326.89 439.904 319.087C440.121 318.44 440.121 318.44 440.342 317.779C443.653 305.646 439.1 292.803 433.361 282.244C430.688 277.493 427.632 273.225 424.041 269.13C423.661 268.697 423.661 268.697 423.274 268.255C418.172 262.459 412.848 256.916 407.003 251.883C406.399 251.353 405.795 250.822 405.192 250.292C400.22 245.929 395.128 241.738 389.965 237.609Z" fill="#515153"/>
<path d="M211.341 161.418C208.404 164.032 206.325 166.802 205.854 170.803C205.795 175.353 206.24 178.556 209.309 181.996C212.471 184.981 215.805 186.365 220.12 186.574C224.028 186.44 227.042 185.057 230.038 182.573C233.224 178.625 234.112 176.135 233.936 170.995C233.359 166.864 230.893 164.104 227.729 161.569C222.438 158.015 216.76 158.228 211.341 161.418Z" fill="#EAE8E7"/>
<path d="M261.422 312.515C261.952 316.747 262.486 320.967 263.222 325.168C266.579 345.398 266.496 367.599 263.181 387.84C263.09 388.408 262.999 388.975 262.905 389.561C261.807 398.903 261.807 398.903 257.903 406.97C257.323 406.378 257.323 406.378 256.73 405.774C256.239 406.944 255.751 408.114 255.264 409.286C254.992 409.938 254.72 410.59 254.44 411.262C253.798 412.948 253.798 412.948 253.798 414.143C261.093 410.75 264.049 402.176 266.699 395.013C266.842 394.63 266.985 394.247 267.132 393.853C268.46 390.083 269.101 386.302 269.668 382.347C269.817 381.332 269.817 381.332 269.969 380.295C270.598 375.87 271.129 371.443 271.537 366.991C271.608 366.231 271.608 366.231 271.679 365.456C272.211 359.052 271.993 352.726 271.464 346.329C271.41 345.669 271.355 345.008 271.3 344.328C270.92 339.86 270.459 335.455 269.631 331.048C269.473 330.2 269.473 330.2 269.312 329.336C268.935 327.328 268.552 325.32 268.165 323.313C267.977 322.334 267.977 322.334 267.785 321.336C266.475 314.68 266.475 314.68 265.526 312.515C263.689 311.891 263.187 311.957 261.422 312.515Z" fill="#525256"/>
<path d="M384.86 124.661C382.776 125.029 381.508 125.908 379.852 127.24C379.402 127.595 378.951 127.95 378.487 128.316C377.319 129.437 376.752 130.328 376.151 131.836C376.731 132.434 377.312 133.032 377.893 133.63C377.509 133.63 377.126 133.63 376.731 133.63C377.496 136.224 378.496 138.611 379.617 141.056C381.957 146.178 383.956 151.352 385.695 156.723C385.887 157.31 386.078 157.897 386.275 158.502C387.421 162.132 388.287 165.743 388.925 169.503C391.464 170.255 392.515 169.69 394.786 168.403C396.256 167.482 397.251 166.808 398.216 165.318C398.48 163.415 398.626 162.336 398.216 160.535C395.876 157.539 393.754 156.255 390.086 155.751C390.613 155.418 391.14 155.086 391.683 154.742C394.205 152.895 396.756 150.332 397.308 147.082C397.054 145.587 397.054 145.587 395.748 144.541C394.411 143.915 393.246 143.533 391.828 143.196C392.066 142.913 392.304 142.63 392.55 142.339C394.916 139.348 395.976 136.85 396.474 133.032C392.868 131.091 389.472 130.838 385.441 130.64C385.453 129.987 385.465 129.333 385.477 128.66C385.441 126.455 385.441 126.455 384.86 124.661Z" fill="#2F3131"/>
<path d="M271.879 361.434C271.685 361.434 271.492 361.434 271.292 361.434C271.214 362.306 271.135 363.177 271.056 364.049C270.981 364.882 270.981 364.882 270.905 365.731C270.796 366.939 270.689 368.147 270.583 369.355C270.361 371.87 270.136 374.383 269.87 376.894C269.776 377.81 269.776 377.81 269.68 378.744C269.622 379.254 269.565 379.765 269.506 380.291C269.575 383.805 271.646 386.266 274.041 388.608C286.423 399.968 305.439 408.173 322.288 407.4C322.682 407.365 323.076 407.331 323.482 407.295C323.888 406.239 323.888 406.239 324.068 404.913C323.345 403.847 323.345 403.847 322.261 402.754C319.466 399.715 317.712 396.276 315.812 392.621C315.547 392.132 315.282 391.643 315.009 391.139C314.777 390.696 314.545 390.252 314.306 389.795C314.045 389.477 313.783 389.159 313.513 388.831C312.739 388.831 311.965 388.831 311.167 388.831C310.665 390.26 310.495 390.975 311.016 392.421C311.366 393.048 311.366 393.048 311.724 393.687C311.98 394.15 312.236 394.612 312.499 395.089C312.773 395.567 313.047 396.045 313.33 396.537C313.592 397.013 313.855 397.488 314.126 397.978C315.515 400.458 316.948 402.743 318.791 404.913C307.613 402.136 296.956 397.892 288.793 389.285C287.711 388.236 287.711 388.236 286.539 388.236C286.305 387.71 286.305 387.71 286.067 387.173C285.348 385.819 284.578 384.914 283.533 383.806C278.503 378.049 275.647 371.532 273.052 364.412C272.664 363.418 272.274 362.425 271.879 361.434Z" fill="#D2F1F9"/>
<path d="M372.844 291.156C371.182 292.774 369.875 294.399 368.614 296.358C360.601 308.278 349.523 315.671 335.879 319.158C331.483 319.977 327.055 320.21 322.594 320.254C322.085 320.259 321.576 320.265 321.051 320.271C319.412 320.286 317.774 320.294 316.135 320.298C315.574 320.3 315.013 320.302 314.436 320.304C304.869 320.311 295.752 319.585 286.346 317.697C285.864 317.601 285.383 317.504 284.887 317.405C282.994 317.021 281.105 316.621 279.218 316.206C277.028 315.795 275.03 315.748 272.812 315.887C273.007 316.883 273.201 317.878 273.401 318.903C273.959 318.879 274.517 318.854 275.093 318.828C276.844 318.829 278.434 319.048 280.147 319.42C286.508 320.769 292.893 321.981 299.291 323.126C299.872 323.23 300.454 323.334 301.052 323.441C316.445 326.096 333.967 327.292 348.13 319.507C348.579 319.278 349.028 319.049 349.491 318.814C354.859 315.967 359.912 311.925 363.429 306.839C363.429 306.441 363.429 306.043 363.429 305.633C363.817 305.633 364.206 305.633 364.606 305.633C365.493 304.641 365.493 304.641 366.445 303.333C366.92 302.693 366.92 302.693 367.405 302.039C368.136 300.807 368.136 300.807 368.136 298.997C368.525 298.997 368.913 298.997 369.313 298.997C369.313 298.4 369.313 297.803 369.313 297.188C369.896 296.989 370.478 296.79 371.078 296.584C371.637 295.338 371.637 295.338 372.071 293.832C372.219 293.334 372.367 292.835 372.52 292.322C372.627 291.937 372.734 291.552 372.844 291.156Z" fill="#333434"/>
<path d="M200.402 249.323C200.017 249.323 199.632 249.323 199.236 249.323C199.64 254.434 201.796 257.833 205.357 261.322C211.898 266.836 219.389 269.154 227.504 270.96C232.592 272.094 236.749 273.581 241.225 276.384C249.915 281.533 258.387 285.54 268.634 284.202C270.759 283.437 272.601 282.49 274.466 281.195C274.273 280.6 274.081 280.005 273.883 279.391C273.305 279.59 272.728 279.788 272.133 279.993C260.389 281.152 250.784 278.141 240.86 271.649C238.892 270.371 238.892 270.371 237.726 270.371C237.902 269.903 238.079 269.436 238.261 268.954C238.915 267.222 239.567 265.49 240.217 263.756C240.638 262.637 241.061 261.518 241.484 260.399C241.748 259.697 242.011 258.996 242.282 258.273C242.526 257.624 242.77 256.975 243.022 256.307C243.557 254.735 243.557 254.735 243.557 253.532C242.98 253.334 242.403 253.135 241.808 252.931C240.831 255.297 239.861 257.665 238.892 260.035C238.614 260.708 238.336 261.381 238.049 262.075C237.786 262.72 237.523 263.365 237.252 264.03C236.885 264.923 236.885 264.923 236.511 265.834C235.976 267.364 235.976 267.364 235.976 269.168C235.596 268.992 235.217 268.816 234.826 268.635C232.629 267.802 230.428 267.355 228.14 266.875C218.769 264.796 208.159 261.367 202.425 252.799C201.928 251.953 201.447 251.096 200.99 250.227C200.796 249.929 200.602 249.63 200.402 249.323Z" fill="#626363"/>
<path d="M307.087 209.149C304.384 210.698 303.013 212.415 301.47 215.167C300.696 218.227 300.703 221.001 301.725 223.991C303.388 226.46 305.216 228.196 308.072 229.159C311.483 229.491 313.579 228.862 316.242 226.797C319.335 223.498 320.021 220.4 319.926 215.961C319.57 212.891 318.033 211.393 315.805 209.445C312.665 207.855 310.319 208.151 307.087 209.149Z" fill="#222323"/>
<path d="M217.352 162.841C215.178 164.936 213.735 166.429 213.321 169.589C213.177 173.584 213.453 176.21 215.865 179.36C218.684 181.911 221.221 183.284 225.077 183.225C227.429 182.759 228.876 181.219 230.375 179.36C232.276 176.045 232.57 172.872 232.117 169.101C230.868 165.737 230.868 165.737 229.215 164.877C228.831 166.47 228.448 168.064 228.054 169.705C226.904 169.506 225.755 169.307 224.571 169.101C224.571 167.508 224.571 165.915 224.571 164.274C226.295 163.975 226.295 163.975 228.054 163.671C226.411 160.254 220.048 161.516 217.352 162.841Z" fill="#2A2B2B"/>
<path d="M304.947 209.05C301.51 211.07 299.185 214.279 298.006 218.103C297.234 221.684 297.561 224.409 299.348 227.623C301.955 231.463 306.153 233.324 310.559 234.234C314.021 234.49 317.012 233.019 319.803 231.045C323.519 227.133 324.105 223.763 324.066 218.414C323.71 214.751 322.113 212.767 319.585 210.272C314.539 206.984 310.354 206.655 304.947 209.05ZM318.28 212.552C319.78 215.769 319.831 218.993 318.819 222.405C317.561 225.235 315.91 226.919 313.42 228.692C310.714 229.606 308.495 229.6 305.804 228.618C303.317 226.974 301.612 225.134 300.654 222.221C300.199 218.392 300.758 215.385 302.975 212.221C305.478 209.486 307.458 208.799 311.026 208.508C314.311 208.563 316.101 210.168 318.28 212.552Z" fill="#EFECEB"/>
<path d="M223.237 163.147C220.436 163.462 219.539 164.471 217.54 166.407C216.245 168.972 216.538 172.117 216.928 174.896C218.12 177.047 219.601 178.646 221.822 179.747C223.946 179.975 225.066 180.049 226.831 178.799C228.858 176.097 230.088 173.448 229.776 170.045C228.118 169.223 226.711 169.399 224.881 169.438C224.836 167.412 224.841 165.919 225.493 163.981C224.881 163.375 224.881 163.375 223.237 163.147Z" fill="#1B1C1D"/>
<path d="M228.17 139.744C229.757 141.737 231.537 142.054 233.969 142.658C239.886 144.248 245.447 146.441 248.783 151.842C250.54 155.757 250.393 160.516 249.175 164.562C248.761 165.568 248.321 166.564 247.847 167.545C247.324 168.66 247.324 168.66 247.324 169.84C247.719 169.84 248.114 169.84 248.521 169.84C248.78 169.463 249.039 169.086 249.306 168.697C250.561 167.185 251.384 167.095 253.309 166.89C254.76 161.603 255.499 156.678 252.895 151.641C248.615 144.675 242.178 142.296 234.467 140.403C232.333 139.916 230.36 139.636 228.17 139.744Z" fill="#4B4B4D"/>
<path d="M356.894 330.478C356.474 331.42 356.474 331.42 356.31 332.906C356.936 334.43 357.593 335.821 358.355 337.269C360.167 340.861 361.81 344.477 363.285 348.233C363.457 348.666 363.629 349.1 363.806 349.547C364.82 352.151 365.659 354.37 365.659 357.186C366.533 358.293 366.533 358.293 367.668 359.424C368.041 359.802 368.414 360.18 368.798 360.569C369.75 361.434 369.75 361.434 370.334 361.434C370.511 357.837 369.872 354.8 368.946 351.343C368.817 350.838 368.687 350.332 368.554 349.812C368.021 347.767 367.477 345.815 366.696 343.856C366.546 343.447 366.397 343.039 366.244 342.618C366.436 342.217 366.629 341.817 366.828 341.404C366.249 341.404 365.671 341.404 365.075 341.404C364.922 340.974 364.769 340.545 364.612 340.102C363.861 338.259 362.98 336.621 361.971 334.917C361.468 334.05 361.468 334.05 360.955 333.165C359.694 331.535 358.801 331.061 356.894 330.478Z" fill="#515154"/>
<path d="M302.692 185.361C300.31 187.287 298.071 189.202 296.787 191.986C296.957 193.672 297.401 194.992 297.975 196.614C299.818 194.973 301.131 193.494 302.357 191.371C303.813 189.053 305.404 187.645 308.077 186.78C314.72 185.308 320.666 187.154 326.497 190.25C327.085 190.441 327.673 190.632 328.279 190.829C328.686 191.595 329.081 192.367 329.468 193.143C330.493 194.128 330.493 194.128 331.622 195.023C331.997 195.324 332.372 195.625 332.759 195.936C333.045 196.159 333.332 196.383 333.627 196.614C334.019 196.423 334.411 196.232 334.815 196.035C327.136 187.951 314.057 177.062 302.692 185.361Z" fill="#474849"/>
<path d="M239.704 389.881C238.281 390.173 238.281 390.173 236.83 390.47C236.745 391.156 236.661 391.841 236.573 392.547C235.425 401.189 233.428 409.455 229.287 417.144C228.78 418.175 228.78 418.175 228.78 419.354C226.123 419.354 223.467 419.354 220.73 419.354C220.73 419.549 220.73 419.743 220.73 419.944C222.216 419.96 223.701 419.971 225.186 419.98C225.606 419.985 226.025 419.99 226.457 419.995C230.388 420.014 230.388 420.014 232.23 419.354C237.219 411.95 239.861 401.468 239.74 392.533C239.735 392.029 239.73 391.524 239.725 391.004C239.718 390.634 239.711 390.263 239.704 389.881Z" fill="#EFEEED"/>
<path d="M223.986 380.677C222.531 380.974 222.531 380.974 221.047 381.277C220.996 381.881 220.945 382.485 220.893 383.107C220.083 391.724 218.569 400.456 214.475 408.135C213.875 409.799 214.11 410.79 214.581 412.47C215.163 412.47 215.745 412.47 216.345 412.47C219.877 406.101 221.822 399.788 223.398 392.675C223.52 392.166 223.642 391.657 223.768 391.133C224.074 389.085 224.048 387.054 224.023 384.989C224.02 384.573 224.018 384.158 224.015 383.729C224.008 382.712 223.997 381.695 223.986 380.677Z" fill="#EFEDEC"/>
<path d="M207.421 366.454C206.643 366.454 205.865 366.454 205.063 366.454C205.007 366.812 204.951 367.169 204.893 367.537C203.496 376.292 202.134 384.782 197.349 392.378C196.678 393.844 196.712 394.976 196.807 396.574C197.586 396.574 198.364 396.574 199.166 396.574C200.462 395.194 201.246 393.44 202.114 391.755C202.491 391.034 202.491 391.034 202.874 390.298C206.604 382.573 207.853 374.973 207.421 366.454Z" fill="#F0EEED"/>
<path d="M315.864 83.0489C314.354 84.474 313.375 85.8767 312.494 87.8151C312.494 88.6543 312.494 89.4936 312.494 90.3583C312.884 90.3583 313.274 90.3583 313.675 90.3583C314.077 89.8862 314.479 89.4141 314.893 88.9277C316.854 86.6952 319.325 85.735 321.942 84.636C321.358 85.5802 321.358 85.5802 320.761 86.5434C321.346 86.3336 321.931 86.1238 322.533 85.9076C326.892 85.6541 330.787 85.7236 334.933 87.1793C336.373 86.9408 336.373 86.9408 337.295 86.5434C337.295 85.914 337.295 85.2845 337.295 84.636C336.461 84.1157 335.624 83.6 334.786 83.0862C334.087 82.6547 334.087 82.6547 333.374 82.2144C328.354 79.4849 320.54 79.6508 315.864 83.0489Z" fill="#DCDEE4"/>
<path d="M329.828 380.677C329.019 381.07 328.209 381.462 327.375 381.866C327.693 384.975 329.321 387.293 330.979 389.892C331.275 390.361 331.572 390.83 331.878 391.314C334.685 395.648 337.927 399.495 341.482 403.267C342.09 402.875 342.697 402.482 343.322 402.078C344.961 402.555 344.961 402.555 346.389 403.267C345.59 401.532 344.781 400.438 343.322 399.18C338.33 394.472 334.616 388.45 331.225 382.598C330.442 381.272 330.442 381.272 329.828 380.677Z" fill="#E9E8E8"/>
<path d="M352.765 343.028C352.25 344.597 352.25 344.597 352.176 346.691C353.13 348.314 354.402 349.567 355.709 350.889C356.425 351.646 357.141 352.403 357.857 353.161C358.202 353.521 358.547 353.881 358.903 354.252C359.988 355.407 360.981 356.623 361.964 357.872C364.427 360.845 367.408 363.277 370.428 365.618C370.622 365.618 370.816 365.618 371.016 365.618C371.266 363.839 371.389 362.508 370.365 360.987C369.427 359.967 368.453 359.011 367.447 358.062C366.737 357.362 366.028 356.66 365.32 355.957C364.808 355.454 364.808 355.454 364.286 354.942C362.472 353.126 360.873 351.123 359.241 349.133C358.302 348.01 357.357 346.891 356.408 345.775C355.967 345.253 355.526 344.73 355.072 344.192C353.942 343.028 353.942 343.028 352.765 343.028Z" fill="#EBEAEA"/>
<path d="M313.141 388.207C312.382 388.587 311.623 388.966 310.841 389.357C311.148 392.339 312.637 394.573 314.148 397.087C314.395 397.511 314.643 397.936 314.898 398.373C316.424 400.944 318.066 403.22 320.042 405.463C318.714 405.653 317.386 405.843 316.017 406.038C316.017 406.228 316.017 406.418 316.017 406.613C318.484 406.613 320.951 406.613 323.493 406.613C323.683 405.854 323.873 405.095 324.068 404.313C323.363 403.282 323.363 403.282 322.302 402.225C319.949 399.704 318.326 397.002 316.664 393.995C316.115 393.019 315.565 392.043 315.015 391.067C314.66 390.429 314.66 390.429 314.299 389.778C313.716 388.782 313.716 388.782 313.141 388.207Z" fill="#E7E6E6"/>
<path d="M366.23 342.201C366.815 343.855 367.4 345.508 368.002 347.211C368.294 346.66 368.294 346.66 368.592 346.098C368.936 346.101 369.281 346.104 369.635 346.107C375.441 346.149 381.246 346.192 387.046 345.889C387.792 345.85 388.538 345.812 389.306 345.772C391.032 345.541 391.032 345.541 392.213 344.428C393.73 344.067 393.73 344.067 395.165 343.871C395.165 343.688 395.165 343.504 395.165 343.315C394.348 343.294 394.348 343.294 393.515 343.272C391.471 343.219 389.427 343.164 387.384 343.107C386.504 343.083 385.623 343.06 384.743 343.038C378.563 342.879 372.397 342.095 366.23 342.201Z" fill="#5C5C63"/>
<path d="M202.256 393.227C201.658 393.421 201.06 393.616 200.444 393.816C199.727 395.325 199.727 395.325 199.236 396.76C199.513 397.023 199.79 397.286 200.076 397.558C200.447 397.914 200.817 398.27 201.199 398.636C201.564 398.985 201.928 399.333 202.304 399.692C203.507 400.884 203.507 400.884 204.605 402.316C206.016 403.984 207.528 405.288 209.242 406.658C209.816 407.123 210.39 407.589 210.981 408.068C212.527 409.124 212.527 409.124 214.339 409.124C214.538 408.152 214.738 407.181 214.943 406.18C214.146 405.791 213.348 405.403 212.527 405.002C212.527 404.614 212.527 404.225 212.527 403.825C211.55 402.815 210.536 401.839 209.506 400.881C208.929 400.328 208.353 399.774 207.779 399.218C207.491 398.941 207.204 398.663 206.908 398.378C206.619 398.099 206.33 397.82 206.032 397.532C205.585 397.104 205.585 397.104 205.128 396.667C203.485 395.1 203.485 395.1 202.256 393.227Z" fill="#323232"/>
<path d="M306.632 209.044C303.899 210.561 302.194 212.227 300.959 215.134C300.946 215.481 300.934 215.828 300.92 216.186C301.325 216.583 301.73 216.98 302.147 217.389C302.489 216.843 302.83 216.297 303.182 215.735C305.192 212.966 306.555 211.589 310.006 210.923C310.974 210.849 310.974 210.849 311.961 210.773C311.947 211.15 311.933 211.527 311.918 211.915C311.901 212.652 311.901 212.652 311.884 213.404C311.87 213.893 311.856 214.381 311.841 214.885C311.961 216.186 311.961 216.186 313.188 217.389C314.721 217.577 314.721 217.577 316.255 217.389C316.659 216.794 317.064 216.198 317.481 215.585C318.088 215.982 318.696 216.379 319.321 216.788C319.781 215.81 319.781 215.81 319.935 214.382C316.936 208.736 312.615 207.254 306.632 209.044Z" fill="#2C2D2D"/>
<path d="M265.372 314.193C265.456 314.554 265.541 314.915 265.627 315.286C266.016 316.953 266.403 318.62 266.79 320.287C266.923 320.854 267.055 321.421 267.191 322.005C268.038 325.656 268.826 329.312 269.552 332.988C269.749 332.988 269.946 332.988 270.149 332.988C270.197 332.66 270.245 332.332 270.294 331.993C270.517 330.477 270.743 328.961 270.97 327.445C271.045 326.929 271.12 326.413 271.198 325.881C271.701 322.531 272.35 319.253 273.134 315.955C274.119 315.955 275.104 315.955 276.119 315.955C276.119 315.762 276.119 315.568 276.119 315.368C274.777 315.056 273.434 314.751 272.089 314.45C271.341 314.28 270.593 314.11 269.822 313.934C267.921 313.632 267.136 313.673 265.372 314.193Z" fill="#AAAAB9"/>
<path d="M314.147 207.56C309.76 207.234 305.907 208.004 302.469 210.927C299.582 214.034 297.879 217.304 297.613 221.574C297.751 224.911 299.318 227.546 301.429 230.041C302.519 230.917 302.519 230.917 303.682 230.917C303.586 230.375 303.49 229.833 303.391 229.274C303.055 227.439 303.055 227.439 303.101 225.661C302.813 225.155 302.525 224.65 302.228 224.129C300.947 221.233 300.788 218.641 301.779 215.609C302.953 213.035 304.201 211.489 306.589 209.896C308.526 209.37 308.526 209.37 310.55 209.166C311.563 209.035 311.563 209.035 312.596 208.901C313.108 208.844 313.62 208.787 314.147 208.728C314.147 208.342 314.147 207.957 314.147 207.56Z" fill="#E1DEDD"/>
<path d="M367.198 361.434C366.438 362.975 366.551 364.014 366.584 365.737C366.591 366.362 366.598 366.988 366.606 367.633C366.627 368.94 366.65 370.248 366.676 371.556C366.714 375.168 366.499 378.456 365.664 381.973C365.403 383.271 365.403 383.271 365.403 385.697C365.798 385.697 366.193 385.697 366.6 385.697C369.362 379.528 372.274 371.307 370.789 364.467C369.703 363.005 368.774 362.399 367.198 361.434Z" fill="#4E4F51"/>
<path d="M324.068 88.3428C324.068 88.7425 324.068 89.1421 324.068 89.5539C327.971 92.057 331.918 93.5992 336.285 95.0039C337.449 95.4051 338.613 95.8081 339.776 96.215C338.778 92.294 335.839 90.3603 332.649 88.3806C329.676 87.5039 327.092 87.8703 324.068 88.3428Z" fill="#DCDEE4"/>
<path d="M228.501 229.243C228.119 229.435 227.737 229.627 227.344 229.824C227.847 230.289 227.847 230.289 228.361 230.764C232.087 234.334 236.473 238.819 236.655 244.302C236.649 244.929 236.642 245.556 236.635 246.201C236.63 246.833 236.625 247.464 236.619 248.115C236.613 248.598 236.606 249.081 236.599 249.579C237.72 249.905 237.72 249.905 238.913 250.16C239.825 249.244 239.678 248.346 239.744 247.073C239.612 240.404 235.533 235.957 230.999 231.575C230.172 230.791 229.337 230.016 228.501 229.243Z" fill="#4B4E4F"/>
<path d="M242.606 253.506C241.125 255.194 240.216 256.761 239.399 258.796C239.176 259.346 238.952 259.896 238.722 260.463C238.382 261.318 238.382 261.318 238.035 262.19C237.801 262.769 237.567 263.349 237.326 263.945C236.751 265.371 236.179 266.797 235.611 268.225C236.87 268.808 236.87 268.808 238.154 269.403C239.112 267.073 240.064 264.742 241.016 262.411C241.289 261.747 241.562 261.083 241.843 260.399C242.102 259.765 242.36 259.131 242.626 258.478C242.866 257.893 243.105 257.307 243.352 256.703C243.878 255.272 243.878 255.272 243.878 254.095C243.458 253.901 243.038 253.706 242.606 253.506Z" fill="#696A68"/>
<path d="M318.465 82.1479C315.849 83.6143 313.576 85.1713 312.494 88.0128C312.494 88.7869 312.494 89.5611 312.494 90.3587C312.888 90.3587 313.282 90.3587 313.688 90.3587C314.07 89.9474 314.452 89.5362 314.845 89.1124C317.159 86.7084 320.276 85.3916 323.241 83.9074C323.241 83.5203 323.241 83.1332 323.241 82.7344C321.465 81.8621 320.451 81.8949 318.465 82.1479Z" fill="#DCDEE4"/>
<path d="M262.065 246.932C257.553 246.495 254.176 247.213 250.43 249.877C249.124 251.271 248.103 252.593 248.103 254.59C247.527 254.785 246.951 254.979 246.358 255.179C249.046 255.179 251.733 255.179 254.502 255.179C254.502 254.985 254.502 254.79 254.502 254.59C252.967 254.396 251.431 254.201 249.848 254.001C252.679 251.199 255.122 249.832 258.893 248.616C260.32 248.11 260.32 248.11 262.065 246.932Z" fill="#5D5F60"/>
<path d="M368.093 363.107C368.031 364.863 367.986 366.617 367.95 368.374C367.931 368.872 367.912 369.37 367.892 369.883C367.871 371.251 367.873 372.516 368.093 373.864C369.243 375.104 369.243 375.104 370.376 375.657C370.808 373.118 371.037 370.616 371.126 368.038C371.147 367.486 371.168 366.935 371.19 366.366C370.947 364.9 370.947 364.9 369.83 363.808C368.664 363.107 368.664 363.107 368.093 363.107Z" fill="#575759"/>
<path d="M266.167 221.713C264.665 222.087 264.665 222.087 263.237 222.908C262.562 224.155 262.562 224.155 262.065 225.299C262.468 225.421 262.87 225.544 263.285 225.67C263.813 225.831 264.341 225.992 264.885 226.158C265.67 226.397 265.67 226.397 266.471 226.641C267.546 226.974 268.616 227.327 269.682 227.689C269.489 228.478 269.295 229.267 269.096 230.08C269.483 230.08 269.87 230.08 270.268 230.08C270.564 226.915 269.851 225.378 267.924 222.908C267.344 222.514 266.764 222.12 266.167 221.713Z" fill="#EDEFF5"/>
<path d="M339.349 360.598C338.676 363.155 338.909 364.163 339.621 366.651C339.799 367.287 339.978 367.924 340.162 368.58C340.304 369.064 340.446 369.548 340.592 370.047C341.412 370.242 342.232 370.437 343.077 370.637C343.897 369.663 344.717 368.688 345.562 367.684C343.512 365.346 341.462 363.007 339.349 360.598Z" fill="#595A5B"/>
<path d="M362.69 353.068C362.494 353.689 362.298 354.31 362.097 354.95C362.684 355.157 363.271 355.364 363.876 355.578C364.707 356.945 365.05 357.98 365.244 359.595C365.759 361.63 366.504 362.295 368.029 363.618C368.458 363.997 368.886 364.376 369.327 364.767C370.402 365.618 370.402 365.618 370.996 365.618C371.255 364.024 371.255 364.024 370.996 361.853C369.796 360.105 368.338 358.688 366.843 357.225C366.249 356.622 366.249 356.622 365.642 356.007C364.666 355.018 363.682 354.039 362.69 353.068Z" fill="#F5F4F5"/>
<path d="M122.887 208.327C122.26 209.566 122.26 209.566 122.504 210.662C122.653 211.095 122.802 211.529 122.956 211.975C123.119 212.455 123.283 212.935 123.451 213.429C123.628 213.931 123.804 214.433 123.986 214.95C124.153 215.44 124.319 215.931 124.491 216.435C125.504 219.374 126.632 222.223 127.909 225.06C128.116 224.651 128.324 224.242 128.537 223.82C128.951 223.82 129.366 223.82 129.793 223.82C128.962 221.273 128.024 218.809 126.968 216.345C125.823 213.668 125.823 213.668 124.751 210.963C124.143 209.566 124.143 209.566 122.887 208.327Z" fill="#D0CCCB"/>
<path d="M227.977 163.984C226.312 164.162 226.312 164.162 224.648 164.555C223.89 166.117 224.022 167.402 224.093 169.126C224.648 169.698 224.648 169.698 226.278 169.84C226.838 169.793 227.399 169.746 227.977 169.698C229.086 167.983 229.086 167.983 228.913 166.198C228.531 164.555 228.531 164.555 227.977 163.984Z" fill="#EEEEEF"/>
<path d="M324.895 373.984C325.253 380.462 325.253 380.462 327.3 383.187C327.548 382.883 327.796 382.58 328.052 382.267C329.177 381.08 329.177 381.08 331.509 381.346C330.758 379.048 329.61 378.101 327.901 376.438C327.455 375.97 327.009 375.502 326.549 375.019C325.496 373.984 325.496 373.984 324.895 373.984Z" fill="#5E5F60"/>
<path d="M314.836 211.673C314.183 211.724 313.529 211.776 312.857 211.828C311.564 213.69 311.564 213.69 311.766 215.319C312.21 216.793 312.21 216.793 312.857 217.413C314.432 217.569 314.432 217.569 316.088 217.413C317.477 215.414 317.571 214.759 317.381 212.449C316.734 211.828 316.734 211.828 314.836 211.673Z" fill="#ECECEC"/>
<path d="M319.935 184.064C319.935 185.857 319.935 185.857 320.679 186.786C321.775 187.695 322.821 188.301 324.101 188.919C324.506 189.118 324.911 189.317 325.329 189.522C326.482 190.04 326.482 190.04 328.268 190.638C328.675 191.429 329.071 192.227 329.458 193.028C330.486 194.046 330.486 194.046 331.616 194.97C331.992 195.281 332.368 195.593 332.755 195.913C333.042 196.144 333.329 196.376 333.625 196.614C334.018 196.416 334.411 196.219 334.815 196.016C330.469 191.298 325.715 186.965 319.935 184.064Z" fill="#555454"/>
<path d="M219.715 162.535C217.938 163.268 216.65 164.162 215.77 165.928C216.328 166.115 216.886 166.302 217.461 166.494C218.434 165.923 219.407 165.35 220.367 164.758C221.879 163.993 223.131 164.038 224.788 164.232C225.346 164.512 225.346 164.512 225.916 164.797C227.114 164.267 227.114 164.267 228.17 163.666C225.476 162.08 222.757 162.165 219.715 162.535Z" fill="#2D2E2D"/>
<path d="M228.17 139.73C229.52 141.645 231.095 141.891 233.298 142.283C233.93 142.384 233.93 142.384 234.575 142.488C238.132 143.073 238.132 143.073 241.639 143.904C241.832 143.511 242.025 143.117 242.224 142.712C240.919 142.325 239.614 141.94 238.308 141.556C237.218 141.234 237.218 141.234 236.106 140.906C233.384 140.147 230.995 139.648 228.17 139.73Z" fill="#515251"/>
<path d="M312.627 208.357C312.311 208.507 311.994 208.657 311.668 208.812C311.96 209.199 312.252 209.587 312.553 209.986C313.497 211.061 313.497 211.061 313.439 211.843C314.426 212.031 314.426 212.031 315.432 212.222C317.73 212.823 317.73 212.823 318.422 214.95C318.531 215.525 318.641 216.101 318.754 216.693C319.143 215.893 319.533 215.093 319.935 214.268C318.311 211.446 316.25 207.966 312.627 208.357Z" fill="#302F2F"/>
<path d="M318.281 71.9523C316.377 72.1352 315.135 72.3706 313.544 73.521C312.288 75.4599 312.423 76.8236 312.625 79.1236C312.811 79.518 312.998 79.9124 313.19 80.3188C313.75 80.1216 314.31 79.9244 314.887 79.7212C314.895 79.3607 314.903 79.0001 314.912 78.6287C315.064 75.3654 315.064 75.3654 316.902 72.8113C317.357 72.5278 317.812 72.2444 318.281 71.9523Z" fill="#DCDEE4"/>
<path d="M257.392 405.777C255.64 406.651 255.56 407.81 254.922 409.624C254.71 410.215 254.499 410.806 254.281 411.414C253.799 412.948 253.799 412.948 253.799 414.143C256.078 413.25 257.26 411.998 258.59 409.96C258.815 408.354 258.815 408.354 258.59 406.972C258.195 406.578 257.8 406.183 257.392 405.777Z" fill="#464648"/>
<path d="M313.321 208.686C313.771 208.98 314.222 209.275 314.685 209.579C316.46 210.969 317.557 212.379 318.778 214.183C318.978 213.458 319.178 212.732 319.384 211.984C319.784 211.984 320.184 211.984 320.596 211.984C320.596 212.347 320.596 212.71 320.596 213.084C321.196 212.902 321.797 212.721 322.415 212.534C321.761 212.004 321.104 211.478 320.445 210.953C319.896 210.513 319.896 210.513 319.336 210.064C317.227 208.563 315.931 207.84 313.321 208.686Z" fill="#E7E6E6"/>
<path d="M349.329 338.844C348.904 339.052 348.48 339.259 348.043 339.472C348.298 340.39 348.569 341.305 348.846 342.217C348.996 342.727 349.145 343.236 349.298 343.761C350.114 345.407 350.823 345.743 352.544 346.374C352.968 345.132 353.392 343.89 353.83 342.609C352.344 341.367 350.859 340.125 349.329 338.844Z" fill="#5D5F61"/>
<path d="M328.202 77.07C323.638 76.7939 320.558 76.9651 316.628 79.4045C316.628 79.9823 316.628 80.56 316.628 81.1553C317.172 80.9514 317.717 80.7476 318.278 80.5375C319.006 80.2691 319.734 80.0009 320.462 79.7328C321.173 79.4687 321.885 79.2046 322.618 78.9326C324.495 78.3143 326.249 77.9172 328.202 77.6536C328.202 77.461 328.202 77.2685 328.202 77.07Z" fill="#DCDEE4"/>
<path d="M309.24 381.514C309.016 381.514 308.792 381.514 308.56 381.514C308.505 382.572 308.466 383.63 308.433 384.689C308.409 385.278 308.385 385.867 308.361 386.475C308.56 388.088 308.56 388.088 309.588 389.196C309.923 389.422 310.257 389.648 310.601 389.88C311.499 388.894 312.396 387.908 313.321 386.892C312.658 385.994 311.992 385.098 311.323 384.203C310.953 383.704 310.582 383.205 310.2 382.69C309.883 382.302 309.567 381.914 309.24 381.514Z" fill="#5C5D5E"/>
<path d="M217.423 411.336C219.466 414.011 221.547 414.746 224.509 415.817C224.899 415.394 225.289 414.972 225.69 414.536C220.154 410.35 220.154 410.35 217.423 411.336Z" fill="#313130"/>
<path d="M274.466 279.442C273.845 279.62 273.224 279.797 272.584 279.98C269.133 280.83 265.608 280.962 262.065 281.161C262.065 281.351 262.065 281.54 262.065 281.734C262.5 281.769 262.935 281.804 263.382 281.84C264.247 281.912 264.247 281.912 265.129 281.985C265.697 282.032 266.266 282.078 266.852 282.126C268.551 282.274 268.551 282.274 270.148 282.659C271.513 282.88 271.513 282.88 273.174 282.164C273.6 281.833 274.027 281.502 274.466 281.161C274.466 280.594 274.466 280.027 274.466 279.442Z" fill="#5B5B5C"/>
<path d="M319.807 402.43C319.429 403.121 319.052 403.811 318.663 404.522C319.04 404.867 319.418 405.212 319.807 405.568C318.485 405.74 317.163 405.913 315.801 406.091C315.801 406.263 315.801 406.436 315.801 406.614C318.256 406.614 320.711 406.614 323.241 406.614C322.584 404.213 321.93 403.823 319.807 402.43Z" fill="#F3F1EF"/>
<path d="M322.06 78.6453C321.516 78.8491 321.516 78.8491 320.96 79.0571C320.244 79.3191 320.244 79.3191 319.514 79.5865C319.041 79.7612 318.568 79.9359 318.081 80.1159C316.694 80.6152 316.694 80.6152 314.974 80.5277C315.364 81.5631 315.754 82.5985 316.155 83.6652C316.776 83.3675 317.397 83.0699 318.037 82.7632C319.758 81.9752 321.38 81.4549 323.241 81.1552C322.851 80.3269 322.462 79.4987 322.06 78.6453Z" fill="#DCDEE4"/>
<path d="M438.643 155.618C437.481 156.813 437.481 156.813 437.327 158.195C437.33 158.725 437.333 159.255 437.336 159.801C437.333 160.331 437.33 160.861 437.327 161.407C437.481 162.789 437.481 162.789 438.643 163.984C440.079 158.856 440.079 158.856 439.224 156.215C439.032 156.018 438.84 155.821 438.643 155.618Z" fill="#616164"/>
<path d="M270.332 323.785C269.787 323.987 269.241 324.19 268.679 324.398C268.726 325.485 268.779 326.572 268.834 327.658C268.877 328.565 268.877 328.565 268.921 329.491C269.092 331.147 269.092 331.147 269.919 332.988C270.055 329.951 270.192 326.914 270.332 323.785Z" fill="#ACA7A7"/>
<path d="M314.147 207.553C310.271 207.261 307.155 207.972 303.731 209.908C303.158 210.782 303.158 210.782 302.574 211.674C304.31 211.674 304.31 211.674 305.331 210.834C307.036 209.613 308.474 209.481 310.531 209.209C311.208 209.115 311.885 209.022 312.583 208.926C313.099 208.861 313.616 208.797 314.147 208.731C314.147 208.342 314.147 207.954 314.147 207.553Z" fill="#D1D1D1"/>
<path d="M261.239 218.367C259.925 218.953 259.189 219.372 258.377 220.687C257.907 222.214 257.888 223.456 257.968 225.06C258.328 224.458 258.687 223.855 259.058 223.235C259.598 224.138 259.598 224.138 260.148 225.06C260.799 222.701 261.239 220.852 261.239 218.367Z" fill="#EDEFF5"/>
<path d="M228.48 229.243C228.105 229.427 227.73 229.611 227.344 229.801C227.858 230.296 227.858 230.296 228.383 230.801C231.737 234.047 231.737 234.047 234.732 237.61C235.295 237.426 235.858 237.242 236.438 237.052C233.812 234.475 231.186 231.898 228.48 229.243Z" fill="#434647"/>
<path d="M166.168 103.745C163.344 104.646 160.68 106.008 158.536 108.004C158.089 109.321 158.089 109.321 157.901 110.438C158.53 110.438 159.16 110.438 159.808 110.438C160.674 109.438 161.519 108.421 162.352 107.396C163.027 106.823 163.717 106.265 164.419 105.722C164.996 105.271 165.573 104.819 166.168 104.353C166.168 104.153 166.168 103.952 166.168 103.745Z" fill="#4B4744"/>
<path d="M183.735 346.375C183.735 346.966 183.735 347.558 183.735 348.167C184.144 348.562 184.553 348.956 184.975 349.363C182.315 349.56 179.655 349.757 176.915 349.96C176.915 350.157 176.915 350.355 176.915 350.558C180.188 350.558 183.462 350.558 186.835 350.558C186.835 349.966 186.835 349.375 186.835 348.765C185.285 347.458 185.285 347.458 183.735 346.375Z" fill="#C3BAB8"/>
<path d="M334.402 82.8289C334.211 83.4205 334.02 84.0121 333.823 84.6217C332.657 85.0599 332.657 85.0599 331.509 85.2193C332.654 85.4165 333.8 85.6137 334.981 85.8169C334.981 86.2113 334.981 86.6057 334.981 87.0121C335.745 86.8149 336.508 86.6177 337.295 86.4145C337.295 85.8229 337.295 85.2312 337.295 84.6217C335.849 83.6132 335.849 83.6132 334.402 82.8289Z" fill="#DCDEE4"/>
<path d="M190.969 84.5021C189.25 84.6677 187.531 84.8334 185.761 85.0041C185.57 85.6667 185.379 86.3293 185.182 87.012C187.915 87.012 188.827 86.3975 190.969 85.0041C190.969 84.8384 190.969 84.6728 190.969 84.5021Z" fill="#2E2F2F"/>
<path d="M92.5909 83.7214C94.3592 84.7599 95.9898 85.3302 97.9645 85.7588C98.4694 85.8733 98.9743 85.9878 99.4945 86.1058C100.968 86.2802 101.94 86.1274 103.338 85.6389C100.097 83.326 96.3626 83.6505 92.5909 83.7214Z" fill="#F9F9F8"/>
<path d="M355.719 327.132C355.368 327.339 355.018 327.546 354.656 327.759C356.749 330.957 358.756 333.347 362.097 334.662C361.292 332 359.806 331.123 357.845 329.642C357.117 328.828 356.401 327.999 355.719 327.132Z" fill="#444547"/>
<path d="M390.48 175.697C390.116 175.888 389.753 176.079 389.378 176.276C389.378 178.57 389.378 180.864 389.378 183.227C389.923 183.227 390.469 183.227 391.031 183.227C390.849 180.742 390.667 178.257 390.48 175.697Z" fill="#D9D1CB"/>
<path d="M312.572 208.4C312.124 208.646 312.124 208.646 311.668 208.897C311.923 209.359 312.179 209.821 312.443 210.297C313.268 211.578 313.268 211.578 313.218 212.51C314.07 212.51 314.923 212.51 315.801 212.51C315.801 211.795 315.801 211.079 315.801 210.342C314.681 208.775 314.178 208.088 312.572 208.4Z" fill="#3C3C3C"/>
<path d="M250.137 163.147C249.744 163.891 249.35 164.635 248.956 165.378C248.64 165.954 248.323 166.529 247.997 167.121C247.185 168.725 247.185 168.725 247.185 169.841C247.574 169.841 247.964 169.841 248.366 169.841C249.127 168.986 249.127 168.986 249.916 167.888C250.179 167.526 250.442 167.164 250.714 166.79C251.013 166.367 251.013 166.367 251.318 165.936C250.928 165.752 250.539 165.568 250.137 165.378C250.137 164.642 250.137 163.906 250.137 163.147Z" fill="#404143"/>
<path d="M223.079 161.002C222.421 161.156 222.421 161.156 221.748 161.314C221.412 161.396 221.076 161.478 220.73 161.563C220.73 161.737 220.73 161.912 220.73 162.091C221.904 162.269 223.079 162.445 224.254 162.619C225.235 162.766 225.235 162.766 226.236 162.916C228.005 163.147 228.005 163.147 229.824 163.147C225.868 160.336 225.868 160.336 223.079 161.002Z" fill="#DEDEDD"/>
<path d="M369.833 353.905C368.75 356.03 368.572 357.703 368.794 360.179C369.308 360.594 369.822 361.008 370.352 361.434C370.394 358.823 370.343 356.448 369.833 353.905Z" fill="#6E6D6E"/>
<path d="M298.222 219.203C298.021 219.203 297.82 219.203 297.614 219.203C297.614 220.921 297.614 222.639 297.614 224.409C298.216 224.731 298.216 224.731 298.83 225.06C300.14 222.959 300.169 222.272 300.047 219.854C299.445 220.069 298.843 220.284 298.222 220.505C298.222 220.075 298.222 219.646 298.222 219.203Z" fill="#D6D4D3"/>
<path d="M217.01 177.37C216.601 177.577 216.191 177.785 215.77 177.998C216.474 180.063 217.005 180.505 218.948 181.606C219.83 181.994 219.83 181.994 220.73 182.39C220.73 181.976 220.73 181.562 220.73 181.135C220.321 181.135 219.912 181.135 219.49 181.135C219.311 180.747 219.132 180.359 218.948 179.959C218.25 178.625 218.25 178.625 217.01 177.37Z" fill="#30302F"/>
<path d="M221.557 162.863C223.004 163.781 224.326 164.578 225.966 164.821C227.206 164.209 227.206 164.209 228.17 163.516C225.968 161.669 224.077 162.366 221.557 162.863Z" fill="#4E4E4E"/>
<path d="M203.369 76.972C202.225 77.3705 201.08 77.7689 199.935 78.1673C199.31 78.3522 198.684 78.537 198.039 78.7275C197.278 79.0418 197.278 79.0418 196.501 79.3625C196.312 79.9541 196.124 80.5458 195.929 81.1553C198.692 80.3109 200.918 79.1057 203.369 77.5697C203.369 77.3724 203.369 77.1752 203.369 76.972Z" fill="#2B2D2D"/>
<path d="M271.829 361.434C271.629 361.434 271.43 361.434 271.225 361.434C271.074 365.314 271.074 365.314 272.432 367.291C272.83 367.291 273.229 367.291 273.639 367.291C273.042 365.358 272.444 363.425 271.829 361.434Z" fill="#C6C2C1"/>
<path d="M330.005 191.594C329.41 191.778 328.815 191.962 328.202 192.152C329.987 193.624 331.773 195.097 333.613 196.614C334.01 196.43 334.406 196.246 334.815 196.056C333.228 194.584 331.641 193.111 330.005 191.594Z" fill="#4B4B4B"/>
<path d="M315.801 405.446C315.801 405.831 315.801 406.217 315.801 406.614C317.438 406.614 319.075 406.614 320.761 406.614C319.651 404.261 317.854 404.917 315.801 405.446Z" fill="#D6D1CD"/>
<path d="M359.616 350.558C359.616 351.149 359.616 351.741 359.616 352.35C360.994 353.658 360.994 353.658 362.372 354.741C362.554 354.149 362.736 353.558 362.923 352.948C361.792 351.605 361.266 351.154 359.616 350.558Z" fill="#E3E3E3"/>
<path d="M239.426 261.036C239.132 261.243 238.839 261.45 238.536 261.663C238.258 263.585 238.258 263.585 238.091 265.428C238.531 265.635 238.972 265.842 239.426 266.056C239.782 263.993 239.914 263.1 239.426 261.036Z" fill="#626361"/>
<path d="M389.929 237.609C389.747 238.083 389.565 238.556 389.378 239.044C390.089 239.701 390.826 240.338 391.582 240.956C391.946 240.956 392.31 240.956 392.685 240.956C392.465 239.576 392.249 239.129 390.997 238.207C390.644 238.01 390.292 237.813 389.929 237.609Z" fill="#525352"/>
<path d="M303.401 211.673C301.338 212.329 300.751 212.675 299.784 214.437C299.613 214.906 299.443 215.374 299.267 215.856C300.559 215.782 300.559 215.782 302.023 215.259C302.884 213.429 302.884 213.429 303.401 211.673Z" fill="#E0DEDD"/>
<path d="M228.446 163.984C227.025 164.228 227.025 164.228 225.69 164.542C225.918 164.91 226.145 165.278 226.379 165.657C226.834 165.657 227.289 165.657 227.757 165.657C227.984 166.209 228.212 166.762 228.446 167.331C228.901 167.331 229.355 167.331 229.824 167.331C229.221 164.611 229.221 164.611 228.446 163.984Z" fill="#FBFBFB"/>
<path d="M338.122 85.3386C337.304 85.7068 336.486 86.0749 335.642 86.4542C336.052 86.4542 336.461 86.4542 336.882 86.4542C336.882 86.8223 336.882 87.1904 336.882 87.5697C338.11 87.9378 339.338 88.306 340.603 88.6852C338.82 85.9661 338.82 85.9661 338.122 85.3386Z" fill="#DCDEE4"/>
<path d="M262.065 246.813C260.156 246.813 258.246 246.813 256.278 246.813C256.469 247.365 256.66 247.917 256.857 248.486C259.435 247.934 259.435 247.934 262.065 247.371C262.065 247.186 262.065 247.002 262.065 246.813Z" fill="#4F5153"/>
<path d="M241.191 11.7131C240.986 12.0813 240.782 12.4494 240.571 12.8287C241.799 14.1171 243.026 15.4056 244.291 16.7331C244.7 16.549 245.11 16.3649 245.531 16.1753C244.099 14.7028 242.667 13.2303 241.191 11.7131Z" fill="#6C6B6D"/>
<path d="M345.681 368.128C345.096 368.312 344.511 368.496 343.909 368.685C343.909 369.053 343.909 369.422 343.909 369.801C345.312 370.742 345.312 370.742 346.862 371.474C347.251 371.29 347.641 371.106 348.043 370.916C347.263 369.996 346.484 369.076 345.681 368.128Z" fill="#EAE9E9"/>
<path d="M300.92 218.367C300.102 218.551 299.284 218.735 298.44 218.924C298.44 219.477 298.44 220.029 298.44 220.598C298.85 220.598 299.259 220.598 299.68 220.598C299.885 221.518 300.09 222.438 300.3 223.387C300.505 223.387 300.71 223.387 300.92 223.387C300.92 221.73 300.92 220.073 300.92 218.367Z" fill="#F1EFEE"/>
<path d="M219.903 160.637C219.085 160.637 218.267 160.637 217.423 160.637C217.423 161.134 217.423 161.631 217.423 162.143C217.751 162.475 218.078 162.806 218.415 163.147C219.407 162.143 219.407 162.143 219.903 160.637Z" fill="#E6E5E4"/>
</g>
<defs>
<clipPath id="clip0_417_1473">
<rect width="590" height="420" fill="white" transform="matrix(-1 0 0 1 590 0)"/>
</clipPath>
</defs>
</svg>
