<svg width="461" height="412" viewBox="0 0 461 412" fill="none" xmlns="http://www.w3.org/2000/svg">
<g clip-path="url(#clip0_632_6717)">
<path fill-rule="evenodd" clip-rule="evenodd" d="M340.959 273.101C338.84 271.928 328.693 278.315 326.054 280.12C325.006 280.837 324.581 280.736 324.564 282.005C326.135 282.967 327.437 281.482 328.789 280.673L337.193 275.966C338.966 275.09 341.203 274.336 340.959 273.101ZM371.049 223.372C372.079 224.038 374.588 221.452 375.518 220.566C377.433 218.741 382.756 215.41 380.938 214.417C380.06 213.937 378.398 215.673 377.865 216.119L375.294 218.399C373.909 219.741 369.695 222.496 371.049 223.372ZM380.89 271.361C376.234 271.292 371.682 271.182 367.031 271.123C364.683 271.093 362.336 271.048 359.988 271.015C358.344 270.992 354.4 270.678 353.211 270.82C350.574 271.164 348.758 270.224 346.476 271.645C344.923 272.612 344.336 274.13 343.39 276.334C342.464 278.491 339.664 285.457 338.627 286.847C330.561 287.78 322.198 291.642 316.586 295.185C314.972 296.204 313.553 297.098 312.011 298.133L302.982 304.401L299.154 308.096C299.306 307.279 304.202 302.473 302.778 295.963C301.883 291.872 295.454 284.206 295.631 288.037C295.702 289.575 302.081 298.438 299.565 303.841C299.223 300.141 299.276 298.545 297.914 295.264C297.202 293.548 295.046 289.191 293.464 289.987C293.075 290.345 293.046 290.125 293.041 290.935L294.343 295.084L295.646 299.233C296.405 302.203 297.398 307.276 296.445 310.222C295.828 311.028 291.699 314.28 290.72 314.964C290.735 311.03 289.999 306.831 287.845 304.568C288.9 307.626 290.343 308.885 290.439 313.084C290.513 316.293 289.076 316.243 287.245 318.051C286.57 318.717 286.417 318.961 285.679 319.352L281.343 308.912C278.737 303.324 269.105 287.269 263.893 283.611C262.878 282.899 262.935 283.328 262.918 283.33C262.872 283.336 262.78 283.375 262.743 283.382C260.836 283.769 270.944 301.306 271.804 303.162C274.457 308.893 277.692 314.944 279.404 321.292C279.512 321.693 279.696 322.532 279.827 322.804C280.037 323.237 279.931 323.054 280.244 323.336L280.847 323.765C279.65 325.207 281.274 325.663 282.384 324.851L286.416 321.336C289.003 319.049 299.22 310.1 301.499 308.986C302.706 308.396 304.048 308.683 305.923 307.956C307.145 307.483 308.103 307.275 309.272 306.804C315.828 304.16 325.946 301.165 332.814 300.206L329.597 307.248C328.893 306.777 326.64 307.261 325.775 307.34L305.923 309.614L300.893 310.805C299.906 311.188 299.83 311.172 299.787 312.136C301.235 313.034 303.437 311.871 306.454 311.736C308.09 311.663 307.167 311.736 308.41 311.736C309.239 311.686 311.52 311.53 312.968 311.271L328.256 310.349C327.816 311.901 326.641 314.213 325.938 315.704C325.371 316.907 324.347 320.079 323.447 320.785C320.166 320.01 291.398 320.35 288.655 322.073C289.25 323.792 293.253 322.649 296.607 322.657C297.342 323.817 296.779 324.425 300.735 326.193C303.622 327.484 316.746 332.248 318.536 332.259C317.446 334.461 316.546 336.777 315.502 339.012C314.967 340.158 314.617 341.139 314.107 342.436C313.951 342.834 312.646 345.472 312.511 345.667C309.955 344.115 306.998 341.861 304.276 340.136L295.18 335.407C291.964 333.811 288.692 332.608 285.074 331.678C283.236 331.206 281.337 330.801 279.422 330.532C278.554 330.411 273.497 329.637 273.269 329.52C274.964 329.582 275.145 329.457 275.886 328.3C277.773 325.353 276.099 322.306 274.251 319.892C272.921 318.155 268.23 312.98 266.004 312.368L262.352 305.579C259.267 299.848 254.844 289.626 252.634 283.71C252.963 283.176 254.703 267.255 268.36 278.195C271.162 280.44 273.173 282.672 275.46 285.426C276.537 286.723 277.546 287.99 278.612 289.558C279.564 290.958 280.515 292.769 281.575 293.936C280.971 291.939 278.292 288.209 276.395 281.815C274.893 276.753 274.256 272.116 274.536 266.456C275.024 256.595 278.314 246.023 284.148 241.622C292.788 235.103 300.341 244.188 305.248 250.788C309.132 256.012 315.061 266.855 314.759 275.678C314.378 274.924 312.24 266.644 310.662 268.112C310.387 268.368 310.56 269.091 310.652 269.395C313.055 277.388 313.664 279.782 313.66 288.577C313.659 292.124 315.186 288.821 314.354 292.252C314.078 293.392 314.667 293.948 315.47 292.888C316.796 291.138 317.686 287.13 317.382 284.521C316.925 280.596 315.187 281.847 317.787 278.66C318.478 277.814 319.058 277.187 319.754 276.259C320.735 274.951 322.381 272.768 323.036 271.078C322.679 270.479 318.172 265.003 316.643 262.689C312.526 256.454 308.352 249.342 308.484 241.215C308.56 236.563 310.202 232.456 312.638 230.291L322.022 224.861C326.544 223.19 330.321 225.645 332.603 227.803C337.752 232.673 339.694 240.626 340.43 249.901C341.718 249.316 344.961 244.349 345.984 242.515C352.036 231.668 344.952 226.553 353.932 219.31L361.529 213.55C364.167 211.738 375.209 203.751 379.275 204.773C383.833 203.944 387.149 202.701 387.874 205.976C387.874 207.673 387.575 207.011 387.799 210.299C388.6 222.039 387.201 233.137 377.112 239.642C373.447 242.005 367.733 244.618 362.585 245.616C363.077 244.683 363.462 244.872 363.586 243.889C359.972 240.704 348.519 246.858 344.794 249.098C343.235 250.035 340.022 251.666 339.792 252.868C342.035 254.514 349.266 247.468 354.378 246.596C351.605 248.444 346.661 250.613 343.521 252.424C342.303 253.126 340.13 253.817 340.947 255.397C343.822 256.803 356.331 249.122 359.031 247.777C362.955 245.821 375.722 243.053 380.87 243.442C384.052 243.682 388.807 245.156 388.994 248.256C389.393 254.871 363.176 260.494 361.202 260.008C360.524 259.583 360.635 259.418 359.928 259.001C356.265 256.84 349.849 258.251 346.434 259.713C343.826 260.83 334.534 265.898 334.315 265.942C334.167 258.985 332.024 256.83 332.276 254.775C333.059 248.393 326.844 240.169 324.249 235.665C322.933 233.381 322.044 231.642 319.754 231.294C317.093 233.69 318.547 234.818 319.774 237.474C321.213 240.587 322.939 243.633 324.586 246.509C327.25 251.163 329.257 255.905 330.145 261.606C330.874 266.284 330.203 266.517 329.634 267.616C329.131 268.589 328.302 269.418 329.131 270.246C329.277 270.863 330.374 271.075 331.283 270.863C333.408 270.866 337.626 266.953 344.422 264.975C345.87 264.554 350.79 262.995 352.1 263.374C357.695 264.989 358.322 261.284 362.904 260.866C367.363 260.46 381.225 258.722 382.632 263.947C383.401 266.804 381.755 269.512 380.89 271.361Z" fill="#78B5AC"/>
<path fill-rule="evenodd" clip-rule="evenodd" d="M77.5262 150.653C77.0929 151.123 69.3476 154.426 67.919 155.161C63.9738 157.193 58.1583 160.695 54.9648 163.588C54.1609 164.316 53.926 164.405 53.056 165.315C51.5425 166.896 49.5795 168.415 47.7797 170.735C47.242 171.428 46.6741 171.988 46.1277 172.713C45.5615 173.464 45.1943 174.171 44.4397 174.748C39.3501 169.442 29.9543 156.053 26.2491 150.572C23.0419 145.827 12.6098 128.338 12.4555 121.498C15.2006 122.272 20.7594 127.125 22.7921 128.779C25.5912 131.058 50.1572 151.469 52.0292 152.395C51.554 150.466 50.1512 142.225 50.3823 140.311C50.8705 136.268 57.9343 139.662 60.129 140.497C66.4482 142.9 73.1259 146.904 77.5262 150.653Z" fill="#46867D"/>
<path fill-rule="evenodd" clip-rule="evenodd" d="M430.415 193.922C398.663 194.02 293.552 194.429 272.141 193.089L246.17 61.2884C240.771 57.0557 237.505 54.5061 230.456 51.0271C208.797 40.3367 186.091 41.2429 165.906 54.2469C163.677 55.6827 162.059 57.0557 160.094 58.6378L154.699 63.6907L147.795 72.0875C147.018 73.1459 146.353 74.2772 145.602 75.2338C144.677 74.7968 141.598 70.9045 140.686 69.8719C135.693 64.2183 131.794 64.0169 128.509 56.7666C126.232 51.7405 123.668 47.0335 121.825 42.8086C119.647 37.8123 119.397 34.5894 120.266 28.2848C121.68 18.0217 133.19 9.56643 141.998 6.35551C152.192 2.63902 164.577 2.09674 176.671 1.51977C197.11 0.544476 226.491 -1.31179 246.17 3.79322C260.208 7.43487 277.224 11.2985 290.194 17.753L380.876 63.7841C465.87 89.2777 430.439 179.903 430.415 193.922Z" fill="#EDF8FF"/>
<path fill-rule="evenodd" clip-rule="evenodd" d="M58.984 86.985C58.9932 88.0458 61.6317 89.3824 63.1237 90.3958C69.6224 94.8097 78.3638 103.561 83.5317 109.334L89.3438 115.174C92.2659 118.048 92.4884 115.749 90.3545 113.918C87.9297 111.837 79.3272 102.632 76.7963 100.041C74.2746 97.4589 71.5705 94.8708 68.5999 92.4488C67.0448 91.1807 65.8249 90.1991 64.1918 89.0876C62.5586 87.9764 60.1445 86.049 58.984 86.985ZM114.426 65.2169C114.914 64.1209 113.621 60.9472 113.197 59.5246C109.872 48.3714 106.503 55.3398 103.122 44.4757C102.72 43.1861 102.072 39.1289 100.561 40.0698C99.6253 40.6522 101.341 44.523 101.676 45.6835L111.794 60.6817C112.67 63.6787 112.653 65.4572 114.426 65.2169ZM137.259 75.8316C136.15 78.9983 133.137 85.4941 131.499 89.8143L126.122 104.02C125.799 105.152 125.389 106.963 124.605 107.732L120.29 89.578C119.586 86.5239 118.818 83.4555 118.071 80.3733L116.44 73.5024C116.11 72.152 116.228 71.8868 114.967 72.1317C114.583 73.2458 118.292 89.5438 118.827 92.0123C119.356 94.4513 122.784 110.863 123.247 111.818C121.501 117.953 117.948 124.226 113.979 128.881C113.548 129.387 113.177 129.605 112.734 130.049C111.577 131.209 109.29 133.877 107.661 134.755L95.5247 119.669C93.3288 117.017 92.2286 118.45 94.2156 120.741L99.4237 127.186C102.192 130.723 103.483 132.333 106.711 135.39C105.722 136.557 103.131 138.171 101.649 139.123C99.7716 140.328 97.8603 141.36 96.0937 142.533C95.3959 140.504 84.6439 128.661 82.568 126.321L73.44 116.269C72.936 115.767 72.6675 115.355 72.202 114.822L56.0955 95.4842C54.2326 92.8204 48.0941 85.1294 47.5968 82.3798C45.953 73.2939 56.1752 77.2487 60.8001 78.881C67.8017 81.3518 74.6535 85.0709 79.6459 89.9126C83.6576 93.8032 87.8813 98.2219 91.3208 102.753C92.1308 103.82 92.8082 104.848 93.5967 105.824C96.339 109.217 104.028 117.828 109.328 117.377C115.466 116.855 109.772 104.898 108.499 101.843C99.8969 81.1989 90.4279 78.798 89.1847 51.4482C89.1847 48.5475 87.9414 45.6467 87.9414 42.3316C87.9414 39.2898 88.115 36.7642 86.7343 32.4547C85.9799 30.1009 85.4419 26.9784 85.3739 24.3843C85.2704 20.4223 85.9163 18.7341 89.229 18.8233C92.4199 18.9088 94.2374 20.0802 96.1789 21.5536C103.756 27.3027 109.371 33.2327 115.183 40.674C125.209 53.5111 131.856 51.5224 135.614 67.9392C135.863 69.0263 137.019 75.4671 137.259 75.8316Z" fill="#46867D"/>
<path fill-rule="evenodd" clip-rule="evenodd" d="M189.292 267.601L189.759 270.496L190.89 281.524L191.505 295.02L191.357 306.19L190.467 318.902L189.229 329.944L187.808 339.588C188.75 339.605 188.87 339.446 189.426 339.996C187.885 339.842 187.057 339.464 186.034 338.663C186.617 337.554 186.247 337.647 185.924 336.948C185.503 336.037 185.69 335.749 185.492 334.644C184.493 329.086 175.629 318.075 171.764 309.777C165.159 295.6 165.729 288.879 161.828 275.768C156.968 259.431 147.325 245.312 132.88 238.455C128.391 236.324 117.25 234.312 114.86 236.793C115.062 239.165 117.512 237.112 123.253 237.834C130.86 238.791 139.325 243.407 144.091 248.84C144.605 249.426 144.846 249.561 145.486 250.119C145.986 250.556 146.279 250.97 146.745 251.533L149.163 254.461C163.426 273.324 160.819 290.485 169.025 308.414C173.946 319.164 175.927 320.434 180.66 328.584C181.971 330.84 183.368 332.828 183.838 336.025C181.068 335.877 179.742 336.326 177.599 337.432C174.075 339.251 166.941 346.575 167.053 349.002L167.663 349.488C168.895 349.343 170.177 346.725 170.912 345.795C173.539 342.466 178.566 337.043 183.688 337.923C183.588 340.856 180.861 344.733 179.722 347.055C177.541 351.502 178.032 354.864 173.639 360.657C171.894 362.959 169.413 365.545 167.32 367.456C165.747 368.892 164.166 370.072 165.045 370.899C165.903 371.589 166.375 370.661 167.037 370.093C169.921 367.615 172.771 364.827 175.06 361.839C179.691 355.793 179.08 353.091 181.253 348.379C182.578 345.505 184.495 342.962 185.432 339.599C186.314 341.927 186.577 349.009 186.217 351.647C185.284 358.469 181.064 363.237 176.048 367.192C172.609 369.903 170.308 370.981 168.39 372.432C167.341 373.226 167.2 375.422 170.528 373.324C177.105 369.18 183.355 364.756 186.629 357.385C188.634 352.871 187.968 351.258 188.424 346.277C188.88 350.234 190.073 354.432 194.355 351.26C199.291 347.604 199.329 346.435 204.141 351.237C205.568 352.661 206.616 354.288 209.576 355.508C215.35 357.89 214.114 351.598 213.816 347.86C218.894 348.514 223.257 348.497 228.387 348.158C246.076 347.046 255.534 350.57 267.833 361.133C269.358 362.443 272.847 371.039 272.665 373.568C263.146 377.203 252.583 380.352 242.168 382.799C221.688 387.612 192.952 390.933 171.691 392.025C159.635 392.644 146.776 392.362 136.009 388.518C127.574 385.507 123.467 382.195 118.011 376.656C117.564 376.203 116.135 374.511 115.757 373.796C115.337 373.003 115.075 370.895 114.864 369.808C110.539 347.527 105.125 326.484 100.482 304.565C98.8287 296.76 96.8338 287.302 95.8839 279.277C95.5328 276.31 95.657 273.022 95.3056 270.148C95.9151 266.519 114.288 234.182 116.479 233.033C118.591 232.665 117.601 233.074 118.727 231.187L121.974 226.191C123.337 224.346 123.542 224.168 124.972 222.896C125.912 222.06 126.113 220.512 128.555 220.853C130.848 221.174 133.275 221.719 135.395 222.326C143.952 224.775 151.252 229.46 156.997 233.76C160.253 236.198 167.068 241.937 170.487 245.275L185.717 263.066C186.503 264.131 188.429 267.013 189.292 267.601Z" fill="#FDA955"/>
<path fill-rule="evenodd" clip-rule="evenodd" d="M381.136 270.719C386.129 270.572 391.798 270.912 396.887 270.988L444.007 271.798C463.242 272.16 462.779 270.487 456.984 283.886L437.341 328.344C435.571 332.243 408.321 394.533 407.891 394.836C406.568 395.279 404.005 394.598 402.808 395.295C384.314 395.863 365.325 396.75 346.854 397.856C337.572 398.412 328.162 398.729 318.87 399.232C314.246 399.482 294.202 400.692 291.184 400.462C292.729 400.359 294.066 399.217 294.74 398.219L300.457 385.728C303.025 380.227 305.361 374.613 307.91 369.136C313.012 358.171 317.723 346.971 322.874 336.025C325.517 330.411 327.949 324.95 330.47 319.346L345.39 286.186C346.666 283.396 347.829 280.654 349.172 277.832C350.585 274.862 351.166 271.65 353.963 270.521L353.458 270.178C354.647 270.036 358.591 270.35 360.235 270.373C362.582 270.406 364.93 270.451 367.277 270.481C371.928 270.54 376.481 270.65 381.136 270.719Z" fill="#B1BECB"/>
<path fill-rule="evenodd" clip-rule="evenodd" d="M114.843 204.304C114.619 206.689 111.603 210.682 112 218.969C112.182 222.766 114.165 230.132 116.526 231.935L116.479 233.033C114.288 234.182 95.9151 266.52 95.3056 270.148C94.2791 271.38 91.0595 279.219 90.1712 281.334C88.5401 285.215 86.9517 289.081 85.3613 293.035C79.4683 307.687 72.9928 326.381 68.4241 341.654L62.8831 360.638C62.3461 362.564 61.7799 365.458 61.1337 367.036C53.7964 366.204 45.3547 363.348 39.2231 360.743C32.2182 357.766 26.9817 354.122 21.8626 350.169C20.1922 348.879 19.5098 348.038 18.203 346.791C17.4679 346.089 17.079 345.696 16.3898 344.952C14.1242 342.508 13.7752 342.34 11.5397 339.368C1.5088 326.035 -3.41957 307.292 4.24537 291.342C7.2974 284.99 12.2441 280.419 17.7599 276.92C24.8194 272.442 36.7817 267.236 40.527 264.715C44.9469 261.739 48.0984 256.616 46.7059 250.688C46.2714 246.622 43.5317 241.842 41.9637 238.532C41.0763 236.659 40.2083 234.712 39.4666 232.783C39.0272 231.64 37.7471 227.412 37.1483 226.81C37.2839 224.471 27.7736 202.579 41.4752 179.728C42.0824 178.715 44.2872 175.345 44.4398 174.747C45.1944 174.171 45.5615 173.464 46.1277 172.713C46.6741 171.988 47.242 171.428 47.7798 170.735C49.5796 168.415 51.5425 166.896 53.0561 165.315C53.926 164.405 54.1609 164.316 54.9649 163.588C58.1583 160.695 63.9738 157.193 67.919 155.161C69.3477 154.426 77.0929 151.123 77.5263 150.653C78.977 150.594 85.3321 147.684 87.0814 146.895C88.6921 146.169 90.1133 145.508 91.7026 144.716C93.1257 144.007 94.7213 143.027 96.0938 142.533C97.8603 141.36 99.7716 140.328 101.649 139.122C103.131 138.171 105.722 136.557 106.711 135.389C107.383 135.136 107.114 135.222 107.661 134.755C109.29 133.877 111.577 131.209 112.734 130.049C113.178 129.604 113.548 129.387 113.979 128.881C117.948 124.226 121.501 117.953 123.247 111.818C123.67 110.931 124.544 108.836 124.605 107.732C125.389 106.963 125.8 105.152 126.122 104.02C126.7 104.863 126.252 107.845 126.165 109.217C125.784 115.197 126.106 120.371 125.777 125.665C125.062 137.193 121.484 150.577 114.913 159.43C110.518 165.351 107.739 165.877 101.415 168.261C73.4013 178.818 87.3817 202.162 97.3569 206.236C101.891 208.088 106.825 207.368 111.401 205.696C113.201 205.038 114.403 204.081 114.843 204.304Z" fill="#2A3652"/>
<path fill-rule="evenodd" clip-rule="evenodd" d="M272.608 389.734C277.407 388.096 278.488 385.271 279.588 380.387C281.224 373.127 280.421 369.616 281.141 365.604C278.03 364.688 274.447 363.428 271.145 362.371C274.667 369.945 277.249 378.586 274.101 386.755C273.686 387.831 272.983 388.765 272.608 389.734ZM228.386 348.158C227.291 345.874 226.245 344.073 225.23 341.314C224.353 338.933 223.627 336.384 222.97 333.84C221.602 328.539 220.857 323.082 219.875 317.479C220.074 316.968 219.858 317.442 220.105 317.026L221.637 314.938C222.919 313.125 225.987 308.381 226.326 306.511C226.809 306.038 227.116 305.245 227.252 304.395C227.866 305.238 227.809 306.355 228.007 307.696C228.746 312.713 229.849 318.207 231.842 322.805C234.496 328.927 239.356 331.345 246.682 330.037C248.806 329.658 250.627 328.97 252.6 328.416C255.636 327.564 256.156 328.425 258.242 329.482C260.437 328.071 261.879 326.786 265.079 326.03C268.537 325.213 272.748 327 271.508 328.349C270.304 329.659 269.41 326.982 264.99 328.177C263.349 328.62 260.935 329.945 259.901 330.892L260.086 331.21C260.62 332.052 259.795 330.798 260.283 331.511L261.117 332.623C261.151 332.663 261.205 332.723 261.237 332.759C261.27 332.795 261.339 332.862 261.366 332.891L261.642 333.154C263.12 332.419 264.107 331.69 265.941 331.041L270.762 330.164C270.249 331.431 263.251 333.356 262.983 334.774C263.379 336.777 268.635 340.312 271.216 341.479C275.421 343.38 279.144 343.686 284.226 343.473C289.173 343.266 292.566 344.953 296.327 346.721C305.537 351.049 302.307 350.427 304.625 353.371C305.903 352.287 307.656 351.136 309.925 350.758L304.254 364.272C303.642 365.606 302.988 367.606 302.211 368.734C295.988 368.263 289.042 367.41 282.765 367.557C282.782 369.944 282.784 372.005 282.498 374.35C282.289 376.068 281.518 378.939 281.518 380.358C280.962 383.07 280.233 384.453 279.396 386.758C278.24 388.491 277.386 390.736 273.571 390.509C271.269 390.373 271.558 390.639 270.24 391.936C268.95 393.206 268.205 392.979 267.199 393.798C261.012 395.231 254.816 396.238 248.238 397.096C241.416 397.987 214.455 398.254 205.307 398.582C201.716 398.711 198.191 398.917 194.609 399.148C191.337 399.358 187.539 400.027 184.697 400.192C171.709 402.57 167.399 404.344 152.659 402.723C142.709 401.628 132.184 399.211 125.408 394.515C122.136 392.247 122.875 391.607 119.339 391.686C102.243 392.07 83.9934 392.811 67.1271 392.961C64.3596 392.985 61.0474 393.275 58.3668 393.133L71.9075 388.414C79.6823 385.814 90.2389 381.324 97.6821 377.778L106.537 372.994C107.898 372.195 108.453 371.901 107.923 370.228C106.159 370.121 105.866 370.626 104.723 371.354L98.9645 374.591C91.0905 378.927 78.7645 383.439 70.0997 386.734C67.0826 387.881 59.1604 390.636 56.3771 391.276C57.0317 387.15 57.8881 383.084 58.6751 379.015C59.058 377.035 59.457 374.99 59.8944 372.952C60.2733 371.188 60.9381 368.809 61.1337 367.036C61.7799 365.457 62.3461 362.564 62.883 360.638L68.4241 341.654C72.9928 326.381 79.4683 307.687 85.3613 293.035C86.9517 289.081 88.5401 285.215 90.1712 281.333C91.0595 279.219 94.279 271.379 95.3056 270.148C95.6569 273.021 95.5327 276.31 95.8838 279.277C96.8337 287.302 98.8286 296.76 100.482 304.565C105.125 326.484 110.539 347.527 114.864 369.808C115.075 370.894 115.337 373.003 115.757 373.796C116.135 374.511 117.564 376.203 118.011 376.656C123.467 382.195 127.574 385.507 136.009 388.518C146.776 392.362 159.635 392.644 171.691 392.025C192.952 390.933 221.688 387.612 242.168 382.799C252.583 380.351 263.146 377.203 272.665 373.568C272.846 371.038 269.358 362.443 267.833 361.133C255.534 350.57 246.076 347.046 228.386 348.158Z" fill="#E16C35"/>
<path fill-rule="evenodd" clip-rule="evenodd" d="M233.275 155.837C235.518 159.245 245.04 160.726 243.31 157.954C242.604 156.823 239.641 158.376 235.812 155.68C235.236 155.274 235.261 155.121 234.787 154.747C233.498 153.73 232.569 154.765 233.275 155.837ZM211.291 130.829C212.11 135.207 215.419 137.859 219.99 138.731C222.574 139.224 224.953 138.895 226.958 137.674C234.734 132.941 224.467 126.849 220.181 125.171C214.871 123.093 210.097 124.444 211.291 130.829ZM244.455 126.601C243.164 126.234 241.835 125.853 240.706 125.054C237.642 122.887 237.644 125.182 232.225 122.852C229.795 121.807 230.154 120.933 228.929 120.727C228.391 123.227 234.4 130.146 243.259 127.268C243.442 127.208 243.632 127.149 243.802 127.062C244.46 126.725 244.11 126.93 244.455 126.601ZM189.534 113.063C187.219 113.341 186.626 113.942 186.313 116.985C186.285 117.261 186.235 117.953 186.265 118.21C186.356 118.979 186.145 117.918 186.353 118.656C186.483 119.116 186.431 118.963 186.629 119.241C185.898 120.797 185.091 121.976 186.576 123.815C187.252 124.654 190.695 127.087 191.627 124.178C193.207 119.252 194.67 110.86 187.342 110.176C186.268 110.075 183.265 110.092 182.546 111.014C182.083 111.607 182.427 111.821 182.71 112.16C184.351 113.045 187.222 111.048 189.534 113.063ZM247.772 110.192C247.697 108.955 244.843 107.13 243.702 106.52C237.61 103.262 232.62 104.01 226.766 106.879C225.958 107.276 225.862 107.143 225.733 108.047C226.749 108.371 235.108 108.797 237.111 108.988C238.835 109.152 247.023 110.617 247.772 110.192ZM256.024 126.378C255.928 124.67 256.236 122.956 256.535 121.346L257.209 117.916C257.178 116.419 255.829 115.903 255.173 118.544C254.908 119.613 254.661 120.656 254.461 121.696C252.201 133.472 257.652 137.962 257.844 140.663C256.549 141.205 255.506 141.732 253.842 142.218C252.884 142.497 247.826 143.132 250.387 145.249C251.356 146.05 252.806 146.154 254.093 145.997C255.021 145.884 255.096 145.603 255.867 145.485C255.266 147.675 251.078 156.358 249.847 158.86C247.649 163.325 245.191 167.674 242.532 170.969C239.702 174.474 236.034 177.411 229.125 176.446C221.964 175.446 219.561 173.689 214.084 172.059C212.374 171.132 210.427 170.396 208.724 169.412C206.916 168.366 205.493 167.543 203.818 166.307C201.374 164.504 197.59 161.107 196.401 157.798C194.974 151.05 196.567 150.173 197.73 144.368C198.856 138.744 195.792 136.42 190.713 135.893C188.263 132.131 185.463 129.716 180.603 127.604C163.715 120.266 185.098 95.075 197.2 105.849C199.18 109.215 199.883 110.653 199.446 115.529C199.299 117.172 198.922 117.896 200.707 117.919C202.239 116.436 201.591 113.064 201.676 110.684L201.78 109.799C218.035 107.709 232.605 104.678 244.245 93.2888L248.658 88.9661C252.097 85.0741 258.293 77.3084 259.052 72.7787C263.029 78.8082 265.05 90.8771 264.536 99.0293C264.438 100.573 263.906 107.788 262.809 108.398C262.448 108.599 262.723 108.49 262.275 108.657C262.005 108.759 261.649 108.817 261.341 108.922C259.688 109.483 257.361 110.939 257.319 112.817C258.791 112.94 260.83 111.988 262.344 111.68C260.993 117.357 258.187 123.297 257.322 126.769L256.024 126.378Z" fill="#FDDBCC"/>
<path fill-rule="evenodd" clip-rule="evenodd" d="M270.275 142.104C270.408 143.794 269.962 145.567 269.99 147.348C270.144 157.162 279.878 161.442 272.763 175.266C271.598 178.174 270.893 179.727 270.893 179.727L258.974 194.694C258.292 195.452 258.11 195.538 257.485 196.357L255.894 198.165C253.572 201.163 252.636 201.883 249.893 205.755C247.071 209.737 244.503 214.719 243.946 219.959C243.098 227.95 248.212 233.899 246.66 243.787C245.967 248.204 244.544 250.431 242.735 253.484C242.13 252.943 239.574 246.714 239.153 245.82C237.908 243.175 236.559 240.723 235.185 238.377C232.965 234.583 227.952 227.5 224.916 225.857C224.434 216.907 223.822 210.494 219.241 204.546C215.28 199.402 209.929 195.312 203.108 195.206C201.493 195.181 201.88 195.146 201.569 194.749C201.821 194.499 209.315 180.468 209.693 179.446C210.604 178.466 212.32 174.521 213.351 172.878C213.836 172.105 213.483 172.491 214.084 172.059C219.561 173.689 221.964 175.446 229.125 176.446C236.034 177.411 239.702 174.474 242.532 170.969C245.191 167.674 247.649 163.325 249.847 158.86C251.078 156.358 255.266 147.675 255.867 145.485L257.077 143.951C257.595 142.968 257.415 143.086 258.236 142.483C261.764 139.892 257.833 137.596 257.791 135.211C257.69 129.408 259.219 130.623 255.871 129.129L256.024 126.378L257.322 126.769C258.187 123.297 260.993 117.357 262.344 111.68C260.83 111.988 258.792 112.94 257.319 112.817C257.361 110.939 259.688 109.483 261.341 108.922C261.649 108.817 262.005 108.759 262.276 108.657C262.723 108.49 262.448 108.599 262.809 108.398C263.906 107.788 264.438 100.573 264.536 99.0293C265.05 90.8771 263.029 78.8082 259.052 72.7787C258.714 72.0322 258.616 72.2034 258.709 71.2049C259.502 70.6056 259.943 69.0255 259.281 68.2914C261.182 68.7086 266.071 71.239 267.826 72.2086C270.662 73.7752 273.126 75.7611 274.725 78.1647C282.353 89.6311 274.326 106.51 271.221 119.319C269.892 124.798 268.177 136.715 270.275 142.104Z" fill="#2A3652"/>
<path fill-rule="evenodd" clip-rule="evenodd" d="M184.697 400.192C185.163 401.706 186.728 403.186 188.326 403.707C190.271 404.341 205.941 403.491 208.637 403.381L283.983 400.816C286.184 400.738 289.069 400.715 291.184 400.462C294.202 400.692 314.246 399.482 318.87 399.232C328.162 398.729 337.573 398.412 346.854 397.856C365.325 396.75 384.314 395.863 402.808 395.295C405.324 395.022 411.807 396.45 413.863 397.452C418.047 399.492 416.874 403.484 412.912 404.471C410.918 404.967 403.008 404.31 400.06 404.402C381.743 404.975 358.018 408.002 338.969 409.483C322.032 410.799 304.52 410.94 287.383 411.116C252.402 411.476 217.221 411.39 182.238 411.859C144.083 412.37 120.712 409.37 83.7881 404.359C75.9322 403.293 67.6294 402.18 59.5996 401.968C55.322 401.855 50.6626 402.543 49.1035 399.162C47.1147 394.85 53.4012 394.223 55.957 393.311C56.0841 392.621 55.0836 392.498 56.3772 391.276C59.1605 390.636 67.0827 387.881 70.0997 386.734C78.7645 383.439 91.0905 378.927 98.9646 374.591L104.723 371.354C105.866 370.626 106.159 370.121 107.923 370.228C108.453 371.902 107.898 372.195 106.537 372.994L97.6822 377.778C90.239 381.324 79.6823 385.814 71.9076 388.414L58.3669 393.133C61.0475 393.275 64.3596 392.985 67.1271 392.961C83.9935 392.811 102.243 392.07 119.339 391.687C122.875 391.608 122.136 392.247 125.408 394.515C132.184 399.211 142.709 401.629 152.659 402.723C167.399 404.345 171.709 402.571 184.697 400.192Z" fill="#818EA0"/>
<path fill-rule="evenodd" clip-rule="evenodd" d="M242.735 253.483C242.707 254.367 247.217 266.15 247.942 268.119C249.713 272.931 251.284 278.282 252.881 283.068C255.091 288.984 259.514 299.206 262.598 304.937L266.251 311.726L270.629 319.97C273.423 324.958 273.603 324.683 273.515 328.878C273.743 328.995 278.8 329.769 279.669 329.891C281.584 330.159 283.483 330.564 285.32 331.036C288.938 331.966 292.211 333.169 295.427 334.766L304.523 339.494C307.244 341.219 310.202 343.474 312.757 345.025C312.338 346.121 311.966 346.866 311.488 347.954L310.301 350.41C310.007 350.762 310.224 350.556 309.925 350.758C307.656 351.136 305.902 352.287 304.624 353.372C302.307 350.428 305.537 351.049 296.327 346.721C292.565 344.954 289.173 343.266 284.226 343.474C279.144 343.687 275.421 343.381 271.216 341.479C268.635 340.312 263.379 336.778 262.983 334.774C263.251 333.356 270.249 331.431 270.762 330.164L265.941 331.042C264.107 331.691 263.12 332.42 261.642 333.154L261.366 332.892C261.339 332.863 261.269 332.795 261.237 332.759C261.205 332.724 261.151 332.663 261.117 332.623L260.283 331.511C259.795 330.798 260.62 332.052 260.086 331.211L259.901 330.892C260.934 329.945 263.349 328.62 264.99 328.177C269.41 326.982 270.304 329.659 271.508 328.349C272.748 327.001 268.537 325.213 265.078 326.03C261.879 326.786 260.437 328.072 258.242 329.482C256.156 328.425 255.636 327.565 252.6 328.417C250.627 328.971 248.806 329.658 246.682 330.037C239.356 331.345 234.496 328.927 231.842 322.805C229.849 318.207 228.745 312.714 228.007 307.696C227.809 306.355 227.865 305.238 227.252 304.395C228.477 302.859 229.356 296.689 229.31 294.262C229.829 290.155 228.274 283.474 226.761 280.387C226 278.756 224.964 276.369 224.375 274.694C223.766 272.96 222.743 270.606 222.325 268.904L217.858 256.579L216.404 252.78C215.934 251.939 215.931 251.18 215.182 249.128C214.933 248.446 214.679 247.596 214.239 246.82L212.036 240.878L212.298 240.082C213.225 234.625 210.715 220.955 209.308 215.922C207.681 210.1 206.127 205.81 203.556 200.552C203.162 199.747 202.734 198.918 202.337 198.126C201.575 196.602 201.647 196.377 200.984 196.254C201.046 196.056 201.124 195.668 201.199 195.47L201.569 194.749C201.88 195.146 201.493 195.181 203.108 195.206C209.929 195.312 215.28 199.402 219.241 204.546C223.822 210.494 224.434 216.907 224.916 225.857C227.951 227.5 232.964 234.583 235.185 238.377C236.559 240.723 237.908 243.174 239.152 245.82C239.573 246.714 242.129 252.943 242.735 253.483Z" fill="#FDA955"/>
<path fill-rule="evenodd" clip-rule="evenodd" d="M168 191.655C169.278 193.42 170.133 196.61 170.838 198.875L177.359 221.568C177.366 221.916 178.437 225.809 178.545 226.05L183.932 246.047L176.22 234.468C175.161 233.142 174.155 231.638 172.794 230.601C172.341 230.255 172.18 230.043 171.799 229.64C169.419 227.113 170.635 228.174 168.202 226.175C167.592 225.673 167.865 225.746 167.397 225.304C167.094 225.016 166.762 224.826 166.43 224.549C163.504 222.113 158.676 219.069 155.354 217.642C153.168 216.704 152.227 216.412 150.771 215.219C148.151 213.072 145.522 211.159 143.015 208.892C139.643 205.844 134.77 201.809 130.858 199.679C128.431 198.357 123.74 196.069 120.569 195.637C121.073 194.591 124.002 191.695 125.016 190.656C125.613 190.044 126.744 189.202 127.551 188.567C135.896 181.998 149.574 177.305 159.365 181.869C162.965 183.547 167.66 188.774 168 191.655Z" fill="#FDA955"/>
<path fill-rule="evenodd" clip-rule="evenodd" d="M183.932 246.047L184.274 246.643C184.615 247.75 185.17 248.751 185.638 249.8C186.812 252.426 186.459 251.47 185.727 252.954L187.337 257.559L189.292 267.601C188.429 267.013 186.503 264.131 185.717 263.066L170.487 245.275C167.068 241.937 160.253 236.198 156.997 233.76C151.252 229.46 143.952 224.775 135.394 222.326C133.275 221.719 130.848 221.174 128.555 220.853C126.113 220.512 125.912 222.06 124.972 222.896C123.542 224.168 123.337 224.347 121.974 226.191L118.727 231.187C117.601 233.074 118.591 232.665 116.479 233.033L116.526 231.935C114.165 230.132 112.182 222.766 112 218.969C111.603 210.682 114.619 206.689 114.843 204.304C115.333 203.933 117.056 200.546 117.57 199.718C118.397 198.382 119.548 196.531 120.569 195.637C123.74 196.069 128.431 198.357 130.858 199.679C134.77 201.809 139.643 205.844 143.015 208.892C145.522 211.159 148.151 213.072 150.771 215.219C152.227 216.412 153.168 216.704 155.354 217.643C158.676 219.069 163.504 222.113 166.43 224.549C166.762 224.826 167.094 225.016 167.397 225.304C167.865 225.746 167.592 225.673 168.202 226.175C170.635 228.174 169.419 227.113 171.799 229.64C172.18 230.043 172.341 230.255 172.794 230.601C174.155 231.638 175.161 233.142 176.22 234.468L183.932 246.047Z" fill="#E16C35"/>
<path fill-rule="evenodd" clip-rule="evenodd" d="M290.297 400.817C288.181 401.071 285.455 401.468 283.255 401.546L208.46 404.216C205.764 404.326 186.607 404.85 184.662 404.216C184.48 404.145 184.63 401.887 184.697 400.192C187.539 400.028 191.337 399.358 194.609 399.148C198.191 398.917 201.716 398.711 205.307 398.583C214.455 398.254 240.978 397.095 247.8 396.204C254.377 395.345 261.012 395.231 267.199 393.798C267.257 394.496 276.505 393.787 277.912 393.776C282.04 393.041 287.215 394.43 289.867 393.962L292.805 389.877C291.672 389.795 290.468 389.068 289.813 388.211L293.454 388.257L296.072 382.448L302.212 368.734C302.988 367.606 303.642 365.606 304.254 364.273L309.925 350.758C310.224 350.555 310.008 350.762 310.302 350.41L311.488 347.954C311.966 346.866 312.338 346.121 312.758 345.025C312.893 344.83 314.197 342.193 314.354 341.794C314.864 340.497 315.214 339.516 315.749 338.37C316.792 336.135 317.693 333.819 318.782 331.617C319.619 329.678 320.55 327.912 321.299 325.974C321.698 324.942 322.021 323.945 322.486 323.041C322.959 322.119 323.568 321.212 323.693 320.143C324.593 319.437 325.617 316.265 326.185 315.062C326.888 313.572 328.062 311.259 328.503 309.707L329.844 306.606L333.061 299.564L334.049 297.142L335.924 292.857L338.874 286.205C339.911 284.815 342.711 277.849 343.636 275.692C344.583 273.488 345.17 271.97 346.723 271.003C349.005 269.582 350.821 270.522 353.458 270.178L353.963 270.521C351.166 271.65 350.585 274.862 349.172 277.832C347.829 280.654 346.666 283.396 345.39 286.186L330.47 319.346C327.949 324.95 325.517 330.411 322.874 336.025C317.723 346.971 313.012 358.171 307.91 369.136C305.361 374.613 303.025 380.227 300.457 385.728L295.153 398.146C294.48 399.145 291.841 400.715 290.297 400.817Z" fill="#655A55"/>
<path fill-rule="evenodd" clip-rule="evenodd" d="M201.569 194.748L201.199 195.47C201.125 195.668 201.046 196.056 200.984 196.254L198.198 202.138C196.872 202.839 196.912 203.45 196.567 205.36C195.843 209.38 194.403 213.119 191.889 215.992C189.507 218.714 185.94 221.044 181.991 221.439C179.752 221.662 179.737 221.453 178.147 221.331C177.09 221.249 177.732 220.99 177.359 221.568L170.838 198.875C176.628 196.897 200.751 184.242 207.267 180.617L209.038 179.727C209.519 179.456 209.269 179.617 209.526 179.408L209.693 179.446C209.315 180.467 201.821 194.499 201.569 194.748Z" fill="#FDDBCC"/>
<path fill-rule="evenodd" clip-rule="evenodd" d="M189.426 339.996C191.804 340.074 193.357 342.42 194.867 342.678C195.344 343.443 195.465 343.387 196.193 343.883C196.699 344.229 196.988 344.449 197.473 344.786C198.335 345.387 199.467 346.203 200.581 346.43C202.002 348.583 210.724 347.467 213.816 347.86C214.114 351.598 215.35 357.89 209.576 355.508C206.616 354.288 205.568 352.661 204.141 351.237C199.329 346.435 199.291 347.604 194.355 351.26C190.073 354.432 188.88 350.234 188.424 346.277C187.968 351.258 188.634 352.871 186.629 357.385C183.355 364.756 177.105 369.18 170.528 373.324C167.2 375.422 167.341 373.226 168.39 372.433C170.308 370.982 172.609 369.903 176.048 367.192C181.064 363.237 185.284 358.469 186.217 351.647C186.577 349.009 186.314 341.927 185.432 339.599C184.495 342.962 182.578 345.505 181.253 348.379C179.08 353.091 179.691 355.793 175.06 361.839C172.771 364.827 169.921 367.615 167.037 370.093C166.375 370.661 165.903 371.589 165.045 370.899C164.166 370.072 165.746 368.892 167.32 367.456C169.413 365.545 171.894 362.959 173.639 360.657C178.032 354.864 177.541 351.502 179.722 347.055C180.861 344.734 183.588 340.856 183.688 337.923C178.566 337.043 173.539 342.466 170.912 345.795C170.177 346.725 168.895 349.343 167.663 349.488L167.053 349.002C166.941 346.575 174.075 339.251 177.599 337.432C179.742 336.326 181.067 335.877 183.838 336.025C183.368 332.828 181.971 330.84 180.66 328.584C175.927 320.434 173.946 319.164 169.025 308.414C160.819 290.485 163.426 273.324 149.163 254.461L146.745 251.533C146.279 250.97 145.986 250.556 145.486 250.119C144.846 249.561 144.605 249.426 144.091 248.84C139.325 243.407 130.86 238.791 123.253 237.834C117.512 237.112 115.062 239.165 114.86 236.793C117.25 234.312 128.391 236.324 132.88 238.455C147.325 245.312 156.968 259.431 161.828 275.768C165.729 288.879 165.159 295.6 171.764 309.777C175.629 318.075 184.493 329.086 185.492 334.644C185.69 335.749 185.503 336.037 185.924 336.948C186.247 337.647 186.617 337.554 186.034 338.663C187.057 339.464 187.885 339.842 189.426 339.996Z" fill="#E16C35"/>
<path fill-rule="evenodd" clip-rule="evenodd" d="M228.386 348.158C223.257 348.497 218.894 348.514 213.816 347.86C210.724 347.467 202.002 348.583 200.581 346.43L202.616 342.68L209.883 330.701C210.624 329.786 211.215 328.765 211.916 327.801C212.622 326.83 213.158 326.12 213.898 325.169C214.746 324.078 217.454 320.766 217.894 319.575C218.641 319.201 218.437 319.247 218.938 318.559C219.075 318.37 219.207 318.176 219.357 318C219.71 317.588 219.493 317.795 219.875 317.479C220.857 323.082 222.148 328.262 223.516 333.563C224.173 336.107 225.068 339.194 225.944 341.575C226.96 344.334 227.291 345.875 228.386 348.158Z" fill="#B7573A"/>
<path fill-rule="evenodd" clip-rule="evenodd" d="M209.526 179.408C209.269 179.617 209.519 179.456 209.038 179.727L207.267 180.618C200.751 184.242 176.628 196.897 170.838 198.875C170.133 196.611 169.278 193.42 168 191.655L168.957 190.861C175.011 183.678 176.825 184.244 180.53 180.84C181.16 180.261 181.63 179.756 182.542 179.51C187.7 178.761 190.611 178.342 196.082 178.648C199.505 178.838 206.606 179.859 209.526 179.408Z" fill="#DC908D"/>
<path fill-rule="evenodd" clip-rule="evenodd" d="M196.401 157.798C197.59 161.107 201.374 164.504 203.818 166.307C205.493 167.543 206.916 168.366 208.724 169.412C210.427 170.396 212.374 171.132 214.084 172.059C213.483 172.491 213.836 172.105 213.351 172.878C212.32 174.521 210.604 178.466 209.693 179.446L209.526 179.408C206.606 179.859 199.505 178.838 196.082 178.647C190.611 178.342 187.7 178.761 182.542 179.51C183.104 178.451 185.587 176.145 186.727 174.655C188.027 172.955 189.163 171.135 190.275 168.976C192.245 165.151 193.855 159.869 194.546 155.196C195.134 155.67 195.036 155.832 195.411 156.516L196.265 157.666C196.285 157.624 196.355 157.755 196.401 157.798Z" fill="#DC908D"/>
<path fill-rule="evenodd" clip-rule="evenodd" d="M259.052 72.7786C258.293 77.3084 252.097 85.074 248.658 88.966L244.245 93.2887C232.605 104.678 218.035 107.709 201.78 109.799L201.676 110.684C201.614 110.567 200.534 105.923 200.531 105.64C214.129 104.855 229.664 98.905 238.802 91.9687C241.607 89.8395 245.585 86.1606 248.169 83.8455L258.709 71.2048C258.616 72.2034 258.714 72.0322 259.052 72.7786Z" fill="#F0B0AE"/>
<path fill-rule="evenodd" clip-rule="evenodd" d="M302.211 368.734L296.072 382.448C294.494 383.603 290.121 383.761 287.982 383.453C284.617 382.968 283.46 381.764 281.518 380.358C281.518 378.939 282.289 376.068 282.498 374.35C282.784 372.005 282.782 369.944 282.765 367.557C289.042 367.41 295.988 368.263 302.211 368.734Z" fill="#FDDBCC"/>
<path fill-rule="evenodd" clip-rule="evenodd" d="M212.037 240.878C210.2 235.032 207.619 228.816 205.454 222.936C204.35 219.939 203.238 217.016 202.179 214.069C201.16 211.232 199.691 207.746 199.029 204.873C198.743 203.458 198.494 203.14 198.198 202.138L200.984 196.254C201.647 196.377 201.576 196.602 202.337 198.125C202.734 198.918 203.162 199.746 203.556 200.552C206.128 205.81 207.681 210.1 209.308 215.922C210.715 220.955 213.225 234.625 212.298 240.082L212.037 240.878Z" fill="#E16C35"/>
<path fill-rule="evenodd" clip-rule="evenodd" d="M211.291 130.829C210.097 124.444 214.871 123.092 220.181 125.171C224.467 126.849 234.734 132.941 226.958 137.674C224.953 138.895 222.574 139.223 219.99 138.73C215.419 137.858 212.11 135.206 211.291 130.829Z" fill="#DC908D"/>
<path fill-rule="evenodd" clip-rule="evenodd" d="M272.608 389.734C272.983 388.766 273.686 387.831 274.101 386.755C277.249 378.587 274.667 369.945 271.145 362.371C274.447 363.428 278.03 364.688 281.141 365.604C280.421 369.616 281.224 373.127 279.588 380.387C278.488 385.271 277.407 388.096 272.608 389.734Z" fill="#FDA955"/>
<path fill-rule="evenodd" clip-rule="evenodd" d="M289.813 388.211C290.468 389.068 291.671 389.795 292.805 389.877L291.026 393.819C288.373 394.287 281.973 394.001 278.884 394.025C277.477 394.037 267.257 394.496 267.199 393.798C268.205 392.98 268.95 393.206 270.24 391.936C271.558 390.639 271.269 390.373 273.571 390.509C277.386 390.736 278.24 388.491 279.396 386.759C281.168 387.117 282.768 387.527 284.648 387.765C286.303 387.975 288.216 387.978 289.813 388.211Z" fill="#4C4543"/>
<path fill-rule="evenodd" clip-rule="evenodd" d="M334.049 297.142C329.293 297.148 316.69 301.136 311.576 303.117C309.568 303.895 306.634 305.333 304.958 305.815L310.922 301.009C311.924 300.244 312.943 299.598 314.045 298.792C316.509 296.99 323.235 295.486 326.419 294.664C329.707 293.815 332.617 293.523 335.924 292.857L334.049 297.142Z" fill="#78B5AC"/>
<path fill-rule="evenodd" clip-rule="evenodd" d="M256.024 126.377L255.871 129.129C259.219 130.623 257.69 129.408 257.791 135.21C257.833 137.596 261.763 139.892 258.236 142.483C257.414 143.086 257.595 142.968 257.077 143.951L255.867 145.484C255.096 145.603 255.021 145.884 254.093 145.997C252.806 146.154 251.356 146.05 250.387 145.249C247.826 143.132 252.884 142.497 253.842 142.218C255.506 141.732 256.549 141.204 257.844 140.663C257.652 137.962 252.201 133.471 254.461 121.696C254.661 120.656 254.908 119.613 255.173 118.544C255.829 115.903 257.178 116.419 257.209 117.916L256.535 121.346C256.236 122.956 255.928 124.67 256.024 126.377Z" fill="#DC908D"/>
<path fill-rule="evenodd" clip-rule="evenodd" d="M247.772 110.192C247.023 110.617 238.835 109.152 237.111 108.988C235.108 108.797 226.749 108.371 225.733 108.047C225.862 107.143 225.958 107.275 226.766 106.879C232.62 104.01 237.61 103.262 243.702 106.52C244.843 107.13 247.697 108.955 247.772 110.192Z" fill="#4E3951"/>
<path fill-rule="evenodd" clip-rule="evenodd" d="M296.072 382.448L293.454 388.257L289.813 388.211C288.216 387.978 286.303 387.975 284.648 387.765C282.768 387.527 281.168 387.117 279.396 386.759C280.233 384.453 280.962 383.07 281.518 380.358C283.46 381.764 284.617 382.969 287.982 383.453C290.121 383.761 294.494 383.603 296.072 382.448Z" fill="#DC908D"/>
<path fill-rule="evenodd" clip-rule="evenodd" d="M186.629 119.24C187.407 118.773 187.351 118.373 188.543 117.957C189.427 117.648 190.174 117.664 191.13 117.668C191.122 116.75 191.002 115.828 190.787 115.014C190.665 114.553 190.549 114.132 190.327 113.773C190.315 113.754 189.999 113.369 189.994 113.364C189.576 112.958 190.092 113.311 189.534 113.063C187.222 111.048 184.351 113.045 182.71 112.16C182.428 111.821 182.083 111.607 182.546 111.014C183.265 110.092 186.268 110.075 187.342 110.175C194.67 110.86 193.207 119.252 191.628 124.178C190.695 127.087 187.252 124.653 186.576 123.815C185.091 121.976 185.898 120.797 186.629 119.24Z" fill="#DC908D"/>
<path fill-rule="evenodd" clip-rule="evenodd" d="M196.401 157.798C196.355 157.755 196.285 157.624 196.265 157.666L195.411 156.516C195.036 155.832 195.134 155.67 194.546 155.196C194.538 146.596 194.496 142.579 190.713 135.893C195.792 136.42 198.856 138.744 197.73 144.368C196.567 150.172 194.974 151.05 196.401 157.798Z" fill="#F0B0AE"/>
<path fill-rule="evenodd" clip-rule="evenodd" d="M244.455 126.601C244.11 126.93 244.46 126.725 243.802 127.061C243.632 127.149 243.442 127.208 243.259 127.268C234.4 130.146 228.391 123.227 228.929 120.727C230.154 120.933 229.795 121.807 232.225 122.852C237.644 125.182 237.642 122.887 240.706 125.054C241.835 125.852 243.164 126.233 244.455 126.601Z" fill="#3C2728"/>
<path fill-rule="evenodd" clip-rule="evenodd" d="M201.676 110.684C201.591 113.064 202.239 116.436 200.707 117.919C198.922 117.896 199.299 117.171 199.446 115.528C199.883 110.653 199.18 109.215 197.2 105.848L200.531 105.64C200.534 105.923 201.614 110.567 201.676 110.684Z" fill="#DC908D"/>
<path fill-rule="evenodd" clip-rule="evenodd" d="M233.275 155.837C232.569 154.765 233.498 153.73 234.787 154.746C235.261 155.121 235.237 155.274 235.812 155.68C239.642 158.376 242.604 156.823 243.31 157.954C245.04 160.726 235.518 159.245 233.275 155.837Z" fill="#DC908D"/>
<path fill-rule="evenodd" clip-rule="evenodd" d="M186.629 119.24C186.431 118.963 186.483 119.116 186.353 118.656C186.145 117.918 186.356 118.979 186.265 118.21C186.235 117.953 186.285 117.261 186.313 116.985C186.626 113.942 187.219 113.341 189.534 113.063C190.092 113.311 189.576 112.958 189.994 113.364C189.999 113.369 190.315 113.754 190.327 113.773C190.549 114.132 190.665 114.553 190.787 115.014C191.002 115.828 191.122 116.75 191.13 117.668C190.174 117.664 189.427 117.648 188.543 117.957C187.351 118.373 187.407 118.773 186.629 119.24Z" fill="#F0B0AE"/>
<path fill-rule="evenodd" clip-rule="evenodd" d="M200.581 346.43C199.467 346.203 198.335 345.387 197.473 344.786C196.988 344.449 196.699 344.229 196.193 343.883C195.465 343.387 195.344 343.443 194.867 342.678L202.616 342.68L200.581 346.43Z" fill="#C4D0A6"/>
<path d="M416.573 147.098H426.579C428.725 147.098 430.464 148.2 430.464 149.559V191.288C430.464 192.646 428.725 193.748 426.579 193.748H416.573C414.428 193.748 412.688 192.646 412.688 191.288V149.559C412.688 148.2 414.428 147.098 416.573 147.098Z" fill="#FBD2A8"/>
<path d="M395.883 156.065H405.888C408.034 156.065 409.774 156.955 409.774 158.052V191.76C409.774 192.858 408.034 193.748 405.888 193.748H395.883C393.737 193.748 391.997 192.858 391.997 191.76V158.052C391.997 156.955 393.737 156.065 395.883 156.065Z" fill="#FBD2A8"/>
<path d="M375.242 127.686H385.247C387.393 127.686 389.132 129.245 389.132 131.17V190.264C389.132 192.188 387.393 193.748 385.247 193.748H375.242C373.096 193.748 371.356 192.188 371.356 190.264V131.17C371.356 129.245 373.096 127.686 375.242 127.686Z" fill="#FBD2A8"/>
<path d="M353.872 107.036H363.877C366.023 107.036 367.763 109.081 367.763 111.604V189.083C367.763 191.605 366.023 193.65 363.877 193.65H353.872C351.726 193.65 349.986 191.605 349.986 189.083V111.604C349.986 109.081 351.726 107.036 353.872 107.036Z" fill="#FBD2A8"/>
<path d="M331.773 112.282H341.779C343.925 112.282 345.664 114.203 345.664 116.573V189.359C345.664 191.729 343.925 193.65 341.779 193.65H331.773C329.627 193.65 327.888 191.729 327.888 189.359V116.573C327.888 114.203 329.627 112.282 331.773 112.282Z" fill="#FBD2A8"/>
<path d="M310.16 18.8369H320.166C322.312 18.8369 324.051 22.9644 324.051 28.056V184.431C324.051 189.523 322.312 193.65 320.166 193.65H310.16C308.015 193.65 306.275 189.523 306.275 184.431V28.056C306.275 22.9644 308.015 18.8369 310.16 18.8369Z" fill="#FBD2A8"/>
<path d="M289.034 60.3977H299.039C301.185 60.3977 302.924 63.5211 302.924 67.374V185.704C302.924 189.557 301.185 192.68 299.039 192.68H289.034C286.888 192.68 285.148 189.557 285.148 185.704V67.374C285.148 63.5211 286.888 60.3977 289.034 60.3977Z" fill="#FBD2A8"/>
<path d="M392.465 145.735L428.137 185.19C429.259 186.431 431.175 186.529 432.418 185.409C433.664 184.286 433.762 182.365 432.637 181.121L396.971 141.673L392.39 141.76L392.465 145.735ZM396.971 141.673L394.63 139.084L392.39 141.76L396.971 141.673ZM376.053 170.71L397.046 145.649L392.39 141.76L371.396 166.821L370.859 169.764L376.053 170.71ZM370.859 169.764L372.622 174.806L376.053 170.71L370.859 169.764ZM334.051 64.4871L370.859 169.764L376.591 167.766L339.783 62.4894L334.219 62.0993L334.051 64.4871ZM339.783 62.4894L337.455 55.8315L334.219 62.0993L339.783 62.4894ZM313.411 115.627L339.615 64.8771L334.219 62.0993L308.014 112.849L308.098 115.779L313.411 115.627ZM308.098 115.779L310.892 120.504L313.411 115.627L308.098 115.779ZM245.01 25.0873L308.098 115.779L313.327 112.698L250.239 22.0059L245.01 25.0873ZM262.562 17.6419L234.23 0.892456L235.23 33.7525L262.562 17.6419Z" fill="#E36D34"/>
<path fill-rule="evenodd" clip-rule="evenodd" d="M281.089 57.0368C281.603 57.4798 284.053 58.5886 285.061 59.2519C291.488 63.4813 290.286 63.609 294.375 68.0007L295.931 70.859C296.264 72.1631 297.146 73.8919 297.616 75.5767C300.215 84.8966 297.301 90.7491 297.429 93.0698C297.176 93.3636 297.388 93.0249 297.121 93.5569L295.81 97.1108C292.413 105.257 282.318 116.968 280.803 120.199C278.062 123.818 273.791 131.505 272.209 135.853C271.839 136.869 270.676 141.469 270.275 141.903C268.177 136.522 268.813 124.477 270.141 119.006C273.247 106.216 281.169 90.2084 273.541 78.7579C271.942 76.3576 270.305 74.5033 267.47 72.9389C265.715 71.9707 261.475 69.2427 259.574 68.8261C260.236 69.5592 259.502 70.5042 258.709 71.1027L248.169 83.7259C245.585 86.0377 240.649 91.1792 237.843 93.3055C228.705 100.232 214.129 104.706 200.531 105.49L197.2 105.698C185.098 94.9398 164.859 119.68 181.747 127.007C186.608 129.116 188.263 131.945 190.713 135.702C194.496 142.378 195.059 146.987 195.067 155.575C194.376 160.242 192.245 164.919 190.275 168.739C189.163 170.895 188.027 172.712 186.727 174.409C185.587 175.898 183.104 178.201 182.542 179.258C181.63 179.504 181.16 180.008 180.53 180.586C176.825 183.986 176.145 183.358 170.091 190.532L167.906 192.471C167.566 189.595 161.306 183.721 157.706 182.046C147.916 177.488 136.911 182.275 128.566 188.834C127.759 189.469 126.249 189.92 125.652 190.532C124.638 191.569 121.68 194.419 121.175 195.464C120.154 196.357 119.194 199.139 118.366 200.472C117.853 201.3 115.333 203.648 114.843 204.018C114.403 203.795 113.124 206.362 111.324 207.019C106.748 208.689 100.802 208.383 96.2678 206.534C86.2926 202.465 72.383 178.041 100.396 167.498C106.721 165.118 109.115 164.44 113.51 158.527C120.081 149.686 123.722 136.823 124.437 125.31C124.766 120.024 125.784 115.034 126.165 109.062C126.252 107.692 126.7 104.715 126.122 103.873L131.499 89.6864C133.137 85.3722 136.15 78.8854 137.259 75.723C137.918 74.587 138.587 72.8753 139.144 71.6227C139.775 70.2029 140.482 69.0096 141.146 67.5637C142.449 64.7293 144.241 62.2493 145.602 59.6419C146.353 58.6866 147.018 57.5568 147.795 56.4999L154.699 48.1147L160.094 43.0688C162.059 41.4889 163.677 40.1178 165.906 38.6839C186.091 25.6979 208.797 24.793 230.456 35.4686C237.505 38.9428 240.771 41.4889 246.17 45.7157L251.508 50.568C255.875 54.9406 252.072 52.7948 261.642 52.9918C264.083 53.0422 266.497 53.2049 268.89 53.5697C273.765 54.3123 276.854 55.5503 281.089 57.0368Z" fill="#334160"/>
</g>
<defs>
<clipPath id="clip0_632_6717">
<rect width="460" height="412" fill="white" transform="matrix(-1 0 0 1 460.5 0)"/>
</clipPath>
</defs>
</svg>
