<svg width="460" height="412" viewBox="0 0 460 412" fill="none" xmlns="http://www.w3.org/2000/svg">
<g clip-path="url(#clip0_632_6637)">
<path fill-rule="evenodd" clip-rule="evenodd" d="M310.433 209.533C310.273 208.913 310.32 206.236 310.711 205.711C312.257 203.636 320.842 207.671 321.086 202.649C321.222 199.855 321.062 196.61 321.027 193.775C321.01 192.412 320.797 191.186 322.478 190.981C323.635 190.841 325.187 190.899 325.631 192.168C325.92 192.995 325.973 208.433 325.712 209.468C325.204 211.482 319.747 210.756 318.002 210.759C316.557 210.761 310.88 211.271 310.433 209.533ZM341.183 205.341C335.796 205.285 336.893 204.593 336.883 199.443L336.885 157.604C336.863 153.487 337.397 154.242 343.976 154.242C350.786 154.241 357.6 154.201 364.407 154.278L364.466 138.063C367.251 137.691 366.36 133.621 366.359 131.278C366.359 128.407 366.364 125.537 366.363 122.666C366.359 112.374 364.356 113.372 374.403 113.374C386.149 113.376 397.901 113.404 409.648 113.369C410.59 113.385 411.784 113.622 412.505 114.219C412.941 116.216 412.598 123.548 412.601 126.111C412.604 128.52 412.338 136.297 412.836 138.097C415.335 138.136 414.642 139.971 414.644 142.106L414.679 183.723C415.146 175.852 414.93 167.953 414.921 160.07C414.918 157.629 414.566 150.679 415.495 148.807C417.555 144.654 419.47 149.731 419.493 152.438L419.493 188.37C419.493 192.261 420.296 195.63 417.748 198.713C413.943 203.316 415.302 202.169 414.827 207.765C414.429 212.46 410.667 212.028 407.055 212.03C387.412 212.042 366.151 212.297 346.693 212.048C341.723 211.984 341.208 209.674 341.183 205.341ZM321.452 169.341C322.615 168.371 326.1 163.515 327.232 163.55C328.275 164.921 321.101 184.187 319.81 184.766C318.932 185.16 311.311 184.91 309.777 184.889C303.442 187.163 306.867 188.718 304.876 191.572C302.591 194.848 300.089 190.381 298.245 188.337C295.591 185.394 292.972 182.427 290.328 179.477C288.973 177.964 283.607 172.701 283.965 170.854C284.61 167.518 298.942 172.436 291.202 168.288C289.251 167.243 287.694 166.663 286.406 164.731C285.493 163.362 285.395 162.003 287.003 161.159C288.922 160.153 291.153 160.979 293.128 161.363C299.176 162.537 294.219 159.668 292.211 158.423C287.756 155.662 285.846 154.106 285.805 148.406C285.782 145.155 285.514 138.387 290.697 139.82C293.421 140.574 299.521 143.912 301.954 143.303C304.738 142.607 305.956 141.07 307.778 144.267C309.469 147.235 310.168 153.475 311.336 155.138C312.201 156.369 311.432 149.449 314.357 148.643C316.941 147.932 319.855 151.314 320.575 153.643C321.646 157.111 321.391 165.407 321.452 169.341ZM334.321 64.8957C337.716 64.0017 341.221 63.632 344.687 63.0908C353.716 61.6808 350.9 59.521 355.593 86.5215L360.659 117.646C361.442 122.307 362.77 123.688 357.559 124.593C360.466 130.271 357.047 129.511 347.774 130.882L307.931 136.778C303.8 137.397 304.468 136.308 303.86 132.529C299.161 133.212 300.072 130.849 299.369 126.67C298.837 123.503 298.37 120.291 297.859 117.115L291.867 78.7626C291.338 75.4045 289.619 72.0059 293.898 71.3752C297.141 70.8974 300.474 70.2937 303.758 70.3515C301.097 69.4514 302.278 63.9255 302.386 61.6367C302.467 59.9233 302.484 58.1512 302.598 56.4494C303.015 50.2324 311.052 59.0609 312.25 52.2219C312.882 48.6179 312.634 46.6496 316.891 46.2412C319.064 46.0325 323.981 46.397 325.706 47.8351C327.477 49.3122 325.171 53.3889 324.455 55.2703C323.103 58.8243 329.961 60.039 334.321 64.8957ZM226.227 44.4534C213.347 52.4481 232.76 42.2334 245.71 45.7096C254.879 48.1708 261.721 55.8385 265.368 64.2929C267.542 69.3337 268.58 74.695 268.115 80.1828C268.02 81.3084 265.421 94.4982 263.132 90.2457C262.74 89.5182 257.992 76.9345 259.591 85.3063C260.571 90.4381 260.354 96.2955 258.096 101.067C257.56 102.532 257.7 104.812 257.042 105.908C257.52 106.985 258.904 107.485 259.187 109.4C259.488 111.429 258.58 112.087 257.663 113.6L256.818 115.669L258.525 115.493C258.19 116.452 256.851 117.062 255.96 117.488C256.424 118.183 256.812 120.815 257.108 121.888C260.879 129.077 262.297 139.692 260.721 147.589C262.154 149.954 264.997 151.076 265.813 152.935C267.631 157.081 261.918 155.572 262.311 158.177C263.205 164.104 267.629 167.797 267.385 174.093C267.191 179.124 264.527 185.346 261.852 189.597C258.705 194.6 256.06 197.335 250.199 198.944L251.709 199.751C277.656 209.545 290.428 237.217 295.991 262.479C296.551 263.105 296.721 262.91 297.617 262.953C301.224 263.397 302.721 268.34 301.333 270.748C301.473 272.538 300.39 276.111 299.944 278.005C300.169 278.956 304.69 288.297 304.907 288.369C305.262 278.847 304.952 268.816 304.929 259.242C304.917 254.407 304.872 249.551 304.911 244.719C304.964 238.189 307.812 238.63 313.252 238.751C332.041 240.01 350.855 241.101 369.649 242.306C379.121 242.913 388.594 243.473 398.066 244.069C403.962 244.44 421.149 244.695 425.547 246.849C440.611 218.038 448.99 183.314 448.404 150.846C447.82 118.426 438.056 88.9118 414.027 66.2653C391.373 44.915 360.459 33.9502 329.764 31.235C293.331 28.0122 260.973 34.8472 226.227 44.4534Z" fill="#EDF8FF"/>
<path fill-rule="evenodd" clip-rule="evenodd" d="M104.165 201.634L102 203.753C93.8906 214.665 88.1153 223.124 86.5361 237.142C85.2407 248.639 87.2958 250.93 87.9447 259.38C88.4685 266.203 87.6014 275.48 87.4299 282.578C86.7769 309.61 86.6761 348.665 81.8848 374.274L85.2664 380.855L134.177 378.183C123.159 362.144 121.891 358.834 113.399 341.955C110.214 335.625 106.667 329.829 102.932 323.823C93.3089 308.347 89.7401 299.715 89.1885 280.941C89.0085 274.806 89.5341 271.38 91.7879 265.767C94.2146 259.723 95.9641 258.799 97.103 256.237C97.2692 255.862 97.7306 253.811 98.0689 254.747C100.093 260.35 98.9813 275.437 104.475 265.657C104.62 265.398 107.899 258.651 107.694 260.709C107.521 262.45 106.726 264.67 106.319 266.417C105.537 269.769 105.076 273.088 104.568 276.482C102.333 291.408 106.834 296.399 120.485 287.915C141.469 274.875 151.053 279.329 160.217 273.307C165.515 269.825 160.612 268.202 156.934 267.297C143.837 264.076 128.661 273.481 121.983 274.784C121.978 274.786 129.266 271.583 132.565 270.375C138.538 268.188 147.456 266.865 152.399 263.505C154.733 261.92 157.212 257.96 157.432 255.074C157.474 254.519 156.94 251.81 158.328 252.364C160.273 253.14 160.927 256.463 161.168 252.556C161.419 248.489 160.397 246.561 158.882 242.699C155.994 235.339 153.204 232.513 148.688 226.449C146.418 223.399 146.142 222.648 149.408 225.445C154.416 229.736 158.416 233.553 162.199 239.025C171.783 252.888 171.316 268.125 174.104 284.022C176.801 299.4 182.615 311.824 189.259 325.756C192.121 325.761 194.911 325.711 197.782 325.798C200.524 325.881 202.924 326.348 205.583 326.51C210.01 322.817 215.667 319.482 220.433 315.982C223.041 314.067 232.809 306.045 234.74 305.232C238.612 303.602 224.771 315.451 224.282 315.874C219.989 319.582 214.798 323.989 210.003 326.966C212.231 327.825 216.986 328.388 219.683 328.994C221.813 329.473 227.556 331.1 229.297 330.23L244.156 322.056C246.03 315.385 247.505 308.773 249.233 302.086C252.611 289.011 255.8 271.609 252.751 258.227C252.023 255.033 250.837 252.097 249.506 249.115C242.787 234.061 251.423 251.652 252.285 250.359C253.31 248.823 250.331 235.282 249.754 232.878C249.474 231.712 246.074 218.58 249.239 227.298C252.001 234.906 252.472 240.711 254.205 246.228C255.85 251.463 256.87 240.511 257.14 243.231C257.272 244.563 255.903 256.446 259.691 251.419C260.688 250.096 265.822 238.906 265.652 240.62C265.131 245.884 261.507 251.251 259.147 255.81C255.626 262.612 255.926 269.671 255.586 277.083C255.166 286.246 258.119 281.924 262.071 278.163C272.726 268.021 281.43 264.284 295.991 262.479C290.428 237.217 277.656 209.545 251.709 199.751C249.924 201.183 243.751 203.487 241.395 204.166C236.819 205.486 233.369 205.634 228.939 206.488L228.671 207.236C227.28 215.921 223.857 225.885 216.172 231.028C207.479 236.846 197.46 234.052 189.714 228.138C174.58 216.583 167.523 194.889 171.135 176.577C158.683 177.274 144.722 180.318 133.07 184.775C121.331 189.266 113.814 193.72 104.165 201.634Z" fill="#456C91"/>
<path fill-rule="evenodd" clip-rule="evenodd" d="M28.0275 383.672C23.1346 384.122 18.3553 384.404 13.4577 384.706C9.51401 384.95 4.6684 385.25 1.97169 388.543C-0.459149 391.512 -0.630652 396.509 1.39261 399.728C3.70892 403.412 8.30735 403.912 12.2867 404.175C31.71 405.454 51.2885 406.204 70.7402 407.277C90.2602 408.353 109.793 409.314 129.318 410.304C142.348 410.964 176.961 413.424 187.547 412.64C193.565 407.645 191.331 403.281 190.391 395.859C190.059 393.236 192.686 393.47 194.539 393.381C203.995 392.923 213.444 392.277 222.897 391.824L265.274 389.444C266.616 389.361 279.36 388.936 270.799 388.449C256.344 389.581 241.579 389.889 227.065 390.48L193.9 391.768C188.865 391.981 187.621 392.392 189.407 386.916C171.898 386.28 153.99 385.188 136.414 384.358C133.495 384.22 130.557 384.103 127.642 383.904C123.708 383.636 127.077 381.045 128.61 380.106C133.264 379.251 139.019 379.719 143.855 379.693C159.148 379.613 174.452 379.001 189.708 377.923C195.169 377.536 199.104 377.319 204.619 377.682C209.61 378.009 214.599 378.275 219.595 378.526C229.706 379.034 239.847 379.447 249.949 380.008C256.318 380.363 263.378 379.864 269.859 379.68C271.641 379.629 271.626 379.636 272.413 381.121C274.517 385.091 275.563 383.506 276.937 384.769L275.381 388.367C285.383 388.515 307.722 386.776 318.909 386.124L407.036 381.277C421.56 380.476 436.721 380.118 451.136 378.769L419.412 376.004C418.244 379.398 414.98 378.456 411.755 378.446L362.282 378.405C348.855 378.354 358.821 379.196 354.32 370.084C349.147 369.691 343.934 370.069 338.748 370.188C333.319 370.312 327.894 370.415 322.464 370.548L234.393 372.661C231.51 372.721 230.021 373.294 227.701 371.491C226.372 373.548 221.205 372.927 218.885 373.05C209.09 373.568 198.475 374.337 188.874 374.667C182.307 374.893 175.368 375.158 168.834 375.694C163.694 376.115 154.379 377.119 149.808 377.157L147.787 377.317C146.236 377.93 136.636 378.04 134.177 378.183L85.2665 380.855L80.0004 381.013L81.8849 374.274C86.6762 348.665 86.777 309.61 87.43 282.578C87.6015 275.481 88.4686 266.203 87.9448 259.38C87.2959 250.93 85.2408 248.639 86.5362 237.142C88.1154 223.124 93.8907 214.665 102 203.753L54.5546 203.639C38.1316 203.626 38.64 203.05 38.6344 219.623C38.6329 224.954 38.6376 230.286 38.6379 235.618L38.6318 362.597C38.6312 367.103 39.0496 374.037 38.5546 378.254C37.8476 384.277 32.6596 383.552 28.0275 383.672Z" fill="#667385"/>
<path fill-rule="evenodd" clip-rule="evenodd" d="M373.824 275.77C377.376 276.883 387.197 275.367 391.306 276.409L390.903 277.461C391.455 281.276 390.73 289.471 390.521 293.708C390.36 296.978 391.167 299.031 387.58 297.789C381.391 295.646 384.507 296.425 382.964 294.281L382.226 295.496C380.812 294.689 382.742 293.102 376.746 294.282C374.843 294.656 371.31 296.11 370.806 293.821C369.763 289.086 369.992 283.649 368.503 278.89L369.129 278.062C368.405 278.244 367.086 276.772 366.626 276.121L366.984 275.795C365.695 275.198 363.024 275.471 361.591 275.662C362.897 271.634 365.89 268.767 370.395 269.122C373.083 269.334 379.033 273.204 378.664 275.694C377.466 276.247 375.239 275.703 373.824 275.77ZM362.229 319.983C361.168 319.795 359.694 319.838 358.904 319.409C358.254 318.789 358.281 276.56 358.972 275.896C359.881 275.42 360.583 275.599 361.591 275.662L363.769 319.947L363.848 322.256C364.244 326.561 364.476 330.962 364.753 335.282C365.165 341.719 366.361 341.053 361.498 345.085C356.89 348.906 350.2 354.282 344.941 356.937L346.248 358.838C349.68 356.85 352.86 354.55 356.045 352.212C357.252 351.325 364.483 345.132 365.22 345.36C365.916 346.915 366.371 362.77 366.733 366.037C367.884 367.287 373.856 368.733 374.153 369.816L354.32 370.085C358.821 379.196 348.854 378.354 362.281 378.405L411.755 378.446C414.979 378.456 418.244 379.398 419.412 376.004C418.268 365.672 410.591 374.369 408.925 364.942C407.819 358.688 406.636 352.444 405.505 346.193C404.395 340.058 402.972 333.572 402.086 327.452C401.497 323.385 404.941 323.905 407.795 324.007C411.301 324.132 415.048 324.449 418.526 324.403C427.631 324.284 427.412 318.413 427.414 311.166C427.416 303.783 427.421 296.401 427.419 289.018C427.416 281.636 427.418 274.253 427.417 266.871C427.416 261.241 428.402 251.579 425.547 246.849C421.149 244.695 403.962 244.441 398.066 244.069C388.594 243.473 379.121 242.914 369.649 242.306C350.855 241.101 332.041 240.01 313.252 238.751C309.292 242.622 310.368 247.604 310.358 252.844L310.374 303.783C310.404 319.961 309.399 318.123 329.016 318.932C339.947 319.383 351.333 320.228 362.229 319.983Z" fill="#818EA0"/>
<path fill-rule="evenodd" clip-rule="evenodd" d="M246.246 148.749C248.352 150.271 249.737 152.3 251.925 153.735C253.15 154.538 254.424 154.737 255.149 156.129C255.665 157.119 256.084 159.293 255.919 160.395C255.36 164.132 251.189 160.95 249.145 160.385C242.513 158.554 236.405 165.824 232.366 164.761C230.8 164.349 230.628 162.426 231.046 161.137C231.525 159.661 232.759 159.365 234.016 158.754C239.718 155.984 242.079 153.282 246.246 148.749ZM158.644 71.8955C157.371 73.7815 155.683 74.9613 154.203 77.3342C152.832 79.5332 151.969 81.7494 151.228 84.2226C149.747 89.1735 149.371 97.1597 150.663 102.142C150.805 106.068 153.301 112.432 154.877 116.131C155.672 117.996 156.932 120.418 157.956 122.167C158.832 123.663 160.89 126.871 161.337 128.322C162.642 123.982 161.764 121.065 165.582 117.456C168.371 114.82 172.75 113.46 176.369 115.177C182.632 118.148 180.448 133.383 178.915 138.846C178.577 139.904 178.089 141.629 177.344 142.41C175.368 142.968 173.325 142.753 171.395 142.118C172.161 144.124 174.835 147.531 174.097 149.55C172.868 152.911 172.318 155.195 172.345 158.829C172.383 163.909 175.241 171.166 179.468 174.18C180.278 164.502 178.5 170.566 188.458 175.013C197.798 179.183 199.83 185.575 207.326 188.965C212.89 191.482 214.32 194.426 221.214 196.813C223.881 197.737 227.51 197.78 229.626 199.456C231.198 198.833 232.592 199.405 234.898 198.513C236.291 197.974 237.947 196.798 239.427 197.167C243.934 198.293 243.009 199.125 250.199 198.944C256.06 197.335 258.705 194.6 261.852 189.597C264.527 185.346 267.191 179.124 267.385 174.093C267.629 167.797 263.205 164.104 262.311 158.177C261.918 155.573 267.631 157.081 265.813 152.935C264.997 151.076 262.154 149.954 260.721 147.589C260.594 147.529 258.309 145.27 258 144.947C257.237 144.147 255.632 143.001 255.261 142.521C253.257 141.959 250.274 139.898 247.953 140.136C245.403 139.526 243.858 139.745 241.34 140.274C237.523 140.687 226.201 147.173 221.954 149.019C220.537 150.14 219.057 151.161 217.661 152.286C215.495 154.029 215.577 154.396 212.745 153.308C201.001 148.796 196.895 137.567 194.419 125.866C192.57 119.726 189.778 112.649 191.754 106.332C194.123 98.7571 194.763 93.3211 192.284 85.5662C191.813 84.0903 189.065 78.9022 190.026 77.8256C191.067 76.6587 198.321 76.852 200.285 76.7026C207.734 76.1367 214.473 73.7627 221.961 75.4946C227.856 76.8581 233.575 80.0453 237.97 84.1633C241.055 87.0529 247.446 97.2847 245.41 86.3562C245.267 85.5863 243.1 79.3402 244.301 79.3708C245.739 79.4068 249.362 83.2873 250.307 84.4371C254.604 89.6682 256.456 94.6055 258.096 101.067C260.354 96.2956 260.571 90.4381 259.591 85.3064C257.992 76.9345 262.74 89.5182 263.131 90.2457C265.421 94.4982 268.02 81.3085 268.115 80.1828C268.58 74.6951 267.541 69.3337 265.367 64.293C261.721 55.8386 254.879 48.1709 245.71 45.7097C232.76 42.2335 213.347 52.4481 226.227 44.4535C228.565 42.7892 230.817 41.222 233.46 40.0484C234.443 39.6121 239.93 38.3493 237.457 36.5629C232.626 33.0737 223.246 35.568 218.044 37.2468C212.534 39.025 204.978 42.7622 199.291 42.0859C192.677 41.2991 191.019 38.0342 183.346 47.0321C180.274 50.6353 175.741 56.6367 171.686 58.9613C168.399 60.8456 177.899 50.3328 177.152 48.8647C176.396 47.3792 166.008 48.5014 162.332 54.9227C160.68 57.8089 160.233 61.56 160.653 64.8185C161.073 68.0749 161.984 69.8764 158.644 71.8955Z" fill="#334160"/>
<path fill-rule="evenodd" clip-rule="evenodd" d="M74.9316 100.58C74.4317 98.0053 77.7098 97.8396 78.139 99.642C78.6982 101.991 75.2924 102.438 74.9316 100.58ZM118.188 54.4479C120.651 53.6873 121.068 57.0806 119.319 57.6727C117.006 58.4557 116.086 55.0972 118.188 54.4479ZM34.0602 54.4406C36.2006 53.823 36.9792 57.0696 35.1923 57.6573C32.883 58.417 32.0533 55.0196 34.0602 54.4406ZM100.519 31.2258C99.5508 35.1473 87.4513 48.886 84.2611 53.2937C82.5811 55.6146 82.7202 58.5086 81.4253 60.5565C80.0766 62.689 77.3107 63.4778 74.9342 62.8323C72.7748 62.2455 71.018 59.9886 68.7668 58.9489C66.6238 57.959 63.8496 57.0774 61.5894 56.2473C51.3393 52.484 57.2288 53.3536 64.1497 53.6707C67.424 53.8207 69.7205 54.2363 72.8589 52.9778C74.817 52.1928 78.0078 51.4594 79.5677 50.3134C83.2274 47.6258 93.971 36.4532 100.519 31.2258ZM76.0701 14.5905C78.0204 13.4235 79.6083 16.5547 77.6984 17.5229C75.5907 18.5913 74.2537 15.6775 76.0701 14.5905ZM58.0898 12.5341C30.6593 23.4832 18.229 55.2449 32.5558 81.4429C46.4826 106.909 80.1897 115.498 104.165 98.405C112.38 89.4544 117.675 84.4494 120.991 72.1133C127.096 49.3976 116.014 26.6647 94.5568 16.3114C82.2904 10.3929 71.2912 10.4104 58.0898 12.5341Z" fill="#DFE9F1"/>
<path fill-rule="evenodd" clip-rule="evenodd" d="M95.3719 131.103C96.7062 132.501 95.627 133.002 94.5725 134.432L85.7926 146.87C81.9672 152.5 78.3987 158.26 74.9172 164.101C70.0097 172.335 58.5792 193.079 55.9374 201.53L104.165 201.634C113.814 193.72 121.331 189.266 133.07 184.775C144.722 180.318 158.683 177.274 171.135 176.577L178.501 176.463C179.098 175.383 179.321 175.556 179.468 174.18C175.241 171.166 172.383 163.909 172.345 158.829C172.318 155.195 172.869 152.911 174.097 149.55C174.835 147.53 172.162 144.124 171.395 142.118C166.517 140.035 162.209 135.246 161.93 129.707L161.337 128.322C160.89 126.871 158.832 123.663 157.956 122.167C156.932 120.418 155.672 117.996 154.877 116.131C153.301 112.432 150.805 106.068 150.663 102.142C143.925 111.876 140.03 117.217 129.534 123.442C118.871 129.766 107.67 131.742 95.3719 131.103Z" fill="#EDF8FF"/>
<path fill-rule="evenodd" clip-rule="evenodd" d="M275.381 388.367L270.799 388.449C279.36 388.936 266.616 389.361 265.274 389.444L222.897 391.824C213.444 392.276 203.995 392.923 194.539 393.381C192.686 393.47 190.059 393.236 190.391 395.859C191.331 403.281 193.565 407.645 187.547 412.64C237.123 409.459 286.696 406.218 336.264 402.913C373.218 400.449 410.832 398.314 447.674 395.638C452.705 395.273 459.06 394.592 459.897 388.49C460.749 382.278 456.175 380.218 451.136 378.769C436.721 380.118 421.559 380.476 407.036 381.277L318.909 386.124C307.722 386.776 285.383 388.515 275.381 388.367Z" fill="#818EA0"/>
<path fill-rule="evenodd" clip-rule="evenodd" d="M117.64 307.508C120.235 314.762 124.46 322.348 127.83 329.324C131.08 336.049 135.286 343.334 139.121 349.782C141.897 351.074 144.24 352.586 147.223 353.84C150.127 355.06 153.197 356.114 156.243 356.924C162.574 358.606 171.491 359.856 178.01 359.62C183.64 352.289 190.991 345.373 198.988 340.663C211.109 333.524 219.112 335.15 232.179 334.125C216.573 329.828 192.297 323.941 176.336 328.717C170.757 330.386 170.441 331.549 167.65 332.716C165.85 333.47 168.864 331.235 168.934 331.189C173.63 328.075 177.788 327.544 183.097 326.232C181.442 319.806 177.719 311.385 175.311 304.952C172.707 297.996 169.752 291.191 167.111 284.273C155.861 284.629 147.319 285.648 137.134 290.695C133.17 292.66 129.633 295.237 126.369 298.197C123.008 301.246 120.729 304.472 117.64 307.508Z" fill="#FDDBCC"/>
<path fill-rule="evenodd" clip-rule="evenodd" d="M345.103 188.862C347.777 186.881 353.504 187.783 356.839 187.787C362.087 187.793 394.358 187.371 395.098 188.292C395.985 189.397 384.742 188.989 384.05 188.989C373.337 188.976 353.911 189.511 345.103 188.862ZM341.182 205.341C356.529 205.435 371.914 205.302 387.266 205.313C390.299 205.315 408.469 205.953 409.744 204.76C410.987 203.598 410.435 185.061 410.162 182.517C410.811 177.069 410.364 169.437 410.352 163.762C410.328 152.907 412.519 154.276 401.366 154.266C389.111 154.256 376.614 154.491 364.407 154.279C357.6 154.201 350.786 154.241 343.976 154.242C337.397 154.242 336.863 153.487 336.885 157.604L336.883 199.444C336.893 204.593 335.796 205.285 341.182 205.341Z" fill="#F8F3DF"/>
<path fill-rule="evenodd" clip-rule="evenodd" d="M334.321 64.8958L333.831 66.113L335.723 67.6506C335.823 68.8108 333.277 75.1328 332.431 76.0434C331.015 76.4232 325.372 75.331 323.527 75.0868C316.728 74.1876 316.843 74.7642 316.733 71.6906L316.368 68.6021L310.889 68.4946L310.466 70.6358C308.647 71.1157 305.769 70.212 303.758 70.3516C300.474 70.2937 297.141 70.8974 293.898 71.3752C289.619 72.0059 291.338 75.4045 291.867 78.7627L297.859 117.115C298.37 120.291 298.838 123.503 299.369 126.67C300.072 130.849 299.162 133.212 303.861 132.529L357.56 124.593C362.77 123.688 361.442 122.307 360.659 117.646L355.594 86.5216C350.9 59.5211 353.716 61.6809 344.687 63.0908C341.221 63.632 337.716 64.0017 334.321 64.8958Z" fill="#F8F3DF"/>
<path fill-rule="evenodd" clip-rule="evenodd" d="M134.177 378.183C136.636 378.04 146.236 377.93 147.787 377.317C148.499 373.913 154.384 367 154.482 366.163C152.627 364.618 147.821 363.76 145.296 361.434C142.931 360.04 142.938 358.23 141.982 355.853C141.122 353.713 140.004 351.829 139.121 349.782C135.286 343.334 131.08 336.049 127.831 329.324C124.46 322.348 120.235 314.762 117.64 307.508C112.918 297.995 112.846 298.491 118.568 293.144C122.722 289.264 127.13 286.099 132.304 283.68C140.494 279.85 152.134 277.139 161.292 278.565C165.115 279.16 165.702 281.036 167.112 284.273C169.752 291.191 172.707 297.996 175.311 304.951C177.719 311.385 181.442 319.806 183.097 326.232L189.259 325.756C182.615 311.824 176.801 299.399 174.104 284.022C171.316 268.125 171.783 252.888 162.199 239.025C158.416 233.553 154.417 229.736 149.408 225.445C146.142 222.648 146.418 223.399 148.689 226.449C153.204 232.513 155.994 235.339 158.882 242.699C160.397 246.56 161.419 248.489 161.168 252.556C160.927 256.463 160.273 253.14 158.328 252.364C156.94 251.81 157.474 254.519 157.432 255.074C157.212 257.96 154.733 261.92 152.399 263.505C147.456 266.865 138.538 268.188 132.566 270.375C129.266 271.583 121.978 274.786 121.983 274.784C128.661 273.481 143.837 264.076 156.934 267.297C160.613 268.202 165.515 269.825 160.217 273.307C151.053 279.329 141.469 274.875 120.485 287.915C106.834 296.399 102.333 291.408 104.568 276.482C105.076 273.088 105.537 269.769 106.319 266.417C106.727 264.67 107.521 262.45 107.694 260.709C107.899 258.651 104.62 265.398 104.475 265.657C98.9814 275.437 100.093 260.35 98.069 254.747C97.7306 253.811 97.2693 255.862 97.1031 256.237C95.9642 258.799 94.2147 259.723 91.788 265.767C89.5342 271.38 89.0086 274.806 89.1885 280.941C89.7401 299.715 93.309 308.347 102.932 323.823C106.667 329.829 110.214 335.625 113.399 341.955C121.891 358.834 123.159 362.144 134.177 378.183Z" fill="#23456D"/>
<path fill-rule="evenodd" clip-rule="evenodd" d="M178.01 359.62L188.162 359.71C207.88 359.38 227.626 358.043 247.405 357.556C253.499 357.405 261.217 357.044 267.156 358.058C273.082 359.069 278.299 360.855 284.461 361.314C291.175 361.813 296.227 360.681 302.642 359.125C310.576 357.199 311.674 358.659 319.29 359.924C324.425 360.777 328.332 363.965 331.687 367.752L337.068 367.721C332.265 360.792 326.095 357.318 318.569 353.666C318.472 353.619 311.343 350.659 313.88 350.888C317.459 351.21 325.713 355.172 328.936 357.13C334.002 360.208 336.4 362.871 339.66 367.691L342.836 367.674C338.742 360.529 335.1 358.002 329.25 352.639C325.583 349.276 329.807 351.619 331.267 352.594C333.916 354.361 336.917 356.532 339.217 358.719C339.558 359.042 344.441 364.614 343.895 361.29C343.523 359.019 340.017 354.882 338.398 353.134C332.962 347.268 328.366 344.643 320.69 342.455C312.904 340.236 307.113 335.98 298.723 337.253C291.312 338.376 283.011 340.364 275.971 342.93C271.887 344.418 269.57 344.988 265.256 343.71C254.178 340.428 243.464 336.972 232.179 334.125C219.112 335.149 211.109 333.524 198.988 340.663C190.991 345.373 183.64 352.289 178.01 359.62Z" fill="#F0B0AE"/>
<path fill-rule="evenodd" clip-rule="evenodd" d="M278.917 279.998C273.589 287.982 273.494 295.451 274.929 305.038C275.152 306.526 275.446 307.946 275.732 309.418C276.193 311.792 276.046 311.365 278.396 311.833C279.878 312.022 285.757 312.778 286.604 313.878C287 314.392 279.366 313.769 278.742 313.781C264.13 314.054 247.242 322.593 234.428 329.667C230.748 331.698 233.679 332.427 236.11 333.079C242.313 334.743 248.551 336.597 254.702 338.454C259.705 339.964 268.111 343.59 273.028 341.943C279.714 339.703 284.39 337.928 291.47 336.443C299.813 334.692 303.072 333.484 311.095 337.179L319.123 334.066L319.114 331.727C318.969 331.495 317.236 321.252 317.181 320.272C308.278 319.441 305.017 320.887 304.979 310.181C304.954 303.04 305.219 295.45 304.908 288.369C304.69 288.297 300.169 278.956 299.944 278.005C298.194 275.959 299.01 274.459 295.979 274.969C293.959 275.308 291.838 275.757 289.865 276.296C287.072 277.06 281.235 278.581 278.917 279.998Z" fill="#FDDBCC"/>
<path fill-rule="evenodd" clip-rule="evenodd" d="M104.165 98.405C80.1895 115.498 46.4824 106.909 32.5556 81.4429C18.2288 55.2449 30.6591 23.4833 58.0896 12.5342C81.5449 3.03457 107.726 12.9065 119.801 34.7506C131.983 56.7868 124.824 84.3556 104.165 98.405ZM71.1939 115.416C83.4922 116.054 94.6927 114.078 105.356 107.754C115.852 101.529 119.747 96.1888 126.485 86.4549C128.468 81.2933 130.955 76.7522 132.198 73.8624C133.441 70.9726 134.051 68.4957 134.27 66.0187C134.489 63.5418 134.466 60.2392 134.466 56.2081C134.466 52.177 130.612 35.1043 123.428 25.0016C103.438 -3.11066 62.5259 -7.93516 36.2524 16.85C10.5717 41.0754 12.6174 81.6409 40.6299 103.429C50.1073 110.8 59.4888 113.595 71.1939 115.416Z" fill="#667385"/>
<path fill-rule="evenodd" clip-rule="evenodd" d="M215.704 117.509C216.102 117.307 218.809 117.504 219.527 117.47C223.87 117.262 227.316 115.751 231.087 115.497C231.015 116.395 229.126 116.729 228.139 118.161C227.201 119.524 226.005 120.27 224.35 120.555C221.301 121.08 221.915 119.569 220.008 119C218.882 118.664 216.4 118.519 215.704 117.509ZM236.505 100.857C238.061 102.867 237.759 107.204 235.482 108.744C233.763 109.907 228.278 109.796 225.947 110.062C219.582 110.787 213.482 113.227 207.442 110.352C203.744 108.591 206.777 107.427 209.194 106.208C216.131 102.709 226.736 103.1 236.505 100.857ZM194.419 125.866C199.501 124.009 200.456 122.454 206.685 122.402C211.011 122.367 215.745 123.455 219.456 125.712C223.042 127.894 226.182 131.052 224.85 135.567C223.294 140.836 222.609 143.475 221.954 149.019C226.201 147.173 237.523 140.687 241.34 140.274C239.146 138.511 236.235 139.743 234.412 135.307C233.233 133.314 235.084 130.625 235.706 128.641C236.445 126.282 236.861 123.641 237.05 121.179C237.138 120.036 236.816 113.107 236.851 113.029C237.675 111.15 241.737 111.2 243.382 111.349C243.116 110.454 241.978 108.103 242.381 107.357C242.862 107.689 246.14 115.412 246.808 116.714C248.191 119.41 250.205 123.104 251.773 125.682C252.801 124.408 255.341 121.575 257.108 121.888C256.812 120.815 256.424 118.183 255.96 117.488C250.204 119.373 250.361 116.666 248.903 116.083C247.991 115.719 247.245 116.175 246.636 115.279C248.615 113.061 256.01 116.116 256.817 115.669L257.663 113.6C256.412 111.738 256.765 111.057 254.209 110.119C248.782 108.13 243.991 112.059 244.738 106.125C244.896 104.871 245.591 102.121 246.493 101.27C248.809 100.687 254.978 104.593 257.042 105.909C257.7 104.812 257.56 102.532 258.096 101.067C256.456 94.6055 254.604 89.6682 250.307 84.4371C249.362 83.2872 245.739 79.4068 244.301 79.3707C243.1 79.3402 245.267 85.5863 245.41 86.3562C247.446 97.2847 241.055 87.0529 237.97 84.1633C233.575 80.0453 227.856 76.8581 221.961 75.4946C214.473 73.7627 207.734 76.1367 200.285 76.7026C198.321 76.852 191.067 76.6587 190.026 77.8256C189.065 78.9022 191.813 84.0903 192.284 85.5662C194.763 93.3211 194.123 98.7571 191.754 106.332C189.778 112.649 192.57 119.726 194.419 125.866Z" fill="#FDDBCC"/>
<path fill-rule="evenodd" clip-rule="evenodd" d="M28.0274 383.672C32.6594 383.552 37.8474 384.277 38.5545 378.253C39.0494 374.037 38.631 367.103 38.6316 362.597L38.6378 235.618C38.6375 230.286 38.6328 224.954 38.6342 219.622C38.6398 203.05 38.1314 203.626 54.5545 203.639L102 203.753L104.165 201.634L55.9373 201.53C30.9441 201.377 28.1077 199.241 28.1118 213.47L28.1121 278.929C28.1147 313.756 28.5565 348.881 28.0274 383.672Z" fill="#3B4A61"/>
<path fill-rule="evenodd" clip-rule="evenodd" d="M228.671 207.236C223.732 205.937 219.159 206.249 213.958 204.764C208.17 203.112 203.935 199.493 203.05 201.217C202.099 203.068 202.753 214.477 203.154 217.034C203.405 218.632 204.508 222.367 204.454 223.583C204.361 225.673 201.423 218.204 201.852 203.977C202.066 196.894 200.225 198.149 195.944 193.398C186.93 183.396 190.114 184.507 178.501 176.463L171.135 176.577C167.523 194.889 174.58 216.583 189.714 228.138C197.46 234.052 207.479 236.846 216.172 231.028C223.857 225.885 227.28 215.921 228.671 207.236Z" fill="#FDDBCC"/>
<path fill-rule="evenodd" clip-rule="evenodd" d="M319.114 331.727L319.123 334.066C319.271 336.353 319.112 338.011 318.752 340.244C325.956 341.427 328.201 341.914 334.339 346.092C338.495 348.92 342.33 352.647 344.942 356.937C350.2 354.282 356.89 348.906 361.498 345.085C366.361 341.053 365.166 341.719 364.753 335.282C364.476 330.961 364.244 326.561 363.848 322.256L337.309 321.179C336.152 322.575 329.812 325.386 327.822 326.367C326.227 327.153 324.578 327.939 322.958 328.669C321.203 329.46 319.273 329.792 319.114 331.727Z" fill="#FEFEFE"/>
<path fill-rule="evenodd" clip-rule="evenodd" d="M309.777 184.889C307.884 181.084 293.454 164.938 305.416 169.387C306.504 169.791 307.992 170.394 308.94 171.036C309.534 171.437 311.047 173.151 311.321 173.138C311.643 171.727 310.351 169.798 311.115 167.526C311.492 166.406 313.277 163.548 314.367 163.096C317.917 161.624 318.927 170.487 321.452 169.341C321.391 165.407 321.646 157.111 320.575 153.643C319.855 151.314 316.941 147.932 314.357 148.643C311.431 149.449 312.201 156.369 311.336 155.138C310.168 153.475 309.468 147.235 307.778 144.267C305.956 141.07 304.738 142.607 301.954 143.303C299.521 143.912 293.421 140.574 290.697 139.82C285.514 138.387 285.782 145.155 285.805 148.406C285.845 154.106 287.756 155.662 292.211 158.423C294.219 159.668 299.176 162.537 293.127 161.363C291.153 160.979 288.921 160.153 287.003 161.159C285.395 162.003 285.493 163.362 286.406 164.731C287.693 166.663 289.251 167.243 291.201 168.288C298.942 172.436 284.61 167.518 283.965 170.854C283.607 172.701 288.973 177.964 290.328 179.477C292.972 182.427 295.591 185.394 298.245 188.337C300.089 190.381 302.59 194.848 304.876 191.572C306.867 188.718 303.442 187.164 309.777 184.889Z" fill="#46867D"/>
<path fill-rule="evenodd" clip-rule="evenodd" d="M364.466 138.063L409.334 138.088C409.857 136.251 409.552 128.107 409.558 125.619C409.566 121.908 409.276 116.923 409.648 113.369C397.902 113.404 386.15 113.376 374.403 113.374C364.356 113.372 366.359 112.374 366.364 122.666C366.365 125.537 366.359 128.407 366.36 131.279C366.36 133.621 367.251 137.691 364.466 138.063Z" fill="#EAD5B1"/>
<path fill-rule="evenodd" clip-rule="evenodd" d="M188.162 359.71C185.263 360.077 180.962 359.442 178.484 359.868C177.168 360.094 174.606 363.963 174.11 365.303L175.09 365.837C187.805 366.134 211.891 365.94 224.19 364.495C229.445 363.878 243.053 361.465 246.242 361.492C251.291 361.536 264.841 362.06 269.059 363.858C270.409 364.848 274.02 366.975 275.562 367.393C278.067 368.073 278.221 365.498 282.893 366.222C285.855 366.681 289.136 366.963 292.132 367.136C295.153 367.31 297.993 368.099 300.712 366.571C308.537 362.174 306.394 363.026 317.508 362.968C321.704 362.947 322.005 362.585 325.333 365.15C328.175 367.341 328.051 368.037 331.686 367.752C328.331 363.965 324.425 360.777 319.29 359.925C311.674 358.659 310.576 357.199 302.642 359.125C296.227 360.681 291.175 361.813 284.461 361.314C278.299 360.855 273.082 359.069 267.156 358.058C261.217 357.044 253.499 357.405 247.405 357.556C227.626 358.043 207.879 359.38 188.162 359.71Z" fill="#CE8784"/>
<path fill-rule="evenodd" clip-rule="evenodd" d="M414.679 183.723C413.363 183.75 411.836 183.941 410.524 183.602L410.375 182.404L410.162 182.517C410.435 185.061 410.988 203.598 409.744 204.76C408.469 205.953 390.299 205.315 387.266 205.313C371.914 205.302 356.529 205.435 341.183 205.341C341.208 209.674 341.723 211.984 346.693 212.048C366.152 212.297 387.412 212.042 407.056 212.03C410.667 212.028 414.429 212.46 414.828 207.765C415.302 202.169 413.943 203.316 417.748 198.713C420.297 195.63 419.493 192.261 419.493 188.37L419.493 152.438C419.47 149.731 417.556 144.654 415.495 148.807C414.566 150.679 414.918 157.629 414.921 160.07C414.931 167.953 415.146 175.852 414.679 183.723Z" fill="#CDD6DE"/>
<path fill-rule="evenodd" clip-rule="evenodd" d="M249.949 380.008C247.156 380.842 238.932 380.759 235.629 380.806C230.764 380.876 225.712 380.94 220.861 381.148C215.977 381.358 211.077 381.455 206.189 381.579C201.672 381.693 196.916 381.504 192.732 383.282C191.121 384.634 190.613 385.179 189.407 386.916C187.621 392.392 188.865 391.981 193.9 391.768L227.065 390.48C241.579 389.889 256.344 389.581 270.799 388.449L275.381 388.367L276.937 384.769C275.564 383.506 274.517 385.091 272.413 381.121C271.626 379.636 271.641 379.629 269.86 379.68C263.378 379.864 256.318 380.363 249.949 380.008Z" fill="#DFE9F1"/>
<path fill-rule="evenodd" clip-rule="evenodd" d="M364.407 154.278C376.614 154.491 389.111 154.256 401.366 154.266C412.52 154.276 410.329 152.907 410.352 163.761C410.365 169.437 410.812 177.069 410.162 182.517L410.374 182.404C413.158 182.151 413.268 181.005 413.267 178.532L413.32 158.101C413.352 153.593 413.325 149.076 413.322 144.567C413.316 138.529 412.705 139.435 404.582 139.44L370.444 139.448C364.676 139.441 365.542 139.953 365.557 148.258C365.563 151.311 366.003 151.602 364.407 154.278Z" fill="#EAD5B1"/>
<path fill-rule="evenodd" clip-rule="evenodd" d="M269.059 363.858C265.475 363.118 252.79 363.667 248.751 364.079C244.728 364.49 238.606 369.377 234.239 370.693C232.113 371.244 229.916 370.274 227.701 371.491C230.02 373.294 231.51 372.721 234.392 372.661L322.464 370.548C327.894 370.415 333.319 370.312 338.748 370.188C343.934 370.069 349.147 369.691 354.32 370.084L374.153 369.816C373.856 368.733 367.884 367.287 366.733 366.037C364.661 367.104 364.567 367.844 362.043 367.788C359.977 367.742 357.909 367.698 355.843 367.689C353.982 367.68 345.695 368.073 344.714 367.306C344.132 367.803 343.653 367.638 342.836 367.674L339.66 367.691L337.068 367.721L331.686 367.752C328.051 368.037 328.175 367.341 325.333 365.15C322.005 362.585 321.704 362.947 317.508 362.969C306.394 363.026 308.537 362.174 300.712 366.571C297.993 368.099 295.153 367.31 292.132 367.136C289.136 366.963 285.855 366.681 282.893 366.222C278.221 365.498 278.068 368.073 275.562 367.393C274.02 366.975 270.409 364.848 269.059 363.858Z" fill="#98A2AC"/>
<path fill-rule="evenodd" clip-rule="evenodd" d="M194.42 125.866C196.895 137.567 201.002 148.796 212.745 153.308C215.577 154.396 215.495 154.029 217.661 152.285C219.058 151.161 220.538 150.14 221.954 149.019C222.609 143.475 223.295 140.836 224.85 135.567C226.183 131.051 223.042 127.894 219.456 125.712C215.745 123.454 211.011 122.366 206.685 122.402C200.456 122.454 199.502 124.009 194.42 125.866Z" fill="#DC908D"/>
<path fill-rule="evenodd" clip-rule="evenodd" d="M179.468 174.18C179.32 175.556 179.098 175.383 178.501 176.463C190.114 184.507 186.93 183.396 195.944 193.398C200.225 198.149 202.065 196.894 201.852 203.977C201.422 218.204 204.361 225.673 204.454 223.583C204.508 222.367 203.405 218.632 203.154 217.034C202.753 214.477 202.098 203.068 203.049 201.217C203.935 199.493 208.17 203.112 213.958 204.764C219.158 206.249 223.732 205.937 228.671 207.236L228.939 206.488L229.626 199.456C227.51 197.78 223.881 197.737 221.214 196.813C214.32 194.426 212.89 191.482 207.326 188.965C199.83 185.575 197.798 179.183 188.458 175.013C178.5 170.566 180.278 164.502 179.468 174.18Z" fill="#DC908D"/>
<path fill-rule="evenodd" clip-rule="evenodd" d="M303.758 70.3516C305.769 70.2121 308.647 71.1157 310.466 70.6358L310.889 68.4946L316.368 68.6022L316.733 71.6906L330.059 73.2784C331.407 71.8019 332.545 67.7788 333.831 66.113L334.321 64.8958C329.961 60.039 323.103 58.8244 324.455 55.2703C325.171 53.389 327.477 49.3123 325.706 47.8352C323.981 46.3971 319.064 46.0326 316.891 46.2413C312.635 46.6497 312.882 48.6179 312.25 52.222C311.052 59.061 303.015 50.2325 302.599 56.4495C302.484 58.1513 302.467 59.9234 302.386 61.6367C302.278 63.9256 301.097 69.4514 303.758 70.3516Z" fill="#3B4A61"/>
<path fill-rule="evenodd" clip-rule="evenodd" d="M255.165 317.052L245.093 321.753L244.156 322.056L229.297 330.23C227.556 331.1 221.813 329.473 219.683 328.994C216.986 328.388 212.231 327.825 210.003 326.966C208.917 327.119 206.747 326.703 205.583 326.51C202.924 326.348 200.524 325.881 197.782 325.798C194.911 325.711 192.121 325.761 189.259 325.756L183.097 326.232C177.788 327.544 173.63 328.075 168.934 331.189C168.864 331.235 165.85 333.469 167.65 332.716C170.442 331.549 170.757 330.386 176.336 328.717C192.297 323.941 216.573 329.828 232.179 334.125C243.463 336.972 254.178 340.428 265.256 343.71C269.57 344.988 271.887 344.418 275.971 342.93C283.011 340.364 291.312 338.376 298.723 337.253C307.113 335.98 312.904 340.236 320.69 342.455C328.366 344.643 332.962 347.268 338.398 353.134C340.017 354.882 343.523 359.019 343.895 361.29C344.441 364.614 339.557 359.042 339.217 358.719C336.917 356.532 333.916 354.361 331.267 352.594C329.807 351.619 325.583 349.276 329.25 352.639C335.1 358.002 338.742 360.529 342.836 367.674C343.653 367.638 344.132 367.803 344.714 367.306C344.544 366.323 343.948 365.208 344.149 364.254C345.318 363.894 346.877 364.108 347.909 363.532C347.883 361.908 346.783 360.353 346.248 358.838L344.942 356.937C342.33 352.647 338.495 348.92 334.339 346.092C328.2 341.914 325.956 341.427 318.752 340.244C316.979 339.941 312.288 338.397 311.095 337.179C303.072 333.484 299.813 334.692 291.47 336.443C284.39 337.928 279.714 339.703 273.028 341.943C268.111 343.59 259.705 339.964 254.702 338.454C248.551 336.597 242.313 334.743 236.11 333.079C233.679 332.427 230.748 331.698 234.428 329.667C247.242 322.593 264.13 314.054 278.742 313.781C279.366 313.769 287 314.392 286.604 313.878C285.757 312.778 279.878 312.022 278.397 311.833C269.884 311.704 262.903 313.806 255.165 317.052Z" fill="#C08987"/>
<path fill-rule="evenodd" clip-rule="evenodd" d="M304.908 288.369C305.219 295.45 304.954 303.04 304.979 310.181C305.017 320.887 308.278 319.441 317.181 320.272L337.308 321.179L363.848 322.256L363.769 319.947L362.229 319.983C351.333 320.228 339.948 319.383 329.016 318.932C309.399 318.123 310.404 319.961 310.374 303.783L310.358 252.844C310.368 247.604 309.292 242.622 313.252 238.751C307.812 238.63 304.964 238.189 304.911 244.719C304.872 249.551 304.918 254.407 304.929 259.242C304.952 268.816 305.262 278.847 304.908 288.369Z" fill="#667385"/>
<path fill-rule="evenodd" clip-rule="evenodd" d="M149.807 377.157C154.379 377.119 163.694 376.115 168.833 375.694C175.368 375.158 182.307 374.893 188.874 374.668C198.475 374.337 209.09 373.568 218.885 373.05C221.205 372.927 226.372 373.548 227.701 371.491C229.916 370.274 232.113 371.244 234.239 370.693C237.273 368.747 242.023 366.86 244.557 364.985C246.128 363.823 241.241 365.111 241.145 365.131C222.471 369.023 190.629 368.912 171.499 367.777C165.955 367.448 163.239 366.273 158.231 369.261C154.724 371.354 152.152 373.841 149.807 377.157Z" fill="#DC908D"/>
<path fill-rule="evenodd" clip-rule="evenodd" d="M251.391 306.722C252.343 309.786 254.815 313.966 255.165 317.052C262.903 313.806 269.884 311.704 278.397 311.833C276.046 311.365 276.193 311.792 275.732 309.418C275.446 307.946 275.152 306.526 274.929 305.038C273.494 295.451 273.589 287.982 278.917 279.998C267.394 283.588 255.988 295.835 251.391 306.722Z" fill="#DC908D"/>
<path fill-rule="evenodd" clip-rule="evenodd" d="M244.157 322.056L245.093 321.753C245.926 319.476 247.282 316.729 248.238 314.337C248.955 312.544 250.475 308.09 251.391 306.722C255.989 295.835 267.394 283.588 278.917 279.998C281.235 278.581 287.072 277.06 289.865 276.296C291.838 275.757 293.959 275.308 295.979 274.969C299.01 274.459 298.195 275.959 299.945 278.005C300.391 276.111 301.473 272.538 301.333 270.748C281.014 273.28 265.618 281.236 254.213 297.93C254.101 298.095 251.176 303.054 251.47 301.649C251.978 299.227 252.962 296.555 253.543 294.018C254.191 291.183 254.472 288.316 256.2 285.862C258.456 282.658 263.992 277.844 267.14 275.33C276.523 267.837 285.878 264.785 297.617 262.953C296.721 262.91 296.551 263.105 295.991 262.479C281.43 264.284 272.726 268.021 262.071 278.163C258.119 281.924 255.166 286.246 255.586 277.083C255.926 269.671 255.627 262.612 259.147 255.81C261.507 251.251 265.131 245.884 265.653 240.62C265.823 238.906 260.688 250.096 259.691 251.419C255.903 256.446 257.272 244.563 257.14 243.231C256.87 240.511 255.85 251.463 254.205 246.228C252.473 240.711 252.001 234.906 249.239 227.298C246.074 218.58 249.474 231.712 249.754 232.878C250.331 235.282 253.31 248.823 252.285 250.359C251.423 251.651 242.787 234.061 249.506 249.115C250.838 252.097 252.023 255.033 252.751 258.227C255.8 271.609 252.611 289.011 249.233 302.086C247.505 308.773 246.03 315.385 244.157 322.056Z" fill="#23456D"/>
<path fill-rule="evenodd" clip-rule="evenodd" d="M117.64 307.508C120.729 304.472 123.008 301.246 126.369 298.197C129.633 295.237 133.17 292.66 137.134 290.695C147.319 285.648 155.861 284.629 167.111 284.273C165.701 281.036 165.115 279.16 161.291 278.565C152.134 277.139 140.493 279.85 132.304 283.68C127.13 286.099 122.721 289.264 118.568 293.144C112.846 298.491 112.918 297.995 117.64 307.508Z" fill="#DC908D"/>
<path fill-rule="evenodd" clip-rule="evenodd" d="M301.333 270.748C302.721 268.34 301.224 263.397 297.617 262.953C285.878 264.785 276.523 267.837 267.14 275.33C263.992 277.844 258.456 282.658 256.2 285.862C254.472 288.316 254.191 291.183 253.542 294.018C252.962 296.555 251.978 299.227 251.47 301.649C251.176 303.054 254.1 298.095 254.213 297.93C265.617 281.236 281.014 273.281 301.333 270.748Z" fill="#456C91"/>
<path fill-rule="evenodd" clip-rule="evenodd" d="M58.0894 12.5342C71.2907 10.4104 82.29 10.3929 94.5564 16.3114C116.013 26.6647 127.096 49.3976 120.991 72.1134C117.675 84.4494 112.38 89.4544 104.164 98.405C124.824 84.3555 131.983 56.7868 119.801 34.7506C107.726 12.9065 81.5447 3.03455 58.0894 12.5342Z" fill="#B1BECB"/>
<path fill-rule="evenodd" clip-rule="evenodd" d="M309.777 184.889C311.311 184.91 318.932 185.16 319.81 184.766C321.101 184.187 328.275 164.921 327.232 163.55C326.1 163.515 322.615 168.371 321.452 169.341C318.927 170.487 317.917 161.624 314.368 163.096C313.277 163.548 311.492 166.406 311.115 167.526C310.351 169.798 311.643 171.727 311.321 173.138C311.047 173.151 309.534 171.437 308.941 171.036C307.992 170.394 306.504 169.791 305.416 169.387C293.454 164.938 307.884 181.084 309.777 184.889Z" fill="#FDA955"/>
<path fill-rule="evenodd" clip-rule="evenodd" d="M147.787 377.317L149.807 377.157C152.152 373.841 154.724 371.354 158.231 369.261C163.239 366.273 165.955 367.447 171.499 367.776C190.629 368.912 222.471 369.023 241.145 365.131C241.241 365.111 246.128 363.823 244.557 364.985C242.023 366.86 237.273 368.747 234.239 370.693C238.606 369.377 244.728 364.49 248.751 364.079C252.79 363.667 265.475 363.118 269.059 363.858C264.841 362.06 251.291 361.536 246.242 361.492C243.053 361.465 229.445 363.878 224.191 364.495C211.891 365.94 187.805 366.134 175.09 365.837C164.17 365.504 155.386 366.626 145.296 361.434C147.821 363.76 152.627 364.618 154.482 366.163C154.384 367 148.499 373.913 147.787 377.317Z" fill="#986766"/>
<path fill-rule="evenodd" clip-rule="evenodd" d="M346.248 358.838C346.784 360.353 347.884 361.908 347.909 363.532C346.877 364.108 345.319 363.894 344.149 364.254C343.948 365.208 344.544 366.323 344.714 367.307C345.695 368.073 353.982 367.68 355.843 367.689C357.91 367.698 359.977 367.742 362.043 367.788C364.567 367.844 364.661 367.104 366.733 366.037C366.371 362.77 365.916 346.915 365.221 345.36C364.484 345.133 357.253 351.325 356.046 352.212C352.861 354.55 349.68 356.85 346.248 358.838Z" fill="#FEFEFE"/>
<path fill-rule="evenodd" clip-rule="evenodd" d="M128.609 380.106L192.731 383.282C196.916 381.504 201.671 381.693 206.188 381.579C211.076 381.455 215.976 381.358 220.861 381.148C225.711 380.94 230.764 380.876 235.629 380.806C238.932 380.759 247.155 380.842 249.949 380.008C239.847 379.447 229.705 379.034 219.595 378.526C214.599 378.275 209.61 378.009 204.619 377.682C199.103 377.319 195.169 377.537 189.708 377.923C174.452 379.001 159.147 379.613 143.855 379.693C139.018 379.719 133.264 379.251 128.609 380.106Z" fill="#FDDD8A"/>
<path fill-rule="evenodd" clip-rule="evenodd" d="M234.412 135.307C238.359 133.498 247.389 137.216 253.218 134.258C255.265 133.219 253.878 131.81 253.011 130.206C249.69 124.06 246.33 117.669 243.382 111.349C241.737 111.2 237.675 111.15 236.851 113.029C236.816 113.107 237.138 120.036 237.05 121.179C236.861 123.641 236.445 126.282 235.706 128.641C235.084 130.625 233.233 133.314 234.412 135.307Z" fill="#DC908D"/>
<path fill-rule="evenodd" clip-rule="evenodd" d="M176.347 132.635C175.772 132.735 172.774 130.726 172.101 130.275C170.323 129.082 169.593 128.606 168.346 126.822C165.463 122.698 167.384 118.494 172.474 119.034C174.553 119.254 175.929 120.281 176.855 122.126C178.548 125.504 177.391 124.894 175.293 124.947C172.81 125.01 172.099 127.421 173.385 129.207C174.007 130.069 176.688 131.492 176.347 132.635ZM161.337 128.322L161.93 129.707L162.042 129.29C164.945 137.686 170.675 138.992 178.915 138.847C180.448 133.383 182.632 118.148 176.369 115.177C172.75 113.46 168.371 114.82 165.582 117.456C161.764 121.065 162.642 123.982 161.337 128.322Z" fill="#FDDBCC"/>
<path fill-rule="evenodd" clip-rule="evenodd" d="M303.86 132.529C304.468 136.308 303.8 137.397 307.931 136.778L347.774 130.882C357.047 129.511 360.466 130.271 357.56 124.593L303.86 132.529Z" fill="#CDD6DE"/>
<path fill-rule="evenodd" clip-rule="evenodd" d="M387.888 279.65C389.95 280.411 388.131 281.243 387.123 282.474C386.256 283.532 385.347 284.738 384.639 285.909C383.431 287.908 381.661 291.83 378.869 291.795C377.394 291.776 376.27 290.444 375.68 289.217C375.029 287.863 377.025 287.628 378.164 286.839C379.213 286.112 383.475 281.864 382.91 280.817C381.926 279.968 373.63 281.18 368.503 278.89C369.992 283.649 369.764 289.086 370.806 293.821C371.31 296.11 374.843 294.656 376.746 294.282C382.742 293.102 380.812 294.689 382.226 295.496L382.964 294.281C384.507 296.425 381.392 295.646 387.58 297.789C391.167 299.031 390.36 296.978 390.521 293.708C390.73 289.471 391.455 281.276 390.903 277.461C389.958 279.243 389.897 279.688 387.888 279.65Z" fill="#667385"/>
<path fill-rule="evenodd" clip-rule="evenodd" d="M145.295 361.434C155.386 366.626 164.17 365.504 175.09 365.837L174.11 365.303C174.606 363.963 177.168 360.094 178.484 359.868C180.962 359.442 185.263 360.077 188.162 359.71L178.01 359.62C171.491 359.856 162.574 358.606 156.243 356.924C153.197 356.114 150.127 355.06 147.223 353.84C144.24 352.586 141.897 351.074 139.121 349.782C140.004 351.829 141.121 353.713 141.982 355.853C142.938 358.23 142.931 360.04 145.295 361.434Z" fill="#DC908D"/>
<path fill-rule="evenodd" clip-rule="evenodd" d="M100.519 31.2258C93.9709 36.4532 83.2273 47.6258 79.5676 50.3134C78.0077 51.4594 74.8169 52.1927 72.8588 52.9778C69.7203 54.2363 67.4239 53.8207 64.1495 53.6707C57.2287 53.3536 51.3391 52.484 61.5893 56.2473C63.8495 57.0774 66.6236 57.9589 68.7667 58.9489C71.0178 59.9886 72.7746 62.2455 74.9341 62.8323C77.3106 63.4778 80.0765 62.689 81.4252 60.5565C82.72 58.5086 82.581 55.6146 84.261 53.2937C87.4511 48.886 99.5507 35.1473 100.519 31.2258Z" fill="#0F2947"/>
<path fill-rule="evenodd" clip-rule="evenodd" d="M189.407 386.916C190.613 385.179 191.121 384.634 192.731 383.282L128.61 380.105C127.078 381.045 123.708 383.636 127.642 383.904C130.557 384.103 133.495 384.22 136.414 384.358C153.99 385.188 171.898 386.28 189.407 386.916Z" fill="#DDAD5B"/>
<path fill-rule="evenodd" clip-rule="evenodd" d="M236.505 100.857C226.736 103.1 216.131 102.709 209.194 106.208C206.777 107.427 203.744 108.591 207.442 110.352C213.482 113.227 219.582 110.787 225.947 110.062C228.278 109.796 233.763 109.907 235.482 108.744C237.759 107.204 238.061 102.867 236.505 100.857Z" fill="#4E3951"/>
<path fill-rule="evenodd" clip-rule="evenodd" d="M246.246 148.749C242.079 153.282 239.718 155.984 234.016 158.754C232.759 159.365 231.525 159.661 231.046 161.137C230.628 162.426 230.8 164.349 232.366 164.761C236.405 165.824 242.514 158.554 249.145 160.385C251.19 160.95 255.36 164.132 255.919 160.395C256.084 159.293 255.665 157.119 255.149 156.129C254.424 154.737 253.151 154.538 251.925 153.735C249.737 152.3 248.352 150.271 246.246 148.749Z" fill="#FDDBCC"/>
<path fill-rule="evenodd" clip-rule="evenodd" d="M362.229 319.983L363.769 319.947L361.591 275.662C360.584 275.598 359.881 275.42 358.972 275.896C358.281 276.56 358.254 318.788 358.904 319.408C359.694 319.838 361.168 319.795 362.229 319.983Z" fill="#B1BECB"/>
<path fill-rule="evenodd" clip-rule="evenodd" d="M310.433 209.533C310.881 211.271 316.557 210.761 318.003 210.759C319.748 210.756 325.204 211.482 325.712 209.468C325.973 208.433 325.92 192.995 325.631 192.168C325.188 190.899 323.635 190.84 322.478 190.981C320.797 191.185 321.011 192.412 321.027 193.775C321.062 196.61 321.222 199.855 321.086 202.649C320.842 207.671 312.257 203.636 310.711 205.711C310.32 206.236 310.273 208.913 310.433 209.533Z" fill="#CDD6DE"/>
<path fill-rule="evenodd" clip-rule="evenodd" d="M364.407 154.279C366.003 151.602 365.563 151.312 365.557 148.258C365.542 139.953 364.676 139.441 370.444 139.448L404.582 139.44C412.705 139.435 413.316 138.529 413.322 144.567C413.325 149.076 413.352 153.593 413.32 158.101L413.267 178.532C413.268 181.005 413.158 182.151 410.375 182.404L410.524 183.602C411.836 183.941 413.363 183.75 414.679 183.723L414.644 142.106C414.642 139.972 415.335 138.136 412.836 138.097L409.334 138.088L364.466 138.063L364.407 154.279Z" fill="#2A364B"/>
<path fill-rule="evenodd" clip-rule="evenodd" d="M251.774 125.682C252.256 127.146 253.372 129.201 254.105 130.621C255.645 133.602 255.864 132.814 254.128 135.139L255.261 142.52C255.632 143.001 257.237 144.147 258 144.947C258.309 145.27 260.594 147.529 260.721 147.589C262.297 139.692 260.879 129.077 257.108 121.888C255.341 121.575 252.801 124.408 251.774 125.682Z" fill="#DC908D"/>
<path fill-rule="evenodd" clip-rule="evenodd" d="M229.626 199.456L228.939 206.488C233.369 205.634 236.819 205.486 241.395 204.166C243.751 203.487 249.924 201.183 251.709 199.751L250.199 198.944C243.009 199.125 243.935 198.293 239.428 197.167C237.948 196.798 236.292 197.974 234.898 198.513C232.592 199.405 231.198 198.833 229.626 199.456Z" fill="#23456D"/>
<path fill-rule="evenodd" clip-rule="evenodd" d="M319.114 331.727C319.273 329.793 321.202 329.46 322.958 328.669C324.578 327.939 326.227 327.153 327.822 326.367C329.812 325.387 336.152 322.575 337.309 321.179L317.181 320.272C317.236 321.252 318.969 331.495 319.114 331.727Z" fill="#DFE9F1"/>
<path fill-rule="evenodd" clip-rule="evenodd" d="M243.382 111.349C246.33 117.669 249.69 124.06 253.011 130.206C253.878 131.81 255.265 133.219 253.218 134.258C247.389 137.216 238.359 133.498 234.412 135.307C236.235 139.743 239.146 138.511 241.34 140.274C243.858 139.745 245.403 139.526 247.953 140.136C248.713 139.127 250.206 138.544 251.238 137.714C252.363 136.81 253.136 135.978 254.127 135.139C255.863 132.814 255.645 133.602 254.105 130.621C253.372 129.201 252.256 127.146 251.773 125.682C250.205 123.104 248.191 119.41 246.808 116.714C246.14 115.412 242.862 107.689 242.381 107.357C241.978 108.103 243.116 110.454 243.382 111.349Z" fill="#B87D7B"/>
<path fill-rule="evenodd" clip-rule="evenodd" d="M257.663 113.6C258.58 112.087 259.487 111.429 259.187 109.4C258.903 107.485 257.52 106.985 257.042 105.908C254.978 104.593 248.809 100.687 246.493 101.27C245.591 102.121 244.896 104.871 244.738 106.125C243.991 112.059 248.782 108.13 254.209 110.119C256.765 111.057 256.412 111.738 257.663 113.6Z" fill="#4E3951"/>
<path fill-rule="evenodd" clip-rule="evenodd" d="M368.503 278.89C373.63 281.18 381.926 279.968 382.91 280.817C383.475 281.864 379.213 286.112 378.164 286.839C377.025 287.628 375.029 287.863 375.68 289.217C376.27 290.444 377.394 291.776 378.869 291.795C381.661 291.83 383.431 287.908 384.639 285.909C385.347 284.738 386.256 283.532 387.123 282.474C388.131 281.244 389.95 280.411 387.888 279.65C384.775 279.621 381.483 279.358 378.36 279.181C376.158 279.057 370.703 279.26 369.13 278.062L368.503 278.89Z" fill="#545D6A"/>
<path fill-rule="evenodd" clip-rule="evenodd" d="M205.583 326.51C206.747 326.703 208.917 327.119 210.003 326.966C214.798 323.989 219.989 319.582 224.282 315.874C224.77 315.451 238.612 303.602 234.74 305.232C232.809 306.045 223.041 314.067 220.433 315.982C215.667 319.482 210.01 322.817 205.583 326.51Z" fill="#23456D"/>
<path fill-rule="evenodd" clip-rule="evenodd" d="M361.591 275.662C363.024 275.47 365.696 275.198 366.985 275.795L373.824 275.77C375.24 275.703 377.466 276.246 378.664 275.694C379.034 273.204 373.083 269.334 370.395 269.122C365.891 268.767 362.898 271.634 361.591 275.662Z" fill="#667385"/>
<path fill-rule="evenodd" clip-rule="evenodd" d="M176.347 132.635C176.688 131.492 174.007 130.069 173.386 129.206C172.099 127.421 172.81 125.009 175.293 124.947C177.391 124.894 178.548 125.504 176.855 122.126C175.929 120.281 174.553 119.254 172.474 119.033C167.384 118.494 165.463 122.698 168.346 126.822C169.593 128.606 170.323 129.082 172.101 130.275C172.774 130.726 175.773 132.735 176.347 132.635Z" fill="#DC908D"/>
<path fill-rule="evenodd" clip-rule="evenodd" d="M409.334 138.088L412.836 138.097C412.338 136.297 412.604 128.52 412.601 126.111C412.598 123.548 412.941 116.216 412.505 114.219C411.784 113.622 410.59 113.385 409.648 113.369C409.276 116.923 409.566 121.908 409.557 125.619C409.552 128.107 409.856 136.251 409.334 138.088Z" fill="#AC8A72"/>
<path fill-rule="evenodd" clip-rule="evenodd" d="M369.129 278.062C370.703 279.26 376.158 279.056 378.36 279.181C381.483 279.358 384.775 279.621 387.888 279.65C389.897 279.687 389.958 279.243 390.903 277.461L391.306 276.409C387.197 275.367 377.376 276.883 373.824 275.77L366.984 275.795L366.626 276.121C367.086 276.771 368.405 278.244 369.129 278.062Z" fill="#B1BECB"/>
<path fill-rule="evenodd" clip-rule="evenodd" d="M395.098 188.292C394.358 187.371 362.087 187.793 356.839 187.787C353.504 187.783 347.777 186.881 345.103 188.862C353.911 189.511 373.337 188.976 384.05 188.988C384.742 188.989 395.985 189.397 395.098 188.292Z" fill="#4C8B91"/>
<path fill-rule="evenodd" clip-rule="evenodd" d="M316.733 71.6906C316.843 74.7642 316.728 74.1875 323.527 75.0868C325.372 75.3309 331.015 76.4232 332.431 76.0433C333.277 75.1327 335.823 68.8108 335.723 67.6505L333.831 66.113C332.545 67.7787 331.408 71.8019 330.06 73.2784L316.733 71.6906Z" fill="#EAD5B1"/>
<path fill-rule="evenodd" clip-rule="evenodd" d="M245.093 321.753L255.165 317.052C254.815 313.966 252.343 309.786 251.391 306.722C250.475 308.09 248.955 312.544 248.238 314.337C247.282 316.729 245.926 319.476 245.093 321.753Z" fill="#DFE9F1"/>
<path fill-rule="evenodd" clip-rule="evenodd" d="M337.068 367.721L339.66 367.691C336.4 362.871 334.002 360.208 328.936 357.131C325.713 355.172 317.459 351.21 313.879 350.888C311.343 350.659 318.472 353.619 318.568 353.666C326.095 357.318 332.265 360.792 337.068 367.721Z" fill="#986766"/>
<path fill-rule="evenodd" clip-rule="evenodd" d="M161.931 129.707C162.209 135.246 166.517 140.035 171.395 142.118C173.325 142.752 175.369 142.968 177.344 142.41C178.089 141.629 178.577 139.904 178.916 138.846C170.675 138.992 164.946 137.686 162.042 129.29L161.931 129.707Z" fill="#DC908D"/>
<path fill-rule="evenodd" clip-rule="evenodd" d="M215.704 117.509C216.401 118.519 218.882 118.664 220.009 119C221.916 119.569 221.301 121.08 224.351 120.555C226.005 120.27 227.201 119.524 228.139 118.161C229.126 116.729 231.016 116.395 231.088 115.497C227.316 115.751 223.871 117.262 219.527 117.47C218.809 117.504 216.103 117.307 215.704 117.509Z" fill="#3C2728"/>
<path fill-rule="evenodd" clip-rule="evenodd" d="M311.095 337.179C312.288 338.397 316.979 339.942 318.752 340.244C319.112 338.011 319.271 336.353 319.123 334.066L311.095 337.179Z" fill="#DC908D"/>
<path fill-rule="evenodd" clip-rule="evenodd" d="M255.96 117.488C256.852 117.063 258.19 116.452 258.525 115.493L256.818 115.669C256.01 116.116 248.615 113.061 246.636 115.279C247.245 116.175 247.992 115.719 248.903 116.083C250.361 116.666 250.205 119.373 255.96 117.488Z" fill="#211B22"/>
<path fill-rule="evenodd" clip-rule="evenodd" d="M247.954 140.136C250.275 139.898 253.258 141.959 255.261 142.52L254.128 135.139C253.136 135.978 252.363 136.81 251.238 137.714C250.206 138.544 248.714 139.127 247.954 140.136Z" fill="#FDDBCC"/>
<path fill-rule="evenodd" clip-rule="evenodd" d="M85.2665 380.855L81.8849 374.274L80.0004 381.013L85.2665 380.855Z" fill="#23456D"/>
<path fill-rule="evenodd" clip-rule="evenodd" d="M118.188 54.4479C116.086 55.0972 117.005 58.4557 119.319 57.6727C121.068 57.0806 120.651 53.6873 118.188 54.4479Z" fill="#5297A9"/>
<path fill-rule="evenodd" clip-rule="evenodd" d="M76.0699 14.5905C74.2535 15.6776 75.5905 18.5913 77.6982 17.5229C79.6081 16.5547 78.0201 13.4236 76.0699 14.5905Z" fill="#3890A0"/>
<path fill-rule="evenodd" clip-rule="evenodd" d="M34.06 54.4407C32.0531 55.0196 32.8828 58.4171 35.1921 57.6573C36.979 57.0696 36.2004 53.823 34.06 54.4407Z" fill="#5297A9"/>
<path fill-rule="evenodd" clip-rule="evenodd" d="M74.9314 100.58C75.2923 102.438 78.6981 101.991 78.1389 99.6419C77.7097 97.8396 74.4315 98.0053 74.9314 100.58Z" fill="#4C8B91"/>
</g>
<defs>
<clipPath id="clip0_632_6637">
<rect width="460" height="412" fill="white"/>
</clipPath>
</defs>
</svg>
