<?xml version="1.0" encoding="UTF-8"?>
<!DOCTYPE svg PUBLIC "-//W3C//DTD SVG 1.1//EN" "http://www.w3.org/Graphics/SVG/1.1/DTD/svg11.dtd">
<!-- Creator: CorelDRAW -->
<svg xmlns="http://www.w3.org/2000/svg" xml:space="preserve" width="1200px" height="1200px" version="1.1" style="shape-rendering:geometricPrecision; text-rendering:geometricPrecision; image-rendering:optimizeQuality; fill-rule:evenodd; clip-rule:evenodd"
viewBox="100 100 1000 1000" 
xmlns:xlink="http://www.w3.org/1999/xlink"
xmlns:xodm="http://www.corel.com/coreldraw/odm/2003">
 <defs>
  <style type="text/css">
   <![CDATA[
    .fil0 {fill:#0091F2}
    .fil1 {fill:#FF7C33}
   ]]>
  </style>
 </defs>
 <g id="Слой_x0020_1">
  <metadata id="CorelCorpID_0Corel-Layer"/>
  <g id="_1786794875600">
   <path class="fil0" d="M942.09 528.74c1.32,-11.36 34.71,-62.03 -8.31,-118.75 -39.52,-52.1 -86.46,-37.39 -111.17,-38.75 5.72,-130.82 -154.25,-153.68 -198.76,-54.11 -13.68,30.61 -10.62,70.48 -9.74,100.98 0.08,2.78 -1.21,5.2 -3.56,6.7 -2.34,1.49 -5.09,1.63 -7.57,0.38 -8,-4.03 -14.08,-7.44 -28.88,-8.24 -82.65,-4.47 -113.79,102.7 -43.57,143.83 39.25,22.99 71.15,0.22 84.38,-2.77l0.72 42.8c38.4,3.5 57.27,-0.4 87.89,27.93 49.42,45.75 44.02,122.87 -0.98,160.1 -32.5,26.89 -46.75,23.77 -86.91,26.76 -14.71,170.31 210.84,169.09 207.25,16.37 12.06,0.55 63.84,25.26 111.49,-18 43.2,-39.21 34.4,-72.85 32.43,-110.43 27.36,-28.45 41.86,-57.37 34.12,-99.31 -7.61,-41.21 -28.15,-54.7 -58.83,-75.49z"/>
   <path class="fil1" d="M255.72 428.72c-11.78,28.32 -16.44,71.82 7.46,95.25 -1.7,6.92 -80.83,38.73 -63.76,120.07 6.59,31.36 23.24,45.55 38.54,59.06 -4.48,15.52 -12.75,37.84 -1.54,67.71 18.07,48.12 63.07,73.79 114.82,67.21 11.38,-1.45 18.73,-6.92 25.48,-7.66 3.01,23.13 -0.3,28.85 8.89,52.22 27.98,71.2 145.27,92.24 187.94,4.48 20.84,-42.85 12.91,-74.68 12.61,-97.1 -0.03,-2.39 0.92,-4.46 2.75,-5.99 1.83,-1.53 4.12,-2.4 6.38,-1.65 25.84,8.54 104.02,18.05 112.64,-65.38 4.25,-79.23 -64.98,-91.97 -121.83,-83.69l0.15 -33.04c-6.29,0.12 -22.2,0.93 -45.2,-2.48 -35.71,-7.59 -91.53,-49.98 -77.28,-124.53 13.5,-62.3 59.91,-88.24 120.65,-86.1 14.88,-126.87 -118.41,-166.55 -177.85,-100.67 -27.24,30.18 -27.14,44.42 -29.37,84.51 -50.51,-2.95 -99.8,5.66 -121.48,57.78z"/>
  </g>
 </g>
</svg>
