<?xml version="1.0" standalone="no"?>
<!DOCTYPE svg PUBLIC "-//W3C//DTD SVG 20010904//EN"
 "http://www.w3.org/TR/2001/REC-SVG-20010904/DTD/svg10.dtd">
<svg version="1.0" xmlns="http://www.w3.org/2000/svg"
 width="700.000000pt" height="700.000000pt" viewBox="0 0 700.000000 700.000000"
 preserveAspectRatio="xMidYMid meet">
<metadata>
Created by potrace 1.14, written by Peter Selinger 2001-2017
</metadata>
<g transform="translate(0.000000,700.000000) scale(0.100000,-0.100000)"
fill="#000000" stroke="none">
<path d="M2647 5494 c-113 -29 -226 -103 -303 -198 -104 -130 -128 -195 -139
-385 -2 -35 -6 -65 -8 -68 -3 -2 -60 -6 -128 -8 -68 -2 -154 -10 -190 -19
-198 -44 -340 -172 -403 -364 -65 -196 -48 -393 43 -489 l20 -21 -62 -46 c-85
-63 -89 -66 -138 -112 -129 -121 -193 -266 -188 -427 5 -158 60 -287 168 -392
l69 -68 -13 -46 c-33 -112 -35 -227 -5 -318 70 -213 227 -360 436 -409 106
-24 224 -21 312 8 40 14 75 21 77 17 3 -4 7 -42 10 -84 18 -271 156 -454 410
-541 106 -37 256 -43 357 -14 197 55 334 192 415 415 32 89 42 177 38 332 -4
129 -2 155 11 168 9 9 24 14 33 11 9 -2 26 -7 37 -11 68 -19 235 -22 307 -6
192 44 314 214 315 439 1 238 -118 385 -358 443 -33 8 -114 13 -202 13 l-148
0 0 93 0 92 -70 0 c-205 -1 -339 46 -459 161 -140 134 -201 276 -196 456 11
376 261 617 648 625 l67 2 1 36 c6 148 -1 212 -35 315 -68 203 -234 353 -441
401 -78 18 -217 18 -288 -1z"/>
<path d="M4062 5495 c-111 -25 -223 -86 -298 -163 -81 -82 -156 -229 -169
-332 -3 -19 -7 -46 -11 -60 -3 -14 -5 -111 -5 -216 0 -187 0 -191 -22 -201
-16 -7 -36 -4 -82 15 -115 47 -276 35 -387 -31 -248 -145 -291 -505 -86 -707
132 -129 299 -160 490 -90 45 17 85 30 90 30 4 0 8 -55 8 -123 0 -92 3 -124
13 -124 56 -1 203 -15 247 -23 90 -17 174 -64 253 -144 93 -92 104 -106 143
-190 59 -128 77 -304 44 -427 -7 -24 -11 -44 -10 -44 1 0 -17 -37 -40 -83 -58
-114 -140 -197 -265 -267 -85 -47 -137 -58 -327 -69 -26 -1 -50 -5 -54 -8 -7
-7 -6 -172 1 -213 33 -179 101 -306 217 -402 197 -163 511 -178 723 -33 159
109 246 268 262 479 3 42 6 77 7 78 1 1 19 -2 40 -8 135 -37 272 -44 367 -19
137 37 271 138 355 267 72 110 84 167 81 358 l-3 150 58 74 c132 165 172 318
134 514 -17 87 -70 206 -114 252 -35 38 -125 113 -179 149 -24 16 -43 33 -43
39 0 5 13 48 30 96 36 105 41 136 42 226 3 261 -189 513 -440 580 -35 9 -100
13 -192 12 l-140 -2 -1 30 c-5 255 -95 433 -276 551 -119 78 -318 112 -461 79z"/>
</g>
</svg>
