<svg width="27" height="28" viewBox="0 0 27 28" fill="none" xmlns="http://www.w3.org/2000/svg">
  <path d="M25.8264 11.6831L14.9488 11.6826C14.4684 11.6826 14.0791 12.0719 14.0791 12.5522V16.027C14.0791 16.5073 14.4684 16.8966 14.9487 16.8966H21.0744C20.4036 18.6374 19.1517 20.0952 17.5544 21.0214L20.1664 25.5428C24.3563 23.1197 26.8334 18.8681 26.8334 14.1087C26.8334 13.431 26.7834 12.9466 26.6835 12.4011C26.6076 11.9867 26.2478 11.6831 25.8264 11.6831Z" fill="#167EE6"/>
  <path d="M13.4983 22.1157C10.5005 22.1157 7.88347 20.4778 6.47793 18.0542L1.95654 20.6602C4.25745 24.6479 8.56778 27.3332 13.4983 27.3332C15.917 27.3332 18.1992 26.682 20.1653 25.5471V25.5409L17.5533 21.0195C16.3586 21.7124 14.976 22.1157 13.4983 22.1157Z" fill="#12B347"/>
  <path d="M20.1675 25.5474V25.5412L17.5555 21.0198C16.3608 21.7127 14.9783 22.116 13.5005 22.116V27.3335C15.9192 27.3335 18.2016 26.6823 20.1675 25.5474Z" fill="#0F993E"/>
  <path d="M5.38418 13.9985C5.38418 12.5209 5.78743 11.1386 6.48023 9.94389L1.95884 7.33789C0.817684 9.29768 0.166504 11.5737 0.166504 13.9985C0.166504 16.4234 0.817684 18.6994 1.95884 20.6591L6.48023 18.0531C5.78743 16.8585 5.38418 15.4761 5.38418 13.9985Z" fill="#FFD500"/>
  <path d="M13.4983 5.88427C15.4531 5.88427 17.2487 6.57887 18.6512 7.73426C18.9972 8.01926 19.5001 7.99869 19.8171 7.68176L22.2792 5.21972C22.6388 4.86013 22.6132 4.27152 22.229 3.93828C19.8792 1.89975 16.8217 0.666748 13.4983 0.666748C8.56778 0.666748 4.25745 3.35207 1.95654 7.33977L6.47793 9.94577C7.88347 7.52212 10.5005 5.88427 13.4983 5.88427Z" fill="#FE724C"/>
  <path d="M18.6535 7.73426C18.9995 8.01926 19.5024 7.99869 19.8193 7.68176L22.2814 5.21972C22.641 4.86013 22.6154 4.27152 22.2313 3.93828C19.8814 1.89969 16.824 0.666748 13.5005 0.666748V5.88427C15.4553 5.88427 17.251 6.57887 18.6535 7.73426Z" fill="#D93F21"/>
</svg>
