<svg width="600" height="688" viewBox="0 0 600 688" fill="none" xmlns="http://www.w3.org/2000/svg">
<path d="M124.668 338.751C161.232 383.708 104.303 469.579 40.5984 526.04C-1.4365 610.247 37.177 648.479 72.369 648.479C97.7714 648.479 247.352 655.738 271.302 648.479C295.252 641.22 441.885 470.869 441.885 454.415C441.885 437.961 506.893 296.647 514.225 284.064C521.556 271.482 637.886 118.553 557.726 46.4448C477.566 -25.6638 294.763 25.151 207.761 62.8991C120.758 100.647 49.8853 246.8 124.668 338.751Z" fill="#BBE6FF"/>
<path d="M194.061 612.819C175.237 616.115 71.7638 626.402 22.3801 631.134C5.38631 642.581 7.12926 652.654 22.3801 664.101C37.6309 675.548 97.7628 677.38 136.979 677.38C176.196 677.38 254.933 671.612 294.149 671.612C333.365 671.612 409.751 672.343 455.504 677.38C501.256 682.416 605.833 655.859 587.968 631.134C570.103 606.408 428.052 594.045 385.35 594.045C342.648 594.045 217.591 608.698 194.061 612.819Z" fill="#C9DCEF"/>
<path fill-rule="evenodd" clip-rule="evenodd" d="M166.097 496.509C166.23 498.536 171.37 495.861 173.347 495.198C176.067 494.286 178.821 493.514 181.6 492.864C185.554 491.94 209.337 492.964 209.633 492.864L191.835 413.233C181.043 409.743 164.295 410.196 152.874 413.233L155.201 488.967C158.334 491.024 165.892 492.2 166.097 496.509Z" fill="#FCFBFB"/>
<path fill-rule="evenodd" clip-rule="evenodd" d="M166.917 522.387C167.839 522.363 165.69 522.631 164.188 522.851L155.867 524.116L154.504 571.161L153.917 571.147C151.271 572.504 124.991 571.179 120.096 570.934C109.135 570.384 98.8818 568.12 88.715 567.362C89.7166 580.811 100.807 599.78 113.015 606.012C113.135 605.995 132.857 593.986 135.849 592.511C139.946 590.491 144.316 588.553 148.6 586.972C150.479 586.279 153.678 585.067 155.603 584.867C157.871 584.632 161.413 586.908 160.616 588.353L171.824 596.969C174.262 594.234 187.477 590.206 190.997 589.941C197.716 589.436 204.865 593.722 209.923 597.743C218.108 604.25 233.747 616.382 232.586 627.868L233.294 624.816C234.954 624.15 257.824 621.59 261.728 621.034C271.514 619.64 278.097 618.737 286.718 613.565C299.182 606.087 313.474 592.717 325.027 586.616C318.056 595.819 303.854 606.146 295.577 614.992C291.516 619.332 285.195 624.532 280.626 628.558C273.293 635.023 270.595 635.204 262.715 639.436C280.84 639.473 341.518 642.353 354.723 634.272C366.276 627.201 368.405 611.372 360.56 600.815C354.158 592.2 336.854 587.636 326.503 585.652C335.1 574.764 347.321 575.03 346.729 554.342C346.352 541.139 337.928 529.431 325.604 524.481C315.04 519.922 285.049 520.392 272.145 519.438C266.64 519.031 219.331 515.405 218.412 514.887C216.836 515.439 216.373 515.457 214.86 514.832L203.748 514.883L166.917 522.387Z" fill="#6D96AD"/>
<path fill-rule="evenodd" clip-rule="evenodd" d="M178.755 518.7L206.482 514.87L251.272 516.471L305.773 520.998C305.773 520.998 246.76 522.202 227.099 519.336C207.439 516.471 168.058 524.401 168.058 524.401L174.936 520.752L178.755 518.7Z" fill="#496695"/>
<path fill-rule="evenodd" clip-rule="evenodd" d="M110.106 320.045L121.733 308.855C122.63 289.654 127.065 255.124 129.144 235.722C131.315 215.463 133.536 195.21 135.686 174.948C137.832 154.737 140.12 134.541 142.212 114.326C143.255 104.239 144.419 94.1619 145.455 84.0734C145.94 79.3534 146.944 73.2608 147.078 68.6953C147.271 62.1015 139.762 61.8489 137.791 65.0089C136.195 67.5654 120.978 212.799 114.232 278.202C112.735 292.716 110.527 315.825 110.106 320.045Z" fill="#2E567A"/>
<path fill-rule="evenodd" clip-rule="evenodd" d="M119.402 299.658C106.041 320.593 87.7847 315.362 81.9997 330.875C69.6418 364.015 64.0442 357.428 52.6387 366.263C24.3595 388.167 62.5702 415.966 45.8298 431.97C29.2712 447.8 -1.40193 473.175 14.3842 500.871C24.1243 517.961 59.5055 529.842 79.4276 526.034L80.6609 520.313C71.9951 518.842 62.5908 514.717 54.5432 511.186C47.1826 507.957 50.9714 487.8 51.7704 481.133C55.239 452.193 69.3514 403.311 89.479 381.487C102.172 367.725 98.5404 382.907 110.751 385.308C123.768 387.867 119.798 374.287 131.055 371.3L143.302 369.39C154.26 365.654 152.118 347.345 154.26 344.24C154.007 337.416 159.152 334.922 163.929 331.506C173.141 324.918 166.018 323.018 172.6 317.451C177.52 313.289 183.438 310.042 188.093 306.345C195.726 300.284 193.829 297.663 196.803 292.984C202.636 296.21 208.484 312.968 205.73 319.947L203.087 316.568C201.962 316.786 201.803 317.444 200.421 319.189L200.678 319.388C203.071 324.754 207.295 317.93 201.601 332.311C197.731 342.085 195.35 349.277 185.201 355.064C178.129 359.096 174.432 358.569 167.487 358.247L168.804 368.383C168.463 371.416 173.944 377.914 176.499 379.577C179.654 381.631 182.978 384.515 185.845 386.9C190.054 390.4 198.99 391.778 198.887 397.436L219.686 433.698C258.328 399.804 211.285 392.22 223.232 377.031C231.705 366.258 232.652 357.902 224.629 346.305C214.375 331.485 235.479 321.955 230.322 294.258C227.758 287.135 220.008 280.889 203.807 282.773C203.301 282.832 203.655 281.759 203.572 281.205C202.613 274.878 196.293 263.197 174.243 262.741C163.181 262.133 153.558 264.089 143.302 268.395C124.975 282.773 126.438 289.275 119.402 299.658Z" fill="#334160"/>
<path fill-rule="evenodd" clip-rule="evenodd" d="M153.864 421.203C153.542 423.432 154.186 417.065 153.864 421.203V421.203ZM189.991 431.643C192.069 438.362 200.594 453.488 200.57 458.469L203.458 491.976L208.61 494.394C209.946 493.813 213.009 496.164 214.502 496.668L214.611 496.24L214.124 495.888L216.623 496.292C220.58 488.058 211.286 449.437 208.425 440.33L198.436 406.738L198.107 406.248L186.96 420.991L187.498 421.661C183.067 416.248 198.058 398.423 198.54 396.032C198.644 390.375 191.287 389.665 187.078 386.164C184.211 383.779 181.191 381.552 178.037 379.499C175.482 377.836 169.236 375.49 169.577 372.458L171.042 381.404V397.287C174.645 398.281 185.957 415.481 186.627 420.088L189.991 431.643ZM153.483 417.171L152.405 400.338L152.004 401.608L148.34 399.751C149.38 397.836 151.123 397.424 153.215 397.742L152.543 390.155L148.875 376.909L147.211 368.436L133.161 369.224C132.467 369.69 131.558 369.877 131.55 369.878C120.293 372.865 123.545 386.352 110.528 383.792C98.3178 381.391 101.408 365.057 88.7156 378.819C68.5879 400.643 53.2887 452.838 49.8201 481.778C49.021 488.445 46.7865 508.197 54.1471 511.426C62.1947 514.956 71.599 519.082 80.2648 520.552C103.293 524.132 116.631 522.379 138.926 520.638C142.019 520.397 145.199 520.234 148.261 519.757C153.72 518.905 152.398 517.694 155.467 516.356L155.47 524.356L163.792 523.09L164.905 522.948L166.521 522.626L203.352 515.122L165.107 513.701L158.111 513.592L166.097 496.508C165.892 492.2 158.335 491.024 155.201 488.967L155.378 470.758C155.489 468.808 154.725 467.473 154.929 456.42L154.229 424.977L153.483 417.171Z" fill="#FDA955"/>
<path fill-rule="evenodd" clip-rule="evenodd" d="M443.847 396.106C448.657 396.175 447.882 400.279 449.196 404.688C452.289 415.06 456.65 424.5 459.518 434.926C463.485 449.348 463.766 466.808 468.201 480.148C470.633 487.463 474.6 490.716 478.773 496.763C489.859 512.831 495.103 540.079 499.091 558.763L527.478 560.27L527.713 559.759L527.231 553.225L528.172 559.84C532.068 561.372 533.256 558.479 534.123 563.003H534.613C534.778 543.382 537.495 527.795 530.355 508.548C527.727 501.463 524.589 494.355 522.356 487.157C519.165 476.877 522.906 472.249 519.432 462.036C513.026 443.199 513.671 429.298 513.059 409.754C512.488 391.513 511.063 373.699 508.362 355.641L502.902 358.928L502.671 359.243C501.308 360.031 500.504 360.481 498.887 360.404C498.931 361.531 498.338 361.534 498.277 360.736L494.274 360.51C494.404 360.843 493.308 360.935 492.571 360.58C490.982 359.572 485.731 359.798 477.696 354.253C474.557 352.088 472.599 350.225 469.79 347.74C467.368 345.596 461.006 344.486 460.447 343.012L459.914 343.034L436.665 342.876C436.686 348.87 435.481 394.47 443.037 395.462C443.132 395.15 441.024 386.207 440.781 384.671C439.633 377.403 437.136 346.532 439.218 343.254C439.823 343.584 439.274 368.018 439.492 371.3C439.789 375.773 440.781 381.806 441.521 384.596C441.887 386.793 444.54 394.798 443.847 396.106Z" fill="#315679"/>
<path fill-rule="evenodd" clip-rule="evenodd" d="M386.454 349.968L385.006 370.506C386.753 401.823 389.968 428.804 398.186 459.214C400.751 468.709 399.833 472.91 400.859 482.072C401.661 489.232 403.193 496.648 404.67 503.717C407.002 514.879 410.233 535.381 414.111 545.232C414.603 544.832 428.85 553.793 431.113 554.674C434.495 555.992 447.924 559.161 450.844 559.355L451.367 559.132C455.232 537.69 456.764 520.15 451.238 498.822C450.072 494.323 448.764 489.844 447.373 485.416C445.732 480.193 450.929 480.832 450.384 473.251C449.782 464.869 443.291 453.007 443.303 446.115C442.612 445.884 434.798 421.822 433.691 419.054C429.193 407.807 422.322 397.499 438.848 395.177L440.798 394.725C440.726 393.253 438.675 386.662 438.203 384.035C435.816 370.728 435.469 356.261 435.646 342.825L412.74 339.675C411.605 342.872 404.735 345.869 401.468 346.952C398.358 347.983 389.67 349.925 386.454 349.968Z" fill="#315679"/>
<path fill-rule="evenodd" clip-rule="evenodd" d="M283.354 96.2051L260.546 94.0175L251.527 153.419L144.075 141.253L140.64 169.465L246.78 181.505L238.021 241.038L262.752 243.695L270.854 184.462L376.85 195.583C378.168 188.578 379.881 175.421 381.03 167.733L275.117 156.281L283.354 96.2051Z" fill="#F4625B"/>
<path fill-rule="evenodd" clip-rule="evenodd" d="M247.177 505.207L327.738 519.713C333.314 511.519 340.733 494.646 345.565 485.122C351.333 473.753 357.811 462.117 363.177 450.64C367.912 440.512 358.534 440.535 351.246 438.714C344.213 436.958 337.173 435.217 330.136 433.471C320.915 431.184 295.646 423.684 287.926 423.262C282.567 423.277 277.906 437.558 275.865 442.064C272.704 449.045 269.495 456.162 266.194 463.073C264.141 467.371 247.532 504.892 247.177 505.207Z" fill="#B1BECB"/>
<path fill-rule="evenodd" clip-rule="evenodd" d="M333.21 212.357C324.039 205.701 311.523 193.375 299.093 196.29L360.253 240.572C364.663 229.308 371.81 235.362 333.21 212.357Z" fill="#F4625B"/>
<path fill-rule="evenodd" clip-rule="evenodd" d="M151.073 546.956C149.906 545.244 150.263 543.039 152.826 543.664C153.6 545.38 153.442 547.389 151.073 546.956ZM79.3644 527.614C77.6537 532.77 76.1714 546.643 75.4938 552.584C73.5235 569.858 77.8752 562.155 88.715 567.362C98.8818 568.12 109.135 570.384 120.096 570.934C124.991 571.179 151.271 572.504 153.917 571.147L154.504 571.161L155.866 524.116C152.749 523.985 142.294 525.73 138.169 526.077C131.821 526.612 125.483 527.004 119.122 527.365C105.448 528.14 92.6477 527.254 79.3644 527.614Z" fill="#FDA955"/>
<path fill-rule="evenodd" clip-rule="evenodd" d="M246.579 143.818L254.206 93.3861L158.24 82.6152L246.579 143.818Z" fill="#294886"/>
<path fill-rule="evenodd" clip-rule="evenodd" d="M239.18 188.597L141.229 229.973L141.233 230.133L231.623 240.458L239.18 188.597Z" fill="#294886"/>
<path fill-rule="evenodd" clip-rule="evenodd" d="M356.319 254.093L356.734 251.506L276 193.512L269.096 244.642L356.319 254.093Z" fill="#294886"/>
<path fill-rule="evenodd" clip-rule="evenodd" d="M282.559 148.743L373.697 106.437C373.599 106.142 311.062 99.2756 305.225 98.6646C302.122 98.3397 290.002 95.4241 289.413 98.8804C288.518 104.137 287.935 110.108 287.206 115.478C285.708 126.52 284.258 137.742 282.559 148.743Z" fill="#294886"/>
<path fill-rule="evenodd" clip-rule="evenodd" d="M207.41 438.471L207.486 436.958C208.464 438.218 219.574 476.299 221.298 480.815C224.118 488.201 230.606 501.102 237.351 504.624L243.28 504.81L254.98 475.704L253.969 474.956C249.628 474.887 242.167 473.307 240.259 469.421C238.186 465.202 236.055 461.129 233.835 456.985C231.521 452.666 221.44 435.409 220.623 432.326L198.936 395.793C198.454 398.183 184.839 411.712 186.349 418.179L187.779 423.193L197.875 407.615L198.204 408.105L207.41 438.471Z" fill="#E16C35"/>
<path fill-rule="evenodd" clip-rule="evenodd" d="M199.777 327.007C203.638 325.388 203.818 330.891 201.09 331.948C197.779 333.231 196.558 328.357 199.777 327.007ZM180.559 322.115C183.774 320.38 185.785 325.511 182.694 326.819C179.482 328.179 177.739 323.637 180.559 322.115ZM172.6 317.451C173.889 315.545 179.945 313.943 182.28 313.351C184.522 312.784 193.829 311.872 188.714 316.478C186.334 316.906 183.265 315.978 179.931 316.427C178.338 316.642 173.715 317.903 172.6 317.451ZM152.971 341.375C154.601 349.956 165.541 357.611 168.504 358.72C173.921 360.158 178.4 360.959 185.472 356.927C195.621 351.14 198.939 342.435 202.809 332.66C208.503 318.279 203.071 324.754 200.678 319.388L200.421 319.189C201.803 317.444 201.961 316.786 203.087 316.568L206.748 321.247C209.502 314.269 202.356 293.513 196.524 290.288C193.549 294.967 195.726 300.284 188.093 306.345C183.438 310.042 176.756 310.644 171.836 314.806C165.254 320.373 172.128 323.91 162.916 330.498C158.139 333.914 152.718 334.551 152.971 341.375Z" fill="#FDDBCC"/>
<path fill-rule="evenodd" clip-rule="evenodd" d="M171.824 596.969L176.872 599.066L178.735 599.98L185.613 603.912C187.538 604.977 190.009 606.479 191.619 607.861C192.529 608.643 196.485 612.476 196.908 612.616L204.338 626.942L203.214 634.387C209.956 634.358 230.916 640.668 232.585 627.868C233.747 616.382 218.108 604.25 209.923 597.743C204.865 593.722 197.715 589.436 190.997 589.941C187.476 590.206 174.262 594.234 171.824 596.969Z" fill="#DAE1DE"/>
<path fill-rule="evenodd" clip-rule="evenodd" d="M232.586 627.868C230.916 640.668 209.956 634.358 203.214 634.387L201.343 634.624C211.394 637.285 220.638 638.542 230.954 639.691C244.784 641.231 249.185 640.853 262.715 639.436C270.595 635.204 273.293 635.023 280.626 628.559C285.194 624.532 291.516 619.332 295.577 614.992C303.854 606.146 318.056 595.819 325.027 586.616C313.474 592.717 299.182 606.087 286.718 613.565C278.097 618.737 271.514 619.64 261.728 621.034C257.824 621.59 234.954 624.151 233.294 624.816L232.586 627.868Z" fill="#3F6881"/>
<path fill-rule="evenodd" clip-rule="evenodd" d="M499.84 563.394L498.073 563.791C500.873 572.165 502.046 584.974 508.584 591.035C522.425 593.584 520.979 593.305 533.874 589.326L536.285 587.757C536.621 581.972 536.336 573.39 536.368 567.086C536.398 561.333 536.913 563.914 534.515 561.679H534.025L499.84 563.394Z" fill="#476D91"/>
<path fill-rule="evenodd" clip-rule="evenodd" d="M416.825 560.053C414.495 560.92 414.699 557.787 415.02 565.828L415.798 580.32C416.132 585.772 415.973 582.823 418.078 585.217C430.883 587.437 431.062 588.611 444.169 585.979C448.137 584.174 447.316 584.993 448.558 580.188C449.173 577.811 449.745 575.391 450.278 572.991C450.823 570.54 451.357 568.101 451.863 565.635C453.461 557.847 452.057 562.06 451.367 559.132L450.844 559.355L416.825 560.053Z" fill="#476D91"/>
<path fill-rule="evenodd" clip-rule="evenodd" d="M328.733 154.191L382.01 159.62L382.336 159.597L386.966 127.875L328.733 154.191Z" fill="#294886"/>
<path fill-rule="evenodd" clip-rule="evenodd" d="M152.107 385.679L152.779 393.266L151.969 395.862L153.047 412.695C157.852 413.126 164.231 411.829 170.577 412.522C176.384 413.155 180.686 414.366 186.191 415.611C185.521 411.005 179.452 383.754 175.849 382.759L152.107 385.679Z" fill="#FCFBFB"/>
<path fill-rule="evenodd" clip-rule="evenodd" d="M193.004 183.996L139.719 177.605L136.296 208.077L193.004 183.996Z" fill="#294886"/>
<path fill-rule="evenodd" clip-rule="evenodd" d="M364.663 229.308L374.673 208.17L375.299 203.662L321.192 198.275L364.663 229.308Z" fill="#294886"/>
<path fill-rule="evenodd" clip-rule="evenodd" d="M113.015 606.012C113.434 607.058 76.9045 642.494 94.5955 646.042L104.907 631.981L120.939 610.667C125.654 604.031 152.221 591.16 160.616 588.354C161.413 586.909 157.871 584.632 155.603 584.867C153.678 585.067 150.479 586.279 148.6 586.972C144.316 588.553 139.946 590.491 135.849 592.511C132.857 593.987 113.135 605.995 113.015 606.012Z" fill="#FED9AC"/>
<path fill-rule="evenodd" clip-rule="evenodd" d="M145.206 133.16L195.219 139.024L148.265 106.514L145.206 133.16Z" fill="#294886"/>
<path fill-rule="evenodd" clip-rule="evenodd" d="M165.778 507.401L216.015 508.755L217.794 508.742C224.048 510.231 239.438 509.429 247.107 510.062C256.031 510.798 265.133 512.375 273.985 513.777C282.407 515.111 322.694 522.408 326.746 522.595L327.738 519.713L247.178 505.207L243.28 504.81L237.351 504.624L233.201 504.723L223.783 505.006L221.862 504.973L211.028 504.695L210.254 504.673L199.284 503.863L198.874 504.054L166.742 503.655L165.778 507.401Z" fill="#28445B"/>
<path fill-rule="evenodd" clip-rule="evenodd" d="M443.303 446.115L443.764 403.734L443.847 396.106C444.54 394.798 441.887 386.793 441.521 384.596C440.783 380.167 440.443 375.773 440.146 371.301C439.928 368.019 439.823 343.584 439.218 343.254C437.136 346.532 439.314 376.784 440.462 384.052C440.705 385.588 443.132 395.15 443.037 395.462C437.018 394.678 436.685 348.87 436.665 342.876L435.646 342.825C435.469 356.261 435.507 370.056 437.894 383.362C438.366 385.99 440.725 393.253 440.798 394.725L438.333 394.018C421.807 396.339 426.967 407.448 431.465 418.695C432.572 421.463 442.612 445.884 443.303 446.115Z" fill="#1F3953"/>
<path fill-rule="evenodd" clip-rule="evenodd" d="M304.783 151.213L304.839 151.448C304.868 151.741 317.675 152.989 318.805 152.782C320.243 152.517 348.967 139.381 351.455 138.221L383.878 123.446C388.445 121.379 389.743 118.309 389.042 113.09L304.783 151.213Z" fill="#F4625B"/>
<path fill-rule="evenodd" clip-rule="evenodd" d="M221.102 141.214L150.137 91.5388C149.342 93.0594 149.308 96.2141 149.057 98.1652C148.672 101.164 149.496 100.779 151.874 102.421C166.733 112.682 182.649 124.205 197.469 134.105C199.637 135.552 204.703 139.569 206.909 140.027C209.253 140.515 219.24 141.785 221.102 141.214Z" fill="#F4625B"/>
<path fill-rule="evenodd" clip-rule="evenodd" d="M120.939 610.667L136.03 609.897C138.228 608.884 138.897 605.861 143.255 607.213C146.694 608.281 146.56 610.893 147.419 613.623L158.084 601.542L159.075 602.379L153.533 609.538C155.345 609.957 156.901 609.812 158.74 609.561L176.872 599.066L171.824 596.969L160.616 588.353C152.221 591.16 125.654 604.03 120.939 610.667Z" fill="#284864"/>
<path fill-rule="evenodd" clip-rule="evenodd" d="M166.493 496.269L158.507 513.352L165.503 513.461L165.778 507.401L166.742 503.655L198.874 504.054C197.271 503.484 194.942 501.138 194.073 499.745C195.031 500.298 198.846 503.059 199.284 503.863L210.254 504.673C208.52 503.013 207.182 501.31 205.044 499.741C203.324 498.479 200.717 497.149 199.48 495.545C202.331 496.235 210.078 502.366 211.028 504.695L221.862 504.973C218.191 503.059 218.315 502.409 215.689 499.416C213.777 497.236 211.874 495.475 209.006 494.155L203.854 491.737L200.561 490.768C200.265 490.868 185.95 491.7 181.996 492.625C179.217 493.274 176.463 494.047 173.744 494.958C171.766 495.621 166.626 498.296 166.493 496.269Z" fill="#FDDBCC"/>
<path fill-rule="evenodd" clip-rule="evenodd" d="M117.541 642.126C116.845 640.916 116.335 636.182 116.051 634.439C115.624 631.814 114.487 628.514 117.534 627.814C118.838 629.467 119.357 633.241 119.584 635.366C119.946 638.763 121.145 641.008 117.541 642.126ZM120.939 610.667L104.907 631.981C108.735 634.463 110.146 643.778 106.051 647.304L107.428 647.585L124.933 642.142L125.872 638.594L121.289 640.71C121.197 638.213 120.515 626.723 122.098 625.641C126.02 622.959 127.022 633.482 127.482 635.65C131.032 632.504 128.964 629.964 128.418 626C128.161 624.14 128.868 622.253 130.802 623.082C132.201 623.681 132.051 626.022 133.156 626.806C133.499 624.754 132.689 622.859 133.906 622.101C135.597 621.049 136.7 623.099 135.823 619.477C134.468 613.881 135.655 614.324 136.03 609.897L120.939 610.667Z" fill="#1F354D"/>
<path fill-rule="evenodd" clip-rule="evenodd" d="M130.125 639.648C130.429 637.85 130.571 635.72 132.751 635.466L134.214 638.219C135.204 638.387 135.013 637.922 135.129 639.633C135.58 646.302 127.957 643.89 130.125 639.648ZM137.852 627.518C137.152 626.538 137.138 625.85 137.772 624.991C138.238 625.805 138.261 626.659 137.852 627.518ZM140.464 619.093C139.152 616.919 138.854 611.339 142.306 611.74C143.619 613.429 141.877 617.969 140.464 619.093ZM136.03 609.897C135.655 614.323 134.468 613.881 135.823 619.477C136.7 623.099 135.597 621.048 133.906 622.101C132.689 622.859 133.499 624.754 133.156 626.806C132.051 626.022 132.201 623.681 130.802 623.082C128.867 622.253 128.161 624.14 128.418 626C128.964 629.964 131.032 632.504 127.481 635.65C127.022 633.482 126.02 622.959 122.098 625.641C120.515 626.723 121.197 638.213 121.289 640.71L125.872 638.594L124.933 642.142C126.632 643.527 127.548 652.062 135.732 647.822C141.427 644.87 139.906 640.712 141.686 636.599C141.815 631.957 144.243 632.962 142.738 628.145C141.331 623.641 141.411 625.331 143.919 621.187C145.87 617.961 150.366 612.028 153.35 609.826L153.533 609.538L159.075 602.379L158.084 601.542L147.419 613.623C146.56 610.893 146.694 608.281 143.255 607.214C138.897 605.861 138.228 608.884 136.03 609.897Z" fill="#6E98AD"/>
<path fill-rule="evenodd" clip-rule="evenodd" d="M450.154 623.782L414.542 622.936L413.029 622.843L386.039 621.556L380.473 622.32C368.812 625.808 385.669 634.9 401.139 635.218C407.79 635.738 431.928 632.079 438.583 632.593C441.516 632.819 445.741 633.512 448.079 631.607C450.051 630 451.283 626.01 450.154 623.782Z" fill="#F4F4F4"/>
<path fill-rule="evenodd" clip-rule="evenodd" d="M152.765 619.074C155.837 619.358 156.091 632.203 154.906 634.341C151.417 634.327 152.416 630.973 152.275 627.896C152.179 625.817 151.515 620.596 152.765 619.074ZM148.441 617.955C150.237 619.957 151.641 632.34 150.25 634.456C142.472 639.002 142.918 619.148 148.441 617.955ZM141.686 636.599L173.803 633.99C173.849 633.249 174.793 631.186 175.015 629.919C175.337 628.082 175.164 626.412 174.694 624.625C174.056 622.198 172.197 618.501 170.589 616.572C164.714 609.518 159.168 611.421 153.35 609.826C150.366 612.028 145.87 617.961 143.919 621.187C141.411 625.331 141.331 623.641 142.738 628.145C144.243 632.962 141.815 631.957 141.686 636.599Z" fill="#1F354D"/>
<path fill-rule="evenodd" clip-rule="evenodd" d="M214.96 186.953C216.366 185.988 204.719 185.103 203.861 185.109C201.125 185.129 195.996 187.711 193.277 188.891C186.543 191.814 179.759 194.648 172.998 197.511C166.159 200.406 159.337 203.335 152.5 206.236C146.643 208.72 135.303 210.694 135.079 217.975C134.945 222.309 140.507 218.321 143.447 217.055L173.91 204.157C181.313 200.987 210.514 190.004 214.96 186.953Z" fill="#F4625B"/>
<path fill-rule="evenodd" clip-rule="evenodd" d="M218.412 514.887C219.331 515.405 266.64 519.031 272.145 519.438C285.049 520.392 315.04 519.922 325.604 524.481L326.746 522.595C322.694 522.408 282.407 515.111 273.985 513.777C265.133 512.375 256.031 510.798 247.108 510.062C239.438 509.429 224.048 510.231 217.794 508.742C219.062 509.59 220.39 509.578 220.443 511.694C220.482 513.245 219.658 514.193 218.412 514.887Z" fill="#818EA0"/>
<path fill-rule="evenodd" clip-rule="evenodd" d="M80.6609 520.313L79.4276 526.034L79.3644 527.614C92.6477 527.254 105.448 528.14 119.122 527.365C125.483 527.004 131.821 526.612 138.169 526.077C142.294 525.73 152.749 523.985 155.866 524.116L155.863 516.117C152.795 517.455 154.116 518.666 148.657 519.517C145.595 519.995 142.415 520.158 139.322 520.399C117.027 522.14 103.69 523.892 80.6609 520.313Z" fill="#E16C35"/>
<path fill-rule="evenodd" clip-rule="evenodd" d="M158.74 609.561C161.621 610.375 163.667 609.992 166.683 611.485C168.825 612.544 170.546 614.299 171.85 616.255C175.28 621.398 176.685 625.133 175.787 631.427C179.704 630.108 183.618 629.512 187.464 627.566C188.61 622.924 187.314 615.192 185.472 610.754C182.05 602.504 178.5 604.07 175.659 600.593L178.735 599.98L176.872 599.066L158.74 609.561Z" fill="#FDDBCC"/>
<path fill-rule="evenodd" clip-rule="evenodd" d="M386.039 621.556C389.268 632.468 418.185 629.642 427.204 606.018C427.854 604.419 428.872 602.57 428.82 600.841L420.427 596.597C416.903 597.522 416.007 602.417 414.042 605.304C412.18 608.039 409.43 610.826 406.567 612.555C401.632 615.535 392.208 618.533 386.039 621.556Z" fill="#2D4D92"/>
<path fill-rule="evenodd" clip-rule="evenodd" d="M116.874 478.587C118.808 473.811 111.776 472.334 116.552 455.983C122.399 435.967 128.901 421.045 122.523 400.638C121.018 395.824 121.073 390.99 120.181 387.059C118.872 392.207 121.282 407.125 120.097 415.87C118.957 424.287 116.162 433.892 113.651 441.976C111.301 449.544 110.39 454.475 107.777 461.967C107.17 463.705 103.725 472.29 104.239 473.312C104.63 474.089 115.805 478.837 116.874 478.587Z" fill="#E16C35"/>
<path fill-rule="evenodd" clip-rule="evenodd" d="M253.969 474.956L254.98 475.704L243.28 504.81L247.178 505.207C247.532 504.892 264.141 467.371 266.194 463.073C269.496 456.162 272.705 449.045 275.866 442.064C277.906 437.558 282.568 423.278 287.926 423.263C278.167 418.603 271.497 440.63 268.659 446.731C266.86 450.596 257.245 475.752 253.969 474.956Z" fill="#818EA0"/>
<path fill-rule="evenodd" clip-rule="evenodd" d="M207.41 438.471C210.272 447.578 218.379 488.471 217.019 496.052L214.52 495.648L215.007 496.001C218.428 496.738 230.677 502.506 233.201 504.723L237.351 504.624C230.606 501.102 223.425 479.985 220.606 472.599C218.882 468.084 208.464 438.218 207.486 436.958L207.41 438.471Z" fill="#B7573A"/>
<path fill-rule="evenodd" clip-rule="evenodd" d="M428.886 607.581L429.05 607.98C430.746 609.293 432.199 610.712 434.043 611.948C437.23 614.086 437.592 613.23 440.948 613.389C439.753 618.019 438.324 617.889 433.453 617.591C431.606 617.478 423.879 617.028 423.023 615.894C420.333 617.123 420.635 616.91 418.488 618.929C417.273 620.07 407.384 624.305 406.972 625.962C412.435 628.413 423.015 627.97 430.79 627.578C437.408 627.244 446.26 625.668 450.154 623.782L443.686 602.059C437.096 608.072 437.173 604.324 430.585 602.09C429.987 602.873 428.964 606.347 428.886 607.581Z" fill="#314D92"/>
<path fill-rule="evenodd" clip-rule="evenodd" d="M145.552 368.317L148.439 372.433L161.351 379.259L172.672 377.683L168.072 363.91L167.442 357.809C164.18 354.817 154.583 348.378 152.971 341.375C150.829 344.48 154.774 362.413 145.552 368.317Z" fill="#DC908D"/>
<path fill-rule="evenodd" clip-rule="evenodd" d="M508.583 591.035L511.664 602.038L521.956 606.507C522.707 606.757 522.299 606.2 522.552 606.873C528.259 610.027 530.803 611.38 534.922 606.166L533.874 589.326C520.979 593.305 522.425 593.585 508.583 591.035Z" fill="#DC908D"/>
<path fill-rule="evenodd" clip-rule="evenodd" d="M196.443 512.785C195.857 511.623 195.994 509.947 196.814 509C196.97 510.253 196.947 511.627 196.443 512.785ZM190.01 512.421C189.475 511.453 189.672 510.227 190.023 509.034C190.599 509.738 190.609 509.221 190.523 510.738C190.472 511.65 190.383 511.759 190.01 512.421ZM183.346 512.28C182.813 511.248 182.912 509.272 183.811 508.573C184.011 509.617 184.193 511.613 183.346 512.28ZM165.503 513.461L203.748 514.883L214.86 514.832C213.551 513.988 212.793 512.827 213.294 511.171C213.774 509.579 215.025 509.731 216.015 508.755L165.778 507.401L165.503 513.461Z" fill="#818EA0"/>
<path fill-rule="evenodd" clip-rule="evenodd" d="M148.58 372.415L152.25 385.036L178.292 386.343C176.781 382.364 174.586 380.053 172.481 376.907C171.386 377.851 166.244 378.822 163.003 378.761C159.211 378.689 150.858 373.762 148.58 372.415Z" fill="#E9EDEC"/>
<path fill-rule="evenodd" clip-rule="evenodd" d="M466.187 342.253L464.474 342.891C465.698 344.522 466.601 344.578 467.872 345.529C466.43 345.49 461.97 343.774 460.696 342.987L460.447 343.012C461.006 344.486 467.368 345.596 469.79 347.74C472.599 350.225 474.706 353.217 477.845 355.383C485.881 360.928 490.982 359.572 492.571 360.58C493.675 361.28 494.472 363.793 495.9 364.668L494.274 360.51L490.669 354.332C489.962 353.941 485.823 349.449 483.94 348.089C482.485 347.039 477.104 343.094 476.444 342.037L474.908 341.079L466.187 342.253Z" fill="#213A55"/>
<path fill-rule="evenodd" clip-rule="evenodd" d="M416.825 560.053L450.844 559.355C447.924 559.161 434.646 554.558 431.263 553.241C429.001 552.36 414.603 544.832 414.111 545.232L416.825 560.053Z" fill="#213A55"/>
<path fill-rule="evenodd" clip-rule="evenodd" d="M197.446 462.083C196.158 463.976 193.903 463.306 193.58 467.762L192.292 477.632L192.822 491.373L203.855 491.737L200.966 458.229L197.446 462.083Z" fill="#B7573A"/>
<path fill-rule="evenodd" clip-rule="evenodd" d="M420.427 596.597L428.82 600.841L430.585 602.09C437.173 604.324 437.096 608.072 443.686 602.059L443.179 593.157C432.231 595.38 429.485 595.187 419.47 591.142L420.427 596.597Z" fill="#FDDBCC"/>
<path fill-rule="evenodd" clip-rule="evenodd" d="M419.47 591.142C429.485 595.188 432.231 595.38 443.179 593.157L444.271 585.242C431.164 587.874 430.883 587.437 418.078 585.218L419.47 591.142Z" fill="#DC908D"/>
<path fill-rule="evenodd" clip-rule="evenodd" d="M498.994 557.439L499.947 564.148L534.025 561.679C533.158 557.155 531.97 560.048 528.075 558.516L527.133 551.901L527.615 558.435L527.38 558.946L498.994 557.439Z" fill="#233B58"/>
<path fill-rule="evenodd" clip-rule="evenodd" d="M190.364 613.89C191.32 618.313 192.725 623.701 190.099 627.702L188.72 630.577L204.338 626.942L196.908 612.616L190.364 613.89Z" fill="#6D96AA"/>
<path fill-rule="evenodd" clip-rule="evenodd" d="M387.211 342.968L386.922 345.514C387.869 345.121 391.306 344.69 392.59 344.47C403.526 342.598 405.569 339.067 407.586 338.859L390.046 333.817L387.211 342.968Z" fill="#192943"/>
<path d="M439.654 354.508L475.409 352.02C477.759 354.342 484.373 358.686 481.956 357.492C478.934 356 461.812 360.974 451.237 358.984C440.661 356.995 430.086 358.984 427.064 357.492C424.647 356.298 413.468 356.995 404.907 351.523L439.654 354.508Z" fill="#1F3953"/>
<path fill-rule="evenodd" clip-rule="evenodd" d="M94.5955 646.042L107.428 647.585L106.051 647.304C110.146 643.778 108.735 634.463 104.907 631.981L94.5955 646.042Z" fill="#6D96AD"/>
<path fill-rule="evenodd" clip-rule="evenodd" d="M187.464 627.566C187.915 627.28 188.321 626.995 188.889 626.976C190.941 626.908 189.881 627.028 190.099 627.702C192.725 623.701 191.32 618.313 190.364 613.89C188.443 609.903 188.626 608.031 185.613 603.913L178.735 599.98L175.659 600.593C178.5 604.07 182.05 602.504 185.472 610.754C187.313 615.192 188.61 622.924 187.464 627.566Z" fill="#DC908D"/>
<path fill-rule="evenodd" clip-rule="evenodd" d="M188.72 630.577L185.926 631.659L186.693 631.879L183.817 633.593C187.395 637.501 195.854 632.75 201.343 634.624L203.214 634.388L204.338 626.942L188.72 630.577Z" fill="#6A94AA"/>
<path fill-rule="evenodd" clip-rule="evenodd" d="M423.023 615.894C423.879 617.028 431.606 617.478 433.453 617.591C438.324 617.889 439.753 618.019 440.948 613.389C437.592 613.23 437.229 614.086 434.043 611.948C432.199 610.712 430.746 609.293 429.05 607.98C427.953 608.207 426.983 610.947 426.312 612.01C425.516 613.269 424.247 615.213 423.023 615.894Z" fill="white"/>
<path fill-rule="evenodd" clip-rule="evenodd" d="M148.441 617.955C142.919 619.148 142.472 639.002 150.25 634.456C151.641 632.34 150.237 619.957 148.441 617.955Z" fill="#759BB2"/>
<path fill-rule="evenodd" clip-rule="evenodd" d="M165.301 522.709L164.188 522.851C164.797 527.252 165.573 550.39 164.683 555.428C163.832 560.242 163.548 559.89 161.357 563.486C166.492 563.829 168.549 549.597 168.637 545.771L168.223 527.625C168.171 526.555 168.123 525.468 168.058 524.4C167.961 522.818 168.257 522.352 166.917 522.387C167.51 527.098 168.326 553.458 165.828 555.884C165.551 553.431 166.266 550.337 166.305 547.67C166.347 544.831 166.231 541.902 166.064 539.066C165.755 533.798 165.968 527.847 165.301 522.709Z" fill="#5A8499"/>
<path fill-rule="evenodd" clip-rule="evenodd" d="M125.89 374.132L124.934 375.713L125.949 374.602C126.914 380.329 133.311 396.769 142.771 396.623C139.377 393.391 138.283 397.056 131.7 385.626C130.316 383.225 129.298 381.447 128.154 378.941C127.28 377.02 126.894 375.541 125.89 374.132Z" fill="#B54B28"/>
<path fill-rule="evenodd" clip-rule="evenodd" d="M185.523 338.509C185.523 341.056 191.696 340.6 193.58 340.101C193.58 338.828 193.409 336.519 192.936 334.052C192.592 328.226 194.723 324.909 194.547 324.094C192.85 325.77 191.908 330.466 191.969 332.779C191.969 336.599 192.233 337.991 191.969 338.828C190.965 339.4 187.538 339.253 185.523 338.509Z" fill="#DC908D"/>
<path fill-rule="evenodd" clip-rule="evenodd" d="M490.669 354.332C495.583 355.794 498.847 356.145 502.671 359.243L508.362 355.641C507.175 354.017 508.405 350.607 506.284 349.036C500.915 345.059 481.75 342.308 476.444 342.037C477.104 343.094 482.485 347.039 483.94 348.089C485.823 349.449 489.962 353.941 490.669 354.332Z" fill="#213A55"/>
<path fill-rule="evenodd" clip-rule="evenodd" d="M386.665 347.332L386.454 349.968C389.67 349.925 399.964 349.409 403.073 348.378C406.341 347.296 411.605 342.872 412.739 339.675L409.868 339.142C410.406 340.299 409.393 340.328 408.114 340.996C404.932 342.658 403.509 343.375 399.818 344.593C398.462 345.041 387.72 347.379 386.665 347.332Z" fill="#334C71"/>
<path fill-rule="evenodd" clip-rule="evenodd" d="M64.0628 467.816C73.7846 470.828 79.8102 469.036 75.2928 470.022C64.34 469.036 57.008 473.389 55.9604 475.403C65.0343 473.658 77.8543 470.738 87.1699 471.861C84.6446 472.219 71.0994 476.556 68.3236 482.682C69.3301 482.561 73.4249 480.374 74.6533 479.542C78.9837 476.607 83.7614 474.739 88.8346 473.493C90.4067 473.106 98.5453 471.023 99.1479 470.628C98.2849 470.138 95.87 469.959 94.6359 469.991C93.0318 470.033 89.7394 468.667 88.1897 468.399C85.6473 467.959 65.9757 466.458 64.0628 467.816Z" fill="#E16C35"/>
<path fill-rule="evenodd" clip-rule="evenodd" d="M223.783 505.006L233.201 504.723C230.677 502.506 218.428 496.738 215.007 496.001L214.898 496.428C216.935 497.311 223.446 503.214 223.783 505.006Z" fill="#F9A44A"/>
<path fill-rule="evenodd" clip-rule="evenodd" d="M386.922 345.514L386.665 347.332C387.72 347.379 398.462 345.041 399.818 344.593C403.509 343.375 404.932 342.658 408.114 340.996C409.393 340.328 410.406 340.299 409.868 339.143L407.586 338.859C405.569 339.067 403.526 342.598 392.591 344.47C391.306 344.69 387.869 345.121 386.922 345.514Z" fill="#1F3953"/>
<path fill-rule="evenodd" clip-rule="evenodd" d="M172.6 317.451C173.715 317.903 178.338 316.642 179.931 316.427C183.265 315.978 186.334 316.906 188.714 316.478C193.829 311.872 184.522 312.784 182.28 313.351C179.945 313.943 173.889 315.545 172.6 317.451Z" fill="#334160"/>
<path fill-rule="evenodd" clip-rule="evenodd" d="M187.464 627.566C183.618 629.512 179.704 630.109 175.787 631.427L174.921 633.383L181.736 633.341C182.01 632.259 184.776 632.001 185.926 631.659L188.72 630.577L190.099 627.702C189.881 627.028 190.941 626.908 188.889 626.976C188.322 626.995 187.915 627.28 187.464 627.566Z" fill="#DC908D"/>
<path fill-rule="evenodd" clip-rule="evenodd" d="M152.765 619.074C151.515 620.596 152.179 625.817 152.275 627.896C152.416 630.973 151.417 634.327 154.906 634.341C156.091 632.203 155.837 619.357 152.765 619.074Z" fill="#759BB2"/>
<path fill-rule="evenodd" clip-rule="evenodd" d="M494.274 360.51L498.277 360.736L498.887 360.404C500.504 360.481 501.308 360.031 502.671 359.243C499.223 354.675 495.583 355.794 490.669 354.332L494.274 360.51Z" fill="#213A55"/>
<path fill-rule="evenodd" clip-rule="evenodd" d="M117.541 642.126C121.145 641.008 119.946 638.763 119.584 635.366C119.357 633.241 118.838 629.467 117.534 627.814C114.487 628.514 115.624 631.814 116.051 634.439C116.335 636.181 116.845 640.916 117.541 642.126Z" fill="#759BB2"/>
<path fill-rule="evenodd" clip-rule="evenodd" d="M173.803 633.99L174.921 633.383L175.787 631.427C176.685 625.133 175.28 621.398 171.85 616.255C170.546 614.299 168.825 612.544 166.683 611.485C163.667 609.992 161.621 610.375 158.74 609.561C156.901 609.812 155.345 609.957 153.533 609.538L153.35 609.826C159.168 611.421 164.714 609.518 170.589 616.572C172.197 618.501 174.056 622.198 174.694 624.625C175.164 626.412 175.337 628.082 175.015 629.919C174.793 631.186 173.849 633.249 173.803 633.99Z" fill="#2A4682"/>
<path fill-rule="evenodd" clip-rule="evenodd" d="M190.364 613.89L196.908 612.616C196.485 612.476 192.529 608.643 191.619 607.861C190.009 606.479 187.538 604.977 185.613 603.912C188.626 608.031 188.443 609.903 190.364 613.89Z" fill="#7297AB"/>
<path fill-rule="evenodd" clip-rule="evenodd" d="M214.86 514.832C216.373 515.457 216.836 515.439 218.412 514.887C219.658 514.193 220.482 513.245 220.443 511.694C220.39 509.578 219.062 509.59 217.794 508.742L216.015 508.755C215.025 509.731 213.774 509.579 213.293 511.171C212.793 512.827 213.551 513.988 214.86 514.832Z" fill="#284864"/>
<path fill-rule="evenodd" clip-rule="evenodd" d="M221.862 504.973L223.783 505.006C223.446 503.214 216.935 497.311 214.898 496.428C213.405 495.925 210.342 493.574 209.006 494.155C211.874 495.475 213.777 497.236 215.689 499.416C218.315 502.409 218.191 503.059 221.862 504.973Z" fill="#DC908D"/>
<path fill-rule="evenodd" clip-rule="evenodd" d="M413.029 622.843L414.542 622.936C414.953 621.279 417.273 620.07 418.488 618.929C420.635 616.91 420.333 617.123 423.023 615.894C424.247 615.213 425.516 613.269 426.312 612.01C426.983 610.948 427.953 608.207 429.05 607.98L428.886 607.581C427.974 607.014 428.354 607.684 428.095 605.978L427.204 606.018C424.514 613.064 418.703 618.718 413.029 622.843Z" fill="#233B58"/>
<path fill-rule="evenodd" clip-rule="evenodd" d="M199.777 327.007C196.558 328.357 197.779 333.231 201.091 331.948C203.818 330.891 203.638 325.388 199.777 327.007Z" fill="#232B33"/>
<path fill-rule="evenodd" clip-rule="evenodd" d="M180.559 322.115C177.739 323.637 179.482 328.179 182.694 326.819C185.785 325.511 183.774 320.38 180.559 322.115Z" fill="#2A3036"/>
<path fill-rule="evenodd" clip-rule="evenodd" d="M175.532 343.603C178.057 345.514 181.74 347.869 185.01 348.006C186.076 348.131 189.086 348.372 190.402 347.09C187.44 347.45 185.532 347.085 182.773 346.089C173.179 342.628 175.193 341.8 175.532 343.603Z" fill="#FFFEFC"/>
<path fill-rule="evenodd" clip-rule="evenodd" d="M140.464 619.093C141.877 617.969 143.619 613.429 142.306 611.74C138.854 611.34 139.152 616.919 140.464 619.093Z" fill="#21354D"/>
<path fill-rule="evenodd" clip-rule="evenodd" d="M185.01 348.006C181.74 347.869 178.014 345.036 175.489 343.125C175.575 344.041 176.285 345.465 177.886 346.721C178.297 347.044 178.736 347.4 179.188 347.799C181.589 349.915 186.956 350.214 189.391 348.06C188.777 347.965 188.06 348.7 185.01 348.006Z" fill="#DC908D"/>
<path fill-rule="evenodd" clip-rule="evenodd" d="M151.73 399.751L152.54 397.155C150.448 396.836 148.705 397.249 147.665 399.163L151.329 401.021L151.73 399.751Z" fill="#B2461C"/>
<path fill-rule="evenodd" clip-rule="evenodd" d="M181.265 345.583C184.025 346.578 187.44 347.451 190.402 347.09C191.8 346.668 189.448 346.746 188.812 346.674C187.99 346.58 187.157 346.438 186.331 346.295C180.953 345.367 177.785 342.791 176.2 342.722C176.873 344.097 179.609 344.985 181.265 345.583Z" fill="#DC908D"/>
<path fill-rule="evenodd" clip-rule="evenodd" d="M210.254 504.673L211.028 504.695C210.078 502.366 202.331 496.235 199.48 495.545C200.717 497.149 203.324 498.479 205.044 499.741C207.182 501.31 208.52 503.013 210.254 504.673Z" fill="#DC908D"/>
<path fill-rule="evenodd" clip-rule="evenodd" d="M130.125 639.647L134.214 638.219L132.751 635.466C130.571 635.72 130.429 637.85 130.125 639.647Z" fill="#28445B"/>
<path fill-rule="evenodd" clip-rule="evenodd" d="M427.204 606.018L428.095 605.978C428.354 607.684 427.974 607.014 428.886 607.581C428.964 606.348 429.987 602.874 430.585 602.09L428.819 600.841C428.872 602.57 427.854 604.419 427.204 606.018Z" fill="#243A6D"/>
<path fill-rule="evenodd" clip-rule="evenodd" d="M151.073 546.956C153.442 547.389 153.6 545.38 152.826 543.664C150.263 543.039 149.906 545.244 151.073 546.956Z" fill="#AB4626"/>
<path fill-rule="evenodd" clip-rule="evenodd" d="M498.887 360.404L498.277 360.736L498.644 365.473C497.653 364.107 496.52 361.359 494.958 361.102C495.082 362.258 495.771 362.979 496.537 363.954L499.155 366.452L498.887 360.404Z" fill="#213A55"/>
<path fill-rule="evenodd" clip-rule="evenodd" d="M460.696 342.987C461.97 343.774 466.429 345.49 467.872 345.529C466.601 344.578 465.698 344.522 464.474 342.891L466.187 342.253L460.696 342.987Z" fill="#335474"/>
<path fill-rule="evenodd" clip-rule="evenodd" d="M181.736 633.341L183.817 633.593L186.693 631.879L185.926 631.659C184.776 632.001 182.01 632.259 181.736 633.341Z" fill="#495672"/>
<path fill-rule="evenodd" clip-rule="evenodd" d="M198.874 504.054L199.284 503.863C198.846 503.06 195.031 500.298 194.073 499.745C194.942 501.139 197.271 503.484 198.874 504.054Z" fill="#DC908D"/>
<path fill-rule="evenodd" clip-rule="evenodd" d="M183.346 512.28C184.192 511.613 184.011 509.617 183.811 508.573C182.912 509.272 182.812 511.248 183.346 512.28Z" fill="#D06934"/>
<path fill-rule="evenodd" clip-rule="evenodd" d="M190.01 512.421C190.383 511.759 190.472 511.649 190.523 510.738C190.609 509.22 190.599 509.738 190.023 509.034C189.672 510.227 189.475 511.453 190.01 512.421Z" fill="#AB6437"/>
<path fill-rule="evenodd" clip-rule="evenodd" d="M196.443 512.785C196.947 511.627 196.97 510.253 196.814 509C195.994 509.947 195.857 511.623 196.443 512.785Z" fill="#AB6437"/>
<path fill-rule="evenodd" clip-rule="evenodd" d="M137.851 627.518C138.261 626.659 138.238 625.805 137.772 624.991C137.138 625.85 137.152 626.538 137.851 627.518Z" fill="#284864"/>
<path fill-rule="evenodd" clip-rule="evenodd" d="M472.613 134.595C468.331 140.969 441.461 157.563 433.403 150.591L427.997 144.294L417.441 143.621L393.138 151.792L393.329 152.277C388.227 164.519 386.677 166.271 385.509 180.461C384.608 191.406 384.092 202.281 381.964 213.111L390.346 215.871C390.929 214.816 390.566 215.353 392.077 215.314C395.044 215.237 395.527 219.114 395.416 226.711L401.077 240.807L406.296 241.411C407.314 239.31 435.625 261.467 464.294 250.662L501.36 249.327L499.607 238.493L493.997 216.165C503.266 214.723 527.62 214.157 533.837 206.332C536.073 189.939 533.421 164.521 519.487 153.234C512.617 147.67 505.12 144.937 497.208 141.169C491.502 138.452 478.159 130.339 472.613 134.595Z" fill="#456C91"/>
<path fill-rule="evenodd" clip-rule="evenodd" d="M411.109 276.846C410.203 277.462 403.747 277.735 402.087 277.716C399.53 277.687 395.976 277.552 395.651 274.679L394.734 274.726L392.099 275.379L392.209 275.859L391.018 286.516C388.585 296.797 386.932 306.989 384.329 317.558C382.352 325.585 380.215 342.085 388.785 347.161C395.323 348.113 402.719 352.391 410.517 353.843C414.777 354.635 419.034 355.023 423.363 355.196C426.151 355.307 436.253 354.299 436.107 357.056L436.201 355.406L437.22 355.386L507.462 348.927C510.816 329.485 512.679 307.787 505.273 288.724C486.417 288.141 474.813 286.498 456.797 281.058C449.581 278.878 442.574 276.301 435.159 274.719C425.517 272.661 421.854 277.279 411.109 276.846Z" fill="#456C91"/>
<path fill-rule="evenodd" clip-rule="evenodd" d="M426.688 274.506C426.688 274.506 458.83 286.936 467.854 297.123C476.878 307.31 510.383 316.945 510.383 316.945C510.383 316.945 510.655 311.26 509.397 304.639C508.139 298.018 505.273 288.724 505.273 288.724L459.797 272.609L426.688 274.506Z" fill="#23456D"/>
<path fill-rule="evenodd" clip-rule="evenodd" d="M491.13 201.975C491.13 201.975 492.349 224.537 492.994 231.541C493.638 238.545 490.737 243.639 490.737 243.639C490.737 243.639 467.183 250.495 454.282 251.183C441.382 251.872 507.497 256.055 507.497 256.055L500.084 223.901L493.56 213.772L491.13 201.975Z" fill="#23456D"/>
<path fill-rule="evenodd" clip-rule="evenodd" d="M499.607 238.493C500.295 237.491 499.623 237.776 501.363 237.766C502.359 239.264 505.501 258.196 504.937 259.453L503.242 259.427L501.36 249.327L464.294 250.662C456.433 250.734 437.139 253.201 431.016 249.862C425.682 246.953 428.761 242.848 420.784 242.522C418.022 242.41 407.543 241.483 405.908 239.62L401.077 240.807L402.117 243.691C402.599 243.037 402.42 244.103 402.712 242.739C403.457 243.08 404.415 243.219 405.249 243.508L411.099 246.502L409.738 246.93L399.673 245.738C396.432 245.242 378.91 240.379 379.246 245.565C382.817 242.129 410.881 248.631 410.242 254.568C409.403 254.951 408.096 255.389 407.434 254.698L406.895 255.52C404.203 258.206 395.414 255.983 391.746 255.727L395.94 256.962L396.458 256.783L397.098 261.686L397.326 262.093L397.209 263.123C399.621 263.661 406.963 263.344 408.263 264.445C405.56 266.606 396.105 264.188 392.382 264.511C394.03 270.987 396.444 267.745 398.864 270.423L399.256 270.328C400.254 269.96 405.482 270.674 406.622 271.085C405.785 271.962 406.084 271.658 404.65 271.734L397.892 272.113C396.232 272.159 394.94 272.442 393.389 272.445C391.846 272.448 390.587 271.864 389.131 272.348C390.449 273.37 392.8 273.781 394.577 274.011C398.589 274.905 407.243 276.676 411.11 276.846C421.854 277.279 425.517 272.66 435.159 274.719C442.574 276.301 449.581 278.878 456.798 281.058C474.813 286.498 486.417 288.141 505.273 288.724C528.773 287.31 537.414 288.554 538.337 261.555C538.911 244.751 535.031 223.794 533.837 206.332C527.62 214.157 503.266 214.723 493.997 216.165L499.607 238.493Z" fill="#FDDBCC"/>
<path fill-rule="evenodd" clip-rule="evenodd" d="M351.118 214.801C348.489 219.094 356.456 234.821 358.758 239.714L360.183 240.657L369.619 241.727L369.772 242.085L370.352 245.203C373.769 245.077 375.56 245.925 374.911 250.101L375.228 251.372C377.008 252.281 375.999 254.571 375.334 255.829L376.292 255.717L387.262 255.149C387.107 253.729 387.503 255.005 387.278 254.279C385.509 254.358 383.013 254.621 381.572 253.888C382.755 253.233 382.825 253.563 384.319 253.594C382.539 252.542 380.993 253.416 379.166 251.119C377.776 249.37 377.756 244.94 378.205 245.464L378.653 245.192L379.246 245.565C378.91 240.379 396.432 245.242 399.673 245.738C398.98 243.441 388.418 220.446 386.765 218.438C380.537 210.877 360.529 214.756 351.118 214.801Z" fill="#2C3855"/>
<path fill-rule="evenodd" clip-rule="evenodd" d="M402.393 101.373C405.015 100.18 405.762 104.335 402.586 103.672C401.935 102.537 401.747 102.5 402.393 101.373ZM420.03 98.5014C423.153 98.0355 422.527 101.033 421.41 101.539C419.749 102.292 418.709 100.121 420.03 98.5014ZM430.602 95.0383C428.879 95.5467 423.342 94.1453 421.202 93.8009C419.494 93.5256 412.492 93.2463 415.602 90.0645C417.621 87.9979 422.56 89.4504 425.082 90.2408C427.584 91.0244 431.579 91.9039 430.602 95.0383ZM395.577 86.8307L397.6 94.14C398.938 93.4519 400.423 92.6311 401.993 93.0695C403.579 93.5125 403.901 94.8169 402.938 96.0946C401.335 97.0733 399.733 98.0528 398.13 99.0316C402.446 103.173 401.131 108.168 401.462 111.814C401.806 115.6 404.887 118.242 407.627 120.948C411.539 119.506 413.653 118.11 416.504 116.973C418.849 116.037 420.579 114.623 423.746 113.398C433.75 109.527 435.002 116.057 441.226 114.009C441.696 113.163 444.218 95.091 444.019 94.5631C441.011 86.5814 442.434 71.7402 443.037 63.4488C435.171 68.6122 428.393 71.6793 418.221 73.9546C413.569 74.9954 411.707 78.6863 406.94 78.4118C398.533 77.9279 402.518 82.3615 395.577 86.8307Z" fill="#FDDBCC"/>
<path fill-rule="evenodd" clip-rule="evenodd" d="M432.971 150.813C441.533 158.222 470.806 140.4 475.357 133.627C458.715 132.102 462.455 120.67 456.821 114.538C453.476 128.852 446.877 143.795 432.971 150.813Z" fill="#FDDBCC"/>
<path fill-rule="evenodd" clip-rule="evenodd" d="M370.195 272.693L374.498 272.089L371.663 264.168C369.42 264.553 367.774 265.042 365.686 264.651C365.336 263.826 365.331 263.937 364.719 262.741C368.87 261.7 371.965 259.612 375.091 256.969L375.039 255.924C371.778 257.933 362.398 263.756 361.949 255.816C365.195 255.701 374.412 254.963 375.355 252.553L375.027 249.059C370.867 251.13 358.665 257.758 358.01 247.876L367.321 246.608L367.269 245.965L358.274 245.549L357.307 243.002L357.5 242.525L360.183 240.657L358.758 239.714C355.305 239.596 348.688 239.256 353.216 245.514C355.422 248.562 353.715 252.184 356.371 257.056C362.515 268.324 361.795 265.048 370.195 272.693Z" fill="#986766"/>
<path fill-rule="evenodd" clip-rule="evenodd" d="M427.947 143.933L432.971 150.813C446.877 143.795 453.8 129.222 457.146 114.908L455.444 110.633C452.429 120.122 452.46 123.091 445.48 131.051C443.121 133.74 440.39 136.302 437.448 138.347C435.989 139.362 428.226 143.23 427.947 143.933Z" fill="#DC908D"/>
<path fill-rule="evenodd" clip-rule="evenodd" d="M452.492 95.9825C450.836 93.9189 455.214 87.4267 457.192 86.6149C456.983 88.0689 455.445 89.7226 454.65 91.0876C453.842 92.4739 453.329 95.2715 452.492 95.9825ZM453.961 105.755C458.528 102.596 460.317 101.429 461.58 95.5279C463.372 87.1451 461.105 87.6986 457.326 82.7811C447.464 81.6948 447.793 105.457 453.961 105.755Z" fill="#FDDBCC"/>
<path fill-rule="evenodd" clip-rule="evenodd" d="M351.117 214.8C360.529 214.756 383.09 214.668 386.765 218.438C388.418 220.446 398.98 243.441 399.673 245.738L409.738 246.93C408.564 246.446 406.572 246.758 405.156 246.157C403.871 245.612 402.852 244.011 402.117 243.691L401.077 240.807L395.415 226.711C393.665 223.334 391.912 216.982 389.536 214.032L381.964 213.111C377.62 212.693 352.763 211.973 351.117 214.8Z" fill="#242B44"/>
<path fill-rule="evenodd" clip-rule="evenodd" d="M369.409 244.983L368.853 246.364C367.789 245.819 368.047 246.121 367.854 244.896L369.409 244.983ZM374.91 250.101C375.56 245.925 373.769 245.077 370.352 245.203L369.772 242.085L369.619 241.727L360.183 240.657L355.882 242.131L355.689 242.608L357.109 245.99L367.269 245.965L367.321 246.608L357.297 247.973C357.952 257.855 370.751 252.172 374.91 250.101Z" fill="#DC908D"/>
<path fill-rule="evenodd" clip-rule="evenodd" d="M370.195 272.693C373.157 279.253 383.247 286.543 391.018 286.516L392.209 275.859C384.197 276.094 379.602 278.13 374.498 272.089L370.195 272.693Z" fill="#DC908D"/>
<path fill-rule="evenodd" clip-rule="evenodd" d="M371.663 264.168L374.498 272.089C379.602 278.13 384.197 276.094 392.209 275.859L392.099 275.379C387.851 274.628 386.405 272.97 382.996 270.241C379.702 267.604 378.502 264.852 377.949 260.569L375.616 259.012C375.523 258.94 374.611 258.939 375.043 258.005C375.285 262.353 374.85 261.948 371.663 264.168Z" fill="#273658"/>
<path fill-rule="evenodd" clip-rule="evenodd" d="M496.233 344.227C501.397 340.775 480.562 344.579 480.366 344.627C468.209 347.593 458.253 351.162 445.175 349.88C442.685 349.636 429.283 346.705 428.264 347.412C422.677 351.285 458.088 351.59 461.942 350.953C467.632 350.012 472.951 348.25 478.524 346.958C480.811 346.427 495.828 344.497 496.233 344.227Z" fill="#23456D"/>
<path fill-rule="evenodd" clip-rule="evenodd" d="M379.246 245.565C380.6 248.41 402.424 252.674 406.609 253.253L410.242 254.568C410.881 248.631 382.817 242.129 379.246 245.565Z" fill="#DC908D"/>
<path fill-rule="evenodd" clip-rule="evenodd" d="M376.292 255.717C375.813 257.278 375.616 257.18 375.616 259.012L377.949 260.569L378.586 260.618C385.144 260.902 390.484 261.011 397.098 261.686L396.458 256.783L395.94 256.962L391.746 255.727L387.262 255.149L376.292 255.717Z" fill="#DC908D"/>
<path fill-rule="evenodd" clip-rule="evenodd" d="M384.392 254.389C387.52 254.312 392.248 254.336 395.644 254.571C397.701 254.713 399.401 254.72 401.449 254.721C402.867 254.722 405.929 254.269 406.885 254.509L406.609 253.253C402.424 252.674 380.6 248.41 379.246 245.565L378.653 245.192L378.205 245.464C377.756 244.94 377.188 249.212 378.578 250.961C380.405 253.258 382.613 253.338 384.392 254.389Z" fill="#1B293C"/>
<path fill-rule="evenodd" clip-rule="evenodd" d="M430.151 114.596C428.927 119.423 420.565 124.456 415.755 122.076L412.543 121.077C412.764 127.376 422.487 128.538 427.199 126.525C432.406 124.302 436.121 114.924 430.518 114.156L430.151 114.596Z" fill="#FDDBCC"/>
<path fill-rule="evenodd" clip-rule="evenodd" d="M392.448 215.327L395.581 215.522C395.655 207.12 395.229 198.682 395.17 190.258C395.143 186.373 399.085 165.329 398.56 163.413C394.048 171.69 392.804 184.697 392.759 186.971C392.492 200.369 391.827 202.541 392.448 215.327Z" fill="#23456D"/>
<path fill-rule="evenodd" clip-rule="evenodd" d="M488.395 156.249C486.66 156.172 486.783 158.091 486.527 159.709C485.693 164.975 485.241 170.615 485.372 175.923C484.613 185.38 492.069 215.467 493.997 216.165C494.287 217.233 523.082 213.322 525.545 210.53C526.907 208.985 506.32 217.054 499.762 210.848C493.16 204.602 489.502 190.483 489.448 190.155C488.872 186.636 487.303 180.76 487.131 177.204C486.958 173.639 487.085 169.61 487.46 166.056C487.649 164.264 489.137 157.241 488.395 156.249Z" fill="#23456D"/>
<path fill-rule="evenodd" clip-rule="evenodd" d="M375.039 255.924L375.334 255.829C375.999 254.571 377.008 252.281 375.228 251.372C374.284 253.782 363.748 254.69 361.151 255.852C361.601 263.791 371.779 257.933 375.039 255.924Z" fill="#DC908D"/>
<path fill-rule="evenodd" clip-rule="evenodd" d="M398.864 270.423C396.444 267.745 394.03 270.987 392.382 264.511C391.071 264.188 389.217 264.189 387.814 264.063C386.442 263.941 384.234 264.22 383.72 262.909L380.865 262.275C379.472 267.22 395 269.983 398.864 270.423Z" fill="#DC908D"/>
<path fill-rule="evenodd" clip-rule="evenodd" d="M392.099 275.379L394.734 274.726L394.577 274.012C392.8 273.781 390.449 273.37 389.131 272.348C387.071 272.086 385.496 270.389 385.278 268.259C389.569 269.276 394.659 271.002 399.197 271.076L399.256 270.328L398.864 270.423C395 269.983 379.472 267.22 380.865 262.275C379.975 260.836 380.755 260.952 380.815 261.255C379.591 261.194 379.577 261.331 378.586 260.618L377.289 260.512C377.841 264.795 378.829 268.062 382.123 270.699C385.533 273.429 387.851 274.627 392.099 275.379Z" fill="#1D293A"/>
<path fill-rule="evenodd" clip-rule="evenodd" d="M430.602 95.0383C431.579 91.9038 427.583 91.0243 425.082 90.2407C422.56 89.4504 417.621 87.9978 415.602 90.0644C412.492 93.2462 419.494 93.5256 421.202 93.8008C423.342 94.1453 428.879 95.5466 430.602 95.0383Z" fill="#4E3951"/>
<path fill-rule="evenodd" clip-rule="evenodd" d="M371.663 264.167C374.85 261.948 375.285 262.353 375.043 258.005L375.091 256.969C371.965 259.612 367.846 260.564 363.695 261.604C364.307 262.8 364.651 264.545 365.001 265.37C367.089 265.761 369.42 264.553 371.663 264.167Z" fill="#DC908D"/>
<path fill-rule="evenodd" clip-rule="evenodd" d="M499.607 238.493L501.36 249.327L503.242 259.428L504.937 259.453C505.501 258.196 502.359 239.264 501.363 237.766C499.623 237.776 500.295 237.491 499.607 238.493Z" fill="#DC908D"/>
<path fill-rule="evenodd" clip-rule="evenodd" d="M387.262 255.149L391.746 255.727C395.414 255.983 404.203 258.206 406.895 255.52L406.885 254.509C405.929 254.269 402.867 254.722 401.449 254.721C399.401 254.72 397.701 254.713 395.644 254.571C392.248 254.336 387.447 253.516 384.319 253.594C382.825 253.563 382.755 253.233 381.572 253.888C383.013 254.621 385.509 254.358 387.278 254.279C387.503 255.005 387.107 253.729 387.262 255.149Z" fill="#23456D"/>
<path fill-rule="evenodd" clip-rule="evenodd" d="M389.131 272.348C390.587 271.864 391.846 272.448 393.389 272.445C394.94 272.442 396.232 272.159 397.892 272.113L404.65 271.734C406.084 271.658 405.785 271.962 406.622 271.085C405.482 270.674 400.254 269.96 399.256 270.328L399.197 271.076C394.659 271.002 389.569 269.276 385.278 268.259C385.496 270.389 387.071 272.086 389.131 272.348Z" fill="#DC908D"/>
<path fill-rule="evenodd" clip-rule="evenodd" d="M380.865 262.275L383.72 262.909C389.449 263.625 391.819 264.449 397.326 262.093L397.098 261.686C390.484 261.011 385.144 260.902 378.586 260.618C379.578 261.331 379.591 261.194 380.815 261.255C380.755 260.952 379.975 260.836 380.865 262.275Z" fill="#273658"/>
<path fill-rule="evenodd" clip-rule="evenodd" d="M412.579 121.277L415.755 122.076C418.503 121.852 421.717 120.692 424.048 119.351C426.443 117.972 428.432 115.572 430.151 114.596L430.518 114.156C425.675 114.704 422.891 117.896 417.366 119.534C415.748 120.013 414.042 120.204 412.508 120.876L412.579 121.277Z" fill="#FBF7F5"/>
<path fill-rule="evenodd" clip-rule="evenodd" d="M383.719 262.909C384.234 264.22 386.442 263.941 387.814 264.063C389.217 264.189 391.071 264.188 392.382 264.511C396.105 264.188 405.56 266.606 408.262 264.445C406.963 263.344 399.621 263.661 397.209 263.123L397.326 262.093C391.819 264.449 389.449 263.625 383.719 262.909Z" fill="#DC908D"/>
<path fill-rule="evenodd" clip-rule="evenodd" d="M395.416 226.711L395.581 215.522L394.049 215.461C393.552 215.435 392.486 215.304 392.077 215.314C390.566 215.352 390.929 214.816 390.346 215.871C392.721 218.821 393.665 223.334 395.416 226.711Z" fill="#FDDBCC"/>
<path fill-rule="evenodd" clip-rule="evenodd" d="M394.734 274.726L395.651 274.679C395.976 277.552 399.53 277.687 402.087 277.716C403.747 277.735 410.204 277.462 411.11 276.846C407.243 276.676 398.589 274.905 394.577 274.012L394.734 274.726Z" fill="#23456D"/>
<path fill-rule="evenodd" clip-rule="evenodd" d="M397.6 94.14C394.89 95.9227 397.168 97.5613 398.13 99.0316C398.48 97.3786 398.402 97.0237 401.079 95.9483C403.189 95.1007 402.669 95.8621 402.938 96.0945C403.901 94.8168 403.579 93.5124 401.993 93.0695C400.423 92.6311 398.938 93.4519 397.6 94.14Z" fill="#4E3951"/>
<path fill-rule="evenodd" clip-rule="evenodd" d="M415.755 122.076C420.565 124.456 428.926 119.423 430.151 114.596C428.432 115.572 426.443 117.972 424.048 119.351C421.717 120.693 418.503 121.852 415.755 122.076Z" fill="#4E3951"/>
<path fill-rule="evenodd" clip-rule="evenodd" d="M402.117 243.691C402.852 244.011 403.871 245.612 405.156 246.157C406.572 246.758 408.564 246.446 409.738 246.93L411.099 246.502L405.249 243.508C404.415 243.219 403.457 243.08 402.712 242.739C402.42 244.104 402.598 243.038 402.117 243.691Z" fill="#DC908D"/>
<path fill-rule="evenodd" clip-rule="evenodd" d="M452.492 95.9825C453.329 95.2714 453.842 92.4739 454.65 91.0875C455.445 89.7226 456.983 88.0689 457.192 86.6149C455.214 87.4267 450.836 93.9189 452.492 95.9825Z" fill="#DC908D"/>
<path fill-rule="evenodd" clip-rule="evenodd" d="M420.03 98.5014C418.709 100.12 419.749 102.292 421.41 101.539C422.527 101.033 423.153 98.0355 420.03 98.5014Z" fill="#192437"/>
<path fill-rule="evenodd" clip-rule="evenodd" d="M398.13 99.0316L402.938 96.0945C402.669 95.8622 403.189 95.1007 401.079 95.9483C398.402 97.0237 398.48 97.3786 398.13 99.0316Z" fill="#4E3951"/>
<path fill-rule="evenodd" clip-rule="evenodd" d="M402.393 101.373C401.747 102.5 401.935 102.537 402.586 103.672C405.762 104.335 405.015 100.18 402.393 101.373Z" fill="#171D37"/>
<path fill-rule="evenodd" clip-rule="evenodd" d="M406.884 254.509L406.895 255.52L407.434 254.698C408.096 255.389 409.403 254.951 410.242 254.568L406.609 253.253L406.884 254.509Z" fill="#DC908D"/>
<path fill-rule="evenodd" clip-rule="evenodd" d="M375.091 256.969L375.043 258.005C374.611 258.939 375.523 258.939 375.616 259.012C375.616 257.18 375.813 257.277 376.292 255.717L375.334 255.829L375.039 255.924L375.091 256.969Z" fill="#656267"/>
<path fill-rule="evenodd" clip-rule="evenodd" d="M368.853 246.364L369.409 244.983L367.854 244.896C368.048 246.121 367.789 245.819 368.853 246.364Z" fill="#31496C"/>
<path fill-rule="evenodd" clip-rule="evenodd" d="M411.736 102.004C413.106 102.342 414.435 107.805 416.147 108.82C417.859 109.835 420.536 112.593 419.271 112.854L414.474 113.844L411.359 113.552L410.366 109.77V103.014L411.736 102.004Z" fill="#DC908D"/>
<path fill-rule="evenodd" clip-rule="evenodd" d="M443.929 92.1934C439.477 91.5166 433.655 97.2681 433.655 97.2681L430.23 108.432C430.23 108.432 429.545 111.138 431.943 113.506C434.34 115.874 444.272 116.551 444.272 116.551L443.929 92.1934Z" fill="#DC908D"/>
<path fill-rule="evenodd" clip-rule="evenodd" d="M412.764 122.312L412.508 120.876C414.042 120.204 416.452 118.873 417.216 117.566C424.042 119.372 426.072 115.745 430.915 115.197C433.043 115.76 430.252 124.216 424.463 122.301C421.38 126.022 415.499 125.013 412.764 122.312ZM395.577 86.8307C402.518 82.3615 397.998 85.5598 403.073 89.2357C402.106 83.8234 406.618 81.277 415.964 87.3256C417.898 82.2321 429.047 78.8002 436.914 73.6365C436.311 81.9283 441.011 86.5814 444.019 94.563C444.218 95.091 441.696 113.163 441.226 114.009C435.001 116.057 434.412 109.297 424.408 113.167C421.241 114.393 417.819 113.822 415.474 114.758C412.623 115.895 411.539 118.491 407.627 119.933C404.236 122.53 414.353 142.242 417.381 144.11L428.598 144.826C428.877 144.123 438.018 139.216 439.477 138.201C442.419 136.156 443.121 133.74 445.48 131.051C452.46 123.091 452.429 120.122 455.444 110.633L453.961 105.755C447.792 105.457 447.464 81.6948 457.326 82.7811C458.272 78.8905 458.526 76.1561 458.656 72.2339C458.915 64.4384 456.923 63.3931 454.719 60.0083C453.947 55.0848 453.244 51.225 448.381 47.2002C442.904 42.6662 441.062 44.5105 437.422 45.5089C434.473 44.805 434.462 40.3398 429.16 40.0962C425.778 36.7132 405.021 44.55 401.462 45.5089C418.929 50.9219 410.141 47.6826 401.804 50.5835C392.267 52.3245 381.27 66.211 382.298 80.0809C381.567 87.2737 387.778 95.4974 389.133 90.5017C390.789 84.3979 392.285 88.7706 395.577 86.8307Z" fill="#334160"/>
<path fill-rule="evenodd" clip-rule="evenodd" d="M419.271 113.167C416.341 111.98 411.138 116.958 410.787 110.162C410.677 108.04 411.623 99.5504 410.012 98.3528C408.891 99.1511 409.699 101.948 409.741 103.337C409.894 108.294 408.271 112.88 411.394 114.859C412.748 115.716 417.968 114.373 419.271 113.167Z" fill="#B87D7B"/>
<path fill-rule="evenodd" clip-rule="evenodd" d="M541.742 627.551L506.13 626.705L504.617 626.613L477.627 625.325L472.061 626.09C460.4 629.578 477.257 638.669 492.727 638.988C499.379 639.508 523.516 635.849 530.172 636.363C533.104 636.589 537.329 637.281 539.667 635.377C541.64 633.77 542.871 629.779 541.742 627.551Z" fill="#F4F4F4"/>
<path fill-rule="evenodd" clip-rule="evenodd" d="M477.627 625.325C480.856 636.237 509.773 633.412 518.793 609.787C519.442 608.188 520.46 606.339 520.408 604.61L512.016 600.366C508.491 601.291 507.595 606.187 505.63 609.073C503.768 611.808 501.018 614.596 498.155 616.324C493.22 619.304 483.796 622.302 477.627 625.325Z" fill="#2D4D92"/>
<path fill-rule="evenodd" clip-rule="evenodd" d="M520.474 611.351L520.638 611.75C522.335 613.062 523.788 614.481 525.631 615.718C528.818 617.855 529.18 617 532.536 617.159C531.341 621.788 529.912 621.659 525.041 621.361C523.194 621.247 515.467 620.798 514.611 619.663C511.921 620.892 512.223 620.68 510.076 622.698C508.861 623.84 498.972 628.075 498.561 629.732C504.023 632.182 514.603 631.74 522.378 631.347C528.996 631.014 537.849 629.437 541.742 627.552L535.274 605.828C528.684 611.841 528.761 608.093 522.173 605.859C521.575 606.643 520.552 610.117 520.474 611.351Z" fill="#314D92"/>
<path fill-rule="evenodd" clip-rule="evenodd" d="M514.611 619.663C515.467 620.798 523.194 621.247 525.041 621.361C529.912 621.659 531.341 621.789 532.536 617.159C529.18 617 528.818 617.855 525.631 615.718C523.788 614.481 522.335 613.062 520.638 611.75C519.541 611.977 518.571 614.717 517.9 615.78C517.104 617.039 515.835 618.982 514.611 619.663Z" fill="white"/>
<path fill-rule="evenodd" clip-rule="evenodd" d="M504.617 626.612L506.13 626.705C506.541 625.048 508.861 623.84 510.076 622.698C512.223 620.68 511.921 620.892 514.611 619.663C515.836 618.982 517.104 617.038 517.9 615.78C518.571 614.717 519.541 611.977 520.638 611.749L520.474 611.35C519.563 610.783 519.942 611.454 519.684 609.747L518.793 609.787C516.102 616.833 510.291 622.487 504.617 626.612Z" fill="#233B58"/>
<path fill-rule="evenodd" clip-rule="evenodd" d="M518.792 609.787L519.684 609.747C519.942 611.454 519.563 610.783 520.474 611.351C520.552 610.117 521.575 606.643 522.173 605.859L520.408 604.61C520.46 606.339 519.442 608.188 518.792 609.787Z" fill="#243A6D"/>
<path fill-rule="evenodd" clip-rule="evenodd" d="M401.4 109.86C401.4 109.86 405.006 109.292 405.329 110.247C405.651 111.202 406.483 115.018 407.585 117.251C408.687 119.485 409.146 119.769 408.6 119.526C408.054 119.283 407.585 121.39 405.634 118.991C403.719 116.878 402.773 115.545 401.597 112.708L401.4 109.86Z" fill="#DC908D"/>
<path d="M127.188 580.779C127.188 580.779 194.225 573.139 202.282 566.772C210.34 560.405 286.402 537.483 290.269 537.483C294.137 537.483 331.523 537.164 305.739 549.58C279.956 561.996 237.091 579.187 229.033 585.873C220.976 592.558 209.923 597.743 209.923 597.743" stroke="#496695" stroke-width="0.320126" stroke-miterlimit="22.9256" stroke-dasharray="0.64 0.96"/>
<path fill-rule="evenodd" clip-rule="evenodd" d="M167.885 330.208C167.241 326.747 169.815 326.015 172.678 327.141C174.988 328.051 180.524 331.353 176.332 333.918C175.25 334.58 173.968 334.758 172.575 334.491C170.11 334.018 168.326 332.581 167.885 330.208Z" fill="#DC908D"/>
<path fill-rule="evenodd" clip-rule="evenodd" d="M201.022 337.097C201.022 336.6 200.863 336.468 198 337.595C195.689 338.504 193.468 341.574 195.482 343.564C196.564 344.226 196.607 344.329 198 344.061C198 344.061 200.015 339.087 201.022 337.097Z" fill="#DC908D"/>
</svg>
