<svg width="24" height="24" viewBox="0 0 24 24" fill="none" xmlns="http://www.w3.org/2000/svg">
<g clip-path="url(#clip0_357_4013)">
<path d="M12 5.85518V3.54938L11.8732 3.16553C11.001 2.25489 9.08364 0.860107 6.23645 0.860107C5.59862 0.860107 5.02226 1.11755 4.60729 1.53636C4.18847 1.95134 3.93103 2.52769 3.93103 3.16553C3.93103 3.80336 4.18847 4.37971 4.60729 4.79469C5.02226 5.21351 5.59862 5.47094 6.23645 5.47094V5.85518H12ZM5.46798 3.16553C5.46798 2.74287 5.80995 2.39705 6.23645 2.39705C8.24601 2.39705 9.7061 3.25006 10.463 3.934H6.23645C5.80995 3.934 5.46798 3.58819 5.46798 3.16553Z" fill="#FFAF45"/>
<path d="M17.7636 5.85518V5.47094C18.4014 5.47094 18.9778 5.21351 19.3928 4.79469C19.8116 4.37971 20.069 3.80336 20.069 3.16553C20.069 2.52769 19.8116 1.95134 19.3928 1.53636C18.9778 1.11755 18.4014 0.860107 17.7636 0.860107C14.9164 0.860107 12.9991 2.25489 12.1269 3.16553L12.0001 3.54938V5.85518H17.7636ZM17.7636 3.934H13.537C14.294 3.25006 15.7541 2.39705 17.7636 2.39705C18.1901 2.39705 18.5321 2.74287 18.5321 3.16553C18.5321 3.58819 18.1901 3.934 17.7636 3.934Z" fill="#FFAF45"/>
<path d="M10.4631 5.85518V3.934C10.4631 3.50942 10.807 3.16553 11.2316 3.16553H12.7686C13.1931 3.16553 13.537 3.50942 13.537 3.934V5.85518H10.4631Z" fill="#EF943A"/>
<path d="M1.62567 8.16064H22.3744V22.3774C22.3744 22.8016 22.0302 23.1459 21.606 23.1459H2.39414C1.96995 23.1459 1.62567 22.8016 1.62567 22.3774V8.16064Z" fill="#E22933"/>
<path d="M22.3744 5.47089H1.62565C1.20123 5.47089 0.857178 5.81494 0.857178 6.23936V8.54478C0.857178 8.96919 1.20123 9.31325 1.62565 9.31325H22.3744C22.7988 9.31325 23.1429 8.96919 23.1429 8.54478V6.23936C23.1429 5.81494 22.7988 5.47089 22.3744 5.47089Z" fill="#FC4444"/>
<path d="M14.6898 9.31331V23.1458H9.31049V9.31331L9.69472 8.92908H14.3056L14.6898 9.31331Z" fill="#FFAF45"/>
<path d="M9.31049 5.47089H14.6898V9.31325H9.31049V5.47089Z" fill="#FFC95C"/>
</g>
<defs>
<clipPath id="clip0_357_4013">
<rect width="24" height="24" fill="white" transform="translate(0 0.000976562)"/>
</clipPath>
</defs>
</svg>
