<svg width="100%" height="100%" viewBox="0 0 52 52" fill="none" xmlns="http://www.w3.org/2000/svg">
<g clip-path="url(#clip0_422_1785)">
<path d="M26 0.00280762C19.1059 0.00280762 12.4881 2.74378 7.61719 7.61796C2.74219 12.4922 0 19.11 0 26.0028C0 32.8957 2.74219 39.5135 7.61719 44.3876C12.4881 49.2618 19.1059 52.0028 26 52.0028C32.8941 52.0028 39.5119 49.2618 44.3828 44.3876C49.2578 39.5135 52 32.8957 52 26.0028C52 19.11 49.2578 12.4922 44.3828 7.61796C39.5119 2.74378 32.8941 0.00280762 26 0.00280762Z" fill="url(#paint0_linear_422_1785)"/>
<path d="M11.7691 25.7281C19.3497 22.4261 24.4035 20.249 26.9303 19.1972C34.1535 16.1938 35.6525 15.6722 36.6316 15.6546C36.8469 15.6511 37.3263 15.7043 37.6391 15.9574C37.8991 16.1707 37.9722 16.4591 38.0088 16.6614C38.0413 16.8637 38.086 17.3248 38.0494 17.6848C37.6594 21.796 35.9653 31.7727 35.1041 36.3776C34.7425 38.326 34.0235 38.9793 33.3288 39.043C31.8175 39.182 30.6719 38.0453 29.2094 37.0869C26.9222 35.5866 25.6303 34.653 23.4081 33.1893C20.8406 31.4977 22.5063 30.5678 23.9688 29.0484C24.3506 28.6507 31.005 22.5996 31.131 22.0507C31.1472 21.9821 31.1635 21.7262 31.0091 21.5913C30.8588 21.456 30.6353 21.5023 30.4728 21.5389C30.2413 21.5909 26.5891 24.0072 19.5041 28.7876C18.4681 29.5002 17.5297 29.8475 16.6847 29.8292C15.7585 29.8093 13.971 29.3043 12.6425 28.8729C11.0175 28.3436 9.72158 28.0637 9.83533 27.1646C9.8922 26.6966 10.5381 26.2177 11.7691 25.7281Z" fill="white"/>
</g>
<defs>
<linearGradient id="paint0_linear_422_1785" x1="2600" y1="0.00280762" x2="2600" y2="5200" gradientUnits="userSpaceOnUse">
<stop stop-color="#2AABEE"/>
<stop offset="1" stop-color="#229ED9"/>
</linearGradient>
<clipPath id="clip0_422_1785">
<rect width="52" height="52" fill="white" transform="translate(0 0.000976562)"/>
</clipPath>
</defs>
</svg>
