<svg width="52" height="52" viewBox="0 0 52 52" fill="none" xmlns="http://www.w3.org/2000/svg">
<g clip-path="url(#clip0_422_1786)">
<path d="M23.4624 50.7446C20.5608 50.5574 17.5448 49.7046 14.8616 48.311C12.324 46.9798 12.3032 46.9798 11.8768 47.0942C11.6688 47.1462 10.9512 47.3438 10.296 47.531C8.49684 48.0302 6.79124 48.467 6.03204 48.623C5.65764 48.7062 5.08564 48.8622 4.76324 48.9766C4.43044 49.1014 4.04563 49.195 3.91043 49.195C3.76484 49.195 3.53604 49.2366 3.39043 49.299C3.16163 49.3822 3.09924 49.3614 2.95363 49.143C2.80803 48.9142 2.80803 48.831 3.00564 48.0822C3.12003 47.635 3.24483 47.1566 3.28644 47.011C3.39043 46.5742 3.80644 45.087 4.42004 42.9238C5.22084 40.1262 5.22084 40.095 4.31604 38.587C2.81843 36.0598 1.70563 33.283 1.18563 30.787C0.665635 28.2702 0.624035 24.2038 1.09203 21.687C1.34163 20.3142 2.22563 17.1838 2.67283 16.0814C3.81684 13.263 5.55364 10.6838 7.90404 8.3126C9.95284 6.25341 12.2616 4.5894 14.8096 3.331C17.2328 2.135 18.9904 1.563 21.892 1.0326C23.4416 0.751805 26.78 0.647805 28.3816 0.824605C30.264 1.043 33.5192 1.7918 34.5696 2.239C34.7464 2.3118 35.2664 2.5302 35.724 2.7278C37.544 3.4766 39.6656 4.77661 41.444 6.2118C47.06 10.7358 50.3984 17.267 50.8456 24.599C51.1784 30.0174 49.8784 35.0302 47.008 39.3254C44.2728 43.4126 40.9968 46.3558 36.972 48.311C32.6144 50.4326 28.9432 51.0878 23.4624 50.7446Z" fill="#02E677"/>
<path d="M33.02 39.8766C32.9056 39.8558 32.5416 39.7622 32.2088 39.6686C31.8864 39.5854 31.356 39.471 31.044 39.419C30.732 39.367 30.3264 39.2526 30.1392 39.1694C29.952 39.0862 29.5672 38.9614 29.276 38.8886C28.9952 38.8262 28.6624 38.7118 28.548 38.639C28.4336 38.5766 28.1528 38.4518 27.924 38.379C27.6952 38.3062 27.3 38.1398 27.04 38.0046C26.78 37.8694 26.4992 37.755 26.3952 37.755C26.3016 37.755 26.1456 37.6822 26.052 37.5886C25.9584 37.495 25.7296 37.3598 25.5528 37.2974C25.272 37.1934 24.5856 36.8398 24.024 36.4966C23.9408 36.4446 23.7016 36.3094 23.4936 36.2054C23.296 36.091 23.0672 35.9246 22.9944 35.8414C22.9112 35.7478 22.7864 35.675 22.7136 35.675C22.6304 35.675 22.4848 35.5918 22.3808 35.4982C22.2768 35.3942 21.9128 35.1238 21.5696 34.895C20.5816 34.2398 19.8328 33.5742 17.784 31.515C15.5064 29.2478 14.4248 27.9894 13.5096 26.575C13.364 26.3462 13.156 26.0238 13.0416 25.8574C12.48 25.0254 11.44 23.0598 11.44 22.8414C11.44 22.7582 11.3672 22.6438 11.284 22.571C11.2008 22.4982 11.0968 22.2798 11.0656 22.0614C11.024 21.8534 10.8784 21.3854 10.7328 21.011C10.504 20.3974 10.4728 20.1894 10.4728 18.723C10.4624 17.163 10.4832 17.0798 10.8056 16.123C10.9928 15.5822 11.2112 15.0622 11.2944 14.9686C11.3776 14.8854 11.44 14.771 11.44 14.719C11.44 14.5526 12.3864 13.211 12.8336 12.743C13.2184 12.3374 13.4992 12.1398 14.352 11.6822C14.7264 11.4846 16.8688 11.495 17.2536 11.703C17.6488 11.9006 18.0232 12.3582 18.2936 12.9718C18.4288 13.2422 18.6368 13.7102 18.772 13.991C18.9072 14.2822 19.136 14.771 19.2816 15.083C19.4272 15.395 19.552 15.7174 19.552 15.7902C19.552 15.863 19.6456 16.1022 19.76 16.3102C20.2904 17.3086 20.5296 18.047 20.5712 18.9102C20.6024 19.7734 20.6024 19.7838 20.2072 20.3662C19.9888 20.6886 19.7288 21.0318 19.6352 21.1358C19.5312 21.2398 19.448 21.3542 19.448 21.4062C19.448 21.4478 19.24 21.7078 18.98 21.9782C17.992 23.0078 18.044 23.6942 19.24 25.431C20.3528 27.0326 21.8192 28.6134 23.2856 29.799C23.7016 30.1422 24.1592 30.527 24.3048 30.6622C24.44 30.787 24.596 30.891 24.6376 30.891C24.6792 30.891 24.804 30.9846 24.8976 31.0886C25.0016 31.203 25.2304 31.3486 25.4072 31.4214C25.5944 31.4942 25.8128 31.6086 25.896 31.6814C26.1144 31.8582 27.352 32.5134 27.664 32.607C27.8096 32.6486 27.9864 32.7318 28.0592 32.7942C28.1424 32.8566 28.5064 33.0126 28.8808 33.1478C29.5152 33.3662 29.5672 33.3662 29.8272 33.2102C30.1392 33.023 31.4704 31.6606 32.1568 30.8286C32.8224 30.0382 33.176 29.8198 33.8416 29.8302C34.2576 29.8302 34.5488 29.9134 34.996 30.1526C35.3288 30.3294 35.6512 30.475 35.724 30.475C35.7968 30.475 35.9112 30.5478 35.984 30.631C36.0568 30.7246 36.3168 30.839 36.5664 30.9014C36.816 30.9638 37.076 31.0782 37.1384 31.1614C37.2008 31.2446 37.4504 31.359 37.6896 31.4214C37.9184 31.4838 38.2304 31.619 38.376 31.723C38.5216 31.827 38.7816 31.9414 38.9688 31.9726C39.156 32.0142 39.4056 32.1286 39.5408 32.2326C39.676 32.3366 39.9256 32.451 40.092 32.4926C40.2688 32.5342 40.5288 32.6902 40.6952 32.8462C40.9448 33.0854 40.976 33.1894 40.976 33.803C40.976 34.271 40.8928 34.7286 40.716 35.2382C40.5704 35.6438 40.456 36.0494 40.456 36.1326C40.456 36.3822 39.5928 37.3598 38.7816 38.0254C37.3776 39.1798 35.8072 39.8142 34.1744 39.887C33.6544 39.9078 33.1344 39.9078 33.02 39.8766Z" fill="#F6FEFA"/>
</g>
<defs>
<clipPath id="clip0_422_1786">
<rect width="52" height="52" fill="white" transform="translate(0 0.000976562)"/>
</clipPath>
</defs>
</svg>
