<svg width="32" height="32" viewBox="0 0 32 32" fill="none" xmlns="http://www.w3.org/2000/svg">
<g id="arrow">
<path id="Line 2" d="M5.29289 24.0306C4.90237 24.4211 4.90237 25.0543 5.29289 25.4448C5.68342 25.8354 6.31658 25.8354 6.70711 25.4448L5.29289 24.0306ZM6.70711 25.4448L23.7071 8.44484L22.2929 7.03062L5.29289 24.0306L6.70711 25.4448Z" fill="white"/>
<path id="Line 3" d="M25.3196 25.0049C25.3196 25.5572 24.8719 26.0049 24.3196 26.0049C23.7673 26.0049 23.3196 25.5572 23.3196 25.0049L25.3196 25.0049ZM25.3196 7.00494L25.3196 25.0049L23.3196 25.0049L23.3196 7.00494L25.3196 7.00494Z" fill="white"/>
<path id="Line 4" d="M7.31958 8.00495C6.7673 8.00495 6.31958 7.55723 6.31958 7.00495C6.31958 6.45266 6.7673 6.00495 7.31958 6.00495L7.31958 8.00495ZM25.3196 8.00494L7.31958 8.00495L7.31958 6.00495L25.3196 6.00494L25.3196 8.00494Z" fill="white"/>
</g>
</svg>
