<svg width="24" height="24" viewBox="0 0 24 24" fill="none" xmlns="http://www.w3.org/2000/svg">
<g id="arrow">
<path id="Line 2" d="M3.29289 19.0603C2.90237 19.4508 2.90237 20.084 3.29289 20.4745C3.68342 20.865 4.31658 20.865 4.70711 20.4745L3.29289 19.0603ZM4.70711 20.4745L19.8239 5.35774L18.4097 3.94353L3.29289 19.0603L4.70711 20.4745Z" fill="#0092FC"/>
<path id="Line 3" d="M20.9299 19.999C20.9299 20.5513 20.4822 20.999 19.9299 20.999C19.3776 20.999 18.9299 20.5513 18.9299 19.999L20.9299 19.999ZM20.9299 3.99902L20.9299 19.999L18.9299 19.999L18.9299 3.99902L20.9299 3.99902Z" fill="#0092FC"/>
<path id="Line 4" d="M4.92993 4.99902C4.37765 4.99902 3.92993 4.55131 3.92993 3.99902C3.92993 3.44674 4.37765 2.99902 4.92993 2.99902L4.92993 4.99902ZM20.9299 4.99902L4.92993 4.99902L4.92993 2.99902L20.9299 2.99902L20.9299 4.99902Z" fill="#0092FC"/>
</g>
</svg>
