<svg width="24" height="24" viewBox="0 0 24 24" fill="none" xmlns="http://www.w3.org/2000/svg">
<g id="Group 31">
<path id="Vector" d="M12 5.85713V3.55133L11.8732 3.16748C11.001 2.25684 9.08364 0.862061 6.23645 0.862061C5.59862 0.862061 5.02226 1.1195 4.60729 1.53832C4.18847 1.95329 3.93103 2.52965 3.93103 3.16748C3.93103 3.80531 4.18847 4.38167 4.60729 4.79664C5.02226 5.21546 5.59862 5.4729 6.23645 5.4729V5.85713H12ZM5.46798 3.16748C5.46798 2.74482 5.80995 2.39901 6.23645 2.39901C8.24601 2.39901 9.7061 3.25201 10.463 3.93595H6.23645C5.80995 3.93595 5.46798 3.59014 5.46798 3.16748Z" fill="#FFAF45"/>
<path id="Vector_2" d="M17.7636 5.85713V5.4729C18.4014 5.4729 18.9778 5.21546 19.3928 4.79664C19.8116 4.38167 20.069 3.80531 20.069 3.16748C20.069 2.52965 19.8116 1.95329 19.3928 1.53832C18.9778 1.1195 18.4014 0.862061 17.7636 0.862061C14.9164 0.862061 12.9991 2.25684 12.1269 3.16748L12.0001 3.55133V5.85713H17.7636ZM17.7636 3.93595H13.537C14.294 3.25201 15.7541 2.39901 17.7636 2.39901C18.1901 2.39901 18.5321 2.74482 18.5321 3.16748C18.5321 3.59014 18.1901 3.93595 17.7636 3.93595Z" fill="#FFAF45"/>
<path id="Vector_3" d="M10.4631 5.85714V3.93595C10.4631 3.51137 10.807 3.16748 11.2316 3.16748H12.7686C13.1931 3.16748 13.537 3.51137 13.537 3.93595V5.85714H10.4631Z" fill="#EF943A"/>
<path id="Vector_4" d="M1.62567 8.1626H22.3744V22.3793C22.3744 22.8035 22.0302 23.1478 21.606 23.1478H2.39414C1.96995 23.1478 1.62567 22.8035 1.62567 22.3793V8.1626Z" fill="#E22933"/>
<path id="Vector_5" d="M22.3744 5.47284H1.62565C1.20123 5.47284 0.857178 5.8169 0.857178 6.24131V8.54673C0.857178 8.97115 1.20123 9.3152 1.62565 9.3152H22.3744C22.7988 9.3152 23.1429 8.97115 23.1429 8.54673V6.24131C23.1429 5.8169 22.7988 5.47284 22.3744 5.47284Z" fill="#FC4444"/>
<path id="Vector_6" d="M14.6898 9.31527V23.1478H9.31049V9.31527L9.69472 8.93103H14.3056L14.6898 9.31527Z" fill="#FFAF45"/>
<path id="Vector_7" d="M9.31049 5.47284H14.6898V9.3152H9.31049V5.47284Z" fill="#FFC95C"/>
</g>
</svg>
