<svg width="24" height="20" viewBox="0 0 24 20" fill="none" xmlns="http://www.w3.org/2000/svg">
<g id="icon/countryBelarus">
<g id="&#240;&#159;&#166;&#134; icon &#34;Belarus&#34;">
<g id="Group">
<path id="Vector" fill-rule="evenodd" clip-rule="evenodd" d="M1.19995 1.60101H22.8V17.801H1.19995V1.60101Z" fill="#73BE4A"/>
<path id="Vector_2" fill-rule="evenodd" clip-rule="evenodd" d="M1.19995 1.60101V12.401H22.8V1.60101H1.19995Z" fill="#AF0100"/>
<path id="Vector_3" d="M1.19995 1.60101H5.24995V17.801H1.19995V1.60101Z" fill="#F7FCFF"/>
<g id="Group_2">
<path id="Vector_4" fill-rule="evenodd" clip-rule="evenodd" d="M1.49976 3.11039L2.48028 1.6394L3.43556 3.11034L2.48025 4.51392L1.49976 3.11039ZM2.47667 3.91316L3.02623 3.10572L2.47664 2.25946L1.91257 3.10568L2.47667 3.91316ZM2.54991 2.99459H2.38116V3.34298H2.54991V2.99459Z" fill="#B20000"/>
<path id="Vector_5" fill-rule="evenodd" clip-rule="evenodd" d="M1.96743 4.42648L1.49976 5.0952L1.96741 5.73326L2.42306 5.09519L1.96743 4.42648ZM2.18616 5.10653L1.97544 5.39259L1.76219 5.08947L1.97487 4.77555L2.18616 5.10653Z" fill="#B20000"/>
<path id="Vector_6" fill-rule="evenodd" clip-rule="evenodd" d="M2.97988 4.42648L2.51221 5.0952L2.97987 5.73326L3.43551 5.09519L2.97988 4.42648ZM3.19861 5.10653L2.98789 5.39259L2.77464 5.08947L2.98733 4.77555L3.19861 5.10653Z" fill="#B20000"/>
<path id="Vector_7" fill-rule="evenodd" clip-rule="evenodd" d="M3.65481 4.42648L3.18713 5.0952L3.65479 5.73326L4.11044 5.09519L3.65481 4.42648ZM3.87354 5.10653L3.66282 5.39259L3.44957 5.08947L3.66225 4.77555L3.87354 5.10653Z" fill="#B20000"/>
<path id="Vector_8" fill-rule="evenodd" clip-rule="evenodd" d="M4.66738 4.42648L4.19971 5.0952L4.66737 5.73326L5.12301 5.09519L4.66738 4.42648ZM4.88611 5.10653L4.67539 5.39259L4.46214 5.08947L4.67483 4.77555L4.88611 5.10653Z" fill="#B20000"/>
<path id="Vector_9" fill-rule="evenodd" clip-rule="evenodd" d="M3.18713 3.11039L4.16766 1.6394L5.12294 3.11034L4.16763 4.51392L3.18713 3.11039ZM4.16405 3.91316L4.71361 3.10572L4.16402 2.25946L3.59995 3.10568L4.16405 3.91316ZM4.23729 2.99459H4.06854V3.34298H4.23729V2.99459Z" fill="#B20000"/>
<path id="Vector_10" d="M2.31779 9.97502L1.22485 8.13964L1.51238 7.9572L2.30468 9.28774L3.27143 7.51112L4.2622 9.29192L4.96223 8.13005L5.24883 8.31404L4.25066 9.97077L3.27468 8.21652L2.31779 9.97502Z" fill="#B20000"/>
<path id="Vector_11" fill-rule="evenodd" clip-rule="evenodd" d="M1.70605 1.94926H1.88751V2.29765H1.70605V1.94926Z" fill="#B20000"/>
<path id="Vector_12" fill-rule="evenodd" clip-rule="evenodd" d="M3.22485 1.60101H3.40631V1.9494H3.22485V1.60101Z" fill="#B20000"/>
<path id="Vector_13" fill-rule="evenodd" clip-rule="evenodd" d="M4.74353 1.94926H4.92498V2.29765H4.74353V1.94926Z" fill="#B20000"/>
<path id="Vector_14" fill-rule="evenodd" clip-rule="evenodd" d="M1.70605 4.03957H1.8748V4.38795H1.70605V4.03957ZM3.2248 4.03957H3.39355V4.38795H3.2248V4.03957ZM4.9123 4.03957H4.74355V4.38795H4.9123V4.03957Z" fill="#B20000"/>
<path id="Vector_15" fill-rule="evenodd" clip-rule="evenodd" d="M1.70605 5.78163H1.8748V6.13002H1.70605V5.78163ZM3.2248 5.78163H3.39355V6.13002H3.2248V5.78163ZM4.9123 5.78163H4.74355V6.13002H4.9123V5.78163Z" fill="#B20000"/>
<path id="Vector_16" fill-rule="evenodd" clip-rule="evenodd" d="M2.69048 7.64524L2.24215 8.29879L1.53497 7.02513L2.46631 5.56995L3.26724 6.8384L4.06818 5.56995L4.99951 7.02513L4.29234 8.29879L3.84401 7.64524L4.19798 6.90931L4.06818 6.61029L3.31201 7.83683V7.98207L3.26724 7.90945L3.22247 7.98207V7.83683L2.46631 6.61029L2.33651 6.90931L2.69048 7.64524Z" fill="#B20000"/>
<path id="Vector_17" fill-rule="evenodd" clip-rule="evenodd" d="M3.22498 8.74283H3.39373V9.0912H3.22498V8.74283ZM3.22498 10.4847H3.39373V10.8332H3.22498V10.4847ZM3.22498 9.26541H3.05623V9.61378H3.22498V9.788H3.05623V10.1364H3.22498V9.96215H3.39373V10.1364H3.56248V9.788H3.39373V9.61378H3.56248V9.26541H3.39373V9.61378H3.22498V9.26541ZM2.71873 9.61378H2.88748V9.96215H2.71873V9.61378ZM3.89998 9.61378H3.73123V9.96215H3.89998V9.61378ZM1.53748 9.61378H1.70623V9.96215H1.53748V9.61378ZM5.08123 9.61378H4.91248V9.96215H5.08123V9.61378Z" fill="#B20000"/>
<path id="Vector_18" fill-rule="evenodd" clip-rule="evenodd" d="M1.49976 16.2915L2.48028 17.7625L3.43556 16.2915L2.48025 14.888L1.49976 16.2915ZM2.47667 15.4887L3.02623 16.2962L2.47664 17.1424L1.91257 16.2962L2.47667 15.4887ZM2.54991 16.4073H2.38116V16.0589H2.54991V16.4073Z" fill="#B20000"/>
<path id="Vector_19" fill-rule="evenodd" clip-rule="evenodd" d="M1.96743 14.9752L1.49976 14.3065L1.96741 13.6684L2.42306 14.3065L1.96743 14.9752ZM2.18616 14.2951L1.97544 14.0091L1.76219 14.3122L1.97487 14.6261L2.18616 14.2951Z" fill="#B20000"/>
<path id="Vector_20" fill-rule="evenodd" clip-rule="evenodd" d="M2.97988 14.9752L2.51221 14.3065L2.97987 13.6684L3.43551 14.3065L2.97988 14.9752ZM3.19861 14.2951L2.98789 14.0091L2.77464 14.3122L2.98733 14.6261L3.19861 14.2951Z" fill="#B20000"/>
<path id="Vector_21" fill-rule="evenodd" clip-rule="evenodd" d="M3.65481 14.9752L3.18713 14.3065L3.65479 13.6684L4.11044 14.3065L3.65481 14.9752ZM3.87354 14.2951L3.66282 14.0091L3.44957 14.3122L3.66225 14.6261L3.87354 14.2951Z" fill="#B20000"/>
<path id="Vector_22" fill-rule="evenodd" clip-rule="evenodd" d="M4.66738 14.9752L4.19971 14.3065L4.66737 13.6684L5.12301 14.3065L4.66738 14.9752ZM4.88611 14.2951L4.67539 14.0091L4.46214 14.3122L4.67483 14.6261L4.88611 14.2951Z" fill="#B20000"/>
<path id="Vector_23" fill-rule="evenodd" clip-rule="evenodd" d="M3.18713 16.2915L4.16766 17.7625L5.12294 16.2915L4.16763 14.888L3.18713 16.2915ZM4.16405 15.4887L4.71361 16.2962L4.16402 17.1424L3.59995 16.2962L4.16405 15.4887ZM4.23729 16.4073H4.06854V16.0589H4.23729V16.4073Z" fill="#B20000"/>
<path id="Vector_24" d="M2.31779 9.42648L1.22485 11.2619L1.51238 11.4443L2.30468 10.1138L3.27143 11.8904L4.2622 10.1096L4.96223 11.2715L5.24883 11.0875L4.25066 9.43074L3.27468 11.185L2.31779 9.42648Z" fill="#B20000"/>
<path id="Vector_25" fill-rule="evenodd" clip-rule="evenodd" d="M1.70605 17.4524H1.88751V17.1041H1.70605V17.4524Z" fill="#B20000"/>
<path id="Vector_26" fill-rule="evenodd" clip-rule="evenodd" d="M3.22485 17.801H3.40631V17.4526H3.22485V17.801Z" fill="#B20000"/>
<path id="Vector_27" fill-rule="evenodd" clip-rule="evenodd" d="M4.74353 17.4524H4.92498V17.1041H4.74353V17.4524Z" fill="#B20000"/>
<path id="Vector_28" fill-rule="evenodd" clip-rule="evenodd" d="M1.70605 15.3623H1.8748V15.0139H1.70605V15.3623ZM3.2248 15.3623H3.39355V15.0139H3.2248V15.3623ZM4.9123 15.3623H4.74355V15.0139H4.9123V15.3623Z" fill="#B20000"/>
<path id="Vector_29" fill-rule="evenodd" clip-rule="evenodd" d="M1.70605 13.6202H1.8748V13.2718H1.70605V13.6202ZM3.2248 13.6202H3.39355V13.2718H3.2248V13.6202ZM4.9123 13.6202H4.74355V13.2718H4.9123V13.6202Z" fill="#B20000"/>
<path id="Vector_30" fill-rule="evenodd" clip-rule="evenodd" d="M2.69048 11.856L2.24215 11.2025L1.53497 12.4762L2.46631 13.9313L3.26724 12.6629L4.06818 13.9313L4.99951 12.4762L4.29234 11.2025L3.84401 11.856L4.19798 12.592L4.06818 12.891L3.31201 11.6645V11.5192L3.26724 11.5919L3.22247 11.5192V11.6645L2.46631 12.891L2.33651 12.592L2.69048 11.856Z" fill="#B20000"/>
</g>
</g>
<mask id="mask0_1402_8793" style="mask-type:luminance" maskUnits="userSpaceOnUse" x="1" y="1" width="22" height="17">
<g id="Group_3">
<path id="Vector_31" d="M1.19995 1.60101H22.8V17.801H1.19995V1.60101Z" fill="white"/>
</g>
</mask>
<g mask="url(#mask0_1402_8793)">
</g>
</g>
</g>
</svg>
