<svg width="340" height="220" viewBox="0 0 340 220" fill="none" xmlns="http://www.w3.org/2000/svg">
<g clip-path="url(#clip0_658_6458)">
<path d="M305.094 1.5503L19.9398 23.7214C8.92736 24.5776 0.703444 34.1984 1.57119 45.2099L13.3951 195.255C14.2629 206.266 23.8937 214.499 34.9062 213.643L320.061 191.471C331.073 190.615 339.297 180.994 338.429 169.983L326.605 19.9381C325.737 8.92659 316.107 0.694072 305.094 1.5503Z" fill="#C3E6FF"/>
<path d="M8.36914 36.3269C8.36914 25.2811 17.3102 16.3267 28.356 16.3268C72.8918 16.3272 178.948 16.328 211.9 16.3273C240.85 16.3267 288.087 16.3266 314.77 16.3266C325.816 16.3266 334.769 25.2809 334.769 36.3266V200C334.769 211.046 325.815 220 314.769 220H28.3691C17.3234 220 8.36914 211.046 8.36914 200V36.3269Z" fill="#EDF8FF"/>
<mask id="mask0_658_6458" style="mask-type:luminance" maskUnits="userSpaceOnUse" x="39" y="17" width="276" height="203">
<path d="M315 17H39V220H315V17Z" fill="white"/>
</mask>
<g mask="url(#mask0_658_6458)">
<path fill-rule="evenodd" clip-rule="evenodd" d="M137.127 -22.8167C137.52 -21.7601 137.31 -18.3579 138.086 -15.95C141.6 -5.05078 153.43 1.35951 163.729 4.54867C165.148 4.98726 168.873 5.48446 169.216 6.72568C174.201 7.18381 182.452 9.48689 187.429 10.9004C190.232 11.6976 202.987 16.7034 203.687 16.7406C205.447 16.8206 210.261 19.1077 212.33 19.8765L219.238 22.9716C220.448 23.7547 219.741 23.0852 220.281 24.0068L215.157 21.9133C212.368 23.0355 213.575 24.1169 208.924 23.0373C206.536 22.4833 204.386 21.0414 202.39 20.6614C196.413 26.7219 194.483 35.4033 197.717 43.7775C199.12 44.7736 200.59 45.095 201.959 46.1995C203.38 47.3466 203.868 48.5363 205.716 49.4561C207.005 50.0989 209.216 50.605 210.154 51.6687C211.174 52.8229 210.473 52.8957 211.42 53.6823C211.803 54.0002 213.155 54.5258 213.806 55.0461L194 48.5C193.6 52.2698 191.441 55.7786 189.942 59.2057L213.806 70C217.175 65.9336 215.382 61.3477 220.281 56.5C224.336 52.4887 227.301 48.7068 230.729 43.9621C237.039 35.2328 242.353 21.9559 242.16 11.0726C241.949 -0.808624 234.036 -9.56993 224.675 -15.7014C220.285 -18.578 215.912 -21.6198 211.632 -24.6598C207.595 -27.5294 202.757 -31.4661 198.658 -33.9166C192.499 -32.5901 188.161 -33.81 182.401 -33.0624C177.036 -32.3664 173.599 -30.3687 167.927 -31.8035C163.649 -32.8866 160.477 -35.3052 155.553 -36.4025C149.633 -37.7237 148.112 -38.2067 142.627 -40.3286C140.26 -34.0053 137.457 -30.232 137.127 -22.8167Z" fill="#315679"/>
<path fill-rule="evenodd" clip-rule="evenodd" d="M236.484 221.214L262.979 223.367C265.898 204.628 261.637 95.3456 264.103 75.5608L261.85 75.4312L236.647 75.543L236.484 221.214Z" fill="#556F93"/>
<path fill-rule="evenodd" clip-rule="evenodd" d="M262.979 221.518L288.972 221.404L288.807 75.5874L264.103 75.5537C261.637 95.3386 263.452 201.779 262.979 221.518Z" fill="#3B567A"/>
<path fill-rule="evenodd" clip-rule="evenodd" d="M202.644 219.629L229.663 219.575L229.688 108.035C228.434 108.042 225.165 107.886 224.157 108.134C222.775 108.475 222.484 109.429 220.073 109.691C217.581 109.961 213.004 109.233 210.814 108.077L203.851 108.003C204.213 114.502 202.543 211.279 202.644 219.629Z" fill="#3A5679"/>
<path fill-rule="evenodd" clip-rule="evenodd" d="M176.916 218.712L176.836 219.112L203.341 219.629C203.24 211.279 204.213 114.502 203.851 108.003L176.927 107.992L176.916 218.712Z" fill="#556F93"/>
<path fill-rule="evenodd" clip-rule="evenodd" d="M80.3433 92.6981C80.1185 91.1834 80.338 89.3473 81.7026 88.5074C82.2031 89.77 81.1318 91.7747 80.3433 92.6981ZM74.49 100.057C74.7025 101.548 84.9971 118.904 86.6725 121.832C88.4269 124.902 91.5669 129.077 94.4839 131.043C99.9579 134.731 102.178 133.836 107.857 132.353C108.024 130.073 106.212 128.486 105.254 126.207C104.32 123.984 103.53 121.678 102.699 119.392C101.519 116.144 97.9682 108.463 97.6696 105.693C93.648 104.869 87.598 104.677 84.112 103.285C78.6345 101.097 81.2565 97.2101 83.262 93.6712L80.6664 93.8168C81.7851 91.9931 84.9093 90.2139 82.9055 87.4101C78.9665 84.782 79.3862 93.0106 79.3581 94.607C77.3139 95.9742 75.2188 97.4907 74.49 100.057Z" fill="#2D4D92"/>
<path fill-rule="evenodd" clip-rule="evenodd" d="M187.583 68.9303C186.725 67.6233 186.628 65.2812 188.274 64.7591C188.727 66.0501 188.253 67.8364 187.583 68.9303ZM181.755 76.0899C183.342 77.7963 183.839 79.1459 185.936 80.847C195.061 88.2428 210.809 106.943 224.44 105.037C224.25 101.427 209.911 83.0329 207.758 77.9384C203.438 75.582 190.655 83.1341 189.394 74.023C189.169 72.3982 189.459 71.8904 189.631 70.452C190.054 66.89 188.008 70.7699 188.818 68.4473C189.584 66.6964 190.922 64.5975 188.662 63.3102C184.814 62.5874 186.349 68.2591 186.437 69.6974C184.828 71.1304 182.016 73.833 181.755 76.0899Z" fill="#2D4D92"/>
<path fill-rule="evenodd" clip-rule="evenodd" d="M210.814 108.077C213.004 109.233 217.581 109.961 220.073 109.691C222.484 109.429 222.775 108.475 224.157 108.134C225.165 107.886 228.434 108.042 229.688 108.035L224.303 107.91L224.44 105.037C210.809 106.943 195.061 88.2427 185.936 80.8469C183.839 79.1458 183.342 77.7963 181.755 76.0898C179.809 76.9795 178.941 79.7495 179.286 81.8395C179.769 84.7535 188.927 92.8542 191.166 94.6956C194.155 97.1532 196.9 99.8114 200.007 102.194C203.814 105.117 207.437 105.906 210.814 108.077Z" fill="white"/>
<path fill-rule="evenodd" clip-rule="evenodd" d="M97.9647 137.641C104.192 139.587 110.249 136.215 107.857 132.353C106.048 130.757 101.869 136.02 94.484 131.043C91.567 129.077 88.427 124.902 86.6725 121.832C84.9972 118.904 74.7025 101.548 74.49 100.057C70.2752 100.762 70.6616 105.721 72.3423 108.8C73.7788 111.428 75.7633 114.372 77.537 116.972C87.3452 128.019 87.6174 135.073 97.9647 137.641Z" fill="white"/>
<path fill-rule="evenodd" clip-rule="evenodd" d="M188.818 68.4472C188.008 70.7698 190.054 66.8899 189.631 70.452C189.459 71.8903 189.169 72.3982 189.394 74.0229C190.655 83.134 203.438 75.582 207.758 77.9383C207.95 76.4592 206.669 76.3171 208.333 73.4991L210.816 68.5591L194.178 61.0408C193.986 62.6496 194.015 63.5143 192.571 66.0891L189.989 68.9089L188.818 68.4472Z" fill="#FDDBCC"/>
<path fill-rule="evenodd" clip-rule="evenodd" d="M83.262 93.6712C81.2564 97.2102 78.6345 101.097 84.112 103.285C87.5979 104.677 93.6479 104.869 97.6695 105.693L101.798 98.6503C95.9999 96.5 91.6652 93.6694 87.5576 90.5442C85.8892 91.7552 85.3395 93.3658 83.262 93.6712Z" fill="#FDDBCC"/>
<path fill-rule="evenodd" clip-rule="evenodd" d="M194 49.4563L213.807 55.0462C213.155 54.5259 211.803 54.0003 211.42 53.6825C210.473 52.8958 211.174 52.823 210.154 51.6688C209.216 50.6052 207.005 50.0991 205.716 49.4563C203.868 48.5365 203.38 47.3467 201.959 46.1996C200.59 45.0952 199.12 44.7738 197.717 43.7776L194 49.4563Z" fill="#1F3953"/>
<path fill-rule="evenodd" clip-rule="evenodd" d="M202.39 20.6615C204.386 21.0415 206.536 22.4833 208.924 23.0374C213.575 24.117 212.368 23.0356 215.157 21.9133L220.281 24.0069C219.741 23.0853 220.448 23.7547 219.238 22.9717L212.33 19.8766C210.261 19.1077 205.447 16.8206 203.687 16.7407C203.649 18.314 203.117 19.3048 202.39 20.6615Z" fill="#1F3953"/>
<path fill-rule="evenodd" clip-rule="evenodd" d="M187.583 68.9304C188.253 67.8366 188.727 66.0502 188.274 64.7593C186.628 65.2813 186.725 67.6235 187.583 68.9304Z" fill="#F5FBFC"/>
<path fill-rule="evenodd" clip-rule="evenodd" d="M80.3433 92.698C81.1318 91.7746 82.203 89.7698 81.7025 88.5073C80.338 89.3472 80.1185 91.1833 80.3433 92.698Z" fill="#F2F5F6"/>
<path fill-rule="evenodd" clip-rule="evenodd" d="M143.047 275.345L170.066 275.302L170.092 186.036C161.023 186.073 153.419 186.087 144.255 186.009C144.615 191.21 142.945 268.663 143.047 275.345Z" fill="#3A5679"/>
<path fill-rule="evenodd" clip-rule="evenodd" d="M117.321 274.611L117.239 274.931L143.746 275.344C143.642 268.662 144.615 191.21 144.255 186.009L117.33 186L117.321 274.611Z" fill="#556F93"/>
<path fill-rule="evenodd" clip-rule="evenodd" d="M83.2147 221.291L110.233 221.257L110.26 151.026C101.08 151.057 93.9413 151.071 84.4229 151.007C84.7829 155.098 83.1128 216.033 83.2147 221.291Z" fill="#3A5679"/>
<path fill-rule="evenodd" clip-rule="evenodd" d="M57.4868 220.714L57.406 220.966L83.9136 221.291C83.8099 216.033 84.7829 155.098 84.4228 151.007L57.4973 151L57.4868 220.714Z" fill="#556F93"/>
<path fill-rule="evenodd" clip-rule="evenodd" d="M87.5576 90.5441C91.6653 93.6694 99.3908 99.2897 105 100C112.5 88 114.394 86.3618 119 78C120.229 75.7679 121.755 75.6336 122.67 73.2772C123.52 71.0825 124.653 68.9605 125.545 66.7959C127.503 62.0459 132.798 58.6559 134.5 54C136.453 48.6551 139 45 143 40C144.905 38.6789 147.128 35.6519 148.939 34.0893C152.058 31.3938 163.322 16.1369 164.983 12.4186C159.323 13.912 150.297 12.3014 144.765 10.4085C135.662 7.29396 132.268 2.90266 131.012 2.18705C132.124 2.32555 136.75 5.1507 138.253 5.89827C140.72 7.12528 143.351 8.24574 146.001 9.16377C148.814 10.1386 152.223 10.9128 155.184 11.2715C156.905 11.4793 158.628 11.6427 160.363 11.7013C161.72 11.7474 164.467 11.3159 165.182 12.0386L167.971 8.05574C163.426 10.0392 149.527 7.69883 144.636 5.48453C140.671 3.68929 131.634 -2.34454 130.41 -6.38071C133.146 -4.16108 134.74 -1.68042 138.084 0.395378C141.026 2.22257 144.438 4.45996 147.845 5.12939C145.197 1.60285 142.671 0.727428 139.897 -4.46117C137.97 -8.06407 136.374 -17.8198 136.34 -17.873C131.513 -9.56986 122.635 -0.85117 119 8.05574C113.603 21.2847 119.313 23.0853 107.337 32.2799C98.1508 39.3329 96.2998 47.9167 94.3048 58.7236C93.3319 63.9939 89.8231 69.2766 89.5912 73.8046C89.4156 77.2566 85.3548 82.4351 85 85.5C84.6734 88.3109 85.5281 89 87.5576 90.5441Z" fill="#315679"/>
<path fill-rule="evenodd" clip-rule="evenodd" d="M89.2179 115.57C88.3262 115.839 85.6903 110.64 84.6775 109.976C82.0075 108.223 81.2074 107.731 82.3864 104.797C84.2075 106.029 84.0645 106.627 86.5683 106.739C88.0169 106.804 89.3321 106.618 90.7336 106.585C91.22 107.136 90.6601 108.976 90.5981 109.806C90.5242 110.788 88.8412 114.727 89.2179 115.57Z" fill="#F4F4F4"/>
<path fill-rule="evenodd" clip-rule="evenodd" d="M96.0329 131.15L93.3384 129.461C93.2526 128.268 90.1246 123.411 90.1696 121.707C89.6868 119.18 89.7913 119.486 88.5273 117.221C88.0131 116.105 90.1746 110.958 90.2554 109.667C90.323 108.578 91.0327 106.168 90.3784 105.435L90.8679 104.548C91.7957 104.633 91.0173 105.596 92.0644 104.548L92.6696 105.044C91.5193 109.336 92.9349 116.573 93.1626 121.846C93.269 124.309 95.4314 129.29 96.0329 131.15Z" fill="#233B58"/>
<path fill-rule="evenodd" clip-rule="evenodd" d="M212.053 102.048L209.5 101C209.022 99.904 203.904 96.7198 203.379 95.0978C202.081 92.8761 202.282 93.1298 200.335 91.4152C199.479 90.535 199.802 84.9612 199.448 83.7175C199.148 82.6677 199.015 80.1596 198.154 79.6863L198.319 78.6866C199.223 78.4577 198.81 79.625 199.448 78.2879L200.184 78.5543C200.529 82.9845 204.275 89.336 206.247 94.2317C207.168 96.5188 210.866 100.495 212.053 102.048Z" fill="#233B58"/>
</g>
</g>
<defs>
<clipPath id="clip0_658_6458">
<rect width="340" height="220" fill="white"/>
</clipPath>
</defs>
</svg>
