<svg width="24" height="24" viewBox="0 0 24 24" fill="none" xmlns="http://www.w3.org/2000/svg">
<g clip-path="url(#clip0_2151_4961)">
<path d="M12.0006 5.85423V3.54843L11.8738 3.16458C11.0016 2.25394 9.08425 0.859161 6.23706 0.859161C5.59923 0.859161 5.02287 1.1166 4.6079 1.53542C4.18908 1.95039 3.93164 2.52675 3.93164 3.16458C3.93164 3.80241 4.18908 4.37877 4.6079 4.79374C5.02287 5.21256 5.59923 5.47 6.23706 5.47V5.85423H12.0006ZM5.46859 3.16458C5.46859 2.74192 5.81056 2.39611 6.23706 2.39611C8.24662 2.39611 9.70671 3.24911 10.4637 3.93305H6.23706C5.81056 3.93305 5.46859 3.58724 5.46859 3.16458Z" fill="#FFAF45"/>
<path d="M17.7635 5.85423V5.47C18.4014 5.47 18.9777 5.21256 19.3927 4.79374C19.8115 4.37877 20.069 3.80241 20.069 3.16458C20.069 2.52675 19.8115 1.95039 19.3927 1.53542C18.9777 1.1166 18.4014 0.859161 17.7635 0.859161C14.9164 0.859161 12.999 2.25394 12.1268 3.16458L12 3.54843V5.85423H17.7635ZM17.7635 3.93305H13.5369C14.2939 3.24911 15.754 2.39611 17.7635 2.39611C18.19 2.39611 18.532 2.74192 18.532 3.16458C18.532 3.58724 18.19 3.93305 17.7635 3.93305Z" fill="#FFAF45"/>
<path d="M10.4629 5.85421V3.93303C10.4629 3.50845 10.8068 3.16456 11.2314 3.16456H12.7683C13.1929 3.16456 13.5368 3.50845 13.5368 3.93303V5.85421H10.4629Z" fill="#EF943A"/>
<path d="M1.62598 8.15969H22.3747V22.3764C22.3747 22.8006 22.0305 23.1449 21.6063 23.1449H2.39445C1.97025 23.1449 1.62598 22.8006 1.62598 22.3764V8.15969Z" fill="#E22933"/>
<path d="M22.3747 5.46996H1.62589C1.20148 5.46996 0.857422 5.81401 0.857422 6.23843V8.54385C0.857422 8.96826 1.20148 9.31232 1.62589 9.31232H22.3747C22.7991 9.31232 23.1431 8.96826 23.1431 8.54385V6.23843C23.1431 5.81401 22.7991 5.46996 22.3747 5.46996Z" fill="#FC4444"/>
<path d="M14.6899 9.31239V23.1449H9.31055V9.31239L9.69478 8.92816H14.3056L14.6899 9.31239Z" fill="#FFAF45"/>
<path d="M9.31055 5.46996H14.6899V9.31232H9.31055V5.46996Z" fill="#FFC95C"/>
</g>
<defs>
<clipPath id="clip0_2151_4961">
<rect width="24" height="24" fill="white"/>
</clipPath>
</defs>
</svg>
