<svg width="170" height="153" viewBox="0 0 170 153" fill="none" xmlns="http://www.w3.org/2000/svg">
<g clip-path="url(#clip0_337_587)">
<path d="M81.4109 34.1174C81.6356 34.3723 81.8593 34.6281 82.082 34.8848C82.2002 35.0201 82.3184 35.1553 82.4402 35.2947C82.6709 35.5591 82.9014 35.8238 83.1314 36.0889C83.3672 36.3593 83.6067 36.6264 83.8474 36.8923C87.0084 40.4285 89.1239 44.9557 91.0556 49.2931C91.9549 49.3158 91.9549 49.3158 92.8517 49.2463C94.1475 49.546 95.0043 49.9801 95.8042 51.0686C96.0943 51.3782 96.0943 51.3782 96.5371 51.351C97.1606 51.1746 97.6544 50.8972 98.2175 50.565C100.503 49.2548 102.789 48.2932 105.272 47.4826C105.436 47.4285 105.6 47.3745 105.77 47.3188C107.826 46.6517 109.882 46.1208 112 45.7363C112.287 45.6828 112.287 45.6828 112.581 45.6283C114.668 45.2755 116.718 45.2571 118.604 46.276C120.182 47.4694 120.731 48.9786 121.02 50.9316C121.334 54.2332 121.313 58.8052 119.335 61.6144C118.337 62.6257 116.952 63.2222 115.589 63.3792C117.21 64.542 118.907 65.5289 120.641 66.5029C123.817 68.2883 126.956 70.133 130.08 72.0108C130.273 72.1266 130.465 72.2424 130.664 72.3617C131.746 73.0129 132.828 73.6651 133.91 74.3184C133.051 77.5041 132.144 80.6727 131.195 83.8329C131.12 84.0826 131.12 84.0826 131.044 84.3372C130.546 86.0015 130.047 87.6602 129.435 89.2874C128.695 89.0983 127.956 88.9092 127.194 88.7144C125.409 93.6956 123.623 98.6767 121.784 103.809C122.321 104.153 122.858 104.498 123.412 104.853C124.721 106.002 125.606 107.319 126.45 108.849C128.573 112.509 132.04 116.105 135.95 117.705C136.13 117.779 136.311 117.854 136.497 117.93C136.776 118.044 136.776 118.044 137.061 118.16C137.251 118.238 137.441 118.316 137.637 118.396C138.103 118.588 138.57 118.779 139.037 118.969C136.635 120.949 133.355 121.291 130.385 121.392C130.254 121.345 130.124 121.299 129.99 121.251C129.768 123.113 129.996 124.817 130.28 126.649C130.316 126.967 130.351 127.286 130.382 127.606C126.966 125.808 124.554 122.717 122.503 119.476C121.321 117.633 119.926 116.325 118.231 114.965C116.494 119.811 114.757 124.658 112.968 129.651C111.793 129.511 110.619 129.37 109.409 129.225C106.231 128.845 106.231 128.845 103.047 128.513C100.836 128.298 98.6357 128.01 96.433 127.73C93.9739 127.418 91.5146 127.148 89.0454 126.914C86.9371 126.711 84.8386 126.452 82.7387 126.184C80.3645 125.881 77.9914 125.598 75.6076 125.369C71.1295 124.933 71.1295 124.933 69.4074 124.747C69.1174 124.717 68.8272 124.687 68.537 124.658C68.1333 124.619 67.7301 124.574 67.3269 124.53C67.097 124.506 66.8671 124.482 66.6302 124.458C64.8984 124.082 63.5229 122.924 62.1056 121.907C61.8819 121.747 61.6582 121.588 61.4277 121.423C60.8346 121.001 60.2424 120.577 59.6503 120.153C59.056 119.728 58.4611 119.303 57.8662 118.879C56.9619 118.234 56.0579 117.588 55.1541 116.943C53.2849 115.608 51.4065 114.289 49.5123 112.991C46.7823 111.117 44.091 109.191 41.4089 107.247C39.3744 105.773 37.3349 104.307 35.291 102.846C35.1661 102.757 35.0412 102.668 34.9125 102.576C33.6585 101.68 32.4041 100.784 31.1496 99.889C30.7934 99.6348 30.4373 99.3806 30.0812 99.1263C29.6412 98.8122 29.2011 98.4982 28.7609 98.1843C28.5654 98.0448 28.3699 97.9052 28.1685 97.7614C27.9975 97.6395 27.8266 97.5175 27.6504 97.3919C27.3289 97.1582 27.0146 96.914 26.7043 96.665C31.271 83.7176 35.8376 70.7702 40.5426 57.4305C39.9405 57.0628 39.3383 56.695 38.7178 56.3162C39.9004 53.3232 41.1152 50.3456 42.365 47.3804C42.428 47.2307 42.4909 47.081 42.5558 46.9268C42.7385 46.4925 42.9219 46.0585 43.1055 45.6245C43.211 45.375 43.3165 45.1254 43.4252 44.8683C43.8312 43.942 44.261 43.0287 44.6964 42.1162C47.943 42.6036 51.1801 43.1331 54.4132 43.6969C54.5874 43.7272 54.7615 43.7575 54.941 43.7888C56.5668 44.0722 58.1923 44.3568 59.8178 44.6422C60.7185 44.8003 61.6194 44.9575 62.5204 45.1142C62.8592 45.1734 63.1979 45.2328 63.5365 45.2926C64.0066 45.3756 64.4769 45.4575 64.9473 45.5392C65.2132 45.5858 65.4792 45.6325 65.7532 45.6806C66.5189 45.792 67.2629 45.8453 68.0366 45.8773C67.9239 45.6865 67.9239 45.6865 67.809 45.4918C67.7115 45.3198 67.614 45.1478 67.5136 44.9706C67.4165 44.8022 67.3194 44.6339 67.2194 44.4605C66.7142 43.2863 66.7633 42.3363 67.194 41.1301C68.5182 37.7102 71.2038 33.7876 74.3944 31.967C77.2739 30.7066 79.4602 31.9736 81.4109 34.1174Z" fill="#B33448"/>
<path d="M81.4109 34.1174C81.6356 34.3723 81.8593 34.6281 82.082 34.8848C82.2002 35.0201 82.3184 35.1553 82.4402 35.2947C82.671 35.5591 82.9014 35.8238 83.1314 36.0889C83.3672 36.3593 83.6067 36.6264 83.8474 36.8923C87.0084 40.4285 89.1239 44.9557 91.0556 49.2931C91.9549 49.3158 91.9549 49.3158 92.8518 49.2462C94.1475 49.546 95.0043 49.9801 95.8042 51.0686C96.0943 51.3782 96.0943 51.3782 96.5371 51.351C97.1606 51.1746 97.6544 50.8972 98.2175 50.565C100.503 49.2548 102.789 48.2932 105.272 47.4826C105.436 47.4285 105.6 47.3745 105.77 47.3188C107.826 46.6517 109.882 46.1208 112 45.7363C112.287 45.6828 112.287 45.6828 112.581 45.6283C114.668 45.2755 116.718 45.2571 118.604 46.276C120.182 47.4694 120.731 48.9786 121.02 50.9316C121.334 54.2332 121.313 58.8052 119.335 61.6144C118.337 62.6257 116.952 63.2222 115.589 63.3792C117.223 64.5515 118.934 65.5473 120.682 66.5307C123.717 68.2396 126.727 69.9895 129.722 71.7676C129.898 71.8717 130.073 71.9759 130.254 72.0832C131.235 72.6653 132.215 73.2482 133.194 73.8319C133.146 73.9665 133.098 74.1012 133.048 74.2399C130.069 73.9159 127.125 73.4761 124.179 72.9448C122.385 72.622 120.589 72.3297 118.782 72.081C118.618 72.0577 118.454 72.0344 118.284 72.0103C118.074 71.9817 118.074 71.9817 117.858 71.9524C117.439 71.8685 117.439 71.8685 116.454 71.5153C114.734 76.5198 113.014 81.5242 111.242 86.6803C110.287 86.669 109.438 86.6198 108.504 86.4906C108.239 86.4544 107.975 86.4183 107.702 86.3811C107.428 86.3429 107.154 86.3048 106.872 86.2654C106.33 86.1908 105.788 86.1163 105.245 86.042C104.989 86.0065 104.733 85.971 104.468 85.9344C103.868 85.8545 103.268 85.7852 102.665 85.7215C101.838 85.6121 101.838 85.6121 100.853 85.259C102.662 80.2105 104.471 75.162 106.335 69.9606C105.538 69.5229 104.741 69.0853 103.919 68.6343C103.415 68.3323 102.913 68.0256 102.415 67.7124C102.284 67.6302 102.153 67.5479 102.018 67.4631C101.738 67.2876 101.459 67.1119 101.18 66.9359C100.736 66.6562 100.292 66.3776 99.847 66.0992C98.4195 65.2048 96.9944 64.3068 95.5727 63.403C94.9499 63.0074 94.3262 62.6133 93.7024 62.2193C93.4061 62.0316 93.1101 61.8431 92.8147 61.6539C90.0941 59.9117 87.7528 59.1801 84.5667 58.7498C84.053 58.678 83.5393 58.6056 83.0257 58.5331C82.682 58.4846 82.3383 58.4364 81.9946 58.3885C80.5211 58.1823 79.0525 57.9514 77.584 57.7147C75.3122 57.3519 73.0341 57.0518 70.7493 56.775C70.3922 56.7315 70.3922 56.7315 70.0279 56.6872C69.8166 56.662 69.6052 56.6368 69.3875 56.6109C68.8861 56.5397 68.8861 56.5397 68.4919 56.3984C61.9062 74.7748 55.3206 93.1512 48.5353 112.085C46.8439 111.219 46.8439 111.219 46.2244 110.766C46.0827 110.664 45.941 110.561 45.7951 110.455C45.5692 110.289 45.5692 110.289 45.3388 110.119C45.0924 109.94 45.0924 109.94 44.841 109.757C44.4836 109.497 44.1265 109.236 43.7697 108.975C42.7949 108.262 41.8176 107.552 40.8405 106.843C40.6322 106.691 40.424 106.54 40.2094 106.384C37.1806 104.184 34.1309 102.015 31.084 99.841C30.7321 99.5899 30.3801 99.3387 30.0282 99.0875C29.5954 98.7786 29.1624 98.4698 28.7293 98.1612C28.5378 98.0246 28.3462 97.8879 28.1489 97.7471C27.9817 97.6278 27.8144 97.5086 27.6421 97.3858C27.3233 97.1541 27.0119 96.9119 26.7043 96.665C31.271 83.7176 35.8376 70.7702 40.5426 57.4305C39.9405 57.0628 39.3383 56.695 38.7178 56.3162C39.9004 53.3232 41.1152 50.3456 42.365 47.3804C42.428 47.2307 42.4909 47.081 42.5558 46.9268C42.7385 46.4925 42.9219 46.0585 43.1055 45.6245C43.211 45.375 43.3165 45.1254 43.4252 44.8683C43.8312 43.942 44.261 43.0287 44.6964 42.1162C47.943 42.6036 51.1801 43.1331 54.4132 43.6968C54.5874 43.7272 54.7615 43.7575 54.941 43.7888C56.5668 44.0721 58.1923 44.3568 59.8178 44.6422C60.7185 44.8003 61.6194 44.9575 62.5204 45.1142C62.8592 45.1734 63.1979 45.2328 63.5365 45.2926C64.0066 45.3756 64.4769 45.4575 64.9473 45.5392C65.2132 45.5858 65.4792 45.6325 65.7532 45.6805C66.5189 45.792 67.2629 45.8453 68.0366 45.8773C67.9239 45.6865 67.9239 45.6865 67.809 45.4918C67.7115 45.3198 67.614 45.1478 67.5136 44.9706C67.4165 44.8022 67.3194 44.6339 67.2194 44.4605C66.7142 43.2863 66.7633 42.3363 67.194 41.1301C68.5182 37.7102 71.2038 33.7876 74.3944 31.967C77.2739 30.7066 79.4602 31.9736 81.4109 34.1174Z" fill="#EC9748"/>
<path d="M133.91 74.3184C133.053 77.5044 132.144 80.6728 131.195 83.8329C131.121 84.0825 131.121 84.0825 131.044 84.3372C130.546 86.0015 130.047 87.6601 129.435 89.2874C128.695 89.0983 127.956 88.9092 127.194 88.7144C125.409 93.6955 123.624 98.6767 121.784 103.809C122.322 104.153 122.859 104.498 123.412 104.852C124.721 106.002 125.606 107.318 126.45 108.849C128.573 112.509 132.04 116.105 135.95 117.705C136.131 117.779 136.311 117.854 136.497 117.93C136.683 118.006 136.87 118.082 137.062 118.16C137.252 118.238 137.441 118.316 137.637 118.396C138.104 118.588 138.57 118.779 139.038 118.969C136.635 120.949 133.355 121.291 130.385 121.392C130.255 121.345 130.125 121.299 129.991 121.251C129.768 123.113 129.997 124.817 130.28 126.649C130.317 126.967 130.352 127.286 130.382 127.606C126.966 125.808 124.554 122.717 122.504 119.476C121.321 117.633 119.926 116.325 118.231 114.965C116.494 119.811 114.757 124.658 112.968 129.651C111.793 129.511 110.619 129.37 109.409 129.225C106.231 128.845 106.231 128.845 103.047 128.513C100.839 128.298 98.6407 128.011 96.4406 127.731C93.8127 127.397 91.1832 127.106 88.5438 126.864C88.1859 126.83 88.1859 126.83 87.8208 126.796C87.6131 126.778 87.4054 126.759 87.1915 126.74C86.6777 126.674 86.6777 126.674 86.0864 126.463C90.9593 112.865 95.8322 99.2682 100.853 85.2589C108.927 86.3113 108.927 86.3113 111.045 86.6097C112.83 81.6285 114.615 76.6474 116.454 71.5153C118.047 71.7681 119.64 72.0209 121.281 72.2813C126.966 73.1879 126.966 73.1879 132.672 73.9612C133.122 74.0359 133.122 74.0359 133.91 74.3184Z" fill="#B43749"/>
<path d="M69.6777 47.5442C71.8017 49.8215 74.4133 51.3011 77.1292 52.7395C77.3219 52.8427 77.5147 52.9458 77.7133 53.0521C77.887 53.1432 78.0606 53.2343 78.2395 53.3281C78.428 53.4543 78.428 53.4543 78.6203 53.5831C78.6371 53.741 78.6539 53.899 78.6712 54.0617C74.4157 53.471 70.1614 52.8723 65.9119 52.2431C65.5243 52.1859 65.1366 52.1292 64.7488 52.073C64.204 51.9939 63.6596 51.9129 63.1152 51.8315C62.8753 51.7972 62.8753 51.7972 62.6307 51.7622C62.4052 51.7279 62.4052 51.7279 62.1752 51.6929C61.9819 51.6644 61.9819 51.6644 61.7848 51.6353C61.1606 51.4922 60.5622 51.2546 59.9597 51.0387C53.4463 69.2132 46.933 87.3877 40.2223 106.113C37.9476 104.78 37.9476 104.78 36.9714 104.08C36.7535 103.924 36.5355 103.768 36.311 103.608C36.0806 103.442 35.8502 103.276 35.6199 103.11C35.3779 102.937 35.1359 102.764 34.8939 102.591C34.2631 102.139 33.633 101.686 33.0031 101.233C32.4873 100.863 31.9709 100.493 31.4546 100.123C30.8375 99.6811 30.2206 99.2388 29.6038 98.7964C29.4867 98.7124 29.3696 98.6284 29.2489 98.5419C28.9183 98.3046 28.5878 98.0671 28.2574 97.8296C27.9757 97.6273 27.9757 97.6273 27.6884 97.4208C27.3546 97.177 27.0274 96.9239 26.7047 96.665C31.2714 83.7176 35.838 70.7702 40.5431 57.4305C39.9409 57.0628 39.3387 56.695 38.7183 56.3162C39.9008 53.3232 41.1156 50.3456 42.3655 47.3804C42.4284 47.2307 42.4914 47.081 42.5562 46.9268C42.739 46.4925 42.9223 46.0584 43.1059 45.6245C43.2114 45.375 43.3169 45.1254 43.4256 44.8683C43.8316 43.942 44.2614 43.0287 44.6969 42.1162C49.0015 42.7689 53.2942 43.4822 57.5842 44.2186C58.3125 44.3435 59.041 44.4673 59.7697 44.5901C60.6668 44.7412 61.5635 44.8943 62.4599 45.0487C62.7962 45.1063 63.1325 45.1633 63.469 45.2196C68.4098 46.0472 68.4098 46.0472 69.6777 47.5442Z" fill="#E74B4F"/>
<path d="M62.2792 73.7365C63.9393 74.582 63.9393 74.582 64.5131 74.9405C64.6362 75.0171 64.7594 75.0937 64.8863 75.1726C65.0147 75.2534 65.1431 75.3341 65.2754 75.4172C65.4139 75.5037 65.5523 75.5901 65.6949 75.6791C66.1425 75.9589 66.5895 76.2396 67.0365 76.5204C67.3482 76.7157 67.66 76.911 67.9717 77.1063C69.8862 78.3076 71.7913 79.5223 73.6744 80.7741C75.6697 82.0952 77.7042 83.3316 79.7388 84.5972C75.0829 97.5886 70.4271 110.58 65.6302 123.965C65.7362 124.079 65.8421 124.193 65.9513 124.31C64.561 123.662 63.353 122.802 62.1065 121.906C61.8828 121.747 61.659 121.588 61.4286 121.423C60.8355 121.001 60.2432 120.577 59.6511 120.153C59.0569 119.728 58.4619 119.303 57.867 118.879C56.964 118.235 56.0612 117.59 55.1587 116.945C53.6074 115.837 52.0502 114.739 50.4856 113.651C50.2704 113.501 50.0552 113.351 49.8334 113.197C49.5007 112.966 49.5007 112.966 49.1613 112.73C48.6601 112.359 48.6601 112.359 48.5361 112.084C48.6944 111.582 48.8635 111.09 49.0429 110.596C49.099 110.439 49.155 110.282 49.2127 110.12C49.4021 109.591 49.5928 109.062 49.7836 108.533C49.9191 108.155 50.0545 107.777 50.1898 107.4C50.5585 106.37 50.9285 105.342 51.2987 104.313C51.6849 103.239 52.07 102.165 52.4552 101.091C53.1854 99.0554 53.9166 97.0202 54.6481 94.9852C55.4807 92.669 56.3121 90.3524 57.1434 88.0358C58.8541 83.2689 60.5662 78.5026 62.2792 73.7365Z" fill="#E84B4F"/>
<path d="M91.531 57.433C91.7102 57.4968 91.8894 57.5606 92.0741 57.6263C94.0246 58.3259 95.8351 59.0834 97.6153 60.1602C98.2636 60.4974 98.9228 60.8117 99.5832 61.1239C100.605 61.6224 101.537 62.2287 102.485 62.8575C103.243 63.3514 104.011 63.8247 104.785 64.294C104.929 64.3817 105.074 64.4695 105.223 64.5599C105.525 64.7432 105.827 64.9264 106.129 65.1095C109.535 67.1741 112.906 69.29 116.258 71.4446C115.703 72.9928 115.148 74.541 114.576 76.1361C114.511 76.1128 114.446 76.0895 114.379 76.0655C114.91 74.5846 115.441 73.1037 115.987 71.578C114.923 71.4219 113.859 71.2658 112.795 71.1098C112.434 71.0567 112.072 71.0037 111.71 70.9506C111.189 70.8742 110.668 70.7978 110.147 70.7214C109.987 70.6978 109.826 70.6742 109.66 70.6498C109.036 70.5584 108.412 70.4671 107.786 70.386C106.312 70.1567 105.141 69.424 103.907 68.6299C103.522 68.3861 103.137 68.1425 102.751 67.8991C102.537 67.7631 102.322 67.6271 102.101 67.487C101.291 66.9761 100.476 66.4737 99.6612 65.9716C99.5111 65.8792 99.3611 65.7867 99.2064 65.6915C98.5877 65.3105 97.9689 64.9296 97.3501 64.5488C95.8811 63.6444 94.4129 62.7401 92.9643 61.8022C92.7759 61.6803 92.5875 61.5585 92.3934 61.433C92.0624 61.2177 91.7324 61.0008 91.4039 60.7817C89.2764 59.3969 87.0385 59.0835 84.5674 58.7497C84.0537 58.678 83.5401 58.6055 83.0264 58.5331C82.6828 58.4846 82.3391 58.4364 81.9953 58.3884C80.5219 58.1823 79.0532 57.9513 77.5848 57.7147C75.3129 57.3519 73.0348 57.0517 70.75 56.7749C70.5119 56.746 70.2739 56.717 70.0286 56.6872C69.7116 56.6494 69.7116 56.6494 69.3882 56.6108C68.8869 56.5397 68.8869 56.5397 68.4927 56.3984C61.907 74.7748 55.3213 93.1512 48.536 112.085C46.8444 111.219 46.8444 111.219 46.2298 110.769C46.0921 110.669 45.9544 110.569 45.8126 110.466C45.6698 110.361 45.527 110.255 45.3799 110.147C45.2292 110.037 45.0786 109.927 44.9234 109.814C44.4472 109.466 43.972 109.117 43.4969 108.768C43.1723 108.531 42.8475 108.293 42.5227 108.056C41.7309 107.478 40.9399 106.898 40.1495 106.317C41.9355 101.251 43.7218 96.1861 45.5084 91.1209C46.3384 88.7677 47.1684 86.4145 47.9981 84.0612C50.1137 78.0606 52.2309 72.0606 54.3534 66.0625C54.4112 65.8989 54.4691 65.7353 54.5288 65.5668C55.1406 63.8377 55.7536 62.1089 56.3697 60.3814C56.5183 59.9645 56.6666 59.5475 56.8145 59.1304C57.7837 56.3986 58.8424 53.7129 59.96 51.0387C60.113 51.0641 60.266 51.0895 60.4237 51.1156C63.3768 51.6048 66.3324 52.0781 69.2918 52.5301C69.6297 52.5818 69.9675 52.6335 70.3053 52.6855C72.0644 52.9555 73.8206 53.2093 75.5911 53.4025C81.056 54.0219 86.3768 55.5872 91.531 57.433Z" fill="#FEC663"/>
<path d="M81.4117 34.1174C81.6363 34.3723 81.86 34.6281 82.0828 34.8848C82.201 35.02 82.3192 35.1553 82.4409 35.2946C82.6717 35.559 82.9021 35.8237 83.1321 36.0888C83.368 36.3593 83.6074 36.6264 83.8481 36.8922C87.0091 40.4285 89.1247 44.9556 91.0564 49.2931C91.9557 49.3157 91.9557 49.3157 92.8525 49.2462C94.1483 49.5459 95.005 49.98 95.805 51.0686C96.095 51.3782 96.095 51.3782 96.5378 51.351C97.1614 51.1745 97.6551 50.8972 98.2183 50.565C100.504 49.2548 102.789 48.2932 105.273 47.4825C105.437 47.4285 105.601 47.3744 105.77 47.3188C107.826 46.6517 109.882 46.1207 112.001 45.7362C112.288 45.6828 112.288 45.6828 112.581 45.6282C114.668 45.2754 116.719 45.257 118.605 46.276C120.183 47.4693 120.732 48.9785 121.021 50.9316C121.271 53.5635 121.167 56.3256 120.323 58.8607C120.229 58.6469 120.136 58.4331 120.04 58.2129C118.91 56.2646 115.983 55.5052 113.936 54.9606C113.242 54.8511 112.572 54.7845 111.869 54.7593C111.351 54.7249 111.351 54.7249 110.563 54.4423C110.425 54.6209 110.288 54.7996 110.146 54.9836C108.564 55.278 106.95 55.3552 105.349 55.3361C105.422 55.1341 105.494 54.9322 105.569 54.7241C99.8901 55.2752 99.8901 55.2752 94.4862 57.0175C93.245 57.5941 92.2994 57.3772 91.0681 56.9794C89.7643 56.4716 89.1447 55.9654 88.4963 54.6911C88.1088 53.6926 88.2707 53.2046 88.5659 52.1697C88.6363 51.9213 88.7066 51.673 88.7791 51.4171C88.8341 51.2261 88.8891 51.0351 88.9457 50.8384C88.5279 51.2489 88.3626 51.6464 88.1169 52.1814C87.9923 52.4509 87.9923 52.4509 87.8652 52.726C87.8022 52.8642 87.7392 53.0024 87.6743 53.1449C87.517 52.9501 87.517 52.9501 87.3566 52.7514C86.4257 51.6031 85.4866 50.4627 84.5374 49.3305C84.4365 49.2096 84.3356 49.0888 84.2316 48.9643C83.9321 48.6081 83.6289 48.2556 83.3251 47.9034C83.2181 47.7744 83.1111 47.6453 83.0008 47.5124C82.328 46.7331 82.012 46.491 80.9821 46.3732C80.5552 46.0032 80.179 45.6391 79.7939 45.228C78.8025 44.2172 77.7701 43.3408 76.6209 42.5228C76.4844 42.4254 76.348 42.328 76.2074 42.2276C75.6691 41.8511 75.1861 41.5339 74.5666 41.3119C74.7336 41.4115 74.9006 41.5111 75.0727 41.6137C79.6214 44.4482 82.7148 49.0218 85.662 53.4604C86.0626 54.0601 86.4846 54.6302 86.9433 55.1846C84.3656 55.5305 79.5453 51.5486 77.476 49.9504C74.4731 47.4892 72.2037 44.5185 70.1441 41.206C69.6783 40.475 69.2927 39.9685 68.5074 39.6008C68.2808 39.8234 68.0542 40.046 67.8208 40.2754C67.8991 37.8668 70.9086 35.0477 72.4944 33.4327C73.6563 32.3045 74.871 31.5627 76.4604 31.3584C78.5896 31.4093 80.04 32.6099 81.4117 34.1174Z" fill="#FEC667"/>
<path d="M92.1061 60.9427C92.3722 61.1091 92.3722 61.1091 92.6437 61.2789C93.2147 61.6367 93.7839 61.9971 94.3532 62.3576C94.7464 62.6046 95.1397 62.8515 95.5331 63.0982C96.49 63.6989 97.4456 64.3017 98.4007 64.9054C99.117 65.3579 99.8342 65.8091 100.551 66.2602C101.372 66.7763 102.191 67.2936 103.01 67.8121C103.94 68.3997 104.877 68.9748 105.817 69.5447C105.769 69.6793 105.721 69.8139 105.671 69.9526C103.681 69.7522 101.707 69.4849 99.7307 69.1892C98.8931 69.0639 98.0553 68.9403 97.2174 68.8165C97.0514 68.792 96.8854 68.7674 96.7143 68.7421C95.2634 68.5276 93.8114 68.3202 92.3588 68.1165C92.1476 68.0868 91.9364 68.0571 91.7187 68.0265C90.8065 67.8986 89.894 67.772 88.9812 67.6478C88.8312 67.6273 88.6813 67.6067 88.5268 67.5855C88.1446 67.5331 87.7622 67.4815 87.3798 67.43C86.8135 67.3376 86.8135 67.3376 86.2222 67.1257C84.3888 72.2415 82.5554 77.3573 80.6665 82.6281C77.523 80.7085 74.3839 78.7899 71.2784 76.809C71.0946 76.6918 71.0946 76.6918 70.9071 76.5722C69.8852 75.9204 69.8852 75.9204 69.3873 75.6024C67.6782 74.5113 65.9622 73.434 64.2208 72.3965C63.2196 71.7956 63.2196 71.7956 63.0829 71.4928C63.2324 71.0169 63.3963 70.5454 63.5654 70.076C63.6181 69.9288 63.6709 69.7815 63.7252 69.6298C63.9006 69.1409 64.0773 68.6525 64.2541 68.1641C64.3756 67.8261 64.4971 67.4881 64.6185 67.15C64.9388 66.2586 65.2603 65.3676 65.582 64.4768C65.9098 63.5683 66.2366 62.6594 66.5634 61.7506C67.2053 59.9661 67.8485 58.1821 68.4924 56.3984C71.2262 56.6402 71.2262 56.6402 72.3709 56.7931C72.5959 56.823 72.8209 56.853 73.0526 56.8838C73.2907 56.9163 73.5288 56.9487 73.774 56.9821C74.0308 57.0168 74.2876 57.0515 74.5521 57.0872C76.9719 57.4161 79.3882 57.7669 81.8044 58.1193C81.9911 58.1465 82.1778 58.1737 82.3702 58.2018C83.4032 58.3526 84.4359 58.5055 85.4683 58.66C85.8442 58.7152 86.2207 58.7668 86.5973 58.8178C88.6705 59.1104 90.3457 59.8203 92.1061 60.9427Z" fill="#EC524E"/>
<path d="M106.335 69.9605C104.237 75.8168 102.138 81.673 99.9756 87.7067C98.7975 87.5123 97.6194 87.318 96.4056 87.1178C95.4294 86.979 94.4537 86.8436 93.476 86.7153C93.2154 86.6805 92.9548 86.6458 92.6863 86.6101C91.8664 86.501 91.0464 86.3926 90.2265 86.2844C89.1422 86.1406 88.058 85.9965 86.9738 85.8524C86.7173 85.8183 86.4607 85.7842 86.1964 85.7491C82.4005 85.244 82.4005 85.244 80.9208 85.021C80.7258 85.004 80.5308 84.987 80.3299 84.9695C79.3671 84.7257 78.6213 84.2163 77.7904 83.6807C77.5205 83.5101 77.5205 83.5101 77.2452 83.3361C76.6702 82.972 76.0969 82.6051 75.5237 82.2381C75.146 81.9983 74.7682 81.7588 74.3903 81.5194C73.3025 80.8296 72.2172 80.1361 71.1324 79.4415C70.9803 79.3442 70.8282 79.2469 70.6715 79.1467C68.7356 77.9084 66.8041 76.663 64.8743 75.4149C64.6194 75.2501 64.3646 75.0853 64.1097 74.9206C63.4993 74.526 62.8889 74.1313 62.2786 73.7365C62.5439 72.9961 62.8093 72.2557 63.0827 71.4928C65.9809 73.2124 68.8588 74.9486 71.67 76.8126C73.4355 77.9779 75.2387 79.076 77.0527 80.161C77.2698 80.2918 77.487 80.4226 77.7107 80.5573C77.9011 80.671 78.0914 80.7847 78.2876 80.9018C79.1081 81.4356 79.8833 82.0387 80.6663 82.628C82.4997 77.5123 84.3331 72.3965 86.222 67.1257C87.9687 67.3719 89.7154 67.6181 91.515 67.8717C93.0327 68.0568 93.0327 68.0568 94.5507 68.24C96.5862 68.4878 98.6124 68.7939 100.639 69.1027C102.152 69.3314 103.664 69.5283 105.188 69.6772C105.744 69.7486 105.744 69.7486 106.335 69.9605Z" fill="#AA3948"/>
<path d="M69.6777 47.5442C71.8017 49.8215 74.4133 51.3011 77.1292 52.7395C77.3219 52.8427 77.5147 52.9458 77.7133 53.0521C77.887 53.1432 78.0606 53.2343 78.2395 53.3281C78.428 53.4543 78.428 53.4543 78.6203 53.5831C78.6371 53.741 78.6539 53.899 78.6712 54.0617C74.4157 53.471 70.1614 52.8723 65.9119 52.2431C65.5243 52.1859 65.1366 52.1292 64.7488 52.073C64.204 51.9939 63.6596 51.9129 63.1152 51.8315C62.8753 51.7972 62.8753 51.7972 62.6307 51.7622C61.6871 51.6186 60.8468 51.389 59.9597 51.0387C59.8675 51.2995 59.7753 51.5602 59.6804 51.8289C58.5923 54.8935 57.4479 57.9348 56.2883 60.9728C56.1065 61.4502 55.9247 61.9275 55.743 62.4048C55.3045 63.5562 54.8655 64.7074 54.4262 65.8585C52.4255 64.9228 52.4255 64.9228 51.5886 64.3677C51.3357 64.2024 51.3357 64.2024 51.0778 64.0337C50.8957 63.9136 50.7136 63.7934 50.526 63.6696C48.0023 62.0263 45.4409 60.4476 42.8765 58.8709C42.6715 58.7448 42.4665 58.6187 42.2552 58.4888C41.0766 57.764 39.8976 57.0397 38.7183 56.3162C39.9036 53.3242 41.1156 50.3456 42.3655 47.3804C42.4284 47.2307 42.4914 47.081 42.5562 46.9268C42.739 46.4925 42.9223 46.0584 43.1059 45.6245C43.2114 45.375 43.3169 45.1254 43.4256 44.8683C43.8316 43.942 44.2614 43.0287 44.6969 42.1162C49.0015 42.7689 53.2942 43.4822 57.5842 44.2186C58.3125 44.3435 59.041 44.4673 59.7697 44.5901C60.6668 44.7412 61.5635 44.8943 62.4599 45.0487C62.7962 45.1063 63.1325 45.1633 63.469 45.2196C68.4098 46.0472 68.4098 46.0472 69.6777 47.5442Z" fill="#EB514F"/>
<path d="M110.24 88.8534C109.017 92.2819 107.792 95.7099 106.566 99.1374C105.997 100.73 105.427 102.323 104.859 103.917C102.038 111.823 99.1666 119.703 96.1539 127.539C95.2872 127.532 94.4431 127.497 93.5831 127.401C93.3499 127.375 93.1166 127.349 92.8762 127.322C92.6355 127.295 92.3947 127.267 92.1466 127.239C91.7951 127.2 91.7951 127.2 91.4364 127.16C89.7159 126.968 88.0007 126.751 86.2832 126.533C90.8908 113.676 95.4984 100.82 100.246 87.5733C109.518 88.5944 109.518 88.5944 110.24 88.8534Z" fill="#E4803D"/>
<path d="M133.91 74.3184C133.053 77.5044 132.144 80.6728 131.195 83.8329C131.145 83.9993 131.096 84.1657 131.044 84.3372C130.546 86.0015 130.047 87.6601 129.435 89.2874C128.695 89.0983 127.956 88.9092 127.194 88.7144C125.409 93.6955 123.624 98.6767 121.784 103.809C121.719 103.785 121.654 103.762 121.587 103.738C123.083 99.5648 124.579 95.3914 126.119 91.0915C124.535 90.8796 122.95 90.6678 121.317 90.4495C120.828 90.3838 120.339 90.3182 119.835 90.2505C119.429 90.1964 119.022 90.1423 118.616 90.0884C118.396 90.0592 118.176 90.0299 117.95 89.9998C116.2 89.7702 114.448 89.5671 112.693 89.3853C112.511 89.3658 112.329 89.3463 112.142 89.3261C111.904 89.3016 111.904 89.3016 111.662 89.2765C111.226 89.2066 111.226 89.2066 110.438 88.9241C110.944 86.8677 111.631 84.8914 112.351 82.9025C112.47 82.5723 112.589 82.242 112.707 81.9118C113.017 81.0509 113.327 80.1905 113.638 79.3302C113.956 78.4488 114.273 77.5671 114.59 76.6854C115.21 74.9616 115.832 73.2383 116.454 71.5153C116.572 71.534 116.689 71.5527 116.81 71.572C124.726 72.8621 124.726 72.8621 132.672 73.9612C133.121 74.0359 133.121 74.0359 133.91 74.3184Z" fill="#AE3C4A"/>
<path d="M117.557 56.0281C117.769 56.1179 117.982 56.2078 118.201 56.3003C119.168 56.7792 119.689 57.2352 120.139 58.2482C120.35 58.968 120.423 59.4823 120.2 60.2121C119.305 61.8641 118.247 62.625 116.524 63.2538C115.724 63.3125 115.725 63.3125 115.195 63.2379C115.147 63.3726 115.099 63.5072 115.049 63.6459C110.656 63.913 110.656 63.913 109.142 63.3705C109.094 63.5052 109.046 63.6398 108.996 63.7785C108.724 63.7086 108.724 63.7086 108.446 63.6373C107.763 63.4628 107.08 63.2895 106.398 63.1169C106.104 63.0424 105.81 62.9674 105.516 62.892C105.091 62.7829 104.665 62.675 104.239 62.5681C104.1 62.5332 103.961 62.4982 103.818 62.4623C103.095 62.2863 102.397 62.1595 101.653 62.1099C100.421 61.9948 99.3929 61.373 98.3174 60.8002C98.1075 60.6919 97.8975 60.5836 97.6813 60.472C96.162 59.6825 96.162 59.6825 95.6985 59.3544C95.0562 58.9336 94.325 58.7085 93.6081 58.4471C93.4369 58.3842 93.2658 58.3213 93.0894 58.2565C92.5308 58.0524 91.9715 57.8505 91.4118 57.6493C91.2217 57.5806 91.0316 57.5119 90.8358 57.4412C87.9689 56.4107 85.1259 55.5642 82.1441 54.9249C80.046 54.4579 78.1813 53.6679 76.3134 52.6124C76.1148 52.5007 75.9161 52.389 75.7114 52.2739C73.2553 50.864 70.7744 49.3058 68.9206 47.1073C68.4432 46.5974 67.9314 46.349 67.2998 46.0733C67.5432 46.0086 67.7866 45.9439 68.0373 45.8773C67.9622 45.7501 67.8871 45.6229 67.8097 45.4918C67.1203 44.2751 66.5965 43.3375 66.9615 41.8827C67.4426 40.3851 67.4426 40.3851 68.0208 39.8094C68.5074 39.6008 68.5074 39.6008 69.1115 39.704C69.82 40.0967 70.0017 40.4283 70.3676 41.1594C74.078 47.9793 80.1229 51.7209 86.7461 55.114C86.6254 54.9533 86.5047 54.7925 86.3803 54.6269C86.2076 54.396 86.0349 54.1651 85.8623 53.9341C85.7687 53.8089 85.675 53.6837 85.5786 53.5546C85.0432 52.8353 84.5158 52.111 83.9982 51.3779C82.5785 49.3673 81.1145 47.433 79.4784 45.6041C79.3043 45.4091 79.1302 45.2141 78.9508 45.0132C76.6506 42.5672 73.8911 41.1379 70.8948 39.7659C70.9189 39.6985 70.943 39.6312 70.9679 39.5619C74.7856 40.7178 78.013 42.9157 80.7119 45.9077C81.0498 46.214 81.0498 46.214 81.5534 46.209C82.2606 46.3471 82.4773 46.5975 82.9543 47.1367C83.1833 47.3929 83.1833 47.3929 83.4169 47.6542C83.5753 47.8373 83.7336 48.0204 83.8967 48.209C84.0591 48.3932 84.2214 48.5774 84.3887 48.7672C85.529 50.0749 86.596 51.4103 87.5503 52.8703C87.6017 52.7499 87.6532 52.6294 87.7062 52.5054C87.7776 52.347 87.849 52.1886 87.9225 52.0254C87.9916 51.8686 88.0607 51.7118 88.1319 51.5502C88.4507 51.0312 88.7766 50.8054 89.289 50.5011C89.2237 50.7136 89.1585 50.9261 89.0912 51.145C89.0065 51.4279 88.922 51.7108 88.8375 51.9937C88.7943 52.1333 88.7512 52.2728 88.7068 52.4166C88.4632 53.2399 88.3177 53.9419 88.4183 54.7926C88.6797 55.1797 88.6797 55.1797 89.0605 55.4831C89.1815 55.6045 89.3026 55.7259 89.4273 55.851C90.4785 56.7259 92.0318 57.289 93.4094 57.1567C94.1161 56.9976 94.7313 56.7374 95.3917 56.4303C96.7453 55.8509 98.0761 55.6149 99.5148 55.403C99.9954 55.3277 100.476 55.2523 100.956 55.177C101.306 55.1242 101.306 55.1242 101.663 55.0704C102.595 54.9238 103.522 54.7506 104.45 54.5737C104.977 54.5122 104.977 54.5122 105.569 54.7241C105.586 54.8821 105.602 55.04 105.62 55.2027C106.027 55.1421 106.027 55.1421 106.442 55.0803C107.113 54.9892 107.77 54.9331 108.445 54.9207C109.603 54.9701 109.603 54.9701 110.563 54.4423C113.062 54.4088 115.289 55.0471 117.557 56.0281Z" fill="#FC953E"/>
<path d="M91.5306 57.433C91.7098 57.4968 91.889 57.5606 92.0736 57.6263C94.0242 58.3259 95.8347 59.0834 97.6149 60.1602C98.2631 60.4974 98.9223 60.8117 99.5827 61.1239C100.604 61.6224 101.536 62.2287 102.484 62.8575C103.243 63.3514 104.011 63.8247 104.784 64.294C104.929 64.3817 105.073 64.4695 105.222 64.5599C105.524 64.7432 105.826 64.9264 106.129 65.1095C109.535 67.1741 112.906 69.29 116.257 71.4447C115.702 72.9928 115.147 74.541 114.576 76.1362C114.511 76.1128 114.446 76.0895 114.379 76.0655C114.909 74.5846 115.44 73.1038 115.987 71.578C114.923 71.4219 113.859 71.2658 112.795 71.1098C112.433 71.0567 112.071 71.0037 111.71 70.9506C111.189 70.8742 110.668 70.7978 110.147 70.7214C109.986 70.6978 109.825 70.6742 109.659 70.6498C109.035 70.5584 108.412 70.4671 107.786 70.3861C106.311 70.1567 105.141 69.424 103.907 68.6299C103.522 68.3861 103.136 68.1425 102.751 67.8991C102.536 67.7631 102.322 67.6271 102.1 67.487C101.291 66.9761 100.476 66.4737 99.6608 65.9716C99.5107 65.8792 99.3606 65.7867 99.206 65.6915C98.5873 65.3105 97.9685 64.9296 97.3497 64.5489C95.8807 63.6444 94.4124 62.7401 92.9639 61.8022C92.7755 61.6803 92.5871 61.5585 92.3929 61.433C92.0619 61.2177 91.732 61.0008 91.4034 60.7817C89.2759 59.3969 87.038 59.0835 84.567 58.7497C84.0532 58.678 83.5396 58.6056 83.026 58.5331C82.6823 58.4846 82.3386 58.4364 81.9949 58.3884C80.2945 58.1505 78.6003 57.8791 76.9059 57.6049C75.6922 57.4127 74.4791 57.2469 73.2569 57.1106C72.9911 57.0803 72.7253 57.05 72.4514 57.0188C71.946 56.9626 71.44 56.9097 70.9336 56.8612C68.3482 56.5728 66.3346 55.448 64.1732 54.0593C63.8081 53.828 63.443 53.5968 63.0778 53.3656C62.9043 53.255 62.7308 53.1445 62.552 53.0307C61.7761 52.5403 60.9925 52.0631 60.2075 51.5879C60.125 51.8254 60.0425 52.0629 59.9574 52.3075C59.3199 54.1242 58.6554 55.901 57.8174 57.6367C57.7523 57.6133 57.6873 57.59 57.6203 57.566C58.3922 55.412 59.1642 53.258 59.9595 51.0387C60.7694 51.1723 61.5794 51.3059 62.4139 51.4436C64.7044 51.8178 66.9968 52.1796 69.2914 52.5301C69.6292 52.5818 69.967 52.6335 70.3048 52.6855C72.0639 52.9555 73.8202 53.2093 75.5907 53.4025C81.0555 54.0219 86.3763 55.5872 91.5306 57.433Z" fill="#FDE7BF"/>
<path d="M121.981 103.879C123.861 105.219 124.947 106.194 126.05 108.157C128.271 112.101 131.747 115.984 135.95 117.705C136.131 117.779 136.311 117.854 136.497 117.93C136.683 118.006 136.87 118.082 137.062 118.16C137.251 118.238 137.441 118.316 137.637 118.396C138.103 118.588 138.57 118.779 139.038 118.969C136.635 120.949 133.355 121.291 130.385 121.392C130.255 121.345 130.125 121.299 129.99 121.251C129.768 123.113 129.996 124.817 130.28 126.649C130.317 126.967 130.352 127.286 130.382 127.606C126.966 125.808 124.554 122.717 122.504 119.476C121.321 117.633 119.926 116.325 118.231 114.965C117.146 117.994 116.06 121.023 114.942 124.144C114.876 124.121 114.811 124.097 114.744 124.073C117.133 117.409 119.521 110.745 121.981 103.879Z" fill="#DD7D3E"/>
<path d="M60.2074 51.5879C63.0846 52.9679 65.766 54.7337 68.4921 56.3984C66.4658 62.0527 64.4394 67.7069 62.3516 73.5326C61.0423 72.9195 59.8646 72.3535 58.6753 71.5677C58.5384 71.4786 58.4015 71.3896 58.2605 71.2978C57.9759 71.1122 57.6917 70.926 57.4079 70.7392C56.9715 70.4521 56.5338 70.1672 56.0958 69.8826C55.818 69.7011 55.5402 69.5194 55.2625 69.3376C55.1316 69.2523 55.0007 69.167 54.8659 69.0792C53.9573 68.4794 53.9573 68.4794 53.8189 68.1729C54.1135 66.5865 54.6759 65.0615 55.2175 63.5455C55.2998 63.3137 55.3822 63.0818 55.467 62.843C55.64 62.3572 55.8135 61.8716 55.9875 61.3861C56.2543 60.6403 56.5179 59.8934 56.7814 59.1464C56.9503 58.6734 57.1193 58.2005 57.2886 57.7277C57.3673 57.5037 57.4459 57.2796 57.527 57.0488C57.6013 56.8433 57.6757 56.6378 57.7523 56.426C57.817 56.2446 57.8817 56.0631 57.9484 55.8761C58.1541 55.4556 58.1541 55.4556 58.6945 55.1889C58.9084 54.8207 58.9084 54.8207 59.0782 54.3751C59.1447 54.2135 59.2113 54.0519 59.2798 53.8854C59.3474 53.7159 59.4151 53.5464 59.4847 53.3717C59.5545 53.2012 59.6242 53.0306 59.696 52.8549C59.8681 52.4333 60.038 52.0107 60.2074 51.5879Z" fill="#FEC854"/>
<path d="M92.1061 60.9426C92.3722 61.1091 92.3722 61.1091 92.6437 61.2789C93.2147 61.6367 93.7839 61.997 94.3532 62.3575C94.7464 62.6046 95.1397 62.8515 95.5331 63.0982C96.49 63.6989 97.4456 64.3017 98.4007 64.9054C99.117 65.3579 99.8342 65.8091 100.551 66.2602C101.372 66.7763 102.191 67.2936 103.01 67.8121C103.94 68.3996 104.877 68.9748 105.817 69.5447C105.769 69.6793 105.721 69.8139 105.671 69.9526C103.681 69.7521 101.707 69.4849 99.7307 69.1892C98.8931 69.0639 98.0552 68.9403 97.2174 68.8165C97.0514 68.7919 96.8854 68.7674 96.7143 68.742C95.2634 68.5275 93.8114 68.3203 92.3588 68.1165C92.1469 68.0865 91.9349 68.0566 91.7165 68.0257C90.8169 67.899 89.9172 67.7748 89.0158 67.6602C88.8703 67.6412 88.7248 67.6223 88.5749 67.6027C88.2089 67.5552 87.8425 67.5097 87.4761 67.4645C85.8932 67.1614 84.695 66.4865 83.3548 65.6234C82.9665 65.3778 82.578 65.1325 82.1894 64.8874C81.9789 64.7543 81.7684 64.6212 81.5515 64.4841C80.4285 63.779 79.2979 63.087 78.1664 62.3961C77.7943 62.1687 77.4224 61.9408 77.0506 61.7128C74.255 60.0045 71.4337 58.3457 68.6164 56.673C66.8554 61.5868 65.0944 66.5007 63.28 71.5634C63.2149 71.5401 63.1499 71.5168 63.0829 71.4928C64.868 66.5116 66.6531 61.5305 68.4924 56.3984C71.4048 56.664 71.4048 56.664 72.3709 56.793C72.5959 56.823 72.8208 56.8529 73.0526 56.8838C73.2907 56.9162 73.5288 56.9487 73.774 56.9821C74.0308 57.0168 74.2876 57.0514 74.5521 57.0872C76.9719 57.4161 79.3882 57.7669 81.8044 58.1193C81.9911 58.1465 82.1778 58.1737 82.3702 58.2018C83.4032 58.3526 84.4359 58.5055 85.4683 58.6599C85.8442 58.7151 86.2207 58.7667 86.5972 58.8178C88.6705 59.1104 90.3457 59.8203 92.1061 60.9426Z" fill="#F5805F"/>
<path d="M69.6774 47.5442C71.8014 49.8214 74.413 51.3011 77.1289 52.7395C77.3216 52.8427 77.5144 52.9458 77.713 53.0521C77.8866 53.1432 78.0603 53.2343 78.2392 53.3281C78.4277 53.4543 78.4277 53.4543 78.62 53.5831C78.6368 53.741 78.6536 53.899 78.6709 54.0617C74.4154 53.471 70.1611 52.8723 65.9116 52.2431C65.524 52.1859 65.1362 52.1292 64.7484 52.073C64.2037 51.9939 63.6592 51.9129 63.1148 51.8315C62.875 51.7972 62.875 51.7972 62.6303 51.7622C61.6868 51.6186 60.8465 51.389 59.9593 51.0387C59.8672 51.2995 59.775 51.5602 59.6801 51.8289C58.592 54.8935 57.4476 57.9348 56.288 60.9728C56.1062 61.4501 55.9244 61.9275 55.7426 62.4048C55.3042 63.5562 54.8652 64.7074 54.4259 65.8585C54.3608 65.8352 54.2958 65.8119 54.2288 65.7879C55.9656 60.9413 57.7025 56.0948 59.492 51.1014C57.2952 49.8584 57.2952 49.8584 55.054 48.5902C54.3151 48.1496 53.5803 47.7082 52.8501 47.2537C52.4763 47.0233 52.1024 46.7931 51.7284 46.5631C51.5332 46.443 51.338 46.3228 51.1369 46.1991C49.8858 45.4334 48.6282 44.679 47.3712 43.9235C47.1159 43.77 46.8605 43.6165 46.6052 43.463C46.0104 43.1055 45.4155 42.7481 44.8205 42.3908C44.659 42.6368 44.4975 42.8827 44.331 43.1361C44.4517 42.7995 44.5723 42.463 44.6965 42.1162C49.0012 42.7689 53.2939 43.4822 57.5839 44.2186C58.3122 44.3435 59.0407 44.4673 59.7694 44.59C60.6665 44.7412 61.5632 44.8943 62.4596 45.0487C62.7959 45.1063 63.1322 45.1633 63.4687 45.2196C68.4095 46.0472 68.4095 46.0472 69.6774 47.5442Z" fill="#EA6261"/>
<path d="M115.195 63.2379C115.333 63.322 115.471 63.406 115.613 63.4926C118.549 65.2778 121.501 67.0268 124.487 68.724C127.412 70.3875 130.307 72.1026 133.195 73.8319C133.147 73.9665 133.099 74.1011 133.049 74.2398C130.07 73.9159 127.126 73.476 124.179 72.9448C122.385 72.622 120.59 72.3296 118.783 72.081C118.619 72.0576 118.454 72.0343 118.285 72.0103C118.144 71.9912 118.004 71.9721 117.859 71.9524C117.44 71.8685 117.44 71.8685 116.455 71.5153C116.117 72.4577 115.779 73.4 115.431 74.371C115.366 74.3477 115.301 74.3244 115.234 74.3003C115.572 73.358 115.91 72.4156 116.258 71.4446C116.058 71.3476 115.858 71.2505 115.653 71.1504C114.531 70.5758 113.471 69.8985 112.401 69.2301C112.176 69.09 111.951 68.95 111.719 68.8057C111.122 68.4344 110.525 68.0626 109.929 67.6905C108.867 67.0281 107.804 66.3668 106.742 65.7057C106.517 65.5658 106.293 65.426 106.062 65.2819C104.637 64.3956 103.202 63.5332 101.742 62.7064C101.265 62.3888 101.265 62.3888 101.017 61.8396C102.348 61.9256 103.58 62.1675 104.867 62.5001C105.137 62.5671 105.137 62.5671 105.413 62.6354C106.636 62.9462 107.817 63.3322 108.996 63.7785C109.044 63.6439 109.093 63.5092 109.142 63.3705C109.409 63.3909 109.675 63.4112 109.949 63.4322C110.303 63.4575 110.657 63.4828 111.011 63.5081C111.186 63.5216 111.361 63.5352 111.541 63.5492C112.546 63.619 113.452 63.5789 114.458 63.434C114.653 63.5039 114.848 63.5738 115.049 63.6459C115.097 63.5113 115.145 63.3766 115.195 63.2379Z" fill="#EB6462"/>
<path d="M119.882 47.5006C121.522 50.0045 121.273 53.6264 120.93 56.5463C120.773 57.3358 120.577 58.0967 120.323 58.8607C120.229 58.6469 120.136 58.4332 120.04 58.2129C118.975 56.3774 116.409 55.643 114.485 55.0897C111.969 54.4985 109.312 54.3725 106.737 54.6878C106.233 54.7321 106.233 54.7321 105.839 54.5908C106.39 52.8379 107.198 51.251 108.048 49.6282C108.182 49.3691 108.316 49.1098 108.45 48.8506C109.43 46.9652 109.43 46.9652 109.822 46.5809C109.716 46.467 109.61 46.353 109.5 46.2356C110.245 46.0911 110.991 45.9522 111.737 45.8142C111.945 45.7738 112.153 45.7334 112.367 45.6917C115.144 45.1847 117.943 45.1844 119.882 47.5006Z" fill="#FDC666"/>
<path d="M78.1556 31.7225C78.3534 31.7874 78.5511 31.8524 78.7549 31.9193C80.149 32.5869 81.1247 33.7839 82.1301 34.9451C82.3626 35.211 82.5952 35.4769 82.8278 35.7427C82.979 35.9169 82.979 35.9169 83.1332 36.0946C83.4411 36.4435 83.756 36.7844 84.074 37.1235C84.0286 37.2395 83.9831 37.3555 83.9363 37.475C83.3948 38.9127 83.0405 40.3595 82.7112 41.8572C82.0953 44.64 82.0953 44.64 81.595 45.9025C80.7205 45.2227 79.9052 44.5278 79.1145 43.7476C77.958 42.6484 76.671 41.91 75.3036 41.1159C75.192 41.0365 75.0805 40.9571 74.9656 40.8753C74.2316 40.3969 73.3984 40.1311 72.5831 39.8244C72.4035 39.7515 72.2239 39.6785 72.0389 39.6033C70.4532 39.0113 69.5702 39.2719 68.0545 39.9709C67.9121 40.0481 67.7698 40.1253 67.6231 40.2048C69.2938 37.0293 71.7101 33.1121 75.1032 31.6797C76.2582 31.3078 77.0401 31.3426 78.1556 31.7225Z" fill="#FEC566"/>
<path d="M78.9924 54.4069C79.1759 54.4854 79.3594 54.5638 79.5485 54.6447C80.1413 54.9045 80.73 55.1719 81.3182 55.4419C81.5308 55.5386 81.7433 55.6354 81.9623 55.7351C82.4068 55.9376 82.8512 56.1403 83.2955 56.3434C83.969 56.6506 84.6436 56.9554 85.3185 57.2594C85.7467 57.4527 86.175 57.646 86.6032 57.8394C86.8025 57.929 87.0018 58.0186 87.2071 58.111C88.1155 58.5226 89.0042 58.9386 89.8616 59.4531C89.8374 59.5204 89.8133 59.5877 89.7885 59.657C89.6691 59.6337 89.5498 59.6104 89.4269 59.5864C86.6468 59.0491 83.8597 58.5874 81.0542 58.1957C80.9012 58.1741 80.7481 58.1526 80.5905 58.1305C78.8943 57.8926 77.1971 57.6653 75.4968 57.4561C74.7505 57.3639 74.0045 57.269 73.2586 57.1739C72.9013 57.1293 72.5437 57.0861 72.186 57.0445C69.0986 56.6853 66.7996 55.7467 64.1734 54.0593C63.8083 53.828 63.4432 53.5967 63.078 53.3655C62.9045 53.255 62.731 53.1445 62.5522 53.0307C61.7763 52.5403 60.9927 52.0631 60.2077 51.5879C60.1252 51.8254 60.0427 52.0629 59.9576 52.3075C59.3201 54.1242 58.6556 55.901 57.8176 57.6366C57.7525 57.6133 57.6875 57.59 57.6205 57.566C58.3924 55.412 59.1644 53.258 59.9597 51.0387C61.1746 51.2391 61.1746 51.2391 62.4141 51.4435C64.9119 51.8522 67.4128 52.2414 69.9155 52.6214C70.0782 52.6461 70.2409 52.6709 70.4085 52.6964C70.8849 52.7688 71.3614 52.8408 71.838 52.9129C71.9909 52.9362 72.1439 52.9596 72.3014 52.9836C73.037 53.0949 73.7725 53.1997 74.5113 53.2895C76.1019 53.4889 77.5204 53.7747 78.9924 54.4069Z" fill="#FDE7C0"/>
<path d="M72.5672 39.5596C72.8402 39.6628 72.8402 39.6628 73.1186 39.7681C74.4843 40.3046 75.6379 40.9938 76.8077 41.8849C77.2363 42.1383 77.6686 42.3619 78.1143 42.5834C78.0671 43.0222 78.0671 43.0222 78.019 43.4699C77.7195 43.2629 77.7195 43.2629 77.4139 43.0517C77.1511 42.8711 76.8882 42.6906 76.6254 42.5101C76.4281 42.3736 76.4281 42.3736 76.2269 42.2342C75.681 41.8603 75.1906 41.5356 74.5665 41.3119C74.7335 41.4115 74.9005 41.5111 75.0726 41.6138C79.6214 44.4482 82.7148 49.0218 85.6619 53.4604C86.0625 54.0602 86.4845 54.6303 86.9432 55.1847C84.3655 55.5306 79.5453 51.5486 77.4759 49.9504C74.6193 47.6091 72.4171 44.8095 70.4339 41.6723C69.6857 40.5036 69.6857 40.5036 68.7775 39.4675C70.2744 38.8619 71.1089 38.9785 72.5672 39.5596Z" fill="#FDC04F"/>
<path d="M69.1111 39.704C69.8196 40.0967 70.0012 40.4283 70.3671 41.1594C73.8395 47.5418 79.4054 51.431 85.7094 54.5036C85.8925 54.5941 86.0755 54.6846 86.2641 54.7778C86.4273 54.857 86.5905 54.9361 86.7587 55.0177C87.1399 55.2553 87.1399 55.2553 87.3879 55.8046C87.2578 55.7579 87.1277 55.7113 86.9937 55.6633C86.9454 55.7979 86.8972 55.9325 86.8475 56.0712C86.0451 55.8839 85.2432 55.6948 84.4416 55.5041C84.038 55.4084 83.6339 55.3141 83.2299 55.2199C80.7536 54.6289 78.5328 53.8668 76.313 52.6124C76.1143 52.5007 75.9156 52.389 75.711 52.2739C73.2548 50.8641 70.7739 49.3058 68.9201 47.1073C68.4427 46.5974 67.9309 46.349 67.2994 46.0734C67.5428 46.0087 67.7861 45.944 68.0369 45.8773C67.9618 45.7501 67.8866 45.6229 67.8093 45.4918C67.1198 44.2752 66.596 43.3375 66.9611 41.8827C67.4421 40.3851 67.4421 40.3851 68.0203 39.8095C68.5069 39.6008 68.5069 39.6008 69.1111 39.704Z" fill="#FC963E"/>
<path d="M116.321 56.2181C116.505 56.2824 116.689 56.3466 116.879 56.4129C117.056 56.4768 117.233 56.5408 117.415 56.6068C117.574 56.6643 117.733 56.7218 117.897 56.7811C118.363 57.0135 118.633 57.2805 118.965 57.6837C112.75 60.9276 105.334 60.6722 98.7854 59.2993C98.6482 59.2708 98.511 59.2423 98.3696 59.2129C95.8984 58.6933 95.8984 58.6933 95.2211 58.1514C95.5019 58.1167 95.5019 58.1167 95.7884 58.0813C97.7866 57.7987 99.7016 57.3434 101.654 56.8027C105.257 55.8161 108.746 55.1082 112.46 55.3527C112.731 55.3655 113.002 55.3783 113.281 55.3915C114.352 55.4941 115.318 55.8491 116.321 56.2181Z" fill="#FDBF4E"/>
<path d="M63.083 71.4928C65.9811 73.2124 68.8592 74.9481 71.6698 76.8125C72.7329 77.5143 73.8053 78.1968 74.8938 78.8572C75.0171 78.932 75.1403 79.0068 75.2673 79.0838C75.8672 79.447 76.4681 79.8081 77.0703 80.1672C78.2766 80.8929 79.394 81.6419 80.4695 82.5574C80.2283 83.2306 79.987 83.9037 79.7385 84.5972C77.904 83.7913 76.2565 82.7178 74.5715 81.6377C74.2846 81.4549 73.9976 81.2722 73.7106 81.0896C72.8503 80.5418 71.9914 79.9918 71.1327 79.4415C70.8544 79.2633 70.5761 79.0852 70.2978 78.9071C68.4872 77.7476 66.6801 76.5826 64.8746 75.4149C64.6198 75.2501 64.3649 75.0853 64.11 74.9206C63.4996 74.526 62.8892 74.1313 62.2789 73.7366C62.5443 72.9961 62.8096 72.2557 63.083 71.4928Z" fill="#AE3E55"/>
<path d="M100.78 85.4629C100.515 86.2033 100.249 86.9438 99.9759 87.7067C99.7899 87.6738 99.6039 87.641 99.4122 87.6071C96.3636 87.0812 93.2948 86.6895 90.2267 86.2844C89.1425 86.1406 88.0583 85.9965 86.9741 85.8524C86.7176 85.8183 86.461 85.7842 86.1967 85.7491C81.3667 85.1064 81.3667 85.1064 79.6654 84.8012C79.9307 84.0607 80.1961 83.3203 80.4695 82.5574C82.1026 82.7578 83.7355 82.9595 85.3683 83.1622C85.715 83.2052 85.715 83.2052 86.0688 83.2491C88.9582 83.6088 91.8458 83.9807 94.7314 84.3674C95.05 84.41 95.3686 84.4525 95.6871 84.4949C96.1343 84.5544 96.5814 84.6146 97.0285 84.675C97.2852 84.7095 97.5418 84.744 97.8063 84.7795C98.8332 84.9343 99.8024 85.1125 100.78 85.4629Z" fill="#7F2F46"/>
<path d="M114.911 45.4125C114.996 46.2085 114.512 46.8645 114.157 47.5627C114.074 47.7282 113.991 47.8937 113.905 48.0642C113.728 48.415 113.55 48.7655 113.372 49.1157C113.102 49.6492 112.833 50.184 112.565 50.719C112.393 51.0598 112.22 51.4006 112.048 51.7413C111.968 51.9004 111.888 52.0596 111.806 52.2237C111.372 53.0745 110.942 53.8701 110.293 54.5757C109.575 54.6887 109.575 54.6887 108.761 54.6598C108.494 54.6531 108.227 54.6464 107.952 54.6395C107.693 54.6287 107.434 54.6178 107.168 54.6067C106.725 54.6001 106.282 54.5944 105.839 54.5908C106.39 52.8379 107.198 51.2509 108.048 49.6282C108.182 49.369 108.316 49.1098 108.45 48.8505C109.431 46.9652 109.431 46.9652 109.822 46.5809C109.716 46.4669 109.61 46.353 109.501 46.2356C110.278 46.096 111.055 45.9577 111.832 45.8196C112.053 45.7799 112.274 45.7402 112.501 45.6993C112.713 45.6618 112.925 45.6243 113.144 45.5856C113.339 45.5507 113.534 45.5159 113.736 45.48C114.247 45.4046 114.247 45.4046 114.911 45.4125Z" fill="#FEDBAC"/>
<path d="M80.2207 32.9805C80.9701 33.6243 81.6097 34.3447 82.2582 35.0917C82.8558 35.7767 83.4529 36.4607 84.0739 37.1235C84.0285 37.2395 83.983 37.3555 83.9362 37.475C83.3947 38.9127 83.0404 40.3595 82.7111 41.8572C82.0952 44.64 82.0952 44.64 81.5949 45.9025C80.6833 45.1938 79.8016 44.4597 78.9419 43.6858C78.7701 43.5316 78.5983 43.3775 78.4213 43.2186C78.0406 42.7873 78.0406 42.7873 78.0629 42.1048C78.2121 41.4869 78.3681 40.8728 78.53 40.2581C79.1546 37.845 79.6925 35.4154 80.2207 32.9805Z" fill="#FEDBAD"/>
<path d="M40.7402 57.5011C41.7131 57.9884 42.6537 58.5013 43.5841 59.0688C43.7082 59.1443 43.8323 59.2199 43.9601 59.2977C44.3635 59.5437 44.7663 59.7907 45.1691 60.0378C45.3763 60.1646 45.3763 60.1646 45.5878 60.294C47.7088 61.5928 49.8191 62.9088 51.9199 64.241C52.0468 64.3212 52.1737 64.4014 52.3045 64.484C52.6604 64.7092 53.0157 64.9356 53.3709 65.162C53.5724 65.2902 53.7739 65.4185 53.9815 65.5506C54.4262 65.8585 54.4262 65.8585 54.5502 66.1331C54.4412 66.4821 54.32 66.8275 54.1925 67.1702C54.1235 67.357 54.0545 67.5438 53.9835 67.7363C53.9293 67.8804 53.8751 68.0245 53.8192 68.1729C52.6391 67.6106 51.5284 66.9939 50.425 66.2911C50.2688 66.1926 50.1126 66.094 49.9517 65.9924C49.4506 65.6759 48.9504 65.3582 48.4501 65.0403C48.1063 64.8226 47.7625 64.605 47.4186 64.3874C40.9171 60.2695 40.9171 60.2695 40.0092 59.5409C40.2505 58.8678 40.4917 58.1946 40.7402 57.5011Z" fill="#AD3E56"/>
<path d="M126.924 88.8477C126.659 89.5882 126.394 90.3286 126.12 91.0915C125.836 91.0534 125.552 91.0153 125.259 90.976C124.181 90.8314 123.102 90.6875 122.024 90.5437C121.562 90.482 121.1 90.4202 120.637 90.3582C117.993 90.0033 115.349 89.6602 112.694 89.3853C112.421 89.356 112.421 89.356 112.143 89.3262C111.984 89.3098 111.826 89.2934 111.662 89.2765C111.227 89.2067 111.227 89.2067 110.438 88.9241C110.704 88.1837 110.969 87.4432 111.242 86.6803C115.066 87.1494 118.889 87.6227 122.707 88.1336C123.023 88.1758 123.339 88.2178 123.655 88.2596C124.095 88.3179 124.534 88.3772 124.974 88.4366C125.223 88.4701 125.472 88.5035 125.729 88.538C126.333 88.6358 126.333 88.6358 126.924 88.8477Z" fill="#813146"/>
<path d="M111.242 86.6803C109.987 90.1806 108.733 93.6809 107.441 97.2872C107.376 97.2639 107.311 97.2406 107.244 97.2166C108.143 94.5007 109.043 91.7849 109.97 88.9868C109.318 88.9025 108.666 88.8182 107.993 88.7314C107.363 88.6495 106.732 88.5673 106.101 88.4851C105.662 88.428 105.223 88.3712 104.784 88.3146C104.154 88.2333 103.523 88.1511 102.893 88.0688C102.696 88.0436 102.499 88.0184 102.297 87.9924C102.023 87.9564 102.023 87.9564 101.743 87.9196C101.582 87.8987 101.421 87.8778 101.255 87.8563C100.837 87.7852 100.837 87.7852 100.246 87.5733C95.6384 100.43 91.0308 113.287 86.2836 126.533C86.2186 126.51 86.1535 126.487 86.0865 126.463C90.9595 112.865 95.8324 99.2682 100.853 85.2589C110.946 86.5744 110.946 86.5744 111.242 86.6803Z" fill="#BD6740"/>
<path d="M29.4531 38.7249C29.8251 39.5488 29.8251 39.5488 29.854 40.1589C30.0825 40.8805 30.1901 40.9303 30.817 41.2682C31.1312 41.4159 31.4475 41.5588 31.7658 41.6973C31.927 41.7718 32.0882 41.8463 32.2543 41.9231C32.6519 42.1062 33.0519 42.2837 33.4525 42.46C31.8114 43.4428 31.8114 43.4428 31.3477 43.6275C30.839 43.9282 30.7688 44.1448 30.5806 44.7063C30.5238 44.8706 30.4671 45.035 30.4086 45.2043C30.3526 45.3761 30.2966 45.5479 30.239 45.7248C30.1799 45.8981 30.1208 46.0715 30.0599 46.25C29.9145 46.6777 29.7728 47.1065 29.6317 47.5356C28.8748 46.9069 28.5225 46.3058 28.1118 45.413C27.8829 45.0226 27.8829 45.0226 27.4759 44.9522C26.8508 44.9849 26.2505 45.0832 25.6326 45.1961C25.3985 45.2383 25.1643 45.2805 24.9231 45.324C24.6558 45.3737 24.6558 45.3737 24.3831 45.4245C24.491 45.2187 24.5989 45.0128 24.71 44.8008C25.5267 43.2427 25.5267 43.2427 25.6636 41.546C25.4622 41.031 25.2472 40.5699 24.955 40.1052C25.0682 39.9939 25.1815 39.8825 25.2983 39.7679C25.9083 39.8912 25.9083 39.8912 26.6374 40.1039C26.8789 40.1733 27.1204 40.2426 27.3692 40.314C27.6486 40.3973 27.6486 40.3973 27.9337 40.4822C28.4351 39.9023 28.9365 39.3224 29.4531 38.7249Z" fill="#FCC469"/>
<path d="M91.3909 57.3972C91.5739 57.462 91.7569 57.5268 91.9455 57.5936C93.7541 58.2373 95.5047 58.8789 97.1541 59.8805C97.5995 60.1506 98.0493 60.3858 98.5173 60.6129C98.6527 60.6787 98.7881 60.7444 98.9276 60.8121C99.2014 60.9434 99.4755 61.074 99.7499 61.2039C100.436 61.5387 100.806 61.7499 101.265 62.3888C100.716 62.2653 100.168 62.1405 99.6195 62.015C99.4704 61.9815 99.3212 61.9481 99.1675 61.9137C96.0043 61.1855 92.962 60.1467 89.911 59.0531C89.2385 58.8125 88.5649 58.5753 87.8912 58.3382C84.3796 57.0901 80.8826 55.7209 77.6128 53.9125C77.6369 53.8452 77.6611 53.7778 77.6859 53.7085C78.5985 53.8996 79.5085 54.1006 80.418 54.3051C80.8075 54.3913 81.1975 54.4751 81.588 54.557C84.9507 55.2646 88.1599 56.2426 91.3909 57.3972Z" fill="#FBC983"/>
<path d="M149.694 77.443C149.865 77.5803 150.036 77.7175 150.212 77.8589C150.221 78.128 150.23 78.3971 150.239 78.6744C150.273 79.1444 150.273 79.1444 150.489 79.5693C151.052 79.9368 151.611 80.1727 152.238 80.4104C152.781 80.6209 152.781 80.6209 153.299 81.0368C152.82 81.6052 152.554 81.7291 151.832 81.9497C151.105 82.2746 150.98 82.5345 150.626 83.2887C150.321 84.1071 150.064 84.9369 149.821 85.7751C149.065 85.3186 148.617 84.6946 148.084 83.9926C147.601 83.5428 147.29 83.5013 146.639 83.4838C146.301 83.5856 145.964 83.6942 145.631 83.8132C145.501 83.7666 145.371 83.72 145.237 83.6719C145.33 83.5079 145.423 83.3439 145.519 83.1749C146.227 81.8997 146.227 81.8997 146.262 80.5058C146.024 79.9939 146.024 79.9939 145.733 79.5381C145.661 79.4162 145.59 79.2942 145.517 79.1685C145.565 79.0339 145.613 78.8993 145.663 78.7606C145.826 78.8127 145.99 78.8648 146.159 78.9185C146.858 79.099 147.448 79.2209 148.174 79.2003C148.844 78.7204 149.263 78.1488 149.694 77.443Z" fill="#FCC570"/>
<path d="M101.73 33.7835C101.86 33.8301 101.99 33.8767 102.124 33.9248C102.14 34.2131 102.14 34.2131 102.156 34.5072C102.276 35.1608 102.276 35.1608 102.681 35.3702C103.129 35.5491 103.577 35.6965 104.039 35.834C104.198 35.8857 104.357 35.9374 104.52 35.9907C104.912 36.1176 105.306 36.2381 105.7 36.3574C105.071 36.9162 104.453 37.4621 103.787 37.9734C103.688 38.4012 103.612 38.8342 103.545 39.2679C103.377 39.9736 103.194 40.6759 103.011 41.3783C102.525 41.0692 102.237 40.8201 101.861 40.3616C101.183 39.7121 100.817 39.592 99.88 39.5655C99.3563 39.7725 98.8801 40.016 98.3898 40.2983C98.2574 40.3645 98.125 40.4307 97.9886 40.4989C97.8585 40.4523 97.7285 40.4057 97.5944 40.3577C97.7565 40.0699 97.7565 40.0699 97.9218 39.7764C98.3389 38.9775 98.6646 38.2468 98.888 37.3686C98.6359 36.5185 98.2165 35.9411 97.6259 35.305C97.7391 35.1937 97.8524 35.0824 97.9692 34.9677C98.3343 35.0442 98.6968 35.1331 99.0574 35.2282C99.9536 35.4066 99.9536 35.4066 100.758 35.0167C101.116 34.6219 101.433 34.2284 101.73 33.7835Z" fill="#FCC570"/>
<path d="M54.4258 65.8585C57.3313 67.7051 60.2066 69.599 63.0825 71.4928C62.8412 72.1659 62.6 72.839 62.3515 73.5325C60.5813 72.7773 59.0125 71.7957 57.4077 70.7392C56.9714 70.4521 56.5337 70.1672 56.0957 69.8826C55.8178 69.701 55.54 69.5194 55.2623 69.3376C55.1315 69.2523 55.0006 69.167 54.8657 69.0792C53.9572 68.4794 53.9572 68.4794 53.8188 68.1729C53.9079 67.7792 54.0082 67.388 54.1145 66.9985C54.172 66.7862 54.2294 66.5738 54.2886 66.3551C54.3339 66.1912 54.3792 66.0273 54.4258 65.8585Z" fill="#DAA156"/>
<path d="M68.4417 21.1634C69.1211 21.7087 69.22 22.3228 69.4406 23.147C69.4811 23.2922 69.5215 23.4374 69.5631 23.587C69.6626 23.9451 69.7598 24.3039 69.8566 24.6628C69.2171 25.4847 68.3528 25.6564 67.4142 25.931C67.2552 25.9816 67.0962 26.0321 66.9323 26.0842C66.52 26.2077 66.0997 26.3002 65.6796 26.3883C64.9758 25.8235 64.9132 25.1628 64.7172 24.3027C64.6802 24.1478 64.6433 23.9928 64.6052 23.8332C64.5143 23.4509 64.4258 23.068 64.3378 22.685C65.2497 22.2145 66.1456 21.8345 67.1173 21.5232C67.3546 21.445 67.5919 21.3669 67.8364 21.2864C68.0361 21.2458 68.2359 21.2052 68.4417 21.1634Z" fill="#D53C4C"/>
<path d="M70.9677 39.5619C75.3329 40.8836 78.5287 43.5852 81.6972 46.8597C82.2664 47.4254 82.8361 47.9907 83.4067 48.5549C83.8209 49.0019 83.8209 49.0019 84.0689 49.5511C84.3465 49.8119 84.6245 50.0725 84.9039 50.3314C85.363 50.7915 85.7434 51.3004 86.1306 51.8248C86.3457 52.1146 86.5664 52.4001 86.7913 52.6819C86.9034 52.8227 87.0155 52.9635 87.131 53.1085C87.2342 53.2366 87.3374 53.3647 87.4437 53.4966C87.5124 53.6058 87.5811 53.715 87.6518 53.8274C87.6036 53.9621 87.5554 54.0967 87.5056 54.2354C87.6357 54.282 87.7658 54.3286 87.8998 54.3767C88.2381 55.2947 88.2381 55.2947 88.0525 55.8124C87.0082 55.3321 86.4485 54.8361 85.7804 53.8905C85.6927 53.7684 85.605 53.6463 85.5146 53.5205C85.2218 53.1121 84.9329 52.7009 84.6444 52.2893C83.0119 49.9727 81.3628 47.7108 79.4782 45.6041C79.3041 45.4091 79.13 45.2141 78.9506 45.0131C76.6504 42.5672 73.8909 41.1378 70.8946 39.7658C70.9187 39.6985 70.9428 39.6312 70.9677 39.5619Z" fill="#EC883C"/>
<path d="M115.636 55.8003C115.612 55.8676 115.588 55.9349 115.563 56.0043C115.285 55.9554 115.285 55.9554 115.002 55.9055C109.783 55.0693 104.927 55.972 99.84 57.4283C95.7584 58.5742 95.7584 58.5742 94.3595 58.0728C94.6206 57.5646 94.7953 57.3538 95.3063 57.1039C96.9729 56.5929 98.6516 56.245 100.357 55.9209C100.587 55.8773 100.816 55.8337 101.052 55.7887C102.389 55.5446 103.715 55.3656 105.065 55.2526C105.58 55.2063 106.088 55.1404 106.6 55.0651C108.259 54.8355 109.914 54.9079 111.575 54.9921C111.77 54.9994 111.965 55.0067 112.167 55.0142C113.439 55.0793 114.461 55.3152 115.636 55.8003Z" fill="#EC8236"/>
<path d="M128.034 100.498C128.181 100.552 128.329 100.606 128.48 100.662C128.64 100.72 128.799 100.777 128.963 100.837C129.13 100.899 129.297 100.96 129.469 101.024C129.637 101.085 129.805 101.147 129.978 101.21C130.394 101.362 130.81 101.515 131.226 101.668C130.888 102.61 130.55 103.553 130.202 104.524C128.966 104.081 127.731 103.638 126.457 103.182C127.173 101.123 127.173 101.123 127.408 100.53C127.678 100.397 127.678 100.397 128.034 100.498Z" fill="#ED9395"/>
<path d="M136.037 64.3488C136.853 64.823 137.053 65.1709 137.301 66.0966C137.205 66.7527 137.205 66.7527 136.863 67.3204C136.083 67.8777 135.707 68.019 134.776 67.8674C133.961 67.3932 133.76 67.0454 133.512 66.1196C133.608 65.4635 133.608 65.4635 133.951 64.8958C134.73 64.3385 135.106 64.1972 136.037 64.3488Z" fill="#9F4350"/>
<path d="M81.5223 46.1065C82.1871 46.4799 82.6782 46.8763 83.1907 47.4462C83.3293 47.6001 83.468 47.754 83.6108 47.9125C83.755 48.0757 83.8993 48.2389 84.0479 48.4071C84.1959 48.5732 84.3438 48.7394 84.4962 48.9106C85.6046 50.1698 86.6196 51.4641 87.5501 52.8702C87.6273 52.6896 87.6273 52.6896 87.706 52.5053C87.7774 52.347 87.8488 52.1886 87.9224 52.0254C88.026 51.7902 88.026 51.7902 88.1318 51.5502C88.4505 51.0311 88.7764 50.8053 89.2888 50.5011C89.2235 50.7136 89.1583 50.9261 89.091 51.145C89.0064 51.4279 88.9218 51.7107 88.8373 51.9937C88.7726 52.203 88.7726 52.203 88.7066 52.4166C88.4641 53.2362 88.2927 53.9468 88.4181 54.7925C88.5891 54.9298 88.7601 55.067 88.9363 55.2084C88.4736 55.2705 88.4736 55.2705 88.0017 55.3338C87.9681 55.018 87.9345 54.7021 87.8999 54.3767C87.7698 54.33 87.6397 54.2834 87.5057 54.2354C87.5539 54.1008 87.6022 53.9661 87.6519 53.8274C87.5295 53.7216 87.4072 53.6157 87.2812 53.5067C86.815 53.0686 86.4258 52.6145 86.0295 52.1095C85.9014 51.9476 85.7734 51.7857 85.6415 51.6189C85.2802 51.1361 85.2802 51.1361 84.9743 50.6515C84.665 50.1698 84.295 49.8576 83.8718 49.4804C83.7581 49.3338 83.6443 49.1871 83.5272 49.0359C83.0742 48.4766 82.5858 48.0057 82.0579 47.5212C81.8792 47.3566 81.7005 47.192 81.5164 47.0224C81.3809 46.8988 81.2455 46.7752 81.1059 46.6478C81.2433 46.4692 81.3807 46.2905 81.5223 46.1065Z" fill="#F3A251"/>
<path d="M105.568 54.7241C105.472 54.9934 105.375 55.2626 105.276 55.54C105.11 55.5471 104.945 55.5541 104.775 55.5613C103.088 55.6483 101.457 55.8609 99.7922 56.1788C99.5644 56.2192 99.3366 56.2597 99.1019 56.3014C96.4526 56.7199 96.4526 56.7199 94.1622 58.0022C93.5768 57.7924 92.9914 57.5826 92.3883 57.3665C92.8505 57.2436 93.3139 57.1259 93.7789 57.016C94.3925 56.8564 94.9416 56.6288 95.5209 56.3636C96.8186 55.8218 98.1236 55.6181 99.4973 55.4113C99.9803 55.3348 100.463 55.2582 100.946 55.1816C101.181 55.1456 101.416 55.1096 101.658 55.0726C102.592 54.9238 103.521 54.7504 104.45 54.5734C104.977 54.5122 104.977 54.5122 105.568 54.7241Z" fill="#F9A54A"/>
<path d="M119.775 34.0501C120.384 34.4841 120.384 34.4841 120.684 34.8504C120.802 35.597 120.578 36.0656 120.244 36.7358C119.746 37.1182 119.746 37.1182 119.163 37.2692C118.402 37.1359 118.088 36.9922 117.627 36.3589C117.43 35.5121 117.594 35.0897 117.997 34.319C118.709 33.7389 118.931 33.7303 119.775 34.0501Z" fill="#C83E50"/>
<path d="M48.0293 28.8236C48.9001 29.4442 48.9001 29.4442 49.0103 30.0815C48.8987 30.7032 48.8987 30.7032 48.5717 31.3053C47.9381 31.7544 47.9381 31.7544 47.2207 31.9721C46.5832 31.7436 46.247 31.5153 45.8238 30.9823C45.6864 30.2326 45.9144 29.7678 46.2509 29.0926C46.9633 28.5124 47.1856 28.5038 48.0293 28.8236Z" fill="#E05557"/>
<path d="M24.0907 80.9968C24.378 81.3587 24.378 81.3587 24.4627 81.8206C24.3099 82.5571 24.3099 82.5571 23.951 83.2485C23.3494 83.6083 23.3494 83.6083 22.673 83.7112C21.9818 83.4635 21.6663 83.2663 21.3005 82.6151C21.2479 81.7933 21.5123 81.3699 21.9735 80.6984C22.843 80.174 23.3245 80.4226 24.0907 80.9968Z" fill="#DD8288"/>
<path d="M30.4806 43.9267C30.2006 45.1177 29.9205 46.3086 29.6321 47.5356C28.8316 46.8097 28.5483 46.3613 28.1121 45.413C27.8795 45.0138 27.8795 45.0138 27.4293 44.957C26.9586 44.9657 26.9586 44.9657 26.3832 45.1197C25.7854 45.2364 25.7854 45.2364 24.9969 44.9538C25.0452 44.8192 25.0934 44.6846 25.1432 44.5459C25.9586 44.4146 26.7743 44.2855 27.5901 44.1568C27.8226 44.1194 28.0551 44.0819 28.2946 44.0433C28.6272 43.9912 28.6272 43.9912 28.9665 43.938C29.1716 43.9054 29.3766 43.8728 29.5878 43.8392C30.0864 43.7855 30.0864 43.7855 30.4806 43.9267Z" fill="#F89440"/>
<path d="M13.4965 58.8147C14.0978 59.2316 14.0978 59.2316 14.3458 59.7808C14.1853 60.5002 14.1853 60.5002 13.8341 61.2087C13.2201 61.5641 13.2201 61.5641 12.5561 61.6714C11.9906 61.4529 11.7322 61.2354 11.3733 60.744C11.2196 60.0575 11.3859 59.6878 11.7104 59.0665C12.4329 58.4916 12.651 58.4772 13.4965 58.8147Z" fill="#DB7279"/>
<path d="M89.7301 92.0911C89.996 92.2196 90.2619 92.3481 90.5358 92.4805C90.7602 92.589 90.7602 92.589 90.989 92.6996C91.4309 92.9308 91.4309 92.9308 92.1462 93.4173C91.7508 94.1112 91.3554 94.805 90.9479 95.5198C90.1506 95.0822 89.3533 94.6445 88.5318 94.1936C88.9273 93.4998 89.3227 92.8059 89.7301 92.0911Z" fill="#F4A84B"/>
<path d="M58.1543 55.4556C58.2193 55.4789 58.2844 55.5022 58.3514 55.5262C57.9867 57.1069 57.5002 58.6194 56.9466 60.1442C56.8663 60.367 56.7861 60.5898 56.7033 60.8194C56.1212 62.4179 55.4951 63.9821 54.7694 65.5211C54.8974 65.5922 55.0253 65.6633 55.1571 65.7365C56.1692 66.312 57.0811 66.9166 57.9725 67.6698C58.3572 67.9623 58.7356 68.1615 59.1717 68.3648C59.88 68.7389 59.9575 68.8304 60.2216 69.5467C58.9208 68.9389 57.7393 68.2281 56.5478 67.4244C56.3782 67.3117 56.2086 67.199 56.0338 67.0829C54.7933 66.2533 54.7933 66.2533 54.4261 65.8585C55.6564 62.4255 56.8867 58.9926 58.1543 55.4556Z" fill="#F7C47C"/>
<path d="M121.981 103.879C123.93 105.268 123.93 105.268 124.572 105.959C124.524 106.093 124.476 106.228 124.426 106.367C124.285 106.25 124.143 106.132 123.997 106.012C123.341 105.497 122.648 105.031 121.959 104.562C120.777 107.86 119.595 111.159 118.377 114.557C118.743 114.764 119.11 114.971 119.487 115.185C119.439 115.319 119.39 115.454 119.341 115.593C118.974 115.386 118.608 115.178 118.231 114.965C117.146 117.994 116.06 121.023 114.942 124.144C114.876 124.121 114.811 124.097 114.744 124.073C117.133 117.409 119.521 110.745 121.981 103.879Z" fill="#E08E7B"/>
<path d="M72.5672 39.5596C72.8402 39.6628 72.8402 39.6628 73.1186 39.7681C74.4843 40.3046 75.6379 40.9938 76.8077 41.8849C77.2363 42.1383 77.6686 42.3619 78.1143 42.5834C78.0671 43.0222 78.0671 43.0222 78.019 43.4699C77.8345 43.34 77.65 43.2101 77.4598 43.0762C76.107 42.1339 74.7865 41.2478 73.2599 40.6135C73.2358 40.6808 73.2117 40.7481 73.1868 40.8175C72.9624 40.7483 72.7381 40.6792 72.5069 40.608C72.2111 40.5193 71.9154 40.4306 71.6196 40.3421C71.4718 40.2963 71.3241 40.2505 71.1719 40.2033C70.4139 39.9787 70.0101 39.878 69.2226 40.0873C69.0757 39.8828 68.9288 39.6782 68.7775 39.4675C70.2744 38.8619 71.1089 38.9785 72.5672 39.5596Z" fill="#F7A962"/>
<path d="M119.579 57.213C119.916 57.9383 119.916 57.9383 120.001 58.5154C119.797 58.4137 119.797 58.4137 119.589 58.3099C118.846 58.1184 118.439 58.3174 117.738 58.625C117.632 58.511 117.526 58.3971 117.417 58.2797C117.863 58.0597 118.309 57.8397 118.768 57.613C116.418 55.7274 113.086 55.075 110.146 54.9836C110.284 54.805 110.421 54.6263 110.563 54.4423C111.095 54.4194 111.565 54.4338 112.09 54.4861C112.242 54.5009 112.395 54.5157 112.552 54.5309C114.878 54.8081 117.776 55.6545 119.579 57.213Z" fill="#F59F43"/>
<path d="M71.8978 66.1353C72.0139 67.6731 72.0139 67.6731 71.6849 68.591C70.6983 68.5792 70.6983 68.5792 69.6917 68.5672C69.6638 68.227 69.6379 67.8867 69.6128 67.5462C69.5981 67.3567 69.5835 67.1672 69.5684 66.972C69.5613 66.4488 69.5613 66.4488 69.7806 65.8369C70.5902 65.8241 71.1282 65.8595 71.8978 66.1353Z" fill="#F9AF5C"/>
<path d="M35.9974 91.1766C36.5782 91.4567 36.5782 91.4567 36.8824 91.8103C36.9927 92.5756 36.6574 93.01 36.2414 93.6378C35.5039 93.8338 35.5039 93.8338 35.0248 93.619C34.5475 93.2419 34.341 93.0641 34.2195 92.4528C34.6288 91.4934 34.9205 90.9194 35.9974 91.1766Z" fill="#FBB768"/>
<path d="M143.521 50.6021C144.025 51.1438 144.386 51.6079 144.773 52.2303C144.873 52.3901 144.973 52.5499 145.075 52.7145C145.15 52.8356 145.225 52.9568 145.302 53.0816C144.794 53.7421 144.596 53.7317 143.814 53.8576C143.624 53.89 143.434 53.9224 143.238 53.9558C142.746 54.007 142.746 54.007 142.352 53.8658C142.738 52.7888 143.124 51.7118 143.521 50.6021Z" fill="#A13C4E"/>
<path d="M97.0333 59.8185C97.7906 60.263 98.5708 60.6526 99.3564 61.043C99.5007 61.1149 99.645 61.1867 99.7936 61.2608C100.136 61.4306 100.478 61.5999 100.82 61.769C100.796 61.8363 100.772 61.9036 100.747 61.9729C100.158 61.768 99.5691 61.5616 98.9807 61.3544C98.7284 61.2669 98.7284 61.2669 98.4711 61.1776C98.3114 61.1211 98.1518 61.0646 97.9872 61.0064C97.8393 60.9546 97.6913 60.9028 97.5388 60.8494C97.1991 60.7015 97.1991 60.7015 97.0751 60.4269C95.5095 59.6132 93.8476 58.9803 92.2125 58.3246C91.9913 58.2354 91.7701 58.1462 91.5422 58.0543C91.0045 57.8375 90.4666 57.6212 89.9285 57.4054C89.9527 57.3381 89.9768 57.2707 90.0017 57.2014C92.4543 57.6781 94.8941 58.5196 97.0333 59.8185Z" fill="#FCBE6D"/>
<path d="M47.591 73.8386C48.1074 74.1819 48.1074 74.1819 48.2314 74.4566C48.0536 75.069 48.0536 75.069 47.7928 75.6804C47.2524 75.9471 47.2524 75.9471 46.6428 75.7862C46.0698 75.5233 46.0698 75.5233 45.8218 74.9741C45.9795 74.3401 45.9795 74.3401 46.2604 73.7502C46.9979 73.5542 46.9979 73.5542 47.591 73.8386Z" fill="#FBF0F0"/>
<path d="M115.637 55.8003C115.613 55.8676 115.588 55.9349 115.564 56.0043C115.286 55.9554 115.286 55.9554 115.002 55.9056C112.188 55.4546 109.399 55.4048 106.556 55.8178C105.991 55.8233 105.772 55.6984 105.35 55.3361C105.668 55.2712 105.988 55.2086 106.307 55.1469C106.574 55.0943 106.574 55.0943 106.846 55.0405C108.42 54.8236 110 54.9123 111.575 54.9922C111.771 54.9994 111.966 55.0067 112.167 55.0142C113.439 55.0793 114.462 55.3153 115.637 55.8003Z" fill="#E88942"/>
<path d="M91.3659 74.4934C91.4899 74.7681 91.4899 74.7681 91.3121 75.3805C91.0513 75.9919 91.0513 75.9919 90.5109 76.2586C89.8238 75.9261 89.8238 75.9261 89.2043 75.5602C89.3391 74.3629 89.3391 74.3629 89.7968 73.9455C90.4784 73.827 90.8165 74.1113 91.3659 74.4934Z" fill="#EEA363"/>
<path d="M119.116 78.7126C119.532 79.0632 119.532 79.0632 119.707 79.8164C119.269 80.7044 119.269 80.7044 118.874 80.899C118.434 80.6752 117.999 80.4426 117.568 80.2006C117.703 78.9983 117.703 78.9983 118.173 78.5904C118.62 78.5061 118.62 78.5061 119.116 78.7126Z" fill="#EFA362"/>
<path d="M22.2672 26.1945C22.7417 26.4221 22.7417 26.4221 22.9897 26.9713C22.8524 27.5827 22.7414 27.8969 22.2531 28.2898C21.8136 28.3912 21.8136 28.3912 21.3145 28.1548C20.9012 27.834 20.9012 27.834 20.7772 27.5594C20.9549 26.947 20.9549 26.947 21.2158 26.3356C21.7562 26.0689 21.7562 26.0689 22.2672 26.1945Z" fill="#D95A5F"/>
<path d="M110.366 54.3717C110.293 54.5736 110.221 54.7756 110.146 54.9836C108.547 55.2227 106.961 55.3553 105.349 55.3361C105.566 54.7303 105.784 54.1244 106.007 53.5003C106.072 53.5236 106.137 53.5469 106.204 53.5709C106.084 53.9075 105.963 54.244 105.839 54.5908C106.093 54.5684 106.348 54.546 106.61 54.5229C106.946 54.4943 107.282 54.4656 107.618 54.4371C107.869 54.4148 107.869 54.4148 108.126 54.392C108.369 54.3715 108.369 54.3715 108.618 54.3506C108.842 54.3313 108.842 54.3313 109.07 54.3115C109.511 54.2928 109.929 54.3218 110.366 54.3717Z" fill="#FAC38B"/>
<path d="M78.2383 42.858C78.9729 43.5013 79.7045 44.148 80.4351 44.7961C80.5687 44.912 80.7024 45.0278 80.8401 45.1472C81.154 45.4278 81.154 45.4278 81.5955 45.9025C81.5881 46.1278 81.5808 46.353 81.5733 46.5851C80.6727 46.107 80.0039 45.4289 79.2829 44.7141C79.161 44.5946 79.0391 44.4751 78.9135 44.352C78.6146 44.0587 78.3167 43.7644 78.019 43.4699C78.0913 43.268 78.1637 43.066 78.2383 42.858Z" fill="#F9C28C"/>
<path d="M71.373 38.7254C71.5378 38.7839 71.7026 38.8424 71.8724 38.9026C72.1269 38.9965 72.1269 38.9965 72.3866 39.0923C72.6451 39.1823 72.6451 39.1823 72.9088 39.274C73.1547 39.3631 73.1547 39.3631 73.4056 39.4539C73.63 39.5351 73.63 39.5351 73.859 39.618C74.2161 39.8055 74.2161 39.8055 74.4641 40.3547C74.3488 40.3168 74.2335 40.2788 74.1147 40.2397C73.588 40.0681 73.06 39.9011 72.5319 39.7342C72.3505 39.6744 72.169 39.6146 71.9821 39.5529C70.9739 39.238 70.2944 39.0722 69.2442 39.4047C69.1141 39.3581 68.984 39.3115 68.85 39.2635C69.214 38.8425 69.4335 38.6126 69.9727 38.4882C70.5149 38.4612 70.8657 38.5454 71.373 38.7254Z" fill="#F9DBAE"/>
<path d="M117.556 56.028C117.532 56.0953 117.508 56.1627 117.483 56.232C117.326 56.1791 117.169 56.1262 117.008 56.0716C115.294 55.5409 113.678 55.3226 111.886 55.23C110.57 55.1572 110.57 55.1572 110.219 54.7796C110.562 54.4423 110.562 54.4423 111.225 54.4334C111.512 54.4518 111.798 54.4739 112.085 54.4989C112.236 54.5119 112.387 54.5249 112.543 54.5383C114.315 54.7326 115.918 55.36 117.556 56.028Z" fill="#F9A453"/>
<path d="M119.592 56.3089C119.869 56.7128 119.869 56.7128 120.169 57.4249C120.121 57.5595 120.073 57.6941 120.023 57.8328C119.935 57.7346 119.846 57.6364 119.755 57.5352C119.631 57.4055 119.508 57.2759 119.381 57.1423C119.272 57.0248 119.163 56.9073 119.05 56.7863C118.346 56.2251 117.58 55.9297 116.752 55.5959C116.59 55.529 116.428 55.462 116.261 55.3931C115.864 55.2291 115.466 55.0672 115.067 54.9058C116.464 54.559 118.557 55.3649 119.592 56.3089Z" fill="#FBDCA9"/>
<path d="M77.6855 53.7085C79.1815 54.2446 80.6775 54.7807 82.2189 55.3331C82.1947 55.4004 82.1706 55.4677 82.1458 55.5371C82.642 55.7909 83.1382 56.0447 83.6495 56.3061C83.6253 56.3735 83.6012 56.4408 83.5764 56.5101C81.4778 55.8155 79.5462 54.9919 77.6124 53.9124C77.6366 53.8451 77.6607 53.7778 77.6855 53.7085Z" fill="#F8D196"/>
<path d="M32.7731 10.222C33.649 10.6984 33.649 10.6984 33.8095 11.0538C33.6514 11.5725 33.6514 11.5725 33.444 12.0737C33.1738 12.207 33.1738 12.207 32.6797 12.0731C32.1883 11.8538 32.1883 11.8538 31.9403 11.3046C32.3828 10.4146 32.3828 10.4146 32.7731 10.222Z" fill="#C3394B"/>
<path d="M113.521 69.7732C114.424 70.3248 115.327 70.8763 116.258 71.4446C115.703 72.9928 115.148 74.541 114.576 76.1361C114.511 76.1128 114.446 76.0895 114.379 76.0655C114.91 74.5846 115.441 73.1037 115.988 71.578C115.313 71.4122 114.638 71.2464 113.943 71.0756C113.992 70.941 114.04 70.8063 114.09 70.6676C113.878 70.4398 113.666 70.2119 113.447 69.9771C113.472 69.9098 113.496 69.8425 113.521 69.7732Z" fill="#FBD1B0"/>
<path d="M54.499 65.6545C54.66 65.75 54.66 65.75 54.8243 65.8475C54.9819 65.9405 55.1395 66.0335 55.3019 66.1293C55.5738 66.2899 55.5738 66.2899 55.8512 66.4538C56.3588 66.7461 56.8683 67.0298 57.3832 67.3085C57.5324 67.3903 57.6817 67.472 57.8354 67.5562C58.1344 67.7196 58.4344 67.8811 58.7354 68.0407C59.4923 68.457 59.914 68.7197 60.2214 69.5467C58.9238 68.9388 57.7361 68.2336 56.543 67.4372C56.2877 67.2707 56.2877 67.2707 56.0272 67.1008C55.8654 66.9935 55.7036 66.8861 55.5369 66.7754C55.391 66.6788 55.245 66.5821 55.0946 66.4826C54.747 66.2037 54.747 66.2037 54.499 65.6545Z" fill="#F8D894"/>
<path d="M106.952 63.2761C106.928 63.3434 106.904 63.4107 106.879 63.4801C105.05 63.0527 105.05 63.0527 103.185 62.6166C103.047 62.7952 102.91 62.9739 102.768 63.1579C101.296 62.4575 101.296 62.4575 101.017 61.8396C103.095 61.952 105.018 62.5452 106.952 63.2761Z" fill="#E5735A"/>
<path d="M72.4172 39.8224C72.5513 39.8726 72.6854 39.9227 72.8236 39.9744C73.1498 40.0966 73.475 40.2214 73.8 40.3468C73.4964 40.5798 73.4964 40.5798 73.1865 40.8174C72.6291 40.6942 72.1189 40.5528 71.5809 40.3715C70.43 39.9665 70.43 39.9665 69.2223 40.0873C69.0754 39.8827 68.9286 39.6782 68.7772 39.4674C69.9936 38.8672 71.2395 39.3759 72.4172 39.8224Z" fill="#FAA851"/>
<path d="M76.1308 52.4608C77.1728 52.7928 77.9169 53.1076 78.744 53.8577C78.7199 53.925 78.6958 53.9923 78.6709 54.0617C78.203 54.0112 77.7353 53.9581 77.2678 53.9041C77.0074 53.8748 76.7469 53.8456 76.4785 53.8154C75.7085 53.6874 75.0364 53.476 74.3125 53.1902C74.3366 53.1229 74.3608 53.0556 74.3856 52.9862C75.2385 53.064 76.0914 53.1418 76.9701 53.2219C76.669 53.0381 76.3679 52.8542 76.0577 52.6648C76.0818 52.5975 76.106 52.5302 76.1308 52.4608Z" fill="#E0725F"/>
<path d="M120.85 54.9065C121.162 56.2503 120.853 57.5845 120.323 58.8607C119.997 58.2003 119.824 57.8385 119.849 57.0797C119.675 56.6337 119.675 56.6337 119.477 56.2558C119.761 56.2817 120.045 56.3077 120.338 56.3344C120.507 55.8632 120.676 55.392 120.85 54.9065Z" fill="#F3C486"/>
<path d="M31.8765 41.8949C32.3968 42.0814 32.9171 42.2679 33.4533 42.46C33.188 42.6194 32.9224 42.7783 32.6568 42.937C32.435 43.0698 32.435 43.0698 32.2087 43.2053C31.3843 43.6795 31.3843 43.6795 30.9483 43.864C30.8183 43.8174 30.6882 43.7708 30.5541 43.7228C30.6265 43.5208 30.6989 43.3189 30.7734 43.1108C30.9686 43.1808 31.1637 43.2507 31.3647 43.3227C31.5336 42.8516 31.7025 42.3804 31.8765 41.8949Z" fill="#F8C988"/>
<path d="M166.007 70.3997C166.317 70.5764 166.621 70.7619 166.92 70.9568C166.799 71.2934 166.679 71.63 166.554 71.9767C166.041 71.9364 166.041 71.9364 165.496 71.8275C165.414 71.6463 165.332 71.465 165.248 71.2783C165.612 70.5949 165.612 70.5949 166.007 70.3997Z" fill="#AB4663"/>
<path d="M90.5044 74.4149C90.9127 74.6331 90.9127 74.6331 91.2197 74.9014C91.0749 75.3053 90.9302 75.7092 90.7811 76.1253C90.4559 76.0087 90.1306 75.8922 89.7956 75.7721C89.762 75.4562 89.7284 75.1404 89.6938 74.8149C90.0544 74.5845 90.0544 74.5845 90.5044 74.4149Z" fill="#F6AC55"/>
<path d="M89.8259 56.4482C90.2303 56.5868 90.6341 56.7271 91.0377 56.8681C91.2626 56.946 91.4876 57.024 91.7193 57.1043C92.3517 57.3521 92.9156 57.6443 93.4977 57.9942C93.4735 58.0616 93.4494 58.1289 93.4246 58.1982C92.098 57.9442 90.8682 57.5368 89.6066 57.0601C89.6789 56.8582 89.7513 56.6562 89.8259 56.4482Z" fill="#FAA244"/>
<path d="M79.1553 16.7163C79.4646 16.893 79.7692 17.0785 80.0677 17.2734C79.9471 17.61 79.8265 17.9466 79.7022 18.2933C79.3479 18.2543 78.9948 18.2041 78.6436 18.1441C78.5196 17.8695 78.5196 17.8695 78.6777 17.3507C78.8851 16.8496 78.8851 16.8496 79.1553 16.7163Z" fill="#BB4053"/>
<path d="M136.682 64.7235C137.106 65.3644 137.106 65.3644 137.302 66.0966C137.121 66.7943 137.121 66.7943 136.863 67.3204C136.632 67.3515 136.632 67.3515 136.396 67.3831C136.473 67.1165 136.551 66.8498 136.63 66.5751C136.802 65.8797 136.802 65.8797 136.553 65.2383C135.865 64.8232 135.21 64.8425 134.419 64.833C134.556 64.6544 134.693 64.4758 134.835 64.2917C135.568 64.1933 136.026 64.4072 136.682 64.7235Z" fill="#97545D"/>
<path d="M109.388 119.161C109.65 119.672 109.65 119.672 109.884 120.26C109.812 120.462 109.739 120.664 109.665 120.872C109.144 120.685 108.624 120.499 108.088 120.307C108.507 119.883 108.914 119.525 109.388 119.161Z" fill="#DC914D"/>
<path d="M113.205 71.2716C111.974 71.4268 111.061 71.3088 109.893 70.9334C109.673 70.8663 109.673 70.8663 109.449 70.7979C109.092 70.6887 108.736 70.5762 108.38 70.4629C109.248 70.2872 110.056 70.3993 110.916 70.5231C111.057 70.5409 111.198 70.5587 111.344 70.5771C112.072 70.6793 112.642 70.7784 113.205 71.2716Z" fill="#E2A05B"/>
<path d="M74.8975 51.5584C76.3043 52.1385 77.7111 52.7187 79.1606 53.3164C79.1123 53.451 79.0641 53.5856 79.0144 53.7243C79.1203 53.8383 79.2263 53.9522 79.3355 54.0696C78.7914 53.8032 78.2477 53.5363 77.704 53.2691C77.5511 53.1943 77.3981 53.1194 77.2405 53.0423C76.4207 52.639 75.6147 52.2232 74.8244 51.7624C74.8485 51.6951 74.8726 51.6278 74.8975 51.5584Z" fill="#F7874A"/>
<path d="M82.8494 115.635C83.1588 115.812 83.4634 115.997 83.7618 116.192C83.5762 116.506 83.3905 116.819 83.1992 117.142C82.8981 116.958 82.5971 116.774 82.2868 116.584C82.5792 115.768 82.5792 115.768 82.8494 115.635Z" fill="#F6E4EA"/>
<path d="M118.671 78.9847C119.045 79.2196 119.045 79.2196 119.386 79.4712C119.306 79.8984 119.226 80.3256 119.144 80.7657C118.532 80.5463 118.326 80.3482 117.911 79.8633C118.367 79.1347 118.367 79.1347 118.671 78.9847Z" fill="#F2A54F"/>
<path d="M121.981 103.879C122.294 104.096 122.605 104.313 122.916 104.531C123.176 104.712 123.176 104.712 123.441 104.897C123.871 105.223 124.22 105.55 124.572 105.959C124.524 106.093 124.476 106.228 124.426 106.367C124.285 106.25 124.143 106.132 123.997 106.012C123.336 105.493 122.657 105.028 121.959 104.562C121.798 104.808 121.636 105.054 121.47 105.307C121.639 104.836 121.807 104.365 121.981 103.879Z" fill="#D98757"/>
<path d="M56.7596 106.515C57.0607 106.699 57.3618 106.883 57.672 107.072C57.4863 107.386 57.3007 107.699 57.1094 108.022C56.8083 107.838 56.5072 107.654 56.197 107.464C56.3827 107.151 56.5683 106.838 56.7596 106.515Z" fill="#FBEAED"/>
<path d="M146.686 110.661C146.987 110.845 147.289 111.029 147.599 111.218C147.413 111.532 147.227 111.845 147.036 112.168C146.735 111.984 146.434 111.8 146.124 111.611C146.309 111.297 146.495 110.984 146.686 110.661Z" fill="#D78E9F"/>
<path d="M113.684 95.3815C113.831 95.586 113.978 95.7906 114.129 96.0013C113.967 96.2473 113.806 96.4932 113.64 96.7466C113.379 96.6534 113.119 96.5601 112.851 96.4641C112.818 96.1482 112.784 95.8323 112.749 95.5069C113.058 95.4655 113.366 95.4241 113.684 95.3815Z" fill="#DE9450"/>
<path d="M52.569 55.5255C52.9604 55.7521 52.9604 55.7521 53.2843 56.012C53.1637 56.3485 53.0431 56.6851 52.9188 57.0319C52.5936 56.9153 52.2684 56.7988 51.9333 56.6787C51.9472 56.2521 51.9472 56.2521 52.0286 55.7921C52.2069 55.7041 52.3853 55.6161 52.569 55.5255Z" fill="#FAE8EB"/>
<path d="M150.502 83.2568C150.567 83.2801 150.632 83.3034 150.699 83.3274C150.409 84.1352 150.12 84.9429 149.821 85.7751C149.167 85.3302 148.81 84.9511 148.34 84.3235C148.807 84.2608 148.807 84.2608 149.523 84.7473C149.846 84.2554 150.169 83.7636 150.502 83.2568Z" fill="#F7C47E"/>
<path d="M65.5799 88.7301C65.881 88.9139 66.1821 89.0978 66.4923 89.2872C66.3958 89.5565 66.2993 89.8257 66.1999 90.1031C65.7847 90.0982 65.7847 90.0982 65.3384 90.0246C65.2566 89.8433 65.1747 89.6621 65.0904 89.4753C65.3197 89.0684 65.3197 89.0684 65.5799 88.7301Z" fill="#FAEAEB"/>
<path d="M27.9344 40.4822C27.9512 40.6401 27.968 40.798 27.9853 40.9608C27.354 41.0455 26.8786 40.8723 26.2696 40.7056C26.0475 40.6453 25.8254 40.585 25.5966 40.5228C25.426 40.4756 25.2554 40.4284 25.0797 40.3798C25.152 40.1779 25.2244 39.9759 25.299 39.7679C26.6035 40.1215 26.6035 40.1215 27.9344 40.4822Z" fill="#F8D291"/>
<path d="M102.446 48.5413C102.552 48.6553 102.658 48.7692 102.768 48.8866C101.816 49.3734 100.866 49.7784 99.8684 50.1494C99.7624 50.0354 99.6565 49.9215 99.5473 49.8041C99.8918 49.6296 100.237 49.4561 100.582 49.283C100.774 49.1863 100.966 49.0895 101.164 48.9899C101.709 48.7374 101.709 48.7374 102.446 48.5413Z" fill="#FBC57D"/>
<path d="M94.3091 57.5942C94.3909 57.7755 94.4727 57.9567 94.5571 58.1435C94.9575 58.3929 94.9575 58.3929 95.423 58.5976C95.5786 58.6706 95.7342 58.7436 95.8945 58.8188C96.0144 58.873 96.1343 58.9273 96.2579 58.9832C96.2337 59.0505 96.2096 59.1178 96.1848 59.1871C95.7475 59.0367 95.3108 58.8846 94.8744 58.7319C94.6312 58.6474 94.3879 58.5629 94.1373 58.4759C93.4883 58.2228 92.9118 57.9306 92.3159 57.5704C92.34 57.5031 92.3641 57.4358 92.389 57.3665C92.9743 57.5762 93.5597 57.786 94.1629 58.0022C94.2111 57.8676 94.2593 57.7329 94.3091 57.5942Z" fill="#F79035"/>
<path d="M136.476 118.051C137.321 118.354 138.167 118.657 139.038 118.969C138.564 119.369 138.564 119.369 138.081 119.777C138.088 119.552 138.096 119.326 138.103 119.094C137.542 118.817 136.981 118.54 136.402 118.255C136.427 118.187 136.451 118.12 136.476 118.051Z" fill="#D68E61"/>
<path d="M88.7523 58.8253C89.2079 58.9761 89.6624 59.1301 90.1165 59.2854C90.4964 59.4135 90.4964 59.4135 90.8839 59.5442C91.5117 59.8142 91.5117 59.8142 91.7597 60.3634C90.9452 60.3537 90.5489 60.0913 89.8457 59.6919C89.6275 59.5688 89.4092 59.4458 89.1844 59.3191C88.9343 59.1756 88.9343 59.1756 88.6792 59.0292C88.7033 58.9619 88.7275 58.8946 88.7523 58.8253Z" fill="#FBEDCA"/>
<path d="M42.6889 107.918C43.8659 108.259 44.6432 108.58 45.4261 109.589C44.6088 109.599 44.1798 109.293 43.5364 108.811C43.3633 108.683 43.1902 108.555 43.0118 108.423C42.8811 108.323 42.7504 108.224 42.6158 108.122C42.6399 108.054 42.664 107.987 42.6889 107.918Z" fill="#EFC485"/>
<path d="M26.8152 44.2244C26.9212 44.3383 27.0272 44.4523 27.1363 44.5697C27.0881 44.7043 27.0399 44.8389 26.9901 44.9776C26.1488 45.2358 25.8379 45.2552 24.9969 44.9538C25.0452 44.8192 25.0934 44.6846 25.1431 44.5459C26.4181 44.261 26.4181 44.261 26.8152 44.2244Z" fill="#F4A752"/>
<path d="M68.8952 37.8983C68.997 38.8555 68.997 38.8555 68.9748 39.5381C68.5289 39.7581 68.0831 39.9781 67.6238 40.2048C68.0433 39.4437 68.4629 38.6825 68.8952 37.8983Z" fill="#F6C68B"/>
<path d="M98.5223 38.3885C98.5873 38.4118 98.6524 38.4352 98.7194 38.4592C98.6638 38.819 98.6082 39.1789 98.551 39.5497C98.722 39.6869 98.893 39.8242 99.0692 39.9656C98.7144 40.1551 98.3535 40.3323 97.9884 40.499C97.8583 40.4523 97.7282 40.4057 97.5942 40.3577C97.9005 39.7079 98.2067 39.058 98.5223 38.3885Z" fill="#F7D49D"/>
<path d="M77.0166 80.3994C77.3246 80.5361 77.6314 80.6754 77.9377 80.8158C78.1087 80.8931 78.2797 80.9704 78.4559 81.0501C78.9145 81.3098 78.9145 81.3098 79.3596 81.9296C78.7092 81.6965 78.0587 81.4634 77.3886 81.2233C77.4368 81.0886 77.4851 80.954 77.5348 80.8153C77.3638 80.6781 77.1928 80.5408 77.0166 80.3994Z" fill="#BA3F4E"/>
<path d="M89.0915 50.4305C89.1565 50.4538 89.2216 50.4771 89.2886 50.5011C88.9991 51.3088 88.7096 52.1166 88.4114 52.9488C88.2886 52.677 88.1658 52.4051 88.0394 52.125C88.3266 51.4674 88.5802 50.9328 89.0915 50.4305Z" fill="#F7AE57"/>
<path d="M92.8521 49.2462C94.9601 49.9167 94.9601 49.9167 95.6624 50.7137C95.6383 50.781 95.6142 50.8484 95.5893 50.9177C95.0039 50.7079 94.4186 50.4981 93.8154 50.282C93.8637 50.1474 93.9119 50.0127 93.9616 49.874C93.5714 49.7342 93.1811 49.5943 92.779 49.4502C92.8031 49.3829 92.8273 49.3156 92.8521 49.2462Z" fill="#FCD898"/>
<path d="M75.6149 31.5598C75.7209 31.6738 75.8268 31.7877 75.936 31.9051C75.2227 32.2571 74.5093 32.6091 73.7744 32.9718C73.6684 32.8579 73.5624 32.744 73.4533 32.6266C74.7852 31.7804 74.7852 31.7804 75.6149 31.5598Z" fill="#FBC87E"/>
<path d="M143.521 50.6021C144.16 51.1889 144.447 51.8627 144.784 52.6657C144.271 52.254 143.758 51.8422 143.229 51.418C143.326 51.1488 143.422 50.8795 143.521 50.6021Z" fill="#964D5A"/>
<path d="M32.7731 10.222C33.0824 10.3987 33.387 10.5842 33.6855 10.7792C32.466 11.234 32.466 11.234 31.9403 11.3046C32.4691 10.372 32.4691 10.372 32.7731 10.222Z" fill="#C44D5C"/>
<path d="M113.521 69.7732C114.326 70.2898 114.326 70.2898 115.148 70.8168C115.011 70.9955 114.873 71.1741 114.732 71.3581C114.023 70.9794 113.814 70.5226 113.521 69.7732Z" fill="#FBDAB9"/>
<path d="M144.98 52.7363C145.086 52.8503 145.192 52.9642 145.302 53.0816C144.781 53.7589 144.486 53.7654 143.68 53.8816C143.55 53.835 143.42 53.7884 143.286 53.7403C143.359 53.5384 143.431 53.3365 143.505 53.1284C143.766 53.2217 144.026 53.3149 144.294 53.411C144.431 53.2323 144.569 53.0537 144.71 52.8697C144.799 52.8257 144.889 52.7817 144.98 52.7363Z" fill="#994D5A"/>
<path d="M40.7402 57.5011C41.2365 57.7549 41.7327 58.0087 42.2439 58.2702C42.2198 58.3375 42.1957 58.4048 42.1708 58.4741C41.7565 58.4016 41.3421 58.3291 40.9151 58.2543C40.7053 58.6349 40.4956 59.0154 40.2794 59.4075C40.2144 59.3842 40.1493 59.3609 40.0823 59.3369C40.2994 58.7311 40.5165 58.1253 40.7402 57.5011Z" fill="#A53850"/>
<path d="M70.5367 56.9007C70.3993 57.0794 70.2619 57.258 70.1203 57.442C69.5687 57.1581 69.5687 57.1581 69.0108 56.8142C68.994 56.6563 68.9772 56.4984 68.9599 56.3357C69.6333 56.3511 70.0067 56.485 70.5367 56.9007Z" fill="#EE866E"/>
<path d="M29.4536 38.7249C29.5764 38.9968 29.6991 39.2686 29.8256 39.5488C29.7123 39.6601 29.599 39.7714 29.4823 39.8861C29.3522 39.8395 29.2221 39.7928 29.0881 39.7448C28.8615 39.9674 28.6349 40.1901 28.4015 40.4194C28.3847 40.2615 28.3679 40.1036 28.3506 39.9408C28.7075 39.5256 29.075 39.1195 29.4536 38.7249Z" fill="#F7CE8D"/>
<path d="M116.002 54.7804C115.718 54.7545 115.433 54.7285 115.141 54.7018C115.092 54.8364 115.044 54.9711 114.994 55.1098C114.08 54.8961 114.08 54.8961 113.147 54.678C114.3 54.3715 114.889 54.3215 116.002 54.7804Z" fill="#FBCA74"/>
<path d="M109.821 46.5809C109.515 47.2307 109.209 47.8805 108.893 48.55C108.828 48.5267 108.763 48.5034 108.696 48.4794C108.8 47.9849 108.904 47.4904 109.011 46.9809C108.84 46.8436 108.669 46.7064 108.492 46.565C109.23 46.369 109.23 46.369 109.821 46.5809Z" fill="#F9C77D"/>
<path d="M98.5771 35.1713C98.8614 35.2803 98.8614 35.2803 99.1515 35.3915C98.9322 35.3889 98.713 35.3863 98.4871 35.3836C98.5616 35.7901 98.6361 36.1966 98.7129 36.6154C98.2389 36.1479 97.947 35.7288 97.6987 35.1011C97.9689 34.9677 97.9689 34.9677 98.5771 35.1713Z" fill="#F4C790"/>
<path d="M68.442 21.1634C68.613 21.3007 68.784 21.4379 68.9602 21.5793C68.2195 21.9449 67.5585 22.0467 66.7477 22.1674C66.6418 22.0535 66.5358 21.9396 66.4266 21.8222C66.7507 21.7005 67.076 21.5828 67.4019 21.4668C67.583 21.4008 67.764 21.3349 67.9506 21.2669C68.1127 21.2328 68.2749 21.1986 68.442 21.1634Z" fill="#CA5260"/>
<path d="M153.299 81.0367C152.798 81.5848 152.615 81.7107 151.875 81.9074C151.995 81.5709 152.116 81.2343 152.24 80.8875C152.708 80.8248 152.708 80.8248 153.299 81.0367Z" fill="#F5C383"/>
<path d="M87.6296 54.51C87.9232 54.9318 87.9232 54.9318 88.1986 55.4045C88.1504 55.5391 88.1022 55.6737 88.0524 55.8125C87.7272 55.6959 87.402 55.5794 87.0669 55.4593C87.0501 55.3013 87.0334 55.1434 87.016 54.9807C87.1461 55.0273 87.2762 55.0739 87.4102 55.122C87.4826 54.92 87.555 54.7181 87.6296 54.51Z" fill="#E87C36"/>
</g>
<defs>
<clipPath id="clip0_337_587">
<rect width="139.703" height="111.762" fill="white" transform="translate(37.7051) rotate(19.7165)"/>
</clipPath>
</defs>
</svg>
