<svg width="340" height="220" viewBox="0 0 340 220" fill="none" xmlns="http://www.w3.org/2000/svg">
<g clip-path="url(#clip0_658_6456)">
<path d="M305.094 1.5503L19.9398 23.7214C8.92736 24.5776 0.703444 34.1984 1.57119 45.2099L13.3951 195.255C14.2629 206.266 23.8937 214.499 34.9062 213.643L320.061 191.471C331.073 190.615 339.297 180.994 338.429 169.983L326.605 19.9381C325.737 8.92659 316.107 0.694072 305.094 1.5503Z" fill="#C3E6FF"/>
<path d="M8.36914 36.3269C8.36914 25.2811 17.3102 16.3267 28.356 16.3268C72.8918 16.3272 178.948 16.328 211.9 16.3273C240.85 16.3267 288.087 16.3266 314.77 16.3266C325.816 16.3266 334.769 25.2809 334.769 36.3266V200C334.769 211.046 325.815 220 314.769 220H28.3691C17.3234 220 8.36914 211.046 8.36914 200V36.3269Z" fill="#EDF8FF"/>
<mask id="mask0_658_6456" style="mask-type:luminance" maskUnits="userSpaceOnUse" x="37" y="24" width="279" height="196">
<path d="M316 24H37V220H316V24Z" fill="white"/>
</mask>
<g mask="url(#mask0_658_6456)">
<path d="M260.39 109.67C260.393 110.547 260.393 111.427 260.393 112.333C260.499 113.861 260.499 113.861 261.086 115.253C263.099 116.783 265.37 117.513 267.738 118.348C269.073 118.867 270.405 119.391 271.735 119.918C272.735 120.313 272.735 120.313 273.755 120.715C276.638 121.93 279.337 123.408 282.041 124.979C298.745 128.909 306.998 157.123 306.998 157.123C306.56 159.115 305.879 159.699 304.302 160.951C303.814 161.242 303.326 161.532 302.823 161.833C302.335 162.134 301.847 162.432 301.345 162.74C300.042 163.403 300.042 163.403 298.65 163.403C299.416 166.496 300.183 169.586 300.951 172.677C301.211 173.725 301.473 174.776 301.734 175.825C302.107 177.342 302.486 178.858 302.863 180.373C302.977 180.835 303.091 181.3 303.209 181.777C303.759 183.98 304.344 186.162 304.995 188.338C305.607 190.618 305.607 190.618 305.607 193.411C272.195 194.474 293.782 213.648 293.782 213.648C293.782 224.934 293.782 236.218 293.782 247.844C290.998 252.03 290.998 252.03 289.508 253.421C287.843 255.227 287.546 256.673 287.031 259.063C286.853 259.873 286.672 260.683 286.486 261.518C286.313 262.36 286.135 263.2 285.956 264.069C285.768 264.921 285.583 265.773 285.389 266.653C284.931 268.754 284.483 270.859 284.042 272.965C284.57 272.945 285.097 272.926 285.639 272.906C286.33 272.891 287.021 272.876 287.732 272.858C288.418 272.839 289.101 272.821 289.807 272.799C291.694 272.965 291.694 272.965 293.869 274.667C294.515 275.551 294.515 275.551 295.171 276.456C295.401 276.684 295.632 276.915 295.867 277.154C296.147 280.058 296.176 281.566 294.564 284.043C292.591 286.025 292.115 286.214 289.275 286.293C288.314 286.289 287.351 286.281 286.39 286.269C285.9 286.266 285.407 286.261 284.902 286.259C283.688 286.251 282.475 286.239 281.259 286.224C281.182 286.634 281.103 287.041 281.021 287.464C280.107 292.134 279.075 296.767 278 301.403C277.817 302.188 277.636 302.973 277.45 303.78C276.482 307.964 275.509 312.145 274.535 316.329C274.34 317.163 274.144 317.998 273.944 318.858C273.545 320.577 273.144 322.293 272.742 324.012C271.598 328.929 270.467 333.848 269.352 338.769C269.167 339.591 269.167 339.591 268.976 340.426C268.374 343.087 267.772 345.75 267.176 348.413C266.953 349.392 266.732 350.371 266.509 351.352C266.405 351.819 266.299 352.289 266.188 352.771C265.563 355.498 264.858 358.189 264.083 360.877C263.189 364.087 262.807 367.125 262.696 370.446C262.622 372.148 262.55 373.847 262.478 375.549C263.095 375.494 263.711 375.44 264.345 375.383C283.213 373.924 283.213 373.924 288.646 377.855C291.05 380.003 293.14 382.371 295.042 384.977C295.832 386.122 295.832 386.122 297.259 386.716C297.259 387.176 297.259 387.635 297.259 388.11C297.67 388.13 298.081 388.147 298.507 388.164C302.154 388.428 304.381 388.815 306.998 391.6C308.853 394.079 308.761 396.993 308.39 399.975C307.09 403.162 305.178 404.725 302.127 406.255C298.797 406.846 296.501 406.578 293.477 405.033C291.318 403.132 290.411 401.833 290.142 398.946C290.156 398.052 290.156 398.052 290.171 397.14C290.176 396.541 290.181 395.943 290.186 395.327C290.303 393.694 290.303 393.694 290.998 391.6C290.416 391.362 290.416 391.362 289.825 391.121C288.215 390.204 288.215 390.204 286.932 388.438C284.513 385.958 281.531 386.246 278.25 386.159C277.049 386.155 277.049 386.155 275.826 386.147C275.011 386.13 274.199 386.112 273.359 386.095C271.356 386.053 269.352 386.028 267.346 386.018C267.168 386.453 266.992 386.89 266.809 387.34C265.39 389.784 262.817 390.251 260.262 391.076C259.424 391.352 259.425 391.352 258.573 391.632C252.624 393.456 246.277 394.109 240.218 392.298C240.218 391.608 240.218 390.917 240.218 390.204C239.438 390.413 238.655 390.624 237.85 390.84C236.8 391.108 235.748 391.377 234.695 391.642C234.185 391.781 233.673 391.921 233.145 392.065C230.359 392.76 228.143 393.063 225.295 392.606C221.618 392.065 218.757 393.093 215.305 394.303C210.085 396.017 205.4 397.16 199.872 397.182C199.813 397.801 199.756 398.419 199.697 399.058C199.097 401.714 198.273 402.921 196.393 404.859C193.293 406.749 190.182 406.801 186.654 406.255C184.261 405.067 182.837 403.4 181.525 401.065C180.742 397.843 180.671 395.9 182.221 392.909C184.603 390.013 186.772 388.413 190.437 387.543C193.317 386.579 194.489 385.374 196.51 383.188C197.854 381.755 199.266 380.463 200.742 379.169C201.19 378.776 201.638 378.384 202.099 377.979C204.929 375.641 206.47 375.39 210.088 375.462C210.91 375.475 211.729 375.487 212.574 375.499C213.517 375.524 213.517 375.524 214.481 375.549C214.538 369.333 212.225 365.065 209.132 359.804C208.659 358.976 208.183 358.147 207.713 357.319C206.742 355.615 205.766 353.918 204.783 352.222C202.606 348.45 200.506 344.64 198.394 340.831C194.937 334.638 191.458 328.454 187.971 322.278C184.789 316.634 181.631 310.977 178.477 305.316C176.069 300.998 173.648 296.685 171.211 292.382C170.077 290.38 168.952 288.373 167.831 286.363C166.568 284.11 165.28 281.874 163.96 279.653C159.275 271.634 159.275 271.634 160.263 266.976C161.919 262.703 163.819 258.666 167.957 256.452C177.1 252.992 196.68 249.285 205.538 247.044C215.971 244.413 204.102 178.686 201.262 172.476C199.986 171.241 183.291 161.473 181.743 160.437C181.23 160.074 180.72 159.711 180.195 159.336C179.606 158.931 179.606 158.931 179.004 158.519C179.844 156.353 187.401 138.702 199.286 130.685C229.131 110.957 244.044 105.832 260.39 109.67Z" fill="#456C91"/>
<path d="M220.892 156.852C221.608 156.849 222.321 156.844 223.056 156.842C225.414 156.832 227.774 156.837 230.131 156.844C231.771 156.844 233.41 156.842 235.049 156.839C238.487 156.837 241.921 156.839 245.359 156.849C249.764 156.862 254.167 156.854 258.573 156.842C261.958 156.834 265.346 156.837 268.731 156.842C270.355 156.844 271.98 156.842 273.604 156.837C275.873 156.832 278.143 156.839 280.412 156.852C281.083 156.847 281.754 156.844 282.447 156.839C285.862 156.872 288.235 156.961 290.998 159.217C292.69 161.356 293.782 163.42 293.782 166.195C295.731 167.174 294.389 167.331 294.386 170.694C294.384 171.363 294.379 172.033 294.376 172.724C294.376 173.464 294.376 174.207 294.379 174.97C294.376 175.747 294.374 176.522 294.371 177.322C294.366 179.014 294.361 180.706 294.359 182.398C294.354 185.076 294.344 187.754 294.329 190.432C294.294 198.046 294.26 205.663 294.25 213.278C294.242 217.931 294.223 222.581 294.193 227.234C294.185 229.011 294.181 230.784 294.183 232.558C294.183 235.045 294.168 237.527 294.151 240.011C294.153 240.746 294.158 241.482 294.163 242.237C294.111 246.425 293.764 248.83 290.998 252.03C290.26 252.718 290.26 252.718 289.508 253.421C287.843 255.227 287.546 256.673 287.031 259.063C286.853 259.873 286.672 260.683 286.486 261.518C286.313 262.36 286.135 263.199 285.956 264.069C285.768 264.921 285.583 265.773 285.389 266.653C284.931 268.754 284.483 270.858 284.042 272.965C284.57 272.945 285.097 272.925 285.639 272.906C286.33 272.891 287.021 272.876 287.732 272.858C288.418 272.838 289.101 272.821 289.807 272.799C291.694 272.965 291.694 272.965 293.869 274.667C294.297 275.256 294.728 275.847 295.171 276.456C295.401 276.684 295.632 276.915 295.867 277.154C296.147 280.058 296.176 281.566 294.564 284.043C292.591 286.025 292.115 286.214 289.275 286.293C288.314 286.288 287.351 286.281 286.39 286.269C285.9 286.266 285.407 286.261 284.902 286.259C283.688 286.251 282.475 286.239 281.259 286.224C281.182 286.634 281.103 287.041 281.021 287.463C280.107 292.134 279.075 296.767 278 301.403C277.817 302.188 277.636 302.973 277.45 303.78C276.482 307.964 275.509 312.145 274.535 316.328C274.34 317.163 274.144 317.998 273.944 318.857C273.545 320.577 273.144 322.293 272.742 324.012C271.598 328.929 270.467 333.848 269.352 338.769C269.229 339.318 269.105 339.865 268.976 340.426C268.374 343.087 267.772 345.75 267.176 348.413C266.953 349.392 266.732 350.371 266.509 351.352C266.405 351.819 266.299 352.289 266.188 352.771C265.563 355.498 264.858 358.189 264.083 360.877C263.189 364.086 262.807 367.125 262.696 370.446C262.622 372.148 262.55 373.847 262.478 375.549C263.095 375.494 263.711 375.44 264.345 375.383C283.213 373.924 283.213 373.924 288.646 377.854C291.05 380.003 293.14 382.371 295.042 384.977C295.832 386.122 295.832 386.122 297.259 386.713C297.259 387.175 297.259 387.635 297.259 388.11C297.67 388.129 298.081 388.147 298.507 388.164C302.154 388.428 304.381 388.815 306.998 391.6C308.853 394.079 308.761 396.993 308.39 399.975C307.09 403.162 305.178 404.725 302.127 406.255C298.797 406.846 296.501 406.578 293.477 405.033C291.318 403.132 290.411 401.833 290.142 398.946C290.151 398.35 290.161 397.754 290.171 397.14C290.179 396.241 290.179 396.241 290.186 395.326C290.303 393.694 290.303 393.694 290.998 391.6C290.61 391.441 290.223 391.282 289.825 391.121C288.215 390.204 288.215 390.204 286.932 388.438C284.513 385.958 281.531 386.246 278.25 386.159C277.45 386.157 276.65 386.152 275.826 386.147C275.011 386.13 274.199 386.112 273.359 386.095C271.356 386.053 269.352 386.028 267.346 386.018C267.168 386.453 266.992 386.89 266.809 387.339C265.39 389.784 262.817 390.251 260.262 391.076C259.704 391.26 259.147 391.443 258.573 391.632C252.624 393.456 246.277 394.109 240.218 392.298C240.218 391.607 240.218 390.917 240.218 390.204C239.046 390.519 239.046 390.519 237.85 390.84C236.8 391.108 235.748 391.376 234.695 391.642C234.185 391.781 233.673 391.92 233.145 392.065C230.359 392.76 228.143 393.063 225.295 392.606C221.618 392.065 218.757 393.093 215.305 394.303C210.085 396.017 205.4 397.16 199.872 397.182C199.813 397.801 199.756 398.419 199.697 399.058C199.097 401.714 198.273 402.921 196.393 404.859C193.293 406.749 190.182 406.801 186.654 406.255C184.261 405.067 182.837 403.4 181.525 401.065C180.742 397.843 180.671 395.9 182.221 392.909C184.603 390.013 186.772 388.413 190.437 387.543C193.317 386.579 194.489 385.374 196.51 383.188C197.854 381.755 199.266 380.463 200.742 379.169C201.19 378.776 201.638 378.384 202.099 377.979C204.929 375.641 206.47 375.39 210.088 375.462C210.91 375.474 211.729 375.487 212.574 375.499C213.517 375.524 213.517 375.524 214.481 375.549C214.538 369.333 212.225 365.065 209.132 359.804C208.659 358.976 208.183 358.147 207.713 357.319C206.742 355.615 205.766 353.918 204.783 352.221C202.606 348.45 200.506 344.639 198.394 340.831C194.937 334.638 191.458 328.454 187.971 322.278C184.789 316.634 181.631 310.977 178.477 305.316C176.069 300.998 173.648 296.685 171.211 292.382C170.077 290.38 168.952 288.373 167.831 286.363C166.568 284.11 165.28 281.874 163.96 279.653C159.275 271.634 159.275 271.634 160.263 266.976C161.922 262.698 163.821 258.663 167.962 256.45C171.055 255.279 174.262 254.579 177.481 253.861C182.34 252.743 187.161 251.556 191.958 250.199C192.471 250.053 192.983 249.908 193.513 249.759C194.937 249.354 196.361 248.95 197.785 248.54C199.276 248.117 200.769 247.695 202.262 247.275C202.837 247.114 203.409 246.95 203.998 246.783C205.437 246.448 205.437 246.448 207.524 246.448C207.52 246.028 207.517 245.608 207.515 245.176C207.455 234.948 207.408 224.718 207.378 214.49C207.364 209.544 207.346 204.597 207.314 199.651C207.282 194.879 207.267 190.104 207.26 185.332C207.255 183.511 207.245 181.69 207.23 179.869C207.21 177.317 207.205 174.766 207.208 172.215C207.198 171.462 207.188 170.709 207.178 169.934C207.2 165.52 207.584 162.757 210.305 159.217C213.379 156.425 216.967 156.827 220.892 156.852Z" fill="#3B4A61"/>
<path d="M57.2676 53.8408C108.69 53.8408 160.109 53.8408 213.089 53.8408C213.089 76.4106 213.089 98.9779 213.089 122.231C209.186 124.534 205.283 126.837 201.262 129.209C196.091 132.898 192.793 136.409 189.437 141.77C188.89 142.602 188.337 143.429 187.785 144.257C187.226 145.099 187.226 145.099 186.654 145.958C185.487 147.128 184.058 146.741 182.501 146.746C181.753 146.743 181.753 146.743 180.99 146.738C180.463 146.741 179.938 146.741 179.395 146.741C177.62 146.743 175.844 146.738 174.066 146.733C172.798 146.733 171.53 146.733 170.262 146.736C166.81 146.736 163.356 146.731 159.901 146.726C156.298 146.721 152.692 146.721 149.087 146.721C142.255 146.719 135.425 146.714 128.592 146.706C119.365 146.696 110.136 146.694 100.909 146.689C86.3626 146.681 71.8163 146.669 57.2676 146.656C57.2676 116.028 57.2676 85.3988 57.2676 53.8408Z" fill="#FBFDFF"/>
<path d="M258.999 208.764C260.99 210.317 261.708 211.079 262.102 213.611C262.082 214.344 262.064 215.076 262.042 215.829C262.035 216.565 262.025 217.302 262.015 218.06C261.782 219.928 261.782 219.928 260.39 221.324C260.16 222.763 260.16 222.763 260.17 224.43C260.155 225.073 260.14 225.717 260.128 226.377C260.12 227.073 260.111 227.769 260.103 228.484C260.088 229.195 260.076 229.905 260.061 230.638C260.021 232.911 259.989 235.187 259.957 237.462C259.93 239.003 259.903 240.543 259.875 242.083C259.806 245.864 259.751 249.645 259.694 253.426C267.73 253.426 275.764 253.426 284.042 253.426C278.433 264.683 278.433 264.683 273.433 267.82C272.814 268.218 272.193 268.615 271.554 269.025C269.863 269.942 268.312 270.633 266.519 271.293C266.022 271.477 265.524 271.661 265.011 271.85C264.635 271.989 264.258 272.126 263.87 272.267C264.694 272.27 265.519 272.275 266.368 272.277C269.434 272.292 272.5 272.329 275.566 272.374C276.893 272.391 278.218 272.401 279.543 272.404C281.452 272.411 283.359 272.439 285.268 272.473C286.155 272.469 286.155 272.469 287.059 272.464C290.147 272.541 291.323 272.66 293.792 274.697C294.475 275.569 294.475 275.569 295.171 276.456C295.401 276.684 295.632 276.915 295.867 277.154C296.147 280.058 296.177 281.566 294.564 284.043C292.591 286.025 292.115 286.214 289.275 286.294C288.314 286.289 287.351 286.281 286.39 286.269C285.9 286.266 285.407 286.261 284.902 286.259C283.688 286.251 282.475 286.239 281.259 286.224C281.142 286.838 281.142 286.838 281.021 287.464C280.107 292.134 279.075 296.767 278 301.403C277.817 302.188 277.636 302.973 277.45 303.781C276.482 307.964 275.509 312.145 274.535 316.329C274.34 317.163 274.144 317.998 273.944 318.858C273.545 320.577 273.144 322.293 272.743 324.013C271.598 328.929 270.467 333.848 269.352 338.769C269.229 339.318 269.105 339.865 268.976 340.426C268.374 343.087 267.772 345.75 267.176 348.413C266.953 349.392 266.732 350.371 266.509 351.352C266.405 351.819 266.299 352.289 266.188 352.771C265.564 355.498 264.858 358.189 264.083 360.877C263.189 364.087 262.807 367.125 262.696 370.446C262.622 372.148 262.55 373.847 262.478 375.549C263.095 375.495 263.711 375.44 264.345 375.383C283.213 373.924 283.213 373.924 288.646 377.855C291.05 380.004 293.141 382.371 295.042 384.977C295.832 386.122 295.832 386.122 297.259 386.716C297.259 387.176 297.259 387.635 297.259 388.11C297.67 388.13 298.081 388.147 298.507 388.164C302.155 388.428 304.381 388.815 306.998 391.6C308.853 394.08 308.762 396.994 308.39 399.975C307.09 403.162 305.178 404.725 302.127 406.255C298.797 406.846 296.501 406.578 293.477 405.033C291.318 403.132 290.412 401.833 290.142 398.946C290.152 398.35 290.161 397.754 290.171 397.14C290.179 396.241 290.179 396.241 290.186 395.327C290.303 393.694 290.303 393.694 290.998 391.6C290.61 391.441 290.223 391.282 289.825 391.121C288.215 390.204 288.215 390.204 286.932 388.438C284.513 385.958 281.531 386.247 278.25 386.16C277.45 386.157 276.65 386.152 275.826 386.147C275.011 386.13 274.199 386.112 273.359 386.095C271.356 386.053 269.352 386.028 267.346 386.018C267.168 386.453 266.992 386.89 266.809 387.34C265.39 389.784 262.817 390.251 260.262 391.076C259.425 391.352 259.425 391.352 258.573 391.633C252.624 393.456 246.277 394.109 240.218 392.298C240.218 391.608 240.218 390.917 240.218 390.204C239.046 390.52 239.046 390.52 237.85 390.84C236.8 391.108 235.748 391.377 234.695 391.642C234.185 391.782 233.673 391.921 233.145 392.065C230.359 392.76 228.143 393.063 225.295 392.606C221.618 392.065 218.757 393.093 215.305 394.303C210.085 396.017 205.4 397.16 199.873 397.182C199.813 397.801 199.756 398.42 199.697 399.058C199.097 401.714 198.273 402.921 196.393 404.859C193.293 406.749 190.182 406.802 186.654 406.255C184.261 405.068 182.838 403.401 181.525 401.065C180.742 397.843 180.671 395.901 182.221 392.909C184.603 390.013 186.772 388.413 190.438 387.543C193.318 386.579 194.489 385.375 196.51 383.188C197.854 381.755 199.266 380.463 200.742 379.169C201.413 378.58 201.413 378.58 202.099 377.979C204.434 376.049 205.754 375.375 208.738 375.39C209.407 375.39 210.075 375.39 210.764 375.39C211.484 375.398 212.202 375.405 212.945 375.413C214.052 375.415 214.052 375.415 215.182 375.42C217.542 375.427 219.902 375.445 222.262 375.462C223.861 375.47 225.461 375.475 227.058 375.482C230.981 375.497 234.903 375.519 238.826 375.549C233.442 364.241 227.955 352.992 222.348 341.79C218.619 334.337 214.904 326.879 211.358 319.337C209.08 314.505 206.735 309.706 204.38 304.911C203.676 303.477 202.973 302.044 202.27 300.611C201.205 298.442 200.14 296.27 199.07 294.104C198.062 292.067 197.062 290.028 196.061 287.985C195.754 287.367 195.447 286.751 195.133 286.115C194.85 285.536 194.568 284.96 194.278 284.363C194.031 283.861 193.783 283.36 193.528 282.843C192.854 281.193 192.515 279.606 192.221 277.852C192.951 277.822 193.684 277.792 194.437 277.763C197.243 277.43 197.243 277.43 198.563 275.057C199.679 273.636 200.271 273.047 202.029 272.568C203.847 272.414 205.628 272.387 207.45 272.404C208.109 272.394 208.768 272.384 209.446 272.374C211.546 272.349 213.641 272.352 215.741 272.354C217.165 272.342 218.592 272.329 220.015 272.312C223.505 272.275 226.991 272.265 230.478 272.267C228.638 271.038 226.84 270.081 224.872 269.085C219.458 266.146 214.498 262.039 211.001 256.914C210.771 255.533 210.543 254.152 210.306 252.728C221.325 252.959 232.343 253.188 243.697 253.426C243.625 247.971 243.553 242.515 243.479 236.896C243.462 235.179 243.444 233.463 243.427 231.694C243.402 230.327 243.38 228.964 243.355 227.597C243.353 226.892 243.348 226.186 243.343 225.461C243.269 221.824 243.142 219.451 240.914 216.44C240.631 213.658 240.795 211.817 242.305 209.462C247.521 206.553 253.531 206.655 258.999 208.764Z" fill="#313E42"/>
<path d="M53.7908 152.239C96.028 152.239 138.268 152.239 181.785 152.239C181.327 153.62 180.866 155.001 180.393 156.425C180.393 157.346 180.393 158.268 180.393 159.217C182.379 160.738 182.379 160.738 184.569 162.007C185.257 162.7 185.257 162.7 185.958 163.403C185.703 169.077 183.37 174.955 181.827 180.411C181.389 181.958 180.958 183.506 180.527 185.054C180.25 186.038 179.972 187.021 179.695 188.005C179.566 188.47 179.438 188.932 179.304 189.409C178.388 192.633 178.388 192.633 177.612 193.411C176.265 193.478 174.916 193.495 173.566 193.495C172.687 193.495 171.808 193.498 170.904 193.498C169.921 193.495 168.938 193.493 167.955 193.49C166.927 193.49 165.899 193.49 164.869 193.49C162.071 193.49 159.27 193.488 156.472 193.483C153.549 193.478 150.625 193.478 147.703 193.476C142.165 193.473 136.626 193.468 131.089 193.461C124.786 193.453 118.481 193.451 112.179 193.446C99.2077 193.438 86.2389 193.426 73.2676 193.411C73.2626 192.415 73.2577 191.416 73.2552 190.42C73.2527 189.863 73.2503 189.309 73.2503 188.738C73.2725 186.654 73.4756 184.617 73.7232 182.55C73.8099 181.827 73.8941 181.106 73.9808 180.363C74.0897 179.474 74.1987 178.582 74.3126 177.665C74.6544 174.801 75.0011 171.937 75.3552 168.985C67.3193 168.757 59.2859 168.526 51.0074 168.29C50.7771 168.749 50.5493 169.209 50.3115 169.683C49.1674 166.243 50.1828 164.422 51.7033 161.311C52.1614 161.311 52.622 161.311 53.095 161.311C53.3253 158.315 53.5531 155.322 53.7908 152.239Z" fill="#D5D5D5"/>
<path d="M237.434 35C236.976 36.6123 236.518 38.2246 236.045 39.8841C236.414 39.7425 236.783 39.5984 237.164 39.4519C237.655 39.263 238.148 39.0742 238.653 38.8829C239.138 38.6966 239.621 38.5103 240.121 38.3165C242.85 37.3526 245.138 37.0123 248.043 37.0495C248.665 37.057 249.284 37.062 249.923 37.0694C250.393 37.0769 250.864 37.0843 251.347 37.0943C250.314 38.8208 250.314 38.8208 249.262 40.5822C250.151 40.4953 251.04 40.4108 251.956 40.3214C256.26 40.3487 259.187 42.0976 262.478 44.7707C266.495 48.8698 269.214 53.4956 271.522 58.7275C270.833 58.7275 270.145 58.7275 269.434 58.7275C269.471 59.4256 269.471 59.4255 269.508 60.1361C269.655 65.1295 268.882 69.3379 267.347 74.0804C266.2 73.1587 265.051 72.237 263.87 71.288C264.098 71.7203 264.328 72.1526 264.566 72.5973C266.381 78.2913 265.152 82.7158 262.723 88.0247C261.829 90.027 261.146 92.012 260.477 94.0988C259.113 97.9644 257.03 101.184 254.13 104.086C253.672 104.086 253.211 104.086 252.738 104.086C252.738 105.698 252.738 107.31 252.738 108.972C245.393 108.972 238.048 108.972 230.478 108.972C229.683 106.294 229.683 106.294 228.871 103.564C228.708 103.02 228.544 102.478 228.378 101.917C228.079 100.903 227.786 99.8847 227.499 98.8662C227.155 97.6538 226.798 96.4464 226.427 95.2441C224.842 89.6966 224.614 84.3678 224.681 78.6465C224.696 77.1286 224.693 75.6132 224.691 74.0953C224.701 68.8485 224.958 63.8302 226.305 58.7275C225.875 58.5238 225.444 58.32 225 58.1114C223.217 57.1698 222.118 56.0096 220.741 54.5389C219.364 53.1577 219.364 53.1577 217.958 51.7491C217.958 74.3164 217.958 96.8862 217.958 120.137C215.892 120.827 215.892 120.827 213.785 121.533C213.785 98.9655 213.785 76.3957 213.785 53.1453C211.947 53.3738 210.11 53.6049 208.218 53.8409C207.205 53.8955 206.192 53.9278 205.177 53.9278C204.64 53.9303 204.102 53.9303 203.55 53.9328C202.978 53.9303 202.408 53.9278 201.819 53.9253C201.197 53.9253 200.576 53.9278 199.937 53.9278C197.869 53.9278 195.799 53.9253 193.731 53.9204C192.243 53.9204 190.755 53.9204 189.266 53.9204C185.235 53.9204 181.206 53.9179 177.174 53.9129C172.957 53.9079 168.742 53.9079 164.525 53.9079C156.546 53.9055 148.567 53.898 140.588 53.893C129.803 53.8831 119.016 53.8781 108.232 53.8756C91.2436 53.8682 74.2556 53.8533 57.2676 53.8409C57.4979 84.4697 57.7283 115.099 57.9635 146.656C99.9728 146.885 141.982 147.116 185.264 147.355C184.576 148.736 183.885 150.117 183.177 151.541C140.479 151.541 97.7812 151.541 53.7908 151.541C53.7759 134.859 53.7611 118.177 53.7462 100.99C53.7413 95.7136 53.7338 90.437 53.7289 85.0013C53.7239 78.5819 53.7239 78.5819 53.7239 75.5809C53.7239 73.4742 53.7215 71.3675 53.7165 69.2633C53.7116 66.5828 53.7116 63.9022 53.7116 61.2192C53.7116 60.2329 53.7091 59.2467 53.7066 58.2604C53.7041 56.9313 53.7041 55.6047 53.7066 54.2781C53.7066 53.5328 53.7066 52.7875 53.7041 52.0199C53.7908 50.3529 53.7908 50.3529 54.4867 49.6548C56.5247 49.5828 58.5455 49.5579 60.5835 49.5629C61.2323 49.5604 61.8787 49.5604 62.5473 49.5579C64.7339 49.5555 66.9231 49.5555 69.1097 49.5555C70.6723 49.553 72.2349 49.5505 73.795 49.548C77.1678 49.543 80.5407 49.5406 83.911 49.5381C89.2427 49.5331 94.5743 49.5207 99.906 49.5083C101.729 49.5033 103.551 49.4983 105.376 49.4958C106.288 49.4934 107.201 49.4909 108.142 49.4884C112.872 49.476 117.602 49.466 122.33 49.4561C123.043 49.4561 123.043 49.4561 123.768 49.4536C131.455 49.4387 139.142 49.4312 146.828 49.4263C154.718 49.4213 162.608 49.4039 170.498 49.3791C174.928 49.3642 179.358 49.3567 183.788 49.3592C187.959 49.3642 192.126 49.3542 196.297 49.3344C197.827 49.3294 199.357 49.3294 200.888 49.3344C202.978 49.3393 205.066 49.3294 207.156 49.3145C207.76 49.3195 208.367 49.3269 208.991 49.3319C213.057 49.2772 215.219 48.3158 218.653 46.1644C219.572 46.1644 220.491 46.1644 221.437 46.1644C221.665 47.0861 221.895 48.0077 222.133 48.9567C222.224 48.5021 222.321 48.0475 222.418 47.578C223.562 42.9199 224.983 40.3164 229.089 37.7923C234.322 35 234.322 35 237.434 35Z" fill="#334160"/>
<path d="M298.65 164.101C298.811 164.732 301.919 161.637 302.085 162.285C305.807 168.054 305.052 169.793 306.303 198.993C305.129 201.043 305.129 201.043 302.823 202.483C300.622 202.623 300.622 202.623 298.158 202.573C297.34 202.56 296.521 202.548 295.679 202.533C295.052 202.518 294.426 202.501 293.782 202.483C293.693 197.577 293.631 192.673 293.589 187.767C293.571 186.1 293.549 184.43 293.519 182.761C293.477 180.363 293.458 177.964 293.44 175.564C293.423 174.818 293.406 174.073 293.386 173.305C293.386 167.529 293.155 166.754 293.913 166.263C295.718 165.018 297.259 164.101 298.65 164.101Z" fill="#FDDBCC"/>
<path d="M58.6544 49.5654C59.2587 49.5679 59.8629 49.5679 60.4845 49.5704C61.4403 49.5704 61.4403 49.5704 62.416 49.5679C64.5655 49.5679 66.7175 49.5728 68.8695 49.5753C70.4048 49.5753 71.9402 49.5753 73.4756 49.5753C77.6557 49.5753 81.8383 49.5778 86.0209 49.5828C90.3868 49.5877 94.7526 49.5877 99.116 49.5902C106.449 49.5927 113.781 49.5952 121.111 49.6027C128.664 49.6076 136.217 49.6126 143.77 49.6176C144.468 49.6176 144.468 49.6176 145.182 49.6176C147.514 49.6176 149.847 49.62 152.182 49.62C171.558 49.6275 190.93 49.6399 210.306 49.6548C210.075 50.3455 209.847 51.0361 209.61 51.7491C213.399 52.0944 213.399 52.0944 217.262 52.4472C217.262 74.7834 217.262 97.1222 217.262 120.137C215.541 120.827 215.541 120.827 213.785 121.533C213.785 98.9655 213.785 76.3957 213.785 53.1453C211.947 53.3738 210.11 53.6048 208.218 53.8409C207.205 53.8955 206.192 53.9278 205.177 53.9278C204.64 53.9303 204.102 53.9303 203.55 53.9328C202.978 53.9303 202.408 53.9278 201.819 53.9253C201.197 53.9253 200.576 53.9278 199.937 53.9278C197.869 53.9278 195.799 53.9253 193.731 53.9204C192.243 53.9204 190.755 53.9204 189.266 53.9204C185.235 53.9204 181.206 53.9179 177.174 53.9129C172.957 53.9079 168.742 53.9079 164.525 53.9079C156.546 53.9054 148.567 53.898 140.588 53.893C129.803 53.8831 119.016 53.8781 108.232 53.8756C91.2436 53.8682 74.2556 53.8533 57.2676 53.8409C57.4979 84.4697 57.7283 115.098 57.9635 146.656C99.9728 146.885 141.982 147.116 185.264 147.355C184.576 148.736 183.885 150.117 183.177 151.541C140.479 151.541 97.7812 151.541 53.7908 151.541C53.7759 134.859 53.7611 118.177 53.7462 100.99C53.7413 95.7136 53.7338 90.4369 53.7289 85.0013C53.7239 78.5819 53.7239 78.5819 53.7239 75.5809C53.7239 73.4742 53.7215 71.3675 53.7165 69.2633C53.7116 66.5828 53.7116 63.9022 53.7116 61.2192C53.7116 60.2329 53.7091 59.2467 53.7066 58.2604C53.7041 56.9313 53.7041 55.6047 53.7066 54.2781C53.7066 53.5328 53.7066 52.7875 53.7041 52.0199C53.8725 48.7406 55.8462 49.5728 58.6544 49.5654Z" fill="#111112"/>
<path d="M39.8785 193.411C107.712 193.756 107.712 193.756 176.917 194.109C177.144 196.181 177.375 198.255 177.612 200.389C178.301 202.116 178.301 202.116 179.004 203.88C134.469 204.108 89.9336 204.339 44.0512 204.578C39.8785 196.203 39.8785 196.203 39.8785 193.411Z" fill="#667385"/>
<path d="M44.7471 203.88C89.2823 203.88 133.815 203.88 179.698 203.88C183.177 211.556 183.177 211.556 183.177 213.648C138.872 213.648 94.5669 213.648 48.9198 213.648C44.7471 205.974 44.7471 205.974 44.7471 203.88Z" fill="#979392"/>
<path d="M258.479 57.766C262.847 61.5521 263.984 65.83 265.261 71.288C264.801 71.288 264.343 71.288 263.87 71.288C264.214 71.9364 264.214 71.9364 264.566 72.5972C266.381 78.2912 265.153 82.7157 262.723 88.0247C261.829 90.027 261.146 92.012 260.477 94.0988C259.113 97.9643 257.03 101.184 254.13 104.086C253.672 104.086 253.211 104.086 252.738 104.086C252.738 105.698 252.738 107.31 252.738 108.972C245.393 108.972 238.049 108.972 230.478 108.972C229.683 106.294 229.683 106.294 228.871 103.564C228.708 103.02 228.544 102.478 228.378 101.917C228.079 100.901 227.786 99.8847 227.499 98.8636C227.157 97.6588 226.798 96.4564 226.422 95.2589C224.627 89.0383 224.674 83.1058 224.785 76.6963C224.795 75.6256 224.805 74.5548 224.812 73.4816C224.835 70.8905 224.872 68.2969 224.914 65.7058C225.144 65.7058 225.374 65.7058 225.61 65.7058C225.61 67.5467 225.61 69.39 225.61 71.288C227.331 71.9786 227.331 71.9786 229.089 72.6842C229.091 73.1761 229.094 73.6655 229.096 74.1723C228.965 88.5141 228.965 88.5141 233.262 101.994C235.986 104.337 238.323 104.317 241.827 104.217C243.378 104.175 244.928 104.13 246.478 104.086C246.032 103.614 245.587 103.139 245.126 102.652C239.099 95.326 239.428 88.5787 239.74 79.3992C239.76 78.003 239.777 76.6069 239.789 75.2107C239.973 63.942 239.973 63.942 241.61 59.4255C242.84 58.5138 242.84 58.5138 244.262 58.1163C244.76 57.9697 245.26 57.8231 245.775 57.6716C246.468 57.5027 246.468 57.5027 247.174 57.3313C247.749 57.1723 248.323 57.0133 248.912 56.8518C252.61 56.3872 255.138 56.0916 258.479 57.766Z" fill="#334160"/>
<path d="M78.7131 171.358C79.9116 171.37 79.9116 171.37 81.1325 171.383C82.0389 171.383 82.9427 171.383 83.8763 171.383C84.8644 171.4 85.8525 171.42 86.8406 171.437C87.8509 171.445 88.8613 171.45 89.8717 171.452C92.5313 171.464 95.1909 171.499 97.8506 171.539C100.562 171.574 103.276 171.589 105.99 171.609C111.315 171.646 116.639 171.705 121.961 171.778C121.631 174.177 121.297 176.577 120.963 178.975C120.821 179.996 120.821 179.996 120.678 181.039C120.586 181.695 120.495 182.348 120.4 183.021C120.316 183.625 120.232 184.229 120.145 184.85C119.875 186.432 119.875 186.432 119.18 188.527C113.439 188.527 107.702 188.527 101.788 188.527C101.558 190.139 101.33 191.751 101.092 193.411C91.9097 193.411 82.7273 193.411 73.2675 193.411C73.2675 189.187 73.3567 185.193 73.8321 181.024C73.8817 180.515 73.9312 180.008 73.9807 179.484C74.8054 172.192 74.8053 172.192 78.7131 171.358Z" fill="#EDF8FF"/>
<path d="M121.961 171.08C131.604 171.08 141.244 171.08 151.177 171.08C152.326 176.607 153.473 182.135 154.656 187.829C162.232 188.174 162.232 188.174 169.96 188.527C169.96 190.139 169.96 191.751 169.96 193.411C147.235 193.411 124.506 193.411 101.092 193.411C101.322 191.799 101.553 190.186 101.788 188.527C107.528 188.527 113.266 188.527 119.18 188.527C119.38 186.942 119.581 185.359 119.789 183.73C120.331 179.437 121.111 175.348 121.961 171.08Z" fill="#EFEBEB"/>
<path d="M89.2675 113.158C91.2659 114.554 91.2659 114.554 92.7443 116.649C92.7443 118.49 92.7443 120.333 92.7443 122.231C97.1077 122.231 101.469 122.231 105.963 122.231C105.963 127.296 105.963 132.364 105.963 137.584C94.0246 137.584 82.0884 137.584 69.7907 137.584C69.7907 132.516 69.7907 127.45 69.7907 122.231C73.9213 122.231 78.0544 122.231 82.3113 122.231C82.3113 120.159 82.3113 118.085 82.3113 115.951C84.1463 113.046 85.9392 112.545 89.2675 113.158Z" fill="#B8B6B7"/>
<path d="M51.0073 168.29C59.271 168.29 67.5347 168.29 76.051 168.29C75.734 171.254 75.4195 174.22 75.0926 177.273C74.949 178.654 74.949 178.654 74.8029 180.063C74.7212 180.811 74.6394 181.558 74.5552 182.329C74.476 183.081 74.3943 183.834 74.3126 184.609C73.8718 187.799 73.2007 190.951 72.5717 194.109C65.9152 194.109 59.2586 194.109 52.3991 194.109C52.1688 191.274 51.9409 188.437 51.7032 185.516C51.6314 184.639 51.5571 183.762 51.4828 182.858C51.4258 182.14 51.3714 181.424 51.3119 180.684C51.255 179.963 51.1955 179.243 51.1361 178.503C50.9652 175.102 51.0073 171.693 51.0073 168.29Z" fill="#385354"/>
<path d="M183.177 171.08C182.855 176.202 181.859 180.87 180.393 185.779C180.205 186.44 180.014 187.101 179.819 187.784C178.412 192.608 178.412 192.608 177.612 193.411C176.322 193.463 175.032 193.471 173.742 193.456C173.038 193.448 172.335 193.443 171.61 193.436C170.792 193.423 170.792 193.423 169.96 193.411C169.96 191.799 169.96 190.186 169.96 188.527C164.908 188.527 159.859 188.527 154.656 188.527C152.98 182.641 152.98 182.641 152.482 180.545C152.366 180.07 152.249 179.596 152.128 179.109C151.769 176.649 151.836 174.262 151.873 171.778C154.765 171.676 157.658 171.576 160.553 171.48C161.531 171.447 162.511 171.412 163.49 171.378C170.057 171.147 176.604 171.032 183.177 171.08Z" fill="#EDF8FF"/>
<path d="M69.7907 64.3096C93.663 64.3096 117.538 64.3096 142.136 64.3096C142.136 66.6125 142.136 68.9154 142.136 71.2879C118.261 71.2879 94.3861 71.2879 69.7907 71.2879C69.7907 68.985 69.7907 66.6821 69.7907 64.3096Z" fill="#C1C2C1"/>
<path d="M161.612 49.6548C177.682 49.6548 193.751 49.6548 210.306 49.6548C210.075 50.3454 209.847 51.0361 209.61 51.749C212.136 51.9776 214.661 52.2086 217.262 52.4471C217.262 74.7834 217.262 97.1221 217.262 120.137C216.115 120.599 214.966 121.058 213.785 121.533C213.785 98.9655 213.785 76.3957 213.785 53.1452C196.108 53.1452 178.432 53.1452 160.221 53.1452C160.679 51.9925 161.139 50.8423 161.612 49.6548Z" fill="#070607"/>
<path d="M69.0948 88.7354C73.4557 88.7354 77.8166 88.7354 82.3112 88.7354C80.2236 90.129 80.2236 90.129 78.1361 90.129C78.0444 90.6284 77.9528 91.1277 77.8562 91.642C77.4501 93.5797 76.9325 95.4355 76.3555 97.326C76.1673 97.9421 75.9791 98.5582 75.786 99.1942C75.6448 99.6563 75.5012 100.121 75.3551 100.598C77.1901 100.598 79.0276 100.598 80.9195 100.598C80.9195 99.6762 80.9195 98.7545 80.9195 97.8055C81.2885 98.0266 81.6575 98.2502 82.0388 98.4762C84.0818 99.3681 85.8327 99.4923 88.049 99.6389C88.7994 99.6911 89.5497 99.7432 90.3223 99.7954C90.8919 99.8302 91.4615 99.865 92.0484 99.8998C92.0484 97.5968 92.0484 95.2939 92.0484 92.9214C93.4401 95.0156 93.4401 95.0156 94.3093 97.5446C94.713 98.3222 95.1141 99.0998 95.5277 99.8998C97.6722 100.638 97.6722 100.638 99.7004 100.598C99.423 99.4749 99.1308 98.357 98.8312 97.2391C98.591 96.305 98.591 96.305 98.3433 95.351C97.1249 92.4543 94.7922 91.4084 92.0484 90.129C92.0484 89.6694 92.0484 89.2099 92.0484 88.7354C96.6421 88.7354 101.231 88.7354 105.963 88.7354C105.963 93.8008 105.963 98.8663 105.963 104.086C93.7967 104.086 81.6302 104.086 69.0948 104.086C69.0948 99.0203 69.0948 93.9548 69.0948 88.7354Z" fill="#D47555"/>
<path d="M136.093 171C136.789 171.005 137.485 171.007 138.203 171.012C138.954 171.015 139.704 171.017 140.479 171.017C141.665 171.027 141.665 171.027 142.874 171.037C144.062 171.042 144.062 171.042 145.278 171.047C147.244 171.055 149.211 171.067 151.177 171.079C151.647 173.069 152.111 175.062 152.569 177.054C152.702 177.613 152.834 178.172 152.972 178.746C153.161 179.573 153.161 179.573 153.351 180.415C153.468 180.917 153.584 181.419 153.705 181.933C154.03 184.11 153.96 186.328 153.96 188.527C146.843 188.527 139.729 188.527 132.396 188.527C132.396 184.341 132.488 180.738 133.047 176.662C133.169 175.757 133.29 174.851 133.414 173.914C133.904 171.109 133.904 171.109 136.093 171Z" fill="#CCCED0"/>
<path d="M89.9633 80.3607C91.6596 81.3197 91.6596 81.3197 92.7443 83.1506C92.9696 85.4957 92.9052 87.7813 92.7443 90.129C93.3906 90.4171 94.0369 90.7053 94.7006 91.0034C96.9368 92.2332 97.858 92.7747 99.007 95.0156C99.3711 96.8862 99.5444 98.6923 99.7004 100.598C97.7441 100.816 97.7441 100.816 95.5277 100.598C94.1063 98.7793 93.4723 97.2042 92.7443 95.0156C92.5164 96.6279 92.2861 98.2402 92.0484 99.8997C90.7161 99.9568 89.3838 99.9966 88.049 100.031C86.9371 100.066 86.9371 100.066 85.8005 100.103C83.4925 99.8798 82.596 99.3606 80.9195 97.8054C80.9195 98.7271 80.9195 99.6488 80.9195 100.598C79.0821 100.598 77.2471 100.598 75.3551 100.598C75.6944 96.7049 76.1352 93.525 78.1361 90.129C80.3549 89.4756 80.3549 89.4756 82.3113 89.4334C82.2791 89.011 82.2469 88.5912 82.2122 88.1564C82.0091 83.6474 82.0091 83.6474 83.3984 81.3644C85.7584 79.9657 87.269 79.9732 89.9633 80.3607Z" fill="#DA6B46"/>
<path d="M115.004 81.7568C137.042 81.7568 159.079 81.7568 181.785 81.7568C181.785 83.1381 181.785 84.5194 181.785 85.9429C159.748 85.9429 137.71 85.9429 115.004 85.9429C115.004 84.5616 115.004 83.1803 115.004 81.7568Z" fill="#CECDCE"/>
<path d="M248.043 37.0496C248.665 37.057 249.284 37.062 249.923 37.0694C250.393 37.0769 250.864 37.0843 251.347 37.0943C250.314 38.8209 250.314 38.8209 249.261 40.5822C250.15 40.4953 251.039 40.4108 251.956 40.3214C256.26 40.3487 259.187 42.0976 262.478 44.7707C266.495 48.8698 269.214 53.4956 271.522 58.7275C270.833 58.7275 270.145 58.7275 269.434 58.7275C269.204 59.1871 268.976 59.6467 268.738 60.1237C268.738 59.6616 268.738 59.202 268.738 58.7275C267.906 58.6405 267.074 58.5536 266.217 58.4641C263.667 58.1511 261.435 57.4655 258.999 56.6332C257.382 56.3724 255.759 56.1314 254.13 55.9351C254.13 55.7041 254.13 55.4755 254.13 55.2371C256.195 55.0085 258.263 54.7775 260.39 54.539C260.16 53.8483 259.932 53.1577 259.694 52.4472C261.532 52.6758 263.367 52.9068 265.261 53.1453C258.729 50.6883 258.729 50.6883 252.104 51.6795C250.908 52.3727 249.734 53.1055 248.566 53.8409C248.105 53.8409 247.647 53.8409 247.174 53.8409C246.716 54.303 246.255 54.7626 245.782 55.2371C245.98 50.5591 247.946 47.7891 250.653 44.0726C251.111 43.382 251.569 42.6914 252.042 41.9784C251.584 41.7474 251.126 41.5188 250.653 41.2803C250.423 41.9709 250.193 42.6616 249.957 43.3746C247.652 44.1596 247.652 44.1596 245.086 44.7707C244.17 44.9993 243.251 45.2303 242.305 45.4688C242.533 43.1659 242.763 40.8629 243.001 38.4904C242.541 38.2594 242.082 38.0284 241.609 37.7924C243.804 37.139 245.76 37.0197 248.043 37.0496Z" fill="#334160"/>
<path d="M54.4867 175.268C60.2245 175.268 65.9647 175.268 71.8759 175.268C71.9625 184.515 71.9625 184.515 71.18 189.225C65.6725 189.225 60.1626 189.225 54.4867 189.225C54.4867 184.619 54.4867 180.013 54.4867 175.268Z" fill="#F7FAFA"/>
<path d="M115.004 125.023C143.24 125.023 171.476 125.023 200.568 125.023C200.568 125.942 200.568 126.864 200.568 127.813C172.333 127.813 144.097 127.813 115.004 127.813C115.004 126.891 115.004 125.972 115.004 125.023Z" fill="#C7C7CB"/>
<path d="M115.004 111.064C143.012 111.064 171.018 111.064 199.873 111.064C200.217 112.448 200.217 112.448 200.568 113.856C172.333 113.856 144.097 113.856 115.004 113.856C115.004 112.935 115.004 112.015 115.004 111.064Z" fill="#C4C4C6"/>
<path d="M115.004 90.1289C143.012 90.1289 171.018 90.1289 199.873 90.1289C200.217 91.5127 200.217 91.5127 200.568 92.9212C172.333 92.9212 144.097 92.9212 115.004 92.9212C115.004 91.9996 115.004 91.0779 115.004 90.1289Z" fill="#C7CACE"/>
<path d="M224.914 65.7058C225.144 65.7058 225.374 65.7058 225.61 65.7058C225.61 67.5467 225.61 69.39 225.61 71.288C227.331 71.9786 227.331 71.9786 229.089 72.6842C229.091 73.1761 229.094 73.6655 229.096 74.1723C228.965 88.5141 228.965 88.5141 233.262 101.994C235.731 103.805 237.543 104.359 240.579 104.443C241.644 104.481 241.644 104.481 242.734 104.518C243.833 104.543 243.833 104.543 244.958 104.568C245.705 104.59 246.451 104.615 247.221 104.64C249.061 104.697 250.898 104.744 252.738 104.784C252.738 106.167 252.738 107.549 252.738 108.972C245.393 108.972 238.049 108.972 230.478 108.972C229.948 107.186 229.418 105.402 228.871 103.564C228.708 103.02 228.544 102.478 228.378 101.917C228.079 100.901 227.786 99.8847 227.499 98.8636C227.157 97.6588 226.798 96.4564 226.422 95.2589C224.627 89.0383 224.674 83.1058 224.785 76.6963C224.795 75.6256 224.805 74.5549 224.812 73.4816C224.835 70.8905 224.872 68.2969 224.914 65.7058Z" fill="#FDDBCC"/>
<path d="M115.004 96.4116C141.863 96.4116 168.722 96.4116 196.393 96.4116C196.737 97.7929 196.737 97.7929 197.089 99.2015C170.002 99.2015 142.913 99.2015 115.004 99.2015C115.004 98.2798 115.004 97.3606 115.004 96.4116Z" fill="#C9CACB"/>
<path d="M195.002 139.678C195.462 139.678 195.92 139.678 196.393 139.678C196.443 140.15 196.49 140.622 196.542 141.109C197.646 151.682 199.093 162.069 201.262 172.476C197.842 172.103 195.504 170.533 192.698 168.682C192.25 168.397 191.8 168.111 191.339 167.818C190.212 167.087 189.125 166.295 188.045 165.497C188.045 165.038 188.045 164.576 188.045 164.101C187.659 164.044 187.27 163.987 186.872 163.927C184.762 163.242 183.469 162.049 181.785 160.613C180.861 159.91 179.935 159.212 179.004 158.519C179.346 157.483 179.346 157.483 179.697 156.425C183.157 157.657 186.26 159.493 189.437 161.311C189.69 160.109 189.69 160.109 189.947 158.882C191.341 152.363 192.906 146.008 195.002 139.678Z" fill="#23456D"/>
<path d="M121.961 171.08C126.094 171.08 130.227 171.08 134.484 171.08C133.793 176.838 133.104 182.594 132.396 188.527C128.035 188.527 123.672 188.527 119.18 188.527C119.925 182.649 120.717 176.875 121.961 171.08Z" fill="#DFDFE1"/>
<path d="M259.695 108.972C259.695 110.813 259.695 112.656 259.695 114.554C255.559 114.671 251.426 114.783 247.29 114.89C245.881 114.93 244.475 114.967 243.066 115.007C241.047 115.064 239.027 115.116 237.006 115.168C236.058 115.195 236.058 115.195 235.092 115.225C234.507 115.24 233.92 115.253 233.319 115.267C232.546 115.287 232.546 115.287 231.756 115.31C230.478 115.253 230.478 115.253 229.089 114.554C229.089 112.711 229.089 110.87 229.089 108.972C232.368 108.87 235.646 108.771 238.925 108.674C240.04 108.639 241.154 108.607 242.266 108.572C243.875 108.523 245.483 108.475 247.09 108.426C247.583 108.411 248.075 108.396 248.581 108.381C257.169 108.128 257.169 108.128 259.695 108.972Z" fill="#23456D"/>
<path d="M51.7032 161.311C59.2784 161.311 66.8537 161.311 74.6592 161.311C76.0509 165.497 76.0509 165.497 76.0509 168.29C67.7873 168.29 59.5211 168.29 51.0073 168.29C50.777 168.749 50.5492 169.209 50.3114 169.683C49.0807 165.979 49.9325 165.453 51.7032 161.311Z" fill="#D7D5D5"/>
<path d="M223.522 44.0725C223.752 44.0725 223.983 44.0725 224.218 44.0725C224.228 44.6513 224.238 45.2327 224.248 45.8289C224.282 46.5891 224.314 47.3468 224.349 48.1294C224.386 49.2572 224.386 49.2572 224.423 50.4099C224.713 52.5638 224.713 52.5638 226.523 53.647C227.14 53.9426 227.757 54.2357 228.393 54.5388C230.057 55.6568 231.652 56.8269 233.262 58.0293C233.262 58.2603 233.262 58.4889 233.262 58.7273C232.373 58.8143 231.484 58.8988 230.565 58.9882C228.15 59.2093 228.15 59.2093 226.305 60.8191C226.305 60.1285 226.305 59.4379 226.305 58.7273C225.904 58.5534 225.501 58.382 225.087 58.2032C223.292 57.202 222.148 56.0393 220.741 54.5388C219.822 53.6172 218.904 52.698 217.958 51.749C217.958 74.3163 217.958 96.886 217.958 120.137C217.727 120.137 217.499 120.137 217.262 120.137C217.262 97.7978 217.262 75.4615 217.262 52.4471C214.508 52.4471 211.752 52.4471 208.914 52.4471C210.306 49.6547 210.306 49.6547 211.737 48.974C212.284 48.825 212.831 48.6734 213.394 48.5219C215.536 47.9182 216.754 47.4362 218.653 46.1643C219.572 46.1643 220.491 46.1643 221.437 46.1643C221.665 47.086 221.895 48.0076 222.133 48.9566C222.591 47.3443 223.049 45.732 223.522 44.0725Z" fill="#334160"/>
<path d="M83.703 90.827C85.486 90.7525 87.2665 90.6979 89.0495 90.6531C89.5522 90.6308 90.0524 90.6059 90.57 90.5836C93.1875 90.5339 94.5545 90.668 96.8749 92.0046C98.4944 93.8281 98.8783 94.8913 99.2225 97.2837C99.3215 97.9048 99.4181 98.5284 99.5196 99.1693C99.5791 99.6413 99.6385 100.111 99.7004 100.598C97.7441 100.816 97.7441 100.816 95.5277 100.598C94.1063 98.7793 93.4723 97.2042 92.7443 95.0156C92.5164 96.6279 92.2861 98.2402 92.0484 99.8997C90.674 99.9196 89.2971 99.932 87.9203 99.9444C87.1526 99.9518 86.3849 99.9593 85.595 99.9667C83.703 99.8997 83.703 99.8997 83.0071 99.2016C82.9378 98.0539 82.9155 96.9061 82.9205 95.7559C82.918 95.1323 82.9155 94.5063 82.913 93.8628C83.0071 92.2232 83.0071 92.2232 83.703 90.827Z" fill="#FCFAF8"/>
<path d="M237.434 35C236.36 39.104 235.55 41.643 231.87 44.0726C230.758 46.3035 230.83 48.6263 231.174 51.051C232.841 53.3415 234.983 54.5688 237.434 55.9351C236.976 56.1662 236.518 56.3972 236.045 56.6332C232.858 55.5078 230.528 54.4694 228.393 51.7491C227.871 50.179 227.871 50.179 227.697 48.9567C227.237 50.338 226.778 51.7193 226.305 53.1453C225.617 52.9142 224.929 52.6832 224.218 52.4472C223.485 43.2752 223.485 43.2752 225.082 40.448C226.362 39.3177 227.563 38.5575 229.089 37.7923C229.901 37.365 229.901 37.365 230.731 36.9328C233.091 35.7975 234.795 35 237.434 35Z" fill="#23456D"/>
<path d="M192.914 194.109C196.817 194.109 200.719 194.109 204.741 194.109C204.741 197.333 204.741 200.558 204.741 203.88C201.069 203.88 197.396 203.88 193.61 203.88C191.96 200.568 192.045 199.125 192.22 195.505C192.448 195.043 192.679 194.583 192.914 194.109Z" fill="#667385"/>
<path d="M92.0484 88.7354C96.4118 88.7354 100.773 88.7354 105.267 88.7354C105.267 93.5698 105.267 98.4067 105.267 103.39C102.511 103.39 99.7574 103.39 96.9195 103.39C96.9195 102.697 96.9195 102.006 96.9195 101.296C97.6079 101.065 98.2963 100.834 99.0071 100.598C98.8461 99.4749 98.6703 98.357 98.4845 97.2391C98.388 96.6155 98.2914 95.992 98.1899 95.351C97.3132 92.7152 95.6268 91.945 93.2668 90.6979C92.8656 90.5091 92.4645 90.3228 92.0484 90.129C92.0484 89.6694 92.0484 89.2099 92.0484 88.7354Z" fill="#D15931"/>
<path d="M231.174 100.598C231.635 100.598 232.093 100.598 232.566 100.598C232.895 101.045 233.227 101.49 233.566 101.949C234.589 103.587 234.589 103.586 236.741 104.086C237.972 104.19 239.207 104.26 240.443 104.307C241.515 104.352 241.515 104.352 242.61 104.396C243.729 104.439 243.729 104.439 244.871 104.478C245.624 104.511 246.377 104.54 247.154 104.57C249.016 104.645 250.876 104.717 252.738 104.784C252.738 106.168 252.738 107.549 252.738 108.972C245.393 108.972 238.049 108.972 230.478 108.972C230.02 106.901 229.562 104.826 229.089 102.692C229.547 102.692 230.005 102.692 230.478 102.692C230.709 102.002 230.939 101.311 231.174 100.598Z" fill="#FDDBCC"/>
<path d="M292.39 139.678C292.62 139.678 292.848 139.678 293.086 139.678C293.559 141.971 294.02 144.269 294.478 146.567C294.609 147.208 294.743 147.849 294.879 148.51C295.728 152.83 296.04 156.909 295.867 161.311C296.555 161.311 297.244 161.311 297.955 161.311C297.955 160.849 297.955 160.39 297.955 159.915C298.851 159.446 299.75 158.981 300.651 158.519C301.152 158.261 301.652 158 302.167 157.734C303.519 157.123 303.519 157.123 304.911 157.123C304.794 158.705 304.794 158.705 304.215 160.613C302.571 161.997 302.571 161.997 300.52 163.229C299.849 163.644 299.175 164.057 298.485 164.484C296.863 165.338 295.567 165.873 293.782 166.196C293.314 165.296 292.851 164.394 292.39 163.49C292.133 162.988 291.873 162.486 291.608 161.97C290.998 160.613 290.998 160.613 290.998 159.217C290.31 158.986 289.622 158.758 288.911 158.519C289.371 158.288 289.83 158.059 290.303 157.821C290.761 158.052 291.221 158.281 291.694 158.519C291.687 157.627 291.677 156.735 291.67 155.814C291.662 154.621 291.657 153.431 291.65 152.239C291.645 151.653 291.64 151.066 291.632 150.465C291.618 146.801 291.858 143.303 292.39 139.678Z" fill="#23456D"/>
<path d="M145.613 118.74C162.601 118.74 179.586 118.74 197.089 118.74C197.089 119.434 197.089 120.124 197.089 120.835C180.101 120.835 163.116 120.835 145.613 120.835C145.613 120.144 145.613 119.453 145.613 118.74Z" fill="#BFBDBE"/>
<path d="M115.004 90.8271C121.089 90.8122 127.171 90.7998 133.255 90.7923C136.081 90.7874 138.906 90.7824 141.73 90.7749C144.459 90.7675 147.188 90.7625 149.916 90.7625C150.957 90.76 151.994 90.7575 153.032 90.7551C154.493 90.7501 155.954 90.7476 157.412 90.7476C158.658 90.7451 158.658 90.7451 159.926 90.7451C162.388 90.8296 164.748 91.1327 167.177 91.5252C164.601 93.2468 163.329 93.0903 160.255 93.0804C159.768 93.0804 159.277 93.0804 158.775 93.0804C157.16 93.0804 155.545 93.0679 153.931 93.058C152.811 93.0555 151.69 93.053 150.57 93.0505C147.623 93.0456 144.676 93.0332 141.73 93.0182C138.721 93.0033 135.714 92.9959 132.708 92.9884C126.807 92.9735 120.906 92.9512 115.004 92.9214C115.004 92.2307 115.004 91.5401 115.004 90.8271Z" fill="#BEC2C5"/>
<path d="M144.917 97.1072C162.135 97.1072 179.351 97.1072 197.089 97.1072C197.089 97.7978 197.089 98.4909 197.089 99.2014C190.596 99.2511 184.1 99.2884 177.607 99.3108C174.591 99.3207 171.575 99.3356 168.561 99.3604C165.651 99.3828 162.742 99.3952 159.832 99.4002C158.723 99.4052 157.611 99.4126 156.501 99.4225C154.946 99.4374 153.393 99.4399 151.838 99.4399C150.954 99.4449 150.068 99.4499 149.156 99.4548C147.004 99.2014 147.004 99.2014 144.917 97.1072Z" fill="#BCBDBE"/>
<path d="M204.741 202.483C204.971 202.483 205.199 202.483 205.437 202.483C206.076 206.257 206.192 209.819 206.133 213.648C203.377 213.648 200.623 213.648 197.785 213.648C194.395 207.02 194.395 207.02 193.61 203.88C197.285 203.88 200.957 203.88 204.741 203.88C204.741 203.417 204.741 202.958 204.741 202.483Z" fill="#979292"/>
<path d="M69.7907 88.7354C73.9213 88.7354 78.0544 88.7354 82.3113 88.7354C80.2237 90.129 80.2237 90.129 78.1361 90.129C78.0519 90.6333 77.9652 91.1377 77.8761 91.6569C77.4427 93.6195 77.4427 93.6195 76.7469 95.3212C75.9742 97.3037 75.6474 99.1917 75.3551 101.296C75.8133 101.527 76.2739 101.756 76.7469 101.994C76.5166 102.223 76.2863 102.454 76.051 102.692C73.9832 102.692 71.9179 102.692 69.7907 102.692C69.7907 98.0862 69.7907 93.4803 69.7907 88.7354Z" fill="#E4652D"/>
<path d="M51.0073 168.29C53.0726 168.518 55.1404 168.749 57.2676 168.988C57.2676 171.06 57.2676 173.132 57.2676 175.268C56.3489 175.268 55.4326 175.268 54.4866 175.268C54.4866 179.874 54.4866 184.48 54.4866 189.225C54.026 189.225 53.5679 189.225 53.0949 189.225C53.0949 190.606 53.0949 191.987 53.0949 193.411C59.5211 193.411 65.9498 193.411 72.5717 193.411C72.5717 193.642 72.5717 193.873 72.5717 194.109C65.9151 194.109 59.2586 194.109 52.399 194.109C52.1687 191.274 51.9409 188.437 51.7032 185.516C51.6314 184.639 51.5571 183.762 51.4828 182.858C51.0989 177.988 50.9182 173.171 51.0073 168.29Z" fill="#5B8385"/>
<path d="M115.004 131.304C125.794 131.304 136.584 131.304 147.7 131.304C147.7 132.225 147.7 133.145 147.7 134.094C136.911 134.094 126.121 134.094 115.004 134.094C115.004 133.174 115.004 132.253 115.004 131.304Z" fill="#C5C3C3"/>
<path d="M83.703 124.325C86.2264 124.554 88.7523 124.785 91.355 125.023C92.0137 127.006 92.1425 128.285 92.1375 130.342C92.1375 130.899 92.14 131.455 92.1425 132.029C92.0484 133.395 92.0484 133.395 91.355 134.093C90.0648 134.146 88.7746 134.153 87.4844 134.138C86.7811 134.131 86.0778 134.126 85.3523 134.118C84.8075 134.111 84.2627 134.103 83.703 134.093C82.8363 132.359 82.913 131.145 82.9205 129.209C82.918 128.591 82.9155 127.972 82.913 127.334C83.0071 125.721 83.0071 125.721 83.703 124.325Z" fill="#F3F3F5"/>
<path d="M262.042 51.3119C263.842 51.851 263.842 51.851 265.261 52.4473C265.489 52.9069 265.72 53.3664 265.955 53.8409C264.12 53.6124 262.282 53.3814 260.39 53.1453C260.39 53.6049 260.39 54.0645 260.39 54.539C260.851 54.7701 261.309 55.0011 261.782 55.2371C256.272 55.5824 256.272 55.5824 250.651 55.9352C250.651 56.3973 250.651 56.8569 250.651 57.3314C248.358 57.791 246.062 58.2531 243.697 58.7276C244.155 57.5748 244.613 56.4246 245.086 55.2371C245.547 55.2371 246.005 55.2371 246.478 55.2371C246.939 54.3154 247.397 53.3963 247.87 52.4473C248.558 52.4473 249.247 52.4473 249.957 52.4473C250.472 52.1019 250.99 51.7541 251.522 51.3989C255.086 49.4487 258.298 50.2611 262.042 51.3119Z" fill="#23456D"/>
<path d="M169.784 124.944C170.453 124.944 171.119 124.944 171.808 124.944C172.528 124.946 173.249 124.951 173.989 124.954C175.096 124.956 175.096 124.956 176.226 124.956C178.586 124.961 180.948 124.969 183.308 124.979C184.905 124.981 186.505 124.986 188.105 124.988C192.027 124.996 195.95 125.008 199.872 125.023C199.872 125.714 199.872 126.405 199.872 127.115C195.266 127.152 190.66 127.175 186.057 127.192C184.489 127.2 182.922 127.209 181.357 127.222C179.103 127.237 176.852 127.247 174.601 127.252C173.9 127.259 173.199 127.267 172.476 127.274C171.496 127.274 171.496 127.274 170.495 127.274C169.921 127.277 169.346 127.281 168.752 127.284C167.023 127.1 165.892 126.588 164.393 125.721C166.414 125.043 167.684 124.939 169.784 124.944Z" fill="#C1C0C2"/>
<path d="M83.703 90.827C85.486 90.7525 87.2665 90.6979 89.0495 90.6531C89.5522 90.6308 90.0525 90.6059 90.57 90.5836C93.1876 90.5339 94.5545 90.668 96.8749 92.0046C98.4945 93.8281 98.8783 94.8913 99.2225 97.2837C99.3216 97.9048 99.4182 98.5284 99.5197 99.1693C99.5791 99.6413 99.6386 100.111 99.7005 100.598C97.7441 100.816 97.7441 100.816 95.5278 100.598C94.1063 98.7793 93.4724 97.2042 92.7443 95.0156C92.5165 96.6279 92.2862 98.2402 92.0484 99.8997C91.8206 99.8997 91.5903 99.8997 91.3551 99.8997C91.3551 97.1371 91.3551 94.3721 91.3551 91.5251C88.8292 91.5251 86.3032 91.5251 83.703 91.5251C83.703 91.2966 83.703 91.0655 83.703 90.827Z" fill="#F9E4DD"/>
<path d="M184.568 81.7568C188.929 81.7568 193.29 81.7568 197.785 81.7568C197.785 83.1381 197.785 84.5194 197.785 85.9429C193.424 85.9429 189.061 85.9429 184.568 85.9429C184.568 84.5616 184.568 83.1803 184.568 81.7568Z" fill="#CECDCF"/>
<path d="M248.043 37.0496C248.665 37.057 249.284 37.062 249.923 37.0694C250.393 37.0769 250.864 37.0843 251.347 37.0943C250.314 38.8209 250.314 38.8209 249.261 40.5822C250.869 40.5822 252.476 40.5822 254.13 40.5822C254.13 40.8133 254.13 41.0443 254.13 41.2803C252.983 41.2803 251.834 41.2803 250.653 41.2803C250.423 41.9709 250.193 42.6616 249.957 43.3746C247.652 44.1596 247.652 44.1596 245.086 44.7707C244.17 44.9993 243.251 45.2303 242.305 45.4688C242.533 43.1659 242.763 40.8629 243.001 38.4904C242.541 38.2594 242.082 38.0284 241.609 37.7924C243.804 37.139 245.76 37.0197 248.043 37.0496Z" fill="#23456D"/>
<path d="M89.2675 115.253C90.5279 116.038 90.5279 116.038 91.3551 117.347C91.6299 119.565 91.7389 120.924 90.5279 122.842C88.8118 123.91 87.7742 123.925 85.7881 123.627C84.5277 122.842 84.5277 122.842 83.703 121.533C83.4257 119.312 83.3192 117.953 84.5277 116.038C86.2438 114.969 87.2814 114.954 89.2675 115.253Z" fill="#F1F4F7"/>
<path d="M92.0484 124.325C93.9627 124.412 93.9627 124.412 96.2236 125.023C99.012 128.121 99.4256 130.782 99.7004 134.792C97.7441 134.965 97.7441 134.965 95.5277 134.792C93.507 132.725 93.0489 130.802 92.6155 127.987C92.5041 127.301 92.3951 126.613 92.2812 125.905C92.2044 125.383 92.1277 124.862 92.0484 124.325Z" fill="#F1F2F4"/>
<path d="M82.3113 124.325C81.4272 132.886 81.4272 132.886 79.5278 134.791C78.1386 134.821 76.7469 134.821 75.3551 134.791C75.1372 131.159 75.3898 128.775 77.4427 125.721C79.1861 124.782 80.3401 124.325 82.3113 124.325Z" fill="#F3F3F5"/>
<path d="M82.3113 90.8269C81.9175 94.1012 81.4866 97.3482 80.9195 100.598C79.0821 100.598 77.2471 100.598 75.3551 100.598C75.6572 97.0128 75.9123 94.4714 78.1361 91.525C79.5278 90.8269 79.5278 90.8269 82.3113 90.8269Z" fill="#FBF1EE"/>
<path d="M253.434 212.254C254.123 212.714 254.811 213.173 255.522 213.648C255.291 215.26 255.061 216.873 254.826 218.535C250.453 219.461 250.453 219.461 248.261 218.448C247.174 217.138 247.174 217.138 246.869 215.35C246.971 214.788 247.07 214.227 247.174 213.648C249.588 212.036 250.599 212.016 253.434 212.254Z" fill="#04051D"/>
<path d="M87.529 81.5806C89.2674 81.757 89.2674 81.757 90.6592 83.1506C90.8424 84.4599 90.8424 84.4599 90.8325 85.943C90.835 86.4324 90.8399 86.9218 90.8424 87.4261C90.6592 88.7353 90.6592 88.7353 89.2674 90.129C86.7465 89.8682 86.7465 89.8682 84.3989 89.4309C84.3592 88.4149 84.3345 87.3963 84.3097 86.3802C84.2874 85.5281 84.2874 85.5281 84.2627 84.6611C84.4707 82.3408 85.2706 81.8066 87.529 81.5806Z" fill="#FAF5F3"/>
<path d="M188.045 164.101C188.045 164.563 188.045 165.023 188.045 165.497C188.538 165.676 189.033 165.855 189.541 166.039C191.681 166.961 193.493 168.093 195.437 169.38C197.416 170.687 199.011 171.723 201.262 172.476C200.861 175.454 200.147 177.971 198.979 180.736C198.337 182.259 197.693 183.779 197.044 185.3C193.947 192.653 192.951 195.222 193.62 197.492C195.115 202.568 195.17 204.203 198.107 210.423C205.969 231.328 207.435 229.833 207.525 246.448C199.697 248.803 199.697 248.803 196.393 249.238C195.997 247.148 195.685 245.275 195.816 243.144C195.524 237.517 182.773 222.201 179.928 215.066C177.706 213.648 171.565 198.605 174.653 190.735C177.176 181.754 178.633 172.294 184.487 162.77C185.985 163.013 186.807 164.101 188.045 164.101Z" fill="#FDDBCC"/>
<path d="M115.004 118.74C121.891 118.74 128.778 118.74 135.873 118.74C135.873 119.434 135.873 120.124 135.873 120.835C128.986 120.835 122.099 120.835 115.004 120.835C115.004 120.144 115.004 119.453 115.004 118.74Z" fill="#C1C0C1"/>
<path d="M256.913 208.066C259.454 208.938 260.239 209.231 261.782 211.556C261.968 213.544 261.968 213.544 261.955 215.787C261.96 216.527 261.963 217.27 261.968 218.035C261.782 219.928 261.782 219.928 260.39 221.324C260.16 222.763 260.16 222.763 260.17 224.43C260.155 225.073 260.14 225.717 260.128 226.377C260.12 227.073 260.11 227.769 260.103 228.484C260.088 229.195 260.076 229.905 260.061 230.638C260.021 232.911 259.989 235.187 259.957 237.462C259.93 239.003 259.902 240.543 259.875 242.083C259.808 245.864 259.749 249.645 259.694 253.426C259.467 253.426 259.236 253.426 258.999 253.426C258.964 248.694 258.939 243.961 258.924 239.229C258.917 237.619 258.907 236.009 258.895 234.399C258.877 232.086 258.87 229.773 258.865 227.461C258.857 226.74 258.85 226.017 258.843 225.274C258.843 224.604 258.843 223.933 258.843 223.242C258.838 222.651 258.835 222.062 258.833 221.454C258.999 219.928 258.999 219.928 260.39 217.836C260.583 216.473 260.583 216.473 260.522 215.044C260.517 214.57 260.512 214.095 260.507 213.606C260.43 212.1 260.43 212.1 259.694 210.16C258.303 209.315 258.303 209.315 256.913 208.764C256.913 208.533 256.913 208.304 256.913 208.066Z" fill="#3A3C3E"/>
<path d="M89.2674 113.158C91.2659 114.686 91.2659 114.686 92.7443 116.649C92.9622 118.611 92.9622 118.611 92.7443 120.137C92.301 119.575 91.8553 119.014 91.3971 118.437C90.3769 117.153 90.3769 117.153 89.2674 115.951C87.6454 115.921 86.0209 115.921 84.3989 115.951C84.0918 119.809 84.0918 119.809 85.4414 123.277C85.7856 123.622 86.1299 123.967 86.484 124.325C84.8768 124.094 83.2696 123.863 81.6154 123.627C81.8532 116.681 81.8531 116.681 83.4851 114.075C85.6519 112.84 86.8109 112.706 89.2674 113.158Z" fill="#B1AFB1"/>
<path d="M204.741 187.829C205.43 188.06 206.118 188.288 206.829 188.527C206.829 196.817 206.829 205.107 206.829 213.648C206.598 213.648 206.368 213.648 206.133 213.648C205.813 210.87 205.504 208.09 205.202 205.308C205.098 204.364 204.994 203.423 204.885 202.478C204.31 197.463 203.785 192.81 204.741 187.829Z" fill="#D7E1E7"/>
<path d="M115.004 104.784C120.973 104.784 126.943 104.784 133.092 104.784C133.092 105.474 133.092 106.167 133.092 106.878C127.124 106.878 121.153 106.878 115.004 106.878C115.004 106.187 115.004 105.497 115.004 104.784Z" fill="#C3C2C0"/>
<path d="M53.095 174.57C53.3253 174.57 53.5531 174.57 53.7908 174.57C54.0187 179.404 54.249 184.241 54.4867 189.225C54.0261 189.225 53.568 189.225 53.095 189.225C53.095 190.606 53.095 191.987 53.095 193.411C59.5212 193.411 65.9499 193.411 72.5717 193.411C72.5717 193.642 72.5717 193.873 72.5717 194.109C65.9152 194.109 59.2587 194.109 52.3991 194.109C52.3842 191.274 52.3694 188.437 52.3545 185.516C52.3496 184.626 52.3421 183.734 52.3372 182.815C52.3347 182.112 52.3322 181.409 52.3322 180.684C52.3273 179.963 52.3248 179.243 52.3199 178.502C52.3991 176.662 52.3991 176.662 53.095 174.57Z" fill="#5F7063"/>
<path d="M263.842 51.851C265.261 52.4473 265.261 52.4473 265.955 53.8409C264.12 53.6124 262.282 53.3814 260.39 53.1454C260.39 53.6049 260.39 54.0645 260.39 54.539C260.851 54.7701 261.309 55.0011 261.782 55.2371C259.256 55.2371 256.733 55.2371 254.13 55.2371C254.819 54.3154 255.507 53.3963 256.218 52.4473C253.117 52.7926 253.117 52.7926 249.957 53.1454C254.259 48.8277 258.476 50.2412 263.842 51.851ZM252.738 55.2371C254.13 55.9352 254.13 55.9352 254.13 55.9352L252.738 55.2371Z" fill="#23456D"/>
<path d="M221.437 46.1643C220.976 47.086 220.518 48.0076 220.045 48.9566C219.126 48.9566 218.208 48.9566 217.262 48.9566C216.573 49.4162 215.885 49.8783 215.177 50.3528C215.949 50.323 216.724 50.2957 217.524 50.2659C220.605 50.3727 220.753 51.0658 222.826 53.1452C222.138 54.1811 222.138 54.1811 221.437 55.2369C221.202 54.7798 220.969 54.3227 220.726 53.8532C219.381 52.1837 219.381 52.1837 216.863 52.1738C215.91 52.1912 214.954 52.226 214 52.2707C213.512 52.2831 213.025 52.2955 212.522 52.3104C211.318 52.3427 210.117 52.3924 208.914 52.4471C209.602 50.6335 209.956 49.8212 211.737 48.974C212.284 48.825 212.831 48.6734 213.394 48.5219C216.4 47.6772 218.267 46.1643 221.437 46.1643Z" fill="#23456D"/>
<path d="M228.393 44.0725C229.081 44.0725 229.77 44.0725 230.478 44.0725C230.498 44.5445 230.515 45.0141 230.533 45.501C230.716 49.369 230.716 49.369 232.392 52.7501C234.034 53.8954 235.686 54.9612 237.434 55.935C236.976 56.166 236.518 56.3971 236.045 56.6331C230.136 54.5488 230.136 54.5488 228.393 51.749C228.165 49.1728 228.232 46.6487 228.393 44.0725Z" fill="#334160"/>
<path d="M227.001 44.7708C227.232 44.7708 227.459 44.7708 227.697 44.7708C227.764 45.2403 227.833 45.7123 227.903 46.1992C228.522 50.025 228.522 50.025 230.218 53.4484C232.516 54.9663 234.824 55.7613 237.434 56.6332C234.735 57.535 232.489 57.3661 229.785 56.6332C227.653 55.3687 227.653 55.3687 226.305 53.1453C226.231 50.2983 226.551 47.5755 227.001 44.7708Z" fill="#23456D"/>
<path d="M258.305 46.1644C258.533 46.8575 258.763 47.5481 258.999 48.2586C260.606 48.2586 262.213 48.2586 263.87 48.2586C264.098 48.9493 264.328 49.6399 264.566 50.3529C264.135 50.2386 263.704 50.1219 263.261 50.0026C258.654 49.2648 254.313 49.2101 249.957 51.051C249.957 50.3603 249.957 49.6697 249.957 48.9567C250.646 48.9567 251.334 48.9567 252.043 48.9567C252.043 48.4971 252.043 48.0351 252.043 47.5606C254.224 46.2638 255.782 46.0253 258.305 46.1644Z" fill="#334160"/>
<path d="M69.0948 177.36C68.1438 180.351 66.8636 181.849 64.4862 183.859C63.9167 184.346 63.3496 184.833 62.7627 185.334C62.3268 185.697 61.891 186.06 61.4428 186.432C59.7241 185.63 58.6271 185.004 57.2676 183.64C57.4979 182.95 57.7282 182.259 57.9634 181.548C58.424 182.008 58.8822 182.47 59.3552 182.945C61.4502 183.004 62.5447 182.505 64.095 181.106C64.9518 180.219 65.7962 179.32 66.6233 178.406C67.703 177.36 67.703 177.36 69.0948 177.36Z" fill="#495555"/>
<path d="M304.911 157.123C304.762 158.745 304.762 158.745 304.215 160.613C302.779 161.716 302.779 161.716 301.043 162.576C300.178 163.013 300.178 163.013 299.299 163.46C298.856 163.671 298.413 163.885 297.955 164.101C297.955 163.642 297.955 163.18 297.955 162.705C297.266 162.476 296.578 162.245 295.867 162.007C296.555 161.778 297.244 161.547 297.955 161.311C297.955 160.849 297.955 160.39 297.955 159.915C298.851 159.446 299.75 158.981 300.651 158.519C301.152 158.261 301.652 158 302.167 157.734C303.519 157.123 303.519 157.123 304.911 157.123Z" fill="#23456D"/>
<path d="M263.52 49.8734C265.261 51.0509 265.261 51.0509 266.651 53.1452C266.106 52.9936 265.559 52.8421 264.996 52.6856C257.991 50.6808 257.991 50.6808 251.044 52.0968C250.455 52.4421 249.866 52.7874 249.261 53.1452C249.957 51.0509 249.957 51.0509 251.651 49.8734C255.74 48.3629 259.439 48.3381 263.52 49.8734Z" fill="#23456D"/>
<path d="M88.5716 80.3608C90.2877 81.1633 91.3872 81.7893 92.7443 83.1507C92.8805 84.9667 92.8805 84.9667 92.8334 87.0759C92.8186 87.7765 92.8062 88.477 92.7938 89.1975C92.7691 90.0049 92.7691 90.0049 92.7443 90.8272C91.1396 90.8272 89.5324 90.8272 87.8757 90.8272C88.2199 90.5986 88.5642 90.3676 88.9183 90.1291C90.5255 87.9826 90.2753 85.707 89.9633 83.1507C89.3616 81.4738 89.3616 81.4738 88.5716 80.3608Z" fill="#DD794B"/>
<path d="M92.7442 97.8054C93.4351 98.7271 94.1236 99.6488 94.8318 100.598C94.1434 101.634 94.1434 101.634 93.4401 102.692C91.8577 102.97 91.8577 102.97 90.0053 102.953C89.094 102.96 89.094 102.96 88.1604 102.97C86.2165 102.647 85.6098 102.116 84.3988 100.598C85.1269 100.558 85.1269 100.558 85.8698 100.518C86.5037 100.474 87.1377 100.426 87.789 100.379C88.418 100.339 89.047 100.3 89.6958 100.257C91.6051 100.049 91.6051 100.049 92.7442 97.8054Z" fill="#DF5D31"/>
<path d="M73.9633 175.268C74.1936 175.268 74.4215 175.268 74.6592 175.268C74.788 183.307 74.788 183.307 73.9633 187.131C71.5959 184.756 71.8386 181.707 71.8336 178.495C71.8485 177.66 71.8609 176.826 71.8757 175.966C72.5642 177.002 72.5642 177.002 73.2675 178.058C73.4978 177.136 73.7281 176.217 73.9633 175.268Z" fill="#556B6B"/>
<path d="M188.045 165.497C190.764 166.484 193.025 167.783 195.437 169.38C197.416 170.687 199.011 171.723 201.262 172.476C201.262 172.935 201.262 173.397 201.262 173.872C196.213 172.538 190.985 169.932 188.045 165.497Z" fill="#C07858"/>
<path d="M240.218 104.784C244.351 104.784 248.481 104.784 252.738 104.784C252.738 105.705 252.738 106.627 252.738 107.576C251.131 107.576 249.526 107.576 247.87 107.576C247.87 107.116 247.87 106.654 247.87 106.18C245.344 105.949 242.82 105.72 240.218 105.482C240.218 105.253 240.218 105.022 240.218 104.784Z" fill="#FDDBCC"/>
<path d="M219.349 46.8625C220.038 47.0936 220.726 47.3246 221.437 47.5606C221.437 49.1729 221.437 50.7852 221.437 52.4472C220.976 52.2162 220.518 51.9852 220.045 51.7492C220.045 51.2871 220.045 50.8275 220.045 50.353C219.357 50.6983 219.357 50.6983 218.653 51.0511C217.031 51.0784 215.407 51.0809 213.785 51.0511C217.002 48.2587 217.002 48.2587 219.349 48.2587C219.349 47.7991 219.349 47.337 219.349 46.8625Z" fill="#23456D"/>
<path d="M222.826 46.1643C223.056 46.1643 223.287 46.1643 223.522 46.1643C223.549 46.6289 223.574 47.0909 223.601 47.5704C223.864 51.1006 224.087 53.7315 226.306 56.6331C225.847 56.6331 225.387 56.6331 224.914 56.6331C224.914 56.1735 224.914 55.7114 224.914 55.2369C224.456 55.2369 223.995 55.2369 223.522 55.2369C223.522 55.699 223.522 56.1586 223.522 56.6331C223.064 56.6331 222.606 56.6331 222.133 56.6331C222.145 56.0145 222.16 55.3959 222.175 54.7575C222.215 52.5067 222.215 52.5067 221.697 50.6137C221.385 48.6362 221.781 47.8313 222.826 46.1643Z" fill="#23456D"/>
<path d="M224.914 65.7058C225.144 65.7058 225.374 65.7058 225.61 65.7058C225.61 67.5467 225.61 69.39 225.61 71.288C226.528 71.7476 227.447 72.2097 228.393 72.6842C227.705 73.1438 227.016 73.6059 226.305 74.0804C225.899 76.0926 225.899 76.0926 225.828 78.3533C225.78 79.1185 225.736 79.8837 225.689 80.6712C225.662 81.26 225.637 81.8462 225.61 82.4524C225.379 82.4524 225.151 82.4524 224.914 82.4524C224.914 76.9273 224.914 71.3998 224.914 65.7058Z" fill="#FDDBCC" fill-opacity="0.733333"/>
<path d="M256.913 208.066C259.454 208.938 260.239 209.231 261.782 211.556C261.993 213.544 261.993 213.544 262 215.787C262.012 216.527 262.022 217.27 262.035 218.035C261.911 218.972 261.911 218.972 261.782 219.928C261.094 220.39 260.405 220.85 259.694 221.324C259.811 220.865 259.925 220.405 260.044 219.928C260.596 216.599 260.772 213.399 259.694 210.16C258.303 209.315 258.303 209.315 256.913 208.764C256.913 208.533 256.913 208.304 256.913 208.066Z" fill="#4A3A34"/>
<path d="M264.566 74.7783C264.793 74.7783 265.024 74.7783 265.261 74.7783C265.507 79.3246 265.286 82.5765 263.174 86.6408C262.267 83.9156 262.84 82.3181 263.478 79.5308C263.679 78.6439 263.877 77.7545 264.083 76.8403C264.244 76.1596 264.402 75.4789 264.566 74.7783Z" fill="#23456D"/>
<path d="M229.436 56.0668C231.298 56.673 231.959 57.3189 233.262 58.7275C232.246 58.7648 231.233 58.7921 230.218 58.8144C229.653 58.8293 229.089 58.8467 228.507 58.8641C227.001 58.7275 227.001 58.7275 225.61 57.3313C227.697 55.9351 227.697 55.9351 229.436 56.0668Z" fill="#23456D"/>
<path d="M244.39 37.0942C246.686 37.0942 248.982 37.0942 251.347 37.0942C250.2 38.9351 249.053 40.7784 247.87 42.6764C247.412 42.4454 246.951 42.2144 246.478 41.9784C246.939 40.5971 247.397 39.2158 247.87 37.7923C246.723 37.7923 245.574 37.7923 244.39 37.7923C244.39 37.5613 244.39 37.3302 244.39 37.0942Z" fill="#23456D"/>
<path d="M236.741 36.3962C236.969 36.8558 237.199 37.3179 237.434 37.7924C239.73 37.5614 242.025 37.3303 244.39 37.0943C242.315 38.1352 240.488 38.9153 238.306 39.6233C237.749 39.8047 237.194 39.986 236.62 40.1748C236.201 40.309 235.78 40.4432 235.349 40.5823C235.956 37.1813 235.956 37.1813 236.741 36.3962Z" fill="#334160"/>
<path d="M235.349 47.5605C235.807 47.5605 236.268 47.5605 236.741 47.5605C237.226 48.4425 237.702 49.3318 238.175 50.2212C238.573 50.9615 238.573 50.9615 238.982 51.7192C239.522 53.1452 239.522 53.1452 238.826 55.237C238.596 54.5464 238.368 53.8557 238.13 53.1452C237.672 53.1452 237.214 53.1452 236.741 53.1452C235.513 50.9889 235.349 50.1889 235.349 47.5605Z" fill="#23456D"/>
<path d="M82.3112 124.325C82.7694 124.325 83.23 124.325 83.7029 124.325C83.4726 126.857 83.2423 129.391 83.0071 132.002C82.3186 132.002 81.6302 132.002 80.9195 132.002C81.3776 129.468 81.8382 126.934 82.3112 124.325Z" fill="#C3C2C5"/>
<path d="M254.13 48.2585C257.344 48.2585 260.559 48.2585 263.87 48.2585C264.098 48.9492 264.328 49.6398 264.566 50.3528C259.4 49.6622 259.4 49.6622 254.13 48.9566C254.13 48.7256 254.13 48.497 254.13 48.2585Z" fill="#334160"/>
<path d="M82.3112 90.8269C82.7694 91.289 83.23 91.7486 83.7029 92.2231C83.6856 93.7335 83.6856 93.7335 83.4404 95.4502C83.3637 96.0216 83.2869 96.5905 83.2077 97.1792C83.1408 97.6165 83.0739 98.0537 83.0071 98.5034C82.3186 98.2723 81.6302 98.0438 80.9195 97.8053C81.3776 95.5023 81.8382 93.1994 82.3112 90.8269Z" fill="#CF7F66"/>
<path d="M231.174 52.4473C233.239 53.5975 235.307 54.7502 237.434 55.9352C236.746 56.2805 236.746 56.2805 236.045 56.6333C234.403 55.9799 232.776 55.2843 231.174 54.539C231.174 53.8484 231.174 53.1578 231.174 52.4473Z" fill="#23456D"/>
<path d="M260.39 49.6548C264.244 49.9976 264.244 49.9976 265.868 51.7913C266.257 52.462 266.257 52.462 266.651 53.1452C264.585 52.4521 262.52 51.7615 260.39 51.051C260.39 50.5889 260.39 50.1293 260.39 49.6548Z" fill="#334160"/>
<path d="M245.086 208.066C245.547 208.297 246.005 208.528 246.478 208.764C245.582 209.725 244.651 210.654 243.697 211.556C243.237 211.556 242.778 211.556 242.305 211.556C242.075 212.247 241.845 212.937 241.61 213.648C241.379 213.188 241.149 212.729 240.914 212.254C241.543 210.416 242.065 209.618 243.697 208.545C244.155 208.389 244.613 208.23 245.086 208.066Z" fill="#463A38"/>
<path d="M254.13 40.5822C254.13 40.8133 254.13 41.0443 254.13 41.2803C252.984 41.2803 251.834 41.2803 250.653 41.2803C250.423 41.971 250.193 42.6616 249.957 43.3746C248.808 43.3746 247.662 43.3746 246.478 43.3746C249.078 40.9201 250.559 40.2493 254.13 40.5822Z" fill="#334160"/>
<path d="M88.5716 80.3608C89.9485 81.0515 89.9485 81.0515 91.3551 81.757C91.3551 83.8289 91.3551 85.9008 91.3551 88.0373C91.1248 88.0373 90.8945 88.0373 90.6592 88.0373C90.5725 87.287 90.4859 86.5393 90.3967 85.7691C90.0352 83.5855 89.6835 82.2191 88.5716 80.3608Z" fill="#DB8469"/>
</g>
</g>
<defs>
<clipPath id="clip0_658_6456">
<rect width="340" height="220" fill="white"/>
</clipPath>
</defs>
</svg>
