<svg width="581" height="581" viewBox="0 0 581 581" fill="none" xmlns="http://www.w3.org/2000/svg">
<path fill-rule="evenodd" clip-rule="evenodd" d="M188.06 214.317C190.49 215.905 190.98 216.29 193.165 218.568C195.189 220.679 195.514 220.427 197.324 223.113C199.629 226.534 201.272 231.12 203.522 235.024C209.987 246.239 221.774 240.302 231.067 243.126C239.867 245.8 244.947 253.355 248.017 262.331C255.243 283.455 244.661 280.095 234.461 280.031C210.548 279.883 186.59 280.008 162.672 280.009C138.781 280.01 114.385 279.536 90.5537 280.212C89.2702 282.078 41.7952 328.806 37.6337 330.459C33.4575 345.921 33.8226 377.421 36.6571 393.82C40.1536 414.05 45.9158 428.941 54.3957 444.677C60.4051 455.828 67.8833 465.369 75.8349 474.482C77.2205 476.069 78.8484 477.194 80.318 478.72C81.9405 480.404 83.0158 481.448 84.7182 483.079C92.8198 490.843 93.2213 491.321 103.289 498.84C108.812 502.965 118.277 509.797 124.698 512.679C129.755 508.337 132.225 502.342 144.933 499.139C154.001 496.854 167.865 499.2 172.269 504.234C176.563 506.727 180.583 511.655 183.373 516.746C186.797 522.992 187.261 528.969 186.794 536.981C194.823 536.585 193.79 534.459 201.989 538.196C207.124 537.995 216.595 539.757 222.562 540.19C229.641 540.706 236.63 541.01 243.825 541.08C306.9 541.693 356.007 521.175 359.975 521.308C393.575 506.76 417.089 502.346 462.838 469.524C354.625 475.63 440.524 17.028 325.847 105.843C323.383 107.637 198.737 206.954 196.191 208.943C193.257 211.234 190.545 213.833 188.06 214.317Z" fill="#EDF8FF"/>
<path fill-rule="evenodd" clip-rule="evenodd" d="M445.136 480.334C447.055 482.732 474.266 460.515 479.525 456.661C482.248 454.423 487.906 448.848 490.406 447.518C495.891 450.765 499.288 453.322 509.329 449.603C515.228 447.419 519.859 443.484 523.456 439.428C526.549 435.94 530.374 429.129 531.579 423.234C533.011 416.23 531.97 410.473 525.486 408.124C525.349 408.074 525.156 408.005 525.033 407.959C524.913 407.916 524.69 407.823 524.594 407.786C524.499 407.75 524.295 407.692 524.163 407.609C543.569 377.068 556.646 347.956 561.496 309.536C567.684 260.518 553.441 212.289 532.021 171.891C527.928 164.172 523.533 156.986 520.136 149.456C516.16 140.642 509.207 128.734 501.092 116.334C488.294 96.7803 472.604 76.0028 461.131 64.2039L448.386 51.343C442.626 46.2233 436.334 39.403 429.703 35.4283C428.619 37.3146 427.101 38.1125 425.154 39.6274C423.71 40.7525 422.163 41.9778 420.59 43.1611L392.326 65.4484C379.411 75.5301 367.593 85.7297 355.285 95.852L290.27 148.811C287.873 150.552 238.591 197.394 445.136 480.334Z" fill="#EDF8FF"/>
<path fill-rule="evenodd" clip-rule="evenodd" d="M150.169 110.442C103.023 166.427 48.408 260.916 37.6337 330.46C41.7951 328.806 89.2702 282.078 90.5537 280.212C82.1128 280.017 73.4918 283.566 80.3519 265.335C83.3355 257.407 87.6941 251.17 92.4373 246.244C97.4763 241.011 102.359 236.912 111.424 234.02C123.918 230.034 127.45 233.207 138.299 234.658C144.064 212.563 172.007 202.498 188.06 214.317C190.545 213.833 193.257 211.234 196.191 208.943C198.737 206.954 201.639 204.88 204.102 203.087L235.063 179.108C275.655 147.426 310.424 132.395 355.285 95.852C367.592 85.7297 379.41 75.5301 392.326 65.4484L420.59 43.1611C422.163 41.9778 423.709 40.7525 425.154 39.6274C427.101 38.1125 428.619 37.3145 429.703 35.4283C426.615 31.528 409.607 22.5176 404.34 19.8353C373.252 4.005 331.307 4.55871 298.199 11.863C259.548 20.3901 221.857 41.1938 192.374 66.5127C191.441 67.4477 177.934 77.4694 150.169 110.442Z" fill="#D5EFFF"/>
<path fill-rule="evenodd" clip-rule="evenodd" d="M90.5536 280.212C114.385 279.536 138.781 280.01 162.671 280.009C186.59 280.008 210.548 279.883 234.461 280.031C244.661 280.095 255.243 283.455 248.017 262.331C244.947 253.355 239.867 245.801 231.067 243.126C221.774 240.302 209.987 246.239 203.522 235.024C201.272 231.12 199.629 226.534 197.323 223.113C195.514 220.427 195.189 220.679 193.165 218.568C190.98 216.29 190.49 215.905 188.06 214.317C172.007 202.498 144.064 212.563 138.299 234.658C127.45 233.207 123.918 230.034 111.424 234.02C102.359 236.912 97.4763 241.011 92.4373 246.244C87.6941 251.17 83.3355 257.407 80.3518 265.335C73.4918 283.566 82.1128 280.017 90.5536 280.212Z" fill="#FDFDFE"/>
<path fill-rule="evenodd" clip-rule="evenodd" d="M124.698 512.679C118.799 522.944 117.294 527.008 118.379 541.2C116.847 541.974 112.784 543.481 111.158 543.662L109.669 551.712C100.946 552.629 96.4448 559.899 100.48 568.906C106.593 577.265 115.045 570.743 115.357 570.653C123.775 568.2 177.242 573.053 181.553 570.294L182.648 569.027C184.097 564.675 181.828 562.108 177.03 562.465C175.032 564.477 174.779 566.463 173.461 568.555C174.243 563.823 176.695 560.968 177.177 554.848C179.158 558.503 180.905 562.224 187.022 561.406C193.14 560.587 192.479 555.63 190.752 551.108C207.063 548.966 200.634 541.823 201.989 538.808V538.196C193.79 534.459 194.823 536.585 186.794 536.982C183.845 540.712 177.896 541.062 177.113 553.988L173.626 551.396C172.039 550.862 170.755 551.019 169.285 551.55C165.56 552.895 166.592 555.64 164.355 557.234C162.684 558.425 157.143 559.164 157.883 566.574L158.964 569.309C159.035 569.413 159.263 569.825 159.317 569.719C159.374 569.61 159.574 569.986 159.692 570.137L150.81 570.137L150.149 568.063C149.778 566.893 150.332 568.061 149.685 566.629C149.461 566.133 148.199 564.647 148.064 564.541C141.881 559.722 135.674 569.418 131.654 569.852C130.643 565.28 126.939 563.808 121.301 563.562C124.261 558.92 124.474 556.949 126.66 551.425C133.793 554.337 141.983 554.478 147.789 549.414C158.082 540.434 146.48 533.702 145.234 532.593C154.315 531.693 162.796 531.06 168.553 525.866C178.535 516.859 172.629 508.426 172.269 504.235C167.865 499.2 154.001 496.854 144.932 499.139C132.224 502.342 129.755 508.337 124.698 512.679Z" fill="#98B3A9"/>
<path fill-rule="evenodd" clip-rule="evenodd" d="M392.338 466.458C391.601 470.294 393.452 477.2 393.672 481.764C393.948 487.515 393.84 493.361 393.26 499.09C392.722 504.404 391.723 509.024 390.855 514.164C389.773 520.57 390.796 524.487 390.897 530.639L406.025 530.489C406.323 530.268 435.306 517.707 436.194 517.49C435.709 510.18 429.696 491.029 427.311 484.104C423.622 473.393 420.327 463.776 415.536 454.272L394.631 464.181C391.751 465.571 393.017 464.26 392.338 466.458Z" fill="#FDFDFE"/>
<path fill-rule="evenodd" clip-rule="evenodd" d="M114.706 344.428C105.809 342.705 100.791 342.309 94.1113 347.632C90.921 350.175 83.7784 357.682 85.217 364.568C92.2244 365.957 163.207 366.153 167.551 364.236C169.509 357.955 164.549 350.032 160.042 348.488C149.713 344.949 151.266 352.743 144.32 339.852C139.697 331.274 128.038 330.082 119.651 336.976C117.251 338.949 116.81 341.977 114.706 344.428Z" fill="#FDFDFE"/>
<path fill-rule="evenodd" clip-rule="evenodd" d="M436.62 395.396C436.651 395.628 433.135 416.713 432.535 419.072C430.641 426.524 429.289 434.106 428.262 441.751C426.59 454.194 426.031 478.409 430.735 489.908L451.08 477.468C450.72 461.914 451.204 459.354 454.2 444.708C456.273 435.539 457.719 434.072 458.873 433.174C447.475 418.756 443.963 403.082 438.876 397.089L436.62 395.396Z" fill="#23456D"/>
<path fill-rule="evenodd" clip-rule="evenodd" d="M70.8 568.896C73.8784 555.821 61.2086 554.529 58.0407 563.486L62.0202 546.799C62.6355 548.738 71.1478 558.763 80.713 555.365C83.9391 554.219 87.2522 551.309 87.9304 547.437C89.0769 540.89 86.0821 539.559 84.3543 535.962C93.4911 535.181 101.211 528.78 97.8423 519.804C97.0428 517.674 96.488 519.028 97.3003 517.514L94.7013 516.087C91.2165 514.859 86.6914 514.637 83.1139 515.278C78.2196 516.155 74.2221 518.284 71.2196 520.899C63.1416 527.935 62.3801 531.699 61.3276 545.308C57.823 540.705 50.6675 540.478 46.478 545.495C44.5303 547.827 44.9702 549.555 43.76 550.823C42.6028 552.079 40.0918 552.746 38.7161 553.952C31.6627 560.135 35.2708 568.612 40.0516 570.858C46.7175 573.988 48.5599 569.101 53.4059 568.984C59.1894 568.844 65.0352 569.359 70.8 568.896Z" fill="#98B3A9"/>
<path fill-rule="evenodd" clip-rule="evenodd" d="M496.119 43.2805C484.748 45.3549 475.536 54.9397 477.297 68.9648C480.875 97.4637 524.872 92.7367 521.056 62.1401C519.679 51.1061 509.016 40.9278 496.119 43.2805Z" fill="#FCC544"/>
<path fill-rule="evenodd" clip-rule="evenodd" d="M186.794 536.981C187.261 528.969 186.797 522.992 183.373 516.746C180.583 511.655 176.563 506.727 172.269 504.234C172.629 508.426 178.535 516.859 168.554 525.866C162.796 531.06 154.315 531.693 145.234 532.593C146.48 533.702 158.082 540.434 147.789 549.414C141.983 554.478 133.794 554.337 126.66 551.425C124.474 556.949 124.261 558.92 121.301 563.562C126.939 563.808 130.643 565.28 131.654 569.852C135.674 569.418 141.881 559.722 148.064 564.541C148.2 564.647 149.461 566.133 149.685 566.629C150.332 568.061 149.779 566.893 150.149 568.063L150.81 570.137L159.692 570.137C159.574 569.986 159.374 569.61 159.317 569.719C159.263 569.825 159.035 569.413 158.964 569.308L157.883 566.574C157.143 559.164 162.684 558.425 164.355 557.234C166.592 555.64 165.56 552.895 169.286 551.55C170.755 551.019 172.039 550.862 173.626 551.396L177.113 553.988C177.896 541.062 183.846 540.712 186.794 536.981Z" fill="#55917E"/>
<path fill-rule="evenodd" clip-rule="evenodd" d="M70.7999 568.896L100.48 568.906C96.4448 559.899 100.946 552.629 109.669 551.712L111.158 543.662C108.853 541.293 110.266 540.75 110.006 536.278C109.825 533.166 109.117 530.588 107.903 527.947C106.002 523.812 101.581 518.818 97.3003 517.514C96.4879 519.028 97.0428 517.674 97.8422 519.804C101.211 528.78 93.491 535.181 84.3542 535.962C86.082 539.559 89.0768 540.89 87.9303 547.437C87.2521 551.309 83.939 554.219 80.7129 555.365C71.1477 558.763 62.6354 548.738 62.0201 546.799L58.0406 563.486C61.2085 554.529 73.8783 555.821 70.7999 568.896Z" fill="#55917E"/>
<path fill-rule="evenodd" clip-rule="evenodd" d="M181.553 570.294C186.433 571.546 199.766 569.952 205.778 570.321C209.589 570.555 208.818 572.233 212.504 571.73C216.406 571.196 219.228 566.468 217.524 561.902C216.529 559.235 215.428 559.266 213.879 557.397C213.029 556.369 213.098 556.001 211.965 554.973C210.863 553.974 210.466 554.075 209.248 553.132C207.918 546.388 207.105 540.667 201.989 538.808C200.634 541.823 207.063 548.966 190.752 551.108C192.479 555.63 193.14 560.587 187.022 561.406C180.905 562.224 179.158 558.503 177.177 554.848C176.695 560.968 174.243 563.823 173.461 568.555C174.779 566.463 175.032 564.477 177.03 562.465C181.828 562.108 184.097 564.675 182.648 569.027L181.553 570.294Z" fill="#559181"/>
<path fill-rule="evenodd" clip-rule="evenodd" d="M311.874 331.602C311.873 336.302 318.664 344.591 322.676 346.547C334.011 352.073 331.788 330.573 344.916 318.358C349.037 314.524 358.955 309.79 363.252 315.717C361.48 321.147 351.844 331.935 347.983 338.276C346.164 341.264 331.086 359.339 330.569 359.68L328.792 363.54C330.182 365.94 327.204 386.288 326.947 390.867C326.377 400.979 326.296 411.352 326.51 421.478C326.716 431.178 326.529 458.466 327.318 468.135C327.965 476.063 328.197 474.356 327.85 481.585C324.625 481.802 324.627 480.818 322.748 483.188C327.847 482.764 337.527 482.935 342.891 482.884C350.284 482.814 351.603 482.556 356.031 487.994C358.722 491.298 369.589 506.036 371.631 507.495L371.94 506.811C371.451 506.331 369.31 502.87 368.421 501.606L368.896 500.404C368.019 498.139 360.214 491.395 359.108 486.845C363.302 486.921 363.527 489.295 368.452 489.543C373.187 489.781 373.912 488.764 378.615 490.991C386.134 494.551 390.551 494.07 396.502 496.809C405.717 501.049 404.62 501.118 414.88 497.585C418.414 496.368 428.677 492.386 430.735 489.908C426.031 478.409 426.59 454.194 428.262 441.751C429.289 434.106 430.641 426.524 432.535 419.072C433.135 416.713 436.176 405.591 436.62 398.942C436.62 394.066 435.876 386.476 436.091 382.618C436.792 370.039 441.148 357.057 449.951 347.874C454.362 343.271 454.14 343.772 455.265 345.298C455.962 346.793 452.849 348.441 451.718 349.591C450.705 350.622 448.853 353.193 447.922 354.552C445.435 358.181 443.534 362.214 442.119 366.261C437.152 380.465 439.471 385.934 438.876 397.089C443.963 403.082 451.718 438.393 459.226 440.166C465.397 439.841 505.464 432.1 508.321 427.259C509.228 420.163 500.094 392.739 498.097 386.063C497.166 383.975 496.766 381.877 496.629 379.954C495.262 378.259 489.805 363.026 487.357 358.544C483.741 351.925 478.869 341.019 472.001 337.73C461.261 332.588 440.258 323.165 430.764 320.111C429.433 328.195 395.661 342.832 387.53 344.759C378.612 346.873 363.462 351.281 365.381 337.6C365.953 333.517 367.258 327.967 368.921 324.26C371.336 318.875 373.326 318.609 376.076 314.842C369.887 311.551 358.642 307.624 351.574 304.53C342.222 300.436 337.34 295.218 329.786 290.592C325.536 300.391 313.205 322.132 311.874 331.602Z" fill="#456C91"/>
<path fill-rule="evenodd" clip-rule="evenodd" d="M225.494 107.663L227.372 112.71C224.562 116.131 227.367 120.417 228.103 125.083L226.013 125.26L227.507 126.619L227.802 140.674C225.17 135.351 218.25 131.591 211.927 132.845C203.128 134.59 201.068 136.156 193.977 129.648L195.05 122.019C194.834 119.352 193.809 117.102 191.129 116.856L188.695 117.765C188.121 144.884 215.917 139.647 220.383 162.262C224.639 183.819 226.398 205.676 231.525 227.306C235.772 245.219 242.677 266.582 254.977 280.657C262.733 289.533 286.288 311.635 297.231 314.212L315.03 281.04C312.114 274.288 286.958 260.75 281.38 250.49C277.953 244.187 276.153 233.023 273.676 225.779C262.993 194.534 258.19 188.31 242.224 159.833C236.057 148.832 238.678 142.925 238.494 130.925C238.438 127.233 233.695 107.176 232.36 104.821C229.402 104.127 227.356 105.5 225.494 107.663Z" fill="#FDDBCC"/>
<path fill-rule="evenodd" clip-rule="evenodd" d="M333.793 485.794C336.407 485.916 337.815 486.485 337.273 489.423C334.034 489.599 333.981 488.667 333.793 485.794ZM328.233 560.087L329.732 574.04L469.331 573.753C468.295 562.959 464.503 554.229 463.619 545.108C462.694 535.559 458.456 530.117 455.823 522.13C453.593 520.841 426.638 521.416 422.143 521.694C411.451 522.354 405.321 524.801 396.337 530.218C384.864 537.134 385.441 539.528 371.271 536.403C357.93 533.46 360.756 531.569 353.509 528.618C349.945 527.167 351.961 527.023 348.716 525.433C344.542 525.578 341.508 523.379 344.756 519.256C346.095 517.556 351.098 515.806 353.257 515.22C357.548 514.055 369.154 512.038 371.975 509.254L371.631 507.495C369.589 506.036 358.722 491.298 356.031 487.994C351.603 482.556 350.284 482.814 342.891 482.884C337.527 482.935 327.847 482.764 322.748 483.188C316.863 485.544 329.65 497.681 332.065 501.683C330.621 508.438 328.753 505.789 330.657 515.472C332.418 524.425 329.081 553.461 328.233 560.087Z" fill="#353C57"/>
<path fill-rule="evenodd" clip-rule="evenodd" d="M465.795 451.151L472.172 464.368L451.08 477.468L430.735 489.908C428.677 492.386 418.414 496.368 414.88 497.585C404.62 501.118 405.717 501.049 396.502 496.809C390.551 494.07 386.134 494.551 378.616 490.991C373.912 488.764 373.187 489.781 368.452 489.543C363.528 489.295 363.302 486.921 359.108 486.845C360.214 491.395 368.019 498.139 368.896 500.404C371.786 501.723 374.023 503.941 374.083 507.475L371.975 509.254C369.154 512.038 357.548 514.055 353.257 515.22C351.098 515.806 346.095 517.556 344.756 519.256C341.508 523.379 344.542 525.578 348.716 525.433L370.854 522.049L358.53 526.715C360.836 529.248 373.083 535.977 376.428 535.41C379.405 534.906 389.555 526.826 393.328 524.723C403.672 518.958 428.019 518.866 440.786 517.309C510.805 508.766 501.893 491.69 514.733 481.903L515.135 483.868C516.887 481.127 513.538 459.729 512.59 454.426C511.813 450.073 509.085 427.046 508.251 425.666L508.392 428.852L465.795 451.151Z" fill="#FDDBCC"/>
<path fill-rule="evenodd" clip-rule="evenodd" d="M144.105 573.532L329.732 574.04L328.233 560.087L327.858 562.461C304.902 562.459 133.621 557.814 127.465 570.35L144.105 573.532Z" fill="#CAB8B1"/>
<path fill-rule="evenodd" clip-rule="evenodd" d="M377.532 234.185C373.285 226.928 381.862 241.582 377.532 234.185V234.185ZM377.85 211.879C377.394 215.994 376.297 217.332 376.049 219.49C372.807 221.655 370.165 223.273 368.548 226.026C371.914 226.55 368.359 241.712 362.468 244.103L357.232 243.18C357.965 244.984 365.283 250.494 367.401 252.498C371.782 256.646 372.392 261.221 379.119 258.964C385.007 256.989 400.787 247.78 404.588 243.316C401.787 232.555 415.98 228.923 425.332 224.594C443.085 216.378 436.97 222.321 448.611 227.382C446.34 223.079 446.501 221.238 439.342 209.236C430.342 194.145 415.767 209.727 389.06 199.56L384.123 200.786L377.85 211.879Z" fill="#FDDBCC"/>
<path fill-rule="evenodd" clip-rule="evenodd" d="M176.841 104.443L175.398 118.482C178.489 135.409 208.049 145.716 215.948 159.23C221.915 169.438 226.055 213.778 228.271 228.101C230.044 239.563 231.92 251.013 234.539 262.318C237.998 277.248 240.113 277.394 249.978 287.527C255.682 293.386 286.381 327.294 289.899 328.954L297.231 314.212C286.288 311.635 262.733 289.533 254.976 280.657C242.677 266.583 235.772 245.219 231.525 227.306C226.398 205.676 224.639 183.819 220.383 162.262C215.917 139.647 188.121 144.884 188.694 117.765C184.522 119.876 187.931 121.261 185.585 125.059C185.38 122.332 184.849 108.371 183.793 107.121C180.393 109.204 182.618 112.726 180.202 116.167L179.959 96.7435C177.77 98.279 177.172 101.637 176.841 104.443Z" fill="#DC908D"/>
<path fill-rule="evenodd" clip-rule="evenodd" d="M315.03 281.04L297.231 314.212L289.899 328.954C287.996 332.961 285.954 333.928 286.708 338.844C290.258 344.203 299.222 348.834 305.238 346.492L311.874 331.602C313.205 322.132 325.536 300.391 329.786 290.592C329.441 285.369 318.698 277.233 315.03 281.04Z" fill="#456C91"/>
<path fill-rule="evenodd" clip-rule="evenodd" d="M348.716 525.433C351.961 527.023 349.945 527.167 353.509 528.618C360.756 531.569 357.93 533.46 371.271 536.403C385.441 539.528 384.864 537.134 396.337 530.218C405.321 524.801 411.451 522.354 422.143 521.694C426.638 521.416 453.592 520.841 455.823 522.13C457.888 520.853 472.318 519.743 476.6 518.714C482.758 517.232 489.013 515.38 494.686 512.455C506.597 506.314 513.329 497.569 515.135 483.868L514.733 481.903C501.893 491.69 510.805 508.766 440.786 517.309C428.019 518.866 403.672 518.958 393.328 524.723C389.555 526.826 379.405 534.906 376.428 535.41C373.083 535.977 360.836 529.248 358.53 526.715L370.854 522.049L348.716 525.433Z" fill="#DC908D"/>
<path fill-rule="evenodd" clip-rule="evenodd" d="M311.874 331.602L305.238 346.492C307.674 349.762 325.009 361.612 329.806 364.188L335.181 361.288C333.581 357.13 343.719 340.806 346.288 336.587C353.025 325.523 353.327 326.095 360.399 318.286L363.252 315.717C358.955 309.79 349.037 314.524 344.916 318.358C331.788 330.573 334.011 352.073 322.676 346.547C318.664 344.591 311.872 336.302 311.874 331.602Z" fill="#23456D"/>
<path fill-rule="evenodd" clip-rule="evenodd" d="M178.374 90.4382C182.383 101.502 186.684 90.9776 186.054 105.985C192.6 109.351 190.443 109.306 191.129 116.856C193.809 117.102 194.834 119.352 195.05 122.019C200.263 122.245 200.898 115.012 206.317 114.495L205.581 113.158L209.754 108.628L170.931 63.9563L169.753 63.8708L178.374 90.4382Z" fill="#ADC1DA"/>
<path fill-rule="evenodd" clip-rule="evenodd" d="M169.753 63.8708L170.931 63.9563L215.444 102.793C217.553 101.003 218.333 99.1922 221.141 98.644L229.792 88.5516L169.883 61.8203L169.753 63.8708Z" fill="#ABBEDB"/>
<path fill-rule="evenodd" clip-rule="evenodd" d="M195.05 122.019L193.977 129.648C201.068 136.156 203.128 134.59 211.927 132.845C218.25 131.591 225.17 135.351 227.802 140.674L227.506 126.619L226.013 125.26C222.897 123.787 220.039 121.095 218.362 120.181C214.213 120.046 210.405 115.835 206.317 114.495C200.898 115.012 200.263 122.245 195.05 122.019Z" fill="#DC908D"/>
<path fill-rule="evenodd" clip-rule="evenodd" d="M395.09 267.337C391.719 278 397.412 284.443 397.31 291.545L364.804 296.636L368.515 306.731C384.329 304.382 397.101 293.709 404.817 283.315C403.036 270.802 409.072 274.469 414.155 268.994C418.483 264.333 418.487 255.394 412.446 252.11C413.534 259.985 413.942 261.011 407.881 267.092C404.496 270.488 395.134 275.994 395.09 267.337Z" fill="#DC908D"/>
<path fill-rule="evenodd" clip-rule="evenodd" d="M206.317 114.495C210.405 115.834 214.213 120.046 218.362 120.181L210.554 107.885C215.053 102.923 213.839 103.841 218.785 107.069C221.436 108.799 224.678 111.46 227.372 112.71L225.494 107.663L221.141 98.644C218.333 99.1922 217.553 101.003 215.444 102.793L170.931 63.9563L209.754 108.628L205.581 113.158L206.317 114.495Z" fill="#515E8F"/>
<path fill-rule="evenodd" clip-rule="evenodd" d="M462.183 438.736L465.795 451.151L508.392 428.852L508.251 425.666L508.352 424.381C505.002 425.496 501.181 427.799 497.57 429.216C493.924 430.647 490.253 431.926 486.494 433.121C478.554 435.643 470.44 437.353 462.183 438.736Z" fill="#DC908D"/>
<path fill-rule="evenodd" clip-rule="evenodd" d="M401.792 267.356C397.998 264.39 402.721 258.602 408.545 259.006C406.228 261.87 402.555 261.252 401.792 267.356ZM395.09 267.337C395.134 275.994 404.497 270.488 407.881 267.092C413.942 261.011 413.534 259.985 412.446 252.11C410.741 249.683 407.263 248.647 404.342 249.231C400.694 252.128 395.922 262.347 395.09 267.337Z" fill="#FDDBCC"/>
<path fill-rule="evenodd" clip-rule="evenodd" d="M368.515 306.731L369.546 311.13C375.325 310.591 407.521 298.992 410.462 294.355C407.363 289.676 405.821 290.207 404.817 283.315C397.101 293.709 384.329 304.382 368.515 306.731Z" fill="#DC908D"/>
<path fill-rule="evenodd" clip-rule="evenodd" d="M176.842 104.443C177.172 101.637 177.77 98.279 179.959 96.7434L180.202 116.167C182.619 112.726 180.393 109.204 183.793 107.121C184.849 108.371 185.38 122.332 185.585 125.059C187.931 121.261 184.522 119.876 188.695 117.765L191.129 116.856C190.443 109.306 192.6 109.351 186.054 105.985C186.685 90.9776 182.383 101.502 178.374 90.4382L174.887 90.8512L176.63 91.2885C176.309 94.2877 175.607 102.694 176.842 104.443Z" fill="#FDDBCC"/>
<path fill-rule="evenodd" clip-rule="evenodd" d="M379.03 221.519C382.049 223.491 382.819 224.105 385.023 226.752C387.149 229.306 389.599 234.173 392.8 235.131C397.792 227.976 387.368 215.962 380.831 213.908C379.334 215.786 377.823 219.466 379.03 221.519Z" fill="#363B58"/>
<path fill-rule="evenodd" clip-rule="evenodd" d="M438.596 399.605L438.876 397.089C439.471 385.934 437.152 380.465 442.119 366.261C443.534 362.214 445.435 358.181 447.922 354.552C448.853 353.193 450.705 350.622 451.718 349.591C452.849 348.441 455.962 346.793 455.265 345.298C454.14 343.772 454.362 343.271 449.951 347.874C441.148 357.057 436.792 370.039 436.091 382.618C435.876 386.476 434.972 397.734 438.596 399.605Z" fill="#23456D"/>
<path fill-rule="evenodd" clip-rule="evenodd" d="M354.923 236.454C355.913 234.702 357.398 237.604 358.933 239.142C360.819 241.032 361.535 241.594 362.468 244.103C368.359 241.712 371.914 226.55 368.548 226.026C365.579 227.283 363.11 228.783 360.078 229.905C356.952 231.06 351.078 232.101 354.923 236.454Z" fill="#DC908D"/>
<path fill-rule="evenodd" clip-rule="evenodd" d="M350.871 259.15C354.587 261.837 351.031 264.4 354.223 267.578C356.481 269.824 360.552 268.556 362.889 267.116C362.623 263.935 360.697 261.352 361.707 259.308C359.687 256.815 355.807 254.672 352.865 253.157L350.722 253.565C349.306 256.581 348.915 256.671 350.871 259.15Z" fill="#FAD6B9"/>
<path fill-rule="evenodd" clip-rule="evenodd" d="M335.181 361.288C335.699 360.947 346.164 341.264 347.984 338.276C351.844 331.935 361.48 321.147 363.252 315.717L360.399 318.286C353.327 326.095 353.025 325.523 346.288 336.587C343.719 340.806 333.581 357.13 335.181 361.288Z" fill="#23456D"/>
<path fill-rule="evenodd" clip-rule="evenodd" d="M364.535 253.97C366.598 263.061 394.345 264.864 391.725 254.173C399.378 245.188 383.669 249.493 378.639 249.56C373.604 249.626 364.274 247.692 364.535 253.97Z" fill="#DC908D"/>
<path fill-rule="evenodd" clip-rule="evenodd" d="M175.398 118.482L176.841 104.443C175.607 102.694 176.309 94.2877 176.63 91.2885L174.887 90.8512C174.673 96.0228 174.672 100.223 173.866 105.41C173.215 109.604 172.989 115.085 175.398 118.482Z" fill="#DC908D"/>
<path fill-rule="evenodd" clip-rule="evenodd" d="M354.944 242.606L357.232 243.18L362.468 244.103C361.535 241.594 360.819 241.032 358.934 239.142C357.398 237.603 355.913 234.702 354.923 236.454L356.834 241.451L354.944 242.606Z" fill="#B87D7B"/>
<path fill-rule="evenodd" clip-rule="evenodd" d="M382.028 230.937C378.815 229.104 376.276 232.039 377.532 234.185C378.748 236.261 383.488 236.081 382.028 230.937Z" fill="#333653"/>
<path fill-rule="evenodd" clip-rule="evenodd" d="M371.631 507.495L371.975 509.254L374.083 507.475C374.023 503.941 371.786 501.723 368.896 500.404L368.421 501.606C369.31 502.87 371.451 506.331 371.94 506.811L371.631 507.495Z" fill="#4A617C"/>
<path fill-rule="evenodd" clip-rule="evenodd" d="M401.792 267.356C402.555 261.252 406.228 261.87 408.545 259.006C402.721 258.602 397.998 264.39 401.792 267.356Z" fill="#DC908D"/>
<path fill-rule="evenodd" clip-rule="evenodd" d="M362.89 267.116C364.705 265.476 364.994 265.174 365.197 262.705L361.707 259.308C360.698 261.352 362.623 263.935 362.89 267.116Z" fill="#DC908D"/>
<path fill-rule="evenodd" clip-rule="evenodd" d="M369.308 310.276L374.111 317.172C365.905 325.779 364.918 336.353 365.287 341.122C366.298 346.998 368.689 355.88 416.219 333.262C419.176 331.573 431.562 323.784 432.648 322.14C433.632 320.65 423.6 318.757 419.549 313.458L416.541 297.189L410.462 294.355C407.521 298.992 375.087 309.738 369.308 310.276Z" fill="#FDDBCC"/>
<path fill-rule="evenodd" clip-rule="evenodd" d="M371.13 211.474C377.133 208.54 386.308 202.942 388.824 204.087C385.021 208.398 386.594 209.862 386.342 212.477C395.715 206.434 410.365 209.145 416.947 214.298C417.007 215.013 415.549 219.68 413.202 221.323C403.794 227.913 404.801 233.764 402.809 243.218C399.008 247.681 385.007 256.989 379.119 258.964C372.392 261.221 371.782 256.646 367.401 252.498C365.283 250.494 357.965 244.984 357.232 243.18L354.944 242.606L345.608 246.497C346.706 250.633 350.302 250.687 352.866 253.157C355.807 254.672 359.687 256.815 361.707 259.308L365.197 262.705C364.994 265.174 364.705 265.476 362.889 267.115C360.552 268.556 356.481 269.824 354.224 267.578C351.031 264.4 354.588 261.837 350.871 259.15C347.682 259.635 347.166 262.489 345.44 265.213C339.855 274.028 332.323 266.779 336.562 286.464C335.451 293.139 369.741 299.056 376.526 300.995C379.545 301.859 387.738 298.89 390.646 297.963C393.555 297.036 395.864 294.979 397.709 292.813C397.812 285.711 391.72 278 395.09 267.337C395.922 262.346 400.694 252.128 404.342 249.231C407.263 248.647 410.741 249.683 412.446 252.11C418.487 255.394 418.483 264.333 414.155 268.994C409.073 274.469 403.036 270.802 404.817 283.315C405.821 290.207 407.363 289.676 410.462 294.355L416.541 297.189C419.258 299.197 427.107 298.13 430.329 297.034C433.824 295.844 435.995 292.171 440.009 289.866C455 281.259 458.077 283.431 468.324 259.232C474.087 245.625 469.151 246.438 468.524 237.47C472.536 235.653 469.173 233.641 466.676 232.076C466.715 224.225 463.524 206.36 458.245 197.747C456.99 209.61 457.29 209.279 454.235 211.37C452.577 201.535 445.519 189.907 435.29 183.513C413.396 166.284 397.709 177.538 382.466 187.676C376.366 191.732 372.699 197.077 372.98 201.535C373.766 200.589 378.468 200.36 378.603 200.43C379.01 200.643 372.671 204.936 371.13 211.474Z" fill="#363C58"/>
<path fill-rule="evenodd" clip-rule="evenodd" d="M199.766 465.83L199.304 470.225L193.785 469.991L195.534 466.683C195.494 462.566 197.52 459.97 197.443 454.561L198.023 450.07C199.716 450.425 199.019 450.017 200.142 451.604C202.315 459.45 199.714 458.589 199.766 465.83ZM248.636 444.129L248.592 446.899L245.628 447.105L245.666 434.965L248.636 444.129ZM186.551 442.42L184.483 444.447L182.343 443.721C180.839 439.77 179.56 434.526 179.629 430.296L189.951 416.318C195.452 416.222 193.6 416.31 198.071 417.787C201.847 419.033 202.512 417.955 205.944 418.303C211.91 418.907 211.049 423.472 215.465 425.643C220.546 423.733 221.233 416.874 226.868 419.839C227.232 423.87 218.158 430.728 214.416 432.031C209.851 429.942 210.873 425.77 206.032 424.749C200.524 433.102 203.959 440.415 207.601 448.355C210.358 454.363 210.053 453.553 208.731 460.045C207.628 465.47 208.784 469.428 203.186 469.363C201.614 463.858 205.909 457.534 204.611 453.173C203.774 450.36 199.057 442.596 196.784 441.781C191.749 446.528 196.373 473.426 184.445 476.319C184.82 468.179 188.943 461.242 189.504 451.758C189.968 443.899 192.283 432.009 192.18 425.503C181.233 426.359 186.017 439.774 186.551 442.42ZM206.713 433.996L207.25 431.244C211.008 430.283 207.973 430.721 209.204 432.243L211.346 435.004C223.29 436.697 227.828 421.642 237.795 417.598L239.278 415.716C239.777 418.64 239.977 416.6 238.657 418.563C237.627 423.223 234.908 428.757 234.036 433.164C233.269 437.037 234.476 446.142 234.757 450.606C219.923 453.821 220.898 460.906 211.396 465.73C212.011 458.684 214.752 455.664 211.712 448.955C209.158 443.325 206.466 440.202 206.713 433.996ZM260.363 414.966C260.77 420.039 262.029 421.348 267.497 421.982L267.244 441.428C264.641 443.07 263.097 443.306 260.059 443.179C257.226 436.053 258.57 434.654 258.091 427.72C257.946 423.687 258.89 420.008 258.497 416.324C258.209 413.617 257.276 412.235 257.65 409.152L260.363 414.966ZM198.355 403.87C205.766 399.414 211.131 410.69 204.646 414.129C197.488 417.924 191.526 407.976 198.355 403.87ZM228.5 416.617L226.408 415.438C225.912 413.389 225.45 413.841 227.476 413.841C235.707 410.723 232.193 403.323 235.797 396.819C238.695 394.808 250.9 393.133 254.879 393.206C263.387 400.609 268.294 405.245 267.328 418.095C260.197 417.586 264.88 402.569 253.291 400.396C252.811 407.982 255.617 414.051 255.087 422.928C254.864 426.642 254.507 431.398 254.543 435.043C254.587 439.441 256.452 440.696 255.942 444.835L252.629 445.295C247.293 438.129 251.496 429.312 249.776 421.261C246.161 421.753 245.929 424.032 243.135 432.017C240.811 438.661 243.353 441.744 242.242 448.219L238.051 448.792C237.407 436.618 236.315 437.135 240.188 425.372C241.976 419.939 245.161 409.708 239.567 405.824C234.719 409.854 240.435 413.762 230.185 417.644C228.561 416.602 229.469 418.566 228.5 416.617ZM271.545 375.792C279.04 375.208 281.907 377.216 290.415 375.961L290.316 388.856C283.955 391.683 278.446 389.048 270.889 389.354L271.545 375.792ZM238.723 382.562C247.342 375.822 254.049 384.294 246.323 391.144C241.785 391.322 241.948 391.512 238.555 388.667L238.723 382.562ZM256.147 390.528L252.696 389.884L252.121 382.155C249.736 372.54 229.602 374.25 236.895 392.265C228.152 395.505 232.835 403.935 228.601 409.13C227.534 410.439 223.189 412.474 221.639 414.298C219.185 417.187 219.255 419.285 215.078 421.031C212.669 417.302 213.676 417.673 209.621 415.438C210.724 409.224 212.778 401.022 203.217 399.58C194.23 398.223 191.572 405.172 192.347 412.762C185.7 413.653 181.699 421.467 177.962 426.482C174.532 431.087 176.398 444.135 181.376 447.061L186.33 447.22C187.134 450.51 186.936 454.834 185.285 457.342C184.059 467.462 178.941 469.44 182.763 479.711C180.326 482.971 178.487 482.983 178.196 487.086C186.284 487.253 187.933 474.498 195.825 473.352C199.411 472.831 207.657 473.196 211.652 473.254C222.84 473.415 216.552 477.106 222.757 477.775C222.855 473.568 221.728 471.305 217.503 470.44L213.525 470.141C212.501 466.367 212.973 469.405 214.511 468.173C226.196 459.558 221.589 458.348 238.171 453.094C245.472 450.782 262.522 445.788 269.629 445.36L280.58 466.553C255.655 478.333 269.181 473.727 247.018 467.153C243.142 469.041 235.3 473.223 235.197 477.56C239.467 477.791 243.269 473.419 247.018 471.152C250.444 471.899 256.659 474.412 258.733 476.688C254.832 479.253 250.497 478.881 250.164 483.173C257.954 484.595 273.637 470.555 281.913 470.729L283.481 484.295C284.343 488.742 283.829 486.51 286.162 487.273C286.628 486.466 287.683 488.364 286.744 481.387C285.457 471.812 286.285 470.068 282.26 462.144C279.737 457.176 275.251 445.295 271.036 442.684C270.767 434.511 270.266 425.774 271.704 417.801C272.338 414.286 270.922 410.486 270.926 406.125C270.931 401.737 270.878 397.331 271.041 392.95C281.493 392.032 282.706 395.923 293.625 391.42L293.893 371.439C289.675 371.647 290.043 372.475 286.771 373.032C283.911 373.519 282.177 372.775 279.89 373.163L271.148 372.609L269.652 369.873L267.884 370.038L267.419 400.184C262.941 396.921 260.676 392.068 256.147 390.528Z" fill="#BDE3FA"/>
<path fill-rule="evenodd" clip-rule="evenodd" d="M492.659 341.092C492.565 338.151 494.495 335.243 497.606 336.04C499.377 338.562 496.1 343.88 492.659 341.092ZM487.56 337.998C485.985 335.054 489.215 331.024 492.314 332.422C493.251 335.669 490.844 339.01 487.56 337.998ZM482.189 333.793C480.725 330.759 483.706 327.567 486.712 327.939C488.848 330.986 485.379 334.886 482.189 333.793ZM476.991 329.518C475.296 326.409 477.639 324.473 481.053 324.88C482.092 327.96 480.075 330.931 476.991 329.518ZM490.63 315.839C489.941 313.414 490.138 307.942 491.853 305.808C492.863 304.551 497.421 302.409 499.085 301.529C504.698 298.561 511.533 300.876 517.655 301.966C520.34 304.465 530.006 317.089 530.581 320.136L525.033 323.176L511.711 313.048L511.894 310.342L498.657 309.191C496.661 312.632 496.189 318.191 490.63 315.839ZM489.62 302.364L491.257 303.096C491.391 304.298 491.622 303.954 490.332 303.904C487.499 306.982 487.431 312.58 487.851 316.807C494.29 321.431 497.681 318.287 500.095 311.96C507.274 311.714 509.808 314.491 514.966 318.677C519.039 321.983 526.853 326.161 524.347 328.811C519.914 331.25 515.4 320.512 510.44 321.039C510.423 326.168 520.296 327.079 518.493 332.399C513.882 334.6 511.455 326.409 506.097 326.024C506.653 331.623 514.133 330.908 511.756 335.83C507.587 337.264 506.348 331.631 502.232 331.228C501.365 335.982 508.084 334.932 506 339.58C498.954 341.273 503.891 334.008 495.335 333.027C494.211 329.728 493.598 329.999 490.356 329.041C488.59 325.343 488.165 325.245 484.025 325.175C481.32 320.573 479.69 322.156 475.588 323.023L469.754 319.255L482.379 302.252L489.62 302.364ZM520.884 332.958C521.509 331.045 522.49 331.631 524.597 331.549L527.153 329.723L527.338 324.94C530.2 323.336 546.293 313.91 545.649 311.059C542.568 309.938 536.404 316.42 533.26 317.908C531.34 316.235 521.614 303.13 520.897 301.06C524.343 297.851 541.273 288.472 541.642 285.1C538.447 282.758 521.884 298.479 518.333 299.289C513.652 299.01 504.771 296.539 500.875 297.777C497.707 298.783 497.512 300.529 493.966 300.588C473.198 300.935 469.818 286.257 460.174 285.048C459.561 288.094 461.184 287.948 463.812 289.769C465.553 290.976 467.232 292.255 468.986 293.405C471.501 295.053 477.914 299.269 479.629 301.06L467.555 317.974C463.521 316.5 458.503 310.642 454.713 310.742C454.595 314.067 460.727 316.72 463.435 318.643C467.072 321.227 470.181 322.908 474.045 325.058C474.109 329.526 472.818 332.004 479.083 332.818C480.408 338.196 481.584 335.294 484.012 337.38C486.552 339.562 484.386 340.785 489.952 341.029C492.641 348.114 497.028 343.833 500.013 340.846C503.634 342.35 507.035 344.824 508.963 339.054C512.414 338.653 513.591 338.974 514.692 335.485C518.303 335.73 519.632 335.975 520.884 332.958Z" fill="#BDE3FA"/>
<path fill-rule="evenodd" clip-rule="evenodd" d="M292.396 203.768C287.584 201.392 287.025 183.399 291.466 178.449C295.247 175.671 297.862 177.448 302.063 177.129C305.447 176.871 307.832 176.109 310.395 179.078L311.028 192.636C313.992 195.431 319.111 194.851 317.699 199.328C314.502 201.147 309.426 197.824 306.54 195.781C305.861 187.047 307.527 184.74 304.254 183.391C303.787 184.204 303.665 183.8 303.432 185.226C303.349 185.737 303.361 186.887 303.363 187.441C303.421 200.686 305.143 196.334 306.245 199.342C306.517 204.429 306.679 224.468 305.066 228.225L302.18 228.366C301.957 222.652 303.407 205.13 301.272 201.517C298.524 202.227 299.292 202.385 299.323 205.993L299.2 228.373C294.046 227.985 295.594 224.271 295.542 219.389L295.149 188.175C295.129 184.482 295.897 184.36 293.135 183.64C290.898 187.824 292.938 198.275 292.396 203.768ZM295.333 167.039L298.094 163.769C304.27 162.968 308.855 167.098 305.296 172.212C301.965 176.994 295.258 174.688 295.333 167.039ZM299.075 155.097L295.345 158.197C295.058 154.109 294.149 146.694 296.165 143.666C299.006 142.168 312.661 142.653 316.573 143.172C317.146 152.67 317.841 149.194 323.599 152.599C322.111 156.347 316.639 155.005 312.44 155.004C307.991 155.004 303.516 154.875 299.075 155.097ZM320.74 137.325C325.258 136.767 343.999 136.298 347.28 137.784C349.111 141.519 348.074 147.688 348.082 152.027L344.399 149.233C338.11 148.841 325.033 150.516 320.263 148.355C318.524 145.436 318.947 140.096 320.74 137.325ZM295.669 140.539L293.185 142.019C292.58 146.11 290.861 159.778 292.966 162.794L294.911 162.791C294.297 166.458 295.025 163.194 293.67 164.616C291.673 169.056 292.318 169.718 293.855 173.918C290.739 176.014 289.298 175.389 287.796 179.887C284.165 190.763 284.909 188.922 287.24 200.098C287.549 201.584 287.721 203.288 288.609 204.567C289.586 205.973 290.332 205.981 291.145 206.487C292.458 207.303 291.797 206.866 292.587 207.505C292.816 213.178 292.679 218.903 292.807 224.576C292.969 231.726 297.283 231.725 303.553 231.175C310.235 230.59 308.656 224.094 308.773 218.647C308.899 212.79 309.04 206.919 309.106 201.063C312.77 201.027 322.111 207.85 320.647 195.358L313.695 190.864C313.081 185.041 315.531 175.647 308.859 174.897L307.169 174.345C306.953 171.815 306.988 174.2 308.054 173.159C311.019 165.012 306.634 160.205 298.299 160.902L297.445 161.357L295.958 162.274C296.073 158.743 295.742 161.78 296.93 160.467L298.146 159.514L299.797 157.845C305.206 157.726 310.689 157.746 316.153 157.761C326.578 157.793 322.847 157.728 327.309 151.964L342.139 151.891C346.684 153.296 345.612 157.033 350.306 157.108C351.563 153.812 350.867 146.1 350.851 142.148C350.809 131.807 345.459 134.391 326.543 134.302C320.801 134.275 317.561 133.649 316.552 140.201L295.669 140.539Z" fill="#BDE3FA"/>
<path fill-rule="evenodd" clip-rule="evenodd" d="M349.382 183.579C349.747 179.608 347.701 181.121 345.791 176.905C348.002 175.832 351.084 177.191 352.994 178.724C353.412 182.491 354.094 188.739 352.773 192.141C349.161 193.7 347.386 189.832 344.988 186.842C342.802 184.118 339.308 182.171 341.621 178.897C345.439 178.898 345.247 183.22 349.382 183.579ZM336.99 176.888C338.806 176.116 337.325 176.087 339.93 176.455L338.63 178.549C335.835 182.602 346.157 193.259 349.212 195.572C349.455 200.559 349.608 224.345 348.06 227.539L344.734 228.385C344.659 223.693 344.68 219.319 344.673 214.935L344.724 204.491C344.504 201.824 344.375 202.469 343.624 201.468C342.191 202.128 341.839 200.405 341.919 206.759L341.821 228.166C336.654 228.71 337.791 225.382 337.703 220.876C337.565 213.867 338.023 186.711 336.879 184.534C334.34 184.995 334.906 184.638 334.838 188.152L333.962 205.564C330.757 204.549 331.747 203.138 331.584 199.345C331.246 191.438 330.98 186.051 334.157 177.931L336.99 176.888ZM337.695 170.726C337.476 160.552 348.993 160.517 348.814 170.726C345.731 174.519 345.992 174.952 340.434 174.07L337.695 170.726ZM350.387 174.022C352.209 167.576 351.623 160.075 342.866 160.447C334.685 160.794 334.201 167.913 336.275 174.2C331.384 175.369 331.409 176.191 330.395 180.908C329.673 184.264 328.575 187.754 328.492 191.155C328.059 209.133 330.145 206.484 334.594 209.035C334.997 213.064 334.483 224.898 335.427 227.59C337.091 232.336 346.591 232.104 349.268 230.277C353.382 227.469 352.027 201.728 352.071 195.783C357.658 193.303 356.118 189.489 356.023 183.745C355.889 175.617 356.112 177.358 350.387 174.022Z" fill="#BDE3FA"/>
<path fill-rule="evenodd" clip-rule="evenodd" d="M336.987 457.676L337.703 456.524C336.269 456.321 337.084 456.337 336.084 456.763C337.333 456.803 337.064 456.469 336.987 457.676Z" fill="#919192"/>
<path fill-rule="evenodd" clip-rule="evenodd" d="M321.235 212.134C322.011 212.163 321.873 212.371 321.792 211.647L320.806 211.206L321.235 212.134Z" fill="#727272"/>
<path fill-rule="evenodd" clip-rule="evenodd" d="M280.279 433.398L282.279 433.259L282.309 431.391L282.471 433.398H280.279Z" fill="#898788"/>
<path fill-rule="evenodd" clip-rule="evenodd" d="M239.038 431.605L240.433 430.238L239.038 431.605Z" fill="#A2A2A2"/>
</svg>
