<svg width="581" height="581" viewBox="0 0 581 581" fill="none" xmlns="http://www.w3.org/2000/svg">
<path fill-rule="evenodd" clip-rule="evenodd" d="M194.964 368.682H488.182C493.501 368.682 497.816 364.345 497.839 359.026L499.251 38.3778C499.274 33.0586 494.911 28.7209 489.595 28.7209H202.533C197.217 28.7209 193.001 33.0614 192.876 38.3778L185.31 359.026C185.185 364.342 189.648 368.682 194.964 368.682Z" fill="#EDF8FF"/>
<path fill-rule="evenodd" clip-rule="evenodd" d="M113.845 284.764L109.57 285.55C109.746 291.104 108.089 298.866 105.766 303.859C105.005 306.568 99.0905 320.676 97.6919 322.259L96.5316 327.638L96.4323 327.23C101.791 329.936 105.156 341.95 139.579 345.13C148.22 345.928 158.081 345.182 166.615 343.491C171.781 342.467 185.018 338.203 188.221 334.864C187.253 328.452 181.37 298.069 177.057 295.499C175.684 299.419 170.039 311.958 170.413 314.282C170.915 317.402 172.916 316.949 171.664 320.654C168.958 320.529 167.937 317.439 167.61 314.994C166.93 309.882 173.42 300.792 174.961 292.65C174.728 289.743 173.73 290.616 171.823 288.622C170.158 286.88 170.064 286.421 168.025 284.806C154.932 274.443 155.417 267.782 164.286 256.661C175.162 259.093 172.581 261.393 185.25 259.28C192.053 258.145 198.678 256.505 204.695 253.331C230.147 239.912 203.605 227.858 202.153 226.579L200.198 225.909L200.771 222.601L199.16 225.123L168.68 214.689C166.362 219.174 165.574 214.845 163.142 225.804C161.747 232.102 159.247 232.678 157.576 236.477C162.966 247.589 161.134 262.622 143.275 265.436C134.45 266.829 134.166 269.53 129.502 275.913C125.772 281.013 120.603 285.334 113.845 284.764Z" fill="#FDA955"/>
<path fill-rule="evenodd" clip-rule="evenodd" d="M190.082 341.025C179.31 354.665 149.88 350.807 133.86 350.79C136.563 351.851 139.837 351.519 143.091 351.879C142.932 354.685 144.558 356.328 144.234 360.212C144.007 362.924 142.819 365.783 142.407 368.663C141.25 376.788 143.871 403.857 143.894 417.33L144.005 424.93C143.746 426.661 144.022 425.917 143.236 426.947L143.395 427.33C144.223 428.558 143.806 427.73 143.905 429.407C143.905 429.41 143.766 431.733 143.752 431.949C143.673 433.202 143.67 434.425 143.582 435.668L142.875 445.251L122.484 520.279C122.487 523.47 141.057 523.263 143.976 521.876L149.695 511.811L150.226 511.311C154.861 500.21 175.364 469.813 175.287 460.062C175.06 462.309 174.85 465.226 175.636 467.047C175.063 471.299 175.903 469.438 176.019 472.568C176.11 474.99 175.327 475.393 175.103 478.256C174.845 481.501 174.638 485.87 175.551 488.857C176.802 486.539 176.306 472.46 176.317 468.735C176.36 454.499 176.74 462.221 179.44 451.501C185.588 427.078 193.934 361.468 191.548 340.24L190.082 341.025Z" fill="#6D96AD"/>
<path fill-rule="evenodd" clip-rule="evenodd" d="M104.903 556.021C96.2536 558.878 64.3071 555.893 57.4361 561.598C71.2434 569.877 251.044 568.903 284.897 568.793C322.285 568.677 505.47 569.04 540.1 561.587C535.17 556.256 512.145 556.952 502.06 556.061C501.453 559.442 500.27 561.312 496.338 560.725C492.466 560.146 493.161 557.44 491.768 554.98L491.126 555.998C406.09 552.883 300.182 554.498 212.005 554.603L212.703 550.846C209.812 554.475 213.79 555.442 208.74 560.001C204.49 560.696 202.34 559.82 201.971 555.317L194.002 555.556L194.555 558.676C189.25 561.942 172.053 561.493 164.93 560.915C160.379 560.543 160.101 560.027 159.361 555.647C156.101 555.091 142.555 555.218 139.559 556.061L140.197 560.163C135.573 561.536 114.847 562.577 115.547 555.23C114.254 555.587 107.162 555.686 104.903 556.021Z" fill="#ADCDE3"/>
<path fill-rule="evenodd" clip-rule="evenodd" d="M463.282 369.012L463.881 402.36L491.768 554.98C493.161 557.44 492.466 560.146 496.338 560.725C500.27 561.312 501.453 559.442 502.06 556.061L469.566 376.203C483.966 375.607 501.013 380.044 505.351 361.701C507.195 353.908 505.467 322.367 505.459 312.08C505.439 279.124 505.005 245.941 504.528 212.979L502.973 63.8391C502.897 57.6489 503.552 44.6559 502.471 39.2714C501.427 34.077 495.308 27.4415 489.595 28.7209C496.023 36.0997 495.243 36.8146 495.342 46.6843C495.424 54.7298 495.371 62.7696 495.439 70.8207L497.257 308.174C497.544 372.955 503.981 369.21 463.282 369.012Z" fill="#A9929B"/>
<path fill-rule="evenodd" clip-rule="evenodd" d="M201.971 555.317C202.34 559.82 204.49 560.696 208.74 560.001C213.79 555.442 209.812 554.475 212.703 550.846L242.247 376.129L392.314 376.183L392.147 368.918C377.902 369.729 348.279 368.941 333.766 368.935C311.941 368.929 213.719 370.141 200.178 368.132C199.815 379.224 224.95 375.463 231.952 376.331C231.736 382.668 229.33 392.135 228.278 398.779C221.319 442.692 212.797 488.505 205.424 532.716C204.394 538.9 201.943 549.516 201.971 555.317Z" fill="#A9929B"/>
<path fill-rule="evenodd" clip-rule="evenodd" d="M202.153 226.579C202.763 225.969 201.929 224.664 206.896 226.102C210.184 227.052 216.3 229.665 216.726 233.118C213.549 232.664 209.254 226.374 202.153 226.579ZM202.153 226.579C203.605 227.858 230.147 239.912 204.695 253.331C198.678 256.505 192.053 258.145 185.25 259.28C172.581 261.393 175.162 259.093 164.286 256.661C155.417 267.782 154.932 274.443 168.025 284.806C170.064 286.421 170.158 286.88 171.823 288.622C173.73 290.616 174.728 289.743 174.961 292.65L177.364 291.989L177.057 295.499C181.37 298.069 187.253 328.452 188.221 334.864L194.794 328.478C194.712 280.367 175.94 286.12 180.374 261.45C190.573 261.427 202.615 265.484 215.515 259.138C230.485 251.77 227.949 242.063 228.17 233.475C227.912 234.553 228.743 233.994 227.623 234.426C222.508 228.372 208.641 222.281 200.771 222.601L200.198 225.909L202.153 226.579Z" fill="#E16C35"/>
<path fill-rule="evenodd" clip-rule="evenodd" d="M462.74 431.523C467.591 443.736 470.454 457.373 472.125 470.61C473.092 478.281 473.589 485.728 473.77 493.464C473.909 499.334 473.234 512.67 474.261 517.487C476.011 519.053 475.569 522.906 475.243 525.351L472.806 526.46L472.721 530.489C473.174 534.875 472.19 540.134 474.003 544.123L474.831 552.489L475.305 555.42L491.126 555.998L491.768 554.98L463.881 402.36C463.921 410.184 461.75 424.927 462.74 431.523Z" fill="#FBFDFD"/>
<path fill-rule="evenodd" clip-rule="evenodd" d="M309.195 92.9742C312.466 89.9671 321.533 90.2961 325.686 90.1458C323.873 91.8706 320.305 91.1983 317.783 91.516C314.756 91.899 311.907 92.5969 309.195 92.9742ZM303.683 82.1202C307.907 80.9655 312.943 80.0804 317.346 78.957C319.496 78.4095 321.635 77.7627 323.76 77.0619C330.776 74.7442 328.818 75.5981 329.922 76.435C326.146 79.0761 312.52 80.5315 307.462 83.1982L310.253 84.7812C307.201 86.0238 305.079 84.472 303.683 82.1202ZM296.846 80.4095C298.182 83.3032 299.289 84.0634 299.618 87.4422C301.411 88.7699 303.527 94.5997 303.66 96.9147L305.082 99.8878C307.561 102.398 308.08 107.23 310.31 110.157L324.815 105.953C331.383 105.059 337.102 103.837 343.973 103.099C344.39 99.848 335.686 77.1754 333.709 72.8605L328.086 73.1782C316.608 75.2662 308.548 80.0152 296.846 80.4095Z" fill="#9A97CB"/>
<path fill-rule="evenodd" clip-rule="evenodd" d="M372.975 151.539C370.37 153.148 363.729 150.376 360.047 151.137C360.748 150.317 359.346 149.968 362.909 149.971L372.975 151.539ZM359.976 146.836C362.438 145.267 368.683 146.172 371.843 146.345C374.921 146.512 380.538 146.061 382.663 147.474C380.998 148.433 363.227 147.25 359.976 146.836ZM378.3 143.261C376.853 143.996 364.742 143.338 361.925 142.734C358.997 142.107 361.553 142.822 360.438 141.922C363.355 141.42 375.99 142.053 378.3 143.261ZM353.485 167.608L359.02 168.394C366.728 169.548 374.2 170.743 385.208 170.572L387.193 168.947C386.393 167.106 387.284 156.649 387.222 153.503L387.347 136.929L382.178 136.217C377.976 136.37 361.956 136.824 359.199 135.273L353.17 135.556L353.485 167.608Z" fill="#A7A5D1"/>
<path fill-rule="evenodd" clip-rule="evenodd" d="M142.385 423.523L143.236 426.947C144.022 425.917 143.746 426.66 144.005 424.93L143.894 417.33C143.871 403.857 141.25 376.788 142.407 368.663C142.819 365.783 144.007 362.923 144.234 360.211C144.558 356.328 142.932 354.685 143.091 351.879C139.837 351.519 136.563 351.851 133.86 350.79C130.047 350.799 126.382 350.705 122.583 350.342C119.136 350.01 114.205 348.849 110.714 348.101C110.714 350.342 113.014 356.594 113.706 358.325C117.709 368.387 124.682 365.554 130.912 374.284C134.838 379.787 136.382 394.01 139.417 399.713C142.856 406.169 142.24 416.153 142.385 423.523Z" fill="#3F6881"/>
<path fill-rule="evenodd" clip-rule="evenodd" d="M151.026 512.704L153.154 524.143C155.364 525.263 170.83 522.171 173.974 521.161C174.042 518.574 174.099 515.643 175.043 513.459C174.955 506.94 176.768 494.42 175.551 488.857C174.638 485.87 174.845 481.501 175.103 478.255C175.327 475.393 176.11 474.99 176.019 472.567C175.903 469.438 175.063 471.299 175.636 467.047C172.615 468.809 171.259 475.804 169.792 479.274C168.121 483.229 166.161 487.092 164.376 491.016C162.022 496.185 154.921 509.805 151.026 512.704Z" fill="#3F6881"/>
<path fill-rule="evenodd" clip-rule="evenodd" d="M238.48 134.314C237.192 135.031 223.265 134.558 221.137 133.182C224.295 133.048 236.383 133.151 238.48 134.314ZM215.64 127.465C215.844 135.834 215.722 136.212 215.674 149.883L241.745 150.249C242.803 137.732 242.321 126.478 241.228 123.837L215.835 123.701L215.64 127.465Z" fill="#FBC975"/>
<path fill-rule="evenodd" clip-rule="evenodd" d="M143.976 521.876C143.88 523.459 143.829 526.545 142.807 527.814C141.199 529.811 140.671 528.409 138.18 529.431L136.268 534.106L133.772 546.897L139.559 556.061C142.555 555.218 156.101 555.09 159.361 555.646L158.093 542.078L156.629 531.487L156.72 530.316L152.867 530.25L151.815 525.223L153.154 524.143L151.026 512.704C150.027 511.442 150.887 512.432 149.695 511.81L143.976 521.876Z" fill="#FBFDFD"/>
<path fill-rule="evenodd" clip-rule="evenodd" d="M227.977 85.7968L235.557 83.8876C238.879 83.6975 238.284 84.5315 238.295 84.5372L227.977 85.7968ZM226.933 82.6478C228.159 81.6719 241.742 78.6903 242.882 79.2747L226.933 82.6478ZM230.377 78.1541C228.888 78.9967 227.234 79.4166 226.051 78.8747L230.377 78.1541ZM230.377 78.1541C231.94 77.2151 233.478 77.2236 235.47 76.9314C238.19 76.5343 239.387 75.8562 240.948 76.8407L230.377 78.1541ZM238.647 73.1016C236.848 74.2591 227.274 76.1711 225.064 75.8336C226.306 74.7669 236.502 73.1016 238.647 73.1016ZM238.647 73.1016C239.926 72.0434 241.699 71.1243 243.18 71.7626L238.647 73.1016ZM223.952 71.8278C225.813 70.5285 228.389 70.8661 231.052 70.7214C233.336 70.5938 236.428 69.7228 238.426 70.5541C236.216 71.5725 226.499 72.259 223.952 71.8278ZM219.838 69.286C219.668 72.1314 226.184 94.3756 227.781 96.6225C231.172 96.2508 248.905 91.0309 251.864 89.5926C251.762 86.2479 244.644 66.798 242.922 62.4462L219.838 69.286Z" fill="#FBC975"/>
<path fill-rule="evenodd" clip-rule="evenodd" d="M142.385 423.523C142.24 416.153 142.881 408.196 139.417 399.713C137.894 393.983 133.841 377.792 129.915 372.289C123.685 363.56 116.699 362.065 113.706 358.076C113.014 356.345 111.283 350.067 112.21 348.351C110.963 348.351 109.735 347.806 107.771 346.923C107.241 346.685 106.015 345.99 105.664 345.862C104.228 345.346 104.861 345.264 103.854 345.777C102.881 359.329 114.492 374.915 121.593 385.783C127.845 395.358 134.41 408.164 139.454 418.72L142.385 423.523Z" fill="#6D96AD"/>
<path fill-rule="evenodd" clip-rule="evenodd" d="M101.542 342.991C103.292 344.024 103.011 344.035 103.854 345.777C104.861 345.264 104.228 345.346 105.664 345.862C106.015 345.99 107.241 346.685 107.771 346.923C109.735 347.806 111.213 348.351 112.709 348.6C116.699 349.265 119.136 350.01 122.583 350.342C126.382 350.705 130.047 350.799 133.86 350.79C149.88 350.807 179.31 354.665 190.082 341.025C189.724 340.413 189.421 339.797 189.018 338.937L187.838 336.881C169.75 349.791 113.953 352.855 96.4324 327.229L96.5316 327.638C94.404 329.337 93.8054 333.777 95.5104 336.359C97.1473 338.835 99.2494 341.031 101.542 342.991Z" fill="#FDA955"/>
<path fill-rule="evenodd" clip-rule="evenodd" d="M159.361 555.647C160.101 560.027 160.379 560.543 164.93 560.915C172.053 561.493 189.25 561.942 194.555 558.676L194.002 555.556C190.902 554.665 180.93 549.295 179.126 546.758C175.579 545.723 177.262 544.256 173.866 543.212L173.247 548.12C169.599 548.6 161.349 544.322 158.093 542.078L159.361 555.647Z" fill="#1F354D"/>
<path fill-rule="evenodd" clip-rule="evenodd" d="M113.845 284.764C120.603 285.334 125.772 281.013 129.502 275.913C134.166 269.53 134.45 266.829 143.275 265.436C161.134 262.622 162.967 247.589 157.576 236.477C159.247 232.678 161.747 232.102 163.142 225.804C165.574 214.845 166.362 219.174 168.68 214.689L157.225 209.103C160.3 220.499 163.957 224.556 154.189 234.635C156.158 239.657 157.568 240.431 157.188 246.599C156.703 254.471 150.861 261.527 143.607 263.322C137.786 264.764 136.175 262.554 131.494 261.348C129.009 267.095 130.291 269.583 125.514 275.714C121.131 281.34 117.479 281.422 113.845 284.764Z" fill="#E16C35"/>
<path fill-rule="evenodd" clip-rule="evenodd" d="M202.051 217.052C200.76 218.434 200.624 220.545 200.771 222.601C208.641 222.281 222.508 228.372 227.623 234.426C228.743 233.994 227.912 234.553 228.17 233.475C227.118 228.63 223.838 212.505 220.649 209.776C219.2 211.424 217.404 210.014 214.431 210.201C212.817 210.3 210.085 210.964 208.638 211.708C206.868 212.615 202.173 217.021 202.051 217.052Z" fill="#FDC56C"/>
<path fill-rule="evenodd" clip-rule="evenodd" d="M115.184 556.767C114.486 564.115 148.039 561.264 152.663 559.893L156.708 555.411L149.06 550.421L133.772 546.897C130.407 549.695 130.807 552.001 127.119 546.546C125.096 543.553 122.83 541.919 120.983 539.119C118.81 541.876 115.672 553.045 115.184 556.767Z" fill="#3C314C"/>
<path fill-rule="evenodd" clip-rule="evenodd" d="M201.792 196.757L203.188 195.713C202.55 197.256 203.747 196.556 201.792 196.757ZM202.714 194.57C198.031 193.934 197.503 197.977 200.74 200.218C202.791 199.767 205.773 207.242 210.629 206.689L215.083 205.713L216.108 203.123C215.603 201.611 216.21 194.791 216.913 193.401L215.841 188.414L215.478 186.93L215.648 185.531L212.635 185.248C211.245 184.74 211.231 185.012 210.763 183.472C210.261 186.099 209.546 188.584 207.132 189.616C200.751 192.351 207.319 192.002 202.714 194.57Z" fill="#FDDBCC"/>
<path fill-rule="evenodd" clip-rule="evenodd" d="M153.154 524.143L151.815 525.223L152.867 530.25L156.72 530.316L172.019 528.367L172.118 532.228L173.866 543.212C177.262 544.256 175.579 545.723 179.126 546.758C178.425 541.487 176.541 535.714 175.557 530.446C174.703 525.867 177.304 527.405 175.821 522.443C174.036 516.486 175.015 520.874 175.043 513.459C174.099 515.643 174.042 518.574 173.974 521.161C170.83 522.171 155.364 525.263 153.154 524.143Z" fill="#3F6881"/>
<path fill-rule="evenodd" clip-rule="evenodd" d="M158.093 542.078C161.349 544.322 169.599 548.6 173.247 548.12L173.866 543.212L172.118 532.228L156.629 531.487L158.093 542.078Z" fill="#FDDBCC"/>
<path fill-rule="evenodd" clip-rule="evenodd" d="M120.983 539.119C122.83 541.919 125.096 543.553 127.119 546.546C130.807 552.001 130.407 549.695 133.772 546.897L136.268 534.106C133.619 534.804 124.679 531.643 122.651 529.649C121.102 531.714 121.037 536.216 120.983 539.119Z" fill="#FDDBCC"/>
<path fill-rule="evenodd" clip-rule="evenodd" d="M105.766 303.859C108.089 298.866 109.746 291.104 109.57 285.55C100.52 286.699 101.862 286.072 94.2479 283.558C95.4763 290.56 100.523 299.592 105.766 303.859Z" fill="#E16C35"/>
<path fill-rule="evenodd" clip-rule="evenodd" d="M190.082 341.025L191.548 340.24C193.625 334.004 195.049 339.286 194.794 328.478L188.221 334.864C185.018 338.203 171.781 342.467 166.615 343.491C158.081 345.182 148.22 345.928 139.579 345.13C105.156 341.95 101.791 329.936 96.4323 327.229C113.953 352.855 169.75 349.791 187.838 336.881L189.018 338.937C189.421 339.797 189.724 340.413 190.082 341.025Z" fill="#E16C35"/>
<path fill-rule="evenodd" clip-rule="evenodd" d="M228.735 42.0346V42.8459L243.027 43.4785L250.559 43.3651L251.021 36.0856L243.013 36.0004L238.417 35.9125L230.045 36.0799C229.563 38.5593 230.102 40.5338 228.735 42.0346Z" fill="#493856"/>
<path fill-rule="evenodd" clip-rule="evenodd" d="M456.258 42.948C459.597 42.6984 467.736 43.2289 470.207 42.0062C470.088 39.6175 470.457 37.5522 469.708 35.6118L462.335 35.626L457.197 35.6316L449.123 35.5409L448.241 42.4261L456.258 42.948Z" fill="#574A6E"/>
<path fill-rule="evenodd" clip-rule="evenodd" d="M334.302 41.7168C334.708 43.8672 334.832 43.2828 337.493 43.3424C339.309 43.3821 341.423 43.2856 343.284 43.28C346.972 43.2715 350.926 43.3764 354.577 43.175L354.818 41.4218L354.654 36.1338L347.088 35.9806L342.146 36.0288L334.886 36.1735L334.302 41.7168Z" fill="#493856"/>
<path fill-rule="evenodd" clip-rule="evenodd" d="M122.453 527.206C124.847 527.226 136.711 528.537 138.18 529.431C140.671 528.409 141.199 529.811 142.807 527.814C143.829 526.545 143.88 523.459 143.976 521.876C141.057 523.263 122.487 523.47 122.484 520.279L120.586 520.608L119.8 526.846L122.453 527.206Z" fill="#3F6881"/>
<path fill-rule="evenodd" clip-rule="evenodd" d="M150.226 511.311L151.026 512.704C154.921 509.805 162.022 496.185 164.376 491.016C166.161 487.093 168.121 483.229 169.792 479.274C171.259 475.804 172.615 468.809 175.636 467.047C174.85 465.226 175.06 462.309 175.287 460.062C175.364 469.813 154.861 500.21 150.226 511.311Z" fill="#3F6881"/>
<path fill-rule="evenodd" clip-rule="evenodd" d="M174.961 292.65C173.421 300.792 166.93 309.882 167.611 314.994C167.937 317.439 168.958 320.529 171.664 320.654C172.916 316.949 170.916 317.402 170.413 314.282C170.039 311.958 175.684 299.419 177.057 295.499L177.364 291.989L174.961 292.65Z" fill="#E16C35"/>
<path fill-rule="evenodd" clip-rule="evenodd" d="M135.644 170.212C136.396 169.046 136.081 170.209 136.146 168.689C136.192 167.647 136.129 167.894 135.772 166.796C134.427 162.657 133.57 159.644 134.141 154.859C134.6 150.986 136.989 143.817 140.668 142.192L136.277 141.849C135.284 147.52 124.938 156.45 135.644 170.212Z" fill="#2B2237"/>
<path fill-rule="evenodd" clip-rule="evenodd" d="M203.378 186.924L202.714 194.57C207.319 192.002 200.751 192.351 207.132 189.617C209.546 188.584 210.261 186.099 210.763 183.472C211.231 185.012 211.245 184.74 212.635 185.248C211.554 182.289 213.753 183.622 212.351 179.483C207.038 176.811 205.529 184.178 203.378 186.924Z" fill="#FDDBCC"/>
<path fill-rule="evenodd" clip-rule="evenodd" d="M122.651 529.649C124.679 531.643 133.619 534.804 136.268 534.106L138.18 529.431C136.711 528.537 124.847 527.226 122.453 527.206L122.651 529.649Z" fill="#DC908D"/>
<path fill-rule="evenodd" clip-rule="evenodd" d="M210.629 206.689L205.373 209.736L204.436 208.088C204.672 212.082 204.019 210.55 202.87 213.892C205.54 213.169 207.015 211.069 210.079 209.9C213.415 208.63 216.936 209.268 220.383 209.418L220.23 207.143C218.397 207.273 215.713 207.31 215.083 205.713L210.629 206.689Z" fill="#F6B56C"/>
<path fill-rule="evenodd" clip-rule="evenodd" d="M303.683 82.1202C305.079 84.472 307.201 86.0238 310.253 84.7812L307.462 83.1982C312.52 80.5315 326.146 79.0761 329.922 76.435C328.818 75.5981 330.776 74.7442 323.76 77.0619C321.635 77.7627 319.496 78.4095 317.346 78.957C312.943 80.0804 307.907 80.9655 303.683 82.1202Z" fill="#6A6294"/>
<path fill-rule="evenodd" clip-rule="evenodd" d="M156.72 530.316L156.629 531.487L172.118 532.228L172.019 528.367L156.72 530.316Z" fill="#DC908D"/>
<path fill-rule="evenodd" clip-rule="evenodd" d="M307.402 110.762L308.568 112.058L310.843 112.092C314.384 110.061 322.568 108.237 324.815 105.953L310.31 110.157C308.08 107.23 307.561 102.398 305.082 99.8877C305.51 103.556 307.538 107.133 307.402 110.762Z" fill="#9D615C"/>
<path fill-rule="evenodd" clip-rule="evenodd" d="M359.976 146.836C363.227 147.25 380.997 148.433 382.663 147.474C380.538 146.061 374.921 146.512 371.843 146.345C368.682 146.172 362.438 145.267 359.976 146.836Z" fill="#595689"/>
<path fill-rule="evenodd" clip-rule="evenodd" d="M204.436 208.088L205.373 209.736L210.629 206.689C205.773 207.242 202.791 199.767 200.74 200.218L204.436 208.088Z" fill="#DC908D"/>
<path fill-rule="evenodd" clip-rule="evenodd" d="M202.153 226.579C209.254 226.374 213.549 232.664 216.726 233.118C216.3 229.665 210.184 227.052 206.896 226.102C201.929 224.664 202.763 225.969 202.153 226.579Z" fill="#D47B2E"/>
<path fill-rule="evenodd" clip-rule="evenodd" d="M202.871 213.892L202.051 217.052C202.173 217.021 206.868 212.615 208.638 211.708C210.085 210.964 212.817 210.3 214.431 210.201C217.404 210.014 219.2 211.424 220.649 209.776L220.383 209.418C216.936 209.268 213.415 208.63 210.079 209.9C207.015 211.069 205.54 213.169 202.871 213.892Z" fill="#E28733"/>
<path fill-rule="evenodd" clip-rule="evenodd" d="M378.3 143.261C375.99 142.053 363.355 141.42 360.438 141.922C361.553 142.822 358.997 142.107 361.925 142.734C364.742 143.338 376.853 143.996 378.3 143.261Z" fill="#6A6294"/>
<path fill-rule="evenodd" clip-rule="evenodd" d="M149.573 161.202C153.857 160.816 153.278 159.321 154.884 155.866L152.881 156.615L151.517 154.478C149.562 156.623 149.602 158.294 149.573 161.202Z" fill="#FDDBCC"/>
<path fill-rule="evenodd" clip-rule="evenodd" d="M417.327 369.224L416.785 375.934L420.919 375.888L420.141 373.275L418.865 367.281L418.961 369.256L417.327 369.224Z" fill="#A898A2"/>
<path fill-rule="evenodd" clip-rule="evenodd" d="M457.197 35.6316L462.335 35.626C462.681 32.0203 462.528 31.3678 458.783 31.5124C457.146 33.3876 457.359 33.2032 457.197 35.6316Z" fill="#A7A5D1"/>
<path fill-rule="evenodd" clip-rule="evenodd" d="M238.479 134.314C236.383 133.151 224.295 133.048 221.137 133.182C223.265 134.558 237.191 135.031 238.479 134.314Z" fill="#A45C2E"/>
<path fill-rule="evenodd" clip-rule="evenodd" d="M309.195 92.9742C311.907 92.5969 314.756 91.899 317.783 91.516C320.305 91.1983 323.873 91.8706 325.686 90.1458C321.533 90.2961 312.466 89.9671 309.195 92.9742Z" fill="#454384"/>
<path fill-rule="evenodd" clip-rule="evenodd" d="M150.359 162.155L153.267 169.284C155.196 168.669 157.193 172.43 157.613 172.283C158.09 172.118 158.362 169.633 157.905 167.106L154.266 160.867L150.359 162.155Z" fill="#FDDBCC"/>
<path fill-rule="evenodd" clip-rule="evenodd" d="M342.146 36.0288L347.088 35.9806L346.353 32.3323L343.494 32.1678C341.919 33.9408 342.279 33.7706 342.146 36.0288Z" fill="#B0ABB2"/>
<path fill-rule="evenodd" clip-rule="evenodd" d="M94.2479 283.558C101.862 286.072 100.52 286.699 109.57 285.55L113.845 284.764C117.479 281.422 121.131 281.34 125.514 275.714C130.291 269.583 129.009 267.095 131.494 261.348C136.175 262.554 137.786 264.764 143.607 263.322C150.861 261.527 156.703 254.471 157.188 246.599C157.568 240.431 156.158 239.657 154.189 234.635C163.957 224.556 160.3 220.499 157.225 209.103C151.017 189.985 171.145 189.946 158.064 171.038C153.361 168.331 147.956 157.795 152.124 153.225C162.348 133.511 127.448 141.088 118.24 144.056C104.671 148.427 94.7103 156.816 91.3741 171.117C87.5812 187.384 85.0932 191.321 70.0575 204.383C65.7171 208.153 59.8447 214.102 58.0205 219.671C54.3297 230.936 64.7667 231.884 66.6703 235.767C64.8064 239.348 60.5255 239.532 58.7014 246.942C56.1652 257.251 64.4631 277.028 87.845 265.947C88.4918 270.006 88.35 271.893 89.9471 275.91C91.2918 279.289 93.0933 280.928 94.2479 283.558Z" fill="#214360"/>
<path fill-rule="evenodd" clip-rule="evenodd" d="M238.417 35.9125L243.013 36.0004L242.959 32.4231L239.021 32.2699L238.417 35.9125Z" fill="#B0ABB2"/>
<path fill-rule="evenodd" clip-rule="evenodd" d="M223.952 71.8278C226.499 72.259 236.216 71.5725 238.426 70.5541C236.428 69.7228 233.336 70.5938 231.052 70.7214C228.389 70.8661 225.813 70.5285 223.952 71.8278Z" fill="#A45C2E"/>
<path fill-rule="evenodd" clip-rule="evenodd" d="M360.047 151.137C363.729 150.376 370.37 153.148 372.975 151.539L362.909 149.971C359.346 149.968 360.748 150.317 360.047 151.137Z" fill="#595689"/>
<path fill-rule="evenodd" clip-rule="evenodd" d="M149.573 161.202L150.359 162.155L154.266 160.867L156.033 157.971C155.347 157.457 154.49 158.896 155.888 156.722L156.064 155.991L154.884 155.866C153.278 159.321 153.857 160.816 149.573 161.202Z" fill="#704833"/>
<path fill-rule="evenodd" clip-rule="evenodd" d="M238.647 73.1016C236.502 73.1016 226.306 74.7669 225.064 75.8336C227.274 76.1711 236.848 74.2591 238.647 73.1016Z" fill="#A45C2E"/>
<path fill-rule="evenodd" clip-rule="evenodd" d="M242.882 79.2747C241.742 78.6903 228.159 81.6719 226.933 82.6478L242.882 79.2747Z" fill="#A45C2E"/>
<path fill-rule="evenodd" clip-rule="evenodd" d="M417.327 369.224L418.961 369.256L418.865 367.281L418.598 365.278L417.233 364.989L417.327 369.224Z" fill="#D9D5D7"/>
<path fill-rule="evenodd" clip-rule="evenodd" d="M238.295 84.5372C238.284 84.5315 238.879 83.6975 235.557 83.8876L227.977 85.7968L238.295 84.5372Z" fill="#A45C2E"/>
<path fill-rule="evenodd" clip-rule="evenodd" d="M230.377 78.1541L240.948 76.8407C239.387 75.8562 238.19 76.5343 235.47 76.9314C233.478 77.2236 231.94 77.2151 230.377 78.1541Z" fill="#A45C2E"/>
<path fill-rule="evenodd" clip-rule="evenodd" d="M310.843 112.092L308.568 112.058L307.402 110.762L308.114 113.4C310.926 112.921 309.365 113.36 310.843 112.092Z" fill="#D4574B"/>
<path fill-rule="evenodd" clip-rule="evenodd" d="M238.647 73.1016L243.18 71.7626C241.699 71.1243 239.926 72.0434 238.647 73.1016Z" fill="#A45C2E"/>
<path fill-rule="evenodd" clip-rule="evenodd" d="M230.377 78.1541L226.051 78.8747C227.234 79.4166 228.888 78.9967 230.377 78.1541Z" fill="#A45C2E"/>
<path fill-rule="evenodd" clip-rule="evenodd" d="M282.551 208.19L288.001 211.983C292.818 212.947 293.303 211.719 296.682 208.632C299.113 206.411 303.127 206.224 305.686 207.852L301.839 201.793L300.829 201.594C299.079 201.775 297.118 201.356 296.145 201.401C294.296 202.439 283.7 203.892 281.561 204.388C279.334 206.048 284.889 206.91 282.551 208.19Z" fill="#DC908D"/>
<path fill-rule="evenodd" clip-rule="evenodd" d="M295.947 194.048C297.326 197.256 297.632 197.807 300.829 201.594L301.839 201.793L305.686 207.852C303.127 206.224 299.113 206.411 296.682 208.632C293.303 211.719 292.818 212.947 288.001 211.983L286.452 208.366C285.652 207.259 284.611 206.547 283.374 207.149L282.551 208.19C289.473 220.181 300.225 210.547 308.154 219.24C315.712 227.526 322.259 236.604 330.217 244.692C336.81 251.393 345.471 258.894 354.563 261.788C360.297 263.612 376.427 267.033 381.885 265.266L381.537 242.724C378.478 240.548 372.339 245.901 364.972 245.918C361.809 244.074 351.216 235.39 348.217 232.882C335.292 222.065 331.55 220.615 317.048 212.405C311.445 209.231 311.028 205.96 307.774 200.768C306.775 199.171 299.399 191.668 298.194 190.992C296.718 191.472 296.188 192.612 295.947 194.048Z" fill="#FDDBCC"/>
<path fill-rule="evenodd" clip-rule="evenodd" d="M273.853 205.509L276.937 212.02C282.761 218.593 298.392 215.276 305.416 219.089C310.719 221.969 324.251 240.233 329.005 245.901C332.813 250.437 336.659 254.939 340.793 259.183C346.248 264.789 361.179 273.995 368.166 275.81C372.206 276.86 380.609 273.847 382.583 273.64L381.885 265.266C376.427 267.033 360.297 263.612 354.563 261.788C345.474 258.894 336.81 251.393 330.217 244.692C322.259 236.604 315.712 227.526 308.154 219.24C300.225 210.547 289.473 220.181 282.551 208.19C281.289 210.215 283.144 209.917 283.121 212.198C282.313 211.061 278.389 205.106 277.598 204.839C276.664 206.646 278.565 207.597 278.42 209.739L273.178 201.322C272.63 202.57 273.257 204.195 273.853 205.509Z" fill="#DC908D"/>
<path fill-rule="evenodd" clip-rule="evenodd" d="M273.853 205.506C273.257 204.195 272.63 202.57 273.178 201.322L278.42 209.739C278.568 207.597 276.664 206.646 277.598 204.839C278.389 205.106 282.313 211.061 283.121 212.198C283.144 209.917 281.288 210.215 282.551 208.19L283.374 207.149C281.079 204.034 282.032 203.483 278.284 203.744C274.591 197.027 273.076 198.479 271.507 198.141L269.405 200.09L270.284 199.821C270.937 201.214 272.852 205.069 273.853 205.506Z" fill="#FDDBCC"/>
<path fill-rule="evenodd" clip-rule="evenodd" d="M276.937 212.02L273.853 205.509C272.852 205.069 270.937 201.214 270.284 199.821L269.405 200.09C270.681 202.405 271.791 204.238 272.809 206.717C273.635 208.72 274.985 211.171 276.937 212.02Z" fill="#DC908D"/>
<path fill-rule="evenodd" clip-rule="evenodd" d="M156.033 157.971C156.598 156.791 155.398 156.89 157.332 157.182L155.888 156.722C154.49 158.896 155.346 157.457 156.033 157.971Z" fill="#D3B5A9"/>
<path fill-rule="evenodd" clip-rule="evenodd" d="M201.792 196.757C203.747 196.556 202.55 197.256 203.188 195.713L201.792 196.757Z" fill="#D07F5D"/>
<path fill-rule="evenodd" clip-rule="evenodd" d="M151.026 512.704L150.226 511.311L149.695 511.811C150.887 512.432 150.027 511.442 151.026 512.704Z" fill="#8D7692"/>
<path fill-rule="evenodd" clip-rule="evenodd" d="M215.841 188.414L215.478 186.93L215.841 188.414Z" fill="#9D615C"/>
<path fill-rule="evenodd" clip-rule="evenodd" d="M434.757 337.947L435.934 338.132C425.219 343.159 421.058 341.669 415.54 343.34C416.107 340.362 415.015 341.8 413.492 343.065C411.253 344.586 412.584 352.674 412.697 355.599C412.822 358.853 412.689 363.786 414.589 366.475L424.879 373.417L426.374 370.138C427.523 371.746 428.008 372.66 428.649 374.331C430.07 378.053 428.768 378.972 430.136 380.303L447.977 425.869C451.041 430.513 451.844 443.571 452 449.387L452.82 452.34C453.884 452.479 460.803 456.786 464.567 457.895C468.142 458.947 476.854 459.594 479.214 460.746C476.043 462.894 465.356 464.763 461.206 465.302L463.223 491.87L463.58 497.578L464.854 509.881L465.22 516.02L465.367 518.531C470.48 519.969 488.196 518.174 491.875 521.394C491.898 521.317 492.261 520.012 492.284 519.964C492.931 518.557 492.293 519.618 493.149 518.489L495.515 507.913L497.09 500.097L499.303 482.04L496.8 458.281C495.277 456.686 479.697 434.286 479.558 433.333C483.501 430.913 481.512 435.693 484.122 429.18C484.868 427.322 485.631 424.275 486.783 422.961L485.237 411.801C484.97 407.96 483.39 399.684 484.037 396.447L481.929 373.67L480.403 341.38L479.969 340.444C476.233 338.827 464.252 339.953 460.76 337.4C458.369 338.532 446.3 339.284 446.576 335.93L434.757 337.947Z" fill="#315679"/>
<path fill-rule="evenodd" clip-rule="evenodd" d="M405.403 456.17C404.89 453.716 405.775 454.584 406.272 453.055C406.964 450.919 406.053 452.258 405.182 450.323C414.737 451.691 413.242 451.101 420.882 449.305C418.731 452.987 409.716 456.445 405.403 456.17ZM381.281 331.771L380.285 334.713C380.915 339.772 379.727 349.894 379.962 356.081C380.212 362.518 380.714 369.213 381.65 375.582C382.972 384.555 388.544 404.215 388.785 410.7C391.823 414.428 391.25 427.097 391.815 431.889L393.193 436.315L400.079 445.821L404.615 454.834C404.708 457.024 405.052 459.274 404.476 461.288L405.767 470.871L406.646 479.01L408.558 513.998L426.232 516.56C428.564 495.121 430.502 469.785 425.597 448.337C424.794 444.822 423.5 442.607 422.116 439.449C420.797 436.437 422.204 432.113 422.116 428.422C421.863 417.852 416.692 375.284 409.843 367.114C406.501 363.125 401.074 357.758 398.595 353.516L413.704 365.746C411.781 363.122 411.872 347.723 411.744 343.618C409.982 342.699 401.625 342.328 397.403 340.691C395.349 339.896 386.759 335.655 387.834 334.021L382.643 331.496L383.287 325.59L383.139 324.699L381.281 331.771Z" fill="#315679"/>
<path fill-rule="evenodd" clip-rule="evenodd" d="M474.377 261.146L478.372 282.999C483.382 282.157 495.81 283.737 498.202 288.781L484.082 287.655L476.363 289.989L450.896 329.278L446.576 335.93C446.3 339.284 458.369 338.532 460.76 337.4L463.379 335.604C464.315 334.16 476.105 325.014 477.85 324.234C483.986 317.176 493.969 307.263 502.094 301.757C506.542 295.987 504.979 292.679 506.04 283.893C505.507 277.527 506.029 264.834 506.715 258.905L506.732 258.536L506.159 255.595C501.175 256.034 496.48 252.389 489.305 253.251C486.551 253.583 484.292 255.473 482.428 257.197C478.434 260.894 479.657 259.402 474.162 259.175L474.377 261.146Z" fill="#FDDBCC"/>
<path fill-rule="evenodd" clip-rule="evenodd" d="M450.896 329.278L476.363 289.989L477.58 287.791C478.519 285.501 478.579 286.525 478.372 282.999L474.378 261.146L474.017 254.763C481.388 250.701 486.19 251.473 493.833 251.404C510.035 254.497 503.439 256.281 507.345 254.44C505.184 252.732 511.794 249.43 494.67 248.36C483.793 247.68 481.047 249.765 471.56 251.368L478.959 219.974C474.993 222.703 464.545 242.701 461.938 248.029C456.252 259.643 464.741 272.588 465.552 285.033C466.219 295.238 440.181 312.543 427.532 317.944C424.958 319.042 410.513 322.835 410.363 322.96C411.5 325.431 422.777 328.776 425.994 329.61C435.381 332.041 447.52 328.54 450.896 329.278Z" fill="#23456D"/>
<path fill-rule="evenodd" clip-rule="evenodd" d="M408.558 513.998L408.118 514.596L431.829 517.947L428.065 515.95C429.764 500.278 431.163 485.683 429.88 469.77C428.848 456.93 429.211 449.807 423.838 439.242C422.136 435.892 423.985 433.427 424.371 429.69L433.937 439.12C433.148 433.744 431.636 431.078 432.229 425.546C432.782 420.36 432.754 414.913 432.57 409.699C432.215 399.662 430.771 390.138 430.136 380.303C428.768 378.972 430.382 377.959 428.961 374.24C428.323 372.566 427.54 370.864 426.391 369.256L424.397 372.183L414.967 365.993L413.489 365.051L398.595 353.516C401.074 357.758 404.972 363.582 408.314 367.57C415.162 375.744 420.184 418.311 420.436 428.879C420.524 432.57 419.982 437.251 421.301 440.264C422.686 443.421 424.053 446.303 424.856 449.815C429.764 471.262 428.564 495.121 426.232 516.559L408.558 513.998Z" fill="#1F3953"/>
<path fill-rule="evenodd" clip-rule="evenodd" d="M408.337 514.296C407.134 515.748 405.642 519.351 407.65 520.588C415.347 519.782 424.383 519.507 431.503 522.191L432.553 520.71L433.662 511.152L435.197 497.291C434.601 491.101 436.55 477.756 436.59 470.255C436.644 460.74 435.628 452.482 434.669 443.112L433.937 439.12L424.371 429.69C423.543 432.984 421.438 435.963 423.143 439.313C428.516 449.875 428.431 458.255 429.463 471.095C430.337 486.448 429.39 500.565 428.065 515.95L429.946 516.948L408.337 514.296Z" fill="#315679"/>
<path fill-rule="evenodd" clip-rule="evenodd" d="M421.491 192.763C429.446 205.966 455.103 200.073 459.761 187.1C456.102 182.572 454.195 181.154 454.255 172.479C452.417 167.403 450.002 164.155 447.483 159.701C446.385 167.662 449.523 175.636 442.726 184.005C439.163 188.391 431.25 189.001 424.987 190.127C424.309 191.228 422.933 192.672 421.491 192.763Z" fill="#FDDBCC"/>
<path fill-rule="evenodd" clip-rule="evenodd" d="M372.339 245.901L376.961 275.008C381.114 275.379 390.098 271.578 393.298 271.873L391.599 259.651C384.853 255.339 372.061 245.739 372.339 245.901Z" fill="#DC908D"/>
<path fill-rule="evenodd" clip-rule="evenodd" d="M422.212 193.69L421.492 192.763C411.687 193.861 392.711 204.468 386.915 212.357C382.305 218.635 368.192 238.406 371.397 245.47C376.073 243.351 379.409 249.983 383.375 252.119C387.083 246.349 392.257 229.923 396.606 225.26C396.166 229.069 393.313 236.834 392.215 241.177C390.856 246.559 392.243 253.816 390.802 258.851C390.802 266.034 386.915 311.519 386.739 318.194C388.805 319.028 398.376 324.464 397.985 327.649C393.574 329.908 389.199 323.411 386.39 321.13L383.287 325.59L382.643 331.496L387.834 334.021C395.962 335.485 399.642 340.679 422.224 339.017C426.774 339.389 431.353 339.085 435.934 338.132L446.576 335.93L451.495 328.353C448.119 327.615 440.431 331.635 431.043 329.204C427.829 328.373 416.55 325.028 415.412 322.557C415.562 322.429 430.008 318.639 432.581 317.539C445.231 312.137 467.234 294.962 466.567 284.758C465.756 272.31 456.252 259.643 461.938 248.029C464.545 242.701 474.993 222.703 478.959 219.974L471.56 251.368C481.047 249.765 480.596 249.436 491.563 248.233C508.687 249.302 504.741 250.641 506.903 252.349C511.283 244.721 505.498 216.051 501.47 207.563C497.368 198.916 469.296 190.079 459.762 187.1C455.103 200.073 430.124 205.058 422.212 193.69Z" fill="#456C91"/>
<path fill-rule="evenodd" clip-rule="evenodd" d="M450.825 158.149L448.076 170.257C447.342 170.311 448.224 164.32 447.064 170.459C446.167 175.216 447.688 173.009 449.906 174.856C447.106 177.866 445.1 176.921 441.222 176.587C438.905 179.239 435.841 184.036 432.885 179.466C432.712 182.05 434.116 182.819 431.177 183.001C429.046 183.134 427.426 182.745 426.218 181.063L426.712 183.928L424.998 184.121L423.546 188.382L424.15 189.543C434.709 197.256 442.193 190.283 447.447 185.548C453.793 178.555 453.532 173.128 455.847 165.432L453.889 156.45C452.108 157.063 451.901 156.87 450.825 158.149Z" fill="#DC908D"/>
<path fill-rule="evenodd" clip-rule="evenodd" d="M471.14 523.691L465.699 525.408L465.515 529.567C470.329 530.18 472.261 531.669 474.341 535.899C477.192 537.385 485.036 535.269 488.443 535.592C488.67 533.598 488.531 531.311 489.878 530.148L489.799 525.899L489.121 525.632C486.511 526.231 479.592 521.297 471.14 523.691Z" fill="#FDDBCC"/>
<path fill-rule="evenodd" clip-rule="evenodd" d="M407.199 523.663L406.731 528.784C408.121 532.843 411.199 533.78 412.425 538.358C415.676 540.131 424.592 535.311 428.383 535.825L429.276 524.001C425.571 523.91 421.985 522.937 417.929 522.891C414.394 522.855 410.697 523.186 407.199 523.663Z" fill="#FDDBCC"/>
<path fill-rule="evenodd" clip-rule="evenodd" d="M413.489 365.051L414.967 365.993C413.063 363.301 413.279 357.766 413.154 354.509C413.043 351.587 411.253 344.586 413.491 343.065C415.282 343.993 414.03 342.81 414.022 349.27C414.019 351.695 414.215 354.262 414.354 356.682C414.604 361.02 414.768 364.992 418.428 367.658C415.761 362.407 417.021 363.715 416.26 357.074C416.147 353.065 415.968 347.389 416.873 343.695C422.394 342.027 425.219 343.159 435.934 338.132L434.757 337.947C431.634 337.752 425.744 338.759 422.223 339.017C399.642 340.679 395.962 335.485 387.834 334.021C386.759 335.655 395.349 340.773 397.403 341.567C401.625 343.204 408.376 343.275 410.067 343.706C410.192 347.814 411.565 362.424 413.489 365.051Z" fill="#1F3953"/>
<path fill-rule="evenodd" clip-rule="evenodd" d="M496.8 458.281L489.308 435.435L488.806 433.307L486.783 422.961C485.631 424.275 484.868 427.321 484.122 429.18C481.512 435.693 483.501 430.913 479.558 433.333C479.697 434.286 495.277 456.686 496.8 458.281Z" fill="#1F3953"/>
<path fill-rule="evenodd" clip-rule="evenodd" d="M371.031 244.238C371.712 246.145 383.327 255.674 390.802 260.449C392.243 255.413 390.856 246.559 392.215 241.177C393.313 236.834 396.164 229.069 396.606 225.259C392.257 229.923 387.083 246.349 383.375 252.119C381.037 248.942 375.707 242.122 371.031 244.238Z" fill="#23456D"/>
<path fill-rule="evenodd" clip-rule="evenodd" d="M474.377 261.146L474.162 259.178C479.657 259.402 478.434 260.894 482.429 257.197C484.292 255.473 486.551 253.583 489.305 253.251C496.48 252.389 501.172 256.034 506.159 255.595L506.732 258.536C505.952 253.237 506.968 253.424 501.169 252.318C492.59 250.681 481.387 250.701 474.017 254.763L474.377 261.146Z" fill="#DC908D"/>
<path fill-rule="evenodd" clip-rule="evenodd" d="M461.205 465.302C465.356 464.763 477.989 462.894 481.16 460.746C478.8 459.594 468.349 457.206 464.772 456.156C461.007 455.047 453.883 452.479 452.82 452.34C454.264 454.871 457.256 455.191 457.906 457.997C458.828 461.989 457.356 462.136 461.205 465.302Z" fill="#1F3953"/>
<path fill-rule="evenodd" clip-rule="evenodd" d="M465.699 525.408L471.14 523.692C474.536 523.479 476.471 523.34 481.262 524.787C483.702 525.524 487.192 525.916 489.121 525.632L489.799 525.899L490.959 525.904C493.328 524.673 493.053 523.379 493.038 520.829L493.149 518.489C492.292 519.618 492.931 518.557 492.284 519.964C492.261 520.012 491.898 521.317 491.875 521.394C488.196 518.177 470.479 519.97 465.367 518.531C462.34 520.131 462.933 523.55 465.699 525.408Z" fill="#476D91"/>
<path fill-rule="evenodd" clip-rule="evenodd" d="M463.379 335.604L478.948 337.238C476.045 332.101 480.105 328.291 477.85 324.234C476.105 325.014 464.315 334.16 463.379 335.604Z" fill="#58799A"/>
<path fill-rule="evenodd" clip-rule="evenodd" d="M383.139 324.699L383.287 325.59L386.391 321.13C389.199 323.411 393.574 329.908 397.985 327.649C398.376 324.464 389.015 315.116 386.947 314.282C386.779 317.15 385.63 317.309 384.751 319.882C383.968 322.163 382.964 321.862 383.139 324.699Z" fill="#23456D"/>
<path fill-rule="evenodd" clip-rule="evenodd" d="M407.65 520.588L407.199 523.663C410.697 523.187 414.394 522.855 417.928 522.891C421.985 522.937 425.571 523.91 429.276 524.001L430.192 522.894L431.503 522.191C424.382 519.507 415.347 519.782 407.65 520.588Z" fill="#DC908D"/>
<path fill-rule="evenodd" clip-rule="evenodd" d="M499.112 289.388C496.264 283.053 483.382 282.157 478.372 282.999L477.58 287.791C486.034 287.955 491.189 288.117 499.112 289.388Z" fill="#DC908D"/>
<path fill-rule="evenodd" clip-rule="evenodd" d="M464.525 368.322C461.566 365.678 455.31 361.817 451.77 359.114C447.239 355.653 444.102 352.226 440.127 348.742C443.829 357.704 454.715 366.288 464.525 368.322Z" fill="#1F3953"/>
<path fill-rule="evenodd" clip-rule="evenodd" d="M460.76 337.4C464.252 339.953 476.241 339.159 479.975 340.773C479.89 338.379 480.621 338.779 478.948 337.238L463.379 335.604L460.76 337.4Z" fill="#1F3953"/>
<path fill-rule="evenodd" clip-rule="evenodd" d="M405.403 456.17C409.716 456.445 419.364 452.598 421.514 448.916C413.877 450.712 414.419 451.373 404.864 450.006C405.735 451.94 406.964 450.919 406.271 453.055C405.775 454.584 404.89 453.716 405.403 456.17Z" fill="#1F3953"/>
<path fill-rule="evenodd" clip-rule="evenodd" d="M413.821 534.157L415.94 535.226L428.411 536.875L428.382 535.825C424.592 535.312 417.943 534.597 414.692 532.824L413.821 534.157Z" fill="#DC908D"/>
<path fill-rule="evenodd" clip-rule="evenodd" d="M476.434 537.116L488.309 536.829L488.443 535.592C485.035 535.269 477.881 535.062 475.03 533.575L474.542 534.693L476.434 537.116Z" fill="#DC908D"/>
<path fill-rule="evenodd" clip-rule="evenodd" d="M447.415 546.14C450.309 545.377 454.882 542.841 456.956 540.801C455.103 540.795 453.387 541.905 451.501 542.716C449.262 543.683 447.569 543.746 447.415 546.14Z" fill="#FAF9E9"/>
<path fill-rule="evenodd" clip-rule="evenodd" d="M476.363 289.989L484.083 287.655L477.58 287.791L476.363 289.989Z" fill="#DC908D"/>
<path fill-rule="evenodd" clip-rule="evenodd" d="M440.425 152.498C438.961 152.396 435.137 149.724 433.605 148.842C432.377 148.138 427.109 145.911 430.408 144.351C432.55 143.335 435.903 145.877 437.603 147.21C439.285 148.535 442.082 150.359 440.425 152.498ZM416.048 136.101L415.472 142.322C415.338 143.514 414.669 145.051 414.456 146.249C416.553 150.686 414.099 154.161 413.293 157.071C412.456 160.09 414.045 163.015 415.353 165.891C418.76 165.903 420.78 165.432 423.287 165.372C425.353 165.324 427.083 164.731 429.861 164.697C438.627 164.584 437.688 169.982 443.038 170.189C443.642 169.673 450.814 156.453 450.817 155.988C450.834 148.964 456.227 137.919 459.095 131.695C451.586 133.42 445.518 133.84 437.086 132.671C433.231 132.138 430.734 134.45 427.174 132.87C420.89 130.081 422.649 134.646 416.048 136.101Z" fill="#FDDBCC"/>
<path fill-rule="evenodd" clip-rule="evenodd" d="M456.876 159.517C456.21 157.449 461.441 153.698 463.186 153.639C462.604 154.703 460.95 155.537 459.946 156.359C458.928 157.199 457.725 159.21 456.876 159.517ZM455.163 167.48C459.569 166.357 461.276 165.971 463.952 161.778C467.756 155.823 465.861 155.599 464.403 150.72C457.183 147.049 450.536 165.477 455.163 167.48Z" fill="#FDDBCC"/>
<path fill-rule="evenodd" clip-rule="evenodd" d="M434.405 167.46C432.068 170.833 424.221 172.314 421.236 169.097L419.072 167.403C417.412 172.326 424.504 176.016 428.686 175.818C433.313 175.599 438.871 169.429 434.814 167.228L434.405 167.46Z" fill="#FDDBCC"/>
<path fill-rule="evenodd" clip-rule="evenodd" d="M419.041 167.568L421.233 169.097C423.401 169.713 426.192 169.741 428.363 169.375C430.592 169.001 432.808 167.721 434.405 167.463L434.814 167.228C430.953 166.257 428.601 166.002 423.903 165.679C422.527 165.582 420.47 167.159 419.103 167.236L419.041 167.568Z" fill="#FBF7F5"/>
<path fill-rule="evenodd" clip-rule="evenodd" d="M415.937 144.416C413.35 145.012 414.612 146.932 414.921 148.342C416.482 148.703 417.656 148.181 419.449 147.457C420.555 146.748 420.689 145.65 419.605 144.853C418.533 144.061 417.16 144.268 415.937 144.416Z" fill="#4E3951"/>
<path fill-rule="evenodd" clip-rule="evenodd" d="M421.236 169.097C424.218 172.314 432.071 170.833 434.405 167.463C432.808 167.721 430.592 169.001 428.363 169.378C426.192 169.741 423.401 169.713 421.236 169.097Z" fill="#4E3951"/>
<path fill-rule="evenodd" clip-rule="evenodd" d="M456.876 159.517C457.722 159.21 458.928 157.199 459.946 156.359C460.95 155.537 462.604 154.703 463.186 153.639C461.441 153.698 456.21 157.449 456.876 159.517Z" fill="#DC908D"/>
<path fill-rule="evenodd" clip-rule="evenodd" d="M423.991 152.453C424.939 153.108 424.368 157.704 425.381 158.981C426.397 160.254 427.639 163.154 426.598 162.989L422.646 162.376L420.351 161.256L420.689 158.053L422.652 152.839L423.991 152.453Z" fill="#DC908D"/>
<path fill-rule="evenodd" clip-rule="evenodd" d="M451.435 154.132C448.23 152.331 442.113 155.097 442.113 155.097L436.255 162.728C436.255 162.728 434.947 164.618 436.09 167.134C437.237 169.65 444.627 173.026 444.627 173.026L451.435 154.132Z" fill="#DC908D"/>
<path fill-rule="evenodd" clip-rule="evenodd" d="M418.882 168.419L419.103 167.239C420.47 167.159 422.697 166.825 423.662 166.036C428.351 169.392 430.956 167.177 434.814 168.144C436.278 169.191 431.69 174.913 427.824 171.772C424.388 173.758 420.187 171.29 418.882 168.419ZM416.048 136.101C418.048 135.795 418.212 138.544 421.021 142.836C421.409 140.765 419.999 138.527 422.363 136.226C423.075 138.24 424.184 139.548 428.153 141.735C431.109 138.359 443.951 139.522 451.461 137.797C448.593 144.022 450.834 148.964 450.817 155.988C450.814 156.453 443.642 169.673 443.038 170.189C437.688 169.982 439.2 164.595 430.431 164.708C427.656 164.745 425.208 163.321 423.146 163.369C420.638 163.426 419.055 165.12 415.648 165.108C412.303 166.138 414.311 184.255 416.082 186.567L424.445 190.343C424.862 189.88 433.27 188.72 434.68 188.357C437.523 187.622 438.76 185.96 441.341 184.564C448.984 180.428 449.824 178.127 454.882 171.67L455.163 167.48C450.536 165.477 457.183 147.049 464.403 150.72C466.255 147.99 467.243 145.954 468.479 142.963C470.939 137.023 469.722 135.644 469.018 132.396C469.861 128.376 470.443 125.196 467.895 120.694C465.024 115.618 463.084 116.515 460.011 116.237C457.963 114.847 459.251 111.4 455.271 109.686C453.668 106.103 435.534 106.186 432.539 105.905C444.312 115.102 438.536 110.075 431.324 109.919C423.534 108.52 411.1 116.078 407.86 127.077C405.018 132.938 407.525 137.094 409.809 139.466C411.619 131.426 409.693 137.86 416.524 139.888C416.655 139.928 415.894 136.126 416.048 136.101Z" fill="#334160"/>
<path fill-rule="evenodd" clip-rule="evenodd" d="M426.507 163.233C424.612 161.474 419.194 163.82 420.899 158.476C421.429 156.808 424.615 150.527 423.733 149.139C422.643 149.434 422.451 151.823 422.079 152.907C420.757 156.776 418.184 159.849 419.997 162.274C420.782 163.324 425.163 163.786 426.507 163.233Z" fill="#B87D7B"/>
<path fill-rule="evenodd" clip-rule="evenodd" d="M413.812 155.545C413.812 155.545 416.731 156.144 416.703 156.972C416.672 157.803 416.198 160.986 416.394 163.026C416.587 165.066 416.856 165.418 416.507 165.071C416.161 164.728 415.191 166.22 414.397 163.806C413.548 161.627 413.211 160.325 413.137 157.798L413.812 155.545Z" fill="#DC908D"/>
<path fill-rule="evenodd" clip-rule="evenodd" d="M417.645 150.966C416.825 151.65 416.924 152.166 417.353 153.046C419.588 154.47 420.127 150.805 417.645 150.966Z" fill="#171D37"/>
<path fill-rule="evenodd" clip-rule="evenodd" d="M430.55 154.654C431.628 155.239 432.139 154.915 432.893 154.084C433.463 151.094 429.324 152.076 430.55 154.654Z" fill="#171D37"/>
<path fill-rule="evenodd" clip-rule="evenodd" d="M440.425 152.498C442.082 150.359 439.285 148.535 437.602 147.21C435.903 145.877 432.553 143.335 430.411 144.351C427.109 145.911 432.38 148.138 433.605 148.842C435.137 149.724 438.961 152.396 440.425 152.498Z" fill="#4E3951"/>
<path fill-rule="evenodd" clip-rule="evenodd" d="M433.313 553.374L401.528 552.611L400.178 552.529L376.087 551.368L371.119 552.055C360.711 555.201 375.758 563.397 389.565 563.683C395.5 564.152 417.043 560.852 422.984 561.318C425.602 561.519 429.373 562.143 431.458 560.427C433.219 558.98 434.32 555.383 433.313 553.374Z" fill="#F4F4F4"/>
<path fill-rule="evenodd" clip-rule="evenodd" d="M376.087 551.368C378.969 561.204 404.779 558.656 412.828 537.36C413.409 535.919 414.317 534.253 414.269 532.693L406.779 528.869C403.633 529.703 402.833 534.114 401.08 536.716C399.42 539.181 396.964 541.695 394.41 543.255C390.005 545.939 381.593 548.642 376.087 551.368Z" fill="#2D4D92"/>
<path fill-rule="evenodd" clip-rule="evenodd" d="M414.328 538.77L414.476 539.13C415.991 540.313 417.287 541.592 418.933 542.707C421.775 544.634 422.102 543.862 425.094 544.007C424.028 548.18 422.754 548.063 418.405 547.794C416.757 547.692 409.86 547.286 409.097 546.265C406.694 547.371 406.967 547.178 405.049 549C403.965 550.029 395.137 553.845 394.771 555.34C399.647 557.547 409.089 557.15 416.028 556.795C421.934 556.495 429.835 555.073 433.313 553.374L427.54 533.794C421.656 539.212 421.727 535.833 415.846 533.819C415.313 534.526 414.399 537.658 414.328 538.77Z" fill="#314D92"/>
<path fill-rule="evenodd" clip-rule="evenodd" d="M409.097 546.262C409.86 547.286 416.757 547.692 418.405 547.794C422.754 548.063 424.028 548.18 425.094 544.007C422.102 543.862 421.775 544.634 418.933 542.707C417.287 541.592 415.991 540.313 414.476 539.13C413.497 539.334 412.632 541.805 412.031 542.761C411.321 543.896 410.189 545.649 409.097 546.262Z" fill="white"/>
<path fill-rule="evenodd" clip-rule="evenodd" d="M400.175 552.529L401.528 552.611C401.894 551.119 403.965 550.029 405.049 549C406.967 547.181 406.694 547.371 409.097 546.265C410.189 545.649 411.321 543.896 412.031 542.761C412.632 541.805 413.497 539.334 414.476 539.13L414.328 538.77C413.517 538.259 413.855 538.863 413.625 537.326L412.828 537.36C410.428 543.712 405.242 548.81 400.175 552.529Z" fill="#233B58"/>
<path fill-rule="evenodd" clip-rule="evenodd" d="M494.352 554.506L460.828 553.7L459.404 553.612L434 552.39L428.76 553.116C417.784 556.432 433.651 565.076 448.212 565.38C454.474 565.871 477.194 562.396 483.461 562.884C486.221 563.096 490.199 563.754 492.4 561.944C494.256 560.418 495.416 556.622 494.352 554.506Z" fill="#F4F4F4"/>
<path fill-rule="evenodd" clip-rule="evenodd" d="M434 552.39C437.038 562.761 464.258 560.078 472.749 537.615C473.362 536.097 474.318 534.338 474.27 532.696L466.369 528.659C463.052 529.541 462.21 534.194 460.357 536.937C458.607 539.539 456.017 542.188 453.322 543.831C448.678 546.665 439.804 549.516 434 552.39Z" fill="#2D4D92"/>
<path fill-rule="evenodd" clip-rule="evenodd" d="M474.332 539.104L474.485 539.482C476.082 540.73 477.453 542.08 479.186 543.255C482.187 545.286 482.528 544.475 485.685 544.625C484.562 549.025 483.217 548.903 478.633 548.619C476.891 548.512 469.62 548.086 468.811 547.005C466.281 548.174 466.564 547.973 464.545 549.89C463.401 550.977 454.091 555.003 453.702 556.577C458.845 558.909 468.806 558.486 476.125 558.115C482.355 557.797 490.687 556.299 494.352 554.506L488.264 533.853C482.06 539.57 482.133 536.007 475.932 533.882C475.367 534.628 474.406 537.93 474.332 539.104Z" fill="#314D92"/>
<path fill-rule="evenodd" clip-rule="evenodd" d="M468.811 547.005C469.62 548.083 476.891 548.512 478.633 548.62C483.217 548.903 484.562 549.025 485.685 544.625C482.528 544.475 482.187 545.286 479.186 543.255C477.453 542.08 476.082 540.73 474.488 539.482C473.455 539.7 472.542 542.305 471.909 543.314C471.16 544.512 469.966 546.358 468.811 547.005Z" fill="white"/>
<path fill-rule="evenodd" clip-rule="evenodd" d="M459.404 553.612L460.828 553.7C461.217 552.126 463.401 550.977 464.545 549.89C466.564 547.973 466.281 548.174 468.811 547.005C469.966 546.358 471.16 544.512 471.909 543.314C472.542 542.305 473.455 539.7 474.485 539.482L474.332 539.104C473.475 538.563 473.83 539.201 473.589 537.578L472.749 537.615C470.216 544.316 464.746 549.689 459.404 553.612Z" fill="#233B58"/>
<path fill-rule="evenodd" clip-rule="evenodd" d="M472.749 537.618L473.589 537.578C473.83 539.201 473.472 538.563 474.332 539.104C474.406 537.93 475.367 534.628 475.932 533.882L474.27 532.696C474.318 534.338 473.362 536.097 472.749 537.618Z" fill="#243A6D"/>
</svg>
