<svg width="581" height="581" viewBox="0 0 581 581" fill="none" xmlns="http://www.w3.org/2000/svg">
<g clip-path="url(#clip0_374_1765)">
<path fill-rule="evenodd" clip-rule="evenodd" d="M368.605 292.17L370.025 292.395C357.096 298.461 352.073 296.664 345.414 298.679C346.097 295.085 344.779 296.822 342.942 298.347C340.24 300.183 341.847 309.945 341.982 313.472C342.132 317.401 341.972 323.352 344.268 326.6L356.683 334.976L358.488 331.019C359.874 332.96 360.461 334.062 361.233 336.081C362.95 340.57 361.378 341.681 363.029 343.286L384.56 398.276C388.255 403.879 389.226 419.639 389.412 426.656L390.401 430.222C391.685 430.387 400.035 435.587 404.58 436.925C408.895 438.195 419.407 438.976 422.256 440.366C418.429 442.955 405.533 445.212 400.523 445.862L402.956 477.925L403.389 484.813L404.926 499.661L405.368 507.071L405.545 510.098C411.715 511.835 433.093 509.669 437.534 513.554C437.563 513.46 438.001 511.887 438.028 511.828C438.809 510.129 438.039 511.411 439.071 510.048L441.926 497.284L443.826 487.855L446.498 466.062L443.479 437.388C441.639 435.464 422.839 408.434 422.671 407.284C427.428 404.364 425.03 410.13 428.179 402.27C429.077 400.028 429.999 396.351 431.39 394.765L429.524 381.297C429.202 376.662 427.295 366.675 428.076 362.77L425.532 335.282L423.689 296.314L423.165 295.184C418.659 293.233 404.2 294.594 399.985 291.512C397.098 292.879 382.534 293.786 382.869 289.738L368.605 292.17Z" fill="#315679"/>
<path fill-rule="evenodd" clip-rule="evenodd" d="M434.556 389.3C434.821 386.623 437.132 381.701 438.194 379C440.058 374.26 439.35 371.492 444.308 370.785C452.728 369.584 457.055 366.705 463.511 361.726C465.593 364.09 468.609 372.92 472.777 377.845C476.644 382.416 482.619 386.874 485.832 390.662L480.092 414.335C472.691 407.737 462.087 376.89 454.5 376.3C451.623 377.01 450.328 385.483 450.609 386.74L434.556 389.3ZM521.338 275.854C516.074 283.126 509.627 285.487 507.387 297.359C505.443 307.662 509.026 320.076 507.377 330.553C501.535 326.252 497.104 304.944 488.618 304.196C482.808 308.653 483.766 328.283 486.215 335.293C490.48 347.495 495.228 350.18 490.933 364.426C482.621 361.24 475.842 333.59 465.432 333.268C459.113 337.429 461.982 346.517 461.2 352.576L444.279 361.508C444.971 359.171 450.753 348.549 451.958 347.599C459.592 341.583 457.287 346.629 460.185 334.492C462.176 326.156 460.803 306.888 452.82 303.077C447.31 305.646 443.128 317.051 441.36 322.803C437.081 336.719 441.205 336.938 444.336 347.114L436.976 360.454L425.532 335.282L428.076 362.77C428.744 361.771 427.989 362.233 429.138 364.33C431.19 368.078 432.047 367.649 434.411 370.475C434.018 372.872 431.026 379.656 429.524 381.297L431.39 394.765L433.829 407.253C437.898 409.96 447.401 398.713 450.308 397.238C455.836 415.019 462.718 419.605 475.44 432.191L469.067 453.812L448.227 428.045C450.459 424.506 457.948 418.901 456.686 414.437L440.836 418.661L434.436 409.819L443.479 437.388L446.498 466.062C449.724 467.663 455.41 475.515 458.139 478.617C465.603 487.102 461.977 483.429 459.817 495.34L479.121 463.15L479.85 463.334L484.544 481.95C489.582 478.139 492.984 476.164 491.363 469.78C490.174 465.094 489.495 456.339 486.618 453.292L480.971 460.676L488.457 431.035C490.276 432.147 491.857 433.147 493.865 433.979C496.169 434.933 498.364 434.793 498.412 436.883C499.488 435.645 500.95 430.286 502.086 428.003C505.322 421.499 505.72 423.995 509.141 424.228L534.835 384.263L535.021 426.846L534.772 437.919L538.98 437.915L535.62 436.553C536.209 425.714 533.412 408.396 538.06 399.263C540.835 393.811 549.349 372.38 541.433 369.669C537.575 373.217 533.399 375.674 528.643 380.364C520.603 388.292 501.172 407.689 492.262 411.346L499.098 383.344C517.882 379.167 535.057 362.374 534.726 342.451C533.182 336.882 530.115 341.786 527.935 343.139C526.414 345.942 516.94 354.13 513.835 356.659C508.659 360.877 505.039 367.439 500.943 370.952C501.196 367.162 503.585 356.048 504.692 352.24C505.435 349.685 508.041 348.481 509.845 346.134C511.414 344.094 512.768 340.663 514.311 339.237C514.223 333.753 515.584 327.773 515.287 320.533C515.048 314.722 518.176 312.378 520.894 307.266C525.648 298.322 526.942 284.588 524.437 274.247L521.338 275.854Z" fill="#C3CDA1"/>
<path fill-rule="evenodd" clip-rule="evenodd" d="M164.995 450.018C169.889 457.249 172.715 463.795 172.159 473.106C171.845 478.372 164.757 493.404 167.995 496.068C173.751 496.112 180.326 468.043 182.036 465.591C180.808 463.319 180.686 463.045 180.978 460.34L183.404 460.219L200.415 458.081L183.865 457.564L183.886 456.157L183.743 453.428L193.615 453.07L183.679 452.079L183.703 450.789L194.07 450.426L183.688 449.365L183.74 448.095L193.804 446.956L183.575 445.237L193.8 444.029L183.679 443.807L183.618 442.404L194.153 441.646L184.006 440.053L184.536 438.202L201.35 438.424C203.316 437.036 203 437.67 203.161 434.891L201.324 434.997C202.451 437.893 197.897 436.468 193.872 436.58C190.621 436.67 187.381 436.82 184.362 436.297L194.093 434.869L183.89 434.607L175.391 449.286L174.535 449.023L168.415 421.151L183.608 415.075L183.901 409.943L183.61 407.74L194.343 406.919L183.634 406.007L183.662 404.685L194.188 403.365L183.697 403.267L183.683 401.948L194.085 400.924L183.602 399.48L194.268 398.279L183.793 397.967L183.917 395.42L201.007 393.849L183.589 393.46L183.604 392.053L183.937 389.923L194.002 389.189C190.584 387.656 185.633 390.407 184.2 387.043L194.424 385.749L183.615 385.288C178.683 390.384 173.835 405.151 165.366 408.54L158.356 378.916C174.273 375.021 174.573 369.518 183.303 358.211L194.338 356.039L183.626 354.426L194.218 353.645L183.593 352.2L200.229 351.426L183.954 350.673L184.046 345.779L194.51 345.099L183.464 343.41L194.389 342.065L183.352 340.581L194.302 339.423L183.483 337.901L194.125 336.642L183.662 335.238L194.052 334.828L183.696 332.913L183.573 331.901C178.569 332.732 161.858 362.529 155.42 368.821L149.809 344.929C158.069 339.883 163.759 336.233 168.09 326.872C171.179 320.194 173.074 302.76 167.147 298.205C161.398 303.076 153.796 324.634 143.404 325.775L138.122 304.619C144.595 299.966 149.519 295.036 152.178 287.204C154.143 281.417 154.818 265.015 149.929 261.126C146.073 264.321 135.478 287.163 133.947 292.815C131.968 289.702 129.747 275.395 131.508 272.549C136.046 265.214 136.097 262.513 132.327 254.385C129.1 247.426 111.782 231.412 104.959 232.877C102.11 239.91 105.296 253.627 108.237 260.654C115.971 279.128 121.619 274.699 123.119 278.248L126.664 298.198C125.688 297.785 104.914 281.677 96.9961 281.851C97.521 286.093 106.049 296.707 109.336 299.364C117.491 305.958 119.628 307.073 130.445 308.307L135.029 328.749C117.304 330.974 107.341 316.827 100.583 318.176C97.605 325.075 110.608 336.128 114.569 340.491C124.31 351.223 133.234 346.519 141.91 350.784L145.499 367.983L105.994 352.003C100.927 358.05 113.801 373.27 118.583 376.873C128.363 384.241 138.428 383.029 149.961 381.269L156.447 409.056C147.755 405.761 120.811 384.826 116.259 387.968C111.032 395.027 123.723 410.656 128.887 414.687C135.653 419.969 151.97 422.77 160.388 423.001C161.649 427.924 168.124 447.564 164.995 450.018Z" fill="#C2CD9F"/>
<path fill-rule="evenodd" clip-rule="evenodd" d="M333.179 434.841C332.56 431.88 333.63 432.927 334.228 431.084C335.063 428.505 333.966 430.122 332.913 427.787C344.444 429.438 342.64 428.723 351.859 426.557C349.264 431 338.385 435.173 333.179 434.841ZM304.07 284.72L302.87 288.268C303.628 294.372 302.193 306.589 302.48 314.057C302.779 321.823 303.386 329.902 304.517 337.588C306.111 348.418 312.835 372.142 313.127 379.969C316.791 384.468 316.099 399.757 316.783 405.539L318.445 410.881L326.755 422.354L332.228 433.229C332.342 435.874 332.756 438.587 332.062 441.018L333.618 452.583L334.679 462.404L336.988 504.629L358.316 507.72C361.132 481.849 363.47 451.272 357.55 425.389C356.581 421.149 355.021 418.474 353.351 414.664C351.758 411.029 353.455 405.81 353.349 401.355C353.046 388.601 346.803 337.23 338.539 327.368C334.505 322.555 327.955 316.08 324.965 310.96L343.198 325.721C340.876 322.551 340.987 303.971 340.834 299.016C338.706 297.908 328.621 297.458 323.525 295.484C321.048 294.525 310.682 289.404 311.977 287.432L305.713 284.387L306.49 277.258L306.313 276.184L304.07 284.72Z" fill="#315679"/>
<path fill-rule="evenodd" clip-rule="evenodd" d="M498.412 436.882L486.618 453.292C489.495 456.339 490.174 465.094 491.363 469.78C492.984 476.164 489.582 478.139 484.544 481.95L479.85 463.334L479.121 463.15L459.817 495.34L458.476 500.571C455.335 510.569 454.377 520.013 455.908 530.638C458.034 545.397 461.001 544.267 465.836 554.78L469.871 554.788L473.254 542.142C470.03 538.934 465.814 532.401 464.844 527.967C467.475 530.823 472.232 538.534 475.024 539.918C477.079 532.286 492.977 509.978 497.935 490.162C498.007 490.306 498.06 490.387 498.072 490.625L498.269 491.549C498.582 496.809 487.96 518.913 485.96 522.993C480.509 534.109 474.687 542.311 471.259 554.758L501.527 554.797L518.967 539.694L501.53 546.181C502.639 543.846 508.383 537.946 510.496 535.052C517.66 525.236 527.209 503.356 527.918 491.811L532.627 460.674L531.246 459.532C529.347 461.327 520.348 466.372 517.585 467.22C521.894 461.623 536.269 449.274 537.788 442.441L538.137 443.512L538.98 437.915L534.772 437.919L535.021 426.846C529.763 428.491 523.805 429.326 519.855 433.338C514.826 438.445 515.83 444.691 512.521 448.149L509.141 424.228C505.72 423.995 505.322 421.499 502.086 428.003C500.95 430.286 499.488 435.645 498.412 436.882Z" fill="#B1C291"/>
<path fill-rule="evenodd" clip-rule="evenodd" d="M147.341 436.037L146.359 450.164L144.944 467.722C142.919 466.716 142.946 465.344 139.962 464.46C137.673 470.534 142.636 478.292 143.779 484.122L149.035 494.206L151.089 496.604C151.531 496.856 158.082 503.739 158.629 504.499C154.737 504.625 149.599 500.967 146.505 498.752L138.842 492.204C137.668 493.2 136.954 497.324 136.486 498.972L133.223 492.297C127.724 491.997 130.085 493.521 123.82 490.434C121.789 489.434 118.107 486.834 116.077 486.563L114.427 491.63L111.488 498.343L129.886 503.844L129.677 504.62C118.763 509.29 96.4342 499.986 87.8893 491.802L91.7681 482.715C79.5813 465.738 71.962 478.123 63.3312 473.103L55.0414 473.051C58.3426 479.21 63.6067 486.071 67.8287 491.779C70.1043 494.855 72.4715 497.915 74.7642 500.869C78.7376 505.988 77.3927 507.048 83.9755 506.926L96.8393 505.539L99.1741 513.402L87.1504 514.837C94.0647 521.713 101.746 523.12 111.264 523.458C113.902 519.164 109.63 519.508 117.928 514.888C129.805 508.274 143.8 511.551 149.288 523.338L152.978 523.733L153.738 522.229C155.585 524.922 159.582 528.48 160.139 530.892C156.497 530.209 151.185 525.821 147.443 523.957L131.596 513.238L131.241 513.792L137.378 526.456C138.555 527.91 140.829 534.594 142.35 537.21C144.386 540.71 147.294 543.575 149.726 546.461C159.099 557.585 160.492 553.704 175.027 554.171L191.725 536.209C199.914 535.839 225.968 534.187 229.487 530.167L225.619 530.061L179.803 530.551L183.607 513.387L183.763 510.931L183.718 508.272L183.817 505.911L183.813 504.666L193.879 504.116L183.817 503.433L183.883 502.01L200.929 501.81L183.813 500.812L183.734 497.966L183.709 495.377L183.718 492.551L183.788 489.668L183.773 486.981L183.92 484.382C183.983 480.849 191.303 482.608 193.959 482.539L183.979 481.775L183.929 479.834L183.817 477.193L183.856 474.632C184.073 470.083 190.083 473.28 193.979 472.105C190.077 471.033 183.644 473.195 183.576 469.405L194.02 469.152L182.549 467.097L182.036 465.591C180.326 468.043 173.751 496.112 167.995 496.067C164.757 493.404 171.845 478.372 172.159 473.106C172.715 463.795 169.889 457.249 164.995 450.018L147.987 429.229L147.341 436.037Z" fill="#9EB47C"/>
<path fill-rule="evenodd" clip-rule="evenodd" d="M243.385 460.244L238.22 472.944C228.708 470.309 231.222 443.616 226.518 437.783L226.256 456.125L225.633 462.397L215.491 462.998L225.897 463.334L225.835 468.351L215.599 469.068L225.901 469.641L226.039 502.726L223.274 503.031L225.933 504.686V505.317L225.963 521.166C227.127 518.665 226.522 514.244 230.804 513.054C232.829 515.625 232.343 519.124 232.173 522.336C232.068 524.307 231.79 531.084 231.522 532.374L234.626 554.058L258.968 553.832C258.74 550.597 257.694 539.852 256.091 538.503C252.116 541.581 244.797 547.904 239.933 548.848C241.317 546.286 256.212 536.099 261.319 530.585C263.303 528.443 265.067 525.528 267.537 523.787L267.071 506.653L272.969 513.791L279.095 496.178L279.311 493.175L280.023 476.359L278.177 465.851L254.844 490.318L249.313 494.498C250.999 477.742 248.847 453.217 257.265 439.803C269.766 419.884 267.488 410.31 267.359 387.538L265.864 383.073C262.751 387.059 248.063 409.884 246.042 414.314C238.344 431.186 244.523 443.815 243.385 460.244Z" fill="#D2DAAB"/>
<path fill-rule="evenodd" clip-rule="evenodd" d="M416.42 199.489L421.238 225.859C427.286 224.844 442.282 226.75 445.17 232.838L428.131 231.478L418.814 234.296L388.082 281.708L382.869 289.738C382.534 293.786 397.099 292.879 399.985 291.512L403.144 289.343C404.275 287.6 418.504 276.564 420.608 275.622C428.015 267.104 440.061 255.142 449.868 248.499C455.235 241.534 453.347 237.542 454.63 226.939C453.985 219.256 454.615 203.941 455.445 196.786L455.464 196.339L454.772 192.788C448.756 193.321 443.092 188.922 434.433 189.962C431.11 190.361 428.385 192.642 426.136 194.722C421.315 199.183 422.789 197.384 416.159 197.111L416.42 199.489Z" fill="#FDDBCC"/>
<path fill-rule="evenodd" clip-rule="evenodd" d="M326.858 505.982C325.448 499.304 324.562 499.269 328.585 494.483C330.901 491.729 333.291 487.78 335.251 485.738L335.665 498.177C334.39 499.857 328.811 505.358 326.858 505.982ZM309.873 445.494L310.83 455.347C294.233 458.761 291.695 452.105 281.128 445.07C283.319 467.968 294.368 466.808 313.59 468.252L315.765 488.741C297.962 488.26 278.769 465.763 278.177 465.851L280.023 476.359C281.707 486.17 301.233 503.403 311.446 504.535L316.416 504.456L316.449 512.094C314.099 512.678 306.867 512.782 305.112 511.753C290.635 510.609 281.184 493.044 279.311 493.175L279.095 496.178C278.404 500.775 278.948 505.916 279.507 510.56C280.19 516.247 281.972 516.16 286.204 519.289C292.943 524.271 296.759 527.342 304.092 531.408C306.688 531.683 308.321 531.996 311.008 531.54C313.004 531.201 315.1 530.064 316.954 530.068L315.833 542.758C328.696 543.247 325.084 526.699 335.032 525.979L335.348 516.294L335.892 512.58C333.467 511.089 335.004 507.1 336.456 505.349L336.988 504.629L334.679 462.404C329.742 466.675 326.557 473.26 322.251 478.314L320.401 465.439L333.618 452.583L332.062 441.018C330.807 441.923 332.473 440.703 329.71 441.537C328.913 441.778 327.893 442.247 327.121 442.563C324.999 443.43 323.262 443.829 321.115 444.548L316.812 446.955L315.36 440.048L309.873 445.494Z" fill="#A9BB84"/>
<path fill-rule="evenodd" clip-rule="evenodd" d="M119.986 471.881L120.24 468.085C124.186 470.251 130.355 480.075 132.663 483.899C134.453 486.865 147.572 494.842 149.035 494.206L143.779 484.122L143.603 485.324L133.069 482.35C133.619 480.376 138.426 464.763 138.546 464.561C139.187 458.617 139.91 453.273 140.463 447.224L146.359 450.164L147.341 436.037L127.444 426.976C122.134 438.138 130.8 438.343 132.148 442.276C131.943 448.026 129.563 464.356 124.97 467.497C118.614 462.955 119.236 457.459 121.627 450.556C117.702 447.939 118.292 448.175 118.811 443.424C119.148 440.343 119.144 436.806 118.702 433.737C118.18 430.117 114.842 422.346 111.834 420.483C111.456 425.017 110.226 441.37 107.164 443.649C102.486 438.947 100.003 424.277 88.0825 415.073C82.8603 411.041 65.7075 397.379 60.6651 395.369C62.1311 405.674 66.7987 420.977 72.0391 429.925C82.0028 446.938 93.2702 445.182 98.2325 449.461C93.3677 453.654 81.1973 448.657 76.8646 451.287C73.0691 458.091 88.8035 464.449 93.7561 465.831C105.486 469.102 111.284 467.704 115.416 468.492C119.38 469.248 116.417 470.256 119.986 471.881Z" fill="#C3CFA2"/>
<path fill-rule="evenodd" clip-rule="evenodd" d="M388.081 281.708L418.814 234.296L420.285 231.644C421.417 228.881 421.49 230.116 421.237 225.859L416.42 199.489L415.984 191.785C424.879 186.883 430.675 187.815 439.896 187.732C459.45 191.465 451.49 193.617 456.204 191.396C453.595 189.336 461.57 185.348 440.906 184.057C427.781 183.237 424.466 185.753 413.02 187.687L421.947 149.801C417.162 153.096 404.551 177.228 401.405 183.657C394.546 197.676 404.788 213.296 405.768 228.317C406.572 240.631 375.149 261.513 359.885 268.032C356.779 269.359 339.346 273.933 339.166 274.086C340.538 277.068 354.148 281.105 358.029 282.11C369.357 285.043 384.008 280.82 388.081 281.708Z" fill="#23456D"/>
<path fill-rule="evenodd" clip-rule="evenodd" d="M309.873 445.494L315.359 440.048L314.225 433.585L326.755 422.354L318.444 410.881C313.106 413.81 313.987 415.749 310.244 419.159C305.124 411.988 315.198 405.843 315.714 397.881C315.726 400.824 315.107 403.177 316.783 405.539C316.099 399.757 316.791 384.468 313.127 379.969C310.138 381.52 294.548 336.067 286.071 337.992C283.469 342.537 287.758 367.645 288.578 374.275C290.534 390.098 292.237 391.282 298.479 405.148L277.541 389.49C279.147 396.123 285.843 405.506 290.933 409.999C299.229 417.322 306.031 414.922 305.831 427.744C289.741 428.982 285.445 417.057 279.545 415.209C279.764 420.077 284.004 429.859 287.668 432.879C294.219 438.278 305.9 437.11 307.939 438.403L309.873 445.494Z" fill="#C2CD9F"/>
<path fill-rule="evenodd" clip-rule="evenodd" d="M385.175 492.304L372.081 551.17L384.504 547.027C384.687 544.137 389.595 544.934 392.296 543.769C394.573 542.787 393.16 536.967 395.394 536.976C398 535.235 400.778 535.398 401.955 532.371C404.764 525.146 402.077 526.798 405.722 523.417L405.944 518.4C402.606 516.155 401.891 512.031 405.545 510.098L405.368 507.071C401.539 508.019 394.703 513.25 390.464 515.166C390.669 513.326 392.88 505.212 393.879 503.961C395.158 502.361 402.573 500.442 404.926 499.661L403.389 484.813L403.029 486.083L398.445 485.6C398.809 482.732 400.399 479.136 402.956 477.925L400.523 445.862C395.876 442.043 397.655 441.863 396.541 437.046C395.758 433.663 392.144 433.274 390.401 430.222L389.412 426.656C389.599 433.363 388.369 439.911 390.44 446.516C393.532 456.38 396.14 450.736 394.08 462.205C387.323 457.331 384.361 436.139 381.668 431.696C377.28 444.122 371.61 458.913 379.865 470.477L382.288 462.735C383.042 468.494 381.536 473.486 385.738 477.994C388.896 481.382 386.909 488.422 385.175 492.304Z" fill="#A6BA82"/>
<path fill-rule="evenodd" clip-rule="evenodd" d="M87.1504 514.837L85.8001 514.969L64.018 512.863C67.7057 521.285 95.6261 552.266 103.854 553.763L144.385 553.657C131.231 552.82 128.098 530.329 137.378 526.456L131.241 513.793L131.596 513.239L147.443 523.957C148.262 523.148 146.401 523.119 149.288 523.338C143.8 511.552 129.805 508.274 117.928 514.888C109.63 519.508 113.902 519.164 111.264 523.458C101.746 523.12 94.0647 521.713 87.1504 514.837Z" fill="#B3C394"/>
<path fill-rule="evenodd" clip-rule="evenodd" d="M175.027 554.171L174.864 554.791L174.066 561.757L235.763 561.601L234.687 554.652L234.626 554.058L231.522 532.374C229.704 529.875 232.379 531.398 229.487 530.168C224.373 530.437 187.642 529.76 179.453 530.13L175.027 554.171Z" fill="#5E6A6F"/>
<path fill-rule="evenodd" clip-rule="evenodd" d="M336.988 504.629L336.456 505.35L365.072 509.396L360.527 506.985C362.581 488.072 364.266 470.457 362.721 451.255C361.474 435.761 361.913 427.162 355.429 414.414C353.372 410.371 355.605 407.397 356.069 402.888L367.615 414.267C366.663 407.78 364.838 404.561 365.553 397.885C366.223 391.626 366.188 385.052 365.965 378.761C365.537 366.647 363.796 355.155 363.029 343.286C361.378 341.681 363.327 340.459 361.611 335.97C360.839 333.951 359.896 331.895 358.51 329.953L356.101 333.488L344.721 326.018L342.939 324.88L324.965 310.96C327.955 316.08 332.661 323.108 336.695 327.921C344.959 337.783 351.018 389.154 351.321 401.909C351.427 406.363 350.774 412.012 352.367 415.647C354.037 419.458 355.688 422.934 356.658 427.174C362.578 453.057 361.132 481.849 358.316 507.72L336.988 504.629Z" fill="#1F3953"/>
<path fill-rule="evenodd" clip-rule="evenodd" d="M254.844 490.318C255.087 489.229 269.427 472.083 271.776 468.594C279.403 457.272 278.107 449.793 278.878 436.678L266.789 449.97C271.415 438.247 280.012 437.008 279.149 419.144C278.894 413.874 270.868 390.795 267.359 387.538C267.487 410.31 269.766 419.884 257.265 439.803C248.847 453.217 250.999 477.742 249.313 494.498L254.844 490.318Z" fill="#E1E7BF"/>
<path fill-rule="evenodd" clip-rule="evenodd" d="M368.498 419.082C369.656 430.391 370.88 440.357 370.818 451.839C370.769 460.893 368.418 476.995 369.136 484.468C369.791 489.133 373.447 486.754 371.337 493.307C370.559 495.724 369.278 499.788 367.283 501.196L365.946 512.727C375.782 511.73 380.131 496.606 385.175 492.304C386.909 488.422 388.896 481.382 385.738 477.993C381.536 473.486 383.042 468.494 382.288 462.735L379.865 470.477C371.61 458.913 377.28 444.121 381.669 431.696C384.361 436.138 387.323 457.331 394.08 462.205C396.14 450.736 393.532 456.38 390.44 446.516C388.37 439.911 389.599 433.363 389.412 426.656C389.226 419.639 388.255 403.879 384.56 398.276L368.498 419.082Z" fill="#D2DAAB"/>
<path fill-rule="evenodd" clip-rule="evenodd" d="M302.87 288.268L304.07 284.72C302.74 274.063 300.889 264.371 300.211 253.421C299.687 244.955 301.364 227.272 296.91 221.542L294.091 220.455L296.705 220.265L305.895 218.245L306.199 193.517C303.253 191.79 299.617 192.243 296.154 191.711C296.121 212.909 282.139 208.875 288.7 240.981C291.207 253.251 294.958 278.91 302.87 288.268Z" fill="#FDDBCC"/>
<path fill-rule="evenodd" clip-rule="evenodd" d="M336.722 504.989C335.27 506.74 333.467 511.089 335.892 512.58C345.179 511.609 356.083 511.277 364.677 514.516L365.946 512.727L367.283 501.196L369.136 484.468C368.418 476.995 370.769 460.893 370.818 451.839C370.88 440.357 369.656 430.391 368.498 419.082L367.615 414.266L356.069 402.888C355.072 406.861 352.531 410.455 354.588 414.498C361.072 427.246 360.969 437.359 362.216 452.853C363.27 471.383 362.127 488.417 360.527 506.985L362.799 508.19L336.722 504.989Z" fill="#315679"/>
<path fill-rule="evenodd" clip-rule="evenodd" d="M119.986 471.881L120.083 473.15L124.672 480.86C118.063 479.054 114.58 482.252 106.617 477.811C93.6178 470.563 97.5337 474.598 90.1947 473.377L63.3312 473.103C71.962 478.123 79.5813 465.738 91.7681 482.714L87.8893 491.802C96.4342 499.986 118.763 509.29 129.677 504.62L129.886 503.844L111.488 498.343L110.028 499.639C105.368 497.443 102.845 498.202 103.49 492.149C106.138 490.556 110.558 490.199 113.821 489.717C115.475 491.168 114.097 489.567 114.427 491.63L116.077 486.563C118.107 486.834 121.789 489.434 123.82 490.434C130.085 493.521 127.724 491.997 133.223 492.297L136.486 498.972C136.954 497.324 137.668 493.2 138.842 492.204L146.505 498.752L151.089 496.604L149.035 494.206C147.572 494.842 134.453 486.865 132.663 483.899C130.355 480.075 124.186 470.251 120.24 468.085L119.986 471.881Z" fill="#B1C291"/>
<path fill-rule="evenodd" clip-rule="evenodd" d="M527.918 491.811C527.208 503.356 517.659 525.236 510.495 535.052C508.383 537.946 502.639 543.846 501.53 546.181L518.967 539.694C524.672 538.693 548.695 498.618 549.103 489.356L527.918 491.811Z" fill="#CBD4A6"/>
<path fill-rule="evenodd" clip-rule="evenodd" d="M441.926 497.284C443.977 495.881 445.932 495.08 448.425 496.134C448.307 500.566 442.88 511.414 438.936 512.874C438.954 515.95 439.287 517.511 436.429 518.996C438.849 520.629 439.782 522.29 442.463 523.976C444.878 525.494 447.357 526.865 449.647 528.395C447.334 536.479 440.844 546.132 439.13 554.738L465.836 554.78C461.001 544.267 458.034 545.397 455.908 530.638C454.377 520.013 455.335 510.569 458.476 500.571C454.438 499.292 443.634 491.759 443.826 487.855L441.926 497.284Z" fill="#C3CFA2"/>
<path fill-rule="evenodd" clip-rule="evenodd" d="M267.537 523.788L267.746 527.767L269.391 538.534C270.421 541.945 272.118 543.963 274.129 546.773C275.051 548.061 276.033 549.274 276.916 550.521C278.172 552.294 279.272 553.038 280.234 554.571L290.654 554.674C302.374 551.34 311.073 548.938 320.842 539.476C317.513 539.519 305.03 539.752 302.472 537.962C290.062 537.052 277.348 524.332 272.969 513.791L267.071 506.653L267.537 523.788Z" fill="#A6BA82"/>
<path fill-rule="evenodd" clip-rule="evenodd" d="M509.141 424.228L512.521 448.149C515.83 444.691 514.826 438.445 519.855 433.338C523.805 429.326 529.763 428.491 535.021 426.846L534.835 384.263L509.141 424.228Z" fill="#A1B47D"/>
<path fill-rule="evenodd" clip-rule="evenodd" d="M353.466 118.084C363.014 131.8 393.16 125.785 398.782 110.129C394.363 104.668 392.149 103.795 389.324 95.9951C387.106 89.8721 387.003 82.4402 383.962 77.0647C382.638 86.6731 386.425 96.2954 378.222 106.394C372.842 113.017 362.111 117.547 353.466 118.084Z" fill="#FDDBCC"/>
<path fill-rule="evenodd" clip-rule="evenodd" d="M367.615 414.267L368.498 419.082L384.56 398.276L363.029 343.286C363.796 355.155 365.537 366.647 365.965 378.761C366.188 385.052 366.223 391.626 365.553 397.885C364.837 404.561 366.663 407.78 367.615 414.267Z" fill="#EDF8FF"/>
<path fill-rule="evenodd" clip-rule="evenodd" d="M295.892 190.916L295.818 191.639C299.282 192.171 302.918 191.718 305.864 193.445L305.56 218.173L296.369 220.193C301.381 220.642 309.562 223.855 314.115 226.092L316.523 197.684C310.918 194.103 305.831 188.956 297.271 188.054L295.892 190.916Z" fill="#DC908D"/>
<path fill-rule="evenodd" clip-rule="evenodd" d="M353.466 118.084L352.597 116.963C340.764 118.287 317.865 131.09 310.87 140.611C305.305 148.187 288.594 178.203 292.464 186.728C298.106 184.172 301.811 186.017 306.598 188.596C311.073 181.632 317.317 161.809 322.566 156.18C322.033 160.777 318.591 170.149 317.266 175.392C315.626 181.886 317.299 190.643 315.56 196.721C315.56 205.388 310.87 260.279 310.656 268.334C313.15 269.339 324.702 275.898 324.227 279.745C318.903 282.471 313.625 274.631 310.236 271.877L306.49 277.258L305.713 284.387L311.977 287.432C321.787 289.202 326.228 295.47 353.478 293.464C358.97 293.911 364.495 293.546 370.025 292.395L382.869 289.738L388.804 280.593C384.731 279.705 375.452 284.555 364.124 281.622C360.243 280.617 346.633 276.581 345.261 273.599C345.441 273.446 362.874 268.871 365.98 267.544C381.244 261.025 407.798 240.296 406.995 227.982C406.014 212.961 394.546 197.676 401.405 183.657C404.551 177.228 417.162 153.096 421.947 149.801L413.02 187.687C424.466 185.753 423.922 185.356 437.158 183.906C457.822 185.197 453.061 186.813 455.67 188.873C460.956 179.668 453.975 145.067 449.113 134.823C444.162 124.39 410.286 113.726 398.782 110.129C393.16 125.785 363.014 131.8 353.466 118.084Z" fill="#456C91"/>
<path fill-rule="evenodd" clip-rule="evenodd" d="M183.615 385.288L183.303 358.211C174.573 369.518 174.273 375.021 158.356 378.916L165.366 408.54C173.836 405.151 178.683 390.384 183.615 385.288Z" fill="#EDF8FF"/>
<path fill-rule="evenodd" clip-rule="evenodd" d="M80.3348 507.774L83.9755 506.926C77.3928 507.048 78.7377 505.988 74.7642 500.869C72.4716 497.915 70.1043 494.855 67.8288 491.779C63.6067 486.071 58.3426 479.21 55.0414 473.051L39.1181 472.954C39.0548 476.624 50.1977 493.248 52.8056 497.275C62.0791 511.595 63.8095 506.448 80.3348 507.774Z" fill="#B4C494"/>
<path fill-rule="evenodd" clip-rule="evenodd" d="M369.971 559.651C369.732 559.913 369.803 561.314 367.873 560.998C365.816 560.661 367.087 560.93 366.501 559.5C364.005 561.603 341.678 561.061 336.501 561.5C324.061 562.555 312.356 554.655 299.501 559.5C296.697 558.964 270.604 559.473 267 559.5C247.447 559.649 122.945 561.758 124.5 563.5C118.231 577.156 499.001 588 480.612 566.127C472.5 559.651 449.175 561.054 438.501 560.998C434.236 560.975 430.43 562.161 425.471 562.167C418.986 562.174 373.248 560.355 369.971 559.651Z" fill="#ADCDE3"/>
<path fill-rule="evenodd" clip-rule="evenodd" d="M226.518 437.783C231.222 443.616 228.708 470.309 238.22 472.944L243.385 460.244L234.188 430.279L226.086 429.504L215.545 430.399C219.597 430.762 223.978 429.409 226.266 432.114L226.522 432.86L226.264 434.965L226.518 437.783Z" fill="#E1E7BF"/>
<path fill-rule="evenodd" clip-rule="evenodd" d="M379.477 75.8253L378.458 90.7739C377.592 90.9733 377.525 83.6678 377.29 91.2008C377.107 97.0425 378.509 94.1286 381.5 95.9153C378.723 100.025 376.156 99.2744 371.468 99.5987C369.202 103.196 366.442 109.486 362.065 104.59C362.341 107.703 364.159 108.358 360.689 109.124C358.174 109.679 356.17 109.52 354.417 107.737L355.538 111.063L353.534 111.612L352.596 116.963L353.534 118.236C367.562 125.459 375.182 115.747 380.562 109.124C386.822 99.5987 385.498 93.1764 386.822 83.5679L382.811 73.2262C380.801 74.2883 380.519 74.0979 379.477 75.8253Z" fill="#DC908D"/>
<path fill-rule="evenodd" clip-rule="evenodd" d="M103.854 553.763V554.547L174.864 554.791L175.027 554.171C160.492 553.704 159.099 557.585 149.726 546.461C147.294 543.575 144.386 540.71 142.35 537.21C140.829 534.595 138.554 527.91 137.378 526.456C128.098 530.329 131.231 552.82 144.385 553.657L103.854 553.763Z" fill="#CCD8AB"/>
<path fill-rule="evenodd" clip-rule="evenodd" d="M304.07 284.72L306.313 276.184C306.1 272.761 307.313 273.124 308.256 270.369C309.318 267.265 309.254 267.072 308.658 263.889C307.343 255.454 312.784 237.065 313.739 225.967C310.538 224.224 300.604 221.774 296.91 221.542C301.364 227.271 299.687 244.955 300.211 253.421C300.889 264.371 302.74 274.063 304.07 284.72Z" fill="#DC908D"/>
<path fill-rule="evenodd" clip-rule="evenodd" d="M412.511 516.328L405.944 518.4L405.722 523.417C411.534 524.158 413.864 525.954 416.374 531.059C419.816 532.852 429.281 530.297 433.393 530.69C433.665 528.282 433.5 525.524 435.126 524.12L435.028 518.991L434.211 518.668C431.062 519.39 422.712 513.438 412.511 516.328Z" fill="#FDDBCC"/>
<path fill-rule="evenodd" clip-rule="evenodd" d="M335.348 516.294L334.782 522.473C336.459 527.37 340.175 528.502 341.655 534.026C345.578 536.165 356.338 530.351 360.911 530.97L361.989 516.701C357.52 516.592 353.192 515.417 348.295 515.363C344.03 515.316 339.571 515.718 335.348 516.294Z" fill="#FDDBCC"/>
<path fill-rule="evenodd" clip-rule="evenodd" d="M342.939 324.88L344.721 326.018C342.425 322.77 342.684 316.089 342.534 312.16C342.4 308.633 340.24 300.183 342.942 298.347C345.103 299.468 343.593 298.041 343.582 305.836C343.578 308.763 343.814 311.86 343.982 314.782C344.283 320.015 344.482 324.808 348.897 328.028C345.68 321.69 347.2 323.269 346.283 315.253C346.145 310.416 345.931 303.566 347.024 299.108C353.683 297.094 357.096 298.461 370.025 292.395L368.605 292.17C364.836 291.935 357.727 293.151 353.478 293.464C326.228 295.47 321.787 289.202 311.977 287.432C310.682 289.404 321.048 295.582 323.525 296.541C328.621 298.516 336.768 298.6 338.808 299.123C338.961 304.078 340.617 321.71 342.939 324.88Z" fill="#1F3953"/>
<path fill-rule="evenodd" clip-rule="evenodd" d="M256.091 538.503C257.694 539.852 258.74 550.597 258.968 553.832L234.626 554.058L234.687 554.652L268.313 554.502C269.719 550.085 266.688 541.736 269.391 538.534L267.746 527.767C265.212 528.774 264.173 531.814 262.005 533.628C260.071 535.246 258.049 536.889 256.091 538.503Z" fill="#E2E6C2"/>
<path fill-rule="evenodd" clip-rule="evenodd" d="M443.479 437.388L434.436 409.819L433.829 407.253L431.39 394.765C429.999 396.351 429.077 400.028 428.179 402.27C425.03 410.13 427.428 404.364 422.671 407.284C422.839 408.434 441.639 435.464 443.479 437.388Z" fill="#1F3953"/>
<path fill-rule="evenodd" clip-rule="evenodd" d="M315.36 440.048L316.812 446.955L321.115 444.548C322.307 442.034 329.544 434.248 332.228 433.229L326.755 422.354L314.225 433.585L315.36 440.048Z" fill="#EDF8FF"/>
<path fill-rule="evenodd" clip-rule="evenodd" d="M292.464 186.728C293.407 189.371 293.853 189.609 296.228 190.988L297.606 188.126C306.166 189.028 309.955 195.066 315.56 198.647C317.299 192.569 315.626 181.886 317.266 175.392C318.591 170.149 322.032 160.777 322.566 156.18C317.317 161.809 311.073 181.632 306.598 188.596C301.811 186.017 298.106 184.172 292.464 186.728Z" fill="#23456D"/>
<path fill-rule="evenodd" clip-rule="evenodd" d="M362.095 532.569C362.324 536.208 360.342 541.156 362.804 544.18C363.555 542.018 365.993 541.686 368.079 539.333C370.108 537.043 371.238 535.563 372.879 532.847C376.497 526.859 371.432 522.28 366.64 519.289C365.592 523.732 362.142 528.971 362.095 532.569Z" fill="#D2DAAB"/>
<path fill-rule="evenodd" clip-rule="evenodd" d="M486.618 453.292L498.412 436.883C498.364 434.793 496.169 434.933 493.865 433.979C491.857 433.147 490.276 432.147 488.457 431.035L480.971 460.676L486.618 453.292Z" fill="#EDF8FF"/>
<path fill-rule="evenodd" clip-rule="evenodd" d="M416.42 199.489L416.159 197.112C422.789 197.385 421.315 199.183 426.136 194.722C428.384 192.642 431.11 190.361 434.432 189.962C443.091 188.922 448.755 193.321 454.771 192.788L455.463 196.339C454.521 189.945 455.748 190.17 448.752 188.835C438.399 186.858 424.879 186.883 415.984 191.785L416.42 199.489Z" fill="#DC908D"/>
<path fill-rule="evenodd" clip-rule="evenodd" d="M400.523 445.862C405.533 445.212 420.777 442.955 424.605 440.366C421.756 438.976 409.142 436.093 404.827 434.824C400.282 433.486 391.685 430.387 390.401 430.222C392.144 433.274 395.758 433.663 396.541 437.046C397.655 441.863 395.876 442.043 400.523 445.862Z" fill="#1F3953"/>
<path fill-rule="evenodd" clip-rule="evenodd" d="M405.944 518.4L412.511 516.328C416.609 516.07 418.945 515.901 424.728 517.648C427.672 518.537 431.882 519.012 434.211 518.668L435.028 518.991L436.429 518.996C439.287 517.511 438.954 515.951 438.937 512.874L439.071 510.048C438.039 511.411 438.809 510.13 438.028 511.828C438.001 511.887 437.563 513.46 437.534 513.555C433.093 509.67 411.715 511.836 405.545 510.098C401.891 512.031 402.606 516.155 405.944 518.4Z" fill="#476D91"/>
<path fill-rule="evenodd" clip-rule="evenodd" d="M334.679 462.404L333.618 452.583L320.401 465.439L322.251 478.314C326.557 473.26 329.742 466.676 334.679 462.404Z" fill="#EDF8FF"/>
<path fill-rule="evenodd" clip-rule="evenodd" d="M403.144 289.343L421.933 291.315C418.43 285.117 423.331 280.518 420.608 275.622C418.504 276.564 404.274 287.601 403.144 289.343Z" fill="#58799A"/>
<path fill-rule="evenodd" clip-rule="evenodd" d="M469.871 554.788L471.259 554.758C474.687 542.311 480.509 534.109 485.96 522.992C487.96 518.913 498.582 496.809 498.269 491.549L498.072 490.625C498.06 490.387 498.007 490.306 497.935 490.162C492.977 509.978 477.079 532.286 475.024 539.918C472.232 538.534 467.475 530.823 464.844 527.967C465.814 532.401 470.03 538.934 473.254 542.142L469.871 554.788Z" fill="#9EB47C"/>
<path fill-rule="evenodd" clip-rule="evenodd" d="M120.083 473.15C115.721 472.977 92.2787 472.282 90.1947 473.377C97.5337 474.598 93.6178 470.563 106.617 477.811C114.58 482.252 118.063 479.055 124.672 480.86L120.083 473.15Z" fill="#D2DDAD"/>
<path fill-rule="evenodd" clip-rule="evenodd" d="M83.9755 506.926L80.3347 507.774L85.8 514.969L87.1504 514.837L99.1741 513.402L96.8392 505.539L83.9755 506.926Z" fill="#D4DBB2"/>
<path fill-rule="evenodd" clip-rule="evenodd" d="M225.954 404.638L226.076 412.28L215.571 412.485C219.336 413.281 223.354 411.926 226.671 413.869C223.685 415.233 218.78 414.848 214.89 415.147L226.258 415.07C225.443 417.957 226.038 417.493 223.366 417.814C227.9 418.519 225.736 417.905 225.659 419.625L215.746 420.311C219.672 420.776 223.506 419.458 226.623 421.456L215.35 422.669C223.611 423.451 224.554 421.621 226.527 424.988C228.529 424.061 230.485 425.12 233.118 425.095L228.48 403.485L225.954 404.638Z" fill="#E3E4BA"/>
<path fill-rule="evenodd" clip-rule="evenodd" d="M306.313 276.184L306.49 277.258L310.236 271.877C313.625 274.631 318.903 282.471 324.227 279.745C324.702 275.898 313.402 264.618 310.908 263.613C310.705 267.073 309.318 267.265 308.256 270.369C307.313 273.124 306.1 272.761 306.313 276.184Z" fill="#23456D"/>
<path fill-rule="evenodd" clip-rule="evenodd" d="M405.368 507.071L404.926 499.661C402.573 500.442 395.158 502.361 393.879 503.961C392.88 505.212 390.669 513.326 390.464 515.166C394.703 513.25 401.539 508.019 405.368 507.071Z" fill="#EDF8FF"/>
<path fill-rule="evenodd" clip-rule="evenodd" d="M225.963 521.166C224.94 522.964 226.476 521.967 223.588 522.281L215.333 522.747C215.216 522.587 214.965 522.932 214.807 523.061C218.273 523.555 223.091 522.574 226.186 523.582C225.399 527.121 226.998 525.124 224.165 525.629L215.619 525.161C215.86 525.172 216.971 525.23 217.138 525.283L222.574 526.853C220.177 528.105 220.505 526.469 220.152 526.188C222.432 525.873 224.428 525.447 226.111 526.521C225.174 528.527 227.062 527.567 223.618 528.081C221.656 528.374 217.09 527.437 215.413 528.364L225.419 528.434C225.879 529.129 226.34 527.63 225.619 530.062L229.487 530.168C232.379 531.398 229.704 529.875 231.522 532.374C231.79 531.084 232.068 524.307 232.173 522.336C232.343 519.124 232.829 515.625 230.804 513.055C226.522 514.244 227.127 518.665 225.963 521.166Z" fill="#BAC796"/>
<path fill-rule="evenodd" clip-rule="evenodd" d="M138.546 464.561L139.962 464.46C142.946 465.344 142.919 466.716 144.944 467.722L146.359 450.164L140.463 447.224C139.91 453.274 139.187 458.617 138.546 464.561Z" fill="#F6F5E2"/>
<path fill-rule="evenodd" clip-rule="evenodd" d="M326.858 505.982C328.811 505.358 334.39 499.857 335.665 498.177L335.251 485.738C333.291 487.78 330.901 491.729 328.585 494.484C324.562 499.269 325.448 499.304 326.858 505.982Z" fill="#D2DAAD"/>
<path fill-rule="evenodd" clip-rule="evenodd" d="M532.627 460.674C532.815 458.574 532.711 458.861 534.508 457.855C534.792 453.945 538.564 448.421 538.137 443.512L537.788 442.441C536.268 449.274 521.893 461.623 517.585 467.22C520.348 466.372 529.346 461.327 531.246 459.532L532.627 460.674Z" fill="#A1B57E"/>
<path fill-rule="evenodd" clip-rule="evenodd" d="M143.779 484.122C142.636 478.292 137.673 470.534 139.962 464.46L138.546 464.561C138.426 464.763 133.619 480.376 133.069 482.35L143.603 485.324L143.779 484.122Z" fill="#E6E9C9"/>
<path fill-rule="evenodd" clip-rule="evenodd" d="M304.092 531.408L304.408 537.492C303.585 538.074 305.354 538.245 302.472 537.962C305.03 539.752 311.338 539.196 314.668 539.153L317.14 537.923L316.954 530.069C315.1 530.065 313.004 531.201 311.008 531.54C308.321 531.996 306.688 531.684 304.092 531.408Z" fill="#D2DAAB"/>
<path fill-rule="evenodd" clip-rule="evenodd" d="M335.893 512.58L335.348 516.294C339.571 515.718 344.03 515.316 348.295 515.363C353.192 515.417 357.52 516.592 361.989 516.701L363.096 515.364L364.677 514.516C356.083 511.277 345.179 511.609 335.893 512.58Z" fill="#DC908D"/>
<path fill-rule="evenodd" clip-rule="evenodd" d="M446.27 233.571C442.832 225.924 427.286 224.844 421.237 225.859L420.285 231.644C430.485 231.841 436.706 232.037 446.27 233.571Z" fill="#DC908D"/>
<path fill-rule="evenodd" clip-rule="evenodd" d="M268.313 554.502L280.234 554.571C279.272 553.037 278.172 552.294 276.916 550.521C276.033 549.274 275.051 548.061 274.129 546.772C272.118 543.963 270.421 541.944 269.391 538.534C266.688 541.736 269.719 550.085 268.313 554.502Z" fill="#F9F6E3"/>
<path fill-rule="evenodd" clip-rule="evenodd" d="M404.527 328.829C400.957 325.636 393.408 320.978 389.134 317.714C383.667 313.539 379.883 309.404 375.087 305.198C379.554 316.014 392.691 326.373 404.527 328.829Z" fill="#1F3953"/>
<path fill-rule="evenodd" clip-rule="evenodd" d="M256.09 538.503C258.049 536.889 260.071 535.246 262.005 533.628C264.173 531.814 265.211 528.774 267.746 527.767L267.537 523.788C265.067 525.528 263.303 528.443 261.319 530.585C256.212 536.1 241.317 546.286 239.933 548.848C244.797 547.904 252.116 541.581 256.09 538.503Z" fill="#F6F5E2"/>
<path fill-rule="evenodd" clip-rule="evenodd" d="M318.445 410.881L316.783 405.539C315.107 403.177 315.726 400.824 315.714 397.881C315.198 405.843 305.124 411.988 310.244 419.159C313.987 415.749 313.106 413.81 318.445 410.881Z" fill="#EDF8FF"/>
<path fill-rule="evenodd" clip-rule="evenodd" d="M441.926 497.284L439.071 510.048L438.937 512.874C442.88 511.414 448.307 500.566 448.426 496.134C445.932 495.08 443.977 495.881 441.926 497.284Z" fill="#A9BB84"/>
<path fill-rule="evenodd" clip-rule="evenodd" d="M399.985 291.512C404.2 294.594 418.667 293.632 423.173 295.583C423.07 292.693 423.955 293.175 421.933 291.315L403.144 289.343L399.985 291.512Z" fill="#1F3953"/>
<path fill-rule="evenodd" clip-rule="evenodd" d="M111.834 420.483C114.842 422.346 118.18 430.117 118.702 433.737C119.144 436.806 119.148 440.343 118.811 443.424C118.292 448.175 117.702 447.939 121.627 450.556C121.089 447.058 121.431 443.756 120.792 439.969C120.261 436.827 119.791 433.444 119.342 430.165C118.939 427.218 118.501 423.603 117.377 420.836C116.103 417.704 113.124 416.226 111.834 420.483Z" fill="#EAEBD4"/>
<path fill-rule="evenodd" clip-rule="evenodd" d="M333.179 434.841C338.385 435.173 350.03 430.533 352.624 426.089C343.406 428.256 344.062 429.055 332.53 427.404C333.583 429.739 335.063 428.505 334.228 431.084C333.63 432.927 332.56 431.88 333.179 434.841Z" fill="#1F3953"/>
<path fill-rule="evenodd" clip-rule="evenodd" d="M111.488 498.343L114.428 491.63C114.097 489.567 115.475 491.168 113.821 489.717C110.558 490.199 106.138 490.556 103.491 492.149C102.845 498.202 105.368 497.443 110.028 499.64L111.488 498.343Z" fill="#D2DAAD"/>
<path fill-rule="evenodd" clip-rule="evenodd" d="M311.446 504.535C310.432 505.99 309.418 507.138 308.441 508.819C307.02 511.263 307.686 511.502 305.112 511.753C306.867 512.782 314.099 512.678 316.449 512.095L316.416 504.456L311.446 504.535Z" fill="#CCD8AB"/>
<path fill-rule="evenodd" clip-rule="evenodd" d="M429.524 381.297C431.026 379.656 434.018 372.872 434.411 370.475C432.047 367.649 431.19 368.078 429.138 364.33C427.989 362.233 428.744 361.771 428.076 362.77C427.295 366.675 429.202 376.662 429.524 381.297Z" fill="#F9F5E5"/>
<path fill-rule="evenodd" clip-rule="evenodd" d="M321.115 444.548C323.262 443.829 324.999 443.43 327.121 442.563C327.893 442.247 328.913 441.778 329.71 441.537C332.473 440.703 330.807 441.923 332.062 441.018C332.756 438.587 332.342 435.874 332.228 433.229C329.544 434.248 322.307 442.034 321.115 444.548Z" fill="#C2CD9F"/>
<path fill-rule="evenodd" clip-rule="evenodd" d="M361.989 516.701L360.911 530.97L360.947 532.239L362.095 532.569C362.142 528.971 365.592 523.732 366.64 519.289C365.005 517.559 363.71 517.424 363.096 515.365L361.989 516.701Z" fill="#ADBE8A"/>
<path fill-rule="evenodd" clip-rule="evenodd" d="M149.288 523.338C146.401 523.119 148.262 523.148 147.443 523.957C151.185 525.821 156.497 530.209 160.139 530.892C159.582 528.48 155.585 524.922 153.738 522.229L152.978 523.733L149.288 523.338Z" fill="#D4DBB2"/>
<path fill-rule="evenodd" clip-rule="evenodd" d="M367.283 501.196C369.278 499.788 370.559 495.724 371.337 493.307C373.447 486.754 369.791 489.133 369.136 484.468L367.283 501.196Z" fill="#A9BB84"/>
<path fill-rule="evenodd" clip-rule="evenodd" d="M146.505 498.752C149.599 500.967 154.737 504.625 158.629 504.499C158.082 503.739 151.531 496.856 151.089 496.604L146.505 498.752Z" fill="#D2DAAD"/>
<path fill-rule="evenodd" clip-rule="evenodd" d="M403.389 484.813L402.956 477.925C400.399 479.136 398.809 482.732 398.445 485.6L403.029 486.083L403.389 484.813Z" fill="#EDF8FF"/>
<path fill-rule="evenodd" clip-rule="evenodd" d="M343.338 528.957L345.897 530.248L360.947 532.238L360.911 530.97C356.338 530.351 348.314 529.487 344.39 527.347L343.338 528.957Z" fill="#DC908D"/>
<path fill-rule="evenodd" clip-rule="evenodd" d="M418.901 532.528L433.233 532.183L433.393 530.69C429.281 530.297 420.647 530.049 417.205 528.256L416.618 529.605L418.901 532.528Z" fill="#DC908D"/>
<path fill-rule="evenodd" clip-rule="evenodd" d="M383.881 543.416C387.372 542.498 392.89 539.436 395.394 536.976C393.16 536.967 391.086 538.305 388.81 539.286C386.109 540.452 384.065 540.527 383.881 543.416Z" fill="#FAF9E9"/>
<path fill-rule="evenodd" clip-rule="evenodd" d="M296.91 221.542C300.604 221.774 309.616 224.236 312.817 225.98C314.085 226.149 313.677 226.364 313.677 224.945C309.124 222.708 301.717 220.714 296.705 220.265L294.091 220.455L296.91 221.542Z" fill="#DC908D"/>
<path fill-rule="evenodd" clip-rule="evenodd" d="M433.393 530.69L433.233 532.182L433.811 532.318C436.985 528.542 436.38 528.592 435.126 524.12C433.5 525.524 433.665 528.282 433.393 530.69Z" fill="#9FB274"/>
<path fill-rule="evenodd" clip-rule="evenodd" d="M418.814 234.296L428.13 231.478L420.285 231.644L418.814 234.296Z" fill="#DC908D"/>
<path d="M230.72 530.481L179.453 530.13C179.205 391.857 177.633 195.146 179.453 56.9306C198.016 56.9306 213.431 57.6331 227.91 57.6331C227.91 195.847 229.617 392.265 230.72 530.481Z" fill="#F4B255"/>
<path d="M184.302 332.704C184.887 332.705 185.472 332.707 186.074 332.709C186.735 332.709 187.396 332.709 188.076 332.709C188.795 332.713 189.513 332.716 190.253 332.72C190.985 332.721 191.717 332.722 192.47 332.723C194.818 332.726 197.165 332.736 199.512 332.744C201.099 332.748 202.686 332.751 204.273 332.754C208.173 332.762 212.072 332.773 215.972 332.788C215.74 333.947 215.508 335.106 215.269 336.3C204.609 336.3 193.948 336.3 182.965 336.3C182.733 335.373 182.501 334.446 182.262 333.491C182.965 332.788 182.965 332.788 184.302 332.704Z" fill="#5F424F"/>
<path d="M184.249 433.13C184.808 433.132 185.368 433.133 185.945 433.135C186.578 433.135 187.211 433.135 187.862 433.135C188.55 433.139 189.238 433.142 189.946 433.146C190.646 433.147 191.347 433.148 192.069 433.149C194.316 433.153 196.563 433.162 198.81 433.171C200.329 433.174 201.848 433.178 203.368 433.181C207.101 433.188 210.834 433.2 214.567 433.215C214.962 434.575 214.962 434.575 215.269 436.024C214.567 436.726 214.567 436.726 213.283 436.81C212.723 436.809 212.163 436.807 211.586 436.806C210.954 436.806 210.321 436.806 209.669 436.806C208.982 436.802 208.294 436.798 207.586 436.795C206.885 436.794 206.185 436.793 205.463 436.792C203.216 436.788 200.969 436.779 198.722 436.77C197.203 436.766 195.683 436.763 194.164 436.76C190.431 436.752 186.697 436.741 182.965 436.726C182.569 435.365 182.569 435.365 182.262 433.917C182.965 433.215 182.965 433.215 184.249 433.13Z" fill="#4D2C57"/>
<path d="M184.249 158.783C184.808 158.784 185.368 158.786 185.945 158.787C186.578 158.788 187.211 158.788 187.862 158.788C188.55 158.791 189.238 158.795 189.946 158.799C190.646 158.8 191.347 158.801 192.069 158.802C194.316 158.806 196.563 158.814 198.81 158.823C200.329 158.827 201.848 158.83 203.368 158.833C207.101 158.841 210.834 158.853 214.567 158.867C214.962 160.228 214.962 160.228 215.269 161.676C214.567 162.379 214.567 162.379 213.283 162.463C212.723 162.462 212.163 162.46 211.586 162.458C210.954 162.458 210.321 162.458 209.669 162.458C208.982 162.455 208.294 162.451 207.586 162.447C206.885 162.446 206.185 162.445 205.463 162.444C203.216 162.44 200.969 162.431 198.722 162.422C197.203 162.419 195.683 162.416 194.164 162.413C190.431 162.405 186.697 162.394 182.965 162.379C182.569 161.018 182.569 161.018 182.262 159.57C182.965 158.867 182.965 158.867 184.249 158.783Z" fill="#664358"/>
<path d="M182.262 466.924C193.386 466.924 204.51 466.924 215.972 466.924C215.972 467.851 215.972 468.779 215.972 469.733C205.079 469.733 194.187 469.733 182.965 469.733C182.733 468.807 182.501 467.88 182.262 466.924Z" fill="#4F2C5B"/>
<path d="M182.965 249.217C193.625 249.217 204.286 249.217 215.269 249.217C215.269 250.144 215.269 251.071 215.269 252.026C204.377 252.026 193.485 252.026 182.262 252.026C182.494 251.099 182.726 250.172 182.965 249.217Z" fill="#563A4F"/>
<path d="M182.965 383.353C193.625 383.353 204.286 383.353 215.269 383.353C215.269 384.28 215.269 385.207 215.269 386.162C204.609 386.162 193.948 386.162 182.965 386.162C182.965 385.235 182.965 384.308 182.965 383.353Z" fill="#54364C"/>
<path d="M182.262 299.781C192.923 299.781 203.583 299.781 214.567 299.781C214.567 300.708 214.567 301.635 214.567 302.59C203.906 302.59 193.246 302.59 182.262 302.59C182.262 301.663 182.262 300.736 182.262 299.781Z" fill="#473555"/>
<path d="M182.965 399.505C191.076 399.505 199.187 399.505 207.544 399.505C207.544 400.664 207.544 401.823 207.544 403.017C199.201 403.017 190.858 403.017 182.262 403.017C182.494 401.858 182.726 400.699 182.965 399.505Z" fill="#4A3056"/>
<path d="M182.965 315.934C190.149 315.934 197.333 315.934 204.735 315.934C204.967 316.86 205.199 317.788 205.438 318.743C204.735 319.445 204.735 319.445 202.657 319.525C201.749 319.521 200.84 319.517 199.904 319.513C199.181 319.512 199.181 319.512 198.443 319.51C196.897 319.507 195.352 319.498 193.806 319.489C192.76 319.485 191.715 319.482 190.669 319.479C188.101 319.471 185.533 319.459 182.965 319.445C182.965 318.286 182.965 317.128 182.965 315.934Z" fill="#60464B"/>
<path d="M184.978 416.28C185.857 416.284 186.736 416.288 187.642 416.291C188.341 416.293 188.341 416.293 189.056 416.295C190.551 416.299 192.047 416.307 193.543 416.316C194.554 416.32 195.566 416.323 196.578 416.326C199.063 416.333 201.548 416.345 204.033 416.36C204.033 417.519 204.033 418.677 204.033 419.871C197.08 419.871 190.128 419.871 182.965 419.871C182.733 418.944 182.501 418.017 182.262 417.062C182.965 416.36 182.965 416.36 184.978 416.28Z" fill="#684055"/>
<path d="M182.965 266.071C190.844 266.071 198.724 266.071 206.842 266.071C207.19 267.462 207.19 267.462 207.544 268.881C199.201 268.881 190.858 268.881 182.262 268.881C182.494 267.953 182.726 267.027 182.965 266.071Z" fill="#4B394E"/>
<path d="M182.965 499.932C188.99 499.932 195.016 499.932 201.224 499.932C201.455 500.859 201.688 501.785 201.926 502.74C201.224 503.443 201.224 503.443 199.468 503.523C198.707 503.519 197.946 503.515 197.161 503.512C196.34 503.509 195.518 503.507 194.672 503.505C193.374 503.496 193.374 503.496 192.05 503.487C190.748 503.482 190.748 503.482 189.421 503.477C187.269 503.469 185.117 503.457 182.965 503.443C182.965 502.284 182.965 501.126 182.965 499.932Z" fill="#613E50"/>
<path d="M182.965 450.069C190.149 450.069 197.333 450.069 204.735 450.069C204.967 450.997 205.199 451.924 205.438 452.879C198.021 452.879 190.605 452.879 182.965 452.879C182.965 451.952 182.965 451.025 182.965 450.069Z" fill="#583053"/>
<path d="M182.262 483.779C188.983 483.779 195.704 483.779 202.628 483.779C202.628 484.706 202.628 485.633 202.628 486.588C195.907 486.588 189.187 486.588 182.262 486.588C182.262 485.661 182.262 484.734 182.262 483.779Z" fill="#58394F"/>
<path d="M182.965 349.643C189.222 349.643 195.479 349.643 201.926 349.643C202.158 350.57 202.39 351.497 202.628 352.452C195.907 352.452 189.187 352.452 182.262 352.452C182.494 351.525 182.726 350.598 182.965 349.643Z" fill="#57394A"/>
<path d="M182.262 366.498C188.751 366.498 195.24 366.498 201.926 366.498C201.926 367.425 201.926 368.352 201.926 369.307C195.437 369.307 188.948 369.307 182.262 369.307C182.262 368.38 182.262 367.453 182.262 366.498Z" fill="#4D3147"/>
<path d="M182.262 282.926C188.751 282.926 195.24 282.926 201.926 282.926C201.926 283.853 201.926 284.78 201.926 285.735C195.669 285.735 189.411 285.735 182.965 285.735C182.733 284.808 182.501 283.881 182.262 282.926Z" fill="#543B4A"/>
<path d="M182.262 299.781C185.97 299.781 189.678 299.781 193.499 299.781C193.499 300.013 193.499 300.245 193.499 300.483C189.327 300.831 189.327 300.831 185.071 301.186C194.805 301.417 204.539 301.649 214.567 301.888C214.567 302.12 214.567 302.351 214.567 302.59C203.906 302.59 193.246 302.59 182.262 302.59C182.262 301.663 182.262 300.736 182.262 299.781Z" fill="#55373A"/>
<path d="M182.965 177.175C193.625 177.175 204.286 177.175 215.269 177.175C215.269 178.102 215.269 179.029 215.269 179.984C204.377 179.984 193.485 179.984 182.262 179.984C182.494 179.057 182.726 178.13 182.965 177.175Z" fill="#563A4F"/>
<path d="M182.262 227.74C192.923 227.74 203.583 227.74 214.567 227.74C214.567 228.667 214.567 229.593 214.567 230.549C203.906 230.549 193.246 230.549 182.262 230.549C182.262 229.622 182.262 228.695 182.262 227.74Z" fill="#473555"/>
<path d="M182.965 194.03C190.844 194.03 198.724 194.03 206.842 194.03C207.19 195.42 207.19 195.42 207.544 196.839C199.201 196.839 190.858 196.839 182.262 196.839C182.494 195.912 182.726 194.985 182.965 194.03Z" fill="#4B394E"/>
<path d="M182.262 210.885C188.751 210.885 195.24 210.885 201.926 210.885C201.926 211.812 201.926 212.739 201.926 213.694C195.669 213.694 189.411 213.694 182.965 213.694C182.733 212.767 182.501 211.84 182.262 210.885Z" fill="#543B4A"/>
<path fill-rule="evenodd" clip-rule="evenodd" d="M337.532 71.5606C340.302 70.9229 340.183 75.1197 337.254 73.8386C336.855 72.6033 336.681 72.5294 337.532 71.5606ZM355.125 72.2893C358.231 72.4597 357.022 75.2543 355.842 75.5244C354.088 75.9265 353.524 73.6027 355.125 72.2893ZM366.022 71.029C364.257 71.1799 359.199 68.7075 357.205 67.9444C355.612 67.3345 348.915 65.6627 352.557 63.1846C354.922 61.5749 359.393 63.9772 361.666 65.2517C363.921 66.5151 367.597 68.1706 366.022 71.029ZM333.893 56.0303L334.369 63.5558C335.798 63.153 337.397 62.6501 338.823 63.391C340.263 64.1398 340.31 65.475 339.123 66.527C337.38 67.1603 335.636 67.7943 333.892 68.4272C337.22 73.3245 334.942 77.9281 334.526 81.5466C334.093 85.304 336.531 88.4935 338.628 91.6779C342.693 91.0551 345.014 90.1175 347.993 89.5794C350.445 89.1367 352.399 88.1054 355.701 87.545C366.133 85.7737 366.021 92.3856 372.439 91.6346C373.063 90.9045 379.145 73.8025 379.06 73.2484C377.77 64.8713 382.139 50.6969 384.395 42.7397C375.764 46.1971 368.607 47.8304 358.336 48.0132C353.639 48.097 351.097 51.3208 346.555 50.1002C338.543 47.9481 341.492 53.0641 333.893 56.0303Z" fill="#FDDBCC"/>
<path fill-rule="evenodd" clip-rule="evenodd" d="M386.946 76.3253C385.765 73.9838 391.3 68.5343 393.371 68.1388C392.876 69.5137 391.059 70.8171 390.017 71.9883C388.957 73.1771 387.898 75.8 386.946 76.3253ZM386.39 86.1395C391.433 83.9751 393.395 83.1966 395.804 77.6992C399.226 69.8908 396.926 69.9767 394.275 64.4306C384.981 61.4008 380.5 84.6161 386.39 86.1395Z" fill="#FDDBCC"/>
<path fill-rule="evenodd" clip-rule="evenodd" d="M361.638 89.9927C359.481 94.4504 350.4 97.682 346.241 94.4013L343.344 92.7858C342.285 98.9664 351.429 102.043 356.381 101.025C361.853 99.899 367.33 91.5055 362.081 89.637L361.638 89.9927Z" fill="#FDDBCC"/>
<path fill-rule="evenodd" clip-rule="evenodd" d="M343.338 92.9881L346.24 94.4014C348.936 94.733 352.271 94.2458 354.79 93.4046C357.379 92.54 359.782 90.5999 361.638 89.9929L362.081 89.6371C357.298 89.2027 354.443 89.3365 348.783 89.8275C347.125 89.9715 344.966 92.236 343.35 92.5835L343.338 92.9881Z" fill="#FBF7F5"/>
<path fill-rule="evenodd" clip-rule="evenodd" d="M334.369 63.5559C331.395 64.7508 333.261 66.8026 333.892 68.4272C334.564 66.8871 334.56 66.5254 337.36 66.0132C339.566 65.6092 338.911 66.247 339.123 66.527C340.31 65.475 340.263 64.1398 338.823 63.3911C337.397 62.6502 335.798 63.153 334.369 63.5559Z" fill="#4E3951"/>
<path fill-rule="evenodd" clip-rule="evenodd" d="M346.241 94.4018C350.399 97.6821 359.482 94.4506 361.638 89.9932C359.782 90.6003 357.379 92.5403 354.79 93.405C352.271 94.2459 348.936 94.733 346.241 94.4018Z" fill="#4E3951"/>
<path fill-rule="evenodd" clip-rule="evenodd" d="M386.946 76.3253C387.897 75.7997 388.957 73.177 390.016 71.9877C391.058 70.8169 392.876 69.5136 393.371 68.1386C391.3 68.5342 385.765 73.9836 386.946 76.3253Z" fill="#DC908D"/>
<path fill-rule="evenodd" clip-rule="evenodd" d="M333.893 68.4273L339.123 66.527C338.911 66.2469 339.566 65.6091 337.36 66.0132C334.56 66.5254 334.564 66.887 333.893 68.4273Z" fill="#4E3951"/>
<path fill-rule="evenodd" clip-rule="evenodd" d="M346.417 74.0432C347.67 74.6467 347.849 80.2348 349.295 81.5657C350.742 82.8967 352.767 86.1186 351.494 86.1199L346.667 86.1253L343.721 85.2187L343.527 81.3355L344.892 74.7533L346.417 74.0432Z" fill="#DC908D"/>
<path fill-rule="evenodd" clip-rule="evenodd" d="M379.452 70.9217C375.294 69.3724 368.517 73.8115 368.517 73.8115L362.959 84.0026C362.959 84.0026 361.751 86.5025 363.586 89.2888C365.421 92.0751 374.864 94.7201 374.864 94.7201L379.452 70.9217Z" fill="#DC908D"/>
<path fill-rule="evenodd" clip-rule="evenodd" d="M343.308 94.0337L343.35 92.5839C344.966 92.236 347.559 91.4208 348.561 90.2995C354.78 93.4245 357.471 90.2964 362.253 90.7314C364.192 91.705 359.793 99.3847 354.595 96.3623C350.87 99.3712 345.401 97.2113 343.308 94.0337ZM333.894 56.0304C336.221 55.2939 336.929 58.538 341.081 63.1336C341.156 60.591 339.059 58.1855 341.446 55.0009C342.672 57.2692 344.239 58.622 349.378 60.4883C352.272 55.9125 367.801 54.8985 376.432 51.4405C374.176 59.3983 377.77 64.8713 379.06 73.2484C379.145 73.8025 373.063 90.9045 372.439 91.6346C366.021 92.3852 366.818 85.6819 356.386 87.4525C353.084 88.0136 349.899 86.7732 347.447 87.2159C344.468 87.7536 342.897 90.0665 338.833 90.6893C335.038 92.5411 340.816 113.767 343.36 116.194L354.035 119.133C354.446 118.504 364.255 115.551 365.867 114.854C369.118 113.449 370.283 111.236 373.101 109.088C381.442 102.73 382.011 99.8305 386.836 91.1888L386.39 86.1394C380.5 84.616 384.981 61.4007 394.275 64.4305C395.973 60.8295 396.771 58.2162 397.688 54.4213C399.512 46.8783 397.802 45.462 396.358 41.7233C396.609 36.7724 396.71 32.8716 392.832 27.9783C388.463 22.4659 386.314 23.8946 382.602 24.1393C379.899 22.864 380.791 18.5117 375.725 17.2141C373.146 13.2424 351.541 16.7272 347.915 16.9498C363.67 25.7157 355.847 20.8025 347.22 21.9621C337.668 21.7513 324.257 33.0815 322.447 46.7996C320.154 54.3207 323.918 58.8061 327.083 61.208C327.74 51.2847 326.645 59.3162 335.17 60.458C335.334 60.48 333.717 56.0912 333.894 56.0304Z" fill="#334160"/>
<path fill-rule="evenodd" clip-rule="evenodd" d="M351.431 86.4253C348.844 84.6829 342.82 88.4923 343.854 81.8005C344.176 79.7122 346.803 71.6301 345.491 70.1413C344.249 70.6952 344.463 73.5816 344.223 74.943C343.37 79.8027 340.877 83.9462 343.491 86.4984C344.624 87.6044 349.93 87.339 351.431 86.4253Z" fill="#B87D7B"/>
<path fill-rule="evenodd" clip-rule="evenodd" d="M334.86 79.6299C334.86 79.6299 338.453 79.7981 338.572 80.7932C338.69 81.7882 338.721 85.6716 339.333 88.0677C339.946 90.464 340.331 90.8331 339.853 90.4872C339.376 90.1406 338.498 92.1 337.1 89.3724C335.68 86.9309 335.037 85.4439 334.475 82.4441L334.86 79.6299Z" fill="#DC908D"/>
<path fill-rule="evenodd" clip-rule="evenodd" d="M337.36 71.4105C336.509 72.3794 336.724 72.9761 337.4 73.9444C340.329 75.2254 340.287 70.7545 337.36 71.4105Z" fill="#171D37"/>
<path fill-rule="evenodd" clip-rule="evenodd" d="M354.649 75.4436C356.045 75.9399 356.591 75.4575 357.336 74.3249C357.458 70.6551 352.706 72.5991 354.649 75.4436Z" fill="#171D37"/>
<path fill-rule="evenodd" clip-rule="evenodd" d="M366.022 71.029C367.597 68.1706 363.921 66.5151 361.666 65.2516C359.393 63.9772 354.922 61.5748 352.558 63.1846C348.915 65.6627 355.613 67.3345 357.205 67.9443C359.199 68.7075 364.257 71.1799 366.022 71.029Z" fill="#4E3951"/>
<path fill-rule="evenodd" clip-rule="evenodd" d="M366.861 552.147L328.503 551.227L326.874 551.126L297.802 549.726L291.807 550.557C279.247 554.352 297.404 564.242 314.067 564.588C321.231 565.154 347.229 561.174 354.398 561.733C357.556 561.978 362.107 562.732 364.625 560.66C366.75 558.912 368.076 554.571 366.861 552.147Z" fill="#F4F4F4"/>
<path fill-rule="evenodd" clip-rule="evenodd" d="M297.802 549.726C301.28 561.596 332.427 558.523 342.141 532.823C342.841 531.083 343.938 529.073 343.881 527.191L334.842 522.575C331.046 523.581 330.08 528.906 327.964 532.046C325.959 535.021 322.997 538.054 319.913 539.934C314.597 543.175 304.447 546.437 297.802 549.726Z" fill="#2D4D92"/>
<path fill-rule="evenodd" clip-rule="evenodd" d="M343.952 534.524L344.129 534.959C345.957 536.386 347.522 537.93 349.508 539.275C352.94 541.6 353.331 540.67 356.945 540.842C355.658 545.878 354.119 545.737 348.872 545.412C346.882 545.29 338.56 544.801 337.638 543.567C334.74 544.904 335.066 544.672 332.753 546.868C331.445 548.11 320.792 552.717 320.349 554.519C326.233 557.185 337.629 556.703 346.004 556.277C353.131 555.913 362.666 554.199 366.861 552.148L359.894 528.517C352.795 535.057 352.879 530.98 345.783 528.55C345.138 529.403 344.037 533.182 343.952 534.524Z" fill="#314D92"/>
<path fill-rule="evenodd" clip-rule="evenodd" d="M337.638 543.566C338.56 544.801 346.882 545.29 348.872 545.412C354.119 545.737 355.658 545.878 356.945 540.842C353.331 540.67 352.94 541.6 349.508 539.274C347.522 537.93 345.957 536.386 344.129 534.957C342.948 535.205 341.903 538.185 341.18 539.342C340.323 540.711 338.957 542.826 337.638 543.566Z" fill="white"/>
<path fill-rule="evenodd" clip-rule="evenodd" d="M326.873 551.127L328.503 551.227C328.946 549.425 331.445 548.11 332.753 546.868C335.066 544.673 334.74 544.904 337.638 543.567C338.956 542.826 340.323 540.711 341.18 539.342C341.903 538.186 342.948 535.205 344.129 534.959L343.952 534.524C342.971 533.907 343.379 534.636 343.102 532.78L342.141 532.823C339.244 540.488 332.985 546.638 326.873 551.127Z" fill="#233B58"/>
<path fill-rule="evenodd" clip-rule="evenodd" d="M440.525 553.514L400.069 552.542L398.35 552.436L367.689 550.959L361.367 551.836C348.12 555.838 367.27 566.27 384.843 566.635C392.399 567.23 419.819 563.034 427.38 563.623C430.711 563.882 435.511 564.676 438.167 562.492C440.408 560.647 441.806 556.069 440.525 553.514Z" fill="#F4F4F4"/>
<path fill-rule="evenodd" clip-rule="evenodd" d="M367.689 550.959C371.357 563.478 404.207 560.237 414.454 533.131C415.191 531.298 416.348 529.176 416.288 527.192L406.754 522.323C402.751 523.385 401.733 529.001 399.5 532.313C397.385 535.45 394.261 538.648 391.009 540.631C385.403 544.051 374.697 547.491 367.689 550.959Z" fill="#2D4D92"/>
<path fill-rule="evenodd" clip-rule="evenodd" d="M416.363 534.926L416.55 535.383C418.477 536.889 420.128 538.517 422.223 539.936C425.842 542.389 426.254 541.407 430.066 541.589C428.709 546.901 427.085 546.753 421.552 546.41C419.453 546.28 410.676 545.765 409.703 544.463C406.646 545.873 406.991 545.63 404.551 547.945C403.172 549.254 391.937 554.114 391.469 556.014C397.675 558.826 409.694 558.318 418.527 557.869C426.044 557.486 436.1 555.677 440.525 553.514L433.176 528.589C425.69 535.489 425.777 531.188 418.294 528.626C417.614 529.524 416.452 533.51 416.363 534.926Z" fill="#314D92"/>
<path fill-rule="evenodd" clip-rule="evenodd" d="M409.703 544.463C410.677 545.764 419.453 546.281 421.552 546.41C427.086 546.753 428.709 546.901 430.066 541.589C426.254 541.407 425.842 542.389 422.223 539.937C420.128 538.517 418.477 536.889 416.551 535.383C415.304 535.645 414.203 538.788 413.44 540.008C412.536 541.451 411.095 543.681 409.703 544.463Z" fill="white"/>
<path fill-rule="evenodd" clip-rule="evenodd" d="M398.35 552.436L400.069 552.542C400.535 550.642 403.172 549.254 404.551 547.945C406.991 545.629 406.646 545.873 409.703 544.463C411.094 543.681 412.536 541.451 413.439 540.007C414.203 538.788 415.304 535.645 416.55 535.383L416.363 534.926C415.329 534.274 415.758 535.043 415.465 533.086L414.454 533.131C411.397 541.216 404.795 547.702 398.35 552.436Z" fill="#233B58"/>
<path fill-rule="evenodd" clip-rule="evenodd" d="M414.454 533.132L415.465 533.086C415.758 535.043 415.327 534.275 416.363 534.926C416.452 533.51 417.614 529.524 418.294 528.625L416.288 527.192C416.348 529.176 415.191 531.298 414.454 533.132Z" fill="#243A6D"/>
<path d="M182.965 127.243C193.625 127.243 204.286 127.243 215.269 127.243C215.269 128.17 215.269 129.097 215.269 130.052C204.377 130.052 193.485 130.052 182.262 130.052C182.494 129.125 182.726 128.198 182.965 127.243Z" fill="#563A4F"/>
<path d="M182.965 144.098C190.844 144.098 198.724 144.098 206.842 144.098C207.19 145.488 207.19 145.488 207.544 146.907C199.201 146.907 190.858 146.907 182.262 146.907C182.494 145.98 182.726 145.053 182.965 144.098Z" fill="#4B394E"/>
<path d="M182.262 105.766C192.923 105.766 203.583 105.766 214.567 105.766C214.567 106.693 214.567 107.619 214.567 108.575C203.906 108.575 193.246 108.575 182.262 108.575C182.262 107.648 182.262 106.721 182.262 105.766Z" fill="#473555"/>
<path d="M182.262 88.9108C188.751 88.9108 195.24 88.9108 201.926 88.9108C201.926 89.8382 201.926 90.7648 201.926 91.7203C195.669 91.7203 189.411 91.7203 182.965 91.7203C182.733 90.7929 182.501 89.8662 182.262 88.9108Z" fill="#543B4A"/>
</g>
<defs>
<clipPath id="clip0_374_1765">
<rect width="581" height="581" fill="white"/>
</clipPath>
</defs>
</svg>
