<svg width="340" height="220" viewBox="0 0 340 220" fill="none" xmlns="http://www.w3.org/2000/svg">
<g clip-path="url(#clip0_658_6457)">
<path d="M305.094 1.5503L19.9398 23.7214C8.92736 24.5776 0.703444 34.1984 1.57119 45.2099L13.3951 195.255C14.2629 206.266 23.8937 214.499 34.9062 213.643L320.061 191.471C331.073 190.615 339.297 180.994 338.429 169.983L326.605 19.9381C325.737 8.92659 316.107 0.694072 305.094 1.5503Z" fill="#C3E6FF"/>
<path d="M8.36914 36.3269C8.36914 25.2811 17.3102 16.3267 28.356 16.3268C72.8918 16.3272 178.948 16.328 211.9 16.3273C240.85 16.3267 288.087 16.3266 314.77 16.3266C325.816 16.3266 334.769 25.2809 334.769 36.3266V200C334.769 211.046 325.815 220 314.769 220H28.3691C17.3234 220 8.36914 211.046 8.36914 200V36.3269Z" fill="#EDF8FF"/>
<mask id="mask0_658_6457" style="mask-type:luminance" maskUnits="userSpaceOnUse" x="35" y="28" width="282" height="187">
<path d="M317 28H35V215H317V28Z" fill="white"/>
</mask>
<g mask="url(#mask0_658_6457)">
<path fill-rule="evenodd" clip-rule="evenodd" d="M38.6623 126.661L111.179 127.483L111.255 125.076C110.277 116.425 107.836 109.975 105.611 101.754C103.118 92.5386 93.2517 41.7776 89.4068 38.1069C88.6581 37.6946 61.2226 36.5992 44.7662 38.1072C39.0044 42.7085 37.4415 64.7321 46.5974 92.3571C51.7287 107.839 37.8594 126.063 38.6623 126.661Z" fill="#B1BECB"/>
<path d="M36.8312 142.447C33.6572 147.061 45.8853 165.417 52.3961 174.018C43.5455 174.018 36.8312 187.922 36.8312 191.322C36.8312 195.572 43.2403 202.554 47.2078 205.286C50.3818 207.472 128.593 208.423 161.351 208.322C176.203 207.613 208.595 206.622 219.338 208.322C232.766 210.447 277.63 207.714 282.513 207.107C286.419 206.622 307.132 205.083 317 204.375H276.104L216.896 202.25C202.959 202.655 184.545 203.222 186.987 202.25C190.039 201.036 194.007 195.572 196.448 192.839C198.89 190.107 206.825 178.268 206.519 158.232C206.214 138.197 195.838 134.857 190.649 131.822C186.499 129.393 163.69 129.798 152.805 130.304L131.442 134.857L96.6494 136.072C86.171 135.566 63.2 134.493 55.1429 134.25C45.0714 133.947 40.7987 136.679 36.8312 142.447Z" fill="#3F6881"/>
<path fill-rule="evenodd" clip-rule="evenodd" d="M90.5454 38.0179C91.5031 44.2203 97.8686 66.1116 98.9423 73.254L99.9144 78.1329L101.011 81.0942C116.754 74.1479 128.852 68.2714 142.058 56.4664C130.346 32.447 140.886 42.3258 144.098 54.6498C153.172 50.2986 157.354 44.9815 169.333 46.0801C167.792 46.7491 153.314 49.3067 148.959 55.3447C155.43 55.0794 159.402 52.0172 166.994 53.7213C165.084 54.9526 160.708 54.5748 157.925 54.6959C165.673 55.4889 170.487 57.4814 177.559 60.1198C175.566 61.6797 176.584 61.0972 170.662 59.8026C158.958 57.2449 146.402 55.486 136.333 63.355C134.786 64.5632 133.141 65.7887 131.591 66.9449C129.127 68.7846 127.914 68.9288 128.744 71.6998C126.916 69.6814 124.917 72.1179 122.537 73.4242C117.41 76.2413 104.404 81.3278 102.111 83.6807C102.947 88.6172 106.052 96.1921 107.436 101.627C108.632 106.313 111.368 116.276 111.098 120.702L112.32 120.909C114.952 119.834 123.565 119.606 127.241 119.006C140.372 116.87 154.324 112.648 165.537 105.621C176.523 98.7411 198.624 84.5371 198.142 70.5262C196.752 68.1387 191.775 65.2091 189.567 60.8839L197.745 45.6533C186.23 33.2198 169.481 35.0911 158.204 34.6211C139.159 33.8282 120.455 33.1606 90.5454 38.0179Z" fill="#FDA955"/>
<path fill-rule="evenodd" clip-rule="evenodd" d="M204.709 168.27C204.886 177.783 200.603 184.326 196.68 190.222C192.832 193.948 192.057 196.041 186.953 199.349C182.713 202.096 178.218 202.783 173.909 204.487L220.15 204.331C221.595 200.248 247.207 171.849 251.884 168.195C247.775 168.195 204.927 167.544 204.709 168.27Z" fill="#4F5199"/>
<path fill-rule="evenodd" clip-rule="evenodd" d="M204.57 168.59C204.787 167.867 242.717 168.195 246.826 168.195L245.291 169.392C239.247 175.738 217.634 200.346 216.224 204.331L222.744 204.495L231.644 204.213C235.965 200.81 250.468 184.227 254.592 179.499L258.533 177.714C258.678 177.232 258.718 169.677 258.736 169.006L258.541 167.209L205.211 167.128L204.57 168.59Z" fill="#53539A"/>
<path fill-rule="evenodd" clip-rule="evenodd" d="M205.208 167.128L256.896 167.209L259.673 167.169L261.684 167.01C265.474 166.878 270.598 166.284 274.139 167.241C275.645 166.364 278.512 166.543 280.569 166.615C283.181 164.796 291.457 166.376 298.259 165.26L298.799 165.43C298.218 162.489 300.044 162.864 296.483 163.216C296.457 163.21 293.865 163.296 293.628 163.308C267.914 164.689 229.189 161.491 205.153 163.423L205.208 167.128Z" fill="#F8AB3B"/>
<path fill-rule="evenodd" clip-rule="evenodd" d="M112.32 120.909C116.083 120.99 133.942 121.347 136.031 122.515L153.726 122.143L152.5 130.265C156.684 131.987 156.016 129.623 161.477 129.312L177.818 129.361C175.476 128.686 176.677 129.58 174.808 128.314C177.725 125.981 186.857 127.411 190.963 127.714L175.177 127.336L171.895 113.144C174.46 111.466 178.642 111.198 187.559 104.848C190.336 102.87 199.892 94.7271 201.285 94.11C204.065 90.2087 204.517 90.9958 206.227 85.7969C207.855 82.6712 207.823 78.3547 206.404 70.9009C198.624 29.1769 191.105 38.8279 185.226 37.49C176.143 35.4254 167.043 38.9433 186.529 56.3335C188.827 59.7735 193.528 68.1731 194.509 69.8599C194.991 83.8679 176.523 98.7409 165.537 105.621C154.324 112.648 140.372 116.869 127.241 119.006C123.564 119.606 114.952 119.834 112.32 120.909Z" fill="#E16C35"/>
<path fill-rule="evenodd" clip-rule="evenodd" d="M190.963 127.714C215.034 129.392 238.774 128.06 262.514 128.461L262.447 123.153C261.844 118.36 261.928 101.518 261.638 97.1666L261.948 94.064L214.433 94.3465L213.095 94.3639L201.285 94.1101C199.892 94.7272 190.336 102.87 187.559 104.848C178.642 111.198 174.46 111.466 171.895 113.144L175.177 127.336L190.963 127.714Z" fill="#528BCC"/>
<path fill-rule="evenodd" clip-rule="evenodd" d="M199.262 136.705C199.729 138.617 202.889 141.053 204.201 147.045C205.394 152.481 205.228 155.97 205.559 161.353L205.379 163.423C229.418 161.491 269.562 164.689 295.273 163.308C295.514 163.297 298.102 163.21 298.128 163.216C302.11 164.058 299.864 162.489 300.444 165.43C303.102 164.369 302.153 159.326 302.38 156.019C302.588 152.988 302.644 148.279 303.186 145.526C297.667 143.781 267.705 139.955 261.899 139.989C258.776 140.007 199.509 136.284 199.262 136.705Z" fill="white"/>
<path fill-rule="evenodd" clip-rule="evenodd" d="M191.163 132.668C195.403 133.305 196.027 135.079 199.262 136.705C199.776 135.82 260.044 139.998 261.899 139.989C267.705 139.955 297.667 143.781 303.186 145.526L303.726 131.483C284.397 132.345 264.519 132.339 245.164 132.022C235.637 131.867 225.747 131.497 216.253 131.676C207.292 131.846 196.198 130.534 187.782 131.322L191.163 132.668Z" fill="#E6E6E6"/>
<path fill-rule="evenodd" clip-rule="evenodd" d="M91.183 132.367C91.9041 131.26 92.8403 131.224 93.6014 132.412C93.1216 133.263 93.2622 133.409 92.2915 133.314C90.9279 133.18 91.558 133.043 91.183 132.367ZM99.7013 136.586L99.5979 133.597C98.0853 132.844 97.6496 134.338 97.3766 131.775C98.692 130.888 98.8478 132.26 99.671 130.253C99.2656 128.068 94.8065 128.524 93.6014 128.512C85.0941 128.42 42.0474 127.139 40.4935 128.985C41.6889 129.78 44.3652 132.948 45.6255 134.353C47.7364 136.705 50.33 135.845 52.6795 135.961C67.9209 136.708 84.5067 136.782 99.7013 136.586Z" fill="#818EA0"/>
<path fill-rule="evenodd" clip-rule="evenodd" d="M269.809 180.912L270.111 194.738C271.373 197.48 271.64 196.41 278.57 196.393C284.925 196.376 301.898 196.823 305.981 196.07L306.77 177.746L269.815 178.576L269.809 180.912Z" fill="white"/>
<path fill-rule="evenodd" clip-rule="evenodd" d="M136.031 122.515L111.322 122.357C112.587 123.735 111.055 122.599 112.77 123.202C115.431 124.133 132.688 122.596 135.096 122.804C131.666 125.912 115.936 123.386 111.255 125.076L111.179 127.484C112.72 128.386 111.852 126.246 111.962 128.512H97.275C95.5426 130.456 97.2969 130.828 94.5285 131.688C95.1031 134.17 96.0201 132.723 99.2034 133.452L99.4211 136.347C107.694 136.869 128.553 136.673 136.399 135.298C138.558 133.902 142.702 133.438 145.555 132.752C149.327 131.843 152.554 131.993 153.967 128.943L154.031 127.714L153.726 122.143L136.031 122.515Z" fill="#818EA0"/>
<path fill-rule="evenodd" clip-rule="evenodd" d="M306.169 111.535C306.474 105.612 307.429 99.5597 306.843 93.7178L282.54 93.9427L270.218 94.058L270.311 94.8971L269.977 105.768C273.724 105.384 287.647 105.301 290.444 106.275C287.856 107.112 273.683 106.618 270.253 106.304L269.652 109.649C276.19 111.258 302.49 108.158 306.169 111.535Z" fill="white"/>
<path fill-rule="evenodd" clip-rule="evenodd" d="M101.011 81.0939L102.111 83.6804C104.404 81.3275 117.41 76.241 122.537 73.4239C124.917 72.1176 126.916 69.6811 128.744 71.6995C127.914 68.9285 129.127 68.7843 131.591 66.9447C133.141 65.7884 134.786 64.5629 136.333 63.3547C146.402 55.4857 158.958 57.2446 170.662 59.8023C176.584 61.0969 175.566 61.6794 177.559 60.1195C170.487 57.4811 165.673 55.4886 157.925 54.6956C160.708 54.5745 165.084 54.9523 166.994 53.721C159.402 52.0169 155.43 55.0791 148.959 55.3444C153.314 49.3064 167.792 46.7488 169.333 46.0798C157.354 44.9812 153.172 50.2983 144.098 54.6495C157.235 36.6306 148.805 32.9772 139.377 34.6785C131.211 36.1548 122.61 40.7684 122.749 54.2372C124.635 61.8496 140.906 49.3439 142.058 56.4661C128.852 68.2711 116.754 74.1476 101.011 81.0939Z" fill="#E16C35"/>
<path fill-rule="evenodd" clip-rule="evenodd" d="M279.545 166.552L300.122 166.794C300.229 166.116 300.026 165.534 300.16 164.908C293.361 166.021 282.157 164.729 279.545 166.552Z" fill="#FAEEB9"/>
<path fill-rule="evenodd" clip-rule="evenodd" d="M177.818 129.361L187.783 131.321C196.198 130.534 207.292 131.846 216.253 131.676C225.747 131.497 235.637 131.866 245.164 132.022C264.519 132.339 284.397 132.345 303.726 131.483L304.068 128.279L263.579 128.625L262.514 128.461C238.774 128.06 215.034 129.392 190.963 127.714C186.857 127.411 177.725 125.981 174.808 128.314C176.677 129.58 175.476 128.686 177.818 129.361Z" fill="#F8AB3B"/>
<path d="M40.7987 183.125C39.8831 178.167 48.7948 164.729 91.7663 150.643C145.481 133.036 150.669 129.089 165.318 127.268C179.968 125.447 200.416 130.304 201.026 143.054C201.514 153.254 191.87 168.554 186.987 174.929C182.104 182.417 157.994 198.425 132.357 202.554C122.286 204.176 116.596 205.101 113.675 205.584C113.8 205.586 113.923 205.588 114.045 205.589C111.266 206.019 109.161 206.33 113.675 205.584C99.6702 205.365 69.4425 204.102 57.5844 200.732C42.6299 196.482 40.7987 191.322 40.7987 183.125Z" fill="#6D96AD"/>
<path fill-rule="evenodd" clip-rule="evenodd" d="M263.753 102.72L263.741 117.311L263.579 128.625L304.068 128.279L308.262 127.694L303.92 127.342C303.421 125.018 303.004 128.986 303.79 126.318C303.833 126.171 304.124 125.563 304.254 125.298L269.722 125.993L269.531 122.305L269.644 115.938L269.696 110.753C269.859 107.674 269.417 96.708 270.311 94.8972L270.218 94.0581L263.178 94.1475L263.753 102.72Z" fill="#5291CC"/>
<path fill-rule="evenodd" clip-rule="evenodd" d="M270.033 204.4C277.435 203.694 286.036 204.118 293.593 203.968C298.471 203.87 313.598 202.543 316.68 204.925C316.95 204.495 318.375 204.308 315.4 203.293C313.859 202.768 307.408 203.062 305.345 203.031L305.981 196.07C301.898 196.823 284.925 196.376 278.57 196.393C271.64 196.41 271.373 197.48 270.111 194.738L270.033 204.4Z" fill="white"/>
<path fill-rule="evenodd" clip-rule="evenodd" d="M254.592 179.499C252.337 180.038 231.104 201.272 227.195 204.354C250.434 204.821 243.962 204.937 257.935 204.937C260.111 200.496 258.855 182.045 258.463 176.733C255.561 177.57 256.658 178.452 254.592 179.499Z" fill="#555396"/>
<path fill-rule="evenodd" clip-rule="evenodd" d="M38.7414 127.393L40.5056 128.899C42.2195 127.298 88.8394 128.936 98.2227 129.016C99.5519 129.026 105.329 128.104 105.777 130L112.495 129.569C112.438 127.538 112.78 128.362 111.972 127.553L38.6624 126.357L38.7414 127.393Z" fill="#376972"/>
<path fill-rule="evenodd" clip-rule="evenodd" d="M269.531 122.305L304.959 122.887C305.02 120.015 305.197 125.358 304.724 121.644C304.449 119.482 304.672 118.954 305.279 116.783C305.308 116.379 307.043 116.737 303.688 115.935C300.165 115.09 271.034 115.713 269.644 115.938L269.531 122.305Z" fill="#E6E6E6"/>
<path fill-rule="evenodd" clip-rule="evenodd" d="M267.995 181.465C267.891 182.748 263.619 183.942 261.162 185.407C261.112 189.288 261.199 195.678 259.455 198.481L259.313 202.512L262.401 203.674C263.109 204.014 262.575 203.962 263.643 204.227C264.873 204.536 268.32 204.181 270.131 204.326L270.033 204.4L269.809 180.912C268.019 181.586 269.548 181.439 267.995 181.465Z" fill="#7667AB"/>
<path fill-rule="evenodd" clip-rule="evenodd" d="M269.696 110.754L269.644 115.938C271.034 115.713 300.165 115.09 303.688 115.935C307.043 116.737 305.308 116.379 305.278 116.783H305.772L306.169 111.535C299.765 111.426 293.355 110.973 286.913 110.889C281.161 110.814 275.401 111.278 269.696 110.754Z" fill="white"/>
<path fill-rule="evenodd" clip-rule="evenodd" d="M269.824 173.432L307.139 173.556C306.465 172.261 306.582 173.071 306.979 171.491C305.496 168.709 301.851 169.689 298.601 169.654C295.441 169.62 292.301 169.588 289.141 169.603C282.818 169.631 276.144 169.585 269.853 169.911L269.824 173.432Z" fill="#E6E6E6"/>
<path fill-rule="evenodd" clip-rule="evenodd" d="M269.827 181.728L269.815 178.576L269.824 173.432L269.853 169.911C289.739 169.6 301.094 167.613 294.347 166.662C292.655 166.422 289.281 167.082 284.864 166.627C281.324 165.67 264.249 166.979 260.459 167.114C259.365 170.312 259.342 185.119 259.972 186.485C260.578 186.036 264.943 184.522 265.465 183.936C265.723 183.648 269.763 181.751 269.827 181.728Z" fill="#625DA3"/>
<path fill-rule="evenodd" clip-rule="evenodd" d="M269.531 122.305L269.722 125.993L304.254 125.298L305.752 125.01L305.772 116.783H305.279C304.672 118.954 304.449 119.482 304.724 121.645C305.197 125.358 305.02 120.015 304.959 122.887L269.531 122.305Z" fill="white"/>
<path fill-rule="evenodd" clip-rule="evenodd" d="M269.969 174.833L269.879 177.019C274.945 177.353 283.19 177.616 288.007 177.397L302.525 177.535C305.575 177.642 306.41 178.351 306.822 175.992C307.316 173.141 305.955 174.435 298.601 174.355C292.499 174.288 273.918 174.193 269.969 174.833Z" fill="#E6E6E6"/>
<path fill-rule="evenodd" clip-rule="evenodd" d="M269.853 169.911C276.144 169.585 282.818 169.631 289.141 169.603C292.301 169.588 295.441 169.62 298.601 169.655C301.851 169.689 305.496 168.709 306.979 171.491C312.907 165.479 303.343 166.428 299.484 166.679L282.215 166.615C280.157 166.543 277.29 166.364 275.784 167.241C278.683 168.051 282.104 167.604 285.183 167.674C284.881 165.805 284.617 168.778 284.594 168.997L288.149 168.893C285.044 168.432 271.742 168.296 269.853 169.911Z" fill="#9366A3"/>
<path fill-rule="evenodd" clip-rule="evenodd" d="M111.255 125.076C115.936 123.386 131.666 125.912 135.096 122.803C132.688 122.596 115.431 124.133 112.77 123.201C111.055 122.599 112.587 123.735 111.322 122.356L111.098 120.701C111.368 116.275 108.632 106.313 107.436 101.627C106.052 96.1918 92.4392 48.5913 91.6006 43.6547L90.5037 41.0683L89.4068 38.1069C89.6708 43.8335 103.977 95.7103 105.611 101.754C107.836 109.975 110.277 116.425 111.255 125.076Z" fill="#376972"/>
<path fill-rule="evenodd" clip-rule="evenodd" d="M258.736 169.006L259.455 202.512C260.187 202.327 260.961 205.216 261.15 201.537C261.313 198.316 261.138 187.221 261.162 185.407L261.318 167.169L258.541 167.209L258.736 169.006Z" fill="#9366A3"/>
<path fill-rule="evenodd" clip-rule="evenodd" d="M269.969 174.833C273.918 174.193 292.499 174.288 298.601 174.354C305.955 174.435 307.316 173.14 306.822 175.992C306.41 178.351 305.574 177.642 302.525 177.535L288.007 177.396C283.19 177.616 274.945 177.353 269.879 177.019L269.969 174.833ZM269.815 178.576L306.77 177.745L307.139 173.556L269.824 173.432L269.815 178.576Z" fill="#E6E6E6"/>
<path fill-rule="evenodd" clip-rule="evenodd" d="M269.696 110.754C275.401 111.279 281.161 110.814 286.913 110.889C293.355 110.973 299.765 111.426 306.169 111.535C302.49 108.159 276.19 111.258 269.652 109.649L270.253 106.304C273.683 106.619 287.856 107.112 290.444 106.276C287.647 105.301 273.724 105.385 269.977 105.768L270.311 94.8975C269.417 96.7083 269.859 107.674 269.696 110.754Z" fill="#E6E6E6"/>
<path fill-rule="evenodd" clip-rule="evenodd" d="M258.158 174.081L257.502 180.914C257.894 186.226 258.527 189.504 257.462 194.905C257.621 198.181 257.595 200.923 256.73 204.043C252.543 204.55 246.632 204.173 241.798 204.441L232.944 204.265L226.316 204.008C229.459 205.629 266.945 205.542 270.131 204.325C268.32 204.181 264.873 204.536 263.643 204.227C262.575 203.962 263.109 204.014 262.401 203.674L259.313 202.512L259.455 198.481L258.736 169.006C258.718 169.677 258.3 173.596 258.158 174.081Z" fill="#4F3F6C"/>
<path fill-rule="evenodd" clip-rule="evenodd" d="M111.322 122.357L136.031 122.515C133.941 121.348 116.083 120.99 112.32 120.909L111.098 120.702L111.322 122.357Z" fill="#A06B57"/>
<path fill-rule="evenodd" clip-rule="evenodd" d="M305.752 125.01L304.254 125.298C304.124 125.563 303.833 126.172 303.79 126.319C303.003 128.986 303.421 125.018 303.92 127.342L308.262 127.694C309.695 126.627 310.157 126.601 309.895 124.903L305.752 125.01Z" fill="#6397D7"/>
<path fill-rule="evenodd" clip-rule="evenodd" d="M262.447 123.152L262.514 128.461L263.579 128.625L263.741 117.311C261.606 118.005 262.479 120.713 262.447 123.152Z" fill="#F0DACE"/>
<path fill-rule="evenodd" clip-rule="evenodd" d="M261.638 97.1666C263.414 99.5858 261.916 100.243 263.753 102.72L263.178 94.1476L261.948 94.064L261.638 97.1666Z" fill="#C9D4D5"/>
<path fill-rule="evenodd" clip-rule="evenodd" d="M81.4935 132.262C82.2828 132.916 80.9566 133.049 83.8266 133.178C85.8695 133.271 85.5735 133.129 86.5833 132.305C84.9815 131.154 83.0111 131.189 81.4935 132.262Z" fill="#376972"/>
</g>
</g>
<defs>
<clipPath id="clip0_658_6457">
<rect width="340" height="220" fill="white"/>
</clipPath>
</defs>
</svg>
