<svg width="40" height="40" viewBox="0 0 40 40" fill="none" xmlns="http://www.w3.org/2000/svg">
<path d="M19.9997 3.33334C29.2047 3.33334 36.6663 10.795 36.6663 20C36.6663 29.205 29.2047 36.6667 19.9997 36.6667C10.7947 36.6667 3.33301 29.205 3.33301 20C3.33301 10.795 10.7947 3.33334 19.9997 3.33334ZM19.9997 6.66668C16.4635 6.66668 13.0721 8.07143 10.5716 10.5719C8.0711 13.0724 6.66634 16.4638 6.66634 20C6.66634 23.5362 8.0711 26.9276 10.5716 29.4281C13.0721 31.9286 16.4635 33.3333 19.9997 33.3333C23.5359 33.3333 26.9273 31.9286 29.4278 29.4281C31.9282 26.9276 33.333 23.5362 33.333 20C33.333 16.4638 31.9282 13.0724 29.4278 10.5719C26.9273 8.07143 23.5359 6.66668 19.9997 6.66668ZM19.9997 10C20.4079 10.0001 20.8019 10.1499 21.107 10.4212C21.412 10.6925 21.6069 11.0663 21.6547 11.4717L21.6663 11.6667V19.31L26.178 23.8217C26.4769 24.1216 26.6505 24.5241 26.6634 24.9473C26.6763 25.3706 26.5276 25.7829 26.2476 26.1005C25.9675 26.4181 25.5771 26.6172 25.1556 26.6573C24.734 26.6975 24.313 26.5757 23.978 26.3167L23.8213 26.1783L18.8213 21.1783C18.5623 20.9191 18.3959 20.5817 18.348 20.2183L18.333 20V11.6667C18.333 11.2246 18.5086 10.8007 18.8212 10.4882C19.1337 10.1756 19.5576 10 19.9997 10Z" fill="#0092FC"/>
</svg>
