<svg width="582" height="581" viewBox="0 0 582 581" fill="none" xmlns="http://www.w3.org/2000/svg">
<path fill-rule="evenodd" clip-rule="evenodd" d="M45.8632 92.5018L45.7458 93.7645L45.1496 110.793L45.3699 111.496L142.498 110.605L142.865 151.372L160.209 150.659C159.708 145.471 159.316 114.041 160.418 110.877C172.519 106.392 238.277 111.71 258.163 109.74L258.327 93.0339C242.101 93.1674 225.837 93.1938 209.733 93.4648L163.902 93.6243C160.286 92.6496 163.383 94.2422 161.03 91.9799L160.96 50.2894L142.95 50.4459L142.501 92.1602L45.8632 92.5018Z" fill="#F4625B"/>
<path fill-rule="evenodd" clip-rule="evenodd" d="M42.5631 242.045L42.5396 440.851L42.9091 509.867L45.3369 504.573L45.36 444.296L45.2426 239.102L45.3164 152.283L45.5258 143.477L74.5763 129.345L96.5263 116.793L74.8519 116.778L45.0473 116.75L45.1495 110.793L45.3214 92.1583L44.7834 85.8655C45.8741 74.9961 45.3392 70.435 45.3623 51.5683L45.1495 10.6802L42.8069 10.6858L42.5631 242.045Z" fill="#294886"/>
<path fill-rule="evenodd" clip-rule="evenodd" d="M168.835 151.279C178.455 151.567 223.503 153.079 228.663 150.388L168.347 119.3L168.835 151.279Z" fill="#413969"/>
<path d="M403.749 232.721H392.231L419.776 313.214L486.886 440.704C472.362 469.202 455.935 515.098 506.418 470.702C556.9 426.305 527.452 326.547 506.418 282.217V205.223H499.907V123.73L496.902 120.23V104.731H479.373V91.2321C479.373 88.1741 470.359 71.1754 470.359 71.1754C470.359 71.1754 461.344 86.6742 461.344 91.2321V104.731H442.813V120.23L439.308 123.73V205.223H433.799V232.721H403.749Z" fill="#456C91"/>
<path fill-rule="evenodd" clip-rule="evenodd" d="M75.7494 148.951L72.8431 151.619L135.64 151.402L135.345 118.99C125.584 123.97 82.8916 148.581 75.7494 148.951Z" fill="#294886"/>
<path fill-rule="evenodd" clip-rule="evenodd" d="M135.649 83.398L135.524 50.425L75.6126 51.2119L135.649 83.398Z" fill="#294886"/>
<path fill-rule="evenodd" clip-rule="evenodd" d="M228.334 50.4822L168.268 50.8405L168.959 82.9253L228.334 50.4822Z" fill="#294886"/>
<path fill-rule="evenodd" clip-rule="evenodd" d="M259.178 144.348L258.924 117.018L207.693 117.337L259.178 144.348Z" fill="#413969"/>
<path fill-rule="evenodd" clip-rule="evenodd" d="M213.034 86.1086C218.038 84.1087 250.411 84.2134 257.962 84.4745L258.155 58.9047L206.299 85.8411L213.034 86.1086Z" fill="#3E3868"/>
<path fill-rule="evenodd" clip-rule="evenodd" d="M178.963 85.9815C192.935 86.0722 190.314 86.4562 201.715 80.4533C209.494 76.3581 253.072 55.1174 256.929 50.6923C243.773 49.5226 244.064 50.478 233.669 56.0561C227.553 59.3387 221.28 62.4589 215.185 65.7389C209.751 68.6629 182.366 81.691 178.963 85.9815Z" fill="#FD843D"/>
<path fill-rule="evenodd" clip-rule="evenodd" d="M238.877 149.129C244.154 150.964 251.828 153.475 256.521 150.082C249.035 148.073 229.73 135.777 220.941 131.181C200.694 120.593 196.269 115.652 179.977 116.397C181.278 118.214 180.087 116.903 181.906 118.455L209.529 133.211C218.343 137.71 231.071 143.661 238.877 149.129Z" fill="#FC8444"/>
<path fill-rule="evenodd" clip-rule="evenodd" d="M73.4467 65.2689L75.2536 66.1887C82.2928 68.8996 91.1086 74.4403 98.0172 78.091C109.91 84.3751 110.658 87.2526 125.171 85.7149C122.294 81.4999 83.3585 61.193 76.2163 58.9122C72.1758 64.7156 77.9714 60.8657 73.4467 65.2689Z" fill="#F4625B"/>
<path fill-rule="evenodd" clip-rule="evenodd" d="M74.6648 135.103L74.6697 136.437C73.0014 142.911 72.3585 138.383 74.5562 143.612L112.432 123.824C115.773 122.068 121.941 119.399 123.971 116.644C105.649 113.868 91.2823 130.579 74.6648 135.103Z" fill="#F4625B"/>
<path fill-rule="evenodd" clip-rule="evenodd" d="M160.209 150.659C162.339 146.692 162.119 138.668 161.716 130.508C161.358 123.252 160.854 115.887 161.727 111.169L258.091 110.574C260.229 106.76 260.562 95.0157 257.487 92.0547L161.029 91.9799C163.383 94.2421 160.286 92.6495 163.902 93.6242L209.733 93.4647C225.837 93.1937 242.101 93.1673 258.327 93.0339L258.163 109.74C238.277 111.71 172.518 106.392 160.418 110.877C159.316 114.041 159.708 145.471 160.209 150.659Z" fill="#D96437"/>
<path fill-rule="evenodd" clip-rule="evenodd" d="M73.4467 65.2687C77.9714 60.8656 72.1759 64.7154 76.2164 58.9121C68.2042 50.1379 57.3036 51.2187 47.237 50.314C50.6839 54.521 67.4195 62.7586 73.4467 65.2687Z" fill="#F4625B"/>
<path fill-rule="evenodd" clip-rule="evenodd" d="M46.9088 151.842L59.9113 151.504L72.5666 145.624L74.5564 143.612C72.3587 138.383 73.0016 142.911 74.6699 136.437C69.5834 137.978 49.8257 148.026 46.9088 151.842Z" fill="#F4625B"/>
<path fill-rule="evenodd" clip-rule="evenodd" d="M44.7835 85.8655L75.0515 85.9604L98.0082 85.2461L75.8564 74.2943C68.489 71.9225 44.3099 55.8124 45.5641 59.1068L44.7835 85.8655Z" fill="#294886"/>
<path fill-rule="evenodd" clip-rule="evenodd" d="M45.1496 110.793L74.9096 110.864L74.6889 110.16C64.4208 109.83 57.0307 111.012 46.2592 109.071L46.8782 94.1727L75.2851 93.1315L75.4025 91.8693L45.3215 92.1584L45.1496 110.793Z" fill="#CF6A51"/>
<path fill-rule="evenodd" clip-rule="evenodd" d="M213.034 86.1086L259.08 85.5807L258.964 59.1741L258.155 58.9047L257.962 84.4745C250.411 84.2134 218.038 84.1087 213.034 86.1086Z" fill="#888889"/>
<path fill-rule="evenodd" clip-rule="evenodd" d="M235.399 42.3553C228.202 44.3466 215.845 47.5638 209.946 52.2289C188.39 61.8852 173.737 86.8885 169.705 105.737C157.824 153.658 180.459 184.095 168.477 212.957C164.072 223.571 152.537 242.774 145.893 252.435C138.61 269.888 136.308 271.975 138.259 292.952C139.45 305.747 144.123 318.477 149.028 330.253L156.709 326.26C152.321 301.132 148.463 279.617 160.244 255.698C156.231 280.827 153.363 284.368 166.939 306.867C171.809 300.954 172.502 294.533 180.775 286.143C185.062 281.795 195.993 272.854 202.206 273.444C225.579 275.665 225.06 304.552 232.487 312.307L233.413 311.716L233.431 309.669C229.681 303.94 227.555 292.19 222.113 284.155C213.568 271.538 207.039 275.621 199.254 270.22C201.54 265.318 231.728 262.529 238.465 261.746L238.496 255.413C225.382 246.399 223.627 248.984 213.723 233.539C207.387 223.657 203.425 208.434 203.503 196.694C193.982 192.862 189.6 180.424 185.479 171.624C183.145 166.641 180.989 159.388 187.363 156.318C194.067 153.088 196.915 190.73 202.206 192.243L203.825 151.693L207.468 151.684C212.901 151.693 225.056 152.132 230.018 152.726C235.218 153.349 244.996 157.04 249.077 155.308C253.773 150.426 233.79 144.601 230.063 144.269C218.963 143.279 213.307 146.613 203.794 149.743L204.184 145.39C204.173 138.781 203.88 140.682 208.072 136.406L225.151 116.015C228.8 111.077 232.475 106.439 235.845 101.316C241.662 92.4746 243.738 87.2612 247.734 91.896L247.586 92.0256C253.029 95.1696 263.944 114.532 268.079 120.912C271.254 125.81 274.758 130.808 278.385 135.357C281.12 138.789 287.787 145.784 289.385 149.012C284.83 148.842 274.677 151.565 274.874 157.04L282.085 157.028C283.996 155.365 289.217 155.6 291.969 155.443C296.649 155.175 297.06 155.453 300.489 158.325C309.201 165.621 318.518 170.715 328.541 176.009C332.518 178.109 342.017 181.099 344.335 182.665C342.774 186.806 338.703 192.369 336.108 196.324C333.021 201.031 330.985 205.286 325.04 206.327C322.119 211.405 321.923 220.025 316.928 227.926C312.158 235.469 307.403 236.949 301.449 242.383L303.187 260.409C310.643 261.001 349.997 265.405 352.915 270.193C347.542 274.998 338.424 271.761 330.236 284.984C326.925 290.331 320.438 305.517 319.964 311.494L320.579 311.828C323.079 309.305 328.361 290.198 334.274 282.684C341.321 273.729 352.403 270.127 361.287 279.034C369.791 283.472 385.052 302.489 383.26 313.283C375.957 314.723 376.88 310.674 368.351 317.329C344.387 336.028 327.665 366.174 311.675 390.636L291.276 443.531L288.08 457.902L295.806 458.577L296.079 457.23L314.401 405.355L321.795 437.019C323.149 443.556 323.899 451.69 323.785 458.392L325.667 457.964L323.212 431.392C317.149 421.217 314.951 402.933 319.788 392.547C324.856 381.662 329.958 371.724 336.408 361.57C342.145 352.539 374.156 310.921 385.224 319.375L408.802 331.065L410.23 332.018L408.984 333.053L392.937 458.417L394.905 458.427L410.585 333.238C421.984 337.397 453.167 403.805 460.455 417.963C465.458 427.682 504.469 504.68 506.572 506.807C515.601 507.132 525.633 483.871 527.688 476.432C531.859 461.335 533.526 444.178 531.752 428.619C528.234 397.783 512.481 409.649 497.249 384.495C483.836 362.344 492.813 298.358 474.211 279.034C430.418 233.539 423.442 249.416 413.233 230.199C410.433 227.018 403.445 208.153 403.2 203.829C407.074 206.465 410.277 212.916 413.163 217.136C416.1 221.429 421.375 226.228 423.442 229.693C439.762 243.322 445.598 247.345 464.736 257C479.393 264.395 485.936 286.066 489.474 300.827C493.738 318.62 495.022 337.052 508.496 350.349C517.261 359 534.809 377.789 543.113 384.495C540.092 357.164 509.764 330.045 502.109 304.073C497.54 288.571 495.571 271.478 488.239 257.007C477.744 236.295 466.957 241.034 454.55 229.693C452.047 228.338 448.975 226.263 448.083 223.675C437.195 215.524 433.379 172.629 416.452 152.943C398.227 131.749 394.143 118.405 376.551 91.896C362.834 71.2259 352.669 60.3637 327.487 46.472C317.626 41.2794 293.179 35.8275 278.938 38.5821C270.079 39.9366 262.8 45.5688 258.94 48.8272C251.321 45.2472 243.803 41.9638 235.399 42.3553Z" fill="#334160"/>
<path fill-rule="evenodd" clip-rule="evenodd" d="M344.125 183.967C338.333 188.958 335.176 204.601 325.051 206.346C322.038 211.696 321.957 220.019 316.948 227.942C312.209 235.438 307.482 236.993 301.465 242.385L303.196 260.397C310.617 260.98 344.874 267.076 347.504 271.914C341.694 276.892 338.605 271.72 330.256 285C327.1 290.02 320.387 305.636 319.989 311.483L320.566 311.848C322.21 310.478 328.686 291.326 331.427 286.817C334.917 281.074 345.919 271.852 352.494 273.386C363.146 275.871 386.205 301.471 383.124 313.016C378.434 314.518 377.5 311.29 371.327 315.235C364.117 319.843 355.663 328.979 350.103 335.279C333.378 354.232 317.071 378.711 306.694 401.704C303.543 408.686 293.396 438.931 291.653 441.435L287.583 458.754L295.778 458.543L313.798 405.178C317.431 410.658 324.126 450.486 323.799 458.362L325.64 457.964L323.205 431.412C321.663 428.833 318.742 415.902 318.033 412.294C316.058 402.248 315.554 401.602 319.771 392.537C324.747 381.843 329.962 371.47 336.392 361.557C342.161 352.661 374.248 310.746 385.242 319.367L409.171 330.861C408.082 349.336 402.738 375.059 400.011 393.968C396.889 415.619 393.512 436.443 392.964 458.408L394.888 458.405C395.383 445.18 407.922 337.861 411.65 332.961C429.272 349.643 443.42 385.985 455.429 408.404C469.215 434.138 482.049 461.418 496.511 486.652C503.418 442.369 468.438 349.932 436.884 317.803C425.583 306.297 416.814 305.095 407.468 289.398C387.983 256.671 395.537 212.196 390.215 191.802C387.485 181.342 378.742 184.168 370.163 184.693C362.616 185.155 349.009 182.925 344.125 183.967Z" fill="#2A3652"/>
<path fill-rule="evenodd" clip-rule="evenodd" d="M426.633 377.205C433.924 374.537 442.708 389.169 434.03 391.855C424.985 394.654 418.326 380.245 426.633 377.205ZM511.29 514.492C509.258 511.183 484.382 444.146 465.861 415.86C447.34 387.574 421.984 337.397 410.585 333.238L394.905 458.427C407.95 460.062 401.324 456.158 411.264 464.348L412.164 436.176C416.788 430.198 420.033 422.785 423.766 415.86C426.135 411.465 431.057 395.479 438.129 399.002C442.932 402.995 422.525 441.326 418.198 452.649C414.773 461.612 413.204 463.812 419.315 471.127C432.934 487.429 435.328 478.468 443.812 463.146C447.215 457 457.166 433.232 464.34 434.198C469.617 437.578 469.702 457.296 465.861 464.094C461.115 472.491 455.644 477.349 448.455 483.353C457.139 482.54 495.682 481.162 494.07 495.415C485.257 505.718 442.596 488 434.692 489.532C433.748 495.783 442.796 496.552 448.968 498.577C460.246 502.278 494.727 511.774 500.342 518.349C493 521.892 436.704 497.204 425.619 496.97C425.989 501.634 446.9 516.856 451.597 520.692C457.348 525.39 479.56 537.465 470.983 545.319C457.035 549.459 433.895 521.42 424.362 517.234C430.624 523.445 439.235 552.753 431.298 557.815L411.625 528.66C413.96 536.173 420.214 542.015 418.349 551.811L417.129 552.606L398.6 521.477L394.508 536.692L389.789 556.331C399.873 557.2 407.373 561.155 419.689 561.315C436.043 561.527 463.459 555.986 478.272 548.793C481.465 547.242 498.467 535.398 499.508 536.076C503.233 529.508 511.875 520.125 511.29 514.492Z" fill="#FDA955"/>
<path fill-rule="evenodd" clip-rule="evenodd" d="M144.294 463.399C134.278 462.131 95.9672 430.607 104.782 422.109C111.543 415.591 142.568 457.204 144.294 463.399ZM156.709 326.26L149.028 330.253C141.747 336.584 123.623 348.861 118.858 355.028C111.993 363.914 105.916 380.571 101.092 391.186C94.3825 405.948 85.536 411.548 79.519 423.564C73.9036 434.778 68.9833 450.758 62.6013 461.203L61.0484 463.149C60.8254 465.655 51.0442 486.128 49.2059 488.072L47.8923 490.937C46.409 498.624 41.0787 501.783 40.6725 512.565C40.4313 518.973 42.6396 531.183 45.1771 536.799C79.723 556.875 139.393 565.343 178.94 564.333L164.959 505.976L156.862 504.664C152.602 504.025 154.662 502.896 150.78 502.896C150.78 504.664 154.507 501.697 148.678 500.896C146.752 496.685 142.959 503.44 145.667 500.896C138.754 501.719 154.061 499.819 144.294 499.974C141.728 498.053 140.665 500.896 140.164 497.25C143.809 492.258 130.461 501.754 136.157 498.053C140.509 495.225 132.201 498.967 134.154 497.25L132.154 497.25C128.256 502.947 83.4701 522.036 74.4741 523.86C55.0942 527.788 63.3952 512.314 72.7425 505.645C84.2034 497.467 91.7045 498.022 102.163 492.992C96.694 492.979 56.1092 497.504 62.9738 482.072C68.7527 469.081 94.5157 473.762 103.575 473.728C99.0075 469.917 75.1196 453.689 80.5108 446.784C89.0969 441.025 109.824 458.303 115.037 464.648C123.318 474.725 129.04 491.085 141.728 492.577C145.988 470.52 149.154 441.372 151.057 418.813C152.667 399.738 151.582 379.066 147.784 360.281C147.072 356.762 143.556 346.418 145.155 343.918C151.87 348.074 153.943 402.337 153.482 411.726C152.343 434.925 148.051 457.848 145.667 480.87C148.194 477.936 147.086 479.361 150.78 477.696C153.437 476.5 152.889 476.265 153.651 473.342L154.662 496.47L163.285 498.053C162.253 489.31 157.037 475.825 156.828 468.042C156.488 455.422 174.435 458.592 183.285 458.577C207.65 458.536 232.003 458.596 256.364 458.651L256.127 457.403L229.497 457.036C224.195 455.897 225.439 428.36 225.184 422.513C224.924 416.524 224.634 410.492 224.296 404.513C223.651 393.113 224.589 397.234 226.568 388.706C226.473 388.652 203.631 355.917 200.541 352.002C195.471 345.581 174.555 323.299 168.015 321.299L156.709 326.26Z" fill="#FDA955"/>
<path fill-rule="evenodd" clip-rule="evenodd" d="M235.798 215.49C240.296 214.74 279.34 217.813 282.043 219.546C278.301 229.355 266.678 234.84 256.373 233.497C248.507 232.472 235.581 223.622 235.798 215.49ZM258.312 207.341C255.939 207.165 253.497 204.55 252.806 202.017C252.091 199.392 254.223 197.003 255.609 194.661C259.504 188.077 257.934 183.515 258.388 176.378L259.78 185.882C259.776 189.253 259.322 191.816 257.684 194.761C252.539 204.006 252.954 198.848 258.312 207.341ZM204.184 145.39L203.794 149.744C213.307 146.614 218.963 143.28 230.063 144.269C233.79 144.602 253.773 150.426 249.077 155.308C247.361 157.117 233.237 153.032 229.832 152.572C222.026 151.516 215.093 151.918 207.468 151.684L203.825 151.693L203.553 159.093L202.594 168.233L194.73 169.284C188.924 176.32 199.954 178.811 202.502 181.87L203.503 196.694C203.425 208.434 208.893 223.161 215.229 233.043C223.428 243.914 229.31 248.886 238.493 256.039C245.025 258.686 260.446 262.27 272.953 258.245C281.958 255.346 290.553 247.328 298.122 244.532C294.45 267.833 259.043 276.927 238.805 275.169C239.525 281.191 237.59 305.991 233.431 309.669L233.413 311.716L251.058 309.57L302.673 309.35L319.196 311.483C309.677 292.723 303.416 284.163 303.187 260.409L301.449 242.383C307.403 236.949 312.158 235.469 316.928 227.926C321.923 220.025 322.119 211.405 325.04 206.327L331.127 185.309C324.905 176.633 317.933 175.086 305.86 165.102C303.175 164.099 299.238 159.605 296.59 157.776C292.167 154.721 287.166 157.052 282.085 157.028L274.874 157.04C274.677 151.565 284.83 148.842 289.385 149.012C282.561 147.341 270.668 128.802 266.548 122.376C263.369 117.418 260.339 111.986 257.286 106.886C255.469 103.851 248.223 93.7721 247.586 92.0257L247.734 91.8961C241.607 101.868 235.789 112.145 228.481 121.247C224.536 126.16 209.28 144.309 204.184 145.39Z" fill="#FDDBCC"/>
<path fill-rule="evenodd" clip-rule="evenodd" d="M62.6012 461.203C68.9832 450.758 73.9035 434.778 79.5189 423.564C85.5359 411.548 94.3824 405.948 101.092 391.186C105.916 380.571 111.993 363.914 118.858 355.028C123.623 348.861 141.747 336.584 149.028 330.253C144.123 318.477 139.45 305.747 138.259 292.952C136.307 271.975 138.61 267.804 145.893 252.435L145.595 239.926L78.1931 239.67L78.1841 318.088L54.4086 318.295C52.9874 341.12 54.4014 369.641 55.3099 392.647C55.7657 404.183 56.5623 415.713 57.8146 427.191C58.6031 434.418 62.9919 456.345 62.6012 461.203Z" fill="#456C91"/>
<path fill-rule="evenodd" clip-rule="evenodd" d="M411.264 464.348L410.672 473.57L410.104 487.814C414.133 486.26 423.584 481.148 422.838 488.494C420.101 489.832 416.434 490.222 413.252 491.591C410.217 492.897 407.685 494.843 404.903 496.066L398.6 521.477L417.129 552.606L418.349 551.811C420.214 542.015 413.96 536.173 411.625 528.66L431.298 557.815C439.235 552.753 430.624 523.445 424.362 517.234C433.895 521.42 457.035 549.459 470.983 545.319C479.56 537.465 457.348 525.39 451.596 520.692C446.9 516.856 425.989 501.634 425.619 496.97C436.704 497.204 493 521.892 500.342 518.349C494.727 511.774 460.246 502.278 448.968 498.577C442.796 496.552 433.748 495.783 434.692 489.532C442.596 488 485.256 505.718 494.07 495.415C495.682 481.162 457.139 482.539 448.455 483.353C455.644 477.349 461.115 472.491 465.861 464.094C469.702 457.296 469.617 437.578 464.34 434.198C457.166 433.232 447.214 457 443.812 463.146C435.328 478.468 432.934 487.429 419.315 471.127C413.204 463.812 414.773 461.612 418.198 452.649C422.525 441.326 442.932 402.995 438.129 399.002C431.057 395.479 426.135 411.465 423.766 415.86C420.033 422.785 416.788 430.198 412.164 436.176L411.264 464.348Z" fill="#E16C35"/>
<path fill-rule="evenodd" clip-rule="evenodd" d="M230.322 309.121C232.373 318.096 241.12 358.355 243.994 368.423C248.387 383.805 267.845 458.376 269.243 458.515L301.039 458.721L321.973 309.352L230.322 309.121Z" fill="#F9F8FA"/>
<path fill-rule="evenodd" clip-rule="evenodd" d="M179.479 565.145L183.246 571.086L383.613 571.109L389.789 556.331L394.508 536.692C394.06 536.662 352.434 548.043 346.468 549.256C329.158 552.775 310.688 555.381 293.083 556.805C256.127 559.795 215.894 560.391 179.479 565.145Z" fill="#818EA0"/>
<path fill-rule="evenodd" clip-rule="evenodd" d="M132.154 497.25C127.152 493.196 121.272 490.983 118.484 483.965L121.6 481.462C127.296 486.692 131.766 494.627 141.391 495.361L141.728 492.577C129.04 491.085 123.318 474.725 115.037 464.647C109.824 458.303 89.0969 441.025 80.5108 446.784C75.1196 453.688 99.0075 469.917 103.575 473.727C94.5157 473.762 68.7527 469.081 62.9738 482.072C56.1092 497.504 96.694 492.979 102.163 492.992C91.7045 498.022 84.2034 497.467 72.7425 505.644C63.3952 512.314 55.0942 527.788 74.4741 523.86C83.4701 522.036 128.256 502.947 132.154 497.25Z" fill="#E16C35"/>
<path fill-rule="evenodd" clip-rule="evenodd" d="M193.869 326.696C196.364 329.885 209.954 340.918 214.779 346.034C217.68 349.111 232.19 368.534 232.27 368.586C249.905 364.867 238.995 345.704 234.496 332.713C230.015 319.776 225.47 306.163 219.217 294.001C210.719 277.473 197.881 280.233 187.149 292.531C169.594 312.648 209.187 311.49 193.869 326.696Z" fill="#FDA955"/>
<path fill-rule="evenodd" clip-rule="evenodd" d="M183.246 571.086L179.479 565.145L178.94 564.333C139.393 565.343 79.7231 556.875 45.1772 536.799C47.7932 545.922 54.2853 558.134 61.2704 564.613C71.7008 574.288 84.2119 571.413 97.4926 571.413C118.488 571.412 165.242 573.965 183.246 571.086Z" fill="#E16C35"/>
<path fill-rule="evenodd" clip-rule="evenodd" d="M166.939 306.867L165.337 318.767C164.58 309.422 191.991 326.175 193.869 326.696C209.187 311.49 169.594 312.648 187.15 292.53C197.881 280.232 210.72 277.473 219.217 294.001C225.471 306.163 230.015 319.776 234.496 332.713C238.995 345.704 249.905 364.867 232.27 368.586C235.348 377.174 245.196 392.289 249.71 403.146C252.224 409.189 262.066 438.673 263.937 441.036L232.487 312.307C225.061 304.552 225.579 275.665 202.207 273.444C195.993 272.854 185.062 281.795 180.775 286.143C172.503 294.533 171.809 300.954 166.939 306.867Z" fill="#E16C35"/>
<path fill-rule="evenodd" clip-rule="evenodd" d="M389.789 556.331L383.613 571.109C394.222 572.649 447.055 572.095 457.72 570.214C473.569 567.419 498.041 553.617 499.508 536.076C498.467 535.398 481.465 547.242 478.272 548.793C463.459 555.986 436.043 561.527 419.689 561.315C407.373 561.155 399.873 557.2 389.789 556.331Z" fill="#E16C35"/>
<path fill-rule="evenodd" clip-rule="evenodd" d="M320.844 311.9L321.679 311.911C322.195 305.828 329.251 290.371 332.853 284.929C341.759 271.47 350.508 274.414 352.512 273.414C349.338 268.542 311.541 260.519 303.431 259.915C303.68 284.093 310.49 292.805 320.844 311.9Z" fill="#E16C35"/>
<path fill-rule="evenodd" clip-rule="evenodd" d="M165.337 318.767L165.501 321.188C182.681 321.436 196.136 334.762 207.443 346.376C216.751 355.937 235.514 374.366 226.568 388.706C224.589 397.234 223.651 393.113 224.296 404.513C224.634 410.492 224.924 416.524 225.184 422.513C225.439 428.36 224.195 455.897 229.497 457.036L227.182 393.203L231.471 377.995C242.676 397.7 260.795 436.246 263.326 458.59L269.243 458.515L263.937 441.036C262.066 438.673 252.224 409.189 249.71 403.146C245.196 392.289 235.348 377.174 232.27 368.586C232.19 368.534 217.68 349.111 214.779 346.034C209.954 340.918 196.364 329.885 193.869 326.696C191.991 326.175 164.58 309.422 165.337 318.767Z" fill="#E16C35"/>
<path fill-rule="evenodd" clip-rule="evenodd" d="M320.579 311.828L291.276 443.531L311.675 390.636C303.029 387.373 312.049 365.345 313.883 358.165C319.602 335.784 328.904 301.388 346.947 285.797C354.333 279.415 356.439 281.81 361.287 279.034C352.403 270.127 341.321 273.729 334.274 282.684C328.361 290.198 323.079 309.305 320.579 311.828Z" fill="#E16C35"/>
<path fill-rule="evenodd" clip-rule="evenodd" d="M229.497 457.036L256.127 457.403L227.182 393.203L229.497 457.036Z" fill="#FDA955"/>
<path fill-rule="evenodd" clip-rule="evenodd" d="M227.182 393.203L256.127 457.403L256.364 458.651L263.326 458.59C260.795 436.246 242.676 397.7 231.471 377.995L227.182 393.203Z" fill="#E16C35"/>
<path fill-rule="evenodd" clip-rule="evenodd" d="M233.431 309.669C237.59 305.991 239.525 281.191 238.805 275.169L238.465 261.746C231.728 262.529 201.54 265.319 199.254 270.22C207.039 275.621 213.568 271.538 222.113 284.155C227.554 292.19 229.681 303.94 233.431 309.669Z" fill="#E16C35"/>
<path fill-rule="evenodd" clip-rule="evenodd" d="M238.493 256.039L238.465 261.746L238.805 275.169C259.043 276.927 294.45 267.833 298.122 244.532C290.553 247.328 281.958 255.346 272.953 258.245C260.446 262.27 248.364 259.043 238.493 256.039Z" fill="#DC908D"/>
<path fill-rule="evenodd" clip-rule="evenodd" d="M168.015 321.299C174.555 323.299 195.471 345.581 200.541 352.002C203.631 355.917 226.473 388.652 226.568 388.706C235.514 374.367 216.75 355.937 207.443 346.376C196.136 334.763 182.681 321.436 165.501 321.188L168.015 321.299Z" fill="#E16C35"/>
<path fill-rule="evenodd" clip-rule="evenodd" d="M141.728 492.577L141.391 495.361C131.766 494.627 127.296 486.692 121.6 481.462L118.484 483.965C121.272 490.983 127.152 493.197 132.154 497.25L140.355 499.974L156.862 504.664L164.959 505.976L164.169 501.838C158.412 499.503 149.283 498.923 143.72 496.07L144.401 491.33L145.667 480.87C148.051 457.848 152.343 434.926 153.482 411.726C153.943 402.337 151.87 348.074 145.155 343.918C143.556 346.418 147.072 356.762 147.784 360.281C151.582 379.066 152.667 399.738 151.057 418.813C149.154 441.372 145.988 470.52 141.728 492.577Z" fill="#E16C35"/>
<path fill-rule="evenodd" clip-rule="evenodd" d="M144.294 463.399C142.568 457.204 111.543 415.591 104.782 422.109C95.9671 430.607 134.278 462.131 144.294 463.399Z" fill="#E16C35"/>
<path fill-rule="evenodd" clip-rule="evenodd" d="M203.503 196.694L202.502 181.869C199.954 178.811 188.924 176.32 194.73 169.284L202.594 168.233L203.553 159.092C198.262 157.579 194.067 153.088 187.363 156.318C180.989 159.388 183.145 166.641 185.479 171.624C189.6 180.424 193.982 192.862 203.503 196.694Z" fill="#DC908D"/>
<path fill-rule="evenodd" clip-rule="evenodd" d="M156.709 326.26L168.015 321.299L165.501 321.188L165.337 318.767L166.939 306.867C153.363 284.368 156.231 280.827 160.244 255.699C148.463 279.617 152.321 301.132 156.709 326.26Z" fill="#456C91"/>
<path fill-rule="evenodd" clip-rule="evenodd" d="M282.085 157.028C287.166 157.052 292.167 154.721 296.59 157.776C299.518 159.798 307.403 169.01 312.864 175.864C315.173 176.892 329.408 184.105 331.127 185.309L325.04 206.327C330.985 205.286 333.021 201.031 336.108 196.324C338.703 192.369 342.774 186.806 344.335 182.665C342.017 181.099 332.517 178.109 328.541 176.01C318.518 170.715 309.201 165.622 300.489 158.325C297.06 155.453 296.649 155.175 291.968 155.443C289.217 155.601 283.995 155.365 282.085 157.028Z" fill="#DC908D"/>
<path d="M382.561 322.91C382.561 322.91 390.574 317.411 380.558 312.911C370.541 308.412 368.037 309.911 368.037 309.911L323.965 347.908L299.926 409.404L285.402 460.4L292.914 465.899L318.456 425.402L382.561 322.91Z" fill="#E16C35"/>
<path fill-rule="evenodd" clip-rule="evenodd" d="M213.035 183.119C198.193 187.763 211.46 208.482 226.374 204.476C240.753 200.613 228.302 178.341 213.035 183.119Z" fill="#DC908D"/>
<path fill-rule="evenodd" clip-rule="evenodd" d="M306.439 185.003C291.2 190.961 290.9 213.965 304.976 208.666C318.841 203.447 320.377 179.554 306.439 185.003Z" fill="#DC908D"/>
<path fill-rule="evenodd" clip-rule="evenodd" d="M277.691 222.135C272.949 227.91 264.59 230.512 257.116 229.529C251.932 228.848 241.299 224.063 239.573 219.172C244.382 219.478 250.9 221.429 257.021 221.824C263.841 222.264 271.379 221.627 277.691 222.135ZM282.043 219.546C279.34 217.813 240.297 214.74 235.798 215.49C235.581 223.622 248.507 232.472 256.373 233.497C266.678 234.84 278.301 229.355 282.043 219.546Z" fill="#DC908D"/>
<path fill-rule="evenodd" clip-rule="evenodd" d="M204.184 145.39C209.28 144.309 224.536 126.16 228.481 121.247C235.789 112.145 241.607 101.868 247.734 91.896C243.738 87.2612 241.662 92.4746 235.845 101.316C232.475 106.439 228.8 111.077 225.151 116.015L208.072 136.406C203.88 140.682 204.173 138.781 204.184 145.39Z" fill="#DC908D"/>
<path fill-rule="evenodd" clip-rule="evenodd" d="M293.775 520.164C289.328 513.782 289.577 516.47 293.156 509.499C290.616 507.39 289.823 507.283 286.755 508.036C281.929 509.222 283.705 508.02 279.805 507.847C269.672 507.399 271.036 527.363 282.554 526.029C288.161 525.379 290.902 528.785 293.775 520.164Z" fill="#FDFDFD"/>
<path fill-rule="evenodd" clip-rule="evenodd" d="M226.247 165.881C225.005 168.601 223.717 172.847 228.146 176.016C230.327 176.884 233.957 177.897 236.014 176.128C238.07 174.36 238.352 173.402 238.93 169.81C239.509 166.218 235.463 163.711 233.779 163.116C232.095 162.521 227.489 163.16 226.247 165.881Z" fill="#22415A"/>
<path fill-rule="evenodd" clip-rule="evenodd" d="M277.691 222.135C271.379 221.627 263.841 222.264 257.021 221.824C250.9 221.429 244.382 219.478 239.573 219.172C241.299 224.063 251.932 228.847 257.116 229.529C264.59 230.511 272.949 227.909 277.691 222.135Z" fill="#FCFBFB"/>
<path fill-rule="evenodd" clip-rule="evenodd" d="M49.2061 488.072C51.0444 486.128 60.8256 465.655 61.0486 463.149C60.4534 460.196 52.2237 457.19 49.2185 455.455L49.2061 488.072Z" fill="#FDFDFD"/>
<path fill-rule="evenodd" clip-rule="evenodd" d="M426.633 377.205C418.326 380.245 424.985 394.654 434.03 391.855C442.708 389.169 433.924 374.537 426.633 377.205Z" fill="#E16C35"/>
<path fill-rule="evenodd" clip-rule="evenodd" d="M145.667 480.87L144.401 491.33L144.25 493.462L154.662 496.47L153.652 473.342C152.889 476.265 153.437 476.5 150.78 477.697C147.086 479.361 148.194 477.936 145.667 480.87Z" fill="#E16C35"/>
<path fill-rule="evenodd" clip-rule="evenodd" d="M289.385 149.012C287.786 145.784 281.119 138.789 278.384 135.358C274.757 130.808 271.254 125.81 268.079 120.912C263.943 114.532 253.029 95.1697 247.586 92.0258C248.222 93.7721 255.469 103.851 257.286 106.886C260.339 111.986 263.369 117.418 266.548 122.376C270.668 128.803 282.561 147.341 289.385 149.012Z" fill="#DC908D"/>
<path fill-rule="evenodd" clip-rule="evenodd" d="M410.104 487.814L406.454 489.567L404.903 496.066C407.685 494.843 410.217 492.897 413.252 491.591C416.434 490.222 420.101 489.832 422.838 488.494C423.584 481.148 414.133 486.26 410.104 487.814Z" fill="#E16C35"/>
<path fill-rule="evenodd" clip-rule="evenodd" d="M164.169 501.838L163.285 498.053L154.662 496.47L144.25 493.462L144.401 491.33L143.72 496.07C149.283 498.923 158.412 499.503 164.169 501.838Z" fill="#E54E23"/>
<path fill-rule="evenodd" clip-rule="evenodd" d="M258.312 207.341C252.954 198.848 252.539 204.006 257.683 194.761C259.322 191.816 259.776 189.253 259.78 185.882L258.388 176.378C257.934 183.515 259.504 188.077 255.609 194.661C254.223 197.003 252.091 199.392 252.806 202.017C253.497 204.55 255.939 207.165 258.312 207.341Z" fill="#DC908D"/>
<path fill-rule="evenodd" clip-rule="evenodd" d="M406.454 489.567L410.104 487.814L410.672 473.57C409.079 475.646 406.892 486.417 406.454 489.567Z" fill="#F76A34"/>
<path fill-rule="evenodd" clip-rule="evenodd" d="M311.675 390.636C327.665 366.174 344.387 336.028 368.351 317.329C376.879 310.674 375.957 314.723 383.26 313.283C385.052 302.489 369.791 283.472 361.287 279.034C356.439 281.81 354.333 279.415 346.946 285.797C328.904 301.388 319.602 335.784 313.883 358.165C312.049 365.345 303.029 387.373 311.675 390.636Z" fill="#FDA955"/>
<path fill-rule="evenodd" clip-rule="evenodd" d="M283.545 507.553C287.474 507.226 289.171 505.206 288.742 501.257C285.089 501.793 283.596 503.628 283.545 507.553Z" fill="#FAFEFE"/>
<path fill-rule="evenodd" clip-rule="evenodd" d="M408.983 333.053L410.23 332.018L408.802 331.065L408.983 333.053Z" fill="#754539"/>
<path fill-rule="evenodd" clip-rule="evenodd" d="M277.354 176.373V175.691C275.94 175.918 276.281 176.171 276.559 174.721L275.811 175.514L277.354 176.373Z" fill="#AE8771"/>
<path fill-rule="evenodd" clip-rule="evenodd" d="M160.67 254.279C159.739 264.705 155.89 269.548 157.265 282.911C158.148 291.484 161.979 300.386 167.166 306.854C172.595 296.064 187.603 272.893 201.659 273.38C224.756 274.18 225.531 305.109 232.486 312.283L233.395 311.704L233.415 309.681C229.399 303.215 227.729 292.479 222.101 284.164C213.578 271.572 206.79 275.597 199.31 270.243C201.168 265.427 232.191 262.451 238.458 261.74L238.475 256.028C225.518 246.753 220.48 240.427 216.042 234.344C209.72 224.479 203.367 208.433 203.492 196.716C192.074 192.149 193.84 183.145 189.025 179.526C188.714 179.784 188.161 186.705 187.417 189.301C186.476 192.587 185.574 195.808 184.463 199.034C180.857 209.504 164.968 249.73 160.67 254.279Z" fill="#2A3652"/>
<path fill-rule="evenodd" clip-rule="evenodd" d="M284.697 169.984C283.456 172.704 282.167 176.95 286.596 180.119C288.777 180.987 292.408 182 294.464 180.231C296.52 178.463 296.802 177.505 297.381 173.913C297.959 170.321 293.913 167.813 292.229 167.219C290.545 166.624 285.939 167.263 284.697 169.984Z" fill="#22415A"/>
<path fill-rule="evenodd" clip-rule="evenodd" d="M313.948 420.903L296.42 458.417H392.937L408.983 333.053L408.802 331.065L385.224 319.375C375.565 326.539 363.556 340.909 350.508 355.408C339.582 367.549 321.903 407.506 313.948 420.903Z" fill="#FDA955"/>
<path fill-rule="evenodd" clip-rule="evenodd" d="M293.775 520.164C290.902 528.785 288.161 525.379 282.554 526.029C271.036 527.363 269.671 507.399 279.805 507.847C283.705 508.02 281.929 509.222 286.755 508.036C289.823 507.283 290.616 507.39 293.155 509.499C289.577 516.47 289.328 513.782 293.775 520.164ZM283.545 507.553C283.596 503.628 285.089 501.794 288.742 501.257C289.171 505.207 287.474 507.226 283.545 507.553ZM281.739 458.719L272.039 458.793L269.243 458.515L263.325 458.59L256.364 458.651C232.003 458.596 207.649 458.536 183.285 458.577C174.435 458.592 156.488 455.422 156.828 468.042C157.037 475.825 162.253 489.31 163.285 498.053L164.169 501.838L164.959 505.976L178.94 564.332L179.479 565.145C215.894 560.392 256.127 559.795 293.083 556.805C310.687 555.381 329.158 552.775 346.468 549.256C352.434 548.043 394.06 536.662 394.508 536.692L398.6 521.477L404.903 496.066L406.454 489.567C406.892 486.417 409.079 475.646 410.672 473.57L411.264 464.348C401.323 456.158 407.95 460.062 394.904 458.427L392.937 458.418L325.667 457.964L323.785 458.392L295.806 458.577L288.079 457.902L281.739 458.719Z" fill="#B1BECB"/>
</svg>
