<svg width="340" height="221" viewBox="0 0 340 221" fill="none" xmlns="http://www.w3.org/2000/svg">
<g clip-path="url(#clip0_658_6455)">
<path d="M305.094 1.5503L19.9398 23.7214C8.92736 24.5776 0.703444 34.1984 1.57119 45.2099L13.3951 195.255C14.2629 206.266 23.8937 214.499 34.9062 213.643L320.061 191.471C331.073 190.615 339.297 180.994 338.429 169.983L326.605 19.9381C325.737 8.92659 316.107 0.694072 305.094 1.5503Z" fill="#C3E6FF"/>
<path d="M8 36.0002C8 24.9544 16.941 16.0001 27.9868 16.0002C72.5227 16.0006 178.579 16.0014 211.531 16.0007C240.481 16.0001 287.717 16 314.401 16C325.446 16 334.4 24.9543 334.4 36V199.673C334.4 210.719 325.446 219.673 314.4 219.673H28C16.9543 219.673 8 210.719 8 199.673V36.0002Z" fill="#EDF8FF"/>
<mask id="mask0_658_6455" style="mask-type:luminance" maskUnits="userSpaceOnUse" x="10" y="16" width="325" height="205">
<path d="M335 16H10V221H335V16Z" fill="white"/>
</mask>
<g mask="url(#mask0_658_6455)">
<path fill-rule="evenodd" clip-rule="evenodd" d="M74.7095 152.709C69.5409 143.96 67.0929 147.09 60.7165 140.669C41.7014 121.519 49.1538 172.518 69.066 171.249C70.6579 171.147 76.9552 164.741 77.0402 162.5C77.1545 159.399 75.6271 155.446 74.7095 152.709Z" fill="#DC908D"/>
<path fill-rule="evenodd" clip-rule="evenodd" d="M122.928 194.592C116.812 187.695 88.6857 170.222 79.8553 169.528C81.5851 177.647 92.6669 202.833 96.4987 211.851C111.143 230.695 162.087 238.735 122.928 194.592Z" fill="#EE7946"/>
<path fill-rule="evenodd" clip-rule="evenodd" d="M182.424 32.0587C183.573 33.99 184.497 36.2393 186.218 37.8293L192.239 24.3654C191.896 27.0844 190.164 31.1863 189.193 33.9112C187.575 38.4653 186.159 38.4332 188.431 42.6489C191.386 48.1308 194.16 53.1196 196.634 59.0274C198.982 64.6318 208.713 92.8259 206.347 97.8409C204.934 95.9679 202.492 83.5543 201.378 79.9104C199.636 74.201 197.895 68.3836 195.769 63.068C193.676 57.8225 191.316 52.2852 188.754 47.6348L180.729 33.3452C178.938 34.6668 175.089 39.8336 173.43 41.6891C171.155 44.2273 169.313 44.9887 165.745 49.4378C167.185 51.1095 170.504 52.7112 173.107 53.7906C175.291 52.6207 175.895 50.9315 178.469 50.6281C179.334 52.7929 178.097 54.9868 178.117 57.1894C183.793 61.3351 188.39 65.7929 187.006 76.1148C183.35 75.2192 178.707 70.0845 174.148 68.334C173.456 70.2128 171.99 82.2239 172.48 84.0327C174.362 85.8182 180.211 88.4497 182.773 89.8763C188.903 93.2868 196.59 98.5995 201.852 102.894C203.966 104.621 203.972 104.641 205.966 106.797C207.473 108.431 209.32 109.152 210.108 111.41C207.927 110.713 202.494 106.051 200.132 104.073C196.786 101.263 193.814 99.2092 189.935 96.6127C185.432 93.5961 172.644 85.7919 167.208 84.094L163.749 96.8257C171.351 98.1298 179.143 100.227 185.968 102.701C190.68 104.411 201.964 108.834 205.206 111.36L210.583 114.298C212.794 113.808 215.722 113.595 216.534 115.532C218.141 113.557 221.422 115.238 224.919 116.46C225.749 116.749 225.74 116.734 226.104 116.921C227.103 117.44 227.141 117.542 227.596 117.965L227.942 118.333C239.698 123.66 240.759 123.576 252.861 130.569C269.487 140.176 282.598 152.767 286.221 173.09C286.881 176.795 289.461 206.235 288.482 207.487C290.663 210.363 292.779 207.831 293.02 206.078C293.193 204.803 292.413 200.631 292.36 198.74C292.193 192.967 293.583 188.068 293.653 182.843C293.084 169.286 292.366 159.267 285.632 147.566C281.783 140.882 282.067 145.022 276.201 142.163L279.622 139.026C277.051 134.376 266.022 126.653 259.801 123.115C246.84 115.736 238.197 115.623 233.559 113.359C241.325 113.227 247.136 114.87 254.06 115.386L257.699 109.266C257.575 109.166 257.37 108.869 257.326 108.968C257.273 109.085 256.763 108.773 256.47 107.22L256.373 103.97C249.352 101.841 216.177 111.346 213.565 109.77C216.918 107.521 247.552 102.663 253.412 101.987C267.889 100.318 284.207 99.9794 298.766 101.31C320.868 103.326 335.626 106.716 351.115 120.267C353.563 122.406 355.037 123.485 357.166 126.003C358.939 128.103 361.018 130.995 362.888 132.625V125.851L362.405 125.145C362.059 124.585 362.132 124.728 361.768 124.072C361.367 123.342 361.191 122.916 360.86 122.318L353.806 112.262C340.956 98.8037 330.094 92.89 310.106 87.4432C299.273 84.8321 286.699 83.741 275.113 84.552L273.782 95.79C272.348 93.1585 272.087 88.2426 271.868 84.8846C249.431 85.8124 229.408 95.9067 224.11 96.7586C229.595 93.2635 238.777 89.8326 245.022 86.7605C258.742 80.0067 271.645 73.5446 284.146 64.8798C289.329 61.2884 297.593 55.5703 301.243 51.5034C295.644 48.5276 290.648 45.2192 285.154 42.328C280.179 44.802 270.413 52.4048 265.819 56.2267C264.829 57.0523 263.969 57.7875 262.902 58.6627C261.574 59.7538 261.431 59.5263 259.977 61.0813C260.73 63.9024 265.424 69.2063 264.881 71.2865C262.762 71.9312 259.786 63.9987 258.349 62.5312C251.762 67.2517 236.845 82.221 232.744 85.223C231.079 86.4454 231.507 86.2792 229.994 87.8021L224.318 92.855C221.002 95.6704 216.558 100.82 212.562 102.976C213.521 100.645 213.864 100.79 216.165 98.5965C217.499 97.3216 218.458 96.5748 219.903 95.3699C222.635 93.0943 224.535 90.6057 227.138 88.1813L234.459 81.0628C242.196 74.1805 265.157 51.941 273.284 48.4459L267.021 35.2678L265.819 34.6289C249.762 46.1323 247.845 48.44 235.544 62.9368C231.073 68.2056 226.951 73.8363 222.899 79.6887L211.691 97.3246C212.102 93.8528 215.315 81.655 216.417 73.7517C217.651 64.9119 217.455 56.075 215.602 47.6407C260.041 92.397 171.108 -11.0639 182.424 32.0587Z" fill="#276F6F"/>
<path fill-rule="evenodd" clip-rule="evenodd" d="M90.383 138.014C94.7014 139.423 95.0943 138.554 98.8996 138.128C97.5657 142.635 83.8013 140.873 82.9805 134.157C85.405 134.986 86.9148 136.879 90.383 138.014ZM95.9181 127.409C96.1966 123.473 95.6777 116.031 96.9647 112.79C97.9732 114.193 97.6478 115.806 97.598 117.627C97.4924 121.548 98.5625 126.365 97.1875 127.975C96.7829 128.451 95.9533 128.774 95.2731 128.83L93.0479 128.299C93.1769 128.22 93.3499 128.127 93.4525 128.086L95.9181 127.409ZM63.5256 114.071C78.8878 111.777 78.9787 120.408 64.9915 122.905C62.2129 124.405 57.7129 117.621 63.5256 114.071ZM80.5002 108.676C78.3014 108.005 81.6231 109.102 80.5002 107.588C83.1769 106.727 83.1402 108.066 85.2129 109.405C83.533 112.568 81.2129 115.442 80.5002 108.676ZM76.7129 97.9053C82.7129 96.8715 88.2129 97.4053 89.7129 102.348C87.734 101.838 89.0247 103.402 87.2129 101.905C82.9356 96.6584 83.4353 96.7471 76.7129 97.9053ZM70.5 152.5C75.4065 156.5 84.7171 166.436 94.2129 157.905C97.4173 155.026 100.63 152.468 103.213 147.905C104.975 144.787 108.615 138.91 108.539 135.097C105.478 131.628 105.432 128.124 107.713 123.905C110.058 123.199 108.727 122.857 111.213 123.405C111.137 121.696 112.219 115.115 112.213 113.405C113.713 111.905 116.412 108.365 114.238 109.405C114.23 112.597 117.976 112.544 114.713 112.905C113.962 111.689 114.145 115.654 114.213 111.905H112.713C115.9 111.616 112.849 110.001 114.238 107.588C115.534 105.336 116.985 102.465 113.242 102.348C109.486 102.235 107.86 103.513 105.213 103.405C106.022 100.368 110.468 100.566 114.3 100.379L113.684 99.11L104.842 93.2401C87.1112 81.3866 87.0291 73.9471 84.0359 71.8174C80.9195 77.3459 74.027 82.1889 64.9915 90.2672C58.3306 94.3808 58.6561 92.8346 55.698 93.5902C53.0096 94.2787 50.6144 95.8716 50.9076 102.847C42.7486 115.348 48 134.157 70.5 152.5Z" fill="#FDDBCC"/>
<path fill-rule="evenodd" clip-rule="evenodd" d="M170.967 183.727L190.351 183.704C191.377 180.62 194.734 175.328 196.467 171.693C210.193 142.933 208.029 145.375 214.007 118.429C214.001 113.067 213.142 104.472 213.963 99.6205L208.586 96.6826C207.59 102.564 207.273 109.193 206.455 115.2C195.426 147.752 199.026 139.738 179.296 171.696L170.967 183.727Z" fill="#1D3134"/>
<path fill-rule="evenodd" clip-rule="evenodd" d="M272.14 120.404C275.972 122.412 284.688 123.862 289.534 124.582L291.536 125.014L302.935 125.717C319.428 125.562 329.402 116.303 351.897 128.028C359.47 131.975 357.866 132.465 362.888 136.943V134.192C360.235 132.418 358.743 129.895 356.72 128.051L354.263 125.691C350.282 120.772 341.501 114.835 335.623 112.314C335.881 114.605 336.784 117.846 335.547 119.763C334.38 119.325 334.272 119.456 334.058 115.982C333.964 114.441 333.844 112.898 333.773 111.352C320.78 104.242 290.959 101.173 273.92 102.614C273.582 108.948 273.307 114.19 272.14 120.404Z" fill="#276F6F"/>
<path fill-rule="evenodd" clip-rule="evenodd" d="M297.057 20.0127L293.061 21.4335L293.301 27.4522C290.197 27.5339 290.05 25.3896 288.37 23.7791C283.032 24.526 270.018 32.1347 265.819 34.6291L267.021 35.268C268.824 37.1176 272.885 43.8423 273.679 47.4191L300.076 30.5797C304.729 27.4901 323.266 14.7555 326.679 13.3668C325.943 14.42 326.638 13.6381 325.776 14.4667L286.177 41.2896C288.012 43.4952 299.047 48.2827 301.959 50.9463C309.396 46.8677 303.715 40.5456 302.39 34.0368L304.506 34.7866L315.219 37.882C315.943 36.3679 317.412 34.6116 318.467 33.4037C320.165 31.4578 320.443 30.9881 322.076 29.0043C326.471 23.6595 340.027 6.89012 340.994 1.42285C334.067 4.37821 327.198 8.00167 319.578 11.0358C312.413 13.889 303.63 16.8065 297.057 20.0127Z" fill="#256E6D"/>
<path fill-rule="evenodd" clip-rule="evenodd" d="M131.304 88.9575C134.728 91.2681 138.648 94.3343 144.241 95.0782C149.897 95.828 156.446 95.9622 162.298 96.5282L166.106 82.7988C159.504 80.8062 141.06 70.5806 128.287 66.4524C132.312 76.9347 131.676 77.0514 131.304 88.9575Z" fill="#256E6D"/>
<path fill-rule="evenodd" clip-rule="evenodd" d="M260.1 138.02C259.288 140.544 258.162 141.614 256.793 143.805C255.837 145.34 254.998 147.869 253.169 148.517C255.339 150.585 259.053 151.347 261.844 154.168C269.367 161.774 268.024 172.087 276.576 183.815C278.713 183.792 279.795 183.135 281.504 182.277C282.545 181.755 284.459 180.55 285.647 180.953C287.502 177.464 281.504 161.552 277.696 155.495C274.899 151.052 265.667 139.546 260.062 138.011L260.1 138.02Z" fill="#296E6D"/>
<path fill-rule="evenodd" clip-rule="evenodd" d="M226.098 120.32C225.159 122.925 221.029 125.314 222.366 128.847C223.392 131.561 225.376 136.331 227.253 137.923C229.598 134.685 231.976 127.631 234.608 125.638L230.152 141.103C231.131 141.842 249.707 147.691 252.257 148.263C254.799 146.008 257.816 139.076 260.1 138.02L260.061 138.011C258.968 136.03 248.543 129.46 245.482 128.249C244.221 129.005 243.535 130.259 242.776 131.456C241.92 132.809 241.442 133.46 240.665 134.691C239.419 136.66 237.924 139.773 235.755 140.672C237.007 136.546 242.389 131.21 244.166 127.068C239.41 125.507 233.005 121.428 227.499 119.124L226.432 120.06C226.388 119.958 226.209 120.232 226.098 120.32Z" fill="#26716C"/>
<path fill-rule="evenodd" clip-rule="evenodd" d="M173.664 68.0219C171.175 65.7229 155.232 57.4812 151.134 57.5337L148.835 57.7117L146.51 72.5468C152.752 73.7284 165.701 81.6142 170.888 83.105C171.717 78.3116 173.614 71.9021 173.664 68.0219Z" fill="#256E6D"/>
<path fill-rule="evenodd" clip-rule="evenodd" d="M195.769 63.068C197.895 68.3836 199.636 74.201 201.377 79.9104C202.492 83.5542 204.934 95.9679 206.347 97.8409C208.713 92.8258 198.982 64.6318 196.634 59.0274C191.116 45.8668 152.702 -44.699 195.769 63.068Z" fill="#14322D"/>
<path fill-rule="evenodd" clip-rule="evenodd" d="M120.131 54.1465C121.55 56.1624 123.145 57.9333 124.631 60.2497C126.639 63.3714 125.921 64.1124 129.908 65.6207C132.702 66.6798 143.473 71.2893 145.276 71.3914L148.835 57.7116L151.134 57.5336C151.028 57.4403 150.849 57.1777 150.791 57.2827C150.732 57.3877 150.527 57.0872 150.445 57.0406L144.872 55.0509C138.973 53.3121 128.416 50.4676 122.787 50.0154L121.151 53.1166C120.336 54.2223 121.057 53.5426 120.131 54.1465Z" fill="#256E6D"/>
<path fill-rule="evenodd" clip-rule="evenodd" d="M256.47 107.22L257.37 105.82C257.432 105.671 257.499 105.517 257.555 105.356C257.672 105.021 257.678 104.005 257.813 103.454L272.061 102.675L271.146 120.247L272.14 120.404C273.307 114.19 273.583 108.948 273.92 102.614C290.959 101.173 320.78 104.242 333.773 111.352C333.844 112.898 333.964 114.441 334.058 115.981C334.272 119.456 334.38 119.325 335.547 119.762C336.784 117.846 335.881 114.604 335.623 112.314C341.501 114.835 350.282 120.772 354.263 125.691L356.72 128.051C358.743 129.895 360.235 132.418 362.888 134.192V132.625C361.018 130.995 358.939 128.103 357.166 126.003C355.037 123.485 353.563 122.406 351.115 120.267C335.626 106.716 320.868 103.326 298.766 101.31C284.207 99.9794 267.889 100.318 253.412 101.987C247.552 102.663 216.918 107.521 213.565 109.77C216.177 111.346 249.352 101.841 256.373 103.97L256.47 107.22Z" fill="#143431"/>
<path fill-rule="evenodd" clip-rule="evenodd" d="M66.2128 111.905C55.8855 113.447 54.3354 127.333 68.8855 124.734C79.3855 122.858 76.8855 108.734 66.2128 111.905Z" fill="#DC908D"/>
<path fill-rule="evenodd" clip-rule="evenodd" d="M267.021 35.2679L273.284 48.4459C265.157 51.941 242.196 74.1806 234.459 81.0628L227.138 88.1813C224.535 90.6057 222.635 93.0943 219.903 95.3699C218.458 96.5748 217.499 97.3217 216.165 98.5966C213.864 100.79 213.521 100.645 212.562 102.976C216.558 100.82 221.002 95.6704 224.318 92.8551L229.994 87.8021C231.507 86.2792 231.079 86.4455 232.744 85.2231C236.845 82.221 251.762 67.2517 258.349 62.5313C259.786 63.9988 262.762 71.9313 264.881 71.2865C265.424 69.2064 260.73 63.9025 259.977 61.0813C261.431 59.5263 261.574 59.7539 262.902 58.6628C263.97 57.7875 264.829 57.0523 265.819 56.2267C270.413 52.4049 280.179 44.802 285.154 42.3281C290.648 45.2192 295.644 48.5276 301.243 51.5034C302.146 51.5472 301.959 51.7835 301.959 50.9462C299.047 48.2825 288.012 43.495 286.177 41.2895L314.289 22.2474L325.776 14.4666C326.638 13.638 325.943 14.4199 326.679 13.3667C316.415 17.5503 285.784 39.6965 273.679 47.419C272.885 43.8422 268.824 37.1175 267.021 35.2679Z" fill="#143431"/>
<path fill-rule="evenodd" clip-rule="evenodd" d="M50.2917 103.854L51.1214 104.283C51.4674 104.382 51.441 104.945 54.6541 104.405C55.1701 104.318 82.2474 75.0207 84.0504 71.8203C87.0436 73.9529 87.1257 81.3924 104.857 93.243L113.699 99.1158C111.758 93.3072 103.655 87.5482 98.6122 83.4463C94.3876 80.0096 89.3802 73.7546 86.4925 68.8533C86.2433 68.4303 85.8856 67.8322 85.6628 67.5288L84.8976 66.5981C84.8419 66.531 84.7188 66.391 84.6191 66.2976C81.7138 74.376 72.517 84.2136 64.9092 87.3265C63.9066 87.7349 57.4774 94.7222 53.4697 99.5651C51.8162 101.561 50.5732 103.194 50.2917 103.854Z" fill="#DC908D"/>
<path fill-rule="evenodd" clip-rule="evenodd" d="M227.499 119.124C233.005 121.428 239.411 125.507 244.166 127.068C242.389 131.211 237.007 136.547 235.755 140.672C237.924 139.773 239.419 136.66 240.665 134.691C241.442 133.46 241.92 132.809 242.776 131.456C243.535 130.259 244.222 129.005 245.482 128.249C248.543 129.46 258.968 136.03 260.062 138.011C265.667 139.546 274.899 151.052 277.696 155.495C281.504 161.552 287.502 177.464 285.647 180.953L285.145 182.129C286.283 182.817 285.541 181.778 286.036 183.392C286.078 183.523 287.309 197.145 286.11 198.933C288.133 205.421 284.629 204.17 287.971 207.7L288.482 207.487C289.461 206.235 286.881 176.795 286.221 173.09C282.598 152.767 269.487 140.176 252.861 130.569C240.759 123.576 239.698 123.66 227.942 118.333L227.499 119.124Z" fill="#143431"/>
<path fill-rule="evenodd" clip-rule="evenodd" d="M256.47 107.22C256.763 108.772 257.273 109.085 257.326 108.968C257.37 108.869 257.575 109.166 257.699 109.266C259.291 108.174 259.698 109.435 260.941 111.314C261.85 112.691 262.609 113.957 263.451 115.232C266.476 119.83 265.453 118.505 271.146 120.247L272.061 102.675L257.813 103.454C257.678 104.005 257.672 105.021 257.555 105.356C257.499 105.517 257.432 105.671 257.37 105.82L256.47 107.22Z" fill="#246E6C"/>
<path fill-rule="evenodd" clip-rule="evenodd" d="M78.4955 110.554C80.4955 116.054 84.3156 114.713 85.9955 111.553C85.9955 108.202 83.4403 106.045 80.7636 106.905C79.4955 106.905 78.7639 108.905 78.4955 110.554Z" fill="#1C2E32"/>
<path fill-rule="evenodd" clip-rule="evenodd" d="M103.213 114.447C105.08 119.521 108.645 118.284 110.213 115.369C110.213 112.276 107.828 110.286 105.33 111.08C104.146 111.08 103.463 112.926 103.213 114.447Z" fill="#1C2E32"/>
<path fill-rule="evenodd" clip-rule="evenodd" d="M108.554 135.102C110.562 132.882 111.187 126.558 111.213 122.905C108.727 122.357 109.558 122.199 107.213 122.905C104.932 127.124 105.493 131.633 108.554 135.102Z" fill="#DC908D"/>
<path fill-rule="evenodd" clip-rule="evenodd" d="M286.11 198.933C287.309 197.144 286.077 183.523 286.036 183.392C285.541 181.778 286.283 182.817 285.145 182.128C283.791 183.15 281.023 186.233 279.396 188.054C280.29 189.816 281.607 190.837 283.011 192.856C284.582 195.111 285.054 196.047 286.11 198.933Z" fill="#23716D"/>
<path fill-rule="evenodd" clip-rule="evenodd" d="M226.098 120.32C226.921 118.966 226.716 119.55 227.596 117.965C227.141 117.542 227.103 117.44 226.104 116.921C225.74 116.734 225.749 116.749 224.919 116.46C221.422 115.238 218.141 113.557 216.534 115.532C219.622 117.291 219.783 121.691 221.246 125.134C223.787 123.43 224.418 121.21 226.098 120.32Z" fill="#2A6965"/>
<path fill-rule="evenodd" clip-rule="evenodd" d="M73.2129 99.4053C79.9353 98.2441 80.8785 98.4112 85.7129 102.405C87.5247 103.905 88.2129 105.405 90.7129 103.905C90.0445 97.8545 81.451 93.7279 73.2129 99.4053Z" fill="#283636"/>
<path fill-rule="evenodd" clip-rule="evenodd" d="M98.9143 138.134C95.1119 138.56 94.7161 139.429 90.3977 138.017C86.9295 136.885 85.4196 134.992 82.9951 134.163C83.816 140.876 97.5804 142.641 98.9143 138.134Z" fill="#DC908D"/>
<path fill-rule="evenodd" clip-rule="evenodd" d="M95.9327 127.412L93.4671 128.092C93.3645 128.133 93.1915 128.223 93.0625 128.302L95.2877 128.836C95.9678 128.78 96.7975 128.454 97.2021 127.981C98.5771 126.37 97.507 121.554 97.6125 117.633C97.6624 115.812 97.9878 114.196 96.9793 112.796C95.6923 116.037 96.2112 123.479 95.9327 127.412Z" fill="#DC908D"/>
<path fill-rule="evenodd" clip-rule="evenodd" d="M252.257 148.263L253.169 148.517C254.999 147.869 255.837 145.34 256.793 143.805C258.162 141.614 259.288 140.543 260.1 138.02C257.816 139.076 254.799 146.008 252.257 148.263Z" fill="#143431"/>
<path fill-rule="evenodd" clip-rule="evenodd" d="M226.098 120.32C226.209 120.232 226.388 119.958 226.432 120.06L227.499 119.124L227.942 118.333L227.596 117.965C226.716 119.549 226.921 118.966 226.098 120.32Z" fill="#D5C78B"/>
<path fill-rule="evenodd" clip-rule="evenodd" d="M39.2129 162.771C44.6747 167.827 41.4322 205.383 42.2501 213.905C43.2 223.766 51.8925 232.366 51.787 242.271C51.6902 251.195 50.242 263.67 51.7518 272.178C52.9186 278.762 55.522 274.999 54.4021 284.565C52.086 304.342 48.4654 309.693 61.1597 320.403C71.576 329.193 92.0833 337.528 105.66 338.1C102.426 320.388 93.4378 308.803 103.623 289.974C110.363 277.511 120.656 269.421 118.401 255.674C118.041 253.474 117.358 251.131 116.29 248.602C110.902 235.841 91.1451 218.83 85.2055 204.838C81.3738 195.82 80.7874 176.147 79.0577 168.028L73.4171 167.418C70.8108 173.443 51.787 164.405 50.4155 145.905L39.2129 162.771Z" fill="#FFFEFC"/>
<path d="M46.7124 157.405C50.2124 142.357 50.7124 146.405 54.1674 140.975C52.1871 140.521 48.3884 146.226 43.3169 148.94C27.5001 157.405 14.5001 173 16.5001 192C18.5001 211 20.9998 211.5 33 218.5C45.0002 225.5 109.213 233.405 87.2127 223.905C65.2128 214.405 46.1947 159.631 46.7124 157.405Z" fill="#FDA955"/>
<path fill-rule="evenodd" clip-rule="evenodd" d="M53.5006 146.405C61.3635 139.17 62.8714 99.2412 69.5 96.528C73.6425 94.833 86.7306 70.2945 86.7892 70.3616C91.6969 76.3365 91.8669 77.9615 98.6128 83.4463C103.655 87.5482 111.759 93.3072 113.699 99.1158L114.315 100.385C110.483 100.572 104.632 100.871 103.825 103.905C105.713 105.905 109.944 102.791 113.699 102.905C117.443 103.019 115.549 105.342 114.253 107.594C112.864 110.004 113.713 109.28 112.213 111.905L111.713 112.905C111.498 114.405 111.494 114.25 111.498 115.445C111.504 117.157 111.137 118.696 111.213 120.405C111.187 124.058 110.562 132.882 108.554 135.102C108.63 138.915 105.475 143.287 103.713 146.405C101.13 150.968 98.4176 153.026 95.2132 155.905C86.0332 161.427 84.1429 158.627 74.5005 155.905C73.7588 159.96 73.5877 165.026 74.2151 168.918L76.5 173.189L83 201.5C90.2648 202.057 89.0554 208.426 95.3938 215.44C98.6186 228.349 119.387 233.461 122.914 239.421C123.998 241.253 133.787 223.311 135.546 224.51C148.006 191.493 143.113 187.189 131.213 173.189C139.613 158.689 129.013 145.905 124.713 135.102C134.513 118.405 132.931 121.933 142.213 96.8256C142.586 84.9166 138.639 76.3581 132.713 68.9051C145.487 73.0333 159.504 80.806 166.107 82.7986L162.298 96.528L163.749 96.8256L167.209 84.0939C172.644 85.7919 185.432 93.596 189.935 96.6126C193.814 99.2091 196.787 101.263 200.132 104.072C202.495 106.051 207.927 110.713 210.109 111.41C209.32 109.152 207.473 108.431 205.966 106.797C203.973 104.641 203.967 104.621 201.853 102.894C196.59 98.5994 188.904 93.2867 182.773 89.8763C180.211 88.4496 174.362 85.8181 172.48 84.0327C171.991 82.2238 173.456 70.2128 174.148 68.3339L173.664 68.0218C173.615 71.902 171.718 78.3116 170.888 83.1049C165.702 81.6141 152.753 73.7283 146.511 72.5467L148.836 57.7116L145.277 71.3914C143.474 71.2893 136.507 66.9642 133.713 65.9051C129.726 64.3968 130.213 63.9051 128.213 60.9051C126.084 57.7116 122.429 57.7118 116.213 57.7118C113.429 50.7117 98.6128 42.2967 86.7893 44.4052C67.7885 43.8946 45.5002 44.4052 34.5 72.5467C15.5948 95.0524 16.1058 122.218 16.0001 135.102C10 164.5 24.0002 195.5 45.5002 201.5C80.1525 247.609 76.0005 204 74.5005 192.5C73.0005 181 69.5 177.5 62.5005 173.189C62.5005 160.5 58.6404 158.163 53.5006 146.405Z" fill="#334160"/>
<path fill-rule="evenodd" clip-rule="evenodd" d="M265.287 226.959C272.666 190.473 302.839 171.428 246.732 171.244C221.734 171.163 178.74 170.894 153.73 170.754C146.134 170.918 146.439 173.663 145.067 180.458C144.046 185.511 133.246 212.503 132.246 217.489C138.675 246.412 205.208 211.689 265.287 226.959Z" fill="#B1BECB"/>
<path d="M85.2129 222.405C84.4129 218.005 73.7129 175.405 73.7129 166.405C77.5462 165.239 82.1787 168.195 88.7129 177.405C109 206 109 222.405 109 222.405C104.5 226.905 86.0129 226.805 85.2129 222.405Z" fill="#FDA955"/>
</g>
</g>
<defs>
<clipPath id="clip0_658_6455">
<rect width="340" height="221" fill="white"/>
</clipPath>
</defs>
</svg>
